M48
; DRILL file {KiCad 7.0.2-6a45011f42~172~ubuntu20.04.1} date Sun 23 Apr 2023 02:30:32 PM WIB
; FORMAT={-:-/ absolute / inch / decimal}
; #@! TF.CreationDate,2023-04-23T14:30:32+07:00
; #@! TF.GenerationSoftware,Kicad,Pcbnew,7.0.2-6a45011f42~172~ubuntu20.04.1
; #@! TF.FileFunction,Plated,1,4,PTH
FMAT,2
INCH
; #@! TA.AperFunction,Plated,PTH,ViaDrill
T1C0.0157
; #@! TA.AperFunction,Plated,PTH,ViaDrill
T2C0.0177
; #@! TA.AperFunction,Plated,PTH,ComponentDrill
T3C0.0197
; #@! TA.AperFunction,Plated,PTH,ComponentDrill
T4C0.0394
; #@! TA.AperFunction,Plated,PTH,ComponentDrill
T5C0.1260
%
G90
G05
T1
X4.429Y-2.472
X4.429Y-2.572
X4.429Y-2.672
X4.429Y-2.772
X4.429Y-2.872
X4.429Y-2.972
X4.429Y-3.072
X4.429Y-3.172
X4.429Y-3.272
X4.429Y-3.372
X4.429Y-3.472
X4.429Y-3.572
X4.429Y-3.672
X4.429Y-3.772
X4.429Y-3.872
X4.429Y-3.972
X4.429Y-4.073
X4.464Y-2.246
X4.649Y-2.958
X4.682Y-2.371
X4.693Y-3.469
X4.695Y-2.77
X4.722Y-2.003
X4.723Y-2.248
X4.794Y-3.219
X4.795Y-2.572
X4.803Y-2.811
X4.85Y-2.235
X4.864Y-2.099
X4.869Y-2.774
X4.869Y-3.257
X4.893Y-4.058
X4.919Y-3.748
X4.922Y-2.965
X4.922Y-3.195
X4.922Y-3.246
X4.973Y-2.389
X4.976Y-3.339
X5.002Y-2.235
X5.028Y-2.077
X5.04Y-2.938
X5.053Y-3.485
X5.055Y-3.429
X5.059Y-3.76
X5.059Y-3.809
X5.059Y-3.858
X5.067Y-2.822
X5.083Y-4.119
X5.111Y-2.822
X5.115Y-2.277
X5.115Y-3.161
X5.142Y-2.762
X5.185Y-4.119
X5.271Y-2.544
X5.271Y-2.734
X5.286Y-4.119
X5.299Y-3.647
X5.2992Y-2.4273
X5.2992Y-2.4687
X5.322Y-2.734
X5.322Y-3.9
X5.329Y-2.334
X5.356Y-4.292
X5.389Y-3.96
X5.3933Y-3.43
X5.399Y-3.374
X5.4071Y-2.39
X5.41Y-3.658
X5.413Y-2.541
X5.415Y-2.964
X5.418Y-3.502
X5.419Y-2.778
X5.437Y-2.617
X5.4484Y-2.39
X5.452Y-3.658
X5.453Y-3.903
X5.478Y-4.316
X5.546Y-3.918
X5.579Y-4.073
X5.599Y-2.59
X5.607Y-3.761
X5.654Y-3.374
X5.666Y-4.218
X5.681Y-2.334
X5.681Y-2.37
X5.697Y-4.134
X5.705Y-3.265
X5.729Y-1.996
X5.7309Y-3.3849
X5.732Y-4.001
X5.734Y-3.101
X5.743Y-2.176
X5.751Y-2.411
X5.756Y-3.264
X5.761Y-4.234
X5.773Y-2.119
X5.795Y-2.605
X5.798Y-2.786
X5.804Y-3.507
X5.841Y-2.693
X5.843Y-3.316
X5.895Y-2.235
X5.9Y-2.914
X5.911Y-2.104
X5.917Y-2.642
X5.928Y-3.578
X5.938Y-4.101
X5.967Y-3.18
X5.971Y-2.272
X5.982Y-4.101
X6.027Y-3.486
X6.033Y-3.143
X6.098Y-2.016
X6.099Y-2.251
X6.113Y-4.32
X6.184Y-4.075
X6.397Y-2.373
X6.397Y-2.473
X6.397Y-2.573
X6.397Y-2.673
X6.397Y-2.773
X6.397Y-2.873
X6.397Y-2.973
X6.397Y-3.073
X6.397Y-3.173
X6.397Y-3.273
X6.397Y-3.373
X6.397Y-3.473
X6.397Y-3.573
X6.397Y-3.673
X6.397Y-3.773
X6.397Y-3.873
X6.397Y-3.973
X6.397Y-4.073
T2
X5.268Y-2.448
X5.299Y-2.505
X5.3Y-2.391
X5.326Y-2.547
X5.326Y-2.617
X5.37Y-2.39
X5.394Y-2.344
X5.394Y-2.482
X5.441Y-2.46
X5.462Y-2.344
X5.486Y-2.39
X5.501Y-2.63
T3
X4.4685Y-2.1226
X4.4685Y-4.2226
X4.4962Y-2.0558
X4.4962Y-2.1894
X4.4962Y-4.1558
X4.4962Y-4.2894
X4.563Y-2.0281
X4.563Y-2.2171
X4.563Y-4.1281
X4.563Y-4.3171
X4.6298Y-2.0558
X4.6298Y-2.1894
X4.6298Y-4.1558
X4.6298Y-4.2894
X4.6575Y-2.1226
X4.6575Y-4.2226
X6.1685Y-2.1226
X6.1685Y-4.2226
X6.1962Y-2.0558
X6.1962Y-2.1894
X6.1962Y-4.1558
X6.1962Y-4.2894
X6.263Y-2.0281
X6.263Y-2.2171
X6.263Y-4.1281
X6.263Y-4.3171
X6.3298Y-2.0558
X6.3298Y-2.1894
X6.3298Y-4.1558
X6.3298Y-4.2894
X6.3575Y-2.1226
X6.3575Y-4.2226
T4
X4.463Y-2.3226
X4.463Y-2.4226
X4.463Y-2.5226
X4.463Y-2.6226
X4.463Y-2.7226
X4.463Y-2.8226
X4.463Y-2.9226
X4.463Y-3.0226
X4.463Y-3.1226
X4.463Y-3.2226
X4.463Y-3.3226
X4.463Y-3.4226
X4.463Y-3.5226
X4.463Y-3.6226
X4.463Y-3.7226
X4.463Y-3.8226
X4.463Y-3.9226
X4.463Y-4.0226
X4.563Y-2.3226
X4.563Y-2.4226
X4.563Y-2.5226
X4.563Y-2.6226
X4.563Y-2.7226
X4.563Y-2.8226
X4.563Y-2.9226
X4.563Y-3.0226
X4.563Y-3.1226
X4.563Y-3.2226
X4.563Y-3.3226
X4.563Y-3.4226
X4.563Y-3.5226
X4.563Y-3.6226
X4.563Y-3.7226
X4.563Y-3.8226
X4.563Y-3.9226
X4.563Y-4.0226
X4.8332Y-4.299
X4.9332Y-4.299
X5.8818Y-4.299
X5.9818Y-4.299
X6.263Y-2.3226
X6.263Y-2.4226
X6.263Y-2.5226
X6.263Y-2.6226
X6.263Y-2.7226
X6.263Y-2.8226
X6.263Y-2.9226
X6.263Y-3.0226
X6.263Y-3.1226
X6.263Y-3.2226
X6.263Y-3.3226
X6.263Y-3.4226
X6.263Y-3.5226
X6.263Y-3.6226
X6.263Y-3.7226
X6.263Y-3.8226
X6.263Y-3.9226
X6.263Y-4.0226
X6.363Y-2.3226
X6.363Y-2.4226
X6.363Y-2.5226
X6.363Y-2.6226
X6.363Y-2.7226
X6.363Y-2.8226
X6.363Y-2.9226
X6.363Y-3.0226
X6.363Y-3.1226
X6.363Y-3.2226
X6.363Y-3.3226
X6.363Y-3.4226
X6.363Y-3.5226
X6.363Y-3.6226
X6.363Y-3.7226
X6.363Y-3.8226
X6.363Y-3.9226
X6.363Y-4.0226
T5
X4.563Y-2.1226
X4.563Y-4.2226
X6.263Y-2.1226
X6.263Y-4.2226
T0
M30
