%TF.GenerationSoftware,KiCad,Pcbnew,7.0.2-6a45011f42~172~ubuntu20.04.1*%
%TF.CreationDate,2023-04-23T14:30:36+07:00*%
%TF.ProjectId,EZ-USB-100X,455a2d55-5342-42d3-9130-30582e6b6963,rev?*%
%TF.SameCoordinates,Original*%
%TF.FileFunction,Copper,L2,Inr*%
%TF.FilePolarity,Positive*%
%FSLAX46Y46*%
G04 Gerber Fmt 4.6, Leading zero omitted, Abs format (unit mm)*
G04 Created by KiCad (PCBNEW 7.0.2-6a45011f42~172~ubuntu20.04.1) date 2023-04-23 14:30:36*
%MOMM*%
%LPD*%
G01*
G04 APERTURE LIST*
%TA.AperFunction,ComponentPad*%
%ADD10C,0.800000*%
%TD*%
%TA.AperFunction,ComponentPad*%
%ADD11C,6.400000*%
%TD*%
%TA.AperFunction,ComponentPad*%
%ADD12R,1.700000X1.700000*%
%TD*%
%TA.AperFunction,ComponentPad*%
%ADD13O,1.700000X1.700000*%
%TD*%
%TA.AperFunction,ViaPad*%
%ADD14C,0.800000*%
%TD*%
%TA.AperFunction,ViaPad*%
%ADD15C,0.300000*%
%TD*%
G04 APERTURE END LIST*
D10*
%TO.N,GND*%
%TO.C,H4*%
X156680200Y-107253800D03*
X157383144Y-105556744D03*
X157383144Y-108950856D03*
X159080200Y-104853800D03*
D11*
X159080200Y-107253800D03*
D10*
X159080200Y-109653800D03*
X160777256Y-105556744D03*
X160777256Y-108950856D03*
X161480200Y-107253800D03*
%TD*%
%TO.N,GND*%
%TO.C,H3*%
X156680200Y-53913800D03*
X157383144Y-52216744D03*
X157383144Y-55610856D03*
X159080200Y-51513800D03*
D11*
X159080200Y-53913800D03*
D10*
X159080200Y-56313800D03*
X160777256Y-52216744D03*
X160777256Y-55610856D03*
X161480200Y-53913800D03*
%TD*%
%TO.N,GND*%
%TO.C,H2*%
X113500200Y-107253800D03*
X114203144Y-105556744D03*
X114203144Y-108950856D03*
X115900200Y-104853800D03*
D11*
X115900200Y-107253800D03*
D10*
X115900200Y-109653800D03*
X117597256Y-105556744D03*
X117597256Y-108950856D03*
X118300200Y-107253800D03*
%TD*%
D12*
%TO.N,+5V*%
%TO.C,J4*%
X159080200Y-58993800D03*
D13*
%TO.N,GND*%
X161620200Y-58993800D03*
%TO.N,/RDY4*%
X159080200Y-61533800D03*
%TO.N,/RDY5*%
X161620200Y-61533800D03*
%TO.N,/RDY2*%
X159080200Y-64073800D03*
%TO.N,/RDY3*%
X161620200Y-64073800D03*
%TO.N,/RDY0*%
X159080200Y-66613800D03*
%TO.N,/RDY1*%
X161620200Y-66613800D03*
%TO.N,/CLKOUT*%
X159080200Y-69153800D03*
%TO.N,/PD7*%
X161620200Y-69153800D03*
%TO.N,/PD6*%
X159080200Y-71693800D03*
%TO.N,/PD5*%
X161620200Y-71693800D03*
%TO.N,/PD4*%
X159080200Y-74233800D03*
%TO.N,/PE7*%
X161620200Y-74233800D03*
%TO.N,/PE6*%
X159080200Y-76773800D03*
%TO.N,/PE5*%
X161620200Y-76773800D03*
%TO.N,/PE4*%
X159080200Y-79313800D03*
%TO.N,/PE3*%
X161620200Y-79313800D03*
%TO.N,/PE2*%
X159080200Y-81853800D03*
%TO.N,/PE1*%
X161620200Y-81853800D03*
%TO.N,/PE0*%
X159080200Y-84393800D03*
%TO.N,/INT5*%
X161620200Y-84393800D03*
%TO.N,/PD3*%
X159080200Y-86933800D03*
%TO.N,/PD2*%
X161620200Y-86933800D03*
%TO.N,/PD1*%
X159080200Y-89473800D03*
%TO.N,/PD0*%
X161620200Y-89473800D03*
%TO.N,/CTL5*%
X159080200Y-92013800D03*
%TO.N,GND*%
X161620200Y-92013800D03*
%TO.N,/PA6*%
X159080200Y-94553800D03*
%TO.N,/PA7*%
X161620200Y-94553800D03*
%TO.N,/PA4*%
X159080200Y-97093800D03*
%TO.N,/PA5*%
X161620200Y-97093800D03*
%TO.N,/PA2*%
X159080200Y-99633800D03*
%TO.N,/PA3*%
X161620200Y-99633800D03*
%TO.N,/PA0*%
X159080200Y-102173800D03*
%TO.N,/PA1*%
X161620200Y-102173800D03*
%TD*%
D12*
%TO.N,Net-(D3-K)*%
%TO.C,J5*%
X125303200Y-109194600D03*
D13*
%TO.N,GND*%
X122763200Y-109194600D03*
%TD*%
D12*
%TO.N,Net-(J1-Pin_1)*%
%TO.C,J1*%
X149397800Y-109194600D03*
D13*
%TO.N,/SDA*%
X151937800Y-109194600D03*
%TD*%
D10*
%TO.N,GND*%
%TO.C,H1*%
X113500200Y-53913800D03*
X114203144Y-52216744D03*
X114203144Y-55610856D03*
X115900200Y-51513800D03*
D11*
X115900200Y-53913800D03*
D10*
X115900200Y-56313800D03*
X117597256Y-52216744D03*
X117597256Y-55610856D03*
X118300200Y-53913800D03*
%TD*%
D12*
%TO.N,GND*%
%TO.C,J3*%
X113360200Y-58993800D03*
D13*
X115900200Y-58993800D03*
%TO.N,+3V3*%
X113360200Y-61533800D03*
%TO.N,/INT4*%
X115900200Y-61533800D03*
%TO.N,/T0*%
X113360200Y-64073800D03*
%TO.N,/T1*%
X115900200Y-64073800D03*
%TO.N,/T2*%
X113360200Y-66613800D03*
%TO.N,/IFCLK*%
X115900200Y-66613800D03*
%TO.N,/SCL*%
X113360200Y-69153800D03*
%TO.N,/SDA*%
X115900200Y-69153800D03*
%TO.N,/PB1*%
X113360200Y-71693800D03*
%TO.N,/PB0*%
X115900200Y-71693800D03*
%TO.N,/PB3*%
X113360200Y-74233800D03*
%TO.N,/PB2*%
X115900200Y-74233800D03*
%TO.N,/RXD0*%
X113360200Y-76773800D03*
%TO.N,/TXD0*%
X115900200Y-76773800D03*
%TO.N,/RXD1*%
X113360200Y-79313800D03*
%TO.N,/TXD1*%
X115900200Y-79313800D03*
%TO.N,/PB5*%
X113360200Y-81853800D03*
%TO.N,/PB4*%
X115900200Y-81853800D03*
%TO.N,/PB7*%
X113360200Y-84393800D03*
%TO.N,/PB6*%
X115900200Y-84393800D03*
%TO.N,GND*%
X113360200Y-86933800D03*
%TO.N,/CTL3*%
X115900200Y-86933800D03*
%TO.N,/CTL4*%
X113360200Y-89473800D03*
%TO.N,/CTL0*%
X115900200Y-89473800D03*
%TO.N,/CTL1*%
X113360200Y-92013800D03*
%TO.N,/CTL2*%
X115900200Y-92013800D03*
%TO.N,/PC0*%
X113360200Y-94553800D03*
%TO.N,/PC1*%
X115900200Y-94553800D03*
%TO.N,/PC2*%
X113360200Y-97093800D03*
%TO.N,/PC3*%
X115900200Y-97093800D03*
%TO.N,/PC4*%
X113360200Y-99633800D03*
%TO.N,/PC5*%
X115900200Y-99633800D03*
%TO.N,/PC6*%
X113360200Y-102173800D03*
%TO.N,/PC7*%
X115900200Y-102173800D03*
%TD*%
D14*
%TO.N,+5V*%
X144297400Y-59283600D03*
X137414000Y-92913200D03*
X144297400Y-60198000D03*
X138480800Y-92913200D03*
%TO.N,GND*%
X129921000Y-80289400D03*
X112496600Y-72948800D03*
X124282200Y-103073200D03*
X145872200Y-55270400D03*
X137541000Y-75285600D03*
X113385600Y-57048400D03*
X140868400Y-99517200D03*
X129921000Y-57835800D03*
X157073600Y-103505000D03*
D15*
X149860000Y-74015600D03*
X134620000Y-60731400D03*
X137134600Y-85699600D03*
D14*
X135178800Y-99060000D03*
X162483800Y-95834200D03*
X136880600Y-100584000D03*
X112496600Y-88188800D03*
X119253000Y-70358000D03*
X121793000Y-65328800D03*
X119202200Y-88112600D03*
X162483800Y-78054200D03*
D15*
X133883400Y-69443600D03*
X134594600Y-63627000D03*
D14*
X138506200Y-99136200D03*
D15*
X125018800Y-81153000D03*
D14*
X162483800Y-83134200D03*
X112496600Y-62788800D03*
X119964200Y-57099200D03*
D15*
X121996200Y-71399400D03*
D14*
X137642600Y-70561200D03*
X162483800Y-67894200D03*
X162483800Y-65354200D03*
X147421600Y-89077800D03*
X112496600Y-78028800D03*
X154889200Y-51206400D03*
D15*
X135280400Y-64693800D03*
X125018800Y-82448400D03*
D14*
X162483800Y-70434200D03*
D15*
X147269200Y-70764400D03*
X135178800Y-69443600D03*
D14*
X162483800Y-60274200D03*
X162483800Y-62814200D03*
X124942600Y-95199200D03*
X142214600Y-65786000D03*
X118084600Y-75133200D03*
X112496600Y-70408800D03*
X126390400Y-84810600D03*
D15*
X143916400Y-107137200D03*
D14*
X136042400Y-109016800D03*
D15*
X143611600Y-85699600D03*
D14*
X162483800Y-85674200D03*
D15*
X133807200Y-62179200D03*
X137007600Y-63042800D03*
D14*
X119938800Y-50876200D03*
D15*
X139344400Y-60706000D03*
D14*
X118922800Y-60223400D03*
X112496600Y-80568800D03*
X162483800Y-93294200D03*
X162483800Y-75514200D03*
D15*
X125018800Y-75311000D03*
D14*
X139141200Y-109626400D03*
X155270200Y-109728000D03*
X145643600Y-78765400D03*
X138099800Y-66471800D03*
D15*
X136398000Y-60706000D03*
X147193000Y-66167000D03*
X137007600Y-59537600D03*
D14*
X154914600Y-57175400D03*
X145516600Y-50698400D03*
X112496600Y-85648800D03*
X112496600Y-100888800D03*
D15*
X135280400Y-66471800D03*
D14*
X112496600Y-93268800D03*
X128346200Y-88519000D03*
X162483800Y-98374200D03*
X135356600Y-59283600D03*
X146329400Y-107543600D03*
X145592800Y-101625400D03*
X153085800Y-88544400D03*
X150291800Y-67106800D03*
X162483800Y-72974200D03*
X112496600Y-65328800D03*
X162483800Y-100914200D03*
D15*
X138201400Y-62484000D03*
X138734800Y-59537600D03*
D14*
X142417800Y-95529400D03*
X150571200Y-90881200D03*
X162483800Y-90754200D03*
X148412200Y-84226400D03*
X123545600Y-53314600D03*
X162483800Y-103454200D03*
X134594600Y-92633800D03*
X146634200Y-53822600D03*
X162483800Y-80594200D03*
D15*
X139725400Y-66802000D03*
D14*
X112496600Y-83108800D03*
X112496600Y-67868800D03*
X112496600Y-75488800D03*
X137617200Y-88950800D03*
D15*
X153238200Y-79832200D03*
D14*
X162483800Y-88214200D03*
X121767600Y-81762600D03*
X112496600Y-95808800D03*
X112496600Y-98348800D03*
X112496600Y-103454200D03*
X146075400Y-61239400D03*
X150139400Y-53441600D03*
X112496600Y-90728800D03*
%TO.N,+3V3*%
X128498600Y-95504000D03*
X149733000Y-56769000D03*
X148361400Y-68402200D03*
X151561800Y-80772000D03*
X134264400Y-104622600D03*
X128016000Y-74625200D03*
X123672600Y-70459600D03*
X141706600Y-103454200D03*
X145564400Y-85976000D03*
X123672600Y-82727800D03*
X136988900Y-87122000D03*
X128498600Y-97993200D03*
X128498600Y-96748600D03*
X133883400Y-64617600D03*
X128397000Y-87096600D03*
X144703800Y-105003600D03*
X137490200Y-64541400D03*
X123190000Y-56769000D03*
X127711200Y-52755800D03*
%TO.N,/SDA*%
X151942800Y-104165400D03*
X128701800Y-71678800D03*
%TO.N,/SCL*%
X150825200Y-104165400D03*
X129819400Y-71678800D03*
%TO.N,/D-*%
X138389800Y-60706000D03*
X134598594Y-62703934D03*
%TO.N,/D+*%
X134598594Y-61653934D03*
X137339800Y-60706000D03*
%TO.N,/WAKEUP*%
X151663400Y-57708800D03*
X146202400Y-82905600D03*
%TO.N,/RST*%
X144907000Y-82931000D03*
X127050800Y-56769000D03*
%TO.N,Net-(U3B-BKPT)*%
X126314200Y-60680600D03*
X130606800Y-70154800D03*
%TO.N,/PA0*%
X131699000Y-104622600D03*
%TO.N,/PA1*%
X129108200Y-104622600D03*
%TD*%
%TA.AperFunction,Conductor*%
%TO.N,GND*%
G36*
X114765330Y-108388670D02*
G01*
X114898811Y-108502673D01*
X114456812Y-108944672D01*
X114438639Y-108853311D01*
X114383384Y-108770616D01*
X114300689Y-108715361D01*
X114227768Y-108700856D01*
X114205655Y-108700856D01*
X114651324Y-108255186D01*
X114765330Y-108388670D01*
G37*
%TD.AperFunction*%
%TA.AperFunction,Conductor*%
G36*
X117594742Y-108700856D02*
G01*
X117572632Y-108700856D01*
X117499711Y-108715361D01*
X117417016Y-108770616D01*
X117361761Y-108853311D01*
X117343587Y-108944673D01*
X116901587Y-108502673D01*
X117035070Y-108388670D01*
X117149074Y-108255187D01*
X117594742Y-108700856D01*
G37*
%TD.AperFunction*%
%TA.AperFunction,Conductor*%
G36*
X114898812Y-106004926D02*
G01*
X114765330Y-106118930D01*
X114651325Y-106252412D01*
X114205658Y-105806744D01*
X114227768Y-105806744D01*
X114300689Y-105792239D01*
X114383384Y-105736984D01*
X114438639Y-105654289D01*
X114456812Y-105562926D01*
X114898812Y-106004926D01*
G37*
%TD.AperFunction*%
%TA.AperFunction,Conductor*%
G36*
X117361761Y-105654289D02*
G01*
X117417016Y-105736984D01*
X117499711Y-105792239D01*
X117572632Y-105806744D01*
X117594741Y-105806744D01*
X117149073Y-106252411D01*
X117035070Y-106118930D01*
X116901587Y-106004925D01*
X117343587Y-105562925D01*
X117361761Y-105654289D01*
G37*
%TD.AperFunction*%
%TA.AperFunction,Conductor*%
G36*
X157945330Y-108388670D02*
G01*
X158078811Y-108502673D01*
X157636812Y-108944672D01*
X157618639Y-108853311D01*
X157563384Y-108770616D01*
X157480689Y-108715361D01*
X157407768Y-108700856D01*
X157385656Y-108700856D01*
X157831325Y-108255186D01*
X157945330Y-108388670D01*
G37*
%TD.AperFunction*%
%TA.AperFunction,Conductor*%
G36*
X160774742Y-108700856D02*
G01*
X160752632Y-108700856D01*
X160679711Y-108715361D01*
X160597016Y-108770616D01*
X160541761Y-108853311D01*
X160523587Y-108944673D01*
X160081587Y-108502673D01*
X160215070Y-108388670D01*
X160329073Y-108255187D01*
X160774742Y-108700856D01*
G37*
%TD.AperFunction*%
%TA.AperFunction,Conductor*%
G36*
X158078812Y-106004926D02*
G01*
X157945330Y-106118930D01*
X157831326Y-106252412D01*
X157385658Y-105806744D01*
X157407768Y-105806744D01*
X157480689Y-105792239D01*
X157563384Y-105736984D01*
X157618639Y-105654289D01*
X157636812Y-105562926D01*
X158078812Y-106004926D01*
G37*
%TD.AperFunction*%
%TA.AperFunction,Conductor*%
G36*
X160541761Y-105654289D02*
G01*
X160597016Y-105736984D01*
X160679711Y-105792239D01*
X160752632Y-105806744D01*
X160774741Y-105806744D01*
X160329073Y-106252411D01*
X160215070Y-106118930D01*
X160081587Y-106004925D01*
X160523587Y-105562925D01*
X160541761Y-105654289D01*
G37*
%TD.AperFunction*%
%TA.AperFunction,Conductor*%
G36*
X114765330Y-55048670D02*
G01*
X114898811Y-55162673D01*
X114456812Y-55604672D01*
X114438639Y-55513311D01*
X114383384Y-55430616D01*
X114300689Y-55375361D01*
X114227768Y-55360856D01*
X114205655Y-55360856D01*
X114651324Y-54915186D01*
X114765330Y-55048670D01*
G37*
%TD.AperFunction*%
%TA.AperFunction,Conductor*%
G36*
X117594742Y-55360856D02*
G01*
X117572632Y-55360856D01*
X117499711Y-55375361D01*
X117417016Y-55430616D01*
X117361761Y-55513311D01*
X117343587Y-55604673D01*
X116901587Y-55162673D01*
X117035070Y-55048670D01*
X117149074Y-54915187D01*
X117594742Y-55360856D01*
G37*
%TD.AperFunction*%
%TA.AperFunction,Conductor*%
G36*
X114898811Y-52664926D02*
G01*
X114765330Y-52778930D01*
X114651326Y-52912412D01*
X114205658Y-52466744D01*
X114227768Y-52466744D01*
X114300689Y-52452239D01*
X114383384Y-52396984D01*
X114438639Y-52314289D01*
X114456812Y-52222926D01*
X114898811Y-52664926D01*
G37*
%TD.AperFunction*%
%TA.AperFunction,Conductor*%
G36*
X117361761Y-52314289D02*
G01*
X117417016Y-52396984D01*
X117499711Y-52452239D01*
X117572632Y-52466744D01*
X117594741Y-52466744D01*
X117149073Y-52912411D01*
X117035070Y-52778930D01*
X116901587Y-52664925D01*
X117343587Y-52222924D01*
X117361761Y-52314289D01*
G37*
%TD.AperFunction*%
%TA.AperFunction,Conductor*%
G36*
X157945330Y-55048670D02*
G01*
X158078811Y-55162673D01*
X157636812Y-55604672D01*
X157618639Y-55513311D01*
X157563384Y-55430616D01*
X157480689Y-55375361D01*
X157407768Y-55360856D01*
X157385656Y-55360856D01*
X157831325Y-54915186D01*
X157945330Y-55048670D01*
G37*
%TD.AperFunction*%
%TA.AperFunction,Conductor*%
G36*
X160774742Y-55360856D02*
G01*
X160752632Y-55360856D01*
X160679711Y-55375361D01*
X160597016Y-55430616D01*
X160541761Y-55513311D01*
X160523587Y-55604673D01*
X160081587Y-55162673D01*
X160215070Y-55048670D01*
X160329073Y-54915187D01*
X160774742Y-55360856D01*
G37*
%TD.AperFunction*%
%TA.AperFunction,Conductor*%
G36*
X158078812Y-52664926D02*
G01*
X157945330Y-52778930D01*
X157831326Y-52912412D01*
X157385658Y-52466744D01*
X157407768Y-52466744D01*
X157480689Y-52452239D01*
X157563384Y-52396984D01*
X157618639Y-52314289D01*
X157636812Y-52222926D01*
X158078812Y-52664926D01*
G37*
%TD.AperFunction*%
%TA.AperFunction,Conductor*%
G36*
X160541761Y-52314289D02*
G01*
X160597016Y-52396984D01*
X160679711Y-52452239D01*
X160752632Y-52466744D01*
X160774741Y-52466744D01*
X160329073Y-52912411D01*
X160215070Y-52778930D01*
X160081587Y-52664925D01*
X160523587Y-52222925D01*
X160541761Y-52314289D01*
G37*
%TD.AperFunction*%
%TA.AperFunction,Conductor*%
G36*
X131742721Y-49733999D02*
G01*
X131789214Y-49787655D01*
X131800600Y-49839996D01*
X131800600Y-58216800D01*
X143103600Y-58216800D01*
X143103600Y-57708800D01*
X151004093Y-57708800D01*
X151023250Y-57866580D01*
X151079612Y-58015194D01*
X151114518Y-58065763D01*
X151169902Y-58146001D01*
X151288871Y-58251399D01*
X151429607Y-58325263D01*
X151583929Y-58363300D01*
X151583931Y-58363300D01*
X151742869Y-58363300D01*
X151742871Y-58363300D01*
X151897193Y-58325263D01*
X152037929Y-58251399D01*
X152156898Y-58146001D01*
X152247187Y-58015195D01*
X152303549Y-57866582D01*
X152322707Y-57708800D01*
X152303549Y-57551018D01*
X152247187Y-57402405D01*
X152156898Y-57271599D01*
X152037929Y-57166201D01*
X151897193Y-57092337D01*
X151742871Y-57054300D01*
X151583929Y-57054300D01*
X151429607Y-57092337D01*
X151429606Y-57092337D01*
X151429604Y-57092338D01*
X151288872Y-57166200D01*
X151169901Y-57271599D01*
X151079612Y-57402405D01*
X151023250Y-57551019D01*
X151004093Y-57708800D01*
X143103600Y-57708800D01*
X143103600Y-56768999D01*
X149073693Y-56768999D01*
X149092850Y-56926780D01*
X149149212Y-57075394D01*
X149232058Y-57195416D01*
X149239502Y-57206201D01*
X149358471Y-57311599D01*
X149499207Y-57385463D01*
X149653529Y-57423500D01*
X149653531Y-57423500D01*
X149812469Y-57423500D01*
X149812471Y-57423500D01*
X149966793Y-57385463D01*
X150107529Y-57311599D01*
X150226498Y-57206201D01*
X150316787Y-57075395D01*
X150373149Y-56926782D01*
X150392307Y-56769000D01*
X150373149Y-56611218D01*
X150316787Y-56462605D01*
X150226498Y-56331799D01*
X150107529Y-56226401D01*
X149966793Y-56152537D01*
X149812471Y-56114500D01*
X149653529Y-56114500D01*
X149499207Y-56152537D01*
X149499206Y-56152537D01*
X149499204Y-56152538D01*
X149358472Y-56226400D01*
X149239501Y-56331799D01*
X149149212Y-56462605D01*
X149092850Y-56611219D01*
X149073693Y-56768999D01*
X143103600Y-56768999D01*
X143103600Y-53917212D01*
X155675391Y-53917212D01*
X155694980Y-54278525D01*
X155695719Y-54285322D01*
X155754259Y-54642399D01*
X155755727Y-54649067D01*
X155852534Y-54997733D01*
X155854709Y-55004189D01*
X155988649Y-55340352D01*
X155991505Y-55346528D01*
X156161009Y-55666247D01*
X156164517Y-55672076D01*
X156367592Y-55971589D01*
X156371721Y-55977020D01*
X156554411Y-56192100D01*
X157129475Y-55617036D01*
X157147649Y-55708401D01*
X157202904Y-55791096D01*
X157285599Y-55846351D01*
X157358520Y-55860856D01*
X157380629Y-55860856D01*
X156802249Y-56439235D01*
X156873380Y-56506613D01*
X156878567Y-56511019D01*
X157166637Y-56730005D01*
X157172293Y-56733840D01*
X157482352Y-56920396D01*
X157488361Y-56923582D01*
X157816782Y-57075526D01*
X157823124Y-57078052D01*
X158166031Y-57193591D01*
X158172603Y-57195416D01*
X158526001Y-57273204D01*
X158532725Y-57274306D01*
X158892458Y-57313430D01*
X158899272Y-57313800D01*
X159261128Y-57313800D01*
X159267941Y-57313430D01*
X159627674Y-57274306D01*
X159634398Y-57273204D01*
X159987796Y-57195416D01*
X159994368Y-57193591D01*
X160337275Y-57078052D01*
X160343617Y-57075526D01*
X160672038Y-56923582D01*
X160678047Y-56920396D01*
X160988106Y-56733840D01*
X160993762Y-56730005D01*
X161281826Y-56511024D01*
X161287029Y-56506604D01*
X161358149Y-56439235D01*
X160779770Y-55860856D01*
X160801880Y-55860856D01*
X160874801Y-55846351D01*
X160957496Y-55791096D01*
X161012751Y-55708401D01*
X161030924Y-55617038D01*
X161605986Y-56192100D01*
X161788679Y-55977020D01*
X161792807Y-55971589D01*
X161995882Y-55672076D01*
X161999390Y-55666247D01*
X162168894Y-55346528D01*
X162171750Y-55340352D01*
X162305690Y-55004189D01*
X162307865Y-54997733D01*
X162404672Y-54649067D01*
X162406140Y-54642399D01*
X162464680Y-54285322D01*
X162465419Y-54278525D01*
X162485009Y-53917212D01*
X162485009Y-53910387D01*
X162465419Y-53549074D01*
X162464680Y-53542277D01*
X162406140Y-53185200D01*
X162404672Y-53178532D01*
X162307865Y-52829866D01*
X162305690Y-52823410D01*
X162171750Y-52487247D01*
X162168894Y-52481071D01*
X161999390Y-52161352D01*
X161995882Y-52155523D01*
X161792807Y-51856010D01*
X161788678Y-51850579D01*
X161605987Y-51635498D01*
X161030924Y-52210560D01*
X161012751Y-52119199D01*
X160957496Y-52036504D01*
X160874801Y-51981249D01*
X160801880Y-51966744D01*
X160779769Y-51966744D01*
X161358149Y-51388363D01*
X161287019Y-51320986D01*
X161281832Y-51316580D01*
X160993762Y-51097594D01*
X160988106Y-51093759D01*
X160678047Y-50907203D01*
X160672038Y-50904017D01*
X160343617Y-50752073D01*
X160337275Y-50749547D01*
X159994368Y-50634008D01*
X159987796Y-50632183D01*
X159634398Y-50554395D01*
X159627674Y-50553293D01*
X159267941Y-50514169D01*
X159261128Y-50513800D01*
X158899272Y-50513800D01*
X158892458Y-50514169D01*
X158532725Y-50553293D01*
X158526001Y-50554395D01*
X158172603Y-50632183D01*
X158166031Y-50634008D01*
X157823124Y-50749547D01*
X157816782Y-50752073D01*
X157488361Y-50904017D01*
X157482352Y-50907203D01*
X157172293Y-51093759D01*
X157166637Y-51097594D01*
X156878563Y-51316583D01*
X156873379Y-51320987D01*
X156802249Y-51388363D01*
X157380630Y-51966744D01*
X157358520Y-51966744D01*
X157285599Y-51981249D01*
X157202904Y-52036504D01*
X157147649Y-52119199D01*
X157129475Y-52210561D01*
X156554412Y-51635498D01*
X156371712Y-51850590D01*
X156367592Y-51856010D01*
X156164517Y-52155523D01*
X156161009Y-52161352D01*
X155991505Y-52481071D01*
X155988649Y-52487247D01*
X155854709Y-52823410D01*
X155852534Y-52829866D01*
X155755727Y-53178532D01*
X155754259Y-53185200D01*
X155695719Y-53542277D01*
X155694980Y-53549074D01*
X155675391Y-53910387D01*
X155675391Y-53917212D01*
X143103600Y-53917212D01*
X143103600Y-49839997D01*
X143123602Y-49771876D01*
X143177258Y-49725383D01*
X143229600Y-49713997D01*
X159077279Y-49713997D01*
X159083098Y-49714131D01*
X159253100Y-49721990D01*
X159437324Y-49731041D01*
X159443479Y-49731494D01*
X159513151Y-49738357D01*
X159513171Y-49738359D01*
X159518223Y-49738959D01*
X159668895Y-49759977D01*
X159845592Y-49786187D01*
X159851680Y-49787244D01*
X159882329Y-49793340D01*
X159898927Y-49796641D01*
X159903128Y-49797553D01*
X160064933Y-49835609D01*
X160064959Y-49835615D01*
X160246507Y-49881090D01*
X160252417Y-49882726D01*
X160273796Y-49889211D01*
X160277151Y-49890282D01*
X160448743Y-49947794D01*
X160451149Y-49948627D01*
X160632912Y-50013662D01*
X160641329Y-50017021D01*
X160820462Y-50096116D01*
X160823390Y-50097456D01*
X160997150Y-50179639D01*
X161004571Y-50183454D01*
X161176040Y-50278962D01*
X161179433Y-50280923D01*
X161343951Y-50379531D01*
X161350348Y-50383634D01*
X161439123Y-50444446D01*
X161512438Y-50494668D01*
X161516289Y-50497414D01*
X161670125Y-50611507D01*
X161675561Y-50615775D01*
X161826798Y-50741360D01*
X161830920Y-50744936D01*
X161972752Y-50873485D01*
X161977231Y-50877750D01*
X162116247Y-51016766D01*
X162120512Y-51021245D01*
X162249063Y-51163080D01*
X162252639Y-51167201D01*
X162378221Y-51318433D01*
X162382483Y-51323861D01*
X162496615Y-51477751D01*
X162499333Y-51481564D01*
X162610347Y-51643627D01*
X162614471Y-51650056D01*
X162713075Y-51814566D01*
X162715077Y-51818030D01*
X162810541Y-51989420D01*
X162814357Y-51996840D01*
X162896550Y-52170624D01*
X162897911Y-52173602D01*
X162976963Y-52352638D01*
X162980334Y-52361084D01*
X163045391Y-52542907D01*
X163046224Y-52545314D01*
X163103686Y-52716760D01*
X163104792Y-52720222D01*
X163111263Y-52741552D01*
X163112913Y-52747515D01*
X163158396Y-52929089D01*
X163196430Y-53090800D01*
X163197352Y-53095054D01*
X163206754Y-53142316D01*
X163207812Y-53148412D01*
X163234038Y-53325215D01*
X163255035Y-53475746D01*
X163255636Y-53480799D01*
X163262502Y-53550509D01*
X163262957Y-53556676D01*
X163272018Y-53741093D01*
X163279869Y-53910902D01*
X163280003Y-53916720D01*
X163280003Y-107250878D01*
X163279869Y-107256698D01*
X163272018Y-107426497D01*
X163262957Y-107610922D01*
X163262502Y-107617090D01*
X163255636Y-107686796D01*
X163255035Y-107691852D01*
X163234040Y-107842366D01*
X163207812Y-108019185D01*
X163206755Y-108025274D01*
X163197355Y-108072534D01*
X163196429Y-108076801D01*
X163158400Y-108238492D01*
X163133542Y-108337733D01*
X163112915Y-108420082D01*
X163112913Y-108420088D01*
X163111264Y-108426044D01*
X163104795Y-108447367D01*
X163103690Y-108450829D01*
X163046224Y-108622283D01*
X163045391Y-108624689D01*
X162980332Y-108806518D01*
X162976961Y-108814964D01*
X162897918Y-108993981D01*
X162896557Y-108996959D01*
X162814354Y-109170762D01*
X162810527Y-109178202D01*
X162715085Y-109349553D01*
X162713083Y-109353018D01*
X162614467Y-109517549D01*
X162610343Y-109523979D01*
X162499342Y-109686021D01*
X162496596Y-109689872D01*
X162382482Y-109843736D01*
X162378214Y-109849172D01*
X162252649Y-110000385D01*
X162249073Y-110004507D01*
X162120503Y-110146362D01*
X162116238Y-110150841D01*
X161977241Y-110289838D01*
X161972762Y-110294103D01*
X161830907Y-110422673D01*
X161826785Y-110426249D01*
X161675572Y-110551814D01*
X161670136Y-110556082D01*
X161516272Y-110670196D01*
X161512421Y-110672942D01*
X161350379Y-110783943D01*
X161343949Y-110788067D01*
X161179418Y-110886683D01*
X161175953Y-110888685D01*
X161004602Y-110984127D01*
X160997162Y-110987954D01*
X160823359Y-111070157D01*
X160820381Y-111071518D01*
X160641364Y-111150561D01*
X160632918Y-111153932D01*
X160451089Y-111218991D01*
X160448683Y-111219824D01*
X160277229Y-111277290D01*
X160273764Y-111278396D01*
X160252446Y-111284863D01*
X160246485Y-111286513D01*
X160064894Y-111332000D01*
X159957864Y-111357173D01*
X159903210Y-111370028D01*
X159903197Y-111370031D01*
X159898940Y-111370954D01*
X159851677Y-111380355D01*
X159845584Y-111381412D01*
X159668768Y-111407640D01*
X159518251Y-111428635D01*
X159513199Y-111429236D01*
X159443490Y-111436102D01*
X159437322Y-111436557D01*
X159252898Y-111445618D01*
X159083098Y-111453469D01*
X159077279Y-111453603D01*
X115903121Y-111453603D01*
X115897302Y-111453469D01*
X115727493Y-111445618D01*
X115543076Y-111436557D01*
X115536908Y-111436102D01*
X115467200Y-111429236D01*
X115462144Y-111428635D01*
X115311615Y-111407638D01*
X115250720Y-111398605D01*
X115134801Y-111381410D01*
X115128718Y-111380355D01*
X115081460Y-111370954D01*
X115077196Y-111370028D01*
X114915489Y-111331996D01*
X114846319Y-111314670D01*
X114733899Y-111286509D01*
X114727952Y-111284863D01*
X114706618Y-111278390D01*
X114703160Y-111277286D01*
X114531714Y-111219824D01*
X114529307Y-111218991D01*
X114347484Y-111153934D01*
X114339038Y-111150563D01*
X114160002Y-111071511D01*
X114157024Y-111070150D01*
X113983240Y-110987957D01*
X113975820Y-110984141D01*
X113804430Y-110888677D01*
X113800966Y-110886675D01*
X113636456Y-110788071D01*
X113630027Y-110783947D01*
X113467964Y-110672933D01*
X113464151Y-110670215D01*
X113310260Y-110556082D01*
X113304833Y-110551821D01*
X113153601Y-110426239D01*
X113149480Y-110422663D01*
X113007645Y-110294112D01*
X113003166Y-110289847D01*
X112864150Y-110150831D01*
X112859885Y-110146352D01*
X112731336Y-110004520D01*
X112727760Y-110000398D01*
X112602175Y-109849161D01*
X112597907Y-109843725D01*
X112483814Y-109689889D01*
X112481068Y-109686038D01*
X112476439Y-109679280D01*
X112370034Y-109523948D01*
X112365930Y-109517549D01*
X112267323Y-109353033D01*
X112265362Y-109349640D01*
X112169854Y-109178171D01*
X112166039Y-109170750D01*
X112083856Y-108996990D01*
X112082516Y-108994062D01*
X112003421Y-108814929D01*
X112000058Y-108806501D01*
X111995548Y-108793897D01*
X111935027Y-108624748D01*
X111934194Y-108622343D01*
X111929530Y-108608427D01*
X111876682Y-108450752D01*
X111875622Y-108447429D01*
X111869121Y-108425999D01*
X111867486Y-108420088D01*
X111832443Y-108280192D01*
X111822015Y-108238558D01*
X111795944Y-108127712D01*
X111783954Y-108076733D01*
X111783043Y-108072534D01*
X111773642Y-108025274D01*
X111772587Y-108019191D01*
X111746375Y-107842480D01*
X111725360Y-107691826D01*
X111724759Y-107686772D01*
X111717896Y-107617092D01*
X111717441Y-107610924D01*
X111708389Y-107426662D01*
X111700555Y-107257212D01*
X112495391Y-107257212D01*
X112514980Y-107618525D01*
X112515719Y-107625322D01*
X112574259Y-107982399D01*
X112575727Y-107989067D01*
X112672534Y-108337733D01*
X112674709Y-108344189D01*
X112808649Y-108680352D01*
X112811505Y-108686528D01*
X112981009Y-109006247D01*
X112984517Y-109012076D01*
X113187592Y-109311589D01*
X113191721Y-109317020D01*
X113374411Y-109532100D01*
X113949475Y-108957035D01*
X113967649Y-109048401D01*
X114022904Y-109131096D01*
X114105599Y-109186351D01*
X114178520Y-109200856D01*
X114200629Y-109200856D01*
X113622249Y-109779235D01*
X113693380Y-109846613D01*
X113698567Y-109851019D01*
X113986637Y-110070005D01*
X113992293Y-110073840D01*
X114302352Y-110260396D01*
X114308361Y-110263582D01*
X114636782Y-110415526D01*
X114643124Y-110418052D01*
X114986031Y-110533591D01*
X114992603Y-110535416D01*
X115346001Y-110613204D01*
X115352725Y-110614306D01*
X115712458Y-110653430D01*
X115719272Y-110653800D01*
X116081128Y-110653800D01*
X116087941Y-110653430D01*
X116447674Y-110614306D01*
X116454398Y-110613204D01*
X116807796Y-110535416D01*
X116814368Y-110533591D01*
X117157275Y-110418052D01*
X117163617Y-110415526D01*
X117492038Y-110263582D01*
X117498047Y-110260396D01*
X117808106Y-110073840D01*
X117813762Y-110070005D01*
X118101826Y-109851024D01*
X118107029Y-109846604D01*
X118178149Y-109779235D01*
X117599770Y-109200856D01*
X117621880Y-109200856D01*
X117694801Y-109186351D01*
X117777496Y-109131096D01*
X117832751Y-109048401D01*
X117850924Y-108957038D01*
X118425986Y-109532100D01*
X118608679Y-109317020D01*
X118612807Y-109311589D01*
X118810781Y-109019599D01*
X121725354Y-109019599D01*
X121725355Y-109019600D01*
X122293476Y-109019600D01*
X122263200Y-109122711D01*
X122263200Y-109266489D01*
X122293476Y-109369600D01*
X121725355Y-109369600D01*
X121728391Y-109400436D01*
X121788431Y-109598360D01*
X121885931Y-109780772D01*
X122017144Y-109940655D01*
X122177027Y-110071868D01*
X122359439Y-110169368D01*
X122557363Y-110229408D01*
X122588199Y-110232445D01*
X122588200Y-110232444D01*
X122588200Y-109664353D01*
X122620885Y-109679280D01*
X122727437Y-109694600D01*
X122798963Y-109694600D01*
X122905515Y-109679280D01*
X122938200Y-109664353D01*
X122938200Y-110232445D01*
X122969036Y-110229408D01*
X123166960Y-110169368D01*
X123349372Y-110071868D01*
X123352053Y-110069668D01*
X124198700Y-110069668D01*
X124213465Y-110143900D01*
X124269715Y-110228084D01*
X124318074Y-110260396D01*
X124353899Y-110284334D01*
X124428133Y-110299100D01*
X126178266Y-110299099D01*
X126178268Y-110299099D01*
X126227756Y-110289255D01*
X126252501Y-110284334D01*
X126336684Y-110228084D01*
X126392934Y-110143901D01*
X126407700Y-110069668D01*
X148293300Y-110069668D01*
X148308065Y-110143900D01*
X148364315Y-110228084D01*
X148412674Y-110260396D01*
X148448499Y-110284334D01*
X148522733Y-110299100D01*
X150272866Y-110299099D01*
X150272868Y-110299099D01*
X150322356Y-110289255D01*
X150347101Y-110284334D01*
X150431284Y-110228084D01*
X150487534Y-110143901D01*
X150502300Y-110069667D01*
X150502299Y-109194599D01*
X150828567Y-109194599D01*
X150847454Y-109398419D01*
X150903472Y-109595302D01*
X150994710Y-109778533D01*
X151049449Y-109851019D01*
X151118068Y-109941885D01*
X151269338Y-110079786D01*
X151443373Y-110187544D01*
X151634244Y-110261488D01*
X151835453Y-110299100D01*
X151835455Y-110299100D01*
X152040145Y-110299100D01*
X152040147Y-110299100D01*
X152241356Y-110261488D01*
X152432227Y-110187544D01*
X152606262Y-110079786D01*
X152757532Y-109941885D01*
X152880888Y-109778535D01*
X152972128Y-109595301D01*
X153028145Y-109398421D01*
X153047032Y-109194600D01*
X153045512Y-109178202D01*
X153037588Y-109092689D01*
X153028145Y-108990779D01*
X152972128Y-108793899D01*
X152933021Y-108715361D01*
X152880889Y-108610666D01*
X152836760Y-108552230D01*
X152757532Y-108447315D01*
X152606262Y-108309414D01*
X152502713Y-108245299D01*
X152432228Y-108201656D01*
X152316322Y-108156754D01*
X152241356Y-108127712D01*
X152040147Y-108090100D01*
X151835453Y-108090100D01*
X151634243Y-108127712D01*
X151634244Y-108127712D01*
X151443371Y-108201656D01*
X151269339Y-108309413D01*
X151269337Y-108309414D01*
X151269338Y-108309414D01*
X151166536Y-108403131D01*
X151118067Y-108447316D01*
X150994710Y-108610666D01*
X150903472Y-108793897D01*
X150847454Y-108990780D01*
X150828567Y-109194599D01*
X150502299Y-109194599D01*
X150502299Y-108319534D01*
X150502299Y-108319533D01*
X150502299Y-108319531D01*
X150487534Y-108245299D01*
X150431284Y-108161115D01*
X150347101Y-108104866D01*
X150347096Y-108104865D01*
X150272867Y-108090100D01*
X150272866Y-108090100D01*
X148522731Y-108090100D01*
X148448499Y-108104865D01*
X148364315Y-108161115D01*
X148308066Y-108245298D01*
X148293300Y-108319533D01*
X148293300Y-110069668D01*
X126407700Y-110069668D01*
X126407700Y-110069667D01*
X126407699Y-108319534D01*
X126407699Y-108319533D01*
X126407699Y-108319531D01*
X126392934Y-108245299D01*
X126336684Y-108161115D01*
X126252501Y-108104866D01*
X126252496Y-108104865D01*
X126178267Y-108090100D01*
X126178266Y-108090100D01*
X124428131Y-108090100D01*
X124353899Y-108104865D01*
X124269715Y-108161115D01*
X124213466Y-108245298D01*
X124198700Y-108319533D01*
X124198700Y-110069668D01*
X123352053Y-110069668D01*
X123509255Y-109940655D01*
X123640468Y-109780772D01*
X123737968Y-109598360D01*
X123798008Y-109400436D01*
X123801045Y-109369600D01*
X123232924Y-109369600D01*
X123263200Y-109266489D01*
X123263200Y-109122711D01*
X123232924Y-109019600D01*
X123801045Y-109019600D01*
X123801045Y-109019599D01*
X123798008Y-108988763D01*
X123737968Y-108790839D01*
X123640468Y-108608427D01*
X123509255Y-108448544D01*
X123349372Y-108317331D01*
X123166964Y-108219833D01*
X122969033Y-108159792D01*
X122938199Y-108156754D01*
X122938199Y-108724846D01*
X122905515Y-108709920D01*
X122798963Y-108694600D01*
X122727437Y-108694600D01*
X122620885Y-108709920D01*
X122588200Y-108724846D01*
X122588200Y-108156754D01*
X122557366Y-108159792D01*
X122359435Y-108219833D01*
X122177027Y-108317331D01*
X122017144Y-108448544D01*
X121885931Y-108608427D01*
X121788431Y-108790839D01*
X121728391Y-108988763D01*
X121725354Y-109019599D01*
X118810781Y-109019599D01*
X118815882Y-109012076D01*
X118819390Y-109006247D01*
X118988894Y-108686528D01*
X118991750Y-108680352D01*
X119125690Y-108344189D01*
X119127865Y-108337733D01*
X119224672Y-107989067D01*
X119226140Y-107982399D01*
X119284680Y-107625322D01*
X119285419Y-107618525D01*
X119305009Y-107257212D01*
X155675391Y-107257212D01*
X155694980Y-107618525D01*
X155695719Y-107625322D01*
X155754259Y-107982399D01*
X155755727Y-107989067D01*
X155852534Y-108337733D01*
X155854709Y-108344189D01*
X155988649Y-108680352D01*
X155991505Y-108686528D01*
X156161009Y-109006247D01*
X156164517Y-109012076D01*
X156367592Y-109311589D01*
X156371721Y-109317020D01*
X156554411Y-109532100D01*
X157129475Y-108957036D01*
X157147649Y-109048401D01*
X157202904Y-109131096D01*
X157285599Y-109186351D01*
X157358520Y-109200856D01*
X157380629Y-109200856D01*
X156802249Y-109779235D01*
X156873380Y-109846613D01*
X156878567Y-109851019D01*
X157166637Y-110070005D01*
X157172293Y-110073840D01*
X157482352Y-110260396D01*
X157488361Y-110263582D01*
X157816782Y-110415526D01*
X157823124Y-110418052D01*
X158166031Y-110533591D01*
X158172603Y-110535416D01*
X158526001Y-110613204D01*
X158532725Y-110614306D01*
X158892458Y-110653430D01*
X158899272Y-110653800D01*
X159261128Y-110653800D01*
X159267941Y-110653430D01*
X159627674Y-110614306D01*
X159634398Y-110613204D01*
X159987796Y-110535416D01*
X159994368Y-110533591D01*
X160337275Y-110418052D01*
X160343617Y-110415526D01*
X160672038Y-110263582D01*
X160678047Y-110260396D01*
X160988106Y-110073840D01*
X160993762Y-110070005D01*
X161281826Y-109851024D01*
X161287029Y-109846604D01*
X161358149Y-109779235D01*
X160779770Y-109200856D01*
X160801880Y-109200856D01*
X160874801Y-109186351D01*
X160957496Y-109131096D01*
X161012751Y-109048401D01*
X161030924Y-108957038D01*
X161605986Y-109532100D01*
X161788679Y-109317020D01*
X161792807Y-109311589D01*
X161995882Y-109012076D01*
X161999390Y-109006247D01*
X162168894Y-108686528D01*
X162171750Y-108680352D01*
X162305690Y-108344189D01*
X162307865Y-108337733D01*
X162404672Y-107989067D01*
X162406140Y-107982399D01*
X162464680Y-107625322D01*
X162465419Y-107618525D01*
X162485009Y-107257212D01*
X162485009Y-107250387D01*
X162465419Y-106889074D01*
X162464680Y-106882277D01*
X162406140Y-106525200D01*
X162404672Y-106518532D01*
X162307865Y-106169866D01*
X162305690Y-106163410D01*
X162171750Y-105827247D01*
X162168894Y-105821071D01*
X161999390Y-105501352D01*
X161995882Y-105495523D01*
X161792807Y-105196010D01*
X161788678Y-105190579D01*
X161605987Y-104975498D01*
X161030924Y-105550561D01*
X161012751Y-105459199D01*
X160957496Y-105376504D01*
X160874801Y-105321249D01*
X160801880Y-105306744D01*
X160779769Y-105306744D01*
X161358149Y-104728363D01*
X161287019Y-104660986D01*
X161281832Y-104656580D01*
X160993762Y-104437594D01*
X160988106Y-104433759D01*
X160678047Y-104247203D01*
X160672038Y-104244017D01*
X160343617Y-104092073D01*
X160337275Y-104089547D01*
X159994368Y-103974008D01*
X159987796Y-103972183D01*
X159634398Y-103894395D01*
X159627674Y-103893293D01*
X159267941Y-103854169D01*
X159261128Y-103853800D01*
X158899272Y-103853800D01*
X158892458Y-103854169D01*
X158532725Y-103893293D01*
X158526001Y-103894395D01*
X158172603Y-103972183D01*
X158166031Y-103974008D01*
X157823124Y-104089547D01*
X157816782Y-104092073D01*
X157488361Y-104244017D01*
X157482352Y-104247203D01*
X157172293Y-104433759D01*
X157166637Y-104437594D01*
X156878563Y-104656583D01*
X156873379Y-104660987D01*
X156802249Y-104728363D01*
X157380630Y-105306744D01*
X157358520Y-105306744D01*
X157285599Y-105321249D01*
X157202904Y-105376504D01*
X157147649Y-105459199D01*
X157129475Y-105550561D01*
X156554412Y-104975498D01*
X156371712Y-105190590D01*
X156367592Y-105196010D01*
X156164517Y-105495523D01*
X156161009Y-105501352D01*
X155991505Y-105821071D01*
X155988649Y-105827247D01*
X155854709Y-106163410D01*
X155852534Y-106169866D01*
X155755727Y-106518532D01*
X155754259Y-106525200D01*
X155695719Y-106882277D01*
X155694980Y-106889074D01*
X155675391Y-107250387D01*
X155675391Y-107257212D01*
X119305009Y-107257212D01*
X119305009Y-107250387D01*
X119285419Y-106889074D01*
X119284680Y-106882277D01*
X119226140Y-106525200D01*
X119224672Y-106518532D01*
X119127865Y-106169866D01*
X119125690Y-106163410D01*
X118991750Y-105827247D01*
X118988894Y-105821071D01*
X118819390Y-105501352D01*
X118815882Y-105495523D01*
X118612807Y-105196010D01*
X118608678Y-105190579D01*
X118425987Y-104975498D01*
X117850924Y-105550560D01*
X117832751Y-105459199D01*
X117777496Y-105376504D01*
X117694801Y-105321249D01*
X117621880Y-105306744D01*
X117599769Y-105306744D01*
X118178149Y-104728363D01*
X118107019Y-104660986D01*
X118101832Y-104656580D01*
X118057131Y-104622599D01*
X128448893Y-104622599D01*
X128468050Y-104780380D01*
X128524412Y-104928994D01*
X128575909Y-105003599D01*
X128614702Y-105059801D01*
X128733671Y-105165199D01*
X128874407Y-105239063D01*
X129028729Y-105277100D01*
X129028731Y-105277100D01*
X129187669Y-105277100D01*
X129187671Y-105277100D01*
X129341993Y-105239063D01*
X129482729Y-105165199D01*
X129601698Y-105059801D01*
X129691987Y-104928995D01*
X129748349Y-104780382D01*
X129767507Y-104622600D01*
X131039693Y-104622600D01*
X131058850Y-104780380D01*
X131115212Y-104928994D01*
X131166709Y-105003599D01*
X131205502Y-105059801D01*
X131324471Y-105165199D01*
X131465207Y-105239063D01*
X131619529Y-105277100D01*
X131619531Y-105277100D01*
X131778469Y-105277100D01*
X131778471Y-105277100D01*
X131932793Y-105239063D01*
X132073529Y-105165199D01*
X132192498Y-105059801D01*
X132282787Y-104928995D01*
X132339149Y-104780382D01*
X132358307Y-104622600D01*
X132358307Y-104622599D01*
X133605093Y-104622599D01*
X133624250Y-104780380D01*
X133680612Y-104928994D01*
X133732109Y-105003599D01*
X133770902Y-105059801D01*
X133889871Y-105165199D01*
X134030607Y-105239063D01*
X134184929Y-105277100D01*
X134184931Y-105277100D01*
X134343869Y-105277100D01*
X134343871Y-105277100D01*
X134498193Y-105239063D01*
X134638929Y-105165199D01*
X134757898Y-105059801D01*
X134796691Y-105003599D01*
X144044493Y-105003599D01*
X144063650Y-105161380D01*
X144120012Y-105309994D01*
X144120013Y-105309995D01*
X144210302Y-105440801D01*
X144329271Y-105546199D01*
X144470007Y-105620063D01*
X144624329Y-105658100D01*
X144624331Y-105658100D01*
X144783269Y-105658100D01*
X144783271Y-105658100D01*
X144937593Y-105620063D01*
X145078329Y-105546199D01*
X145197298Y-105440801D01*
X145287587Y-105309995D01*
X145343949Y-105161382D01*
X145363107Y-105003600D01*
X145343949Y-104845818D01*
X145287587Y-104697205D01*
X145197298Y-104566399D01*
X145078329Y-104461001D01*
X144937593Y-104387137D01*
X144783271Y-104349100D01*
X144624329Y-104349100D01*
X144470007Y-104387137D01*
X144470006Y-104387137D01*
X144470004Y-104387138D01*
X144329272Y-104461000D01*
X144210301Y-104566399D01*
X144120012Y-104697205D01*
X144063650Y-104845819D01*
X144044493Y-105003599D01*
X134796691Y-105003599D01*
X134848187Y-104928995D01*
X134904549Y-104780382D01*
X134923707Y-104622600D01*
X134904549Y-104464818D01*
X134848187Y-104316205D01*
X134757898Y-104185399D01*
X134735323Y-104165399D01*
X150165893Y-104165399D01*
X150185050Y-104323180D01*
X150241412Y-104471794D01*
X150306714Y-104566399D01*
X150331702Y-104602601D01*
X150450671Y-104707999D01*
X150591407Y-104781863D01*
X150745729Y-104819900D01*
X150745731Y-104819900D01*
X150904669Y-104819900D01*
X150904671Y-104819900D01*
X151058993Y-104781863D01*
X151199729Y-104707999D01*
X151300448Y-104618768D01*
X151364699Y-104588569D01*
X151435080Y-104597900D01*
X151467550Y-104618767D01*
X151510235Y-104656583D01*
X151568272Y-104708000D01*
X151607071Y-104728363D01*
X151709007Y-104781863D01*
X151863329Y-104819900D01*
X151863331Y-104819900D01*
X152022269Y-104819900D01*
X152022271Y-104819900D01*
X152176593Y-104781863D01*
X152317329Y-104707999D01*
X152436298Y-104602601D01*
X152526587Y-104471795D01*
X152582949Y-104323182D01*
X152602107Y-104165400D01*
X152582949Y-104007618D01*
X152526587Y-103859005D01*
X152436298Y-103728199D01*
X152317329Y-103622801D01*
X152176593Y-103548937D01*
X152022271Y-103510900D01*
X151863329Y-103510900D01*
X151709007Y-103548937D01*
X151709006Y-103548937D01*
X151709004Y-103548938D01*
X151568270Y-103622801D01*
X151467553Y-103712029D01*
X151403300Y-103742230D01*
X151332920Y-103732899D01*
X151300447Y-103712029D01*
X151199729Y-103622801D01*
X151058995Y-103548938D01*
X151058994Y-103548937D01*
X151058993Y-103548937D01*
X150904671Y-103510900D01*
X150745729Y-103510900D01*
X150591407Y-103548937D01*
X150591406Y-103548937D01*
X150591404Y-103548938D01*
X150450672Y-103622800D01*
X150331701Y-103728199D01*
X150241412Y-103859005D01*
X150185050Y-104007619D01*
X150165893Y-104165399D01*
X134735323Y-104165399D01*
X134638929Y-104080001D01*
X134498193Y-104006137D01*
X134343871Y-103968100D01*
X134184929Y-103968100D01*
X134030607Y-104006137D01*
X134030606Y-104006137D01*
X134030604Y-104006138D01*
X133889872Y-104080000D01*
X133770901Y-104185399D01*
X133680612Y-104316205D01*
X133624250Y-104464819D01*
X133605093Y-104622599D01*
X132358307Y-104622599D01*
X132339149Y-104464818D01*
X132282787Y-104316205D01*
X132192498Y-104185399D01*
X132073529Y-104080001D01*
X131932793Y-104006137D01*
X131778471Y-103968100D01*
X131619529Y-103968100D01*
X131465207Y-104006137D01*
X131465206Y-104006137D01*
X131465204Y-104006138D01*
X131324472Y-104080000D01*
X131205501Y-104185399D01*
X131115212Y-104316205D01*
X131058850Y-104464819D01*
X131039693Y-104622600D01*
X129767507Y-104622600D01*
X129748349Y-104464818D01*
X129691987Y-104316205D01*
X129601698Y-104185399D01*
X129482729Y-104080001D01*
X129341993Y-104006137D01*
X129187671Y-103968100D01*
X129028729Y-103968100D01*
X128874407Y-104006137D01*
X128874406Y-104006137D01*
X128874404Y-104006138D01*
X128733672Y-104080000D01*
X128614701Y-104185399D01*
X128524412Y-104316205D01*
X128468050Y-104464819D01*
X128448893Y-104622599D01*
X118057131Y-104622599D01*
X117813762Y-104437594D01*
X117808106Y-104433759D01*
X117498047Y-104247203D01*
X117492038Y-104244017D01*
X117163617Y-104092073D01*
X117157275Y-104089547D01*
X116814368Y-103974008D01*
X116807796Y-103972183D01*
X116454398Y-103894395D01*
X116447674Y-103893293D01*
X116087941Y-103854169D01*
X116081128Y-103853800D01*
X115719272Y-103853800D01*
X115712458Y-103854169D01*
X115352725Y-103893293D01*
X115346001Y-103894395D01*
X114992603Y-103972183D01*
X114986031Y-103974008D01*
X114643124Y-104089547D01*
X114636782Y-104092073D01*
X114308361Y-104244017D01*
X114302352Y-104247203D01*
X113992293Y-104433759D01*
X113986637Y-104437594D01*
X113698563Y-104656583D01*
X113693379Y-104660987D01*
X113622249Y-104728363D01*
X114200630Y-105306744D01*
X114178520Y-105306744D01*
X114105599Y-105321249D01*
X114022904Y-105376504D01*
X113967649Y-105459199D01*
X113949475Y-105550561D01*
X113374412Y-104975498D01*
X113191712Y-105190590D01*
X113187592Y-105196010D01*
X112984517Y-105495523D01*
X112981009Y-105501352D01*
X112811505Y-105821071D01*
X112808649Y-105827247D01*
X112674709Y-106163410D01*
X112672534Y-106169866D01*
X112575727Y-106518532D01*
X112574259Y-106525200D01*
X112515719Y-106882277D01*
X112514980Y-106889074D01*
X112495391Y-107250387D01*
X112495391Y-107257212D01*
X111700555Y-107257212D01*
X111700531Y-107256697D01*
X111700397Y-107250879D01*
X111700397Y-103454200D01*
X141047293Y-103454200D01*
X141066450Y-103611980D01*
X141122812Y-103760594D01*
X141190741Y-103859005D01*
X141213102Y-103891401D01*
X141332071Y-103996799D01*
X141472807Y-104070663D01*
X141627129Y-104108700D01*
X141627131Y-104108700D01*
X141786069Y-104108700D01*
X141786071Y-104108700D01*
X141940393Y-104070663D01*
X142081129Y-103996799D01*
X142200098Y-103891401D01*
X142290387Y-103760595D01*
X142346749Y-103611982D01*
X142365907Y-103454200D01*
X142346749Y-103296418D01*
X142290387Y-103147805D01*
X142200098Y-103016999D01*
X142081129Y-102911601D01*
X141940393Y-102837737D01*
X141786071Y-102799700D01*
X141627129Y-102799700D01*
X141472807Y-102837737D01*
X141472806Y-102837737D01*
X141472804Y-102837738D01*
X141332072Y-102911600D01*
X141213101Y-103016999D01*
X141122812Y-103147805D01*
X141066450Y-103296419D01*
X141047293Y-103454200D01*
X111700397Y-103454200D01*
X111700397Y-102173799D01*
X112250967Y-102173799D01*
X112269854Y-102377619D01*
X112325872Y-102574502D01*
X112417110Y-102757733D01*
X112417112Y-102757735D01*
X112540468Y-102921085D01*
X112691738Y-103058986D01*
X112865773Y-103166744D01*
X113056644Y-103240688D01*
X113257853Y-103278300D01*
X113257855Y-103278300D01*
X113462545Y-103278300D01*
X113462547Y-103278300D01*
X113663756Y-103240688D01*
X113854627Y-103166744D01*
X114028662Y-103058986D01*
X114179932Y-102921085D01*
X114303288Y-102757735D01*
X114394528Y-102574501D01*
X114450545Y-102377621D01*
X114469432Y-102173800D01*
X114469432Y-102173799D01*
X114790967Y-102173799D01*
X114809854Y-102377619D01*
X114865872Y-102574502D01*
X114957110Y-102757733D01*
X114957112Y-102757735D01*
X115080468Y-102921085D01*
X115231738Y-103058986D01*
X115405773Y-103166744D01*
X115596644Y-103240688D01*
X115797853Y-103278300D01*
X115797855Y-103278300D01*
X116002545Y-103278300D01*
X116002547Y-103278300D01*
X116203756Y-103240688D01*
X116394627Y-103166744D01*
X116568662Y-103058986D01*
X116719932Y-102921085D01*
X116843288Y-102757735D01*
X116934528Y-102574501D01*
X116990545Y-102377621D01*
X117009432Y-102173800D01*
X117009432Y-102173799D01*
X157970967Y-102173799D01*
X157989854Y-102377619D01*
X158045872Y-102574502D01*
X158137110Y-102757733D01*
X158137112Y-102757735D01*
X158260468Y-102921085D01*
X158411738Y-103058986D01*
X158585773Y-103166744D01*
X158776644Y-103240688D01*
X158977853Y-103278300D01*
X158977855Y-103278300D01*
X159182545Y-103278300D01*
X159182547Y-103278300D01*
X159383756Y-103240688D01*
X159574627Y-103166744D01*
X159748662Y-103058986D01*
X159899932Y-102921085D01*
X160023288Y-102757735D01*
X160114528Y-102574501D01*
X160170545Y-102377621D01*
X160189432Y-102173800D01*
X160189432Y-102173799D01*
X160510967Y-102173799D01*
X160529854Y-102377619D01*
X160585872Y-102574502D01*
X160677110Y-102757733D01*
X160677112Y-102757735D01*
X160800468Y-102921085D01*
X160951738Y-103058986D01*
X161125773Y-103166744D01*
X161316644Y-103240688D01*
X161517853Y-103278300D01*
X161517855Y-103278300D01*
X161722545Y-103278300D01*
X161722547Y-103278300D01*
X161923756Y-103240688D01*
X162114627Y-103166744D01*
X162288662Y-103058986D01*
X162439932Y-102921085D01*
X162563288Y-102757735D01*
X162654528Y-102574501D01*
X162710545Y-102377621D01*
X162729432Y-102173800D01*
X162710545Y-101969979D01*
X162654528Y-101773099D01*
X162653785Y-101771607D01*
X162563289Y-101589866D01*
X162533086Y-101549871D01*
X162439932Y-101426515D01*
X162288662Y-101288614D01*
X162240287Y-101258661D01*
X162114628Y-101180856D01*
X162019191Y-101143884D01*
X161923756Y-101106912D01*
X161722547Y-101069300D01*
X161517853Y-101069300D01*
X161316643Y-101106912D01*
X161316644Y-101106912D01*
X161125771Y-101180856D01*
X160951739Y-101288613D01*
X160800467Y-101426516D01*
X160677110Y-101589866D01*
X160585872Y-101773097D01*
X160529854Y-101969980D01*
X160510967Y-102173799D01*
X160189432Y-102173799D01*
X160170545Y-101969979D01*
X160114528Y-101773099D01*
X160113785Y-101771607D01*
X160023289Y-101589866D01*
X159993086Y-101549871D01*
X159899932Y-101426515D01*
X159748662Y-101288614D01*
X159700287Y-101258661D01*
X159574628Y-101180856D01*
X159479191Y-101143884D01*
X159383756Y-101106912D01*
X159182547Y-101069300D01*
X158977853Y-101069300D01*
X158776643Y-101106912D01*
X158776644Y-101106912D01*
X158585771Y-101180856D01*
X158411739Y-101288613D01*
X158260467Y-101426516D01*
X158137110Y-101589866D01*
X158045872Y-101773097D01*
X157989854Y-101969980D01*
X157970967Y-102173799D01*
X117009432Y-102173799D01*
X116990545Y-101969979D01*
X116934528Y-101773099D01*
X116933785Y-101771607D01*
X116843289Y-101589866D01*
X116813086Y-101549871D01*
X116719932Y-101426515D01*
X116568662Y-101288614D01*
X116520287Y-101258661D01*
X116394628Y-101180856D01*
X116299191Y-101143883D01*
X116203756Y-101106912D01*
X116002547Y-101069300D01*
X115797853Y-101069300D01*
X115596643Y-101106912D01*
X115596644Y-101106912D01*
X115405771Y-101180856D01*
X115231739Y-101288613D01*
X115080467Y-101426516D01*
X114957110Y-101589866D01*
X114865872Y-101773097D01*
X114809854Y-101969980D01*
X114790967Y-102173799D01*
X114469432Y-102173799D01*
X114450545Y-101969979D01*
X114394528Y-101773099D01*
X114393785Y-101771607D01*
X114303289Y-101589866D01*
X114273086Y-101549871D01*
X114179932Y-101426515D01*
X114028662Y-101288614D01*
X113980287Y-101258661D01*
X113854628Y-101180856D01*
X113759191Y-101143883D01*
X113663756Y-101106912D01*
X113462547Y-101069300D01*
X113257853Y-101069300D01*
X113056644Y-101106912D01*
X112865771Y-101180856D01*
X112691739Y-101288613D01*
X112540467Y-101426516D01*
X112417110Y-101589866D01*
X112325872Y-101773097D01*
X112269854Y-101969980D01*
X112250967Y-102173799D01*
X111700397Y-102173799D01*
X111700397Y-99633799D01*
X112250967Y-99633799D01*
X112269854Y-99837619D01*
X112325872Y-100034502D01*
X112417110Y-100217733D01*
X112417112Y-100217735D01*
X112540468Y-100381085D01*
X112691738Y-100518986D01*
X112865773Y-100626744D01*
X113056644Y-100700688D01*
X113257853Y-100738300D01*
X113257855Y-100738300D01*
X113462545Y-100738300D01*
X113462547Y-100738300D01*
X113663756Y-100700688D01*
X113854627Y-100626744D01*
X114028662Y-100518986D01*
X114179932Y-100381085D01*
X114303288Y-100217735D01*
X114394528Y-100034501D01*
X114450545Y-99837621D01*
X114469432Y-99633800D01*
X114469432Y-99633799D01*
X114790967Y-99633799D01*
X114809854Y-99837619D01*
X114865872Y-100034502D01*
X114957110Y-100217733D01*
X114957112Y-100217735D01*
X115080468Y-100381085D01*
X115231738Y-100518986D01*
X115405773Y-100626744D01*
X115596644Y-100700688D01*
X115797853Y-100738300D01*
X115797855Y-100738300D01*
X116002545Y-100738300D01*
X116002547Y-100738300D01*
X116203756Y-100700688D01*
X116394627Y-100626744D01*
X116568662Y-100518986D01*
X116719932Y-100381085D01*
X116843288Y-100217735D01*
X116934528Y-100034501D01*
X116990545Y-99837621D01*
X117009432Y-99633800D01*
X117009432Y-99633799D01*
X157970967Y-99633799D01*
X157989854Y-99837619D01*
X158045872Y-100034502D01*
X158137110Y-100217733D01*
X158137112Y-100217735D01*
X158260468Y-100381085D01*
X158411738Y-100518986D01*
X158585773Y-100626744D01*
X158776644Y-100700688D01*
X158977853Y-100738300D01*
X158977855Y-100738300D01*
X159182545Y-100738300D01*
X159182547Y-100738300D01*
X159383756Y-100700688D01*
X159574627Y-100626744D01*
X159748662Y-100518986D01*
X159899932Y-100381085D01*
X160023288Y-100217735D01*
X160114528Y-100034501D01*
X160170545Y-99837621D01*
X160189432Y-99633800D01*
X160189432Y-99633799D01*
X160510967Y-99633799D01*
X160529854Y-99837619D01*
X160585872Y-100034502D01*
X160677110Y-100217733D01*
X160677112Y-100217735D01*
X160800468Y-100381085D01*
X160951738Y-100518986D01*
X161125773Y-100626744D01*
X161316644Y-100700688D01*
X161517853Y-100738300D01*
X161517855Y-100738300D01*
X161722545Y-100738300D01*
X161722547Y-100738300D01*
X161923756Y-100700688D01*
X162114627Y-100626744D01*
X162288662Y-100518986D01*
X162439932Y-100381085D01*
X162563288Y-100217735D01*
X162654528Y-100034501D01*
X162710545Y-99837621D01*
X162729432Y-99633800D01*
X162710545Y-99429979D01*
X162654528Y-99233099D01*
X162653785Y-99231607D01*
X162563289Y-99049866D01*
X162533086Y-99009871D01*
X162439932Y-98886515D01*
X162288662Y-98748614D01*
X162240287Y-98718661D01*
X162114628Y-98640856D01*
X162019191Y-98603884D01*
X161923756Y-98566912D01*
X161722547Y-98529300D01*
X161517853Y-98529300D01*
X161316644Y-98566912D01*
X161125771Y-98640856D01*
X160951739Y-98748613D01*
X160800467Y-98886516D01*
X160677110Y-99049866D01*
X160585872Y-99233097D01*
X160529854Y-99429980D01*
X160510967Y-99633799D01*
X160189432Y-99633799D01*
X160170545Y-99429979D01*
X160114528Y-99233099D01*
X160113785Y-99231607D01*
X160023289Y-99049866D01*
X159993086Y-99009872D01*
X159899932Y-98886515D01*
X159748662Y-98748614D01*
X159700287Y-98718661D01*
X159574628Y-98640856D01*
X159479191Y-98603884D01*
X159383756Y-98566912D01*
X159182547Y-98529300D01*
X158977853Y-98529300D01*
X158776643Y-98566912D01*
X158776644Y-98566912D01*
X158585771Y-98640856D01*
X158411739Y-98748613D01*
X158260467Y-98886516D01*
X158137110Y-99049866D01*
X158045872Y-99233097D01*
X157989854Y-99429980D01*
X157970967Y-99633799D01*
X117009432Y-99633799D01*
X116990545Y-99429979D01*
X116934528Y-99233099D01*
X116933785Y-99231607D01*
X116843289Y-99049866D01*
X116813086Y-99009871D01*
X116719932Y-98886515D01*
X116568662Y-98748614D01*
X116520287Y-98718661D01*
X116394628Y-98640856D01*
X116299191Y-98603883D01*
X116203756Y-98566912D01*
X116002547Y-98529300D01*
X115797853Y-98529300D01*
X115596643Y-98566912D01*
X115596644Y-98566912D01*
X115405771Y-98640856D01*
X115231739Y-98748613D01*
X115080467Y-98886516D01*
X114957110Y-99049866D01*
X114865872Y-99233097D01*
X114809854Y-99429980D01*
X114790967Y-99633799D01*
X114469432Y-99633799D01*
X114450545Y-99429979D01*
X114394528Y-99233099D01*
X114393785Y-99231607D01*
X114303289Y-99049866D01*
X114273086Y-99009871D01*
X114179932Y-98886515D01*
X114028662Y-98748614D01*
X113980287Y-98718661D01*
X113854628Y-98640856D01*
X113759191Y-98603883D01*
X113663756Y-98566912D01*
X113462547Y-98529300D01*
X113257853Y-98529300D01*
X113056644Y-98566912D01*
X112865771Y-98640856D01*
X112691739Y-98748613D01*
X112540467Y-98886516D01*
X112417110Y-99049866D01*
X112325872Y-99233097D01*
X112269854Y-99429980D01*
X112250967Y-99633799D01*
X111700397Y-99633799D01*
X111700397Y-97093799D01*
X112250967Y-97093799D01*
X112269854Y-97297619D01*
X112325872Y-97494502D01*
X112417110Y-97677733D01*
X112417112Y-97677735D01*
X112540468Y-97841085D01*
X112691738Y-97978986D01*
X112865773Y-98086744D01*
X113056644Y-98160688D01*
X113257853Y-98198300D01*
X113257855Y-98198300D01*
X113462545Y-98198300D01*
X113462547Y-98198300D01*
X113663756Y-98160688D01*
X113854627Y-98086744D01*
X114028662Y-97978986D01*
X114179932Y-97841085D01*
X114303288Y-97677735D01*
X114394528Y-97494501D01*
X114450545Y-97297621D01*
X114469432Y-97093800D01*
X114469432Y-97093799D01*
X114790967Y-97093799D01*
X114809854Y-97297619D01*
X114865872Y-97494502D01*
X114957110Y-97677733D01*
X114957112Y-97677735D01*
X115080468Y-97841085D01*
X115231738Y-97978986D01*
X115405773Y-98086744D01*
X115596644Y-98160688D01*
X115797853Y-98198300D01*
X115797855Y-98198300D01*
X116002545Y-98198300D01*
X116002547Y-98198300D01*
X116203756Y-98160688D01*
X116394627Y-98086744D01*
X116545707Y-97993199D01*
X127839293Y-97993199D01*
X127858450Y-98150980D01*
X127914812Y-98299594D01*
X127914813Y-98299595D01*
X128005102Y-98430401D01*
X128124071Y-98535799D01*
X128264807Y-98609663D01*
X128419129Y-98647700D01*
X128419131Y-98647700D01*
X128578069Y-98647700D01*
X128578071Y-98647700D01*
X128732393Y-98609663D01*
X128873129Y-98535799D01*
X128992098Y-98430401D01*
X129082387Y-98299595D01*
X129138749Y-98150982D01*
X129157907Y-97993200D01*
X129138749Y-97835418D01*
X129082387Y-97686805D01*
X128992098Y-97555999D01*
X128889620Y-97465211D01*
X128851895Y-97405068D01*
X128852675Y-97334076D01*
X128889621Y-97276588D01*
X128992098Y-97185801D01*
X129055602Y-97093799D01*
X157970967Y-97093799D01*
X157989854Y-97297619D01*
X158045872Y-97494502D01*
X158137110Y-97677733D01*
X158137112Y-97677735D01*
X158260468Y-97841085D01*
X158411738Y-97978986D01*
X158585773Y-98086744D01*
X158776644Y-98160688D01*
X158977853Y-98198300D01*
X158977855Y-98198300D01*
X159182545Y-98198300D01*
X159182547Y-98198300D01*
X159383756Y-98160688D01*
X159574627Y-98086744D01*
X159748662Y-97978986D01*
X159899932Y-97841085D01*
X160023288Y-97677735D01*
X160114528Y-97494501D01*
X160170545Y-97297621D01*
X160189432Y-97093800D01*
X160510967Y-97093800D01*
X160529854Y-97297619D01*
X160585872Y-97494502D01*
X160677110Y-97677733D01*
X160677112Y-97677735D01*
X160800468Y-97841085D01*
X160951738Y-97978986D01*
X161125773Y-98086744D01*
X161316644Y-98160688D01*
X161517853Y-98198300D01*
X161517855Y-98198300D01*
X161722545Y-98198300D01*
X161722547Y-98198300D01*
X161923756Y-98160688D01*
X162114627Y-98086744D01*
X162288662Y-97978986D01*
X162439932Y-97841085D01*
X162563288Y-97677735D01*
X162654528Y-97494501D01*
X162710545Y-97297621D01*
X162729432Y-97093800D01*
X162710545Y-96889979D01*
X162654528Y-96693099D01*
X162653785Y-96691607D01*
X162563289Y-96509866D01*
X162533086Y-96469872D01*
X162439932Y-96346515D01*
X162288662Y-96208614D01*
X162165148Y-96132137D01*
X162114628Y-96100856D01*
X162019191Y-96063884D01*
X161923756Y-96026912D01*
X161722547Y-95989300D01*
X161517853Y-95989300D01*
X161316643Y-96026912D01*
X161316644Y-96026912D01*
X161125771Y-96100856D01*
X160951739Y-96208613D01*
X160800467Y-96346516D01*
X160677110Y-96509866D01*
X160585872Y-96693097D01*
X160529854Y-96889980D01*
X160510967Y-97093800D01*
X160189432Y-97093800D01*
X160170545Y-96889979D01*
X160114528Y-96693099D01*
X160113785Y-96691607D01*
X160023289Y-96509866D01*
X159993086Y-96469872D01*
X159899932Y-96346515D01*
X159748662Y-96208614D01*
X159625148Y-96132137D01*
X159574628Y-96100856D01*
X159479191Y-96063884D01*
X159383756Y-96026912D01*
X159182547Y-95989300D01*
X158977853Y-95989300D01*
X158776643Y-96026912D01*
X158776644Y-96026912D01*
X158585771Y-96100856D01*
X158411739Y-96208613D01*
X158260467Y-96346516D01*
X158137110Y-96509866D01*
X158045872Y-96693097D01*
X157989854Y-96889980D01*
X157970967Y-97093799D01*
X129055602Y-97093799D01*
X129082387Y-97054995D01*
X129138749Y-96906382D01*
X129157907Y-96748600D01*
X129138749Y-96590818D01*
X129082387Y-96442205D01*
X128992098Y-96311399D01*
X128889620Y-96220611D01*
X128851895Y-96160468D01*
X128852675Y-96089476D01*
X128889621Y-96031988D01*
X128895351Y-96026912D01*
X128992098Y-95941201D01*
X129082387Y-95810395D01*
X129138749Y-95661782D01*
X129157907Y-95504000D01*
X129138749Y-95346218D01*
X129082387Y-95197605D01*
X128992098Y-95066799D01*
X128873129Y-94961401D01*
X128732393Y-94887537D01*
X128578071Y-94849500D01*
X128419129Y-94849500D01*
X128264807Y-94887537D01*
X128264806Y-94887537D01*
X128264804Y-94887538D01*
X128124072Y-94961400D01*
X128005101Y-95066799D01*
X127914812Y-95197605D01*
X127858450Y-95346219D01*
X127839293Y-95503999D01*
X127858450Y-95661780D01*
X127914812Y-95810394D01*
X128005101Y-95941200D01*
X128107579Y-96031988D01*
X128145304Y-96092132D01*
X128144524Y-96163124D01*
X128107579Y-96220612D01*
X128005101Y-96311399D01*
X127914812Y-96442205D01*
X127858450Y-96590819D01*
X127839293Y-96748599D01*
X127858450Y-96906380D01*
X127914812Y-97054994D01*
X128005101Y-97185800D01*
X128107579Y-97276588D01*
X128145304Y-97336732D01*
X128144524Y-97407724D01*
X128107579Y-97465212D01*
X128005101Y-97555999D01*
X127914812Y-97686805D01*
X127858450Y-97835419D01*
X127839293Y-97993199D01*
X116545707Y-97993199D01*
X116568662Y-97978986D01*
X116719932Y-97841085D01*
X116843288Y-97677735D01*
X116934528Y-97494501D01*
X116990545Y-97297621D01*
X117009432Y-97093800D01*
X116990545Y-96889979D01*
X116934528Y-96693099D01*
X116933785Y-96691607D01*
X116843289Y-96509866D01*
X116813086Y-96469871D01*
X116719932Y-96346515D01*
X116568662Y-96208614D01*
X116445148Y-96132137D01*
X116394628Y-96100856D01*
X116299191Y-96063883D01*
X116203756Y-96026912D01*
X116002547Y-95989300D01*
X115797853Y-95989300D01*
X115596643Y-96026912D01*
X115596644Y-96026912D01*
X115405771Y-96100856D01*
X115231739Y-96208613D01*
X115080467Y-96346516D01*
X114957110Y-96509866D01*
X114865872Y-96693097D01*
X114809854Y-96889980D01*
X114790967Y-97093799D01*
X114469432Y-97093799D01*
X114450545Y-96889979D01*
X114394528Y-96693099D01*
X114393785Y-96691607D01*
X114303289Y-96509866D01*
X114273086Y-96469871D01*
X114179932Y-96346515D01*
X114028662Y-96208614D01*
X113905148Y-96132137D01*
X113854628Y-96100856D01*
X113759191Y-96063883D01*
X113663756Y-96026912D01*
X113462547Y-95989300D01*
X113257853Y-95989300D01*
X113056644Y-96026912D01*
X112865771Y-96100856D01*
X112691739Y-96208613D01*
X112540467Y-96346516D01*
X112417110Y-96509866D01*
X112325872Y-96693097D01*
X112269854Y-96889980D01*
X112250967Y-97093799D01*
X111700397Y-97093799D01*
X111700397Y-94553799D01*
X112250967Y-94553799D01*
X112269854Y-94757619D01*
X112325872Y-94954502D01*
X112417110Y-95137733D01*
X112417112Y-95137735D01*
X112540468Y-95301085D01*
X112691738Y-95438986D01*
X112865773Y-95546744D01*
X113056644Y-95620688D01*
X113257853Y-95658300D01*
X113257855Y-95658300D01*
X113462545Y-95658300D01*
X113462547Y-95658300D01*
X113663756Y-95620688D01*
X113854627Y-95546744D01*
X114028662Y-95438986D01*
X114179932Y-95301085D01*
X114303288Y-95137735D01*
X114394528Y-94954501D01*
X114450545Y-94757621D01*
X114469432Y-94553800D01*
X114790967Y-94553800D01*
X114809854Y-94757619D01*
X114865872Y-94954502D01*
X114957110Y-95137733D01*
X114957112Y-95137735D01*
X115080468Y-95301085D01*
X115231738Y-95438986D01*
X115405773Y-95546744D01*
X115596644Y-95620688D01*
X115797853Y-95658300D01*
X115797855Y-95658300D01*
X116002545Y-95658300D01*
X116002547Y-95658300D01*
X116203756Y-95620688D01*
X116394627Y-95546744D01*
X116568662Y-95438986D01*
X116719932Y-95301085D01*
X116843288Y-95137735D01*
X116934528Y-94954501D01*
X116990545Y-94757621D01*
X117009432Y-94553800D01*
X157970967Y-94553800D01*
X157989854Y-94757619D01*
X158045872Y-94954502D01*
X158137110Y-95137733D01*
X158137112Y-95137735D01*
X158260468Y-95301085D01*
X158411738Y-95438986D01*
X158585773Y-95546744D01*
X158776644Y-95620688D01*
X158977853Y-95658300D01*
X158977855Y-95658300D01*
X159182545Y-95658300D01*
X159182547Y-95658300D01*
X159383756Y-95620688D01*
X159574627Y-95546744D01*
X159748662Y-95438986D01*
X159899932Y-95301085D01*
X160023288Y-95137735D01*
X160114528Y-94954501D01*
X160170545Y-94757621D01*
X160189432Y-94553800D01*
X160189432Y-94553799D01*
X160510967Y-94553799D01*
X160529854Y-94757619D01*
X160585872Y-94954502D01*
X160677110Y-95137733D01*
X160677112Y-95137735D01*
X160800468Y-95301085D01*
X160951738Y-95438986D01*
X161125773Y-95546744D01*
X161316644Y-95620688D01*
X161517853Y-95658300D01*
X161517855Y-95658300D01*
X161722545Y-95658300D01*
X161722547Y-95658300D01*
X161923756Y-95620688D01*
X162114627Y-95546744D01*
X162288662Y-95438986D01*
X162439932Y-95301085D01*
X162563288Y-95137735D01*
X162654528Y-94954501D01*
X162710545Y-94757621D01*
X162729432Y-94553800D01*
X162710545Y-94349979D01*
X162654528Y-94153099D01*
X162653785Y-94151607D01*
X162563289Y-93969866D01*
X162533086Y-93929871D01*
X162439932Y-93806515D01*
X162288662Y-93668614D01*
X162240287Y-93638661D01*
X162114628Y-93560856D01*
X162019191Y-93523884D01*
X161923756Y-93486912D01*
X161722547Y-93449300D01*
X161517853Y-93449300D01*
X161316644Y-93486912D01*
X161125771Y-93560856D01*
X160951739Y-93668613D01*
X160800467Y-93806516D01*
X160677110Y-93969866D01*
X160585872Y-94153097D01*
X160529854Y-94349980D01*
X160510967Y-94553799D01*
X160189432Y-94553799D01*
X160170545Y-94349979D01*
X160114528Y-94153099D01*
X160113785Y-94151607D01*
X160023289Y-93969866D01*
X159993086Y-93929871D01*
X159899932Y-93806515D01*
X159748662Y-93668614D01*
X159700287Y-93638661D01*
X159574628Y-93560856D01*
X159479191Y-93523884D01*
X159383756Y-93486912D01*
X159182547Y-93449300D01*
X158977853Y-93449300D01*
X158776643Y-93486912D01*
X158776644Y-93486912D01*
X158585771Y-93560856D01*
X158411739Y-93668613D01*
X158260467Y-93806516D01*
X158137110Y-93969866D01*
X158045872Y-94153097D01*
X157989854Y-94349980D01*
X157970967Y-94553800D01*
X117009432Y-94553800D01*
X116990545Y-94349979D01*
X116934528Y-94153099D01*
X116933785Y-94151607D01*
X116843289Y-93969866D01*
X116813086Y-93929871D01*
X116719932Y-93806515D01*
X116568662Y-93668614D01*
X116520287Y-93638661D01*
X116394628Y-93560856D01*
X116299191Y-93523883D01*
X116203756Y-93486912D01*
X116002547Y-93449300D01*
X115797853Y-93449300D01*
X115596643Y-93486912D01*
X115596644Y-93486912D01*
X115405771Y-93560856D01*
X115231739Y-93668613D01*
X115080467Y-93806516D01*
X114957110Y-93969866D01*
X114865872Y-94153097D01*
X114809854Y-94349980D01*
X114790967Y-94553800D01*
X114469432Y-94553800D01*
X114450545Y-94349979D01*
X114394528Y-94153099D01*
X114393785Y-94151607D01*
X114303289Y-93969866D01*
X114273086Y-93929872D01*
X114179932Y-93806515D01*
X114028662Y-93668614D01*
X113980287Y-93638661D01*
X113854628Y-93560856D01*
X113759191Y-93523883D01*
X113663756Y-93486912D01*
X113462547Y-93449300D01*
X113257853Y-93449300D01*
X113056644Y-93486912D01*
X112865771Y-93560856D01*
X112691739Y-93668613D01*
X112540467Y-93806516D01*
X112417110Y-93969866D01*
X112325872Y-94153097D01*
X112269854Y-94349980D01*
X112250967Y-94553799D01*
X111700397Y-94553799D01*
X111700397Y-92013800D01*
X112250967Y-92013800D01*
X112269854Y-92217619D01*
X112325872Y-92414502D01*
X112417110Y-92597733D01*
X112417112Y-92597735D01*
X112540468Y-92761085D01*
X112691738Y-92898986D01*
X112865773Y-93006744D01*
X113056644Y-93080688D01*
X113257853Y-93118300D01*
X113257855Y-93118300D01*
X113462545Y-93118300D01*
X113462547Y-93118300D01*
X113663756Y-93080688D01*
X113854627Y-93006744D01*
X114028662Y-92898986D01*
X114179932Y-92761085D01*
X114303288Y-92597735D01*
X114394528Y-92414501D01*
X114450545Y-92217621D01*
X114469432Y-92013800D01*
X114790967Y-92013800D01*
X114809854Y-92217619D01*
X114865872Y-92414502D01*
X114957110Y-92597733D01*
X114957112Y-92597735D01*
X115080468Y-92761085D01*
X115231738Y-92898986D01*
X115405773Y-93006744D01*
X115596644Y-93080688D01*
X115797853Y-93118300D01*
X115797855Y-93118300D01*
X116002545Y-93118300D01*
X116002547Y-93118300D01*
X116203756Y-93080688D01*
X116394627Y-93006744D01*
X116545706Y-92913200D01*
X136754693Y-92913200D01*
X136773850Y-93070980D01*
X136830212Y-93219594D01*
X136830213Y-93219595D01*
X136920502Y-93350401D01*
X137039471Y-93455799D01*
X137180207Y-93529663D01*
X137334529Y-93567700D01*
X137334531Y-93567700D01*
X137493469Y-93567700D01*
X137493471Y-93567700D01*
X137647793Y-93529663D01*
X137788529Y-93455799D01*
X137863847Y-93389072D01*
X137928099Y-93358872D01*
X137998480Y-93368203D01*
X138030951Y-93389071D01*
X138106271Y-93455799D01*
X138247007Y-93529663D01*
X138401329Y-93567700D01*
X138401331Y-93567700D01*
X138560269Y-93567700D01*
X138560271Y-93567700D01*
X138714593Y-93529663D01*
X138855329Y-93455799D01*
X138974298Y-93350401D01*
X139064587Y-93219595D01*
X139120949Y-93070982D01*
X139140107Y-92913200D01*
X139120949Y-92755418D01*
X139064587Y-92606805D01*
X138974298Y-92475999D01*
X138855329Y-92370601D01*
X138714593Y-92296737D01*
X138560271Y-92258700D01*
X138401329Y-92258700D01*
X138247007Y-92296737D01*
X138247006Y-92296737D01*
X138247004Y-92296738D01*
X138106272Y-92370600D01*
X138030953Y-92437327D01*
X137966700Y-92467527D01*
X137896319Y-92458195D01*
X137863847Y-92437327D01*
X137838082Y-92414501D01*
X137788529Y-92370601D01*
X137647793Y-92296737D01*
X137493471Y-92258700D01*
X137334529Y-92258700D01*
X137180207Y-92296737D01*
X137180206Y-92296737D01*
X137180204Y-92296738D01*
X137039472Y-92370600D01*
X136920501Y-92475999D01*
X136830212Y-92606805D01*
X136773850Y-92755419D01*
X136754693Y-92913200D01*
X116545706Y-92913200D01*
X116568662Y-92898986D01*
X116719932Y-92761085D01*
X116843288Y-92597735D01*
X116934528Y-92414501D01*
X116990545Y-92217621D01*
X117009432Y-92013800D01*
X117009432Y-92013799D01*
X157970967Y-92013799D01*
X157989854Y-92217619D01*
X158045872Y-92414502D01*
X158137110Y-92597733D01*
X158137112Y-92597735D01*
X158260468Y-92761085D01*
X158411738Y-92898986D01*
X158585773Y-93006744D01*
X158776644Y-93080688D01*
X158977853Y-93118300D01*
X158977855Y-93118300D01*
X159182545Y-93118300D01*
X159182547Y-93118300D01*
X159383756Y-93080688D01*
X159574627Y-93006744D01*
X159748662Y-92898986D01*
X159899932Y-92761085D01*
X160023288Y-92597735D01*
X160114528Y-92414501D01*
X160170545Y-92217621D01*
X160189432Y-92013800D01*
X160173216Y-91838799D01*
X160582354Y-91838799D01*
X160582355Y-91838800D01*
X161150476Y-91838800D01*
X161120200Y-91941911D01*
X161120200Y-92085689D01*
X161150476Y-92188800D01*
X160582355Y-92188800D01*
X160585391Y-92219636D01*
X160645431Y-92417560D01*
X160742931Y-92599972D01*
X160874144Y-92759855D01*
X161034027Y-92891068D01*
X161216439Y-92988568D01*
X161414363Y-93048608D01*
X161445199Y-93051645D01*
X161445200Y-93051644D01*
X161445200Y-92483553D01*
X161477885Y-92498480D01*
X161584437Y-92513800D01*
X161655963Y-92513800D01*
X161762515Y-92498480D01*
X161795200Y-92483553D01*
X161795200Y-93051645D01*
X161826036Y-93048608D01*
X162023960Y-92988568D01*
X162206372Y-92891068D01*
X162366255Y-92759855D01*
X162497468Y-92599972D01*
X162594968Y-92417560D01*
X162655008Y-92219636D01*
X162658045Y-92188800D01*
X162089924Y-92188800D01*
X162120200Y-92085689D01*
X162120200Y-91941911D01*
X162089924Y-91838800D01*
X162658045Y-91838800D01*
X162658045Y-91838799D01*
X162655008Y-91807963D01*
X162594968Y-91610039D01*
X162497468Y-91427627D01*
X162366255Y-91267744D01*
X162206372Y-91136531D01*
X162023964Y-91039033D01*
X161826033Y-90978992D01*
X161795200Y-90975954D01*
X161795200Y-91544046D01*
X161762515Y-91529120D01*
X161655963Y-91513800D01*
X161584437Y-91513800D01*
X161477885Y-91529120D01*
X161445200Y-91544046D01*
X161445200Y-90975954D01*
X161414366Y-90978992D01*
X161216435Y-91039033D01*
X161034027Y-91136531D01*
X160874144Y-91267744D01*
X160742931Y-91427627D01*
X160645431Y-91610039D01*
X160585391Y-91807963D01*
X160582354Y-91838799D01*
X160173216Y-91838799D01*
X160170545Y-91809979D01*
X160114528Y-91613099D01*
X160102452Y-91588848D01*
X160023289Y-91429866D01*
X159993086Y-91389872D01*
X159899932Y-91266515D01*
X159748662Y-91128614D01*
X159700287Y-91098661D01*
X159574628Y-91020856D01*
X159458722Y-90975954D01*
X159383756Y-90946912D01*
X159182547Y-90909300D01*
X158977853Y-90909300D01*
X158776644Y-90946912D01*
X158585771Y-91020856D01*
X158411739Y-91128613D01*
X158260467Y-91266516D01*
X158137110Y-91429866D01*
X158045872Y-91613097D01*
X157989854Y-91809980D01*
X157970967Y-92013799D01*
X117009432Y-92013799D01*
X116990545Y-91809979D01*
X116934528Y-91613099D01*
X116922452Y-91588848D01*
X116843289Y-91429866D01*
X116813086Y-91389871D01*
X116719932Y-91266515D01*
X116568662Y-91128614D01*
X116520287Y-91098661D01*
X116394628Y-91020856D01*
X116278722Y-90975954D01*
X116203756Y-90946912D01*
X116002547Y-90909300D01*
X115797853Y-90909300D01*
X115596644Y-90946912D01*
X115405771Y-91020856D01*
X115231739Y-91128613D01*
X115080467Y-91266516D01*
X114957110Y-91429866D01*
X114865872Y-91613097D01*
X114809854Y-91809980D01*
X114790967Y-92013800D01*
X114469432Y-92013800D01*
X114450545Y-91809979D01*
X114394528Y-91613099D01*
X114382452Y-91588848D01*
X114303289Y-91429866D01*
X114273086Y-91389871D01*
X114179932Y-91266515D01*
X114028662Y-91128614D01*
X113980287Y-91098661D01*
X113854628Y-91020856D01*
X113738722Y-90975954D01*
X113663756Y-90946912D01*
X113462547Y-90909300D01*
X113257853Y-90909300D01*
X113056644Y-90946912D01*
X112865771Y-91020856D01*
X112691739Y-91128613D01*
X112540467Y-91266516D01*
X112417110Y-91429866D01*
X112325872Y-91613097D01*
X112269854Y-91809980D01*
X112250967Y-92013800D01*
X111700397Y-92013800D01*
X111700397Y-89473800D01*
X112250967Y-89473800D01*
X112269854Y-89677619D01*
X112325872Y-89874502D01*
X112417110Y-90057733D01*
X112417112Y-90057735D01*
X112540468Y-90221085D01*
X112691738Y-90358986D01*
X112865773Y-90466744D01*
X113056644Y-90540688D01*
X113257853Y-90578300D01*
X113257855Y-90578300D01*
X113462545Y-90578300D01*
X113462547Y-90578300D01*
X113663756Y-90540688D01*
X113854627Y-90466744D01*
X114028662Y-90358986D01*
X114179932Y-90221085D01*
X114303288Y-90057735D01*
X114394528Y-89874501D01*
X114450545Y-89677621D01*
X114469432Y-89473800D01*
X114790967Y-89473800D01*
X114809854Y-89677619D01*
X114865872Y-89874502D01*
X114957110Y-90057733D01*
X114957112Y-90057735D01*
X115080468Y-90221085D01*
X115231738Y-90358986D01*
X115405773Y-90466744D01*
X115596644Y-90540688D01*
X115797853Y-90578300D01*
X115797855Y-90578300D01*
X116002545Y-90578300D01*
X116002547Y-90578300D01*
X116203756Y-90540688D01*
X116394627Y-90466744D01*
X116568662Y-90358986D01*
X116719932Y-90221085D01*
X116843288Y-90057735D01*
X116934528Y-89874501D01*
X116990545Y-89677621D01*
X117009432Y-89473800D01*
X157970967Y-89473800D01*
X157989854Y-89677619D01*
X158045872Y-89874502D01*
X158137110Y-90057733D01*
X158137112Y-90057735D01*
X158260468Y-90221085D01*
X158411738Y-90358986D01*
X158585773Y-90466744D01*
X158776644Y-90540688D01*
X158977853Y-90578300D01*
X158977855Y-90578300D01*
X159182545Y-90578300D01*
X159182547Y-90578300D01*
X159383756Y-90540688D01*
X159574627Y-90466744D01*
X159748662Y-90358986D01*
X159899932Y-90221085D01*
X160023288Y-90057735D01*
X160114528Y-89874501D01*
X160170545Y-89677621D01*
X160189432Y-89473800D01*
X160510967Y-89473800D01*
X160529854Y-89677619D01*
X160585872Y-89874502D01*
X160677110Y-90057733D01*
X160677112Y-90057735D01*
X160800468Y-90221085D01*
X160951738Y-90358986D01*
X161125773Y-90466744D01*
X161316644Y-90540688D01*
X161517853Y-90578300D01*
X161517855Y-90578300D01*
X161722545Y-90578300D01*
X161722547Y-90578300D01*
X161923756Y-90540688D01*
X162114627Y-90466744D01*
X162288662Y-90358986D01*
X162439932Y-90221085D01*
X162563288Y-90057735D01*
X162654528Y-89874501D01*
X162710545Y-89677621D01*
X162729432Y-89473800D01*
X162710545Y-89269979D01*
X162654528Y-89073099D01*
X162653785Y-89071607D01*
X162563289Y-88889866D01*
X162533086Y-88849872D01*
X162439932Y-88726515D01*
X162288662Y-88588614D01*
X162240287Y-88558661D01*
X162114628Y-88480856D01*
X162019191Y-88443884D01*
X161923756Y-88406912D01*
X161722547Y-88369300D01*
X161517853Y-88369300D01*
X161316643Y-88406912D01*
X161316644Y-88406912D01*
X161125771Y-88480856D01*
X160951739Y-88588613D01*
X160800467Y-88726516D01*
X160677110Y-88889866D01*
X160585872Y-89073097D01*
X160529854Y-89269980D01*
X160510967Y-89473800D01*
X160189432Y-89473800D01*
X160170545Y-89269979D01*
X160114528Y-89073099D01*
X160113785Y-89071607D01*
X160023289Y-88889866D01*
X159993086Y-88849872D01*
X159899932Y-88726515D01*
X159748662Y-88588614D01*
X159700287Y-88558661D01*
X159574628Y-88480856D01*
X159479191Y-88443884D01*
X159383756Y-88406912D01*
X159182547Y-88369300D01*
X158977853Y-88369300D01*
X158776643Y-88406912D01*
X158776644Y-88406912D01*
X158585771Y-88480856D01*
X158411739Y-88588613D01*
X158260467Y-88726516D01*
X158137110Y-88889866D01*
X158045872Y-89073097D01*
X157989854Y-89269980D01*
X157970967Y-89473800D01*
X117009432Y-89473800D01*
X116990545Y-89269979D01*
X116934528Y-89073099D01*
X116933785Y-89071607D01*
X116843289Y-88889866D01*
X116813086Y-88849872D01*
X116719932Y-88726515D01*
X116568662Y-88588614D01*
X116520287Y-88558661D01*
X116394628Y-88480856D01*
X116299191Y-88443883D01*
X116203756Y-88406912D01*
X116002547Y-88369300D01*
X115797853Y-88369300D01*
X115596643Y-88406912D01*
X115596644Y-88406912D01*
X115405771Y-88480856D01*
X115231739Y-88588613D01*
X115080467Y-88726516D01*
X114957110Y-88889866D01*
X114865872Y-89073097D01*
X114809854Y-89269980D01*
X114790967Y-89473800D01*
X114469432Y-89473800D01*
X114450545Y-89269979D01*
X114394528Y-89073099D01*
X114393785Y-89071607D01*
X114303289Y-88889866D01*
X114273086Y-88849872D01*
X114179932Y-88726515D01*
X114028662Y-88588614D01*
X113980287Y-88558661D01*
X113854628Y-88480856D01*
X113759191Y-88443883D01*
X113663756Y-88406912D01*
X113462547Y-88369300D01*
X113257853Y-88369300D01*
X113056644Y-88406912D01*
X112865771Y-88480856D01*
X112691739Y-88588613D01*
X112540467Y-88726516D01*
X112417110Y-88889866D01*
X112325872Y-89073097D01*
X112269854Y-89269980D01*
X112250967Y-89473800D01*
X111700397Y-89473800D01*
X111700397Y-86758799D01*
X112322354Y-86758799D01*
X112322355Y-86758800D01*
X112890476Y-86758800D01*
X112860200Y-86861911D01*
X112860200Y-87005689D01*
X112890476Y-87108800D01*
X112322355Y-87108800D01*
X112325391Y-87139636D01*
X112385431Y-87337560D01*
X112482931Y-87519972D01*
X112614144Y-87679855D01*
X112774027Y-87811068D01*
X112956439Y-87908568D01*
X113154363Y-87968608D01*
X113185199Y-87971645D01*
X113185200Y-87971644D01*
X113185200Y-87403553D01*
X113217885Y-87418480D01*
X113324437Y-87433800D01*
X113395963Y-87433800D01*
X113502515Y-87418480D01*
X113535200Y-87403553D01*
X113535200Y-87971645D01*
X113566036Y-87968608D01*
X113763960Y-87908568D01*
X113946372Y-87811068D01*
X114106255Y-87679855D01*
X114237468Y-87519972D01*
X114334968Y-87337560D01*
X114395008Y-87139636D01*
X114398045Y-87108800D01*
X113829924Y-87108800D01*
X113860200Y-87005689D01*
X113860200Y-86933800D01*
X114790967Y-86933800D01*
X114809854Y-87137619D01*
X114865872Y-87334502D01*
X114957110Y-87517733D01*
X115017514Y-87597721D01*
X115080468Y-87681085D01*
X115231738Y-87818986D01*
X115405773Y-87926744D01*
X115596644Y-88000688D01*
X115797853Y-88038300D01*
X115797855Y-88038300D01*
X116002545Y-88038300D01*
X116002547Y-88038300D01*
X116203756Y-88000688D01*
X116394627Y-87926744D01*
X116568662Y-87818986D01*
X116719932Y-87681085D01*
X116843288Y-87517735D01*
X116934528Y-87334501D01*
X116990545Y-87137621D01*
X116994346Y-87096600D01*
X127737693Y-87096600D01*
X127756850Y-87254380D01*
X127813212Y-87402994D01*
X127893957Y-87519972D01*
X127903502Y-87533801D01*
X128022471Y-87639199D01*
X128163207Y-87713063D01*
X128317529Y-87751100D01*
X128317531Y-87751100D01*
X128476469Y-87751100D01*
X128476471Y-87751100D01*
X128630793Y-87713063D01*
X128771529Y-87639199D01*
X128890498Y-87533801D01*
X128980787Y-87402995D01*
X129037149Y-87254382D01*
X129053223Y-87122000D01*
X136329593Y-87122000D01*
X136348750Y-87279780D01*
X136405112Y-87428394D01*
X136477870Y-87533801D01*
X136495402Y-87559201D01*
X136614371Y-87664599D01*
X136755107Y-87738463D01*
X136909429Y-87776500D01*
X136909431Y-87776500D01*
X137068369Y-87776500D01*
X137068371Y-87776500D01*
X137222693Y-87738463D01*
X137363429Y-87664599D01*
X137482398Y-87559201D01*
X137572687Y-87428395D01*
X137629049Y-87279782D01*
X137648207Y-87122000D01*
X137629049Y-86964218D01*
X137617513Y-86933800D01*
X157970967Y-86933800D01*
X157989854Y-87137619D01*
X158045872Y-87334502D01*
X158137110Y-87517733D01*
X158197514Y-87597721D01*
X158260468Y-87681085D01*
X158411738Y-87818986D01*
X158585773Y-87926744D01*
X158776644Y-88000688D01*
X158977853Y-88038300D01*
X158977855Y-88038300D01*
X159182545Y-88038300D01*
X159182547Y-88038300D01*
X159383756Y-88000688D01*
X159574627Y-87926744D01*
X159748662Y-87818986D01*
X159899932Y-87681085D01*
X160023288Y-87517735D01*
X160114528Y-87334501D01*
X160170545Y-87137621D01*
X160189432Y-86933800D01*
X160510967Y-86933800D01*
X160529854Y-87137619D01*
X160585872Y-87334502D01*
X160677110Y-87517733D01*
X160737514Y-87597721D01*
X160800468Y-87681085D01*
X160951738Y-87818986D01*
X161125773Y-87926744D01*
X161316644Y-88000688D01*
X161517853Y-88038300D01*
X161517855Y-88038300D01*
X161722545Y-88038300D01*
X161722547Y-88038300D01*
X161923756Y-88000688D01*
X162114627Y-87926744D01*
X162288662Y-87818986D01*
X162439932Y-87681085D01*
X162563288Y-87517735D01*
X162654528Y-87334501D01*
X162710545Y-87137621D01*
X162729432Y-86933800D01*
X162710545Y-86729979D01*
X162654528Y-86533099D01*
X162640804Y-86505537D01*
X162563289Y-86349866D01*
X162512336Y-86282394D01*
X162439932Y-86186515D01*
X162288662Y-86048614D01*
X162240287Y-86018661D01*
X162114628Y-85940856D01*
X161998722Y-85895954D01*
X161923756Y-85866912D01*
X161722547Y-85829300D01*
X161517853Y-85829300D01*
X161316644Y-85866912D01*
X161125771Y-85940856D01*
X160951739Y-86048613D01*
X160800467Y-86186516D01*
X160677110Y-86349866D01*
X160585872Y-86533097D01*
X160529854Y-86729980D01*
X160510967Y-86933800D01*
X160189432Y-86933800D01*
X160170545Y-86729979D01*
X160114528Y-86533099D01*
X160100804Y-86505537D01*
X160023289Y-86349866D01*
X159972336Y-86282394D01*
X159899932Y-86186515D01*
X159748662Y-86048614D01*
X159700287Y-86018661D01*
X159574628Y-85940856D01*
X159458722Y-85895954D01*
X159383756Y-85866912D01*
X159182547Y-85829300D01*
X158977853Y-85829300D01*
X158776643Y-85866912D01*
X158776644Y-85866912D01*
X158585771Y-85940856D01*
X158411739Y-86048613D01*
X158260467Y-86186516D01*
X158137110Y-86349866D01*
X158045872Y-86533097D01*
X157989854Y-86729980D01*
X157970967Y-86933800D01*
X137617513Y-86933800D01*
X137572687Y-86815605D01*
X137482398Y-86684799D01*
X137363429Y-86579401D01*
X137222693Y-86505537D01*
X137068371Y-86467500D01*
X136909429Y-86467500D01*
X136755107Y-86505537D01*
X136755106Y-86505537D01*
X136755104Y-86505538D01*
X136614372Y-86579400D01*
X136495401Y-86684799D01*
X136405112Y-86815605D01*
X136348750Y-86964219D01*
X136329593Y-87122000D01*
X129053223Y-87122000D01*
X129056307Y-87096600D01*
X129037149Y-86938818D01*
X128980787Y-86790205D01*
X128890498Y-86659399D01*
X128771529Y-86554001D01*
X128630793Y-86480137D01*
X128476471Y-86442100D01*
X128317529Y-86442100D01*
X128163207Y-86480137D01*
X128163206Y-86480137D01*
X128163204Y-86480138D01*
X128022472Y-86554000D01*
X127903501Y-86659399D01*
X127813212Y-86790205D01*
X127756850Y-86938819D01*
X127737693Y-87096600D01*
X116994346Y-87096600D01*
X117009432Y-86933800D01*
X116990545Y-86729979D01*
X116934528Y-86533099D01*
X116920804Y-86505537D01*
X116843289Y-86349866D01*
X116792336Y-86282394D01*
X116719932Y-86186515D01*
X116568662Y-86048614D01*
X116520287Y-86018661D01*
X116451387Y-85976000D01*
X144905093Y-85976000D01*
X144924250Y-86133780D01*
X144980612Y-86282394D01*
X144980613Y-86282395D01*
X145070902Y-86413201D01*
X145189871Y-86518599D01*
X145330607Y-86592463D01*
X145484929Y-86630500D01*
X145484931Y-86630500D01*
X145643869Y-86630500D01*
X145643871Y-86630500D01*
X145798193Y-86592463D01*
X145938929Y-86518599D01*
X146057898Y-86413201D01*
X146148187Y-86282395D01*
X146204549Y-86133782D01*
X146223707Y-85976000D01*
X146204549Y-85818218D01*
X146148187Y-85669605D01*
X146057898Y-85538799D01*
X145938929Y-85433401D01*
X145798193Y-85359537D01*
X145643871Y-85321500D01*
X145484929Y-85321500D01*
X145330607Y-85359537D01*
X145330606Y-85359537D01*
X145330604Y-85359538D01*
X145189872Y-85433400D01*
X145070901Y-85538799D01*
X144980612Y-85669605D01*
X144924250Y-85818219D01*
X144905093Y-85976000D01*
X116451387Y-85976000D01*
X116394628Y-85940856D01*
X116278722Y-85895954D01*
X116203756Y-85866912D01*
X116002547Y-85829300D01*
X115797853Y-85829300D01*
X115596643Y-85866912D01*
X115596644Y-85866912D01*
X115405771Y-85940856D01*
X115231739Y-86048613D01*
X115080467Y-86186516D01*
X114957110Y-86349866D01*
X114865872Y-86533097D01*
X114809854Y-86729980D01*
X114790967Y-86933800D01*
X113860200Y-86933800D01*
X113860200Y-86861911D01*
X113829924Y-86758800D01*
X114398045Y-86758800D01*
X114398045Y-86758799D01*
X114395008Y-86727963D01*
X114334968Y-86530039D01*
X114237468Y-86347627D01*
X114106255Y-86187744D01*
X113946372Y-86056531D01*
X113763964Y-85959033D01*
X113566033Y-85898992D01*
X113535200Y-85895954D01*
X113535200Y-86464046D01*
X113502515Y-86449120D01*
X113395963Y-86433800D01*
X113324437Y-86433800D01*
X113217885Y-86449120D01*
X113185200Y-86464046D01*
X113185200Y-85895954D01*
X113154366Y-85898992D01*
X112956435Y-85959033D01*
X112774027Y-86056531D01*
X112614144Y-86187744D01*
X112482931Y-86347627D01*
X112385431Y-86530039D01*
X112325391Y-86727963D01*
X112322354Y-86758799D01*
X111700397Y-86758799D01*
X111700397Y-84393800D01*
X112250967Y-84393800D01*
X112269854Y-84597619D01*
X112325872Y-84794502D01*
X112417110Y-84977733D01*
X112417112Y-84977735D01*
X112540468Y-85141085D01*
X112691738Y-85278986D01*
X112865773Y-85386744D01*
X113056644Y-85460688D01*
X113257853Y-85498300D01*
X113257855Y-85498300D01*
X113462545Y-85498300D01*
X113462547Y-85498300D01*
X113663756Y-85460688D01*
X113854627Y-85386744D01*
X114028662Y-85278986D01*
X114179932Y-85141085D01*
X114303288Y-84977735D01*
X114394528Y-84794501D01*
X114450545Y-84597621D01*
X114469432Y-84393800D01*
X114790967Y-84393800D01*
X114809854Y-84597619D01*
X114865872Y-84794502D01*
X114957110Y-84977733D01*
X114957112Y-84977735D01*
X115080468Y-85141085D01*
X115231738Y-85278986D01*
X115405773Y-85386744D01*
X115596644Y-85460688D01*
X115797853Y-85498300D01*
X115797855Y-85498300D01*
X116002545Y-85498300D01*
X116002547Y-85498300D01*
X116203756Y-85460688D01*
X116394627Y-85386744D01*
X116568662Y-85278986D01*
X116719932Y-85141085D01*
X116843288Y-84977735D01*
X116934528Y-84794501D01*
X116990545Y-84597621D01*
X117009432Y-84393800D01*
X157970967Y-84393800D01*
X157989854Y-84597619D01*
X158045872Y-84794502D01*
X158137110Y-84977733D01*
X158137112Y-84977735D01*
X158260468Y-85141085D01*
X158411738Y-85278986D01*
X158585773Y-85386744D01*
X158776644Y-85460688D01*
X158977853Y-85498300D01*
X158977855Y-85498300D01*
X159182545Y-85498300D01*
X159182547Y-85498300D01*
X159383756Y-85460688D01*
X159574627Y-85386744D01*
X159748662Y-85278986D01*
X159899932Y-85141085D01*
X160023288Y-84977735D01*
X160114528Y-84794501D01*
X160170545Y-84597621D01*
X160189432Y-84393800D01*
X160510967Y-84393800D01*
X160529854Y-84597619D01*
X160585872Y-84794502D01*
X160677110Y-84977733D01*
X160677112Y-84977735D01*
X160800468Y-85141085D01*
X160951738Y-85278986D01*
X161125773Y-85386744D01*
X161316644Y-85460688D01*
X161517853Y-85498300D01*
X161517855Y-85498300D01*
X161722545Y-85498300D01*
X161722547Y-85498300D01*
X161923756Y-85460688D01*
X162114627Y-85386744D01*
X162288662Y-85278986D01*
X162439932Y-85141085D01*
X162563288Y-84977735D01*
X162654528Y-84794501D01*
X162710545Y-84597621D01*
X162729432Y-84393800D01*
X162710545Y-84189979D01*
X162654528Y-83993099D01*
X162653785Y-83991607D01*
X162563289Y-83809866D01*
X162533086Y-83769872D01*
X162439932Y-83646515D01*
X162288662Y-83508614D01*
X162191089Y-83448199D01*
X162114628Y-83400856D01*
X162019191Y-83363884D01*
X161923756Y-83326912D01*
X161722547Y-83289300D01*
X161517853Y-83289300D01*
X161316644Y-83326912D01*
X161125771Y-83400856D01*
X160951739Y-83508613D01*
X160800467Y-83646516D01*
X160677110Y-83809866D01*
X160585872Y-83993097D01*
X160529854Y-84189980D01*
X160510967Y-84393800D01*
X160189432Y-84393800D01*
X160170545Y-84189979D01*
X160114528Y-83993099D01*
X160113785Y-83991607D01*
X160023289Y-83809866D01*
X159993086Y-83769871D01*
X159899932Y-83646515D01*
X159748662Y-83508614D01*
X159651089Y-83448199D01*
X159574628Y-83400856D01*
X159479191Y-83363884D01*
X159383756Y-83326912D01*
X159182547Y-83289300D01*
X158977853Y-83289300D01*
X158776644Y-83326912D01*
X158585771Y-83400856D01*
X158411739Y-83508613D01*
X158260467Y-83646516D01*
X158137110Y-83809866D01*
X158045872Y-83993097D01*
X157989854Y-84189980D01*
X157970967Y-84393800D01*
X117009432Y-84393800D01*
X116990545Y-84189979D01*
X116934528Y-83993099D01*
X116933785Y-83991607D01*
X116843289Y-83809866D01*
X116813086Y-83769871D01*
X116719932Y-83646515D01*
X116568662Y-83508614D01*
X116471089Y-83448199D01*
X116394628Y-83400856D01*
X116299191Y-83363884D01*
X116203756Y-83326912D01*
X116002547Y-83289300D01*
X115797853Y-83289300D01*
X115596643Y-83326912D01*
X115596644Y-83326912D01*
X115405771Y-83400856D01*
X115231739Y-83508613D01*
X115080467Y-83646516D01*
X114957110Y-83809866D01*
X114865872Y-83993097D01*
X114809854Y-84189980D01*
X114790967Y-84393800D01*
X114469432Y-84393800D01*
X114450545Y-84189979D01*
X114394528Y-83993099D01*
X114393785Y-83991607D01*
X114303289Y-83809866D01*
X114273086Y-83769872D01*
X114179932Y-83646515D01*
X114028662Y-83508614D01*
X113931089Y-83448199D01*
X113854628Y-83400856D01*
X113759191Y-83363884D01*
X113663756Y-83326912D01*
X113462547Y-83289300D01*
X113257853Y-83289300D01*
X113056643Y-83326912D01*
X113056644Y-83326912D01*
X112865771Y-83400856D01*
X112691739Y-83508613D01*
X112540467Y-83646516D01*
X112417110Y-83809866D01*
X112325872Y-83993097D01*
X112269854Y-84189980D01*
X112250967Y-84393800D01*
X111700397Y-84393800D01*
X111700397Y-81853799D01*
X112250967Y-81853799D01*
X112269854Y-82057619D01*
X112325872Y-82254502D01*
X112417110Y-82437733D01*
X112477514Y-82517721D01*
X112540468Y-82601085D01*
X112691738Y-82738986D01*
X112865773Y-82846744D01*
X113056644Y-82920688D01*
X113257853Y-82958300D01*
X113257855Y-82958300D01*
X113462545Y-82958300D01*
X113462547Y-82958300D01*
X113663756Y-82920688D01*
X113854627Y-82846744D01*
X114028662Y-82738986D01*
X114179932Y-82601085D01*
X114303288Y-82437735D01*
X114394528Y-82254501D01*
X114450545Y-82057621D01*
X114469432Y-81853800D01*
X114469432Y-81853799D01*
X114790967Y-81853799D01*
X114809854Y-82057619D01*
X114865872Y-82254502D01*
X114957110Y-82437733D01*
X115017514Y-82517721D01*
X115080468Y-82601085D01*
X115231738Y-82738986D01*
X115405773Y-82846744D01*
X115596644Y-82920688D01*
X115797853Y-82958300D01*
X115797855Y-82958300D01*
X116002545Y-82958300D01*
X116002547Y-82958300D01*
X116203756Y-82920688D01*
X116394627Y-82846744D01*
X116568662Y-82738986D01*
X116580934Y-82727799D01*
X123013293Y-82727799D01*
X123032450Y-82885580D01*
X123088812Y-83034194D01*
X123126492Y-83088782D01*
X123179102Y-83165001D01*
X123298071Y-83270399D01*
X123438807Y-83344263D01*
X123593129Y-83382300D01*
X123593131Y-83382300D01*
X123752069Y-83382300D01*
X123752071Y-83382300D01*
X123906393Y-83344263D01*
X124047129Y-83270399D01*
X124166098Y-83165001D01*
X124256387Y-83034195D01*
X124295524Y-82930999D01*
X144247693Y-82930999D01*
X144266850Y-83088780D01*
X144323212Y-83237394D01*
X144396979Y-83344263D01*
X144413502Y-83368201D01*
X144532471Y-83473599D01*
X144673207Y-83547463D01*
X144827529Y-83585500D01*
X144827531Y-83585500D01*
X144986469Y-83585500D01*
X144986471Y-83585500D01*
X145140793Y-83547463D01*
X145281529Y-83473599D01*
X145400498Y-83368201D01*
X145459771Y-83282328D01*
X145514928Y-83237630D01*
X145585497Y-83229847D01*
X145649071Y-83261452D01*
X145667162Y-83282330D01*
X145697934Y-83326912D01*
X145708902Y-83342801D01*
X145827871Y-83448199D01*
X145968607Y-83522063D01*
X146122929Y-83560100D01*
X146122931Y-83560100D01*
X146281869Y-83560100D01*
X146281871Y-83560100D01*
X146436193Y-83522063D01*
X146576929Y-83448199D01*
X146695898Y-83342801D01*
X146786187Y-83211995D01*
X146842549Y-83063382D01*
X146861707Y-82905600D01*
X146842549Y-82747818D01*
X146786187Y-82599205D01*
X146695898Y-82468399D01*
X146576929Y-82363001D01*
X146436193Y-82289137D01*
X146281871Y-82251100D01*
X146122929Y-82251100D01*
X145968607Y-82289137D01*
X145968606Y-82289137D01*
X145968604Y-82289138D01*
X145827872Y-82363000D01*
X145708900Y-82468400D01*
X145649628Y-82554270D01*
X145594470Y-82598969D01*
X145523901Y-82606752D01*
X145460327Y-82575146D01*
X145442237Y-82554269D01*
X145400498Y-82493799D01*
X145400498Y-82493798D01*
X145281529Y-82388401D01*
X145140793Y-82314537D01*
X144986471Y-82276500D01*
X144827529Y-82276500D01*
X144673207Y-82314537D01*
X144673206Y-82314537D01*
X144673204Y-82314538D01*
X144532472Y-82388400D01*
X144413501Y-82493799D01*
X144323212Y-82624605D01*
X144266850Y-82773219D01*
X144247693Y-82930999D01*
X124295524Y-82930999D01*
X124312749Y-82885582D01*
X124331907Y-82727800D01*
X124312749Y-82570018D01*
X124256387Y-82421405D01*
X124166098Y-82290599D01*
X124047129Y-82185201D01*
X123906393Y-82111337D01*
X123752071Y-82073300D01*
X123593129Y-82073300D01*
X123438807Y-82111337D01*
X123438806Y-82111337D01*
X123438804Y-82111338D01*
X123298072Y-82185200D01*
X123179101Y-82290599D01*
X123088812Y-82421405D01*
X123032450Y-82570019D01*
X123013293Y-82727799D01*
X116580934Y-82727799D01*
X116719932Y-82601085D01*
X116843288Y-82437735D01*
X116934528Y-82254501D01*
X116990545Y-82057621D01*
X117009432Y-81853800D01*
X117009432Y-81853799D01*
X157970967Y-81853799D01*
X157989854Y-82057619D01*
X158045872Y-82254502D01*
X158137110Y-82437733D01*
X158197514Y-82517720D01*
X158260468Y-82601085D01*
X158411738Y-82738986D01*
X158585773Y-82846744D01*
X158776644Y-82920688D01*
X158977853Y-82958300D01*
X158977855Y-82958300D01*
X159182545Y-82958300D01*
X159182547Y-82958300D01*
X159383756Y-82920688D01*
X159574627Y-82846744D01*
X159748662Y-82738986D01*
X159899932Y-82601085D01*
X160023288Y-82437735D01*
X160114528Y-82254501D01*
X160170545Y-82057621D01*
X160189432Y-81853800D01*
X160189432Y-81853799D01*
X160510967Y-81853799D01*
X160529854Y-82057619D01*
X160585872Y-82254502D01*
X160677110Y-82437733D01*
X160737514Y-82517721D01*
X160800468Y-82601085D01*
X160951738Y-82738986D01*
X161125773Y-82846744D01*
X161316644Y-82920688D01*
X161517853Y-82958300D01*
X161517855Y-82958300D01*
X161722545Y-82958300D01*
X161722547Y-82958300D01*
X161923756Y-82920688D01*
X162114627Y-82846744D01*
X162288662Y-82738986D01*
X162439932Y-82601085D01*
X162563288Y-82437735D01*
X162654528Y-82254501D01*
X162710545Y-82057621D01*
X162729432Y-81853800D01*
X162710545Y-81649979D01*
X162654528Y-81453099D01*
X162585563Y-81314599D01*
X162563289Y-81269866D01*
X162517476Y-81209200D01*
X162439932Y-81106515D01*
X162288662Y-80968614D01*
X162225943Y-80929780D01*
X162114628Y-80860856D01*
X162019191Y-80823884D01*
X161923756Y-80786912D01*
X161722547Y-80749300D01*
X161517853Y-80749300D01*
X161316643Y-80786912D01*
X161316644Y-80786912D01*
X161125771Y-80860856D01*
X160951739Y-80968613D01*
X160800467Y-81106516D01*
X160677110Y-81269866D01*
X160585872Y-81453097D01*
X160529854Y-81649980D01*
X160510967Y-81853799D01*
X160189432Y-81853799D01*
X160170545Y-81649979D01*
X160114528Y-81453099D01*
X160045563Y-81314599D01*
X160023289Y-81269866D01*
X159977476Y-81209200D01*
X159899932Y-81106515D01*
X159748662Y-80968614D01*
X159685943Y-80929780D01*
X159574628Y-80860856D01*
X159479191Y-80823884D01*
X159383756Y-80786912D01*
X159182547Y-80749300D01*
X158977853Y-80749300D01*
X158776644Y-80786912D01*
X158585771Y-80860856D01*
X158411739Y-80968613D01*
X158260467Y-81106516D01*
X158137110Y-81269866D01*
X158045872Y-81453097D01*
X157989854Y-81649980D01*
X157970967Y-81853799D01*
X117009432Y-81853799D01*
X116990545Y-81649979D01*
X116934528Y-81453099D01*
X116865563Y-81314599D01*
X116843289Y-81269866D01*
X116797476Y-81209200D01*
X116719932Y-81106515D01*
X116568662Y-80968614D01*
X116505943Y-80929780D01*
X116394628Y-80860856D01*
X116299191Y-80823884D01*
X116203756Y-80786912D01*
X116123983Y-80772000D01*
X150902493Y-80772000D01*
X150921650Y-80929780D01*
X150978012Y-81078394D01*
X150997424Y-81106516D01*
X151068302Y-81209201D01*
X151187271Y-81314599D01*
X151328007Y-81388463D01*
X151482329Y-81426500D01*
X151482331Y-81426500D01*
X151641269Y-81426500D01*
X151641271Y-81426500D01*
X151795593Y-81388463D01*
X151936329Y-81314599D01*
X152055298Y-81209201D01*
X152145587Y-81078395D01*
X152201949Y-80929782D01*
X152221107Y-80772000D01*
X152201949Y-80614218D01*
X152145587Y-80465605D01*
X152055298Y-80334799D01*
X151936329Y-80229401D01*
X151795593Y-80155537D01*
X151641271Y-80117500D01*
X151482329Y-80117500D01*
X151328007Y-80155537D01*
X151328006Y-80155537D01*
X151328004Y-80155538D01*
X151187272Y-80229400D01*
X151068301Y-80334799D01*
X150978012Y-80465605D01*
X150921650Y-80614219D01*
X150902493Y-80772000D01*
X116123983Y-80772000D01*
X116002547Y-80749300D01*
X115797853Y-80749300D01*
X115596643Y-80786912D01*
X115596644Y-80786912D01*
X115405771Y-80860856D01*
X115231739Y-80968613D01*
X115080467Y-81106516D01*
X114957110Y-81269866D01*
X114865872Y-81453097D01*
X114809854Y-81649980D01*
X114790967Y-81853799D01*
X114469432Y-81853799D01*
X114450545Y-81649979D01*
X114394528Y-81453099D01*
X114325563Y-81314599D01*
X114303289Y-81269866D01*
X114257476Y-81209200D01*
X114179932Y-81106515D01*
X114028662Y-80968614D01*
X113965943Y-80929780D01*
X113854628Y-80860856D01*
X113759191Y-80823884D01*
X113663756Y-80786912D01*
X113462547Y-80749300D01*
X113257853Y-80749300D01*
X113056644Y-80786912D01*
X112865771Y-80860856D01*
X112691739Y-80968613D01*
X112540467Y-81106516D01*
X112417110Y-81269866D01*
X112325872Y-81453097D01*
X112269854Y-81649980D01*
X112250967Y-81853799D01*
X111700397Y-81853799D01*
X111700397Y-80614218D01*
X111700397Y-79313799D01*
X112250967Y-79313799D01*
X112269854Y-79517619D01*
X112325872Y-79714502D01*
X112417110Y-79897733D01*
X112417112Y-79897735D01*
X112540468Y-80061085D01*
X112691738Y-80198986D01*
X112865773Y-80306744D01*
X113056644Y-80380688D01*
X113257853Y-80418300D01*
X113257855Y-80418300D01*
X113462545Y-80418300D01*
X113462547Y-80418300D01*
X113663756Y-80380688D01*
X113854627Y-80306744D01*
X114028662Y-80198986D01*
X114179932Y-80061085D01*
X114303288Y-79897735D01*
X114394528Y-79714501D01*
X114450545Y-79517621D01*
X114469432Y-79313800D01*
X114469432Y-79313799D01*
X114790967Y-79313799D01*
X114809854Y-79517619D01*
X114865872Y-79714502D01*
X114957110Y-79897733D01*
X114957112Y-79897735D01*
X115080468Y-80061085D01*
X115231738Y-80198986D01*
X115405773Y-80306744D01*
X115596644Y-80380688D01*
X115797853Y-80418300D01*
X115797855Y-80418300D01*
X116002545Y-80418300D01*
X116002547Y-80418300D01*
X116203756Y-80380688D01*
X116394627Y-80306744D01*
X116568662Y-80198986D01*
X116719932Y-80061085D01*
X116843288Y-79897735D01*
X116934528Y-79714501D01*
X116990545Y-79517621D01*
X117009432Y-79313800D01*
X117009432Y-79313799D01*
X157970967Y-79313799D01*
X157989854Y-79517619D01*
X158045872Y-79714502D01*
X158137110Y-79897733D01*
X158137112Y-79897735D01*
X158260468Y-80061085D01*
X158411738Y-80198986D01*
X158585773Y-80306744D01*
X158776644Y-80380688D01*
X158977853Y-80418300D01*
X158977855Y-80418300D01*
X159182545Y-80418300D01*
X159182547Y-80418300D01*
X159383756Y-80380688D01*
X159574627Y-80306744D01*
X159748662Y-80198986D01*
X159899932Y-80061085D01*
X160023288Y-79897735D01*
X160114528Y-79714501D01*
X160170545Y-79517621D01*
X160189432Y-79313800D01*
X160510967Y-79313800D01*
X160529854Y-79517619D01*
X160585872Y-79714502D01*
X160677110Y-79897733D01*
X160677112Y-79897735D01*
X160800468Y-80061085D01*
X160951738Y-80198986D01*
X161125773Y-80306744D01*
X161316644Y-80380688D01*
X161517853Y-80418300D01*
X161517855Y-80418300D01*
X161722545Y-80418300D01*
X161722547Y-80418300D01*
X161923756Y-80380688D01*
X162114627Y-80306744D01*
X162288662Y-80198986D01*
X162439932Y-80061085D01*
X162563288Y-79897735D01*
X162654528Y-79714501D01*
X162710545Y-79517621D01*
X162729432Y-79313800D01*
X162710545Y-79109979D01*
X162654528Y-78913099D01*
X162653785Y-78911607D01*
X162563289Y-78729866D01*
X162533086Y-78689871D01*
X162439932Y-78566515D01*
X162288662Y-78428614D01*
X162240287Y-78398661D01*
X162114628Y-78320856D01*
X162019191Y-78283884D01*
X161923756Y-78246912D01*
X161722547Y-78209300D01*
X161517853Y-78209300D01*
X161316643Y-78246912D01*
X161316644Y-78246912D01*
X161125771Y-78320856D01*
X160951739Y-78428613D01*
X160800467Y-78566516D01*
X160677110Y-78729866D01*
X160585872Y-78913097D01*
X160529854Y-79109980D01*
X160510967Y-79313800D01*
X160189432Y-79313800D01*
X160170545Y-79109979D01*
X160114528Y-78913099D01*
X160113785Y-78911607D01*
X160023289Y-78729866D01*
X159993086Y-78689871D01*
X159899932Y-78566515D01*
X159748662Y-78428614D01*
X159700287Y-78398661D01*
X159574628Y-78320856D01*
X159479191Y-78283884D01*
X159383756Y-78246912D01*
X159182547Y-78209300D01*
X158977853Y-78209300D01*
X158776643Y-78246912D01*
X158776644Y-78246912D01*
X158585771Y-78320856D01*
X158411739Y-78428613D01*
X158260467Y-78566516D01*
X158137110Y-78729866D01*
X158045872Y-78913097D01*
X157989854Y-79109980D01*
X157970967Y-79313799D01*
X117009432Y-79313799D01*
X116990545Y-79109979D01*
X116934528Y-78913099D01*
X116933785Y-78911607D01*
X116843289Y-78729866D01*
X116813086Y-78689872D01*
X116719932Y-78566515D01*
X116568662Y-78428614D01*
X116520287Y-78398661D01*
X116394628Y-78320856D01*
X116299191Y-78283884D01*
X116203756Y-78246912D01*
X116002547Y-78209300D01*
X115797853Y-78209300D01*
X115596644Y-78246912D01*
X115405771Y-78320856D01*
X115231739Y-78428613D01*
X115080467Y-78566516D01*
X114957110Y-78729866D01*
X114865872Y-78913097D01*
X114809854Y-79109980D01*
X114790967Y-79313799D01*
X114469432Y-79313799D01*
X114450545Y-79109979D01*
X114394528Y-78913099D01*
X114393785Y-78911607D01*
X114303289Y-78729866D01*
X114273086Y-78689872D01*
X114179932Y-78566515D01*
X114028662Y-78428614D01*
X113980287Y-78398661D01*
X113854628Y-78320856D01*
X113759191Y-78283884D01*
X113663756Y-78246912D01*
X113462547Y-78209300D01*
X113257853Y-78209300D01*
X113056644Y-78246912D01*
X112865771Y-78320856D01*
X112691739Y-78428613D01*
X112540467Y-78566516D01*
X112417110Y-78729866D01*
X112325872Y-78913097D01*
X112269854Y-79109980D01*
X112250967Y-79313799D01*
X111700397Y-79313799D01*
X111700397Y-76773799D01*
X112250967Y-76773799D01*
X112269854Y-76977619D01*
X112325872Y-77174502D01*
X112417110Y-77357733D01*
X112417112Y-77357735D01*
X112540468Y-77521085D01*
X112691738Y-77658986D01*
X112865773Y-77766744D01*
X113056644Y-77840688D01*
X113257853Y-77878300D01*
X113257855Y-77878300D01*
X113462545Y-77878300D01*
X113462547Y-77878300D01*
X113663756Y-77840688D01*
X113854627Y-77766744D01*
X114028662Y-77658986D01*
X114179932Y-77521085D01*
X114303288Y-77357735D01*
X114394528Y-77174501D01*
X114450545Y-76977621D01*
X114469432Y-76773800D01*
X114790967Y-76773800D01*
X114809854Y-76977619D01*
X114865872Y-77174502D01*
X114957110Y-77357733D01*
X114957112Y-77357735D01*
X115080468Y-77521085D01*
X115231738Y-77658986D01*
X115405773Y-77766744D01*
X115596644Y-77840688D01*
X115797853Y-77878300D01*
X115797855Y-77878300D01*
X116002545Y-77878300D01*
X116002547Y-77878300D01*
X116203756Y-77840688D01*
X116394627Y-77766744D01*
X116568662Y-77658986D01*
X116719932Y-77521085D01*
X116843288Y-77357735D01*
X116934528Y-77174501D01*
X116990545Y-76977621D01*
X117009432Y-76773800D01*
X157970967Y-76773800D01*
X157989854Y-76977619D01*
X158045872Y-77174502D01*
X158137110Y-77357733D01*
X158137112Y-77357735D01*
X158260468Y-77521085D01*
X158411738Y-77658986D01*
X158585773Y-77766744D01*
X158776644Y-77840688D01*
X158977853Y-77878300D01*
X158977855Y-77878300D01*
X159182545Y-77878300D01*
X159182547Y-77878300D01*
X159383756Y-77840688D01*
X159574627Y-77766744D01*
X159748662Y-77658986D01*
X159899932Y-77521085D01*
X160023288Y-77357735D01*
X160114528Y-77174501D01*
X160170545Y-76977621D01*
X160189432Y-76773800D01*
X160189432Y-76773799D01*
X160510967Y-76773799D01*
X160529854Y-76977619D01*
X160585872Y-77174502D01*
X160677110Y-77357733D01*
X160677112Y-77357735D01*
X160800468Y-77521085D01*
X160951738Y-77658986D01*
X161125773Y-77766744D01*
X161316644Y-77840688D01*
X161517853Y-77878300D01*
X161517855Y-77878300D01*
X161722545Y-77878300D01*
X161722547Y-77878300D01*
X161923756Y-77840688D01*
X162114627Y-77766744D01*
X162288662Y-77658986D01*
X162439932Y-77521085D01*
X162563288Y-77357735D01*
X162654528Y-77174501D01*
X162710545Y-76977621D01*
X162729432Y-76773800D01*
X162710545Y-76569979D01*
X162654528Y-76373099D01*
X162653785Y-76371607D01*
X162563289Y-76189866D01*
X162533086Y-76149872D01*
X162439932Y-76026515D01*
X162288662Y-75888614D01*
X162240287Y-75858661D01*
X162114628Y-75780856D01*
X162019191Y-75743884D01*
X161923756Y-75706912D01*
X161722547Y-75669300D01*
X161517853Y-75669300D01*
X161316643Y-75706912D01*
X161316644Y-75706912D01*
X161125771Y-75780856D01*
X160951739Y-75888613D01*
X160800467Y-76026516D01*
X160677110Y-76189866D01*
X160585872Y-76373097D01*
X160529854Y-76569980D01*
X160510967Y-76773799D01*
X160189432Y-76773799D01*
X160170545Y-76569979D01*
X160114528Y-76373099D01*
X160113785Y-76371607D01*
X160023289Y-76189866D01*
X159993086Y-76149872D01*
X159899932Y-76026515D01*
X159748662Y-75888614D01*
X159700287Y-75858661D01*
X159574628Y-75780856D01*
X159479191Y-75743884D01*
X159383756Y-75706912D01*
X159182547Y-75669300D01*
X158977853Y-75669300D01*
X158776643Y-75706912D01*
X158776644Y-75706912D01*
X158585771Y-75780856D01*
X158411739Y-75888613D01*
X158260467Y-76026516D01*
X158137110Y-76189866D01*
X158045872Y-76373097D01*
X157989854Y-76569980D01*
X157970967Y-76773800D01*
X117009432Y-76773800D01*
X116990545Y-76569979D01*
X116934528Y-76373099D01*
X116933785Y-76371607D01*
X116843289Y-76189866D01*
X116813086Y-76149871D01*
X116719932Y-76026515D01*
X116568662Y-75888614D01*
X116520287Y-75858661D01*
X116394628Y-75780856D01*
X116299191Y-75743884D01*
X116203756Y-75706912D01*
X116002547Y-75669300D01*
X115797853Y-75669300D01*
X115596643Y-75706912D01*
X115596644Y-75706912D01*
X115405771Y-75780856D01*
X115231739Y-75888613D01*
X115080467Y-76026516D01*
X114957110Y-76189866D01*
X114865872Y-76373097D01*
X114809854Y-76569980D01*
X114790967Y-76773800D01*
X114469432Y-76773800D01*
X114450545Y-76569979D01*
X114394528Y-76373099D01*
X114393785Y-76371607D01*
X114303289Y-76189866D01*
X114273086Y-76149872D01*
X114179932Y-76026515D01*
X114028662Y-75888614D01*
X113980287Y-75858661D01*
X113854628Y-75780856D01*
X113759191Y-75743884D01*
X113663756Y-75706912D01*
X113462547Y-75669300D01*
X113257853Y-75669300D01*
X113056644Y-75706912D01*
X112865771Y-75780856D01*
X112691739Y-75888613D01*
X112540467Y-76026516D01*
X112417110Y-76189866D01*
X112325872Y-76373097D01*
X112269854Y-76569980D01*
X112250967Y-76773799D01*
X111700397Y-76773799D01*
X111700397Y-74233800D01*
X112250967Y-74233800D01*
X112269854Y-74437619D01*
X112325872Y-74634502D01*
X112417110Y-74817733D01*
X112417112Y-74817735D01*
X112540468Y-74981085D01*
X112691738Y-75118986D01*
X112865773Y-75226744D01*
X113056644Y-75300688D01*
X113257853Y-75338300D01*
X113257855Y-75338300D01*
X113462545Y-75338300D01*
X113462547Y-75338300D01*
X113663756Y-75300688D01*
X113854627Y-75226744D01*
X114028662Y-75118986D01*
X114179932Y-74981085D01*
X114303288Y-74817735D01*
X114394528Y-74634501D01*
X114450545Y-74437621D01*
X114469432Y-74233800D01*
X114469432Y-74233799D01*
X114790967Y-74233799D01*
X114809854Y-74437619D01*
X114865872Y-74634502D01*
X114957110Y-74817733D01*
X114957112Y-74817735D01*
X115080468Y-74981085D01*
X115231738Y-75118986D01*
X115405773Y-75226744D01*
X115596644Y-75300688D01*
X115797853Y-75338300D01*
X115797855Y-75338300D01*
X116002545Y-75338300D01*
X116002547Y-75338300D01*
X116203756Y-75300688D01*
X116394627Y-75226744D01*
X116568662Y-75118986D01*
X116719932Y-74981085D01*
X116843288Y-74817735D01*
X116934528Y-74634501D01*
X116937174Y-74625200D01*
X127356693Y-74625200D01*
X127375850Y-74782980D01*
X127432212Y-74931594D01*
X127466374Y-74981085D01*
X127522502Y-75062401D01*
X127641471Y-75167799D01*
X127782207Y-75241663D01*
X127936529Y-75279700D01*
X127936531Y-75279700D01*
X128095469Y-75279700D01*
X128095471Y-75279700D01*
X128249793Y-75241663D01*
X128390529Y-75167799D01*
X128509498Y-75062401D01*
X128599787Y-74931595D01*
X128656149Y-74782982D01*
X128675307Y-74625200D01*
X128656149Y-74467418D01*
X128599787Y-74318805D01*
X128541112Y-74233799D01*
X157970967Y-74233799D01*
X157989854Y-74437619D01*
X158045872Y-74634502D01*
X158137110Y-74817733D01*
X158137112Y-74817735D01*
X158260468Y-74981085D01*
X158411738Y-75118986D01*
X158585773Y-75226744D01*
X158776644Y-75300688D01*
X158977853Y-75338300D01*
X158977855Y-75338300D01*
X159182545Y-75338300D01*
X159182547Y-75338300D01*
X159383756Y-75300688D01*
X159574627Y-75226744D01*
X159748662Y-75118986D01*
X159899932Y-74981085D01*
X160023288Y-74817735D01*
X160114528Y-74634501D01*
X160170545Y-74437621D01*
X160189432Y-74233800D01*
X160510967Y-74233800D01*
X160529854Y-74437619D01*
X160585872Y-74634502D01*
X160677110Y-74817733D01*
X160677112Y-74817735D01*
X160800468Y-74981085D01*
X160951738Y-75118986D01*
X161125773Y-75226744D01*
X161316644Y-75300688D01*
X161517853Y-75338300D01*
X161517855Y-75338300D01*
X161722545Y-75338300D01*
X161722547Y-75338300D01*
X161923756Y-75300688D01*
X162114627Y-75226744D01*
X162288662Y-75118986D01*
X162439932Y-74981085D01*
X162563288Y-74817735D01*
X162654528Y-74634501D01*
X162710545Y-74437621D01*
X162729432Y-74233800D01*
X162710545Y-74029979D01*
X162654528Y-73833099D01*
X162653785Y-73831607D01*
X162563289Y-73649866D01*
X162533086Y-73609871D01*
X162439932Y-73486515D01*
X162288662Y-73348614D01*
X162240287Y-73318661D01*
X162114628Y-73240856D01*
X162019191Y-73203884D01*
X161923756Y-73166912D01*
X161722547Y-73129300D01*
X161517853Y-73129300D01*
X161316643Y-73166912D01*
X161316644Y-73166912D01*
X161125771Y-73240856D01*
X160951739Y-73348613D01*
X160800467Y-73486516D01*
X160677110Y-73649866D01*
X160585872Y-73833097D01*
X160529854Y-74029980D01*
X160510967Y-74233800D01*
X160189432Y-74233800D01*
X160170545Y-74029979D01*
X160114528Y-73833099D01*
X160113785Y-73831607D01*
X160023289Y-73649866D01*
X159993086Y-73609871D01*
X159899932Y-73486515D01*
X159748662Y-73348614D01*
X159700287Y-73318661D01*
X159574628Y-73240856D01*
X159479191Y-73203884D01*
X159383756Y-73166912D01*
X159182547Y-73129300D01*
X158977853Y-73129300D01*
X158776644Y-73166912D01*
X158585771Y-73240856D01*
X158411739Y-73348613D01*
X158260467Y-73486516D01*
X158137110Y-73649866D01*
X158045872Y-73833097D01*
X157989854Y-74029980D01*
X157970967Y-74233799D01*
X128541112Y-74233799D01*
X128509498Y-74187999D01*
X128390529Y-74082601D01*
X128249793Y-74008737D01*
X128095471Y-73970700D01*
X127936529Y-73970700D01*
X127782207Y-74008737D01*
X127782206Y-74008737D01*
X127782204Y-74008738D01*
X127641472Y-74082600D01*
X127522501Y-74187999D01*
X127432212Y-74318805D01*
X127375850Y-74467419D01*
X127356693Y-74625200D01*
X116937174Y-74625200D01*
X116990545Y-74437621D01*
X117009432Y-74233800D01*
X116990545Y-74029979D01*
X116934528Y-73833099D01*
X116933785Y-73831607D01*
X116843289Y-73649866D01*
X116813086Y-73609871D01*
X116719932Y-73486515D01*
X116568662Y-73348614D01*
X116520287Y-73318661D01*
X116394628Y-73240856D01*
X116299191Y-73203884D01*
X116203756Y-73166912D01*
X116002547Y-73129300D01*
X115797853Y-73129300D01*
X115596643Y-73166912D01*
X115596644Y-73166912D01*
X115405771Y-73240856D01*
X115231739Y-73348613D01*
X115080467Y-73486516D01*
X114957110Y-73649866D01*
X114865872Y-73833097D01*
X114809854Y-74029980D01*
X114790967Y-74233799D01*
X114469432Y-74233799D01*
X114450545Y-74029979D01*
X114394528Y-73833099D01*
X114393785Y-73831607D01*
X114303289Y-73649866D01*
X114273086Y-73609872D01*
X114179932Y-73486515D01*
X114028662Y-73348614D01*
X113980287Y-73318661D01*
X113854628Y-73240856D01*
X113759191Y-73203884D01*
X113663756Y-73166912D01*
X113462547Y-73129300D01*
X113257853Y-73129300D01*
X113056644Y-73166912D01*
X112865771Y-73240856D01*
X112691739Y-73348613D01*
X112540467Y-73486516D01*
X112417110Y-73649866D01*
X112325872Y-73833097D01*
X112269854Y-74029980D01*
X112250967Y-74233800D01*
X111700397Y-74233800D01*
X111700397Y-71693800D01*
X112250967Y-71693800D01*
X112269854Y-71897619D01*
X112325872Y-72094502D01*
X112417110Y-72277733D01*
X112459073Y-72333300D01*
X112540468Y-72441085D01*
X112691738Y-72578986D01*
X112865773Y-72686744D01*
X113056644Y-72760688D01*
X113257853Y-72798300D01*
X113257855Y-72798300D01*
X113462545Y-72798300D01*
X113462547Y-72798300D01*
X113663756Y-72760688D01*
X113854627Y-72686744D01*
X114028662Y-72578986D01*
X114179932Y-72441085D01*
X114303288Y-72277735D01*
X114394528Y-72094501D01*
X114450545Y-71897621D01*
X114469432Y-71693800D01*
X114790967Y-71693800D01*
X114809854Y-71897619D01*
X114865872Y-72094502D01*
X114957110Y-72277733D01*
X114999073Y-72333300D01*
X115080468Y-72441085D01*
X115231738Y-72578986D01*
X115405773Y-72686744D01*
X115596644Y-72760688D01*
X115797853Y-72798300D01*
X115797855Y-72798300D01*
X116002545Y-72798300D01*
X116002547Y-72798300D01*
X116203756Y-72760688D01*
X116394627Y-72686744D01*
X116568662Y-72578986D01*
X116719932Y-72441085D01*
X116843288Y-72277735D01*
X116934528Y-72094501D01*
X116990545Y-71897621D01*
X117009432Y-71693800D01*
X117008042Y-71678799D01*
X128042493Y-71678799D01*
X128061650Y-71836580D01*
X128118012Y-71985194D01*
X128193462Y-72094501D01*
X128208302Y-72116001D01*
X128327271Y-72221399D01*
X128468007Y-72295263D01*
X128622329Y-72333300D01*
X128622331Y-72333300D01*
X128781269Y-72333300D01*
X128781271Y-72333300D01*
X128935593Y-72295263D01*
X129076329Y-72221399D01*
X129177048Y-72132168D01*
X129241299Y-72101969D01*
X129311680Y-72111300D01*
X129344150Y-72132167D01*
X129434202Y-72211947D01*
X129444872Y-72221400D01*
X129519119Y-72260367D01*
X129585607Y-72295263D01*
X129739929Y-72333300D01*
X129739931Y-72333300D01*
X129898869Y-72333300D01*
X129898871Y-72333300D01*
X130053193Y-72295263D01*
X130193929Y-72221399D01*
X130312898Y-72116001D01*
X130403187Y-71985195D01*
X130459549Y-71836582D01*
X130476886Y-71693800D01*
X157970967Y-71693800D01*
X157989854Y-71897619D01*
X158045872Y-72094502D01*
X158137110Y-72277733D01*
X158179073Y-72333300D01*
X158260468Y-72441085D01*
X158411738Y-72578986D01*
X158585773Y-72686744D01*
X158776644Y-72760688D01*
X158977853Y-72798300D01*
X158977855Y-72798300D01*
X159182545Y-72798300D01*
X159182547Y-72798300D01*
X159383756Y-72760688D01*
X159574627Y-72686744D01*
X159748662Y-72578986D01*
X159899932Y-72441085D01*
X160023288Y-72277735D01*
X160114528Y-72094501D01*
X160170545Y-71897621D01*
X160189432Y-71693800D01*
X160189432Y-71693799D01*
X160510967Y-71693799D01*
X160529854Y-71897619D01*
X160585872Y-72094502D01*
X160677110Y-72277733D01*
X160719073Y-72333300D01*
X160800468Y-72441085D01*
X160951738Y-72578986D01*
X161125773Y-72686744D01*
X161316644Y-72760688D01*
X161517853Y-72798300D01*
X161517855Y-72798300D01*
X161722545Y-72798300D01*
X161722547Y-72798300D01*
X161923756Y-72760688D01*
X162114627Y-72686744D01*
X162288662Y-72578986D01*
X162439932Y-72441085D01*
X162563288Y-72277735D01*
X162654528Y-72094501D01*
X162710545Y-71897621D01*
X162729432Y-71693800D01*
X162710545Y-71489979D01*
X162654528Y-71293099D01*
X162576402Y-71136201D01*
X162563289Y-71109866D01*
X162498672Y-71024300D01*
X162439932Y-70946515D01*
X162288662Y-70808614D01*
X162219830Y-70765995D01*
X162114628Y-70700856D01*
X162019191Y-70663884D01*
X161923756Y-70626912D01*
X161722547Y-70589300D01*
X161517853Y-70589300D01*
X161367626Y-70617382D01*
X161316644Y-70626912D01*
X161125771Y-70700856D01*
X160951739Y-70808613D01*
X160800467Y-70946516D01*
X160677110Y-71109866D01*
X160585872Y-71293097D01*
X160529854Y-71489980D01*
X160510967Y-71693799D01*
X160189432Y-71693799D01*
X160170545Y-71489979D01*
X160114528Y-71293099D01*
X160036402Y-71136201D01*
X160023289Y-71109866D01*
X159958672Y-71024300D01*
X159899932Y-70946515D01*
X159748662Y-70808614D01*
X159679830Y-70765995D01*
X159574628Y-70700856D01*
X159479191Y-70663884D01*
X159383756Y-70626912D01*
X159182547Y-70589300D01*
X158977853Y-70589300D01*
X158827626Y-70617382D01*
X158776644Y-70626912D01*
X158585771Y-70700856D01*
X158411739Y-70808613D01*
X158260467Y-70946516D01*
X158137110Y-71109866D01*
X158045872Y-71293097D01*
X157989854Y-71489980D01*
X157970967Y-71693800D01*
X130476886Y-71693800D01*
X130478707Y-71678800D01*
X130459549Y-71521018D01*
X130403187Y-71372405D01*
X130312898Y-71241599D01*
X130193929Y-71136201D01*
X130053193Y-71062337D01*
X129898871Y-71024300D01*
X129739929Y-71024300D01*
X129585607Y-71062337D01*
X129585606Y-71062337D01*
X129585604Y-71062338D01*
X129444870Y-71136201D01*
X129344153Y-71225429D01*
X129279900Y-71255630D01*
X129209520Y-71246299D01*
X129177047Y-71225429D01*
X129076329Y-71136201D01*
X128935595Y-71062338D01*
X128935594Y-71062337D01*
X128935593Y-71062337D01*
X128781271Y-71024300D01*
X128622329Y-71024300D01*
X128468007Y-71062337D01*
X128468006Y-71062337D01*
X128468004Y-71062338D01*
X128327272Y-71136200D01*
X128208301Y-71241599D01*
X128118012Y-71372405D01*
X128061650Y-71521019D01*
X128042493Y-71678799D01*
X117008042Y-71678799D01*
X116990545Y-71489979D01*
X116934528Y-71293099D01*
X116856402Y-71136201D01*
X116843289Y-71109866D01*
X116778672Y-71024300D01*
X116719932Y-70946515D01*
X116568662Y-70808614D01*
X116499830Y-70765995D01*
X116394628Y-70700856D01*
X116299191Y-70663884D01*
X116203756Y-70626912D01*
X116002547Y-70589300D01*
X115797853Y-70589300D01*
X115647626Y-70617382D01*
X115596644Y-70626912D01*
X115405771Y-70700856D01*
X115231739Y-70808613D01*
X115080467Y-70946516D01*
X114957110Y-71109866D01*
X114865872Y-71293097D01*
X114809854Y-71489980D01*
X114790967Y-71693800D01*
X114469432Y-71693800D01*
X114450545Y-71489979D01*
X114394528Y-71293099D01*
X114316402Y-71136201D01*
X114303289Y-71109866D01*
X114238672Y-71024300D01*
X114179932Y-70946515D01*
X114028662Y-70808614D01*
X113959830Y-70765995D01*
X113854628Y-70700856D01*
X113759191Y-70663884D01*
X113663756Y-70626912D01*
X113462547Y-70589300D01*
X113257853Y-70589300D01*
X113107626Y-70617382D01*
X113056644Y-70626912D01*
X112865771Y-70700856D01*
X112691739Y-70808613D01*
X112540467Y-70946516D01*
X112417110Y-71109866D01*
X112325872Y-71293097D01*
X112269854Y-71489980D01*
X112250967Y-71693800D01*
X111700397Y-71693800D01*
X111700397Y-70459600D01*
X123013293Y-70459600D01*
X123032450Y-70617380D01*
X123088812Y-70765994D01*
X123088813Y-70765995D01*
X123179102Y-70896801D01*
X123298071Y-71002199D01*
X123438807Y-71076063D01*
X123593129Y-71114100D01*
X123593131Y-71114100D01*
X123752069Y-71114100D01*
X123752071Y-71114100D01*
X123906393Y-71076063D01*
X124047129Y-71002199D01*
X124166098Y-70896801D01*
X124256387Y-70765995D01*
X124312749Y-70617382D01*
X124331907Y-70459600D01*
X124312749Y-70301818D01*
X124256992Y-70154800D01*
X129947493Y-70154800D01*
X129966650Y-70312580D01*
X130023012Y-70461194D01*
X130111438Y-70589300D01*
X130113302Y-70592001D01*
X130232271Y-70697399D01*
X130373007Y-70771263D01*
X130527329Y-70809300D01*
X130527331Y-70809300D01*
X130686269Y-70809300D01*
X130686271Y-70809300D01*
X130840593Y-70771263D01*
X130981329Y-70697399D01*
X131100298Y-70592001D01*
X131190587Y-70461195D01*
X131246949Y-70312582D01*
X131266107Y-70154800D01*
X131246949Y-69997018D01*
X131190587Y-69848405D01*
X131100298Y-69717599D01*
X130981329Y-69612201D01*
X130840593Y-69538337D01*
X130686271Y-69500300D01*
X130527329Y-69500300D01*
X130373007Y-69538337D01*
X130373006Y-69538337D01*
X130373004Y-69538338D01*
X130232272Y-69612200D01*
X130113301Y-69717599D01*
X130023012Y-69848405D01*
X129966650Y-69997019D01*
X129947493Y-70154800D01*
X124256992Y-70154800D01*
X124256387Y-70153205D01*
X124166098Y-70022399D01*
X124047129Y-69917001D01*
X123906393Y-69843137D01*
X123752071Y-69805100D01*
X123593129Y-69805100D01*
X123438807Y-69843137D01*
X123438806Y-69843137D01*
X123438804Y-69843138D01*
X123298072Y-69917000D01*
X123179101Y-70022399D01*
X123088812Y-70153205D01*
X123032450Y-70301819D01*
X123013293Y-70459600D01*
X111700397Y-70459600D01*
X111700397Y-69153800D01*
X112250967Y-69153800D01*
X112269854Y-69357619D01*
X112325872Y-69554502D01*
X112417110Y-69737733D01*
X112417112Y-69737735D01*
X112540468Y-69901085D01*
X112691738Y-70038986D01*
X112865773Y-70146744D01*
X113056644Y-70220688D01*
X113257853Y-70258300D01*
X113257855Y-70258300D01*
X113462545Y-70258300D01*
X113462547Y-70258300D01*
X113663756Y-70220688D01*
X113854627Y-70146744D01*
X114028662Y-70038986D01*
X114179932Y-69901085D01*
X114303288Y-69737735D01*
X114394528Y-69554501D01*
X114450545Y-69357621D01*
X114469432Y-69153800D01*
X114790967Y-69153800D01*
X114809854Y-69357619D01*
X114865872Y-69554502D01*
X114957110Y-69737733D01*
X114957112Y-69737735D01*
X115080468Y-69901085D01*
X115231738Y-70038986D01*
X115405773Y-70146744D01*
X115596644Y-70220688D01*
X115797853Y-70258300D01*
X115797855Y-70258300D01*
X116002545Y-70258300D01*
X116002547Y-70258300D01*
X116203756Y-70220688D01*
X116394627Y-70146744D01*
X116568662Y-70038986D01*
X116719932Y-69901085D01*
X116843288Y-69737735D01*
X116934528Y-69554501D01*
X116990545Y-69357621D01*
X117009432Y-69153800D01*
X157970967Y-69153800D01*
X157989854Y-69357619D01*
X158045872Y-69554502D01*
X158137110Y-69737733D01*
X158137112Y-69737735D01*
X158260468Y-69901085D01*
X158411738Y-70038986D01*
X158585773Y-70146744D01*
X158776644Y-70220688D01*
X158977853Y-70258300D01*
X158977855Y-70258300D01*
X159182545Y-70258300D01*
X159182547Y-70258300D01*
X159383756Y-70220688D01*
X159574627Y-70146744D01*
X159748662Y-70038986D01*
X159899932Y-69901085D01*
X160023288Y-69737735D01*
X160114528Y-69554501D01*
X160170545Y-69357621D01*
X160189432Y-69153800D01*
X160510967Y-69153800D01*
X160529854Y-69357619D01*
X160585872Y-69554502D01*
X160677110Y-69737733D01*
X160677112Y-69737735D01*
X160800468Y-69901085D01*
X160951738Y-70038986D01*
X161125773Y-70146744D01*
X161316644Y-70220688D01*
X161517853Y-70258300D01*
X161517855Y-70258300D01*
X161722545Y-70258300D01*
X161722547Y-70258300D01*
X161923756Y-70220688D01*
X162114627Y-70146744D01*
X162288662Y-70038986D01*
X162439932Y-69901085D01*
X162563288Y-69737735D01*
X162654528Y-69554501D01*
X162710545Y-69357621D01*
X162729432Y-69153800D01*
X162710545Y-68949979D01*
X162654528Y-68753099D01*
X162632367Y-68708594D01*
X162563289Y-68569866D01*
X162533086Y-68529872D01*
X162439932Y-68406515D01*
X162288662Y-68268614D01*
X162240287Y-68238661D01*
X162114628Y-68160856D01*
X161946711Y-68095805D01*
X161923756Y-68086912D01*
X161722547Y-68049300D01*
X161517853Y-68049300D01*
X161316643Y-68086912D01*
X161316644Y-68086912D01*
X161125771Y-68160856D01*
X160951739Y-68268613D01*
X160951737Y-68268614D01*
X160951738Y-68268614D01*
X160805203Y-68402199D01*
X160800467Y-68406516D01*
X160677110Y-68569866D01*
X160585872Y-68753097D01*
X160529854Y-68949980D01*
X160510967Y-69153800D01*
X160189432Y-69153800D01*
X160170545Y-68949979D01*
X160114528Y-68753099D01*
X160092367Y-68708594D01*
X160023289Y-68569866D01*
X159993086Y-68529872D01*
X159899932Y-68406515D01*
X159748662Y-68268614D01*
X159700287Y-68238661D01*
X159574628Y-68160856D01*
X159406711Y-68095805D01*
X159383756Y-68086912D01*
X159182547Y-68049300D01*
X158977853Y-68049300D01*
X158776644Y-68086912D01*
X158585771Y-68160856D01*
X158411739Y-68268613D01*
X158411737Y-68268614D01*
X158411738Y-68268614D01*
X158265203Y-68402199D01*
X158260467Y-68406516D01*
X158137110Y-68569866D01*
X158045872Y-68753097D01*
X157989854Y-68949980D01*
X157970967Y-69153800D01*
X117009432Y-69153800D01*
X116990545Y-68949979D01*
X116934528Y-68753099D01*
X116912367Y-68708594D01*
X116843289Y-68569866D01*
X116813086Y-68529872D01*
X116719932Y-68406515D01*
X116715199Y-68402200D01*
X147702093Y-68402200D01*
X147721250Y-68559980D01*
X147777612Y-68708594D01*
X147808331Y-68753097D01*
X147867902Y-68839401D01*
X147986871Y-68944799D01*
X148127607Y-69018663D01*
X148281929Y-69056700D01*
X148281931Y-69056700D01*
X148440869Y-69056700D01*
X148440871Y-69056700D01*
X148595193Y-69018663D01*
X148735929Y-68944799D01*
X148854898Y-68839401D01*
X148945187Y-68708595D01*
X149001549Y-68559982D01*
X149020707Y-68402200D01*
X149001549Y-68244418D01*
X148945187Y-68095805D01*
X148854898Y-67964999D01*
X148735929Y-67859601D01*
X148595193Y-67785737D01*
X148440871Y-67747700D01*
X148281929Y-67747700D01*
X148127607Y-67785737D01*
X148127606Y-67785737D01*
X148127604Y-67785738D01*
X147986872Y-67859600D01*
X147867901Y-67964999D01*
X147777612Y-68095805D01*
X147721250Y-68244419D01*
X147702093Y-68402200D01*
X116715199Y-68402200D01*
X116568662Y-68268614D01*
X116520287Y-68238661D01*
X116394628Y-68160856D01*
X116226711Y-68095805D01*
X116203756Y-68086912D01*
X116002547Y-68049300D01*
X115797853Y-68049300D01*
X115596643Y-68086912D01*
X115596644Y-68086912D01*
X115405771Y-68160856D01*
X115231739Y-68268613D01*
X115231737Y-68268614D01*
X115231738Y-68268614D01*
X115085203Y-68402199D01*
X115080467Y-68406516D01*
X114957110Y-68569866D01*
X114865872Y-68753097D01*
X114809854Y-68949980D01*
X114790967Y-69153800D01*
X114469432Y-69153800D01*
X114450545Y-68949979D01*
X114394528Y-68753099D01*
X114372367Y-68708594D01*
X114303289Y-68569866D01*
X114273086Y-68529872D01*
X114179932Y-68406515D01*
X114028662Y-68268614D01*
X113980287Y-68238661D01*
X113854628Y-68160856D01*
X113686711Y-68095805D01*
X113663756Y-68086912D01*
X113462547Y-68049300D01*
X113257853Y-68049300D01*
X113056644Y-68086912D01*
X112865771Y-68160856D01*
X112691739Y-68268613D01*
X112691737Y-68268614D01*
X112691738Y-68268614D01*
X112545203Y-68402199D01*
X112540467Y-68406516D01*
X112417110Y-68569866D01*
X112325872Y-68753097D01*
X112269854Y-68949980D01*
X112250967Y-69153800D01*
X111700397Y-69153800D01*
X111700397Y-66613800D01*
X112250967Y-66613800D01*
X112269854Y-66817619D01*
X112325872Y-67014502D01*
X112417110Y-67197733D01*
X112417112Y-67197735D01*
X112540468Y-67361085D01*
X112691738Y-67498986D01*
X112865773Y-67606744D01*
X113056644Y-67680688D01*
X113257853Y-67718300D01*
X113257855Y-67718300D01*
X113462545Y-67718300D01*
X113462547Y-67718300D01*
X113663756Y-67680688D01*
X113854627Y-67606744D01*
X114028662Y-67498986D01*
X114179932Y-67361085D01*
X114303288Y-67197735D01*
X114394528Y-67014501D01*
X114450545Y-66817621D01*
X114469432Y-66613800D01*
X114790967Y-66613800D01*
X114809854Y-66817619D01*
X114865872Y-67014502D01*
X114957110Y-67197733D01*
X114957112Y-67197735D01*
X115080468Y-67361085D01*
X115231738Y-67498986D01*
X115405773Y-67606744D01*
X115596644Y-67680688D01*
X115797853Y-67718300D01*
X115797855Y-67718300D01*
X116002545Y-67718300D01*
X116002547Y-67718300D01*
X116203756Y-67680688D01*
X116394627Y-67606744D01*
X116568662Y-67498986D01*
X116719932Y-67361085D01*
X116843288Y-67197735D01*
X116934528Y-67014501D01*
X116990545Y-66817621D01*
X117009432Y-66613800D01*
X157970967Y-66613800D01*
X157989854Y-66817619D01*
X158045872Y-67014502D01*
X158137110Y-67197733D01*
X158137112Y-67197735D01*
X158260468Y-67361085D01*
X158411738Y-67498986D01*
X158585773Y-67606744D01*
X158776644Y-67680688D01*
X158977853Y-67718300D01*
X158977855Y-67718300D01*
X159182545Y-67718300D01*
X159182547Y-67718300D01*
X159383756Y-67680688D01*
X159574627Y-67606744D01*
X159748662Y-67498986D01*
X159899932Y-67361085D01*
X160023288Y-67197735D01*
X160114528Y-67014501D01*
X160170545Y-66817621D01*
X160189432Y-66613800D01*
X160510967Y-66613800D01*
X160529854Y-66817619D01*
X160585872Y-67014502D01*
X160677110Y-67197733D01*
X160677112Y-67197735D01*
X160800468Y-67361085D01*
X160951738Y-67498986D01*
X161125773Y-67606744D01*
X161316644Y-67680688D01*
X161517853Y-67718300D01*
X161517855Y-67718300D01*
X161722545Y-67718300D01*
X161722547Y-67718300D01*
X161923756Y-67680688D01*
X162114627Y-67606744D01*
X162288662Y-67498986D01*
X162439932Y-67361085D01*
X162563288Y-67197735D01*
X162654528Y-67014501D01*
X162710545Y-66817621D01*
X162729432Y-66613800D01*
X162710545Y-66409979D01*
X162654528Y-66213099D01*
X162653785Y-66211607D01*
X162563289Y-66029866D01*
X162533086Y-65989872D01*
X162439932Y-65866515D01*
X162288662Y-65728614D01*
X162240287Y-65698661D01*
X162114628Y-65620856D01*
X162019191Y-65583884D01*
X161923756Y-65546912D01*
X161722547Y-65509300D01*
X161517853Y-65509300D01*
X161316643Y-65546912D01*
X161316644Y-65546912D01*
X161125771Y-65620856D01*
X160951739Y-65728613D01*
X160800467Y-65866516D01*
X160677110Y-66029866D01*
X160585872Y-66213097D01*
X160529854Y-66409980D01*
X160510967Y-66613800D01*
X160189432Y-66613800D01*
X160170545Y-66409979D01*
X160114528Y-66213099D01*
X160113785Y-66211607D01*
X160023289Y-66029866D01*
X159993086Y-65989871D01*
X159899932Y-65866515D01*
X159748662Y-65728614D01*
X159700287Y-65698661D01*
X159574628Y-65620856D01*
X159479191Y-65583884D01*
X159383756Y-65546912D01*
X159182547Y-65509300D01*
X158977853Y-65509300D01*
X158776643Y-65546912D01*
X158776644Y-65546912D01*
X158585771Y-65620856D01*
X158411739Y-65728613D01*
X158260467Y-65866516D01*
X158137110Y-66029866D01*
X158045872Y-66213097D01*
X157989854Y-66409980D01*
X157970967Y-66613800D01*
X117009432Y-66613800D01*
X116990545Y-66409979D01*
X116934528Y-66213099D01*
X116933785Y-66211607D01*
X116843289Y-66029866D01*
X116813086Y-65989871D01*
X116719932Y-65866515D01*
X116568662Y-65728614D01*
X116520287Y-65698661D01*
X116394628Y-65620856D01*
X116299191Y-65583884D01*
X116203756Y-65546912D01*
X116002547Y-65509300D01*
X115797853Y-65509300D01*
X115596643Y-65546912D01*
X115596644Y-65546912D01*
X115405771Y-65620856D01*
X115231739Y-65728613D01*
X115080467Y-65866516D01*
X114957110Y-66029866D01*
X114865872Y-66213097D01*
X114809854Y-66409980D01*
X114790967Y-66613800D01*
X114469432Y-66613800D01*
X114450545Y-66409979D01*
X114394528Y-66213099D01*
X114393785Y-66211607D01*
X114303289Y-66029866D01*
X114273086Y-65989872D01*
X114179932Y-65866515D01*
X114028662Y-65728614D01*
X113980287Y-65698661D01*
X113854628Y-65620856D01*
X113759191Y-65583884D01*
X113663756Y-65546912D01*
X113462547Y-65509300D01*
X113257853Y-65509300D01*
X113056644Y-65546912D01*
X112865771Y-65620856D01*
X112691739Y-65728613D01*
X112540467Y-65866516D01*
X112417110Y-66029866D01*
X112325872Y-66213097D01*
X112269854Y-66409980D01*
X112250967Y-66613800D01*
X111700397Y-66613800D01*
X111700397Y-64073800D01*
X112250967Y-64073800D01*
X112269854Y-64277619D01*
X112325872Y-64474502D01*
X112417110Y-64657733D01*
X112417112Y-64657735D01*
X112540468Y-64821085D01*
X112691738Y-64958986D01*
X112865773Y-65066744D01*
X113056644Y-65140688D01*
X113257853Y-65178300D01*
X113257855Y-65178300D01*
X113462545Y-65178300D01*
X113462547Y-65178300D01*
X113663756Y-65140688D01*
X113854627Y-65066744D01*
X114028662Y-64958986D01*
X114179932Y-64821085D01*
X114303288Y-64657735D01*
X114394528Y-64474501D01*
X114450545Y-64277621D01*
X114469432Y-64073800D01*
X114790967Y-64073800D01*
X114809854Y-64277619D01*
X114865872Y-64474502D01*
X114957110Y-64657733D01*
X114957112Y-64657735D01*
X115080468Y-64821085D01*
X115231738Y-64958986D01*
X115405773Y-65066744D01*
X115596644Y-65140688D01*
X115797853Y-65178300D01*
X115797855Y-65178300D01*
X116002545Y-65178300D01*
X116002547Y-65178300D01*
X116203756Y-65140688D01*
X116394627Y-65066744D01*
X116568662Y-64958986D01*
X116719932Y-64821085D01*
X116843288Y-64657735D01*
X116863273Y-64617600D01*
X133224093Y-64617600D01*
X133243250Y-64775380D01*
X133299612Y-64923994D01*
X133323766Y-64958986D01*
X133389902Y-65054801D01*
X133508871Y-65160199D01*
X133649607Y-65234063D01*
X133803929Y-65272100D01*
X133803931Y-65272100D01*
X133962869Y-65272100D01*
X133962871Y-65272100D01*
X134117193Y-65234063D01*
X134257929Y-65160199D01*
X134376898Y-65054801D01*
X134467187Y-64923995D01*
X134523549Y-64775382D01*
X134542707Y-64617600D01*
X134533455Y-64541400D01*
X136830893Y-64541400D01*
X136850050Y-64699180D01*
X136906412Y-64847794D01*
X136983163Y-64958986D01*
X136996702Y-64978601D01*
X137115671Y-65083999D01*
X137256407Y-65157863D01*
X137410729Y-65195900D01*
X137410731Y-65195900D01*
X137569669Y-65195900D01*
X137569671Y-65195900D01*
X137723993Y-65157863D01*
X137864729Y-65083999D01*
X137983698Y-64978601D01*
X138073987Y-64847795D01*
X138130349Y-64699182D01*
X138149507Y-64541400D01*
X138130349Y-64383618D01*
X138073987Y-64235005D01*
X137983698Y-64104199D01*
X137949385Y-64073800D01*
X157970967Y-64073800D01*
X157989854Y-64277619D01*
X158045872Y-64474502D01*
X158137110Y-64657733D01*
X158137112Y-64657735D01*
X158260468Y-64821085D01*
X158411738Y-64958986D01*
X158585773Y-65066744D01*
X158776644Y-65140688D01*
X158977853Y-65178300D01*
X158977855Y-65178300D01*
X159182545Y-65178300D01*
X159182547Y-65178300D01*
X159383756Y-65140688D01*
X159574627Y-65066744D01*
X159748662Y-64958986D01*
X159899932Y-64821085D01*
X160023288Y-64657735D01*
X160114528Y-64474501D01*
X160170545Y-64277621D01*
X160189432Y-64073800D01*
X160510967Y-64073800D01*
X160529854Y-64277619D01*
X160585872Y-64474502D01*
X160677110Y-64657733D01*
X160677112Y-64657735D01*
X160800468Y-64821085D01*
X160951738Y-64958986D01*
X161125773Y-65066744D01*
X161316644Y-65140688D01*
X161517853Y-65178300D01*
X161517855Y-65178300D01*
X161722545Y-65178300D01*
X161722547Y-65178300D01*
X161923756Y-65140688D01*
X162114627Y-65066744D01*
X162288662Y-64958986D01*
X162439932Y-64821085D01*
X162563288Y-64657735D01*
X162654528Y-64474501D01*
X162710545Y-64277621D01*
X162729432Y-64073800D01*
X162710545Y-63869979D01*
X162654528Y-63673099D01*
X162653785Y-63671607D01*
X162563289Y-63489866D01*
X162464036Y-63358434D01*
X162439932Y-63326515D01*
X162288662Y-63188614D01*
X162211979Y-63141134D01*
X162114628Y-63080856D01*
X162019191Y-63043884D01*
X161923756Y-63006912D01*
X161722547Y-62969300D01*
X161517853Y-62969300D01*
X161316643Y-63006912D01*
X161316644Y-63006912D01*
X161125771Y-63080856D01*
X160951739Y-63188613D01*
X160800467Y-63326516D01*
X160677110Y-63489866D01*
X160585872Y-63673097D01*
X160529854Y-63869980D01*
X160510967Y-64073800D01*
X160189432Y-64073800D01*
X160170545Y-63869979D01*
X160114528Y-63673099D01*
X160113785Y-63671607D01*
X160023289Y-63489866D01*
X159924036Y-63358434D01*
X159899932Y-63326515D01*
X159748662Y-63188614D01*
X159671979Y-63141134D01*
X159574628Y-63080856D01*
X159479191Y-63043884D01*
X159383756Y-63006912D01*
X159182547Y-62969300D01*
X158977853Y-62969300D01*
X158776643Y-63006912D01*
X158776644Y-63006912D01*
X158585771Y-63080856D01*
X158411739Y-63188613D01*
X158260467Y-63326516D01*
X158137110Y-63489866D01*
X158045872Y-63673097D01*
X157989854Y-63869980D01*
X157970967Y-64073800D01*
X137949385Y-64073800D01*
X137864729Y-63998801D01*
X137723993Y-63924937D01*
X137569671Y-63886900D01*
X137410729Y-63886900D01*
X137256407Y-63924937D01*
X137256406Y-63924937D01*
X137256404Y-63924938D01*
X137115672Y-63998800D01*
X136996701Y-64104199D01*
X136906412Y-64235005D01*
X136850050Y-64383619D01*
X136830893Y-64541400D01*
X134533455Y-64541400D01*
X134523549Y-64459818D01*
X134467187Y-64311205D01*
X134376898Y-64180399D01*
X134257929Y-64075001D01*
X134117193Y-64001137D01*
X133962871Y-63963100D01*
X133803929Y-63963100D01*
X133649607Y-64001137D01*
X133649606Y-64001137D01*
X133649604Y-64001138D01*
X133508872Y-64075000D01*
X133389901Y-64180399D01*
X133299612Y-64311205D01*
X133243250Y-64459819D01*
X133224093Y-64617600D01*
X116863273Y-64617600D01*
X116934528Y-64474501D01*
X116990545Y-64277621D01*
X117009432Y-64073800D01*
X116990545Y-63869979D01*
X116934528Y-63673099D01*
X116933785Y-63671607D01*
X116843289Y-63489866D01*
X116744036Y-63358434D01*
X116719932Y-63326515D01*
X116568662Y-63188614D01*
X116491979Y-63141134D01*
X116394628Y-63080856D01*
X116299191Y-63043884D01*
X116203756Y-63006912D01*
X116002547Y-62969300D01*
X115797853Y-62969300D01*
X115596644Y-63006912D01*
X115405771Y-63080856D01*
X115231739Y-63188613D01*
X115080467Y-63326516D01*
X114957110Y-63489866D01*
X114865872Y-63673097D01*
X114809854Y-63869980D01*
X114790967Y-64073800D01*
X114469432Y-64073800D01*
X114450545Y-63869979D01*
X114394528Y-63673099D01*
X114393785Y-63671607D01*
X114303289Y-63489866D01*
X114204036Y-63358434D01*
X114179932Y-63326515D01*
X114028662Y-63188614D01*
X113951979Y-63141134D01*
X113854628Y-63080856D01*
X113759191Y-63043884D01*
X113663756Y-63006912D01*
X113462547Y-62969300D01*
X113257853Y-62969300D01*
X113056644Y-63006912D01*
X112865771Y-63080856D01*
X112691739Y-63188613D01*
X112540467Y-63326516D01*
X112417110Y-63489866D01*
X112325872Y-63673097D01*
X112269854Y-63869980D01*
X112250967Y-64073800D01*
X111700397Y-64073800D01*
X111700397Y-62703933D01*
X133939287Y-62703933D01*
X133958444Y-62861714D01*
X134014806Y-63010328D01*
X134014807Y-63010329D01*
X134105096Y-63141135D01*
X134224065Y-63246533D01*
X134364801Y-63320397D01*
X134519123Y-63358434D01*
X134519125Y-63358434D01*
X134678063Y-63358434D01*
X134678065Y-63358434D01*
X134832387Y-63320397D01*
X134973123Y-63246533D01*
X135092092Y-63141135D01*
X135182381Y-63010329D01*
X135238743Y-62861716D01*
X135257901Y-62703934D01*
X135238743Y-62546152D01*
X135182381Y-62397539D01*
X135092092Y-62266733D01*
X135092091Y-62266732D01*
X135083401Y-62254142D01*
X135086233Y-62252186D01*
X135061715Y-62213089D01*
X135062502Y-62142097D01*
X135086010Y-62105527D01*
X135083401Y-62103726D01*
X135092092Y-62091135D01*
X135182381Y-61960329D01*
X135238743Y-61811716D01*
X135257901Y-61653934D01*
X135243314Y-61533799D01*
X157970967Y-61533799D01*
X157989854Y-61737619D01*
X158045872Y-61934502D01*
X158137110Y-62117733D01*
X158137112Y-62117735D01*
X158260468Y-62281085D01*
X158411738Y-62418986D01*
X158585773Y-62526744D01*
X158776644Y-62600688D01*
X158977853Y-62638300D01*
X158977855Y-62638300D01*
X159182545Y-62638300D01*
X159182547Y-62638300D01*
X159383756Y-62600688D01*
X159574627Y-62526744D01*
X159748662Y-62418986D01*
X159899932Y-62281085D01*
X160023288Y-62117735D01*
X160114528Y-61934501D01*
X160170545Y-61737621D01*
X160189432Y-61533800D01*
X160189432Y-61533799D01*
X160510967Y-61533799D01*
X160529854Y-61737619D01*
X160585872Y-61934502D01*
X160677110Y-62117733D01*
X160677112Y-62117735D01*
X160800468Y-62281085D01*
X160951738Y-62418986D01*
X161125773Y-62526744D01*
X161316644Y-62600688D01*
X161517853Y-62638300D01*
X161517855Y-62638300D01*
X161722545Y-62638300D01*
X161722547Y-62638300D01*
X161923756Y-62600688D01*
X162114627Y-62526744D01*
X162288662Y-62418986D01*
X162439932Y-62281085D01*
X162563288Y-62117735D01*
X162654528Y-61934501D01*
X162710545Y-61737621D01*
X162729432Y-61533800D01*
X162725943Y-61496153D01*
X162712172Y-61347539D01*
X162710545Y-61329979D01*
X162654528Y-61133099D01*
X162653785Y-61131607D01*
X162563289Y-60949866D01*
X162498281Y-60863782D01*
X162439932Y-60786515D01*
X162288662Y-60648614D01*
X162240287Y-60618661D01*
X162114628Y-60540856D01*
X162019191Y-60503884D01*
X161923756Y-60466912D01*
X161722547Y-60429300D01*
X161517853Y-60429300D01*
X161316643Y-60466912D01*
X161316644Y-60466912D01*
X161125771Y-60540856D01*
X160951739Y-60648613D01*
X160800467Y-60786516D01*
X160677110Y-60949866D01*
X160585872Y-61133097D01*
X160529854Y-61329980D01*
X160510967Y-61533799D01*
X160189432Y-61533799D01*
X160185943Y-61496153D01*
X160172172Y-61347539D01*
X160170545Y-61329979D01*
X160114528Y-61133099D01*
X160113785Y-61131607D01*
X160023289Y-60949866D01*
X159958281Y-60863782D01*
X159899932Y-60786515D01*
X159748662Y-60648614D01*
X159700287Y-60618661D01*
X159574628Y-60540856D01*
X159479191Y-60503884D01*
X159383756Y-60466912D01*
X159182547Y-60429300D01*
X158977853Y-60429300D01*
X158776644Y-60466912D01*
X158585771Y-60540856D01*
X158411739Y-60648613D01*
X158260467Y-60786516D01*
X158137110Y-60949866D01*
X158045872Y-61133097D01*
X157989854Y-61329980D01*
X157970967Y-61533799D01*
X135243314Y-61533799D01*
X135238743Y-61496152D01*
X135182381Y-61347539D01*
X135092092Y-61216733D01*
X134973123Y-61111335D01*
X134832387Y-61037471D01*
X134678065Y-60999434D01*
X134519123Y-60999434D01*
X134364801Y-61037471D01*
X134364800Y-61037471D01*
X134364798Y-61037472D01*
X134224066Y-61111334D01*
X134105095Y-61216733D01*
X134014806Y-61347539D01*
X133958444Y-61496153D01*
X133939287Y-61653933D01*
X133958444Y-61811714D01*
X134014806Y-61960328D01*
X134113787Y-62103726D01*
X134110953Y-62105681D01*
X134135472Y-62144776D01*
X134134686Y-62215768D01*
X134111180Y-62252342D01*
X134113787Y-62254142D01*
X134014806Y-62397539D01*
X133958444Y-62546153D01*
X133939287Y-62703933D01*
X111700397Y-62703933D01*
X111700397Y-61533799D01*
X112250967Y-61533799D01*
X112269854Y-61737619D01*
X112325872Y-61934502D01*
X112417110Y-62117733D01*
X112417112Y-62117735D01*
X112540468Y-62281085D01*
X112691738Y-62418986D01*
X112865773Y-62526744D01*
X113056644Y-62600688D01*
X113257853Y-62638300D01*
X113257855Y-62638300D01*
X113462545Y-62638300D01*
X113462547Y-62638300D01*
X113663756Y-62600688D01*
X113854627Y-62526744D01*
X114028662Y-62418986D01*
X114179932Y-62281085D01*
X114303288Y-62117735D01*
X114394528Y-61934501D01*
X114450545Y-61737621D01*
X114469432Y-61533800D01*
X114469432Y-61533799D01*
X114790967Y-61533799D01*
X114809854Y-61737619D01*
X114865872Y-61934502D01*
X114957110Y-62117733D01*
X114957112Y-62117735D01*
X115080468Y-62281085D01*
X115231738Y-62418986D01*
X115405773Y-62526744D01*
X115596644Y-62600688D01*
X115797853Y-62638300D01*
X115797855Y-62638300D01*
X116002545Y-62638300D01*
X116002547Y-62638300D01*
X116203756Y-62600688D01*
X116394627Y-62526744D01*
X116568662Y-62418986D01*
X116719932Y-62281085D01*
X116843288Y-62117735D01*
X116934528Y-61934501D01*
X116990545Y-61737621D01*
X117009432Y-61533800D01*
X117005943Y-61496153D01*
X116992172Y-61347539D01*
X116990545Y-61329979D01*
X116934528Y-61133099D01*
X116933785Y-61131607D01*
X116843289Y-60949866D01*
X116778281Y-60863782D01*
X116719932Y-60786515D01*
X116603749Y-60680600D01*
X125654893Y-60680600D01*
X125674050Y-60838380D01*
X125730412Y-60986994D01*
X125747945Y-61012394D01*
X125820702Y-61117801D01*
X125939671Y-61223199D01*
X126080407Y-61297063D01*
X126234729Y-61335100D01*
X126234731Y-61335100D01*
X126393669Y-61335100D01*
X126393671Y-61335100D01*
X126547993Y-61297063D01*
X126688729Y-61223199D01*
X126807698Y-61117801D01*
X126897987Y-60986995D01*
X126954349Y-60838382D01*
X126970423Y-60706000D01*
X136680493Y-60706000D01*
X136699650Y-60863780D01*
X136756012Y-61012394D01*
X136839328Y-61133097D01*
X136846302Y-61143201D01*
X136965271Y-61248599D01*
X137106007Y-61322463D01*
X137260329Y-61360500D01*
X137260331Y-61360500D01*
X137419269Y-61360500D01*
X137419271Y-61360500D01*
X137573593Y-61322463D01*
X137714329Y-61248599D01*
X137781249Y-61189312D01*
X137845498Y-61159113D01*
X137915879Y-61168444D01*
X137948348Y-61189310D01*
X138015271Y-61248599D01*
X138156007Y-61322463D01*
X138310329Y-61360500D01*
X138310331Y-61360500D01*
X138469269Y-61360500D01*
X138469271Y-61360500D01*
X138623593Y-61322463D01*
X138764329Y-61248599D01*
X138883298Y-61143201D01*
X138973587Y-61012395D01*
X139029949Y-60863782D01*
X139049107Y-60706000D01*
X139029949Y-60548218D01*
X138973587Y-60399605D01*
X138883298Y-60268799D01*
X138803383Y-60198000D01*
X143638093Y-60198000D01*
X143657250Y-60355780D01*
X143713612Y-60504394D01*
X143743863Y-60548219D01*
X143803902Y-60635201D01*
X143922871Y-60740599D01*
X144063607Y-60814463D01*
X144217929Y-60852500D01*
X144217931Y-60852500D01*
X144376869Y-60852500D01*
X144376871Y-60852500D01*
X144531193Y-60814463D01*
X144671929Y-60740599D01*
X144790898Y-60635201D01*
X144881187Y-60504395D01*
X144937549Y-60355782D01*
X144956707Y-60198000D01*
X144937549Y-60040218D01*
X144881187Y-59891605D01*
X144881187Y-59891604D01*
X144865493Y-59868868D01*
X157975700Y-59868868D01*
X157990465Y-59943100D01*
X158046715Y-60027284D01*
X158082957Y-60051500D01*
X158130899Y-60083534D01*
X158205133Y-60098300D01*
X159955266Y-60098299D01*
X159955268Y-60098299D01*
X160004755Y-60088455D01*
X160029501Y-60083534D01*
X160113684Y-60027284D01*
X160169934Y-59943101D01*
X160184700Y-59868867D01*
X160184699Y-58818799D01*
X160582354Y-58818799D01*
X160582355Y-58818800D01*
X161150476Y-58818800D01*
X161120200Y-58921911D01*
X161120200Y-59065689D01*
X161150476Y-59168800D01*
X160582355Y-59168800D01*
X160585391Y-59199636D01*
X160645431Y-59397560D01*
X160742931Y-59579972D01*
X160874144Y-59739855D01*
X161034027Y-59871068D01*
X161216439Y-59968568D01*
X161414363Y-60028608D01*
X161445199Y-60031645D01*
X161445200Y-60031644D01*
X161445200Y-59463553D01*
X161477885Y-59478480D01*
X161584437Y-59493800D01*
X161655963Y-59493800D01*
X161762515Y-59478480D01*
X161795200Y-59463553D01*
X161795200Y-60031645D01*
X161826036Y-60028608D01*
X162023960Y-59968568D01*
X162206372Y-59871068D01*
X162366255Y-59739855D01*
X162497468Y-59579972D01*
X162594968Y-59397560D01*
X162655008Y-59199636D01*
X162658045Y-59168800D01*
X162089924Y-59168800D01*
X162120200Y-59065689D01*
X162120200Y-58921911D01*
X162089924Y-58818800D01*
X162658045Y-58818800D01*
X162658045Y-58818799D01*
X162655008Y-58787963D01*
X162594968Y-58590039D01*
X162497468Y-58407627D01*
X162366255Y-58247744D01*
X162206372Y-58116531D01*
X162023964Y-58019033D01*
X161826033Y-57958992D01*
X161795200Y-57955954D01*
X161795200Y-58524046D01*
X161762515Y-58509120D01*
X161655963Y-58493800D01*
X161584437Y-58493800D01*
X161477885Y-58509120D01*
X161445200Y-58524046D01*
X161445200Y-57955954D01*
X161414366Y-57958992D01*
X161216435Y-58019033D01*
X161034027Y-58116531D01*
X160874144Y-58247744D01*
X160742931Y-58407627D01*
X160645431Y-58590039D01*
X160585391Y-58787963D01*
X160582354Y-58818799D01*
X160184699Y-58818799D01*
X160184699Y-58118734D01*
X160184699Y-58118733D01*
X160184699Y-58118731D01*
X160169934Y-58044499D01*
X160113684Y-57960315D01*
X160029501Y-57904066D01*
X160029496Y-57904065D01*
X159955267Y-57889300D01*
X159955266Y-57889300D01*
X158205131Y-57889300D01*
X158130899Y-57904065D01*
X158046715Y-57960315D01*
X157990466Y-58044498D01*
X157975700Y-58118733D01*
X157975700Y-59868868D01*
X144865493Y-59868868D01*
X144855459Y-59854332D01*
X144826498Y-59812374D01*
X144804262Y-59744953D01*
X144822009Y-59676210D01*
X144826488Y-59669239D01*
X144881187Y-59589995D01*
X144937549Y-59441382D01*
X144956707Y-59283600D01*
X144937549Y-59125818D01*
X144881187Y-58977205D01*
X144790898Y-58846399D01*
X144671929Y-58741001D01*
X144531193Y-58667137D01*
X144376871Y-58629100D01*
X144217929Y-58629100D01*
X144063607Y-58667137D01*
X144063606Y-58667137D01*
X144063604Y-58667138D01*
X143922872Y-58741000D01*
X143803901Y-58846399D01*
X143713612Y-58977205D01*
X143657250Y-59125819D01*
X143638093Y-59283600D01*
X143657250Y-59441380D01*
X143713612Y-59589994D01*
X143768300Y-59669224D01*
X143790536Y-59736649D01*
X143772788Y-59805392D01*
X143768300Y-59812376D01*
X143713612Y-59891605D01*
X143657250Y-60040219D01*
X143638093Y-60198000D01*
X138803383Y-60198000D01*
X138764329Y-60163401D01*
X138693961Y-60126469D01*
X138623595Y-60089538D01*
X138623594Y-60089537D01*
X138623593Y-60089537D01*
X138469271Y-60051500D01*
X138310329Y-60051500D01*
X138156007Y-60089537D01*
X138156006Y-60089537D01*
X138156004Y-60089538D01*
X138015272Y-60163400D01*
X137948354Y-60222685D01*
X137884101Y-60252886D01*
X137813720Y-60243555D01*
X137781246Y-60222685D01*
X137714329Y-60163401D01*
X137643961Y-60126469D01*
X137573595Y-60089538D01*
X137573594Y-60089537D01*
X137573593Y-60089537D01*
X137419271Y-60051500D01*
X137260329Y-60051500D01*
X137106007Y-60089537D01*
X137106006Y-60089537D01*
X137106004Y-60089538D01*
X136965272Y-60163400D01*
X136846301Y-60268799D01*
X136756012Y-60399605D01*
X136699650Y-60548219D01*
X136680493Y-60706000D01*
X126970423Y-60706000D01*
X126973507Y-60680600D01*
X126954349Y-60522818D01*
X126897987Y-60374205D01*
X126807698Y-60243399D01*
X126688729Y-60138001D01*
X126547993Y-60064137D01*
X126393671Y-60026100D01*
X126234729Y-60026100D01*
X126080407Y-60064137D01*
X126080406Y-60064137D01*
X126080404Y-60064138D01*
X125939672Y-60138000D01*
X125820701Y-60243399D01*
X125730412Y-60374205D01*
X125674050Y-60522819D01*
X125654893Y-60680600D01*
X116603749Y-60680600D01*
X116568662Y-60648614D01*
X116520287Y-60618661D01*
X116394628Y-60540856D01*
X116299191Y-60503884D01*
X116203756Y-60466912D01*
X116002547Y-60429300D01*
X115797853Y-60429300D01*
X115596643Y-60466912D01*
X115596644Y-60466912D01*
X115405771Y-60540856D01*
X115231739Y-60648613D01*
X115080467Y-60786516D01*
X114957110Y-60949866D01*
X114865872Y-61133097D01*
X114809854Y-61329980D01*
X114790967Y-61533799D01*
X114469432Y-61533799D01*
X114465943Y-61496153D01*
X114452172Y-61347539D01*
X114450545Y-61329979D01*
X114394528Y-61133099D01*
X114393785Y-61131607D01*
X114303289Y-60949866D01*
X114238281Y-60863782D01*
X114179932Y-60786515D01*
X114028662Y-60648614D01*
X113980287Y-60618661D01*
X113854628Y-60540856D01*
X113759191Y-60503884D01*
X113663756Y-60466912D01*
X113462547Y-60429300D01*
X113257853Y-60429300D01*
X113056644Y-60466912D01*
X112865771Y-60540856D01*
X112691739Y-60648613D01*
X112540467Y-60786516D01*
X112417110Y-60949866D01*
X112325872Y-61133097D01*
X112269854Y-61329980D01*
X112250967Y-61533799D01*
X111700397Y-61533799D01*
X111700397Y-59863497D01*
X112310199Y-59863497D01*
X112321804Y-59921836D01*
X112366007Y-59987992D01*
X112432163Y-60032195D01*
X112490503Y-60043800D01*
X113185200Y-60043800D01*
X113185200Y-59463553D01*
X113217885Y-59478480D01*
X113324437Y-59493800D01*
X113395963Y-59493800D01*
X113502515Y-59478480D01*
X113535200Y-59463553D01*
X113535200Y-60043800D01*
X114229897Y-60043800D01*
X114288236Y-60032195D01*
X114354392Y-59987992D01*
X114398595Y-59921836D01*
X114410200Y-59863497D01*
X114410200Y-59168800D01*
X113829924Y-59168800D01*
X113860200Y-59065689D01*
X113860200Y-58921911D01*
X113829924Y-58818800D01*
X114410200Y-58818800D01*
X114410200Y-58818799D01*
X114862354Y-58818799D01*
X114862355Y-58818800D01*
X115430476Y-58818800D01*
X115400200Y-58921911D01*
X115400200Y-59065689D01*
X115430476Y-59168800D01*
X114862355Y-59168800D01*
X114865391Y-59199636D01*
X114925431Y-59397560D01*
X115022931Y-59579972D01*
X115154144Y-59739855D01*
X115314027Y-59871068D01*
X115496439Y-59968568D01*
X115694363Y-60028608D01*
X115725199Y-60031645D01*
X115725199Y-60031644D01*
X115725199Y-59463552D01*
X115757885Y-59478480D01*
X115864437Y-59493800D01*
X115935963Y-59493800D01*
X116042515Y-59478480D01*
X116075199Y-59463553D01*
X116075199Y-60031645D01*
X116106036Y-60028608D01*
X116303960Y-59968568D01*
X116486372Y-59871068D01*
X116646255Y-59739855D01*
X116777468Y-59579972D01*
X116874968Y-59397560D01*
X116935008Y-59199636D01*
X116938045Y-59168800D01*
X116369924Y-59168800D01*
X116400200Y-59065689D01*
X116400200Y-58921911D01*
X116369924Y-58818800D01*
X116938045Y-58818800D01*
X116938045Y-58818799D01*
X116935008Y-58787963D01*
X116874968Y-58590039D01*
X116777468Y-58407627D01*
X116646255Y-58247744D01*
X116486372Y-58116531D01*
X116303964Y-58019033D01*
X116106033Y-57958992D01*
X116075199Y-57955954D01*
X116075199Y-58524046D01*
X116042515Y-58509120D01*
X115935963Y-58493800D01*
X115864437Y-58493800D01*
X115757885Y-58509120D01*
X115725200Y-58524046D01*
X115725200Y-57955954D01*
X115694366Y-57958992D01*
X115496435Y-58019033D01*
X115314027Y-58116531D01*
X115154144Y-58247744D01*
X115022931Y-58407627D01*
X114925431Y-58590039D01*
X114865391Y-58787963D01*
X114862354Y-58818799D01*
X114410200Y-58818799D01*
X114410200Y-58124102D01*
X114398595Y-58065763D01*
X114354392Y-57999607D01*
X114288236Y-57955404D01*
X114229897Y-57943800D01*
X113535200Y-57943800D01*
X113535200Y-58524046D01*
X113502515Y-58509120D01*
X113395963Y-58493800D01*
X113324437Y-58493800D01*
X113217885Y-58509120D01*
X113185200Y-58524046D01*
X113185200Y-57943800D01*
X112490503Y-57943800D01*
X112432163Y-57955404D01*
X112366007Y-57999607D01*
X112321804Y-58065763D01*
X112310199Y-58124102D01*
X112310200Y-58818800D01*
X112890476Y-58818800D01*
X112860200Y-58921911D01*
X112860200Y-59065689D01*
X112890476Y-59168800D01*
X112310200Y-59168800D01*
X112310199Y-59863497D01*
X111700397Y-59863497D01*
X111700397Y-53917212D01*
X112495391Y-53917212D01*
X112514980Y-54278525D01*
X112515719Y-54285322D01*
X112574259Y-54642399D01*
X112575727Y-54649067D01*
X112672534Y-54997733D01*
X112674709Y-55004189D01*
X112808649Y-55340352D01*
X112811505Y-55346528D01*
X112981009Y-55666247D01*
X112984517Y-55672076D01*
X113187592Y-55971589D01*
X113191721Y-55977020D01*
X113374411Y-56192100D01*
X113949475Y-55617035D01*
X113967649Y-55708401D01*
X114022904Y-55791096D01*
X114105599Y-55846351D01*
X114178520Y-55860856D01*
X114200629Y-55860856D01*
X113622249Y-56439235D01*
X113693380Y-56506613D01*
X113698567Y-56511019D01*
X113986637Y-56730005D01*
X113992293Y-56733840D01*
X114302352Y-56920396D01*
X114308361Y-56923582D01*
X114636782Y-57075526D01*
X114643124Y-57078052D01*
X114986031Y-57193591D01*
X114992603Y-57195416D01*
X115346001Y-57273204D01*
X115352725Y-57274306D01*
X115712458Y-57313430D01*
X115719272Y-57313800D01*
X116081128Y-57313800D01*
X116087941Y-57313430D01*
X116447674Y-57274306D01*
X116454398Y-57273204D01*
X116807796Y-57195416D01*
X116814368Y-57193591D01*
X117157275Y-57078052D01*
X117163617Y-57075526D01*
X117492038Y-56923582D01*
X117498047Y-56920396D01*
X117749671Y-56768999D01*
X122530693Y-56768999D01*
X122549850Y-56926780D01*
X122606212Y-57075394D01*
X122689058Y-57195416D01*
X122696502Y-57206201D01*
X122815471Y-57311599D01*
X122956207Y-57385463D01*
X123110529Y-57423500D01*
X123110531Y-57423500D01*
X123269469Y-57423500D01*
X123269471Y-57423500D01*
X123423793Y-57385463D01*
X123564529Y-57311599D01*
X123683498Y-57206201D01*
X123773787Y-57075395D01*
X123830149Y-56926782D01*
X123849307Y-56769000D01*
X123849307Y-56768999D01*
X126391493Y-56768999D01*
X126410650Y-56926780D01*
X126467012Y-57075394D01*
X126549858Y-57195416D01*
X126557302Y-57206201D01*
X126676271Y-57311599D01*
X126817007Y-57385463D01*
X126971329Y-57423500D01*
X126971331Y-57423500D01*
X127130269Y-57423500D01*
X127130271Y-57423500D01*
X127284593Y-57385463D01*
X127425329Y-57311599D01*
X127544298Y-57206201D01*
X127634587Y-57075395D01*
X127690949Y-56926782D01*
X127710107Y-56769000D01*
X127690949Y-56611218D01*
X127634587Y-56462605D01*
X127544298Y-56331799D01*
X127425329Y-56226401D01*
X127284593Y-56152537D01*
X127130271Y-56114500D01*
X126971329Y-56114500D01*
X126817007Y-56152537D01*
X126817006Y-56152537D01*
X126817004Y-56152538D01*
X126676272Y-56226400D01*
X126557301Y-56331799D01*
X126467012Y-56462605D01*
X126410650Y-56611219D01*
X126391493Y-56768999D01*
X123849307Y-56768999D01*
X123830149Y-56611218D01*
X123773787Y-56462605D01*
X123683498Y-56331799D01*
X123564529Y-56226401D01*
X123423793Y-56152537D01*
X123269471Y-56114500D01*
X123110529Y-56114500D01*
X122956207Y-56152537D01*
X122956206Y-56152537D01*
X122956204Y-56152538D01*
X122815472Y-56226400D01*
X122696501Y-56331799D01*
X122606212Y-56462605D01*
X122549850Y-56611219D01*
X122530693Y-56768999D01*
X117749671Y-56768999D01*
X117808106Y-56733840D01*
X117813762Y-56730005D01*
X118101826Y-56511024D01*
X118107029Y-56506604D01*
X118178149Y-56439235D01*
X117599770Y-55860856D01*
X117621880Y-55860856D01*
X117694801Y-55846351D01*
X117777496Y-55791096D01*
X117832751Y-55708401D01*
X117850924Y-55617038D01*
X118425986Y-56192100D01*
X118608679Y-55977020D01*
X118612807Y-55971589D01*
X118815882Y-55672076D01*
X118819390Y-55666247D01*
X118988894Y-55346528D01*
X118991750Y-55340352D01*
X119125690Y-55004189D01*
X119127865Y-54997733D01*
X119224672Y-54649067D01*
X119226140Y-54642399D01*
X119284680Y-54285322D01*
X119285419Y-54278525D01*
X119305009Y-53917212D01*
X119305009Y-53910387D01*
X119285419Y-53549074D01*
X119284680Y-53542277D01*
X119226140Y-53185200D01*
X119224672Y-53178532D01*
X119127865Y-52829866D01*
X119125690Y-52823410D01*
X119098752Y-52755800D01*
X127051893Y-52755800D01*
X127071050Y-52913580D01*
X127127412Y-53062194D01*
X127207715Y-53178532D01*
X127217702Y-53193001D01*
X127336671Y-53298399D01*
X127477407Y-53372263D01*
X127631729Y-53410300D01*
X127631731Y-53410300D01*
X127790669Y-53410300D01*
X127790671Y-53410300D01*
X127944993Y-53372263D01*
X128085729Y-53298399D01*
X128204698Y-53193001D01*
X128294987Y-53062195D01*
X128351349Y-52913582D01*
X128370507Y-52755800D01*
X128351349Y-52598018D01*
X128294987Y-52449405D01*
X128204698Y-52318599D01*
X128085729Y-52213201D01*
X127944993Y-52139337D01*
X127790671Y-52101300D01*
X127631729Y-52101300D01*
X127477407Y-52139337D01*
X127477406Y-52139337D01*
X127477404Y-52139338D01*
X127336672Y-52213200D01*
X127217701Y-52318599D01*
X127127412Y-52449405D01*
X127071050Y-52598019D01*
X127051893Y-52755800D01*
X119098752Y-52755800D01*
X118991750Y-52487247D01*
X118988894Y-52481071D01*
X118819390Y-52161352D01*
X118815882Y-52155523D01*
X118612807Y-51856010D01*
X118608678Y-51850579D01*
X118425987Y-51635498D01*
X117850924Y-52210561D01*
X117832751Y-52119199D01*
X117777496Y-52036504D01*
X117694801Y-51981249D01*
X117621880Y-51966744D01*
X117599768Y-51966744D01*
X118178149Y-51388363D01*
X118107019Y-51320986D01*
X118101832Y-51316580D01*
X117813762Y-51097594D01*
X117808106Y-51093759D01*
X117498047Y-50907203D01*
X117492038Y-50904017D01*
X117163617Y-50752073D01*
X117157275Y-50749547D01*
X116814368Y-50634008D01*
X116807796Y-50632183D01*
X116454398Y-50554395D01*
X116447674Y-50553293D01*
X116087941Y-50514169D01*
X116081128Y-50513800D01*
X115719272Y-50513800D01*
X115712458Y-50514169D01*
X115352725Y-50553293D01*
X115346001Y-50554395D01*
X114992603Y-50632183D01*
X114986031Y-50634008D01*
X114643124Y-50749547D01*
X114636782Y-50752073D01*
X114308361Y-50904017D01*
X114302352Y-50907203D01*
X113992293Y-51093759D01*
X113986637Y-51097594D01*
X113698563Y-51316583D01*
X113693389Y-51320978D01*
X113622249Y-51388363D01*
X114200630Y-51966744D01*
X114178520Y-51966744D01*
X114105599Y-51981249D01*
X114022904Y-52036504D01*
X113967649Y-52119199D01*
X113949475Y-52210561D01*
X113374412Y-51635498D01*
X113191712Y-51850590D01*
X113187592Y-51856010D01*
X112984517Y-52155523D01*
X112981009Y-52161352D01*
X112811505Y-52481071D01*
X112808649Y-52487247D01*
X112674709Y-52823410D01*
X112672534Y-52829866D01*
X112575727Y-53178532D01*
X112574259Y-53185200D01*
X112515719Y-53542277D01*
X112514980Y-53549074D01*
X112495391Y-53910387D01*
X112495391Y-53917212D01*
X111700397Y-53917212D01*
X111700397Y-53916675D01*
X111700528Y-53910945D01*
X111708391Y-53740874D01*
X111717441Y-53556669D01*
X111717893Y-53550535D01*
X111724764Y-53480770D01*
X111725349Y-53475845D01*
X111746387Y-53325028D01*
X111750338Y-53298399D01*
X111772592Y-53148372D01*
X111773644Y-53142316D01*
X111783055Y-53095001D01*
X111783937Y-53090936D01*
X111822031Y-52928970D01*
X111867495Y-52747474D01*
X111869127Y-52741578D01*
X111875621Y-52720169D01*
X111876663Y-52716905D01*
X111934220Y-52545179D01*
X111935027Y-52542849D01*
X112000059Y-52361096D01*
X112003423Y-52352665D01*
X112082539Y-52173487D01*
X112083848Y-52170624D01*
X112166041Y-51996840D01*
X112169843Y-51989447D01*
X112265377Y-51817932D01*
X112267322Y-51814566D01*
X112365926Y-51650056D01*
X112370022Y-51643669D01*
X112481126Y-51481476D01*
X112483812Y-51477711D01*
X112597909Y-51323869D01*
X112602141Y-51318477D01*
X112727790Y-51167164D01*
X112731346Y-51163067D01*
X112794163Y-51093759D01*
X112859894Y-51021235D01*
X112864099Y-51016819D01*
X113003219Y-50877699D01*
X113007635Y-50873494D01*
X113111587Y-50779277D01*
X113149467Y-50744946D01*
X113153564Y-50741390D01*
X113304877Y-50615741D01*
X113310281Y-50611500D01*
X113388764Y-50553293D01*
X113464118Y-50497405D01*
X113467875Y-50494727D01*
X113630069Y-50383622D01*
X113636461Y-50379523D01*
X113800975Y-50280916D01*
X113804331Y-50278977D01*
X113975847Y-50183443D01*
X113983245Y-50179639D01*
X114157035Y-50097442D01*
X114159885Y-50096139D01*
X114339065Y-50017023D01*
X114347496Y-50013659D01*
X114461214Y-49972970D01*
X114529283Y-49948615D01*
X114531578Y-49947820D01*
X114703304Y-49890263D01*
X114706558Y-49889225D01*
X114727982Y-49882725D01*
X114733909Y-49881086D01*
X114814629Y-49860866D01*
X114915353Y-49835635D01*
X115077331Y-49797538D01*
X115081397Y-49796656D01*
X115128750Y-49787237D01*
X115134786Y-49786190D01*
X115311458Y-49759983D01*
X115462233Y-49738951D01*
X115467155Y-49738366D01*
X115536935Y-49731493D01*
X115543065Y-49731041D01*
X115727201Y-49721995D01*
X115897301Y-49714131D01*
X115903120Y-49713997D01*
X131674600Y-49713997D01*
X131742721Y-49733999D01*
G37*
%TD.AperFunction*%
%TD*%
M02*
