%TF.GenerationSoftware,KiCad,Pcbnew,7.0.2-6a45011f42~172~ubuntu20.04.1*%
%TF.CreationDate,2023-04-23T14:30:36+07:00*%
%TF.ProjectId,EZ-USB-100X,455a2d55-5342-42d3-9130-30582e6b6963,rev?*%
%TF.SameCoordinates,Original*%
%TF.FileFunction,Legend,Bot*%
%TF.FilePolarity,Positive*%
%FSLAX46Y46*%
G04 Gerber Fmt 4.6, Leading zero omitted, Abs format (unit mm)*
G04 Created by KiCad (PCBNEW 7.0.2-6a45011f42~172~ubuntu20.04.1) date 2023-04-23 14:30:36*
%MOMM*%
%LPD*%
G01*
G04 APERTURE LIST*
%ADD10C,0.150000*%
G04 APERTURE END LIST*
D10*
X123989807Y-67019695D02*
X123989807Y-66219695D01*
X123342189Y-66600647D02*
X123608855Y-66600647D01*
X123608855Y-67019695D02*
X123608855Y-66219695D01*
X123608855Y-66219695D02*
X123227903Y-66219695D01*
X122465998Y-66943504D02*
X122504094Y-66981600D01*
X122504094Y-66981600D02*
X122618379Y-67019695D01*
X122618379Y-67019695D02*
X122694570Y-67019695D01*
X122694570Y-67019695D02*
X122808856Y-66981600D01*
X122808856Y-66981600D02*
X122885046Y-66905409D01*
X122885046Y-66905409D02*
X122923141Y-66829219D01*
X122923141Y-66829219D02*
X122961237Y-66676838D01*
X122961237Y-66676838D02*
X122961237Y-66562552D01*
X122961237Y-66562552D02*
X122923141Y-66410171D01*
X122923141Y-66410171D02*
X122885046Y-66333980D01*
X122885046Y-66333980D02*
X122808856Y-66257790D01*
X122808856Y-66257790D02*
X122694570Y-66219695D01*
X122694570Y-66219695D02*
X122618379Y-66219695D01*
X122618379Y-66219695D02*
X122504094Y-66257790D01*
X122504094Y-66257790D02*
X122465998Y-66295885D01*
X121742189Y-67019695D02*
X122123141Y-67019695D01*
X122123141Y-67019695D02*
X122123141Y-66219695D01*
X121475522Y-67019695D02*
X121475522Y-66219695D01*
X121018379Y-67019695D02*
X121361237Y-66562552D01*
X121018379Y-66219695D02*
X121475522Y-66676838D01*
X118351322Y-94883504D02*
X118389418Y-94921600D01*
X118389418Y-94921600D02*
X118503703Y-94959695D01*
X118503703Y-94959695D02*
X118579894Y-94959695D01*
X118579894Y-94959695D02*
X118694180Y-94921600D01*
X118694180Y-94921600D02*
X118770370Y-94845409D01*
X118770370Y-94845409D02*
X118808465Y-94769219D01*
X118808465Y-94769219D02*
X118846561Y-94616838D01*
X118846561Y-94616838D02*
X118846561Y-94502552D01*
X118846561Y-94502552D02*
X118808465Y-94350171D01*
X118808465Y-94350171D02*
X118770370Y-94273980D01*
X118770370Y-94273980D02*
X118694180Y-94197790D01*
X118694180Y-94197790D02*
X118579894Y-94159695D01*
X118579894Y-94159695D02*
X118503703Y-94159695D01*
X118503703Y-94159695D02*
X118389418Y-94197790D01*
X118389418Y-94197790D02*
X118351322Y-94235885D01*
X117856084Y-94159695D02*
X117779894Y-94159695D01*
X117779894Y-94159695D02*
X117703703Y-94197790D01*
X117703703Y-94197790D02*
X117665608Y-94235885D01*
X117665608Y-94235885D02*
X117627513Y-94312076D01*
X117627513Y-94312076D02*
X117589418Y-94464457D01*
X117589418Y-94464457D02*
X117589418Y-94654933D01*
X117589418Y-94654933D02*
X117627513Y-94807314D01*
X117627513Y-94807314D02*
X117665608Y-94883504D01*
X117665608Y-94883504D02*
X117703703Y-94921600D01*
X117703703Y-94921600D02*
X117779894Y-94959695D01*
X117779894Y-94959695D02*
X117856084Y-94959695D01*
X117856084Y-94959695D02*
X117932275Y-94921600D01*
X117932275Y-94921600D02*
X117970370Y-94883504D01*
X117970370Y-94883504D02*
X118008465Y-94807314D01*
X118008465Y-94807314D02*
X118046561Y-94654933D01*
X118046561Y-94654933D02*
X118046561Y-94464457D01*
X118046561Y-94464457D02*
X118008465Y-94312076D01*
X118008465Y-94312076D02*
X117970370Y-94235885D01*
X117970370Y-94235885D02*
X117932275Y-94197790D01*
X117932275Y-94197790D02*
X117856084Y-94159695D01*
X123037428Y-92318104D02*
X123075524Y-92356200D01*
X123075524Y-92356200D02*
X123189809Y-92394295D01*
X123189809Y-92394295D02*
X123266000Y-92394295D01*
X123266000Y-92394295D02*
X123380286Y-92356200D01*
X123380286Y-92356200D02*
X123456476Y-92280009D01*
X123456476Y-92280009D02*
X123494571Y-92203819D01*
X123494571Y-92203819D02*
X123532667Y-92051438D01*
X123532667Y-92051438D02*
X123532667Y-91937152D01*
X123532667Y-91937152D02*
X123494571Y-91784771D01*
X123494571Y-91784771D02*
X123456476Y-91708580D01*
X123456476Y-91708580D02*
X123380286Y-91632390D01*
X123380286Y-91632390D02*
X123266000Y-91594295D01*
X123266000Y-91594295D02*
X123189809Y-91594295D01*
X123189809Y-91594295D02*
X123075524Y-91632390D01*
X123075524Y-91632390D02*
X123037428Y-91670485D01*
X122808857Y-91594295D02*
X122351714Y-91594295D01*
X122580286Y-92394295D02*
X122580286Y-91594295D01*
X121704095Y-92394295D02*
X122085047Y-92394295D01*
X122085047Y-92394295D02*
X122085047Y-91594295D01*
X121475524Y-91670485D02*
X121437428Y-91632390D01*
X121437428Y-91632390D02*
X121361238Y-91594295D01*
X121361238Y-91594295D02*
X121170762Y-91594295D01*
X121170762Y-91594295D02*
X121094571Y-91632390D01*
X121094571Y-91632390D02*
X121056476Y-91670485D01*
X121056476Y-91670485D02*
X121018381Y-91746676D01*
X121018381Y-91746676D02*
X121018381Y-91822866D01*
X121018381Y-91822866D02*
X121056476Y-91937152D01*
X121056476Y-91937152D02*
X121513619Y-92394295D01*
X121513619Y-92394295D02*
X121018381Y-92394295D01*
X153403189Y-61939695D02*
X153669856Y-61558742D01*
X153860332Y-61939695D02*
X153860332Y-61139695D01*
X153860332Y-61139695D02*
X153555570Y-61139695D01*
X153555570Y-61139695D02*
X153479380Y-61177790D01*
X153479380Y-61177790D02*
X153441285Y-61215885D01*
X153441285Y-61215885D02*
X153403189Y-61292076D01*
X153403189Y-61292076D02*
X153403189Y-61406361D01*
X153403189Y-61406361D02*
X153441285Y-61482552D01*
X153441285Y-61482552D02*
X153479380Y-61520647D01*
X153479380Y-61520647D02*
X153555570Y-61558742D01*
X153555570Y-61558742D02*
X153860332Y-61558742D01*
X153060332Y-61939695D02*
X153060332Y-61139695D01*
X153060332Y-61139695D02*
X152869856Y-61139695D01*
X152869856Y-61139695D02*
X152755570Y-61177790D01*
X152755570Y-61177790D02*
X152679380Y-61253980D01*
X152679380Y-61253980D02*
X152641285Y-61330171D01*
X152641285Y-61330171D02*
X152603189Y-61482552D01*
X152603189Y-61482552D02*
X152603189Y-61596838D01*
X152603189Y-61596838D02*
X152641285Y-61749219D01*
X152641285Y-61749219D02*
X152679380Y-61825409D01*
X152679380Y-61825409D02*
X152755570Y-61901600D01*
X152755570Y-61901600D02*
X152869856Y-61939695D01*
X152869856Y-61939695D02*
X153060332Y-61939695D01*
X152107951Y-61558742D02*
X152107951Y-61939695D01*
X152374618Y-61139695D02*
X152107951Y-61558742D01*
X152107951Y-61558742D02*
X151841285Y-61139695D01*
X151231761Y-61406361D02*
X151231761Y-61939695D01*
X151422237Y-61101600D02*
X151612714Y-61673028D01*
X151612714Y-61673028D02*
X151117475Y-61673028D01*
X156933789Y-64479695D02*
X157200456Y-64098742D01*
X157390932Y-64479695D02*
X157390932Y-63679695D01*
X157390932Y-63679695D02*
X157086170Y-63679695D01*
X157086170Y-63679695D02*
X157009980Y-63717790D01*
X157009980Y-63717790D02*
X156971885Y-63755885D01*
X156971885Y-63755885D02*
X156933789Y-63832076D01*
X156933789Y-63832076D02*
X156933789Y-63946361D01*
X156933789Y-63946361D02*
X156971885Y-64022552D01*
X156971885Y-64022552D02*
X157009980Y-64060647D01*
X157009980Y-64060647D02*
X157086170Y-64098742D01*
X157086170Y-64098742D02*
X157390932Y-64098742D01*
X156590932Y-64479695D02*
X156590932Y-63679695D01*
X156590932Y-63679695D02*
X156400456Y-63679695D01*
X156400456Y-63679695D02*
X156286170Y-63717790D01*
X156286170Y-63717790D02*
X156209980Y-63793980D01*
X156209980Y-63793980D02*
X156171885Y-63870171D01*
X156171885Y-63870171D02*
X156133789Y-64022552D01*
X156133789Y-64022552D02*
X156133789Y-64136838D01*
X156133789Y-64136838D02*
X156171885Y-64289219D01*
X156171885Y-64289219D02*
X156209980Y-64365409D01*
X156209980Y-64365409D02*
X156286170Y-64441600D01*
X156286170Y-64441600D02*
X156400456Y-64479695D01*
X156400456Y-64479695D02*
X156590932Y-64479695D01*
X155638551Y-64098742D02*
X155638551Y-64479695D01*
X155905218Y-63679695D02*
X155638551Y-64098742D01*
X155638551Y-64098742D02*
X155371885Y-63679695D01*
X155181409Y-63679695D02*
X154686171Y-63679695D01*
X154686171Y-63679695D02*
X154952837Y-63984457D01*
X154952837Y-63984457D02*
X154838552Y-63984457D01*
X154838552Y-63984457D02*
X154762361Y-64022552D01*
X154762361Y-64022552D02*
X154724266Y-64060647D01*
X154724266Y-64060647D02*
X154686171Y-64136838D01*
X154686171Y-64136838D02*
X154686171Y-64327314D01*
X154686171Y-64327314D02*
X154724266Y-64403504D01*
X154724266Y-64403504D02*
X154762361Y-64441600D01*
X154762361Y-64441600D02*
X154838552Y-64479695D01*
X154838552Y-64479695D02*
X155067123Y-64479695D01*
X155067123Y-64479695D02*
X155143314Y-64441600D01*
X155143314Y-64441600D02*
X155181409Y-64403504D01*
X121970761Y-81840647D02*
X121856475Y-81878742D01*
X121856475Y-81878742D02*
X121818380Y-81916838D01*
X121818380Y-81916838D02*
X121780284Y-81993028D01*
X121780284Y-81993028D02*
X121780284Y-82107314D01*
X121780284Y-82107314D02*
X121818380Y-82183504D01*
X121818380Y-82183504D02*
X121856475Y-82221600D01*
X121856475Y-82221600D02*
X121932665Y-82259695D01*
X121932665Y-82259695D02*
X122237427Y-82259695D01*
X122237427Y-82259695D02*
X122237427Y-81459695D01*
X122237427Y-81459695D02*
X121970761Y-81459695D01*
X121970761Y-81459695D02*
X121894570Y-81497790D01*
X121894570Y-81497790D02*
X121856475Y-81535885D01*
X121856475Y-81535885D02*
X121818380Y-81612076D01*
X121818380Y-81612076D02*
X121818380Y-81688266D01*
X121818380Y-81688266D02*
X121856475Y-81764457D01*
X121856475Y-81764457D02*
X121894570Y-81802552D01*
X121894570Y-81802552D02*
X121970761Y-81840647D01*
X121970761Y-81840647D02*
X122237427Y-81840647D01*
X121094570Y-81726361D02*
X121094570Y-82259695D01*
X121285046Y-81421600D02*
X121475523Y-81993028D01*
X121475523Y-81993028D02*
X120980284Y-81993028D01*
X156971885Y-91632390D02*
X157048075Y-91594295D01*
X157048075Y-91594295D02*
X157162361Y-91594295D01*
X157162361Y-91594295D02*
X157276647Y-91632390D01*
X157276647Y-91632390D02*
X157352837Y-91708580D01*
X157352837Y-91708580D02*
X157390932Y-91784771D01*
X157390932Y-91784771D02*
X157429028Y-91937152D01*
X157429028Y-91937152D02*
X157429028Y-92051438D01*
X157429028Y-92051438D02*
X157390932Y-92203819D01*
X157390932Y-92203819D02*
X157352837Y-92280009D01*
X157352837Y-92280009D02*
X157276647Y-92356200D01*
X157276647Y-92356200D02*
X157162361Y-92394295D01*
X157162361Y-92394295D02*
X157086170Y-92394295D01*
X157086170Y-92394295D02*
X156971885Y-92356200D01*
X156971885Y-92356200D02*
X156933789Y-92318104D01*
X156933789Y-92318104D02*
X156933789Y-92051438D01*
X156933789Y-92051438D02*
X157086170Y-92051438D01*
X156590932Y-92394295D02*
X156590932Y-91594295D01*
X156590932Y-91594295D02*
X156133789Y-92394295D01*
X156133789Y-92394295D02*
X156133789Y-91594295D01*
X155752837Y-92394295D02*
X155752837Y-91594295D01*
X155752837Y-91594295D02*
X155562361Y-91594295D01*
X155562361Y-91594295D02*
X155448075Y-91632390D01*
X155448075Y-91632390D02*
X155371885Y-91708580D01*
X155371885Y-91708580D02*
X155333790Y-91784771D01*
X155333790Y-91784771D02*
X155295694Y-91937152D01*
X155295694Y-91937152D02*
X155295694Y-92051438D01*
X155295694Y-92051438D02*
X155333790Y-92203819D01*
X155333790Y-92203819D02*
X155371885Y-92280009D01*
X155371885Y-92280009D02*
X155448075Y-92356200D01*
X155448075Y-92356200D02*
X155562361Y-92394295D01*
X155562361Y-92394295D02*
X155752837Y-92394295D01*
X121780284Y-102503504D02*
X121818380Y-102541600D01*
X121818380Y-102541600D02*
X121932665Y-102579695D01*
X121932665Y-102579695D02*
X122008856Y-102579695D01*
X122008856Y-102579695D02*
X122123142Y-102541600D01*
X122123142Y-102541600D02*
X122199332Y-102465409D01*
X122199332Y-102465409D02*
X122237427Y-102389219D01*
X122237427Y-102389219D02*
X122275523Y-102236838D01*
X122275523Y-102236838D02*
X122275523Y-102122552D01*
X122275523Y-102122552D02*
X122237427Y-101970171D01*
X122237427Y-101970171D02*
X122199332Y-101893980D01*
X122199332Y-101893980D02*
X122123142Y-101817790D01*
X122123142Y-101817790D02*
X122008856Y-101779695D01*
X122008856Y-101779695D02*
X121932665Y-101779695D01*
X121932665Y-101779695D02*
X121818380Y-101817790D01*
X121818380Y-101817790D02*
X121780284Y-101855885D01*
X121513618Y-101779695D02*
X120980284Y-101779695D01*
X120980284Y-101779695D02*
X121323142Y-102579695D01*
X123037428Y-87238104D02*
X123075524Y-87276200D01*
X123075524Y-87276200D02*
X123189809Y-87314295D01*
X123189809Y-87314295D02*
X123266000Y-87314295D01*
X123266000Y-87314295D02*
X123380286Y-87276200D01*
X123380286Y-87276200D02*
X123456476Y-87200009D01*
X123456476Y-87200009D02*
X123494571Y-87123819D01*
X123494571Y-87123819D02*
X123532667Y-86971438D01*
X123532667Y-86971438D02*
X123532667Y-86857152D01*
X123532667Y-86857152D02*
X123494571Y-86704771D01*
X123494571Y-86704771D02*
X123456476Y-86628580D01*
X123456476Y-86628580D02*
X123380286Y-86552390D01*
X123380286Y-86552390D02*
X123266000Y-86514295D01*
X123266000Y-86514295D02*
X123189809Y-86514295D01*
X123189809Y-86514295D02*
X123075524Y-86552390D01*
X123075524Y-86552390D02*
X123037428Y-86590485D01*
X122808857Y-86514295D02*
X122351714Y-86514295D01*
X122580286Y-87314295D02*
X122580286Y-86514295D01*
X121704095Y-87314295D02*
X122085047Y-87314295D01*
X122085047Y-87314295D02*
X122085047Y-86514295D01*
X121513619Y-86514295D02*
X121018381Y-86514295D01*
X121018381Y-86514295D02*
X121285047Y-86819057D01*
X121285047Y-86819057D02*
X121170762Y-86819057D01*
X121170762Y-86819057D02*
X121094571Y-86857152D01*
X121094571Y-86857152D02*
X121056476Y-86895247D01*
X121056476Y-86895247D02*
X121018381Y-86971438D01*
X121018381Y-86971438D02*
X121018381Y-87161914D01*
X121018381Y-87161914D02*
X121056476Y-87238104D01*
X121056476Y-87238104D02*
X121094571Y-87276200D01*
X121094571Y-87276200D02*
X121170762Y-87314295D01*
X121170762Y-87314295D02*
X121399333Y-87314295D01*
X121399333Y-87314295D02*
X121475524Y-87276200D01*
X121475524Y-87276200D02*
X121513619Y-87238104D01*
X121970761Y-84355247D02*
X121856475Y-84393342D01*
X121856475Y-84393342D02*
X121818380Y-84431438D01*
X121818380Y-84431438D02*
X121780284Y-84507628D01*
X121780284Y-84507628D02*
X121780284Y-84621914D01*
X121780284Y-84621914D02*
X121818380Y-84698104D01*
X121818380Y-84698104D02*
X121856475Y-84736200D01*
X121856475Y-84736200D02*
X121932665Y-84774295D01*
X121932665Y-84774295D02*
X122237427Y-84774295D01*
X122237427Y-84774295D02*
X122237427Y-83974295D01*
X122237427Y-83974295D02*
X121970761Y-83974295D01*
X121970761Y-83974295D02*
X121894570Y-84012390D01*
X121894570Y-84012390D02*
X121856475Y-84050485D01*
X121856475Y-84050485D02*
X121818380Y-84126676D01*
X121818380Y-84126676D02*
X121818380Y-84202866D01*
X121818380Y-84202866D02*
X121856475Y-84279057D01*
X121856475Y-84279057D02*
X121894570Y-84317152D01*
X121894570Y-84317152D02*
X121970761Y-84355247D01*
X121970761Y-84355247D02*
X122237427Y-84355247D01*
X121094570Y-83974295D02*
X121246951Y-83974295D01*
X121246951Y-83974295D02*
X121323142Y-84012390D01*
X121323142Y-84012390D02*
X121361237Y-84050485D01*
X121361237Y-84050485D02*
X121437427Y-84164771D01*
X121437427Y-84164771D02*
X121475523Y-84317152D01*
X121475523Y-84317152D02*
X121475523Y-84621914D01*
X121475523Y-84621914D02*
X121437427Y-84698104D01*
X121437427Y-84698104D02*
X121399332Y-84736200D01*
X121399332Y-84736200D02*
X121323142Y-84774295D01*
X121323142Y-84774295D02*
X121170761Y-84774295D01*
X121170761Y-84774295D02*
X121094570Y-84736200D01*
X121094570Y-84736200D02*
X121056475Y-84698104D01*
X121056475Y-84698104D02*
X121018380Y-84621914D01*
X121018380Y-84621914D02*
X121018380Y-84431438D01*
X121018380Y-84431438D02*
X121056475Y-84355247D01*
X121056475Y-84355247D02*
X121094570Y-84317152D01*
X121094570Y-84317152D02*
X121170761Y-84279057D01*
X121170761Y-84279057D02*
X121323142Y-84279057D01*
X121323142Y-84279057D02*
X121399332Y-84317152D01*
X121399332Y-84317152D02*
X121437427Y-84355247D01*
X121437427Y-84355247D02*
X121475523Y-84431438D01*
X154501780Y-76760647D02*
X154235114Y-76760647D01*
X154120828Y-77179695D02*
X154501780Y-77179695D01*
X154501780Y-77179695D02*
X154501780Y-76379695D01*
X154501780Y-76379695D02*
X154120828Y-76379695D01*
X153435113Y-76646361D02*
X153435113Y-77179695D01*
X153625589Y-76341600D02*
X153816066Y-76913028D01*
X153816066Y-76913028D02*
X153320827Y-76913028D01*
X157390932Y-69559695D02*
X157390932Y-68759695D01*
X157390932Y-68759695D02*
X157200456Y-68759695D01*
X157200456Y-68759695D02*
X157086170Y-68797790D01*
X157086170Y-68797790D02*
X157009980Y-68873980D01*
X157009980Y-68873980D02*
X156971885Y-68950171D01*
X156971885Y-68950171D02*
X156933789Y-69102552D01*
X156933789Y-69102552D02*
X156933789Y-69216838D01*
X156933789Y-69216838D02*
X156971885Y-69369219D01*
X156971885Y-69369219D02*
X157009980Y-69445409D01*
X157009980Y-69445409D02*
X157086170Y-69521600D01*
X157086170Y-69521600D02*
X157200456Y-69559695D01*
X157200456Y-69559695D02*
X157390932Y-69559695D01*
X156667123Y-68759695D02*
X156133789Y-68759695D01*
X156133789Y-68759695D02*
X156476647Y-69559695D01*
X121780284Y-97423504D02*
X121818380Y-97461600D01*
X121818380Y-97461600D02*
X121932665Y-97499695D01*
X121932665Y-97499695D02*
X122008856Y-97499695D01*
X122008856Y-97499695D02*
X122123142Y-97461600D01*
X122123142Y-97461600D02*
X122199332Y-97385409D01*
X122199332Y-97385409D02*
X122237427Y-97309219D01*
X122237427Y-97309219D02*
X122275523Y-97156838D01*
X122275523Y-97156838D02*
X122275523Y-97042552D01*
X122275523Y-97042552D02*
X122237427Y-96890171D01*
X122237427Y-96890171D02*
X122199332Y-96813980D01*
X122199332Y-96813980D02*
X122123142Y-96737790D01*
X122123142Y-96737790D02*
X122008856Y-96699695D01*
X122008856Y-96699695D02*
X121932665Y-96699695D01*
X121932665Y-96699695D02*
X121818380Y-96737790D01*
X121818380Y-96737790D02*
X121780284Y-96775885D01*
X121513618Y-96699695D02*
X121018380Y-96699695D01*
X121018380Y-96699695D02*
X121285046Y-97004457D01*
X121285046Y-97004457D02*
X121170761Y-97004457D01*
X121170761Y-97004457D02*
X121094570Y-97042552D01*
X121094570Y-97042552D02*
X121056475Y-97080647D01*
X121056475Y-97080647D02*
X121018380Y-97156838D01*
X121018380Y-97156838D02*
X121018380Y-97347314D01*
X121018380Y-97347314D02*
X121056475Y-97423504D01*
X121056475Y-97423504D02*
X121094570Y-97461600D01*
X121094570Y-97461600D02*
X121170761Y-97499695D01*
X121170761Y-97499695D02*
X121399332Y-97499695D01*
X121399332Y-97499695D02*
X121475523Y-97461600D01*
X121475523Y-97461600D02*
X121513618Y-97423504D01*
X118586209Y-84380647D02*
X118471923Y-84418742D01*
X118471923Y-84418742D02*
X118433828Y-84456838D01*
X118433828Y-84456838D02*
X118395732Y-84533028D01*
X118395732Y-84533028D02*
X118395732Y-84647314D01*
X118395732Y-84647314D02*
X118433828Y-84723504D01*
X118433828Y-84723504D02*
X118471923Y-84761600D01*
X118471923Y-84761600D02*
X118548113Y-84799695D01*
X118548113Y-84799695D02*
X118852875Y-84799695D01*
X118852875Y-84799695D02*
X118852875Y-83999695D01*
X118852875Y-83999695D02*
X118586209Y-83999695D01*
X118586209Y-83999695D02*
X118510018Y-84037790D01*
X118510018Y-84037790D02*
X118471923Y-84075885D01*
X118471923Y-84075885D02*
X118433828Y-84152076D01*
X118433828Y-84152076D02*
X118433828Y-84228266D01*
X118433828Y-84228266D02*
X118471923Y-84304457D01*
X118471923Y-84304457D02*
X118510018Y-84342552D01*
X118510018Y-84342552D02*
X118586209Y-84380647D01*
X118586209Y-84380647D02*
X118852875Y-84380647D01*
X118129066Y-83999695D02*
X117595732Y-83999695D01*
X117595732Y-83999695D02*
X117938590Y-84799695D01*
X157429028Y-99811123D02*
X157048075Y-99811123D01*
X157505218Y-100039695D02*
X157238551Y-99239695D01*
X157238551Y-99239695D02*
X156971885Y-100039695D01*
X156781409Y-99239695D02*
X156286171Y-99239695D01*
X156286171Y-99239695D02*
X156552837Y-99544457D01*
X156552837Y-99544457D02*
X156438552Y-99544457D01*
X156438552Y-99544457D02*
X156362361Y-99582552D01*
X156362361Y-99582552D02*
X156324266Y-99620647D01*
X156324266Y-99620647D02*
X156286171Y-99696838D01*
X156286171Y-99696838D02*
X156286171Y-99887314D01*
X156286171Y-99887314D02*
X156324266Y-99963504D01*
X156324266Y-99963504D02*
X156362361Y-100001600D01*
X156362361Y-100001600D02*
X156438552Y-100039695D01*
X156438552Y-100039695D02*
X156667123Y-100039695D01*
X156667123Y-100039695D02*
X156743314Y-100001600D01*
X156743314Y-100001600D02*
X156781409Y-99963504D01*
X156933789Y-67019695D02*
X157200456Y-66638742D01*
X157390932Y-67019695D02*
X157390932Y-66219695D01*
X157390932Y-66219695D02*
X157086170Y-66219695D01*
X157086170Y-66219695D02*
X157009980Y-66257790D01*
X157009980Y-66257790D02*
X156971885Y-66295885D01*
X156971885Y-66295885D02*
X156933789Y-66372076D01*
X156933789Y-66372076D02*
X156933789Y-66486361D01*
X156933789Y-66486361D02*
X156971885Y-66562552D01*
X156971885Y-66562552D02*
X157009980Y-66600647D01*
X157009980Y-66600647D02*
X157086170Y-66638742D01*
X157086170Y-66638742D02*
X157390932Y-66638742D01*
X156590932Y-67019695D02*
X156590932Y-66219695D01*
X156590932Y-66219695D02*
X156400456Y-66219695D01*
X156400456Y-66219695D02*
X156286170Y-66257790D01*
X156286170Y-66257790D02*
X156209980Y-66333980D01*
X156209980Y-66333980D02*
X156171885Y-66410171D01*
X156171885Y-66410171D02*
X156133789Y-66562552D01*
X156133789Y-66562552D02*
X156133789Y-66676838D01*
X156133789Y-66676838D02*
X156171885Y-66829219D01*
X156171885Y-66829219D02*
X156209980Y-66905409D01*
X156209980Y-66905409D02*
X156286170Y-66981600D01*
X156286170Y-66981600D02*
X156400456Y-67019695D01*
X156400456Y-67019695D02*
X156590932Y-67019695D01*
X155638551Y-66638742D02*
X155638551Y-67019695D01*
X155905218Y-66219695D02*
X155638551Y-66638742D01*
X155638551Y-66638742D02*
X155371885Y-66219695D01*
X154686171Y-67019695D02*
X155143314Y-67019695D01*
X154914742Y-67019695D02*
X154914742Y-66219695D01*
X154914742Y-66219695D02*
X154990933Y-66333980D01*
X154990933Y-66333980D02*
X155067123Y-66410171D01*
X155067123Y-66410171D02*
X155143314Y-66448266D01*
X154539876Y-94731123D02*
X154158923Y-94731123D01*
X154616066Y-94959695D02*
X154349399Y-94159695D01*
X154349399Y-94159695D02*
X154082733Y-94959695D01*
X153473209Y-94159695D02*
X153625590Y-94159695D01*
X153625590Y-94159695D02*
X153701781Y-94197790D01*
X153701781Y-94197790D02*
X153739876Y-94235885D01*
X153739876Y-94235885D02*
X153816066Y-94350171D01*
X153816066Y-94350171D02*
X153854162Y-94502552D01*
X153854162Y-94502552D02*
X153854162Y-94807314D01*
X153854162Y-94807314D02*
X153816066Y-94883504D01*
X153816066Y-94883504D02*
X153777971Y-94921600D01*
X153777971Y-94921600D02*
X153701781Y-94959695D01*
X153701781Y-94959695D02*
X153549400Y-94959695D01*
X153549400Y-94959695D02*
X153473209Y-94921600D01*
X153473209Y-94921600D02*
X153435114Y-94883504D01*
X153435114Y-94883504D02*
X153397019Y-94807314D01*
X153397019Y-94807314D02*
X153397019Y-94616838D01*
X153397019Y-94616838D02*
X153435114Y-94540647D01*
X153435114Y-94540647D02*
X153473209Y-94502552D01*
X153473209Y-94502552D02*
X153549400Y-94464457D01*
X153549400Y-94464457D02*
X153701781Y-94464457D01*
X153701781Y-94464457D02*
X153777971Y-94502552D01*
X153777971Y-94502552D02*
X153816066Y-94540647D01*
X153816066Y-94540647D02*
X153854162Y-94616838D01*
X118351322Y-97423504D02*
X118389418Y-97461600D01*
X118389418Y-97461600D02*
X118503703Y-97499695D01*
X118503703Y-97499695D02*
X118579894Y-97499695D01*
X118579894Y-97499695D02*
X118694180Y-97461600D01*
X118694180Y-97461600D02*
X118770370Y-97385409D01*
X118770370Y-97385409D02*
X118808465Y-97309219D01*
X118808465Y-97309219D02*
X118846561Y-97156838D01*
X118846561Y-97156838D02*
X118846561Y-97042552D01*
X118846561Y-97042552D02*
X118808465Y-96890171D01*
X118808465Y-96890171D02*
X118770370Y-96813980D01*
X118770370Y-96813980D02*
X118694180Y-96737790D01*
X118694180Y-96737790D02*
X118579894Y-96699695D01*
X118579894Y-96699695D02*
X118503703Y-96699695D01*
X118503703Y-96699695D02*
X118389418Y-96737790D01*
X118389418Y-96737790D02*
X118351322Y-96775885D01*
X118046561Y-96775885D02*
X118008465Y-96737790D01*
X118008465Y-96737790D02*
X117932275Y-96699695D01*
X117932275Y-96699695D02*
X117741799Y-96699695D01*
X117741799Y-96699695D02*
X117665608Y-96737790D01*
X117665608Y-96737790D02*
X117627513Y-96775885D01*
X117627513Y-96775885D02*
X117589418Y-96852076D01*
X117589418Y-96852076D02*
X117589418Y-96928266D01*
X117589418Y-96928266D02*
X117627513Y-97042552D01*
X117627513Y-97042552D02*
X118084656Y-97499695D01*
X118084656Y-97499695D02*
X117589418Y-97499695D01*
X157429028Y-94731123D02*
X157048075Y-94731123D01*
X157505218Y-94959695D02*
X157238551Y-94159695D01*
X157238551Y-94159695D02*
X156971885Y-94959695D01*
X156781409Y-94159695D02*
X156248075Y-94159695D01*
X156248075Y-94159695D02*
X156590933Y-94959695D01*
X119056085Y-79694295D02*
X119322752Y-79313342D01*
X119513228Y-79694295D02*
X119513228Y-78894295D01*
X119513228Y-78894295D02*
X119208466Y-78894295D01*
X119208466Y-78894295D02*
X119132276Y-78932390D01*
X119132276Y-78932390D02*
X119094181Y-78970485D01*
X119094181Y-78970485D02*
X119056085Y-79046676D01*
X119056085Y-79046676D02*
X119056085Y-79160961D01*
X119056085Y-79160961D02*
X119094181Y-79237152D01*
X119094181Y-79237152D02*
X119132276Y-79275247D01*
X119132276Y-79275247D02*
X119208466Y-79313342D01*
X119208466Y-79313342D02*
X119513228Y-79313342D01*
X118789419Y-78894295D02*
X118256085Y-79694295D01*
X118256085Y-78894295D02*
X118789419Y-79694295D01*
X117532276Y-79694295D02*
X117989419Y-79694295D01*
X117760847Y-79694295D02*
X117760847Y-78894295D01*
X117760847Y-78894295D02*
X117837038Y-79008580D01*
X117837038Y-79008580D02*
X117913228Y-79084771D01*
X117913228Y-79084771D02*
X117989419Y-79122866D01*
X118541799Y-74220647D02*
X118427513Y-74258742D01*
X118427513Y-74258742D02*
X118389418Y-74296838D01*
X118389418Y-74296838D02*
X118351322Y-74373028D01*
X118351322Y-74373028D02*
X118351322Y-74487314D01*
X118351322Y-74487314D02*
X118389418Y-74563504D01*
X118389418Y-74563504D02*
X118427513Y-74601600D01*
X118427513Y-74601600D02*
X118503703Y-74639695D01*
X118503703Y-74639695D02*
X118808465Y-74639695D01*
X118808465Y-74639695D02*
X118808465Y-73839695D01*
X118808465Y-73839695D02*
X118541799Y-73839695D01*
X118541799Y-73839695D02*
X118465608Y-73877790D01*
X118465608Y-73877790D02*
X118427513Y-73915885D01*
X118427513Y-73915885D02*
X118389418Y-73992076D01*
X118389418Y-73992076D02*
X118389418Y-74068266D01*
X118389418Y-74068266D02*
X118427513Y-74144457D01*
X118427513Y-74144457D02*
X118465608Y-74182552D01*
X118465608Y-74182552D02*
X118541799Y-74220647D01*
X118541799Y-74220647D02*
X118808465Y-74220647D01*
X118084656Y-73839695D02*
X117589418Y-73839695D01*
X117589418Y-73839695D02*
X117856084Y-74144457D01*
X117856084Y-74144457D02*
X117741799Y-74144457D01*
X117741799Y-74144457D02*
X117665608Y-74182552D01*
X117665608Y-74182552D02*
X117627513Y-74220647D01*
X117627513Y-74220647D02*
X117589418Y-74296838D01*
X117589418Y-74296838D02*
X117589418Y-74487314D01*
X117589418Y-74487314D02*
X117627513Y-74563504D01*
X117627513Y-74563504D02*
X117665608Y-74601600D01*
X117665608Y-74601600D02*
X117741799Y-74639695D01*
X117741799Y-74639695D02*
X117970370Y-74639695D01*
X117970370Y-74639695D02*
X118046561Y-74601600D01*
X118046561Y-74601600D02*
X118084656Y-74563504D01*
X157429028Y-102351123D02*
X157048075Y-102351123D01*
X157505218Y-102579695D02*
X157238551Y-101779695D01*
X157238551Y-101779695D02*
X156971885Y-102579695D01*
X156286171Y-102579695D02*
X156743314Y-102579695D01*
X156514742Y-102579695D02*
X156514742Y-101779695D01*
X156514742Y-101779695D02*
X156590933Y-101893980D01*
X156590933Y-101893980D02*
X156667123Y-101970171D01*
X156667123Y-101970171D02*
X156743314Y-102008266D01*
X121970761Y-71680647D02*
X121856475Y-71718742D01*
X121856475Y-71718742D02*
X121818380Y-71756838D01*
X121818380Y-71756838D02*
X121780284Y-71833028D01*
X121780284Y-71833028D02*
X121780284Y-71947314D01*
X121780284Y-71947314D02*
X121818380Y-72023504D01*
X121818380Y-72023504D02*
X121856475Y-72061600D01*
X121856475Y-72061600D02*
X121932665Y-72099695D01*
X121932665Y-72099695D02*
X122237427Y-72099695D01*
X122237427Y-72099695D02*
X122237427Y-71299695D01*
X122237427Y-71299695D02*
X121970761Y-71299695D01*
X121970761Y-71299695D02*
X121894570Y-71337790D01*
X121894570Y-71337790D02*
X121856475Y-71375885D01*
X121856475Y-71375885D02*
X121818380Y-71452076D01*
X121818380Y-71452076D02*
X121818380Y-71528266D01*
X121818380Y-71528266D02*
X121856475Y-71604457D01*
X121856475Y-71604457D02*
X121894570Y-71642552D01*
X121894570Y-71642552D02*
X121970761Y-71680647D01*
X121970761Y-71680647D02*
X122237427Y-71680647D01*
X121285046Y-71299695D02*
X121208856Y-71299695D01*
X121208856Y-71299695D02*
X121132665Y-71337790D01*
X121132665Y-71337790D02*
X121094570Y-71375885D01*
X121094570Y-71375885D02*
X121056475Y-71452076D01*
X121056475Y-71452076D02*
X121018380Y-71604457D01*
X121018380Y-71604457D02*
X121018380Y-71794933D01*
X121018380Y-71794933D02*
X121056475Y-71947314D01*
X121056475Y-71947314D02*
X121094570Y-72023504D01*
X121094570Y-72023504D02*
X121132665Y-72061600D01*
X121132665Y-72061600D02*
X121208856Y-72099695D01*
X121208856Y-72099695D02*
X121285046Y-72099695D01*
X121285046Y-72099695D02*
X121361237Y-72061600D01*
X121361237Y-72061600D02*
X121399332Y-72023504D01*
X121399332Y-72023504D02*
X121437427Y-71947314D01*
X121437427Y-71947314D02*
X121475523Y-71794933D01*
X121475523Y-71794933D02*
X121475523Y-71604457D01*
X121475523Y-71604457D02*
X121437427Y-71452076D01*
X121437427Y-71452076D02*
X121399332Y-71375885D01*
X121399332Y-71375885D02*
X121361237Y-71337790D01*
X121361237Y-71337790D02*
X121285046Y-71299695D01*
X122161237Y-63679695D02*
X121704094Y-63679695D01*
X121932666Y-64479695D02*
X121932666Y-63679695D01*
X121018380Y-64479695D02*
X121475523Y-64479695D01*
X121246951Y-64479695D02*
X121246951Y-63679695D01*
X121246951Y-63679695D02*
X121323142Y-63793980D01*
X121323142Y-63793980D02*
X121399332Y-63870171D01*
X121399332Y-63870171D02*
X121475523Y-63908266D01*
X156971885Y-58612390D02*
X157048075Y-58574295D01*
X157048075Y-58574295D02*
X157162361Y-58574295D01*
X157162361Y-58574295D02*
X157276647Y-58612390D01*
X157276647Y-58612390D02*
X157352837Y-58688580D01*
X157352837Y-58688580D02*
X157390932Y-58764771D01*
X157390932Y-58764771D02*
X157429028Y-58917152D01*
X157429028Y-58917152D02*
X157429028Y-59031438D01*
X157429028Y-59031438D02*
X157390932Y-59183819D01*
X157390932Y-59183819D02*
X157352837Y-59260009D01*
X157352837Y-59260009D02*
X157276647Y-59336200D01*
X157276647Y-59336200D02*
X157162361Y-59374295D01*
X157162361Y-59374295D02*
X157086170Y-59374295D01*
X157086170Y-59374295D02*
X156971885Y-59336200D01*
X156971885Y-59336200D02*
X156933789Y-59298104D01*
X156933789Y-59298104D02*
X156933789Y-59031438D01*
X156933789Y-59031438D02*
X157086170Y-59031438D01*
X156590932Y-59374295D02*
X156590932Y-58574295D01*
X156590932Y-58574295D02*
X156133789Y-59374295D01*
X156133789Y-59374295D02*
X156133789Y-58574295D01*
X155752837Y-59374295D02*
X155752837Y-58574295D01*
X155752837Y-58574295D02*
X155562361Y-58574295D01*
X155562361Y-58574295D02*
X155448075Y-58612390D01*
X155448075Y-58612390D02*
X155371885Y-58688580D01*
X155371885Y-58688580D02*
X155333790Y-58764771D01*
X155333790Y-58764771D02*
X155295694Y-58917152D01*
X155295694Y-58917152D02*
X155295694Y-59031438D01*
X155295694Y-59031438D02*
X155333790Y-59183819D01*
X155333790Y-59183819D02*
X155371885Y-59260009D01*
X155371885Y-59260009D02*
X155448075Y-59336200D01*
X155448075Y-59336200D02*
X155562361Y-59374295D01*
X155562361Y-59374295D02*
X155752837Y-59374295D01*
X154501780Y-81840647D02*
X154235114Y-81840647D01*
X154120828Y-82259695D02*
X154501780Y-82259695D01*
X154501780Y-82259695D02*
X154501780Y-81459695D01*
X154501780Y-81459695D02*
X154120828Y-81459695D01*
X153816066Y-81535885D02*
X153777970Y-81497790D01*
X153777970Y-81497790D02*
X153701780Y-81459695D01*
X153701780Y-81459695D02*
X153511304Y-81459695D01*
X153511304Y-81459695D02*
X153435113Y-81497790D01*
X153435113Y-81497790D02*
X153397018Y-81535885D01*
X153397018Y-81535885D02*
X153358923Y-81612076D01*
X153358923Y-81612076D02*
X153358923Y-81688266D01*
X153358923Y-81688266D02*
X153397018Y-81802552D01*
X153397018Y-81802552D02*
X153854161Y-82259695D01*
X153854161Y-82259695D02*
X153358923Y-82259695D01*
X157390932Y-81840647D02*
X157124266Y-81840647D01*
X157009980Y-82259695D02*
X157390932Y-82259695D01*
X157390932Y-82259695D02*
X157390932Y-81459695D01*
X157390932Y-81459695D02*
X157009980Y-81459695D01*
X156248075Y-82259695D02*
X156705218Y-82259695D01*
X156476646Y-82259695D02*
X156476646Y-81459695D01*
X156476646Y-81459695D02*
X156552837Y-81573980D01*
X156552837Y-81573980D02*
X156629027Y-81650171D01*
X156629027Y-81650171D02*
X156705218Y-81688266D01*
X118541799Y-71680647D02*
X118427513Y-71718742D01*
X118427513Y-71718742D02*
X118389418Y-71756838D01*
X118389418Y-71756838D02*
X118351322Y-71833028D01*
X118351322Y-71833028D02*
X118351322Y-71947314D01*
X118351322Y-71947314D02*
X118389418Y-72023504D01*
X118389418Y-72023504D02*
X118427513Y-72061600D01*
X118427513Y-72061600D02*
X118503703Y-72099695D01*
X118503703Y-72099695D02*
X118808465Y-72099695D01*
X118808465Y-72099695D02*
X118808465Y-71299695D01*
X118808465Y-71299695D02*
X118541799Y-71299695D01*
X118541799Y-71299695D02*
X118465608Y-71337790D01*
X118465608Y-71337790D02*
X118427513Y-71375885D01*
X118427513Y-71375885D02*
X118389418Y-71452076D01*
X118389418Y-71452076D02*
X118389418Y-71528266D01*
X118389418Y-71528266D02*
X118427513Y-71604457D01*
X118427513Y-71604457D02*
X118465608Y-71642552D01*
X118465608Y-71642552D02*
X118541799Y-71680647D01*
X118541799Y-71680647D02*
X118808465Y-71680647D01*
X117589418Y-72099695D02*
X118046561Y-72099695D01*
X117817989Y-72099695D02*
X117817989Y-71299695D01*
X117817989Y-71299695D02*
X117894180Y-71413980D01*
X117894180Y-71413980D02*
X117970370Y-71490171D01*
X117970370Y-71490171D02*
X118046561Y-71528266D01*
X157390932Y-76760647D02*
X157124266Y-76760647D01*
X157009980Y-77179695D02*
X157390932Y-77179695D01*
X157390932Y-77179695D02*
X157390932Y-76379695D01*
X157390932Y-76379695D02*
X157009980Y-76379695D01*
X156286170Y-76379695D02*
X156667122Y-76379695D01*
X156667122Y-76379695D02*
X156705218Y-76760647D01*
X156705218Y-76760647D02*
X156667122Y-76722552D01*
X156667122Y-76722552D02*
X156590932Y-76684457D01*
X156590932Y-76684457D02*
X156400456Y-76684457D01*
X156400456Y-76684457D02*
X156324265Y-76722552D01*
X156324265Y-76722552D02*
X156286170Y-76760647D01*
X156286170Y-76760647D02*
X156248075Y-76836838D01*
X156248075Y-76836838D02*
X156248075Y-77027314D01*
X156248075Y-77027314D02*
X156286170Y-77103504D01*
X156286170Y-77103504D02*
X156324265Y-77141600D01*
X156324265Y-77141600D02*
X156400456Y-77179695D01*
X156400456Y-77179695D02*
X156590932Y-77179695D01*
X156590932Y-77179695D02*
X156667122Y-77141600D01*
X156667122Y-77141600D02*
X156705218Y-77103504D01*
X118541799Y-81840647D02*
X118427513Y-81878742D01*
X118427513Y-81878742D02*
X118389418Y-81916838D01*
X118389418Y-81916838D02*
X118351322Y-81993028D01*
X118351322Y-81993028D02*
X118351322Y-82107314D01*
X118351322Y-82107314D02*
X118389418Y-82183504D01*
X118389418Y-82183504D02*
X118427513Y-82221600D01*
X118427513Y-82221600D02*
X118503703Y-82259695D01*
X118503703Y-82259695D02*
X118808465Y-82259695D01*
X118808465Y-82259695D02*
X118808465Y-81459695D01*
X118808465Y-81459695D02*
X118541799Y-81459695D01*
X118541799Y-81459695D02*
X118465608Y-81497790D01*
X118465608Y-81497790D02*
X118427513Y-81535885D01*
X118427513Y-81535885D02*
X118389418Y-81612076D01*
X118389418Y-81612076D02*
X118389418Y-81688266D01*
X118389418Y-81688266D02*
X118427513Y-81764457D01*
X118427513Y-81764457D02*
X118465608Y-81802552D01*
X118465608Y-81802552D02*
X118541799Y-81840647D01*
X118541799Y-81840647D02*
X118808465Y-81840647D01*
X117627513Y-81459695D02*
X118008465Y-81459695D01*
X118008465Y-81459695D02*
X118046561Y-81840647D01*
X118046561Y-81840647D02*
X118008465Y-81802552D01*
X118008465Y-81802552D02*
X117932275Y-81764457D01*
X117932275Y-81764457D02*
X117741799Y-81764457D01*
X117741799Y-81764457D02*
X117665608Y-81802552D01*
X117665608Y-81802552D02*
X117627513Y-81840647D01*
X117627513Y-81840647D02*
X117589418Y-81916838D01*
X117589418Y-81916838D02*
X117589418Y-82107314D01*
X117589418Y-82107314D02*
X117627513Y-82183504D01*
X117627513Y-82183504D02*
X117665608Y-82221600D01*
X117665608Y-82221600D02*
X117741799Y-82259695D01*
X117741799Y-82259695D02*
X117932275Y-82259695D01*
X117932275Y-82259695D02*
X118008465Y-82221600D01*
X118008465Y-82221600D02*
X118046561Y-82183504D01*
X122961237Y-69496200D02*
X122846951Y-69534295D01*
X122846951Y-69534295D02*
X122656475Y-69534295D01*
X122656475Y-69534295D02*
X122580284Y-69496200D01*
X122580284Y-69496200D02*
X122542189Y-69458104D01*
X122542189Y-69458104D02*
X122504094Y-69381914D01*
X122504094Y-69381914D02*
X122504094Y-69305723D01*
X122504094Y-69305723D02*
X122542189Y-69229533D01*
X122542189Y-69229533D02*
X122580284Y-69191438D01*
X122580284Y-69191438D02*
X122656475Y-69153342D01*
X122656475Y-69153342D02*
X122808856Y-69115247D01*
X122808856Y-69115247D02*
X122885046Y-69077152D01*
X122885046Y-69077152D02*
X122923141Y-69039057D01*
X122923141Y-69039057D02*
X122961237Y-68962866D01*
X122961237Y-68962866D02*
X122961237Y-68886676D01*
X122961237Y-68886676D02*
X122923141Y-68810485D01*
X122923141Y-68810485D02*
X122885046Y-68772390D01*
X122885046Y-68772390D02*
X122808856Y-68734295D01*
X122808856Y-68734295D02*
X122618379Y-68734295D01*
X122618379Y-68734295D02*
X122504094Y-68772390D01*
X122161236Y-69534295D02*
X122161236Y-68734295D01*
X122161236Y-68734295D02*
X121970760Y-68734295D01*
X121970760Y-68734295D02*
X121856474Y-68772390D01*
X121856474Y-68772390D02*
X121780284Y-68848580D01*
X121780284Y-68848580D02*
X121742189Y-68924771D01*
X121742189Y-68924771D02*
X121704093Y-69077152D01*
X121704093Y-69077152D02*
X121704093Y-69191438D01*
X121704093Y-69191438D02*
X121742189Y-69343819D01*
X121742189Y-69343819D02*
X121780284Y-69420009D01*
X121780284Y-69420009D02*
X121856474Y-69496200D01*
X121856474Y-69496200D02*
X121970760Y-69534295D01*
X121970760Y-69534295D02*
X122161236Y-69534295D01*
X121399332Y-69305723D02*
X121018379Y-69305723D01*
X121475522Y-69534295D02*
X121208855Y-68734295D01*
X121208855Y-68734295D02*
X120942189Y-69534295D01*
X118732275Y-66219695D02*
X118275132Y-66219695D01*
X118503704Y-67019695D02*
X118503704Y-66219695D01*
X118046561Y-66295885D02*
X118008465Y-66257790D01*
X118008465Y-66257790D02*
X117932275Y-66219695D01*
X117932275Y-66219695D02*
X117741799Y-66219695D01*
X117741799Y-66219695D02*
X117665608Y-66257790D01*
X117665608Y-66257790D02*
X117627513Y-66295885D01*
X117627513Y-66295885D02*
X117589418Y-66372076D01*
X117589418Y-66372076D02*
X117589418Y-66448266D01*
X117589418Y-66448266D02*
X117627513Y-66562552D01*
X117627513Y-66562552D02*
X118084656Y-67019695D01*
X118084656Y-67019695D02*
X117589418Y-67019695D01*
X153619180Y-58574295D02*
X154000132Y-58574295D01*
X154000132Y-58574295D02*
X154038228Y-58955247D01*
X154038228Y-58955247D02*
X154000132Y-58917152D01*
X154000132Y-58917152D02*
X153923942Y-58879057D01*
X153923942Y-58879057D02*
X153733466Y-58879057D01*
X153733466Y-58879057D02*
X153657275Y-58917152D01*
X153657275Y-58917152D02*
X153619180Y-58955247D01*
X153619180Y-58955247D02*
X153581085Y-59031438D01*
X153581085Y-59031438D02*
X153581085Y-59221914D01*
X153581085Y-59221914D02*
X153619180Y-59298104D01*
X153619180Y-59298104D02*
X153657275Y-59336200D01*
X153657275Y-59336200D02*
X153733466Y-59374295D01*
X153733466Y-59374295D02*
X153923942Y-59374295D01*
X153923942Y-59374295D02*
X154000132Y-59336200D01*
X154000132Y-59336200D02*
X154038228Y-59298104D01*
X153352513Y-58574295D02*
X153085846Y-59374295D01*
X153085846Y-59374295D02*
X152819180Y-58574295D01*
X154501780Y-72099695D02*
X154501780Y-71299695D01*
X154501780Y-71299695D02*
X154311304Y-71299695D01*
X154311304Y-71299695D02*
X154197018Y-71337790D01*
X154197018Y-71337790D02*
X154120828Y-71413980D01*
X154120828Y-71413980D02*
X154082733Y-71490171D01*
X154082733Y-71490171D02*
X154044637Y-71642552D01*
X154044637Y-71642552D02*
X154044637Y-71756838D01*
X154044637Y-71756838D02*
X154082733Y-71909219D01*
X154082733Y-71909219D02*
X154120828Y-71985409D01*
X154120828Y-71985409D02*
X154197018Y-72061600D01*
X154197018Y-72061600D02*
X154311304Y-72099695D01*
X154311304Y-72099695D02*
X154501780Y-72099695D01*
X153358923Y-71299695D02*
X153511304Y-71299695D01*
X153511304Y-71299695D02*
X153587495Y-71337790D01*
X153587495Y-71337790D02*
X153625590Y-71375885D01*
X153625590Y-71375885D02*
X153701780Y-71490171D01*
X153701780Y-71490171D02*
X153739876Y-71642552D01*
X153739876Y-71642552D02*
X153739876Y-71947314D01*
X153739876Y-71947314D02*
X153701780Y-72023504D01*
X153701780Y-72023504D02*
X153663685Y-72061600D01*
X153663685Y-72061600D02*
X153587495Y-72099695D01*
X153587495Y-72099695D02*
X153435114Y-72099695D01*
X153435114Y-72099695D02*
X153358923Y-72061600D01*
X153358923Y-72061600D02*
X153320828Y-72023504D01*
X153320828Y-72023504D02*
X153282733Y-71947314D01*
X153282733Y-71947314D02*
X153282733Y-71756838D01*
X153282733Y-71756838D02*
X153320828Y-71680647D01*
X153320828Y-71680647D02*
X153358923Y-71642552D01*
X153358923Y-71642552D02*
X153435114Y-71604457D01*
X153435114Y-71604457D02*
X153587495Y-71604457D01*
X153587495Y-71604457D02*
X153663685Y-71642552D01*
X153663685Y-71642552D02*
X153701780Y-71680647D01*
X153701780Y-71680647D02*
X153739876Y-71756838D01*
X118351322Y-99963504D02*
X118389418Y-100001600D01*
X118389418Y-100001600D02*
X118503703Y-100039695D01*
X118503703Y-100039695D02*
X118579894Y-100039695D01*
X118579894Y-100039695D02*
X118694180Y-100001600D01*
X118694180Y-100001600D02*
X118770370Y-99925409D01*
X118770370Y-99925409D02*
X118808465Y-99849219D01*
X118808465Y-99849219D02*
X118846561Y-99696838D01*
X118846561Y-99696838D02*
X118846561Y-99582552D01*
X118846561Y-99582552D02*
X118808465Y-99430171D01*
X118808465Y-99430171D02*
X118770370Y-99353980D01*
X118770370Y-99353980D02*
X118694180Y-99277790D01*
X118694180Y-99277790D02*
X118579894Y-99239695D01*
X118579894Y-99239695D02*
X118503703Y-99239695D01*
X118503703Y-99239695D02*
X118389418Y-99277790D01*
X118389418Y-99277790D02*
X118351322Y-99315885D01*
X117665608Y-99506361D02*
X117665608Y-100039695D01*
X117856084Y-99201600D02*
X118046561Y-99773028D01*
X118046561Y-99773028D02*
X117551322Y-99773028D01*
X119265608Y-86577790D02*
X119341798Y-86539695D01*
X119341798Y-86539695D02*
X119456084Y-86539695D01*
X119456084Y-86539695D02*
X119570370Y-86577790D01*
X119570370Y-86577790D02*
X119646560Y-86653980D01*
X119646560Y-86653980D02*
X119684655Y-86730171D01*
X119684655Y-86730171D02*
X119722751Y-86882552D01*
X119722751Y-86882552D02*
X119722751Y-86996838D01*
X119722751Y-86996838D02*
X119684655Y-87149219D01*
X119684655Y-87149219D02*
X119646560Y-87225409D01*
X119646560Y-87225409D02*
X119570370Y-87301600D01*
X119570370Y-87301600D02*
X119456084Y-87339695D01*
X119456084Y-87339695D02*
X119379893Y-87339695D01*
X119379893Y-87339695D02*
X119265608Y-87301600D01*
X119265608Y-87301600D02*
X119227512Y-87263504D01*
X119227512Y-87263504D02*
X119227512Y-86996838D01*
X119227512Y-86996838D02*
X119379893Y-86996838D01*
X118884655Y-87339695D02*
X118884655Y-86539695D01*
X118884655Y-86539695D02*
X118427512Y-87339695D01*
X118427512Y-87339695D02*
X118427512Y-86539695D01*
X118046560Y-87339695D02*
X118046560Y-86539695D01*
X118046560Y-86539695D02*
X117856084Y-86539695D01*
X117856084Y-86539695D02*
X117741798Y-86577790D01*
X117741798Y-86577790D02*
X117665608Y-86653980D01*
X117665608Y-86653980D02*
X117627513Y-86730171D01*
X117627513Y-86730171D02*
X117589417Y-86882552D01*
X117589417Y-86882552D02*
X117589417Y-86996838D01*
X117589417Y-86996838D02*
X117627513Y-87149219D01*
X117627513Y-87149219D02*
X117665608Y-87225409D01*
X117665608Y-87225409D02*
X117741798Y-87301600D01*
X117741798Y-87301600D02*
X117856084Y-87339695D01*
X117856084Y-87339695D02*
X118046560Y-87339695D01*
X157390932Y-72099695D02*
X157390932Y-71299695D01*
X157390932Y-71299695D02*
X157200456Y-71299695D01*
X157200456Y-71299695D02*
X157086170Y-71337790D01*
X157086170Y-71337790D02*
X157009980Y-71413980D01*
X157009980Y-71413980D02*
X156971885Y-71490171D01*
X156971885Y-71490171D02*
X156933789Y-71642552D01*
X156933789Y-71642552D02*
X156933789Y-71756838D01*
X156933789Y-71756838D02*
X156971885Y-71909219D01*
X156971885Y-71909219D02*
X157009980Y-71985409D01*
X157009980Y-71985409D02*
X157086170Y-72061600D01*
X157086170Y-72061600D02*
X157200456Y-72099695D01*
X157200456Y-72099695D02*
X157390932Y-72099695D01*
X156209980Y-71299695D02*
X156590932Y-71299695D01*
X156590932Y-71299695D02*
X156629028Y-71680647D01*
X156629028Y-71680647D02*
X156590932Y-71642552D01*
X156590932Y-71642552D02*
X156514742Y-71604457D01*
X156514742Y-71604457D02*
X156324266Y-71604457D01*
X156324266Y-71604457D02*
X156248075Y-71642552D01*
X156248075Y-71642552D02*
X156209980Y-71680647D01*
X156209980Y-71680647D02*
X156171885Y-71756838D01*
X156171885Y-71756838D02*
X156171885Y-71947314D01*
X156171885Y-71947314D02*
X156209980Y-72023504D01*
X156209980Y-72023504D02*
X156248075Y-72061600D01*
X156248075Y-72061600D02*
X156324266Y-72099695D01*
X156324266Y-72099695D02*
X156514742Y-72099695D01*
X156514742Y-72099695D02*
X156590932Y-72061600D01*
X156590932Y-72061600D02*
X156629028Y-72023504D01*
X123265999Y-61939695D02*
X123265999Y-61139695D01*
X122885047Y-61939695D02*
X122885047Y-61139695D01*
X122885047Y-61139695D02*
X122427904Y-61939695D01*
X122427904Y-61939695D02*
X122427904Y-61139695D01*
X122161238Y-61139695D02*
X121704095Y-61139695D01*
X121932667Y-61939695D02*
X121932667Y-61139695D01*
X121094571Y-61406361D02*
X121094571Y-61939695D01*
X121285047Y-61101600D02*
X121475524Y-61673028D01*
X121475524Y-61673028D02*
X120980285Y-61673028D01*
X153403189Y-64454295D02*
X153669856Y-64073342D01*
X153860332Y-64454295D02*
X153860332Y-63654295D01*
X153860332Y-63654295D02*
X153555570Y-63654295D01*
X153555570Y-63654295D02*
X153479380Y-63692390D01*
X153479380Y-63692390D02*
X153441285Y-63730485D01*
X153441285Y-63730485D02*
X153403189Y-63806676D01*
X153403189Y-63806676D02*
X153403189Y-63920961D01*
X153403189Y-63920961D02*
X153441285Y-63997152D01*
X153441285Y-63997152D02*
X153479380Y-64035247D01*
X153479380Y-64035247D02*
X153555570Y-64073342D01*
X153555570Y-64073342D02*
X153860332Y-64073342D01*
X153060332Y-64454295D02*
X153060332Y-63654295D01*
X153060332Y-63654295D02*
X152869856Y-63654295D01*
X152869856Y-63654295D02*
X152755570Y-63692390D01*
X152755570Y-63692390D02*
X152679380Y-63768580D01*
X152679380Y-63768580D02*
X152641285Y-63844771D01*
X152641285Y-63844771D02*
X152603189Y-63997152D01*
X152603189Y-63997152D02*
X152603189Y-64111438D01*
X152603189Y-64111438D02*
X152641285Y-64263819D01*
X152641285Y-64263819D02*
X152679380Y-64340009D01*
X152679380Y-64340009D02*
X152755570Y-64416200D01*
X152755570Y-64416200D02*
X152869856Y-64454295D01*
X152869856Y-64454295D02*
X153060332Y-64454295D01*
X152107951Y-64073342D02*
X152107951Y-64454295D01*
X152374618Y-63654295D02*
X152107951Y-64073342D01*
X152107951Y-64073342D02*
X151841285Y-63654295D01*
X151612714Y-63730485D02*
X151574618Y-63692390D01*
X151574618Y-63692390D02*
X151498428Y-63654295D01*
X151498428Y-63654295D02*
X151307952Y-63654295D01*
X151307952Y-63654295D02*
X151231761Y-63692390D01*
X151231761Y-63692390D02*
X151193666Y-63730485D01*
X151193666Y-63730485D02*
X151155571Y-63806676D01*
X151155571Y-63806676D02*
X151155571Y-63882866D01*
X151155571Y-63882866D02*
X151193666Y-63997152D01*
X151193666Y-63997152D02*
X151650809Y-64454295D01*
X151650809Y-64454295D02*
X151155571Y-64454295D01*
X121970761Y-74220647D02*
X121856475Y-74258742D01*
X121856475Y-74258742D02*
X121818380Y-74296838D01*
X121818380Y-74296838D02*
X121780284Y-74373028D01*
X121780284Y-74373028D02*
X121780284Y-74487314D01*
X121780284Y-74487314D02*
X121818380Y-74563504D01*
X121818380Y-74563504D02*
X121856475Y-74601600D01*
X121856475Y-74601600D02*
X121932665Y-74639695D01*
X121932665Y-74639695D02*
X122237427Y-74639695D01*
X122237427Y-74639695D02*
X122237427Y-73839695D01*
X122237427Y-73839695D02*
X121970761Y-73839695D01*
X121970761Y-73839695D02*
X121894570Y-73877790D01*
X121894570Y-73877790D02*
X121856475Y-73915885D01*
X121856475Y-73915885D02*
X121818380Y-73992076D01*
X121818380Y-73992076D02*
X121818380Y-74068266D01*
X121818380Y-74068266D02*
X121856475Y-74144457D01*
X121856475Y-74144457D02*
X121894570Y-74182552D01*
X121894570Y-74182552D02*
X121970761Y-74220647D01*
X121970761Y-74220647D02*
X122237427Y-74220647D01*
X121475523Y-73915885D02*
X121437427Y-73877790D01*
X121437427Y-73877790D02*
X121361237Y-73839695D01*
X121361237Y-73839695D02*
X121170761Y-73839695D01*
X121170761Y-73839695D02*
X121094570Y-73877790D01*
X121094570Y-73877790D02*
X121056475Y-73915885D01*
X121056475Y-73915885D02*
X121018380Y-73992076D01*
X121018380Y-73992076D02*
X121018380Y-74068266D01*
X121018380Y-74068266D02*
X121056475Y-74182552D01*
X121056475Y-74182552D02*
X121513618Y-74639695D01*
X121513618Y-74639695D02*
X121018380Y-74639695D01*
X118732275Y-63679695D02*
X118275132Y-63679695D01*
X118503704Y-64479695D02*
X118503704Y-63679695D01*
X117856084Y-63679695D02*
X117779894Y-63679695D01*
X117779894Y-63679695D02*
X117703703Y-63717790D01*
X117703703Y-63717790D02*
X117665608Y-63755885D01*
X117665608Y-63755885D02*
X117627513Y-63832076D01*
X117627513Y-63832076D02*
X117589418Y-63984457D01*
X117589418Y-63984457D02*
X117589418Y-64174933D01*
X117589418Y-64174933D02*
X117627513Y-64327314D01*
X117627513Y-64327314D02*
X117665608Y-64403504D01*
X117665608Y-64403504D02*
X117703703Y-64441600D01*
X117703703Y-64441600D02*
X117779894Y-64479695D01*
X117779894Y-64479695D02*
X117856084Y-64479695D01*
X117856084Y-64479695D02*
X117932275Y-64441600D01*
X117932275Y-64441600D02*
X117970370Y-64403504D01*
X117970370Y-64403504D02*
X118008465Y-64327314D01*
X118008465Y-64327314D02*
X118046561Y-64174933D01*
X118046561Y-64174933D02*
X118046561Y-63984457D01*
X118046561Y-63984457D02*
X118008465Y-63832076D01*
X118008465Y-63832076D02*
X117970370Y-63755885D01*
X117970370Y-63755885D02*
X117932275Y-63717790D01*
X117932275Y-63717790D02*
X117856084Y-63679695D01*
X154539876Y-102351123D02*
X154158923Y-102351123D01*
X154616066Y-102579695D02*
X154349399Y-101779695D01*
X154349399Y-101779695D02*
X154082733Y-102579695D01*
X153663685Y-101779695D02*
X153587495Y-101779695D01*
X153587495Y-101779695D02*
X153511304Y-101817790D01*
X153511304Y-101817790D02*
X153473209Y-101855885D01*
X153473209Y-101855885D02*
X153435114Y-101932076D01*
X153435114Y-101932076D02*
X153397019Y-102084457D01*
X153397019Y-102084457D02*
X153397019Y-102274933D01*
X153397019Y-102274933D02*
X153435114Y-102427314D01*
X153435114Y-102427314D02*
X153473209Y-102503504D01*
X153473209Y-102503504D02*
X153511304Y-102541600D01*
X153511304Y-102541600D02*
X153587495Y-102579695D01*
X153587495Y-102579695D02*
X153663685Y-102579695D01*
X153663685Y-102579695D02*
X153739876Y-102541600D01*
X153739876Y-102541600D02*
X153777971Y-102503504D01*
X153777971Y-102503504D02*
X153816066Y-102427314D01*
X153816066Y-102427314D02*
X153854162Y-102274933D01*
X153854162Y-102274933D02*
X153854162Y-102084457D01*
X153854162Y-102084457D02*
X153816066Y-101932076D01*
X153816066Y-101932076D02*
X153777971Y-101855885D01*
X153777971Y-101855885D02*
X153739876Y-101817790D01*
X153739876Y-101817790D02*
X153663685Y-101779695D01*
X157390932Y-79300647D02*
X157124266Y-79300647D01*
X157009980Y-79719695D02*
X157390932Y-79719695D01*
X157390932Y-79719695D02*
X157390932Y-78919695D01*
X157390932Y-78919695D02*
X157009980Y-78919695D01*
X156743313Y-78919695D02*
X156248075Y-78919695D01*
X156248075Y-78919695D02*
X156514741Y-79224457D01*
X156514741Y-79224457D02*
X156400456Y-79224457D01*
X156400456Y-79224457D02*
X156324265Y-79262552D01*
X156324265Y-79262552D02*
X156286170Y-79300647D01*
X156286170Y-79300647D02*
X156248075Y-79376838D01*
X156248075Y-79376838D02*
X156248075Y-79567314D01*
X156248075Y-79567314D02*
X156286170Y-79643504D01*
X156286170Y-79643504D02*
X156324265Y-79681600D01*
X156324265Y-79681600D02*
X156400456Y-79719695D01*
X156400456Y-79719695D02*
X156629027Y-79719695D01*
X156629027Y-79719695D02*
X156705218Y-79681600D01*
X156705218Y-79681600D02*
X156743313Y-79643504D01*
X154501780Y-84380647D02*
X154235114Y-84380647D01*
X154120828Y-84799695D02*
X154501780Y-84799695D01*
X154501780Y-84799695D02*
X154501780Y-83999695D01*
X154501780Y-83999695D02*
X154120828Y-83999695D01*
X153625589Y-83999695D02*
X153549399Y-83999695D01*
X153549399Y-83999695D02*
X153473208Y-84037790D01*
X153473208Y-84037790D02*
X153435113Y-84075885D01*
X153435113Y-84075885D02*
X153397018Y-84152076D01*
X153397018Y-84152076D02*
X153358923Y-84304457D01*
X153358923Y-84304457D02*
X153358923Y-84494933D01*
X153358923Y-84494933D02*
X153397018Y-84647314D01*
X153397018Y-84647314D02*
X153435113Y-84723504D01*
X153435113Y-84723504D02*
X153473208Y-84761600D01*
X153473208Y-84761600D02*
X153549399Y-84799695D01*
X153549399Y-84799695D02*
X153625589Y-84799695D01*
X153625589Y-84799695D02*
X153701780Y-84761600D01*
X153701780Y-84761600D02*
X153739875Y-84723504D01*
X153739875Y-84723504D02*
X153777970Y-84647314D01*
X153777970Y-84647314D02*
X153816066Y-84494933D01*
X153816066Y-84494933D02*
X153816066Y-84304457D01*
X153816066Y-84304457D02*
X153777970Y-84152076D01*
X153777970Y-84152076D02*
X153739875Y-84075885D01*
X153739875Y-84075885D02*
X153701780Y-84037790D01*
X153701780Y-84037790D02*
X153625589Y-83999695D01*
X157390932Y-89879695D02*
X157390932Y-89079695D01*
X157390932Y-89079695D02*
X157200456Y-89079695D01*
X157200456Y-89079695D02*
X157086170Y-89117790D01*
X157086170Y-89117790D02*
X157009980Y-89193980D01*
X157009980Y-89193980D02*
X156971885Y-89270171D01*
X156971885Y-89270171D02*
X156933789Y-89422552D01*
X156933789Y-89422552D02*
X156933789Y-89536838D01*
X156933789Y-89536838D02*
X156971885Y-89689219D01*
X156971885Y-89689219D02*
X157009980Y-89765409D01*
X157009980Y-89765409D02*
X157086170Y-89841600D01*
X157086170Y-89841600D02*
X157200456Y-89879695D01*
X157200456Y-89879695D02*
X157390932Y-89879695D01*
X156438551Y-89079695D02*
X156362361Y-89079695D01*
X156362361Y-89079695D02*
X156286170Y-89117790D01*
X156286170Y-89117790D02*
X156248075Y-89155885D01*
X156248075Y-89155885D02*
X156209980Y-89232076D01*
X156209980Y-89232076D02*
X156171885Y-89384457D01*
X156171885Y-89384457D02*
X156171885Y-89574933D01*
X156171885Y-89574933D02*
X156209980Y-89727314D01*
X156209980Y-89727314D02*
X156248075Y-89803504D01*
X156248075Y-89803504D02*
X156286170Y-89841600D01*
X156286170Y-89841600D02*
X156362361Y-89879695D01*
X156362361Y-89879695D02*
X156438551Y-89879695D01*
X156438551Y-89879695D02*
X156514742Y-89841600D01*
X156514742Y-89841600D02*
X156552837Y-89803504D01*
X156552837Y-89803504D02*
X156590932Y-89727314D01*
X156590932Y-89727314D02*
X156629028Y-89574933D01*
X156629028Y-89574933D02*
X156629028Y-89384457D01*
X156629028Y-89384457D02*
X156590932Y-89232076D01*
X156590932Y-89232076D02*
X156552837Y-89155885D01*
X156552837Y-89155885D02*
X156514742Y-89117790D01*
X156514742Y-89117790D02*
X156438551Y-89079695D01*
X154501780Y-89879695D02*
X154501780Y-89079695D01*
X154501780Y-89079695D02*
X154311304Y-89079695D01*
X154311304Y-89079695D02*
X154197018Y-89117790D01*
X154197018Y-89117790D02*
X154120828Y-89193980D01*
X154120828Y-89193980D02*
X154082733Y-89270171D01*
X154082733Y-89270171D02*
X154044637Y-89422552D01*
X154044637Y-89422552D02*
X154044637Y-89536838D01*
X154044637Y-89536838D02*
X154082733Y-89689219D01*
X154082733Y-89689219D02*
X154120828Y-89765409D01*
X154120828Y-89765409D02*
X154197018Y-89841600D01*
X154197018Y-89841600D02*
X154311304Y-89879695D01*
X154311304Y-89879695D02*
X154501780Y-89879695D01*
X153282733Y-89879695D02*
X153739876Y-89879695D01*
X153511304Y-89879695D02*
X153511304Y-89079695D01*
X153511304Y-89079695D02*
X153587495Y-89193980D01*
X153587495Y-89193980D02*
X153663685Y-89270171D01*
X153663685Y-89270171D02*
X153739876Y-89308266D01*
X121780284Y-94883504D02*
X121818380Y-94921600D01*
X121818380Y-94921600D02*
X121932665Y-94959695D01*
X121932665Y-94959695D02*
X122008856Y-94959695D01*
X122008856Y-94959695D02*
X122123142Y-94921600D01*
X122123142Y-94921600D02*
X122199332Y-94845409D01*
X122199332Y-94845409D02*
X122237427Y-94769219D01*
X122237427Y-94769219D02*
X122275523Y-94616838D01*
X122275523Y-94616838D02*
X122275523Y-94502552D01*
X122275523Y-94502552D02*
X122237427Y-94350171D01*
X122237427Y-94350171D02*
X122199332Y-94273980D01*
X122199332Y-94273980D02*
X122123142Y-94197790D01*
X122123142Y-94197790D02*
X122008856Y-94159695D01*
X122008856Y-94159695D02*
X121932665Y-94159695D01*
X121932665Y-94159695D02*
X121818380Y-94197790D01*
X121818380Y-94197790D02*
X121780284Y-94235885D01*
X121018380Y-94959695D02*
X121475523Y-94959695D01*
X121246951Y-94959695D02*
X121246951Y-94159695D01*
X121246951Y-94159695D02*
X121323142Y-94273980D01*
X121323142Y-94273980D02*
X121399332Y-94350171D01*
X121399332Y-94350171D02*
X121475523Y-94388266D01*
X156933789Y-61939695D02*
X157200456Y-61558742D01*
X157390932Y-61939695D02*
X157390932Y-61139695D01*
X157390932Y-61139695D02*
X157086170Y-61139695D01*
X157086170Y-61139695D02*
X157009980Y-61177790D01*
X157009980Y-61177790D02*
X156971885Y-61215885D01*
X156971885Y-61215885D02*
X156933789Y-61292076D01*
X156933789Y-61292076D02*
X156933789Y-61406361D01*
X156933789Y-61406361D02*
X156971885Y-61482552D01*
X156971885Y-61482552D02*
X157009980Y-61520647D01*
X157009980Y-61520647D02*
X157086170Y-61558742D01*
X157086170Y-61558742D02*
X157390932Y-61558742D01*
X156590932Y-61939695D02*
X156590932Y-61139695D01*
X156590932Y-61139695D02*
X156400456Y-61139695D01*
X156400456Y-61139695D02*
X156286170Y-61177790D01*
X156286170Y-61177790D02*
X156209980Y-61253980D01*
X156209980Y-61253980D02*
X156171885Y-61330171D01*
X156171885Y-61330171D02*
X156133789Y-61482552D01*
X156133789Y-61482552D02*
X156133789Y-61596838D01*
X156133789Y-61596838D02*
X156171885Y-61749219D01*
X156171885Y-61749219D02*
X156209980Y-61825409D01*
X156209980Y-61825409D02*
X156286170Y-61901600D01*
X156286170Y-61901600D02*
X156400456Y-61939695D01*
X156400456Y-61939695D02*
X156590932Y-61939695D01*
X155638551Y-61558742D02*
X155638551Y-61939695D01*
X155905218Y-61139695D02*
X155638551Y-61558742D01*
X155638551Y-61558742D02*
X155371885Y-61139695D01*
X154724266Y-61139695D02*
X155105218Y-61139695D01*
X155105218Y-61139695D02*
X155143314Y-61520647D01*
X155143314Y-61520647D02*
X155105218Y-61482552D01*
X155105218Y-61482552D02*
X155029028Y-61444457D01*
X155029028Y-61444457D02*
X154838552Y-61444457D01*
X154838552Y-61444457D02*
X154762361Y-61482552D01*
X154762361Y-61482552D02*
X154724266Y-61520647D01*
X154724266Y-61520647D02*
X154686171Y-61596838D01*
X154686171Y-61596838D02*
X154686171Y-61787314D01*
X154686171Y-61787314D02*
X154724266Y-61863504D01*
X154724266Y-61863504D02*
X154762361Y-61901600D01*
X154762361Y-61901600D02*
X154838552Y-61939695D01*
X154838552Y-61939695D02*
X155029028Y-61939695D01*
X155029028Y-61939695D02*
X155105218Y-61901600D01*
X155105218Y-61901600D02*
X155143314Y-61863504D01*
X119608466Y-89803504D02*
X119646562Y-89841600D01*
X119646562Y-89841600D02*
X119760847Y-89879695D01*
X119760847Y-89879695D02*
X119837038Y-89879695D01*
X119837038Y-89879695D02*
X119951324Y-89841600D01*
X119951324Y-89841600D02*
X120027514Y-89765409D01*
X120027514Y-89765409D02*
X120065609Y-89689219D01*
X120065609Y-89689219D02*
X120103705Y-89536838D01*
X120103705Y-89536838D02*
X120103705Y-89422552D01*
X120103705Y-89422552D02*
X120065609Y-89270171D01*
X120065609Y-89270171D02*
X120027514Y-89193980D01*
X120027514Y-89193980D02*
X119951324Y-89117790D01*
X119951324Y-89117790D02*
X119837038Y-89079695D01*
X119837038Y-89079695D02*
X119760847Y-89079695D01*
X119760847Y-89079695D02*
X119646562Y-89117790D01*
X119646562Y-89117790D02*
X119608466Y-89155885D01*
X119379895Y-89079695D02*
X118922752Y-89079695D01*
X119151324Y-89879695D02*
X119151324Y-89079695D01*
X118275133Y-89879695D02*
X118656085Y-89879695D01*
X118656085Y-89879695D02*
X118656085Y-89079695D01*
X117665609Y-89346361D02*
X117665609Y-89879695D01*
X117856085Y-89041600D02*
X118046562Y-89613028D01*
X118046562Y-89613028D02*
X117551323Y-89613028D01*
X118351322Y-102503504D02*
X118389418Y-102541600D01*
X118389418Y-102541600D02*
X118503703Y-102579695D01*
X118503703Y-102579695D02*
X118579894Y-102579695D01*
X118579894Y-102579695D02*
X118694180Y-102541600D01*
X118694180Y-102541600D02*
X118770370Y-102465409D01*
X118770370Y-102465409D02*
X118808465Y-102389219D01*
X118808465Y-102389219D02*
X118846561Y-102236838D01*
X118846561Y-102236838D02*
X118846561Y-102122552D01*
X118846561Y-102122552D02*
X118808465Y-101970171D01*
X118808465Y-101970171D02*
X118770370Y-101893980D01*
X118770370Y-101893980D02*
X118694180Y-101817790D01*
X118694180Y-101817790D02*
X118579894Y-101779695D01*
X118579894Y-101779695D02*
X118503703Y-101779695D01*
X118503703Y-101779695D02*
X118389418Y-101817790D01*
X118389418Y-101817790D02*
X118351322Y-101855885D01*
X117665608Y-101779695D02*
X117817989Y-101779695D01*
X117817989Y-101779695D02*
X117894180Y-101817790D01*
X117894180Y-101817790D02*
X117932275Y-101855885D01*
X117932275Y-101855885D02*
X118008465Y-101970171D01*
X118008465Y-101970171D02*
X118046561Y-102122552D01*
X118046561Y-102122552D02*
X118046561Y-102427314D01*
X118046561Y-102427314D02*
X118008465Y-102503504D01*
X118008465Y-102503504D02*
X117970370Y-102541600D01*
X117970370Y-102541600D02*
X117894180Y-102579695D01*
X117894180Y-102579695D02*
X117741799Y-102579695D01*
X117741799Y-102579695D02*
X117665608Y-102541600D01*
X117665608Y-102541600D02*
X117627513Y-102503504D01*
X117627513Y-102503504D02*
X117589418Y-102427314D01*
X117589418Y-102427314D02*
X117589418Y-102236838D01*
X117589418Y-102236838D02*
X117627513Y-102160647D01*
X117627513Y-102160647D02*
X117665608Y-102122552D01*
X117665608Y-102122552D02*
X117741799Y-102084457D01*
X117741799Y-102084457D02*
X117894180Y-102084457D01*
X117894180Y-102084457D02*
X117970370Y-102122552D01*
X117970370Y-102122552D02*
X118008465Y-102160647D01*
X118008465Y-102160647D02*
X118046561Y-102236838D01*
X157390933Y-84799695D02*
X157390933Y-83999695D01*
X157009981Y-84799695D02*
X157009981Y-83999695D01*
X157009981Y-83999695D02*
X156552838Y-84799695D01*
X156552838Y-84799695D02*
X156552838Y-83999695D01*
X156286172Y-83999695D02*
X155829029Y-83999695D01*
X156057601Y-84799695D02*
X156057601Y-83999695D01*
X155181410Y-83999695D02*
X155562362Y-83999695D01*
X155562362Y-83999695D02*
X155600458Y-84380647D01*
X155600458Y-84380647D02*
X155562362Y-84342552D01*
X155562362Y-84342552D02*
X155486172Y-84304457D01*
X155486172Y-84304457D02*
X155295696Y-84304457D01*
X155295696Y-84304457D02*
X155219505Y-84342552D01*
X155219505Y-84342552D02*
X155181410Y-84380647D01*
X155181410Y-84380647D02*
X155143315Y-84456838D01*
X155143315Y-84456838D02*
X155143315Y-84647314D01*
X155143315Y-84647314D02*
X155181410Y-84723504D01*
X155181410Y-84723504D02*
X155219505Y-84761600D01*
X155219505Y-84761600D02*
X155295696Y-84799695D01*
X155295696Y-84799695D02*
X155486172Y-84799695D01*
X155486172Y-84799695D02*
X155562362Y-84761600D01*
X155562362Y-84761600D02*
X155600458Y-84723504D01*
X121780284Y-99963504D02*
X121818380Y-100001600D01*
X121818380Y-100001600D02*
X121932665Y-100039695D01*
X121932665Y-100039695D02*
X122008856Y-100039695D01*
X122008856Y-100039695D02*
X122123142Y-100001600D01*
X122123142Y-100001600D02*
X122199332Y-99925409D01*
X122199332Y-99925409D02*
X122237427Y-99849219D01*
X122237427Y-99849219D02*
X122275523Y-99696838D01*
X122275523Y-99696838D02*
X122275523Y-99582552D01*
X122275523Y-99582552D02*
X122237427Y-99430171D01*
X122237427Y-99430171D02*
X122199332Y-99353980D01*
X122199332Y-99353980D02*
X122123142Y-99277790D01*
X122123142Y-99277790D02*
X122008856Y-99239695D01*
X122008856Y-99239695D02*
X121932665Y-99239695D01*
X121932665Y-99239695D02*
X121818380Y-99277790D01*
X121818380Y-99277790D02*
X121780284Y-99315885D01*
X121056475Y-99239695D02*
X121437427Y-99239695D01*
X121437427Y-99239695D02*
X121475523Y-99620647D01*
X121475523Y-99620647D02*
X121437427Y-99582552D01*
X121437427Y-99582552D02*
X121361237Y-99544457D01*
X121361237Y-99544457D02*
X121170761Y-99544457D01*
X121170761Y-99544457D02*
X121094570Y-99582552D01*
X121094570Y-99582552D02*
X121056475Y-99620647D01*
X121056475Y-99620647D02*
X121018380Y-99696838D01*
X121018380Y-99696838D02*
X121018380Y-99887314D01*
X121018380Y-99887314D02*
X121056475Y-99963504D01*
X121056475Y-99963504D02*
X121094570Y-100001600D01*
X121094570Y-100001600D02*
X121170761Y-100039695D01*
X121170761Y-100039695D02*
X121361237Y-100039695D01*
X121361237Y-100039695D02*
X121437427Y-100001600D01*
X121437427Y-100001600D02*
X121475523Y-99963504D01*
X119532276Y-61139695D02*
X119037038Y-61139695D01*
X119037038Y-61139695D02*
X119303704Y-61444457D01*
X119303704Y-61444457D02*
X119189419Y-61444457D01*
X119189419Y-61444457D02*
X119113228Y-61482552D01*
X119113228Y-61482552D02*
X119075133Y-61520647D01*
X119075133Y-61520647D02*
X119037038Y-61596838D01*
X119037038Y-61596838D02*
X119037038Y-61787314D01*
X119037038Y-61787314D02*
X119075133Y-61863504D01*
X119075133Y-61863504D02*
X119113228Y-61901600D01*
X119113228Y-61901600D02*
X119189419Y-61939695D01*
X119189419Y-61939695D02*
X119417990Y-61939695D01*
X119417990Y-61939695D02*
X119494181Y-61901600D01*
X119494181Y-61901600D02*
X119532276Y-61863504D01*
X118808466Y-61139695D02*
X118541799Y-61939695D01*
X118541799Y-61939695D02*
X118275133Y-61139695D01*
X118084657Y-61139695D02*
X117589419Y-61139695D01*
X117589419Y-61139695D02*
X117856085Y-61444457D01*
X117856085Y-61444457D02*
X117741800Y-61444457D01*
X117741800Y-61444457D02*
X117665609Y-61482552D01*
X117665609Y-61482552D02*
X117627514Y-61520647D01*
X117627514Y-61520647D02*
X117589419Y-61596838D01*
X117589419Y-61596838D02*
X117589419Y-61787314D01*
X117589419Y-61787314D02*
X117627514Y-61863504D01*
X117627514Y-61863504D02*
X117665609Y-61901600D01*
X117665609Y-61901600D02*
X117741800Y-61939695D01*
X117741800Y-61939695D02*
X117970371Y-61939695D01*
X117970371Y-61939695D02*
X118046562Y-61901600D01*
X118046562Y-61901600D02*
X118084657Y-61863504D01*
X119608466Y-92343504D02*
X119646562Y-92381600D01*
X119646562Y-92381600D02*
X119760847Y-92419695D01*
X119760847Y-92419695D02*
X119837038Y-92419695D01*
X119837038Y-92419695D02*
X119951324Y-92381600D01*
X119951324Y-92381600D02*
X120027514Y-92305409D01*
X120027514Y-92305409D02*
X120065609Y-92229219D01*
X120065609Y-92229219D02*
X120103705Y-92076838D01*
X120103705Y-92076838D02*
X120103705Y-91962552D01*
X120103705Y-91962552D02*
X120065609Y-91810171D01*
X120065609Y-91810171D02*
X120027514Y-91733980D01*
X120027514Y-91733980D02*
X119951324Y-91657790D01*
X119951324Y-91657790D02*
X119837038Y-91619695D01*
X119837038Y-91619695D02*
X119760847Y-91619695D01*
X119760847Y-91619695D02*
X119646562Y-91657790D01*
X119646562Y-91657790D02*
X119608466Y-91695885D01*
X119379895Y-91619695D02*
X118922752Y-91619695D01*
X119151324Y-92419695D02*
X119151324Y-91619695D01*
X118275133Y-92419695D02*
X118656085Y-92419695D01*
X118656085Y-92419695D02*
X118656085Y-91619695D01*
X117589419Y-92419695D02*
X118046562Y-92419695D01*
X117817990Y-92419695D02*
X117817990Y-91619695D01*
X117817990Y-91619695D02*
X117894181Y-91733980D01*
X117894181Y-91733980D02*
X117970371Y-91810171D01*
X117970371Y-91810171D02*
X118046562Y-91848266D01*
X154044638Y-92318104D02*
X154082734Y-92356200D01*
X154082734Y-92356200D02*
X154197019Y-92394295D01*
X154197019Y-92394295D02*
X154273210Y-92394295D01*
X154273210Y-92394295D02*
X154387496Y-92356200D01*
X154387496Y-92356200D02*
X154463686Y-92280009D01*
X154463686Y-92280009D02*
X154501781Y-92203819D01*
X154501781Y-92203819D02*
X154539877Y-92051438D01*
X154539877Y-92051438D02*
X154539877Y-91937152D01*
X154539877Y-91937152D02*
X154501781Y-91784771D01*
X154501781Y-91784771D02*
X154463686Y-91708580D01*
X154463686Y-91708580D02*
X154387496Y-91632390D01*
X154387496Y-91632390D02*
X154273210Y-91594295D01*
X154273210Y-91594295D02*
X154197019Y-91594295D01*
X154197019Y-91594295D02*
X154082734Y-91632390D01*
X154082734Y-91632390D02*
X154044638Y-91670485D01*
X153816067Y-91594295D02*
X153358924Y-91594295D01*
X153587496Y-92394295D02*
X153587496Y-91594295D01*
X152711305Y-92394295D02*
X153092257Y-92394295D01*
X153092257Y-92394295D02*
X153092257Y-91594295D01*
X152063686Y-91594295D02*
X152444638Y-91594295D01*
X152444638Y-91594295D02*
X152482734Y-91975247D01*
X152482734Y-91975247D02*
X152444638Y-91937152D01*
X152444638Y-91937152D02*
X152368448Y-91899057D01*
X152368448Y-91899057D02*
X152177972Y-91899057D01*
X152177972Y-91899057D02*
X152101781Y-91937152D01*
X152101781Y-91937152D02*
X152063686Y-91975247D01*
X152063686Y-91975247D02*
X152025591Y-92051438D01*
X152025591Y-92051438D02*
X152025591Y-92241914D01*
X152025591Y-92241914D02*
X152063686Y-92318104D01*
X152063686Y-92318104D02*
X152101781Y-92356200D01*
X152101781Y-92356200D02*
X152177972Y-92394295D01*
X152177972Y-92394295D02*
X152368448Y-92394295D01*
X152368448Y-92394295D02*
X152444638Y-92356200D01*
X152444638Y-92356200D02*
X152482734Y-92318104D01*
X157429028Y-97271123D02*
X157048075Y-97271123D01*
X157505218Y-97499695D02*
X157238551Y-96699695D01*
X157238551Y-96699695D02*
X156971885Y-97499695D01*
X156324266Y-96699695D02*
X156705218Y-96699695D01*
X156705218Y-96699695D02*
X156743314Y-97080647D01*
X156743314Y-97080647D02*
X156705218Y-97042552D01*
X156705218Y-97042552D02*
X156629028Y-97004457D01*
X156629028Y-97004457D02*
X156438552Y-97004457D01*
X156438552Y-97004457D02*
X156362361Y-97042552D01*
X156362361Y-97042552D02*
X156324266Y-97080647D01*
X156324266Y-97080647D02*
X156286171Y-97156838D01*
X156286171Y-97156838D02*
X156286171Y-97347314D01*
X156286171Y-97347314D02*
X156324266Y-97423504D01*
X156324266Y-97423504D02*
X156362361Y-97461600D01*
X156362361Y-97461600D02*
X156438552Y-97499695D01*
X156438552Y-97499695D02*
X156629028Y-97499695D01*
X156629028Y-97499695D02*
X156705218Y-97461600D01*
X156705218Y-97461600D02*
X156743314Y-97423504D01*
X119056085Y-77154295D02*
X119322752Y-76773342D01*
X119513228Y-77154295D02*
X119513228Y-76354295D01*
X119513228Y-76354295D02*
X119208466Y-76354295D01*
X119208466Y-76354295D02*
X119132276Y-76392390D01*
X119132276Y-76392390D02*
X119094181Y-76430485D01*
X119094181Y-76430485D02*
X119056085Y-76506676D01*
X119056085Y-76506676D02*
X119056085Y-76620961D01*
X119056085Y-76620961D02*
X119094181Y-76697152D01*
X119094181Y-76697152D02*
X119132276Y-76735247D01*
X119132276Y-76735247D02*
X119208466Y-76773342D01*
X119208466Y-76773342D02*
X119513228Y-76773342D01*
X118789419Y-76354295D02*
X118256085Y-77154295D01*
X118256085Y-76354295D02*
X118789419Y-77154295D01*
X117798942Y-76354295D02*
X117722752Y-76354295D01*
X117722752Y-76354295D02*
X117646561Y-76392390D01*
X117646561Y-76392390D02*
X117608466Y-76430485D01*
X117608466Y-76430485D02*
X117570371Y-76506676D01*
X117570371Y-76506676D02*
X117532276Y-76659057D01*
X117532276Y-76659057D02*
X117532276Y-76849533D01*
X117532276Y-76849533D02*
X117570371Y-77001914D01*
X117570371Y-77001914D02*
X117608466Y-77078104D01*
X117608466Y-77078104D02*
X117646561Y-77116200D01*
X117646561Y-77116200D02*
X117722752Y-77154295D01*
X117722752Y-77154295D02*
X117798942Y-77154295D01*
X117798942Y-77154295D02*
X117875133Y-77116200D01*
X117875133Y-77116200D02*
X117913228Y-77078104D01*
X117913228Y-77078104D02*
X117951323Y-77001914D01*
X117951323Y-77001914D02*
X117989419Y-76849533D01*
X117989419Y-76849533D02*
X117989419Y-76659057D01*
X117989419Y-76659057D02*
X117951323Y-76506676D01*
X117951323Y-76506676D02*
X117913228Y-76430485D01*
X117913228Y-76430485D02*
X117875133Y-76392390D01*
X117875133Y-76392390D02*
X117798942Y-76354295D01*
X154539876Y-99811123D02*
X154158923Y-99811123D01*
X154616066Y-100039695D02*
X154349399Y-99239695D01*
X154349399Y-99239695D02*
X154082733Y-100039695D01*
X153854162Y-99315885D02*
X153816066Y-99277790D01*
X153816066Y-99277790D02*
X153739876Y-99239695D01*
X153739876Y-99239695D02*
X153549400Y-99239695D01*
X153549400Y-99239695D02*
X153473209Y-99277790D01*
X153473209Y-99277790D02*
X153435114Y-99315885D01*
X153435114Y-99315885D02*
X153397019Y-99392076D01*
X153397019Y-99392076D02*
X153397019Y-99468266D01*
X153397019Y-99468266D02*
X153435114Y-99582552D01*
X153435114Y-99582552D02*
X153892257Y-100039695D01*
X153892257Y-100039695D02*
X153397019Y-100039695D01*
X154539876Y-97271123D02*
X154158923Y-97271123D01*
X154616066Y-97499695D02*
X154349399Y-96699695D01*
X154349399Y-96699695D02*
X154082733Y-97499695D01*
X153473209Y-96966361D02*
X153473209Y-97499695D01*
X153663685Y-96661600D02*
X153854162Y-97233028D01*
X153854162Y-97233028D02*
X153358923Y-97233028D01*
X154501780Y-74639695D02*
X154501780Y-73839695D01*
X154501780Y-73839695D02*
X154311304Y-73839695D01*
X154311304Y-73839695D02*
X154197018Y-73877790D01*
X154197018Y-73877790D02*
X154120828Y-73953980D01*
X154120828Y-73953980D02*
X154082733Y-74030171D01*
X154082733Y-74030171D02*
X154044637Y-74182552D01*
X154044637Y-74182552D02*
X154044637Y-74296838D01*
X154044637Y-74296838D02*
X154082733Y-74449219D01*
X154082733Y-74449219D02*
X154120828Y-74525409D01*
X154120828Y-74525409D02*
X154197018Y-74601600D01*
X154197018Y-74601600D02*
X154311304Y-74639695D01*
X154311304Y-74639695D02*
X154501780Y-74639695D01*
X153358923Y-74106361D02*
X153358923Y-74639695D01*
X153549399Y-73801600D02*
X153739876Y-74373028D01*
X153739876Y-74373028D02*
X153244637Y-74373028D01*
X119494181Y-69496200D02*
X119379895Y-69534295D01*
X119379895Y-69534295D02*
X119189419Y-69534295D01*
X119189419Y-69534295D02*
X119113228Y-69496200D01*
X119113228Y-69496200D02*
X119075133Y-69458104D01*
X119075133Y-69458104D02*
X119037038Y-69381914D01*
X119037038Y-69381914D02*
X119037038Y-69305723D01*
X119037038Y-69305723D02*
X119075133Y-69229533D01*
X119075133Y-69229533D02*
X119113228Y-69191438D01*
X119113228Y-69191438D02*
X119189419Y-69153342D01*
X119189419Y-69153342D02*
X119341800Y-69115247D01*
X119341800Y-69115247D02*
X119417990Y-69077152D01*
X119417990Y-69077152D02*
X119456085Y-69039057D01*
X119456085Y-69039057D02*
X119494181Y-68962866D01*
X119494181Y-68962866D02*
X119494181Y-68886676D01*
X119494181Y-68886676D02*
X119456085Y-68810485D01*
X119456085Y-68810485D02*
X119417990Y-68772390D01*
X119417990Y-68772390D02*
X119341800Y-68734295D01*
X119341800Y-68734295D02*
X119151323Y-68734295D01*
X119151323Y-68734295D02*
X119037038Y-68772390D01*
X118237037Y-69458104D02*
X118275133Y-69496200D01*
X118275133Y-69496200D02*
X118389418Y-69534295D01*
X118389418Y-69534295D02*
X118465609Y-69534295D01*
X118465609Y-69534295D02*
X118579895Y-69496200D01*
X118579895Y-69496200D02*
X118656085Y-69420009D01*
X118656085Y-69420009D02*
X118694180Y-69343819D01*
X118694180Y-69343819D02*
X118732276Y-69191438D01*
X118732276Y-69191438D02*
X118732276Y-69077152D01*
X118732276Y-69077152D02*
X118694180Y-68924771D01*
X118694180Y-68924771D02*
X118656085Y-68848580D01*
X118656085Y-68848580D02*
X118579895Y-68772390D01*
X118579895Y-68772390D02*
X118465609Y-68734295D01*
X118465609Y-68734295D02*
X118389418Y-68734295D01*
X118389418Y-68734295D02*
X118275133Y-68772390D01*
X118275133Y-68772390D02*
X118237037Y-68810485D01*
X117513228Y-69534295D02*
X117894180Y-69534295D01*
X117894180Y-69534295D02*
X117894180Y-68734295D01*
X154501780Y-87339695D02*
X154501780Y-86539695D01*
X154501780Y-86539695D02*
X154311304Y-86539695D01*
X154311304Y-86539695D02*
X154197018Y-86577790D01*
X154197018Y-86577790D02*
X154120828Y-86653980D01*
X154120828Y-86653980D02*
X154082733Y-86730171D01*
X154082733Y-86730171D02*
X154044637Y-86882552D01*
X154044637Y-86882552D02*
X154044637Y-86996838D01*
X154044637Y-86996838D02*
X154082733Y-87149219D01*
X154082733Y-87149219D02*
X154120828Y-87225409D01*
X154120828Y-87225409D02*
X154197018Y-87301600D01*
X154197018Y-87301600D02*
X154311304Y-87339695D01*
X154311304Y-87339695D02*
X154501780Y-87339695D01*
X153777971Y-86539695D02*
X153282733Y-86539695D01*
X153282733Y-86539695D02*
X153549399Y-86844457D01*
X153549399Y-86844457D02*
X153435114Y-86844457D01*
X153435114Y-86844457D02*
X153358923Y-86882552D01*
X153358923Y-86882552D02*
X153320828Y-86920647D01*
X153320828Y-86920647D02*
X153282733Y-86996838D01*
X153282733Y-86996838D02*
X153282733Y-87187314D01*
X153282733Y-87187314D02*
X153320828Y-87263504D01*
X153320828Y-87263504D02*
X153358923Y-87301600D01*
X153358923Y-87301600D02*
X153435114Y-87339695D01*
X153435114Y-87339695D02*
X153663685Y-87339695D01*
X153663685Y-87339695D02*
X153739876Y-87301600D01*
X153739876Y-87301600D02*
X153777971Y-87263504D01*
X154501780Y-79300647D02*
X154235114Y-79300647D01*
X154120828Y-79719695D02*
X154501780Y-79719695D01*
X154501780Y-79719695D02*
X154501780Y-78919695D01*
X154501780Y-78919695D02*
X154120828Y-78919695D01*
X153435113Y-79186361D02*
X153435113Y-79719695D01*
X153625589Y-78881600D02*
X153816066Y-79453028D01*
X153816066Y-79453028D02*
X153320827Y-79453028D01*
X153403189Y-67019695D02*
X153669856Y-66638742D01*
X153860332Y-67019695D02*
X153860332Y-66219695D01*
X153860332Y-66219695D02*
X153555570Y-66219695D01*
X153555570Y-66219695D02*
X153479380Y-66257790D01*
X153479380Y-66257790D02*
X153441285Y-66295885D01*
X153441285Y-66295885D02*
X153403189Y-66372076D01*
X153403189Y-66372076D02*
X153403189Y-66486361D01*
X153403189Y-66486361D02*
X153441285Y-66562552D01*
X153441285Y-66562552D02*
X153479380Y-66600647D01*
X153479380Y-66600647D02*
X153555570Y-66638742D01*
X153555570Y-66638742D02*
X153860332Y-66638742D01*
X153060332Y-67019695D02*
X153060332Y-66219695D01*
X153060332Y-66219695D02*
X152869856Y-66219695D01*
X152869856Y-66219695D02*
X152755570Y-66257790D01*
X152755570Y-66257790D02*
X152679380Y-66333980D01*
X152679380Y-66333980D02*
X152641285Y-66410171D01*
X152641285Y-66410171D02*
X152603189Y-66562552D01*
X152603189Y-66562552D02*
X152603189Y-66676838D01*
X152603189Y-66676838D02*
X152641285Y-66829219D01*
X152641285Y-66829219D02*
X152679380Y-66905409D01*
X152679380Y-66905409D02*
X152755570Y-66981600D01*
X152755570Y-66981600D02*
X152869856Y-67019695D01*
X152869856Y-67019695D02*
X153060332Y-67019695D01*
X152107951Y-66638742D02*
X152107951Y-67019695D01*
X152374618Y-66219695D02*
X152107951Y-66638742D01*
X152107951Y-66638742D02*
X151841285Y-66219695D01*
X151422237Y-66219695D02*
X151346047Y-66219695D01*
X151346047Y-66219695D02*
X151269856Y-66257790D01*
X151269856Y-66257790D02*
X151231761Y-66295885D01*
X151231761Y-66295885D02*
X151193666Y-66372076D01*
X151193666Y-66372076D02*
X151155571Y-66524457D01*
X151155571Y-66524457D02*
X151155571Y-66714933D01*
X151155571Y-66714933D02*
X151193666Y-66867314D01*
X151193666Y-66867314D02*
X151231761Y-66943504D01*
X151231761Y-66943504D02*
X151269856Y-66981600D01*
X151269856Y-66981600D02*
X151346047Y-67019695D01*
X151346047Y-67019695D02*
X151422237Y-67019695D01*
X151422237Y-67019695D02*
X151498428Y-66981600D01*
X151498428Y-66981600D02*
X151536523Y-66943504D01*
X151536523Y-66943504D02*
X151574618Y-66867314D01*
X151574618Y-66867314D02*
X151612714Y-66714933D01*
X151612714Y-66714933D02*
X151612714Y-66524457D01*
X151612714Y-66524457D02*
X151574618Y-66372076D01*
X151574618Y-66372076D02*
X151536523Y-66295885D01*
X151536523Y-66295885D02*
X151498428Y-66257790D01*
X151498428Y-66257790D02*
X151422237Y-66219695D01*
X123037428Y-89778104D02*
X123075524Y-89816200D01*
X123075524Y-89816200D02*
X123189809Y-89854295D01*
X123189809Y-89854295D02*
X123266000Y-89854295D01*
X123266000Y-89854295D02*
X123380286Y-89816200D01*
X123380286Y-89816200D02*
X123456476Y-89740009D01*
X123456476Y-89740009D02*
X123494571Y-89663819D01*
X123494571Y-89663819D02*
X123532667Y-89511438D01*
X123532667Y-89511438D02*
X123532667Y-89397152D01*
X123532667Y-89397152D02*
X123494571Y-89244771D01*
X123494571Y-89244771D02*
X123456476Y-89168580D01*
X123456476Y-89168580D02*
X123380286Y-89092390D01*
X123380286Y-89092390D02*
X123266000Y-89054295D01*
X123266000Y-89054295D02*
X123189809Y-89054295D01*
X123189809Y-89054295D02*
X123075524Y-89092390D01*
X123075524Y-89092390D02*
X123037428Y-89130485D01*
X122808857Y-89054295D02*
X122351714Y-89054295D01*
X122580286Y-89854295D02*
X122580286Y-89054295D01*
X121704095Y-89854295D02*
X122085047Y-89854295D01*
X122085047Y-89854295D02*
X122085047Y-89054295D01*
X121285047Y-89054295D02*
X121208857Y-89054295D01*
X121208857Y-89054295D02*
X121132666Y-89092390D01*
X121132666Y-89092390D02*
X121094571Y-89130485D01*
X121094571Y-89130485D02*
X121056476Y-89206676D01*
X121056476Y-89206676D02*
X121018381Y-89359057D01*
X121018381Y-89359057D02*
X121018381Y-89549533D01*
X121018381Y-89549533D02*
X121056476Y-89701914D01*
X121056476Y-89701914D02*
X121094571Y-89778104D01*
X121094571Y-89778104D02*
X121132666Y-89816200D01*
X121132666Y-89816200D02*
X121208857Y-89854295D01*
X121208857Y-89854295D02*
X121285047Y-89854295D01*
X121285047Y-89854295D02*
X121361238Y-89816200D01*
X121361238Y-89816200D02*
X121399333Y-89778104D01*
X121399333Y-89778104D02*
X121437428Y-89701914D01*
X121437428Y-89701914D02*
X121475524Y-89549533D01*
X121475524Y-89549533D02*
X121475524Y-89359057D01*
X121475524Y-89359057D02*
X121437428Y-89206676D01*
X121437428Y-89206676D02*
X121399333Y-89130485D01*
X121399333Y-89130485D02*
X121361238Y-89092390D01*
X121361238Y-89092390D02*
X121285047Y-89054295D01*
X154044637Y-69483504D02*
X154082733Y-69521600D01*
X154082733Y-69521600D02*
X154197018Y-69559695D01*
X154197018Y-69559695D02*
X154273209Y-69559695D01*
X154273209Y-69559695D02*
X154387495Y-69521600D01*
X154387495Y-69521600D02*
X154463685Y-69445409D01*
X154463685Y-69445409D02*
X154501780Y-69369219D01*
X154501780Y-69369219D02*
X154539876Y-69216838D01*
X154539876Y-69216838D02*
X154539876Y-69102552D01*
X154539876Y-69102552D02*
X154501780Y-68950171D01*
X154501780Y-68950171D02*
X154463685Y-68873980D01*
X154463685Y-68873980D02*
X154387495Y-68797790D01*
X154387495Y-68797790D02*
X154273209Y-68759695D01*
X154273209Y-68759695D02*
X154197018Y-68759695D01*
X154197018Y-68759695D02*
X154082733Y-68797790D01*
X154082733Y-68797790D02*
X154044637Y-68835885D01*
X153320828Y-69559695D02*
X153701780Y-69559695D01*
X153701780Y-69559695D02*
X153701780Y-68759695D01*
X153054161Y-69559695D02*
X153054161Y-68759695D01*
X152597018Y-69559695D02*
X152939876Y-69102552D01*
X152597018Y-68759695D02*
X153054161Y-69216838D01*
X152101780Y-68759695D02*
X151949399Y-68759695D01*
X151949399Y-68759695D02*
X151873209Y-68797790D01*
X151873209Y-68797790D02*
X151797018Y-68873980D01*
X151797018Y-68873980D02*
X151758923Y-69026361D01*
X151758923Y-69026361D02*
X151758923Y-69293028D01*
X151758923Y-69293028D02*
X151797018Y-69445409D01*
X151797018Y-69445409D02*
X151873209Y-69521600D01*
X151873209Y-69521600D02*
X151949399Y-69559695D01*
X151949399Y-69559695D02*
X152101780Y-69559695D01*
X152101780Y-69559695D02*
X152177971Y-69521600D01*
X152177971Y-69521600D02*
X152254161Y-69445409D01*
X152254161Y-69445409D02*
X152292257Y-69293028D01*
X152292257Y-69293028D02*
X152292257Y-69026361D01*
X152292257Y-69026361D02*
X152254161Y-68873980D01*
X152254161Y-68873980D02*
X152177971Y-68797790D01*
X152177971Y-68797790D02*
X152101780Y-68759695D01*
X151416066Y-68759695D02*
X151416066Y-69407314D01*
X151416066Y-69407314D02*
X151377971Y-69483504D01*
X151377971Y-69483504D02*
X151339876Y-69521600D01*
X151339876Y-69521600D02*
X151263685Y-69559695D01*
X151263685Y-69559695D02*
X151111304Y-69559695D01*
X151111304Y-69559695D02*
X151035114Y-69521600D01*
X151035114Y-69521600D02*
X150997019Y-69483504D01*
X150997019Y-69483504D02*
X150958923Y-69407314D01*
X150958923Y-69407314D02*
X150958923Y-68759695D01*
X150692257Y-68759695D02*
X150235114Y-68759695D01*
X150463686Y-69559695D02*
X150463686Y-68759695D01*
X122459638Y-76354295D02*
X122002495Y-76354295D01*
X122231067Y-77154295D02*
X122231067Y-76354295D01*
X121812019Y-76354295D02*
X121278685Y-77154295D01*
X121278685Y-76354295D02*
X121812019Y-77154295D01*
X120821542Y-76354295D02*
X120745352Y-76354295D01*
X120745352Y-76354295D02*
X120669161Y-76392390D01*
X120669161Y-76392390D02*
X120631066Y-76430485D01*
X120631066Y-76430485D02*
X120592971Y-76506676D01*
X120592971Y-76506676D02*
X120554876Y-76659057D01*
X120554876Y-76659057D02*
X120554876Y-76849533D01*
X120554876Y-76849533D02*
X120592971Y-77001914D01*
X120592971Y-77001914D02*
X120631066Y-77078104D01*
X120631066Y-77078104D02*
X120669161Y-77116200D01*
X120669161Y-77116200D02*
X120745352Y-77154295D01*
X120745352Y-77154295D02*
X120821542Y-77154295D01*
X120821542Y-77154295D02*
X120897733Y-77116200D01*
X120897733Y-77116200D02*
X120935828Y-77078104D01*
X120935828Y-77078104D02*
X120973923Y-77001914D01*
X120973923Y-77001914D02*
X121012019Y-76849533D01*
X121012019Y-76849533D02*
X121012019Y-76659057D01*
X121012019Y-76659057D02*
X120973923Y-76506676D01*
X120973923Y-76506676D02*
X120935828Y-76430485D01*
X120935828Y-76430485D02*
X120897733Y-76392390D01*
X120897733Y-76392390D02*
X120821542Y-76354295D01*
X122459638Y-78894295D02*
X122002495Y-78894295D01*
X122231067Y-79694295D02*
X122231067Y-78894295D01*
X121812019Y-78894295D02*
X121278685Y-79694295D01*
X121278685Y-78894295D02*
X121812019Y-79694295D01*
X120554876Y-79694295D02*
X121012019Y-79694295D01*
X120783447Y-79694295D02*
X120783447Y-78894295D01*
X120783447Y-78894295D02*
X120859638Y-79008580D01*
X120859638Y-79008580D02*
X120935828Y-79084771D01*
X120935828Y-79084771D02*
X121012019Y-79122866D01*
X157390932Y-74220647D02*
X157124266Y-74220647D01*
X157009980Y-74639695D02*
X157390932Y-74639695D01*
X157390932Y-74639695D02*
X157390932Y-73839695D01*
X157390932Y-73839695D02*
X157009980Y-73839695D01*
X156743313Y-73839695D02*
X156209979Y-73839695D01*
X156209979Y-73839695D02*
X156552837Y-74639695D01*
X157390932Y-87339695D02*
X157390932Y-86539695D01*
X157390932Y-86539695D02*
X157200456Y-86539695D01*
X157200456Y-86539695D02*
X157086170Y-86577790D01*
X157086170Y-86577790D02*
X157009980Y-86653980D01*
X157009980Y-86653980D02*
X156971885Y-86730171D01*
X156971885Y-86730171D02*
X156933789Y-86882552D01*
X156933789Y-86882552D02*
X156933789Y-86996838D01*
X156933789Y-86996838D02*
X156971885Y-87149219D01*
X156971885Y-87149219D02*
X157009980Y-87225409D01*
X157009980Y-87225409D02*
X157086170Y-87301600D01*
X157086170Y-87301600D02*
X157200456Y-87339695D01*
X157200456Y-87339695D02*
X157390932Y-87339695D01*
X156629028Y-86615885D02*
X156590932Y-86577790D01*
X156590932Y-86577790D02*
X156514742Y-86539695D01*
X156514742Y-86539695D02*
X156324266Y-86539695D01*
X156324266Y-86539695D02*
X156248075Y-86577790D01*
X156248075Y-86577790D02*
X156209980Y-86615885D01*
X156209980Y-86615885D02*
X156171885Y-86692076D01*
X156171885Y-86692076D02*
X156171885Y-86768266D01*
X156171885Y-86768266D02*
X156209980Y-86882552D01*
X156209980Y-86882552D02*
X156667123Y-87339695D01*
X156667123Y-87339695D02*
X156171885Y-87339695D01*
%TO.C,kibuzzard-64365B80*%
G36*
X118614354Y-58698606D02*
G01*
X118642929Y-58702575D01*
X118642929Y-59362975D01*
X118625467Y-59364563D01*
X118608004Y-59364563D01*
X118496086Y-59339162D01*
X118423061Y-59269313D01*
X118383373Y-59163744D01*
X118374443Y-59099648D01*
X118371467Y-59029600D01*
X118380992Y-58905775D01*
X118414329Y-58799413D01*
X118479417Y-58725594D01*
X118585779Y-58697813D01*
X118614354Y-58698606D01*
G37*
G36*
X120660544Y-58396940D02*
G01*
X120781552Y-58433648D01*
X120893073Y-58493257D01*
X120990822Y-58573478D01*
X121071043Y-58671227D01*
X121130653Y-58782748D01*
X121167360Y-58903756D01*
X121179754Y-59029600D01*
X121167360Y-59155444D01*
X121130653Y-59276452D01*
X121071043Y-59387973D01*
X120990822Y-59485722D01*
X120893073Y-59565943D01*
X120781552Y-59625552D01*
X120660544Y-59662260D01*
X120534700Y-59674654D01*
X120468554Y-59674654D01*
X120066917Y-59674654D01*
X119154104Y-59674654D01*
X118628642Y-59674654D01*
X118173029Y-59674654D01*
X117974592Y-59674654D01*
X117848748Y-59662260D01*
X117727740Y-59625552D01*
X117616219Y-59565943D01*
X117518470Y-59485722D01*
X117438249Y-59387973D01*
X117378639Y-59276452D01*
X117341932Y-59155444D01*
X117329538Y-59029600D01*
X118173029Y-59029600D01*
X118181562Y-59156005D01*
X118207161Y-59262169D01*
X118247840Y-59349283D01*
X118301617Y-59418538D01*
X118367697Y-59470727D01*
X118445286Y-59506644D01*
X118532797Y-59527480D01*
X118628642Y-59534425D01*
X118731036Y-59528869D01*
X118838192Y-59510613D01*
X118838192Y-58551763D01*
X118754583Y-58539063D01*
X118996942Y-58539063D01*
X118996942Y-59521725D01*
X119154104Y-59521725D01*
X119199877Y-59412805D01*
X119248296Y-59304061D01*
X119299361Y-59195494D01*
X119353071Y-59086926D01*
X119409427Y-58978183D01*
X119468429Y-58869263D01*
X119468429Y-59521725D01*
X119644642Y-59521725D01*
X119644642Y-58588275D01*
X119774817Y-58588275D01*
X119825617Y-58743850D01*
X119911342Y-58704163D01*
X120016117Y-58686700D01*
X120133592Y-58712100D01*
X120212173Y-58782744D01*
X120256623Y-58890694D01*
X120266743Y-58956773D01*
X120270117Y-59029600D01*
X120263943Y-59136756D01*
X120245422Y-59223275D01*
X120214554Y-59289156D01*
X120145895Y-59351664D01*
X120051042Y-59372500D01*
X120012942Y-59370913D01*
X119974842Y-59366150D01*
X119974842Y-59007375D01*
X119779579Y-59007375D01*
X119779579Y-59497913D01*
X119888323Y-59526488D01*
X119969881Y-59538394D01*
X120066917Y-59542363D01*
X120154428Y-59534227D01*
X120232811Y-59509819D01*
X120301272Y-59469338D01*
X120359017Y-59412981D01*
X120405451Y-59340750D01*
X120439979Y-59252644D01*
X120461411Y-59148861D01*
X120468554Y-59029600D01*
X120460220Y-58911530D01*
X120435217Y-58808144D01*
X120395926Y-58719839D01*
X120344729Y-58647013D01*
X120282420Y-58590061D01*
X120209792Y-58549381D01*
X120129226Y-58524973D01*
X120043104Y-58516838D01*
X119940711Y-58525569D01*
X119862129Y-58545413D01*
X119807361Y-58569225D01*
X119774817Y-58588275D01*
X119644642Y-58588275D01*
X119644642Y-58539063D01*
X119487479Y-58539063D01*
X119443029Y-58611889D01*
X119398579Y-58690669D01*
X119354725Y-58772227D01*
X119312061Y-58853387D01*
X119271579Y-58933159D01*
X119234273Y-59010550D01*
X119201134Y-59081988D01*
X119173154Y-59143900D01*
X119173154Y-58539063D01*
X118996942Y-58539063D01*
X118754583Y-58539063D01*
X118712779Y-58532713D01*
X118603242Y-58527950D01*
X118510572Y-58535094D01*
X118426236Y-58556525D01*
X118352218Y-58593236D01*
X118290504Y-58646219D01*
X118241093Y-58715672D01*
X118203986Y-58801794D01*
X118180768Y-58905973D01*
X118173029Y-59029600D01*
X117329538Y-59029600D01*
X117341932Y-58903756D01*
X117378639Y-58782748D01*
X117438249Y-58671227D01*
X117518470Y-58573478D01*
X117616219Y-58493257D01*
X117727740Y-58433648D01*
X117848748Y-58396940D01*
X117974592Y-58384546D01*
X118173029Y-58384546D01*
X120468554Y-58384546D01*
X120534700Y-58384546D01*
X120660544Y-58396940D01*
G37*
%TD*%
M02*
