%TF.GenerationSoftware,KiCad,Pcbnew,7.0.2-6a45011f42~172~ubuntu20.04.1*%
%TF.CreationDate,2023-04-23T14:30:36+07:00*%
%TF.ProjectId,EZ-USB-100X,455a2d55-5342-42d3-9130-30582e6b6963,rev?*%
%TF.SameCoordinates,Original*%
%TF.FileFunction,Copper,L3,Inr*%
%TF.FilePolarity,Positive*%
%FSLAX46Y46*%
G04 Gerber Fmt 4.6, Leading zero omitted, Abs format (unit mm)*
G04 Created by KiCad (PCBNEW 7.0.2-6a45011f42~172~ubuntu20.04.1) date 2023-04-23 14:30:36*
%MOMM*%
%LPD*%
G01*
G04 APERTURE LIST*
%TA.AperFunction,ComponentPad*%
%ADD10C,0.800000*%
%TD*%
%TA.AperFunction,ComponentPad*%
%ADD11C,6.400000*%
%TD*%
%TA.AperFunction,ComponentPad*%
%ADD12R,1.700000X1.700000*%
%TD*%
%TA.AperFunction,ComponentPad*%
%ADD13O,1.700000X1.700000*%
%TD*%
%TA.AperFunction,ViaPad*%
%ADD14C,0.800000*%
%TD*%
%TA.AperFunction,ViaPad*%
%ADD15C,0.300000*%
%TD*%
%TA.AperFunction,Conductor*%
%ADD16C,0.600000*%
%TD*%
G04 APERTURE END LIST*
D10*
%TO.N,GND*%
%TO.C,H4*%
X156680200Y-107253800D03*
X157383144Y-105556744D03*
X157383144Y-108950856D03*
X159080200Y-104853800D03*
D11*
X159080200Y-107253800D03*
D10*
X159080200Y-109653800D03*
X160777256Y-105556744D03*
X160777256Y-108950856D03*
X161480200Y-107253800D03*
%TD*%
%TO.N,GND*%
%TO.C,H3*%
X156680200Y-53913800D03*
X157383144Y-52216744D03*
X157383144Y-55610856D03*
X159080200Y-51513800D03*
D11*
X159080200Y-53913800D03*
D10*
X159080200Y-56313800D03*
X160777256Y-52216744D03*
X160777256Y-55610856D03*
X161480200Y-53913800D03*
%TD*%
%TO.N,GND*%
%TO.C,H2*%
X113500200Y-107253800D03*
X114203144Y-105556744D03*
X114203144Y-108950856D03*
X115900200Y-104853800D03*
D11*
X115900200Y-107253800D03*
D10*
X115900200Y-109653800D03*
X117597256Y-105556744D03*
X117597256Y-108950856D03*
X118300200Y-107253800D03*
%TD*%
D12*
%TO.N,+5V*%
%TO.C,J4*%
X159080200Y-58993800D03*
D13*
%TO.N,GND*%
X161620200Y-58993800D03*
%TO.N,/RDY4*%
X159080200Y-61533800D03*
%TO.N,/RDY5*%
X161620200Y-61533800D03*
%TO.N,/RDY2*%
X159080200Y-64073800D03*
%TO.N,/RDY3*%
X161620200Y-64073800D03*
%TO.N,/RDY0*%
X159080200Y-66613800D03*
%TO.N,/RDY1*%
X161620200Y-66613800D03*
%TO.N,/CLKOUT*%
X159080200Y-69153800D03*
%TO.N,/PD7*%
X161620200Y-69153800D03*
%TO.N,/PD6*%
X159080200Y-71693800D03*
%TO.N,/PD5*%
X161620200Y-71693800D03*
%TO.N,/PD4*%
X159080200Y-74233800D03*
%TO.N,/PE7*%
X161620200Y-74233800D03*
%TO.N,/PE6*%
X159080200Y-76773800D03*
%TO.N,/PE5*%
X161620200Y-76773800D03*
%TO.N,/PE4*%
X159080200Y-79313800D03*
%TO.N,/PE3*%
X161620200Y-79313800D03*
%TO.N,/PE2*%
X159080200Y-81853800D03*
%TO.N,/PE1*%
X161620200Y-81853800D03*
%TO.N,/PE0*%
X159080200Y-84393800D03*
%TO.N,/INT5*%
X161620200Y-84393800D03*
%TO.N,/PD3*%
X159080200Y-86933800D03*
%TO.N,/PD2*%
X161620200Y-86933800D03*
%TO.N,/PD1*%
X159080200Y-89473800D03*
%TO.N,/PD0*%
X161620200Y-89473800D03*
%TO.N,/CTL5*%
X159080200Y-92013800D03*
%TO.N,GND*%
X161620200Y-92013800D03*
%TO.N,/PA6*%
X159080200Y-94553800D03*
%TO.N,/PA7*%
X161620200Y-94553800D03*
%TO.N,/PA4*%
X159080200Y-97093800D03*
%TO.N,/PA5*%
X161620200Y-97093800D03*
%TO.N,/PA2*%
X159080200Y-99633800D03*
%TO.N,/PA3*%
X161620200Y-99633800D03*
%TO.N,/PA0*%
X159080200Y-102173800D03*
%TO.N,/PA1*%
X161620200Y-102173800D03*
%TD*%
D12*
%TO.N,Net-(D3-K)*%
%TO.C,J5*%
X125303200Y-109194600D03*
D13*
%TO.N,GND*%
X122763200Y-109194600D03*
%TD*%
D12*
%TO.N,Net-(J1-Pin_1)*%
%TO.C,J1*%
X149397800Y-109194600D03*
D13*
%TO.N,/SDA*%
X151937800Y-109194600D03*
%TD*%
D10*
%TO.N,GND*%
%TO.C,H1*%
X113500200Y-53913800D03*
X114203144Y-52216744D03*
X114203144Y-55610856D03*
X115900200Y-51513800D03*
D11*
X115900200Y-53913800D03*
D10*
X115900200Y-56313800D03*
X117597256Y-52216744D03*
X117597256Y-55610856D03*
X118300200Y-53913800D03*
%TD*%
D12*
%TO.N,GND*%
%TO.C,J3*%
X113360200Y-58993800D03*
D13*
X115900200Y-58993800D03*
%TO.N,+3V3*%
X113360200Y-61533800D03*
%TO.N,/INT4*%
X115900200Y-61533800D03*
%TO.N,/T0*%
X113360200Y-64073800D03*
%TO.N,/T1*%
X115900200Y-64073800D03*
%TO.N,/T2*%
X113360200Y-66613800D03*
%TO.N,/IFCLK*%
X115900200Y-66613800D03*
%TO.N,/SCL*%
X113360200Y-69153800D03*
%TO.N,/SDA*%
X115900200Y-69153800D03*
%TO.N,/PB1*%
X113360200Y-71693800D03*
%TO.N,/PB0*%
X115900200Y-71693800D03*
%TO.N,/PB3*%
X113360200Y-74233800D03*
%TO.N,/PB2*%
X115900200Y-74233800D03*
%TO.N,/RXD0*%
X113360200Y-76773800D03*
%TO.N,/TXD0*%
X115900200Y-76773800D03*
%TO.N,/RXD1*%
X113360200Y-79313800D03*
%TO.N,/TXD1*%
X115900200Y-79313800D03*
%TO.N,/PB5*%
X113360200Y-81853800D03*
%TO.N,/PB4*%
X115900200Y-81853800D03*
%TO.N,/PB7*%
X113360200Y-84393800D03*
%TO.N,/PB6*%
X115900200Y-84393800D03*
%TO.N,GND*%
X113360200Y-86933800D03*
%TO.N,/CTL3*%
X115900200Y-86933800D03*
%TO.N,/CTL4*%
X113360200Y-89473800D03*
%TO.N,/CTL0*%
X115900200Y-89473800D03*
%TO.N,/CTL1*%
X113360200Y-92013800D03*
%TO.N,/CTL2*%
X115900200Y-92013800D03*
%TO.N,/PC0*%
X113360200Y-94553800D03*
%TO.N,/PC1*%
X115900200Y-94553800D03*
%TO.N,/PC2*%
X113360200Y-97093800D03*
%TO.N,/PC3*%
X115900200Y-97093800D03*
%TO.N,/PC4*%
X113360200Y-99633800D03*
%TO.N,/PC5*%
X115900200Y-99633800D03*
%TO.N,/PC6*%
X113360200Y-102173800D03*
%TO.N,/PC7*%
X115900200Y-102173800D03*
%TD*%
D14*
%TO.N,+5V*%
X144297400Y-59283600D03*
X137414000Y-92913200D03*
X144297400Y-60198000D03*
X138480800Y-92913200D03*
%TO.N,GND*%
X129921000Y-80289400D03*
X112496600Y-72948800D03*
X124282200Y-103073200D03*
X145872200Y-55270400D03*
X137541000Y-75285600D03*
X113385600Y-57048400D03*
X140868400Y-99517200D03*
X129921000Y-57835800D03*
X157073600Y-103505000D03*
D15*
X149860000Y-74015600D03*
X134620000Y-60731400D03*
X137134600Y-85699600D03*
D14*
X135178800Y-99060000D03*
X162483800Y-95834200D03*
X136880600Y-100584000D03*
X112496600Y-88188800D03*
X119253000Y-70358000D03*
X121793000Y-65328800D03*
X119202200Y-88112600D03*
X162483800Y-78054200D03*
D15*
X133883400Y-69443600D03*
X134594600Y-63627000D03*
D14*
X138506200Y-99136200D03*
D15*
X125018800Y-81153000D03*
D14*
X162483800Y-83134200D03*
X112496600Y-62788800D03*
X119964200Y-57099200D03*
D15*
X121996200Y-71399400D03*
D14*
X137642600Y-70561200D03*
X162483800Y-67894200D03*
X162483800Y-65354200D03*
X147421600Y-89077800D03*
X112496600Y-78028800D03*
X154889200Y-51206400D03*
D15*
X135280400Y-64693800D03*
X125018800Y-82448400D03*
D14*
X162483800Y-70434200D03*
D15*
X147269200Y-70764400D03*
X135178800Y-69443600D03*
D14*
X162483800Y-60274200D03*
X162483800Y-62814200D03*
X124942600Y-95199200D03*
X142214600Y-65786000D03*
X118084600Y-75133200D03*
X112496600Y-70408800D03*
X126390400Y-84810600D03*
D15*
X143916400Y-107137200D03*
D14*
X136042400Y-109016800D03*
D15*
X143611600Y-85699600D03*
D14*
X162483800Y-85674200D03*
D15*
X133807200Y-62179200D03*
X137007600Y-63042800D03*
D14*
X119938800Y-50876200D03*
D15*
X139344400Y-60706000D03*
D14*
X118922800Y-60223400D03*
X112496600Y-80568800D03*
X162483800Y-93294200D03*
X162483800Y-75514200D03*
D15*
X125018800Y-75311000D03*
D14*
X139141200Y-109626400D03*
X155270200Y-109728000D03*
X145643600Y-78765400D03*
X138099800Y-66471800D03*
D15*
X136398000Y-60706000D03*
X147193000Y-66167000D03*
X137007600Y-59537600D03*
D14*
X154914600Y-57175400D03*
X145516600Y-50698400D03*
X112496600Y-85648800D03*
X112496600Y-100888800D03*
D15*
X135280400Y-66471800D03*
D14*
X112496600Y-93268800D03*
X128346200Y-88519000D03*
X162483800Y-98374200D03*
X135356600Y-59283600D03*
X146329400Y-107543600D03*
X145592800Y-101625400D03*
X153085800Y-88544400D03*
X150291800Y-67106800D03*
X162483800Y-72974200D03*
X112496600Y-65328800D03*
X162483800Y-100914200D03*
D15*
X138201400Y-62484000D03*
X138734800Y-59537600D03*
D14*
X142417800Y-95529400D03*
X150571200Y-90881200D03*
X162483800Y-90754200D03*
X148412200Y-84226400D03*
X123545600Y-53314600D03*
X162483800Y-103454200D03*
X134594600Y-92633800D03*
X146634200Y-53822600D03*
X162483800Y-80594200D03*
D15*
X139725400Y-66802000D03*
D14*
X112496600Y-83108800D03*
X112496600Y-67868800D03*
X112496600Y-75488800D03*
X137617200Y-88950800D03*
D15*
X153238200Y-79832200D03*
D14*
X162483800Y-88214200D03*
X121767600Y-81762600D03*
X112496600Y-95808800D03*
X112496600Y-98348800D03*
X112496600Y-103454200D03*
X146075400Y-61239400D03*
X150139400Y-53441600D03*
X112496600Y-90728800D03*
%TO.N,+3V3*%
X128498600Y-95504000D03*
X149733000Y-56769000D03*
X148361400Y-68402200D03*
X151561800Y-80772000D03*
X134264400Y-104622600D03*
X128016000Y-74625200D03*
X123672600Y-70459600D03*
X141706600Y-103454200D03*
X145564400Y-85976000D03*
X123672600Y-82727800D03*
X136988900Y-87122000D03*
X128498600Y-97993200D03*
X128498600Y-96748600D03*
X133883400Y-64617600D03*
X128397000Y-87096600D03*
X144703800Y-105003600D03*
X137490200Y-64541400D03*
X123190000Y-56769000D03*
X127711200Y-52755800D03*
%TO.N,/SDA*%
X151942800Y-104165400D03*
X128701800Y-71678800D03*
%TO.N,/SCL*%
X150825200Y-104165400D03*
X129819400Y-71678800D03*
%TO.N,/D-*%
X138389800Y-60706000D03*
X134598594Y-62703934D03*
%TO.N,/D+*%
X134598594Y-61653934D03*
X137339800Y-60706000D03*
%TO.N,/WAKEUP*%
X151663400Y-57708800D03*
X146202400Y-82905600D03*
%TO.N,/RST*%
X144907000Y-82931000D03*
X127050800Y-56769000D03*
%TO.N,Net-(U3B-BKPT)*%
X126314200Y-60680600D03*
X130606800Y-70154800D03*
%TO.N,/PA0*%
X131699000Y-104622600D03*
%TO.N,/PA1*%
X129108200Y-104622600D03*
%TD*%
D16*
%TO.N,+5V*%
X147548600Y-60198000D02*
X144297400Y-60198000D01*
X138480800Y-92913200D02*
X139598400Y-92913200D01*
X140665200Y-91846400D02*
X140665200Y-79502000D01*
X138480800Y-92913200D02*
X137414000Y-92913200D01*
X140665200Y-79502000D02*
X144297400Y-75869800D01*
X144297400Y-75869800D02*
X144297400Y-59283600D01*
X148752800Y-58993800D02*
X147548600Y-60198000D01*
X159080200Y-58993800D02*
X148752800Y-58993800D01*
X139598400Y-92913200D02*
X140665200Y-91846400D01*
%TD*%
%TA.AperFunction,Conductor*%
%TO.N,+3V3*%
G36*
X131742721Y-49733999D02*
G01*
X131789214Y-49787655D01*
X131800600Y-49839996D01*
X131800600Y-58216800D01*
X143103600Y-58216800D01*
X143103600Y-55270400D01*
X145212893Y-55270400D01*
X145232050Y-55428180D01*
X145288412Y-55576794D01*
X145371659Y-55697397D01*
X145378702Y-55707601D01*
X145497671Y-55812999D01*
X145638407Y-55886863D01*
X145792729Y-55924900D01*
X145792731Y-55924900D01*
X145951669Y-55924900D01*
X145951671Y-55924900D01*
X146105993Y-55886863D01*
X146246729Y-55812999D01*
X146365698Y-55707601D01*
X146455987Y-55576795D01*
X146512349Y-55428182D01*
X146531507Y-55270400D01*
X146512349Y-55112618D01*
X146455987Y-54964005D01*
X146365698Y-54833199D01*
X146246729Y-54727801D01*
X146105993Y-54653937D01*
X145951671Y-54615900D01*
X145792729Y-54615900D01*
X145638407Y-54653937D01*
X145638406Y-54653937D01*
X145638404Y-54653938D01*
X145497672Y-54727800D01*
X145378701Y-54833199D01*
X145288412Y-54964005D01*
X145232050Y-55112619D01*
X145212893Y-55270400D01*
X143103600Y-55270400D01*
X143103600Y-53822600D01*
X145974893Y-53822600D01*
X145994050Y-53980380D01*
X146050412Y-54128994D01*
X146050413Y-54128995D01*
X146140702Y-54259801D01*
X146259671Y-54365199D01*
X146400407Y-54439063D01*
X146554729Y-54477100D01*
X146554731Y-54477100D01*
X146713669Y-54477100D01*
X146713671Y-54477100D01*
X146867993Y-54439063D01*
X147008729Y-54365199D01*
X147127698Y-54259801D01*
X147217987Y-54128995D01*
X147274349Y-53980382D01*
X147293507Y-53822600D01*
X147274349Y-53664818D01*
X147217987Y-53516205D01*
X147166491Y-53441600D01*
X149480093Y-53441600D01*
X149499250Y-53599380D01*
X149555612Y-53747994D01*
X149607109Y-53822599D01*
X149645902Y-53878801D01*
X149764871Y-53984199D01*
X149905607Y-54058063D01*
X150059929Y-54096100D01*
X150059931Y-54096100D01*
X150218869Y-54096100D01*
X150218871Y-54096100D01*
X150373193Y-54058063D01*
X150513929Y-53984199D01*
X150593393Y-53913800D01*
X155620626Y-53913800D01*
X155620811Y-53917212D01*
X155640720Y-54284426D01*
X155640721Y-54284436D01*
X155640906Y-54287846D01*
X155641457Y-54291211D01*
X155641459Y-54291223D01*
X155700955Y-54654132D01*
X155700958Y-54654147D01*
X155701509Y-54657506D01*
X155702420Y-54660789D01*
X155702423Y-54660800D01*
X155721026Y-54727800D01*
X155801724Y-55018447D01*
X155802982Y-55021605D01*
X155802986Y-55021616D01*
X155901398Y-55268610D01*
X155940376Y-55366437D01*
X155941964Y-55369434D01*
X155941970Y-55369445D01*
X156114242Y-55694386D01*
X156114247Y-55694395D01*
X156115839Y-55697397D01*
X156117747Y-55700211D01*
X156117750Y-55700216D01*
X156122757Y-55707601D01*
X156326057Y-56007445D01*
X156568565Y-56292947D01*
X156571034Y-56295286D01*
X156571040Y-56295292D01*
X156793271Y-56505800D01*
X156840519Y-56550556D01*
X157138732Y-56777251D01*
X157459706Y-56970375D01*
X157799680Y-57127664D01*
X158154666Y-57247273D01*
X158157997Y-57248006D01*
X158158000Y-57248007D01*
X158198766Y-57256980D01*
X158520503Y-57327799D01*
X158892902Y-57368300D01*
X158896317Y-57368300D01*
X159264083Y-57368300D01*
X159267498Y-57368300D01*
X159639897Y-57327799D01*
X160005734Y-57247273D01*
X160360720Y-57127664D01*
X160700694Y-56970375D01*
X161021668Y-56777251D01*
X161319881Y-56550556D01*
X161591835Y-56292947D01*
X161834343Y-56007445D01*
X162044561Y-55697397D01*
X162220024Y-55366437D01*
X162358676Y-55018447D01*
X162458891Y-54657506D01*
X162519494Y-54287846D01*
X162539774Y-53913800D01*
X162519494Y-53539754D01*
X162458891Y-53170094D01*
X162358676Y-52809153D01*
X162220024Y-52461163D01*
X162162494Y-52352650D01*
X162046157Y-52133213D01*
X162046155Y-52133210D01*
X162044561Y-52130203D01*
X161834343Y-51820155D01*
X161591835Y-51534653D01*
X161589364Y-51532312D01*
X161589359Y-51532307D01*
X161322364Y-51279396D01*
X161322363Y-51279395D01*
X161319881Y-51277044D01*
X161272464Y-51240999D01*
X161024391Y-51052419D01*
X161021668Y-51050349D01*
X160973280Y-51021235D01*
X160905650Y-50980543D01*
X160700694Y-50857225D01*
X160697595Y-50855791D01*
X160697589Y-50855788D01*
X160363818Y-50701369D01*
X160363813Y-50701367D01*
X160360720Y-50699936D01*
X160357491Y-50698848D01*
X160357486Y-50698846D01*
X160008970Y-50581417D01*
X160008964Y-50581415D01*
X160005734Y-50580327D01*
X160002414Y-50579596D01*
X160002399Y-50579592D01*
X159643228Y-50500534D01*
X159643224Y-50500533D01*
X159639897Y-50499801D01*
X159592783Y-50494677D01*
X159270896Y-50459669D01*
X159270885Y-50459668D01*
X159267498Y-50459300D01*
X158892902Y-50459300D01*
X158889515Y-50459668D01*
X158889503Y-50459669D01*
X158523895Y-50499432D01*
X158523893Y-50499432D01*
X158520503Y-50499801D01*
X158517178Y-50500532D01*
X158517171Y-50500534D01*
X158158000Y-50579592D01*
X158157980Y-50579597D01*
X158154666Y-50580327D01*
X158151440Y-50581413D01*
X158151429Y-50581417D01*
X157802913Y-50698846D01*
X157802902Y-50698850D01*
X157799680Y-50699936D01*
X157796592Y-50701364D01*
X157796581Y-50701369D01*
X157462810Y-50855788D01*
X157462796Y-50855795D01*
X157459706Y-50857225D01*
X157456780Y-50858985D01*
X157456779Y-50858986D01*
X157141664Y-51048584D01*
X157141652Y-51048591D01*
X157138732Y-51050349D01*
X157136016Y-51052413D01*
X157136008Y-51052419D01*
X156843237Y-51274977D01*
X156843227Y-51274984D01*
X156840519Y-51277044D01*
X156838044Y-51279387D01*
X156838035Y-51279396D01*
X156571040Y-51532307D01*
X156571025Y-51532322D01*
X156568565Y-51534653D01*
X156566370Y-51537237D01*
X156566359Y-51537249D01*
X156328270Y-51817549D01*
X156328265Y-51817555D01*
X156326057Y-51820155D01*
X156324146Y-51822972D01*
X156324141Y-51822980D01*
X156117750Y-52127383D01*
X156117742Y-52127396D01*
X156115839Y-52130203D01*
X156114252Y-52133196D01*
X156114242Y-52133213D01*
X155941970Y-52458154D01*
X155941961Y-52458172D01*
X155940376Y-52461163D01*
X155939115Y-52464327D01*
X155939114Y-52464330D01*
X155802986Y-52805983D01*
X155802980Y-52805999D01*
X155801724Y-52809153D01*
X155800814Y-52812428D01*
X155800811Y-52812439D01*
X155702423Y-53166799D01*
X155702419Y-53166813D01*
X155701509Y-53170094D01*
X155700959Y-53173448D01*
X155700955Y-53173467D01*
X155641459Y-53536376D01*
X155641457Y-53536390D01*
X155640906Y-53539754D01*
X155640721Y-53543161D01*
X155640720Y-53543173D01*
X155620811Y-53910387D01*
X155620626Y-53913800D01*
X150593393Y-53913800D01*
X150632898Y-53878801D01*
X150723187Y-53747995D01*
X150779549Y-53599382D01*
X150798707Y-53441600D01*
X150779549Y-53283818D01*
X150723187Y-53135205D01*
X150632898Y-53004399D01*
X150513929Y-52899001D01*
X150373193Y-52825137D01*
X150218871Y-52787100D01*
X150059929Y-52787100D01*
X149905607Y-52825137D01*
X149905606Y-52825137D01*
X149905604Y-52825138D01*
X149764872Y-52899000D01*
X149645901Y-53004399D01*
X149555612Y-53135205D01*
X149499250Y-53283819D01*
X149480093Y-53441600D01*
X147166491Y-53441600D01*
X147127698Y-53385399D01*
X147008729Y-53280001D01*
X146867993Y-53206137D01*
X146713671Y-53168100D01*
X146554729Y-53168100D01*
X146400407Y-53206137D01*
X146400406Y-53206137D01*
X146400404Y-53206138D01*
X146259672Y-53280000D01*
X146140701Y-53385399D01*
X146050412Y-53516205D01*
X145994050Y-53664819D01*
X145974893Y-53822600D01*
X143103600Y-53822600D01*
X143103600Y-50698400D01*
X144857293Y-50698400D01*
X144876450Y-50856180D01*
X144932812Y-51004794D01*
X144965686Y-51052419D01*
X145023102Y-51135601D01*
X145142071Y-51240999D01*
X145282807Y-51314863D01*
X145437129Y-51352900D01*
X145437131Y-51352900D01*
X145596069Y-51352900D01*
X145596071Y-51352900D01*
X145750393Y-51314863D01*
X145891129Y-51240999D01*
X145930183Y-51206400D01*
X154229893Y-51206400D01*
X154249050Y-51364180D01*
X154305412Y-51512794D01*
X154320501Y-51534653D01*
X154395702Y-51643601D01*
X154514671Y-51748999D01*
X154655407Y-51822863D01*
X154809729Y-51860900D01*
X154809731Y-51860900D01*
X154968669Y-51860900D01*
X154968671Y-51860900D01*
X155122993Y-51822863D01*
X155263729Y-51748999D01*
X155382698Y-51643601D01*
X155472987Y-51512795D01*
X155529349Y-51364182D01*
X155548507Y-51206400D01*
X155529349Y-51048618D01*
X155472987Y-50900005D01*
X155382698Y-50769199D01*
X155263729Y-50663801D01*
X155122993Y-50589937D01*
X154968671Y-50551900D01*
X154809729Y-50551900D01*
X154655407Y-50589937D01*
X154655406Y-50589937D01*
X154655404Y-50589938D01*
X154514672Y-50663800D01*
X154395701Y-50769199D01*
X154305412Y-50900005D01*
X154249050Y-51048619D01*
X154229893Y-51206400D01*
X145930183Y-51206400D01*
X146010098Y-51135601D01*
X146100387Y-51004795D01*
X146156749Y-50856182D01*
X146175907Y-50698400D01*
X146156749Y-50540618D01*
X146100387Y-50392005D01*
X146010098Y-50261199D01*
X145891129Y-50155801D01*
X145750393Y-50081937D01*
X145596071Y-50043900D01*
X145437129Y-50043900D01*
X145282807Y-50081937D01*
X145282806Y-50081937D01*
X145282804Y-50081938D01*
X145142072Y-50155800D01*
X145023101Y-50261199D01*
X144932812Y-50392005D01*
X144876450Y-50540619D01*
X144857293Y-50698400D01*
X143103600Y-50698400D01*
X143103600Y-49839997D01*
X143123602Y-49771876D01*
X143177258Y-49725383D01*
X143229600Y-49713997D01*
X159077279Y-49713997D01*
X159083098Y-49714131D01*
X159253100Y-49721990D01*
X159437324Y-49731041D01*
X159443479Y-49731494D01*
X159513151Y-49738357D01*
X159513171Y-49738359D01*
X159518223Y-49738959D01*
X159668895Y-49759977D01*
X159845592Y-49786187D01*
X159851680Y-49787244D01*
X159882329Y-49793340D01*
X159898927Y-49796641D01*
X159903128Y-49797553D01*
X160064933Y-49835609D01*
X160064959Y-49835615D01*
X160246507Y-49881090D01*
X160252417Y-49882726D01*
X160273796Y-49889211D01*
X160277151Y-49890282D01*
X160448743Y-49947794D01*
X160451149Y-49948627D01*
X160632912Y-50013662D01*
X160641329Y-50017021D01*
X160820462Y-50096116D01*
X160823390Y-50097456D01*
X160997150Y-50179639D01*
X161004571Y-50183454D01*
X161176040Y-50278962D01*
X161179433Y-50280923D01*
X161343951Y-50379531D01*
X161350348Y-50383634D01*
X161439123Y-50444446D01*
X161512438Y-50494668D01*
X161516289Y-50497414D01*
X161670125Y-50611507D01*
X161675561Y-50615775D01*
X161826798Y-50741360D01*
X161830920Y-50744936D01*
X161972752Y-50873485D01*
X161977231Y-50877750D01*
X162116247Y-51016766D01*
X162120512Y-51021245D01*
X162249063Y-51163080D01*
X162252639Y-51167201D01*
X162378221Y-51318433D01*
X162382483Y-51323861D01*
X162496615Y-51477751D01*
X162499333Y-51481564D01*
X162610347Y-51643627D01*
X162614471Y-51650056D01*
X162713075Y-51814566D01*
X162715077Y-51818030D01*
X162810541Y-51989420D01*
X162814357Y-51996840D01*
X162896550Y-52170624D01*
X162897911Y-52173602D01*
X162976963Y-52352638D01*
X162980334Y-52361084D01*
X163045391Y-52542907D01*
X163046224Y-52545314D01*
X163103686Y-52716760D01*
X163104792Y-52720222D01*
X163111263Y-52741552D01*
X163112913Y-52747515D01*
X163158396Y-52929089D01*
X163196430Y-53090800D01*
X163197352Y-53095054D01*
X163206754Y-53142316D01*
X163207812Y-53148412D01*
X163234038Y-53325215D01*
X163255035Y-53475746D01*
X163255636Y-53480799D01*
X163262502Y-53550509D01*
X163262957Y-53556676D01*
X163272018Y-53741093D01*
X163279869Y-53910902D01*
X163280003Y-53916720D01*
X163280003Y-59871194D01*
X163260001Y-59939315D01*
X163206345Y-59985808D01*
X163136071Y-59995912D01*
X163071491Y-59966418D01*
X163050307Y-59942771D01*
X162977298Y-59836999D01*
X162858329Y-59731601D01*
X162717593Y-59657737D01*
X162717592Y-59657737D01*
X162697442Y-59652770D01*
X162636089Y-59617046D01*
X162603788Y-59553823D01*
X162610797Y-59483173D01*
X162614802Y-59474281D01*
X162654528Y-59394501D01*
X162710545Y-59197621D01*
X162729432Y-58993800D01*
X162728261Y-58981168D01*
X162710545Y-58789980D01*
X162698274Y-58746851D01*
X162654528Y-58593099D01*
X162594781Y-58473111D01*
X162563289Y-58409866D01*
X162528124Y-58363300D01*
X162439932Y-58246515D01*
X162288662Y-58108614D01*
X162185113Y-58044499D01*
X162114628Y-58000856D01*
X162009979Y-57960315D01*
X161923756Y-57926912D01*
X161722547Y-57889300D01*
X161517853Y-57889300D01*
X161316644Y-57926912D01*
X161125771Y-58000856D01*
X160951739Y-58108613D01*
X160800467Y-58246516D01*
X160677110Y-58409866D01*
X160585872Y-58593097D01*
X160529854Y-58789980D01*
X160510967Y-58993799D01*
X160529854Y-59197619D01*
X160585872Y-59394502D01*
X160677110Y-59577733D01*
X160724600Y-59640620D01*
X160800468Y-59741085D01*
X160951738Y-59878986D01*
X161049173Y-59939315D01*
X161119698Y-59982983D01*
X161125773Y-59986744D01*
X161316644Y-60060688D01*
X161517853Y-60098300D01*
X161517855Y-60098300D01*
X161703627Y-60098300D01*
X161771748Y-60118302D01*
X161818241Y-60171958D01*
X161828707Y-60239487D01*
X161824493Y-60274200D01*
X161826182Y-60288115D01*
X161814536Y-60358149D01*
X161766875Y-60410770D01*
X161701101Y-60429300D01*
X161517853Y-60429300D01*
X161388607Y-60453460D01*
X161316644Y-60466912D01*
X161125771Y-60540856D01*
X160951739Y-60648613D01*
X160900560Y-60695269D01*
X160805769Y-60781683D01*
X160800467Y-60786516D01*
X160677110Y-60949866D01*
X160585872Y-61133097D01*
X160529854Y-61329980D01*
X160510967Y-61533799D01*
X160529854Y-61737619D01*
X160585872Y-61934502D01*
X160677110Y-62117733D01*
X160708802Y-62159700D01*
X160800468Y-62281085D01*
X160951738Y-62418986D01*
X161125773Y-62526744D01*
X161316644Y-62600688D01*
X161517853Y-62638300D01*
X161517855Y-62638300D01*
X161703627Y-62638300D01*
X161771748Y-62658302D01*
X161818241Y-62711958D01*
X161828707Y-62779487D01*
X161824493Y-62814200D01*
X161826182Y-62828115D01*
X161814536Y-62898149D01*
X161766875Y-62950770D01*
X161701101Y-62969300D01*
X161517853Y-62969300D01*
X161316643Y-63006912D01*
X161316644Y-63006912D01*
X161125771Y-63080856D01*
X160951739Y-63188613D01*
X160800467Y-63326516D01*
X160677110Y-63489866D01*
X160585872Y-63673097D01*
X160529854Y-63869980D01*
X160510967Y-64073800D01*
X160529854Y-64277619D01*
X160585872Y-64474502D01*
X160677110Y-64657733D01*
X160718345Y-64712336D01*
X160800468Y-64821085D01*
X160951738Y-64958986D01*
X161013732Y-64997371D01*
X161114735Y-65059910D01*
X161125773Y-65066744D01*
X161316644Y-65140688D01*
X161517853Y-65178300D01*
X161517855Y-65178300D01*
X161703627Y-65178300D01*
X161771748Y-65198302D01*
X161818241Y-65251958D01*
X161828707Y-65319487D01*
X161824493Y-65354200D01*
X161826182Y-65368115D01*
X161814536Y-65438149D01*
X161766875Y-65490770D01*
X161701101Y-65509300D01*
X161517853Y-65509300D01*
X161316643Y-65546912D01*
X161316644Y-65546912D01*
X161125771Y-65620856D01*
X160951739Y-65728613D01*
X160920375Y-65757205D01*
X160851516Y-65819979D01*
X160800467Y-65866516D01*
X160677110Y-66029866D01*
X160585872Y-66213097D01*
X160529854Y-66409980D01*
X160510967Y-66613800D01*
X160529854Y-66817619D01*
X160585872Y-67014502D01*
X160677110Y-67197733D01*
X160718345Y-67252336D01*
X160800468Y-67361085D01*
X160951738Y-67498986D01*
X161125773Y-67606744D01*
X161316644Y-67680688D01*
X161517853Y-67718300D01*
X161517855Y-67718300D01*
X161703627Y-67718300D01*
X161771748Y-67738302D01*
X161818241Y-67791958D01*
X161828707Y-67859487D01*
X161824493Y-67894200D01*
X161826182Y-67908115D01*
X161814536Y-67978149D01*
X161766875Y-68030770D01*
X161701101Y-68049300D01*
X161517853Y-68049300D01*
X161316643Y-68086912D01*
X161316644Y-68086912D01*
X161125771Y-68160856D01*
X160951739Y-68268613D01*
X160800467Y-68406516D01*
X160677110Y-68569866D01*
X160585872Y-68753097D01*
X160529854Y-68949980D01*
X160510967Y-69153800D01*
X160529854Y-69357619D01*
X160585872Y-69554502D01*
X160677110Y-69737733D01*
X160717050Y-69790622D01*
X160800468Y-69901085D01*
X160951738Y-70038986D01*
X161125773Y-70146744D01*
X161316644Y-70220688D01*
X161517853Y-70258300D01*
X161517855Y-70258300D01*
X161703627Y-70258300D01*
X161771748Y-70278302D01*
X161818241Y-70331958D01*
X161828707Y-70399487D01*
X161824493Y-70434200D01*
X161826182Y-70448115D01*
X161814536Y-70518149D01*
X161766875Y-70570770D01*
X161701101Y-70589300D01*
X161517853Y-70589300D01*
X161316644Y-70626912D01*
X161125771Y-70700856D01*
X160951739Y-70808613D01*
X160800467Y-70946516D01*
X160677110Y-71109866D01*
X160585872Y-71293097D01*
X160529854Y-71489980D01*
X160510967Y-71693799D01*
X160529854Y-71897619D01*
X160585872Y-72094502D01*
X160677110Y-72277733D01*
X160718345Y-72332336D01*
X160800468Y-72441085D01*
X160951738Y-72578986D01*
X161125773Y-72686744D01*
X161316644Y-72760688D01*
X161517853Y-72798300D01*
X161517855Y-72798300D01*
X161703627Y-72798300D01*
X161771748Y-72818302D01*
X161818241Y-72871958D01*
X161828707Y-72939487D01*
X161824493Y-72974200D01*
X161826182Y-72988115D01*
X161814536Y-73058149D01*
X161766875Y-73110770D01*
X161701101Y-73129300D01*
X161517853Y-73129300D01*
X161316643Y-73166912D01*
X161316644Y-73166912D01*
X161125771Y-73240856D01*
X160951739Y-73348613D01*
X160800467Y-73486516D01*
X160677110Y-73649866D01*
X160585872Y-73833097D01*
X160529854Y-74029980D01*
X160510967Y-74233800D01*
X160529854Y-74437619D01*
X160585872Y-74634502D01*
X160677110Y-74817733D01*
X160718345Y-74872336D01*
X160800468Y-74981085D01*
X160951738Y-75118986D01*
X161125773Y-75226744D01*
X161316644Y-75300688D01*
X161517853Y-75338300D01*
X161517855Y-75338300D01*
X161703627Y-75338300D01*
X161771748Y-75358302D01*
X161818241Y-75411958D01*
X161828707Y-75479487D01*
X161824493Y-75514200D01*
X161826182Y-75528115D01*
X161814536Y-75598149D01*
X161766875Y-75650770D01*
X161701101Y-75669300D01*
X161517853Y-75669300D01*
X161316643Y-75706912D01*
X161316644Y-75706912D01*
X161125771Y-75780856D01*
X160951739Y-75888613D01*
X160800467Y-76026516D01*
X160677110Y-76189866D01*
X160585872Y-76373097D01*
X160529854Y-76569980D01*
X160510967Y-76773799D01*
X160529854Y-76977619D01*
X160585872Y-77174502D01*
X160677110Y-77357733D01*
X160718345Y-77412336D01*
X160800468Y-77521085D01*
X160951738Y-77658986D01*
X161125773Y-77766744D01*
X161316644Y-77840688D01*
X161517853Y-77878300D01*
X161517855Y-77878300D01*
X161703627Y-77878300D01*
X161771748Y-77898302D01*
X161818241Y-77951958D01*
X161828707Y-78019487D01*
X161824493Y-78054200D01*
X161826182Y-78068115D01*
X161814536Y-78138149D01*
X161766875Y-78190770D01*
X161701101Y-78209300D01*
X161517853Y-78209300D01*
X161316643Y-78246912D01*
X161316644Y-78246912D01*
X161125771Y-78320856D01*
X160951739Y-78428613D01*
X160800467Y-78566516D01*
X160677110Y-78729866D01*
X160585872Y-78913097D01*
X160529854Y-79109980D01*
X160510967Y-79313800D01*
X160529854Y-79517619D01*
X160585872Y-79714502D01*
X160677110Y-79897733D01*
X160718345Y-79952336D01*
X160800468Y-80061085D01*
X160951738Y-80198986D01*
X161033933Y-80249879D01*
X161097761Y-80289400D01*
X161125773Y-80306744D01*
X161316644Y-80380688D01*
X161517853Y-80418300D01*
X161517855Y-80418300D01*
X161703627Y-80418300D01*
X161771748Y-80438302D01*
X161818241Y-80491958D01*
X161828707Y-80559487D01*
X161824493Y-80594200D01*
X161826182Y-80608115D01*
X161814536Y-80678149D01*
X161766875Y-80730770D01*
X161701101Y-80749300D01*
X161517853Y-80749300D01*
X161316643Y-80786912D01*
X161316644Y-80786912D01*
X161125771Y-80860856D01*
X160951739Y-80968613D01*
X160800467Y-81106516D01*
X160677110Y-81269866D01*
X160585872Y-81453097D01*
X160529854Y-81649980D01*
X160510967Y-81853799D01*
X160529854Y-82057619D01*
X160585872Y-82254502D01*
X160677110Y-82437733D01*
X160733776Y-82512770D01*
X160800468Y-82601085D01*
X160951738Y-82738986D01*
X161125773Y-82846744D01*
X161316644Y-82920688D01*
X161517853Y-82958300D01*
X161517855Y-82958300D01*
X161703627Y-82958300D01*
X161771748Y-82978302D01*
X161818241Y-83031958D01*
X161828707Y-83099487D01*
X161824493Y-83134200D01*
X161826182Y-83148115D01*
X161814536Y-83218149D01*
X161766875Y-83270770D01*
X161701101Y-83289300D01*
X161517853Y-83289300D01*
X161316644Y-83326912D01*
X161125771Y-83400856D01*
X160951739Y-83508613D01*
X160800467Y-83646516D01*
X160677110Y-83809866D01*
X160585872Y-83993097D01*
X160529854Y-84189980D01*
X160510967Y-84393800D01*
X160529854Y-84597619D01*
X160585872Y-84794502D01*
X160677110Y-84977733D01*
X160718345Y-85032336D01*
X160800468Y-85141085D01*
X160951738Y-85278986D01*
X161125773Y-85386744D01*
X161316644Y-85460688D01*
X161517853Y-85498300D01*
X161517855Y-85498300D01*
X161703627Y-85498300D01*
X161771748Y-85518302D01*
X161818241Y-85571958D01*
X161828707Y-85639487D01*
X161824493Y-85674200D01*
X161826182Y-85688115D01*
X161814536Y-85758149D01*
X161766875Y-85810770D01*
X161701101Y-85829300D01*
X161517853Y-85829300D01*
X161316644Y-85866912D01*
X161125771Y-85940856D01*
X160951739Y-86048613D01*
X160800467Y-86186516D01*
X160677110Y-86349866D01*
X160585872Y-86533097D01*
X160529854Y-86729980D01*
X160510967Y-86933800D01*
X160529854Y-87137619D01*
X160585872Y-87334502D01*
X160677110Y-87517733D01*
X160718345Y-87572336D01*
X160800468Y-87681085D01*
X160951738Y-87818986D01*
X161125773Y-87926744D01*
X161316644Y-88000688D01*
X161517853Y-88038300D01*
X161517855Y-88038300D01*
X161703627Y-88038300D01*
X161771748Y-88058302D01*
X161818241Y-88111958D01*
X161828708Y-88179488D01*
X161824687Y-88212605D01*
X161824493Y-88214200D01*
X161826182Y-88228115D01*
X161814536Y-88298149D01*
X161766875Y-88350770D01*
X161701101Y-88369300D01*
X161517853Y-88369300D01*
X161316643Y-88406912D01*
X161316644Y-88406912D01*
X161125771Y-88480856D01*
X160951739Y-88588613D01*
X160800467Y-88726516D01*
X160677110Y-88889866D01*
X160585872Y-89073097D01*
X160529854Y-89269980D01*
X160510967Y-89473800D01*
X160529854Y-89677619D01*
X160585872Y-89874502D01*
X160677110Y-90057733D01*
X160718345Y-90112336D01*
X160800468Y-90221085D01*
X160951738Y-90358986D01*
X161125773Y-90466744D01*
X161316644Y-90540688D01*
X161517853Y-90578300D01*
X161517855Y-90578300D01*
X161703627Y-90578300D01*
X161771748Y-90598302D01*
X161818241Y-90651958D01*
X161828707Y-90719487D01*
X161824493Y-90754200D01*
X161826182Y-90768115D01*
X161814536Y-90838149D01*
X161766875Y-90890770D01*
X161701101Y-90909300D01*
X161517853Y-90909300D01*
X161316644Y-90946912D01*
X161125771Y-91020856D01*
X160951739Y-91128613D01*
X160800467Y-91266516D01*
X160677110Y-91429866D01*
X160585872Y-91613097D01*
X160529854Y-91809980D01*
X160510967Y-92013800D01*
X160529854Y-92217619D01*
X160585872Y-92414502D01*
X160677110Y-92597733D01*
X160718345Y-92652336D01*
X160800468Y-92761085D01*
X160951738Y-92898986D01*
X161077398Y-92976791D01*
X161117899Y-93001869D01*
X161125773Y-93006744D01*
X161316644Y-93080688D01*
X161517853Y-93118300D01*
X161517855Y-93118300D01*
X161703627Y-93118300D01*
X161771748Y-93138302D01*
X161818241Y-93191958D01*
X161828707Y-93259487D01*
X161824493Y-93294200D01*
X161826182Y-93308115D01*
X161814536Y-93378149D01*
X161766875Y-93430770D01*
X161701101Y-93449300D01*
X161517853Y-93449300D01*
X161316644Y-93486912D01*
X161125771Y-93560856D01*
X160951739Y-93668613D01*
X160800467Y-93806516D01*
X160677110Y-93969866D01*
X160585872Y-94153097D01*
X160529854Y-94349980D01*
X160510967Y-94553799D01*
X160529854Y-94757619D01*
X160585872Y-94954502D01*
X160677110Y-95137733D01*
X160718345Y-95192336D01*
X160800468Y-95301085D01*
X160951738Y-95438986D01*
X161021126Y-95481949D01*
X161097761Y-95529400D01*
X161125773Y-95546744D01*
X161316644Y-95620688D01*
X161517853Y-95658300D01*
X161517855Y-95658300D01*
X161703627Y-95658300D01*
X161771748Y-95678302D01*
X161818241Y-95731958D01*
X161828707Y-95799487D01*
X161824493Y-95834200D01*
X161826182Y-95848115D01*
X161814536Y-95918149D01*
X161766875Y-95970770D01*
X161701101Y-95989300D01*
X161517853Y-95989300D01*
X161316643Y-96026912D01*
X161316644Y-96026912D01*
X161125771Y-96100856D01*
X160951739Y-96208613D01*
X160800467Y-96346516D01*
X160677110Y-96509866D01*
X160585872Y-96693097D01*
X160529854Y-96889980D01*
X160510967Y-97093800D01*
X160529854Y-97297619D01*
X160585872Y-97494502D01*
X160677110Y-97677733D01*
X160718345Y-97732336D01*
X160800468Y-97841085D01*
X160951738Y-97978986D01*
X161125773Y-98086744D01*
X161316644Y-98160688D01*
X161517853Y-98198300D01*
X161517855Y-98198300D01*
X161703627Y-98198300D01*
X161771748Y-98218302D01*
X161818241Y-98271958D01*
X161828707Y-98339487D01*
X161824493Y-98374200D01*
X161826182Y-98388115D01*
X161814536Y-98458149D01*
X161766875Y-98510770D01*
X161701101Y-98529300D01*
X161517853Y-98529300D01*
X161316644Y-98566912D01*
X161125771Y-98640856D01*
X160951739Y-98748613D01*
X160800467Y-98886516D01*
X160677110Y-99049866D01*
X160585872Y-99233097D01*
X160529854Y-99429980D01*
X160510967Y-99633799D01*
X160529854Y-99837619D01*
X160585872Y-100034502D01*
X160677110Y-100217733D01*
X160718345Y-100272336D01*
X160800468Y-100381085D01*
X160951738Y-100518986D01*
X161125773Y-100626744D01*
X161316644Y-100700688D01*
X161517853Y-100738300D01*
X161517855Y-100738300D01*
X161703627Y-100738300D01*
X161771748Y-100758302D01*
X161818241Y-100811958D01*
X161828707Y-100879487D01*
X161824493Y-100914200D01*
X161826182Y-100928115D01*
X161814536Y-100998149D01*
X161766875Y-101050770D01*
X161701101Y-101069300D01*
X161517853Y-101069300D01*
X161316643Y-101106912D01*
X161316644Y-101106912D01*
X161125771Y-101180856D01*
X160951739Y-101288613D01*
X160800467Y-101426516D01*
X160677110Y-101589866D01*
X160585872Y-101773097D01*
X160529854Y-101969980D01*
X160510967Y-102173799D01*
X160529854Y-102377619D01*
X160585872Y-102574502D01*
X160677110Y-102757733D01*
X160733776Y-102832770D01*
X160800468Y-102921085D01*
X160951738Y-103058986D01*
X161125773Y-103166744D01*
X161316644Y-103240688D01*
X161517853Y-103278300D01*
X161517855Y-103278300D01*
X161703627Y-103278300D01*
X161771748Y-103298302D01*
X161818241Y-103351958D01*
X161828708Y-103419488D01*
X161824493Y-103454200D01*
X161843650Y-103611980D01*
X161900012Y-103760594D01*
X161967941Y-103859005D01*
X161990302Y-103891401D01*
X162109271Y-103996799D01*
X162250007Y-104070663D01*
X162404329Y-104108700D01*
X162404331Y-104108700D01*
X162563269Y-104108700D01*
X162563271Y-104108700D01*
X162717593Y-104070663D01*
X162858329Y-103996799D01*
X162977298Y-103891401D01*
X163050307Y-103785628D01*
X163105465Y-103740929D01*
X163176034Y-103733146D01*
X163239608Y-103764751D01*
X163276003Y-103825709D01*
X163280003Y-103857205D01*
X163280003Y-107250878D01*
X163279869Y-107256698D01*
X163272018Y-107426497D01*
X163262957Y-107610922D01*
X163262502Y-107617090D01*
X163255636Y-107686796D01*
X163255035Y-107691852D01*
X163234040Y-107842366D01*
X163207812Y-108019185D01*
X163206755Y-108025274D01*
X163197355Y-108072534D01*
X163196429Y-108076801D01*
X163158400Y-108238492D01*
X163127388Y-108362300D01*
X163112915Y-108420082D01*
X163112913Y-108420088D01*
X163111264Y-108426044D01*
X163104795Y-108447367D01*
X163103690Y-108450829D01*
X163046224Y-108622283D01*
X163045391Y-108624689D01*
X162980332Y-108806518D01*
X162976961Y-108814964D01*
X162897918Y-108993981D01*
X162896557Y-108996959D01*
X162814354Y-109170762D01*
X162810527Y-109178202D01*
X162715085Y-109349553D01*
X162713083Y-109353018D01*
X162614467Y-109517549D01*
X162610343Y-109523979D01*
X162499342Y-109686021D01*
X162496596Y-109689872D01*
X162382482Y-109843736D01*
X162378214Y-109849172D01*
X162252649Y-110000385D01*
X162249073Y-110004507D01*
X162120503Y-110146362D01*
X162116238Y-110150841D01*
X161977241Y-110289838D01*
X161972762Y-110294103D01*
X161830907Y-110422673D01*
X161826785Y-110426249D01*
X161675572Y-110551814D01*
X161670136Y-110556082D01*
X161516272Y-110670196D01*
X161512421Y-110672942D01*
X161350379Y-110783943D01*
X161343949Y-110788067D01*
X161179418Y-110886683D01*
X161175953Y-110888685D01*
X161004602Y-110984127D01*
X160997162Y-110987954D01*
X160823359Y-111070157D01*
X160820381Y-111071518D01*
X160641364Y-111150561D01*
X160632918Y-111153932D01*
X160451089Y-111218991D01*
X160448683Y-111219824D01*
X160277229Y-111277290D01*
X160273764Y-111278396D01*
X160252446Y-111284863D01*
X160246485Y-111286513D01*
X160064894Y-111332000D01*
X159957864Y-111357173D01*
X159903210Y-111370028D01*
X159903197Y-111370031D01*
X159898940Y-111370954D01*
X159851677Y-111380355D01*
X159845584Y-111381412D01*
X159668768Y-111407640D01*
X159518251Y-111428635D01*
X159513199Y-111429236D01*
X159443490Y-111436102D01*
X159437322Y-111436557D01*
X159252898Y-111445618D01*
X159083098Y-111453469D01*
X159077279Y-111453603D01*
X115903121Y-111453603D01*
X115897302Y-111453469D01*
X115727493Y-111445618D01*
X115543076Y-111436557D01*
X115536908Y-111436102D01*
X115467200Y-111429236D01*
X115462144Y-111428635D01*
X115311615Y-111407638D01*
X115250720Y-111398605D01*
X115134801Y-111381410D01*
X115128718Y-111380355D01*
X115081460Y-111370954D01*
X115077196Y-111370028D01*
X114915489Y-111331996D01*
X114846319Y-111314670D01*
X114733899Y-111286509D01*
X114727952Y-111284863D01*
X114706618Y-111278390D01*
X114703160Y-111277286D01*
X114531714Y-111219824D01*
X114529307Y-111218991D01*
X114347484Y-111153934D01*
X114339038Y-111150563D01*
X114160002Y-111071511D01*
X114157024Y-111070150D01*
X113983240Y-110987957D01*
X113975820Y-110984141D01*
X113804430Y-110888677D01*
X113800966Y-110886675D01*
X113636456Y-110788071D01*
X113630027Y-110783947D01*
X113467964Y-110672933D01*
X113464151Y-110670215D01*
X113310260Y-110556082D01*
X113304833Y-110551821D01*
X113153601Y-110426239D01*
X113149480Y-110422663D01*
X113007645Y-110294112D01*
X113003166Y-110289847D01*
X112864150Y-110150831D01*
X112859885Y-110146352D01*
X112731336Y-110004520D01*
X112727760Y-110000398D01*
X112602175Y-109849161D01*
X112597907Y-109843725D01*
X112483814Y-109689889D01*
X112481068Y-109686038D01*
X112440214Y-109626399D01*
X112370034Y-109523948D01*
X112365930Y-109517549D01*
X112267323Y-109353033D01*
X112265362Y-109349640D01*
X112169854Y-109178171D01*
X112166039Y-109170750D01*
X112083856Y-108996990D01*
X112082516Y-108994062D01*
X112003421Y-108814929D01*
X112000058Y-108806501D01*
X111995548Y-108793897D01*
X111935027Y-108624748D01*
X111934194Y-108622343D01*
X111930280Y-108610665D01*
X111876682Y-108450752D01*
X111875622Y-108447429D01*
X111869121Y-108425999D01*
X111867486Y-108420088D01*
X111832443Y-108280192D01*
X111822015Y-108238558D01*
X111803553Y-108160063D01*
X111783954Y-108076733D01*
X111783043Y-108072534D01*
X111773642Y-108025274D01*
X111772587Y-108019191D01*
X111746375Y-107842480D01*
X111725360Y-107691826D01*
X111724759Y-107686772D01*
X111719288Y-107631223D01*
X111717895Y-107617082D01*
X111717441Y-107610924D01*
X111708389Y-107426662D01*
X111700531Y-107256697D01*
X111700464Y-107253800D01*
X112440626Y-107253800D01*
X112440811Y-107257212D01*
X112460720Y-107624426D01*
X112460721Y-107624436D01*
X112460906Y-107627846D01*
X112461457Y-107631211D01*
X112461459Y-107631223D01*
X112520955Y-107994132D01*
X112520958Y-107994147D01*
X112521509Y-107997506D01*
X112522420Y-108000789D01*
X112522423Y-108000800D01*
X112620811Y-108355160D01*
X112621724Y-108358447D01*
X112622982Y-108361605D01*
X112622986Y-108361616D01*
X112709839Y-108579599D01*
X112760376Y-108706437D01*
X112761964Y-108709434D01*
X112761970Y-108709445D01*
X112934242Y-109034386D01*
X112934247Y-109034395D01*
X112935839Y-109037397D01*
X112937747Y-109040211D01*
X112937750Y-109040216D01*
X113026255Y-109170750D01*
X113146057Y-109347445D01*
X113388565Y-109632947D01*
X113391034Y-109635286D01*
X113391040Y-109635292D01*
X113646110Y-109876907D01*
X113660519Y-109890556D01*
X113958732Y-110117251D01*
X114279706Y-110310375D01*
X114619680Y-110467664D01*
X114974666Y-110587273D01*
X114977997Y-110588006D01*
X114978000Y-110588007D01*
X115047362Y-110603274D01*
X115340503Y-110667799D01*
X115712902Y-110708300D01*
X115716317Y-110708300D01*
X116084083Y-110708300D01*
X116087498Y-110708300D01*
X116459897Y-110667799D01*
X116825734Y-110587273D01*
X117180720Y-110467664D01*
X117520694Y-110310375D01*
X117841668Y-110117251D01*
X118139881Y-109890556D01*
X118411835Y-109632947D01*
X118654343Y-109347445D01*
X118757975Y-109194599D01*
X121653967Y-109194599D01*
X121672854Y-109398419D01*
X121728872Y-109595302D01*
X121820110Y-109778533D01*
X121880514Y-109858520D01*
X121943468Y-109941885D01*
X122094738Y-110079786D01*
X122268773Y-110187544D01*
X122459644Y-110261488D01*
X122660853Y-110299100D01*
X122660855Y-110299100D01*
X122865545Y-110299100D01*
X122865547Y-110299100D01*
X123066756Y-110261488D01*
X123257627Y-110187544D01*
X123431662Y-110079786D01*
X123442761Y-110069668D01*
X124198700Y-110069668D01*
X124213465Y-110143900D01*
X124269715Y-110228084D01*
X124319706Y-110261487D01*
X124353899Y-110284334D01*
X124428133Y-110299100D01*
X126178266Y-110299099D01*
X126178268Y-110299099D01*
X126227756Y-110289255D01*
X126252501Y-110284334D01*
X126336684Y-110228084D01*
X126392934Y-110143901D01*
X126407700Y-110069667D01*
X126407699Y-109016800D01*
X135383093Y-109016800D01*
X135402250Y-109174580D01*
X135458612Y-109323194D01*
X135526541Y-109421605D01*
X135548902Y-109454001D01*
X135667871Y-109559399D01*
X135808607Y-109633263D01*
X135962929Y-109671300D01*
X135962931Y-109671300D01*
X136121869Y-109671300D01*
X136121871Y-109671300D01*
X136276193Y-109633263D01*
X136289271Y-109626399D01*
X138481893Y-109626399D01*
X138501050Y-109784180D01*
X138557412Y-109932794D01*
X138627543Y-110034395D01*
X138647702Y-110063601D01*
X138766671Y-110168999D01*
X138907407Y-110242863D01*
X139061729Y-110280900D01*
X139061731Y-110280900D01*
X139220669Y-110280900D01*
X139220671Y-110280900D01*
X139374993Y-110242863D01*
X139515729Y-110168999D01*
X139627850Y-110069668D01*
X148293300Y-110069668D01*
X148308065Y-110143900D01*
X148364315Y-110228084D01*
X148414306Y-110261487D01*
X148448499Y-110284334D01*
X148522733Y-110299100D01*
X150272866Y-110299099D01*
X150272868Y-110299099D01*
X150322356Y-110289255D01*
X150347101Y-110284334D01*
X150431284Y-110228084D01*
X150487534Y-110143901D01*
X150502300Y-110069667D01*
X150502299Y-109194599D01*
X150828567Y-109194599D01*
X150847454Y-109398419D01*
X150903472Y-109595302D01*
X150994710Y-109778533D01*
X151055114Y-109858521D01*
X151118068Y-109941885D01*
X151269338Y-110079786D01*
X151443373Y-110187544D01*
X151634244Y-110261488D01*
X151835453Y-110299100D01*
X151835455Y-110299100D01*
X152040145Y-110299100D01*
X152040147Y-110299100D01*
X152241356Y-110261488D01*
X152432227Y-110187544D01*
X152606262Y-110079786D01*
X152757532Y-109941885D01*
X152880888Y-109778535D01*
X152906052Y-109728000D01*
X154610893Y-109728000D01*
X154630050Y-109885780D01*
X154686412Y-110034394D01*
X154762000Y-110143901D01*
X154776702Y-110165201D01*
X154895671Y-110270599D01*
X155036407Y-110344463D01*
X155190729Y-110382500D01*
X155190731Y-110382500D01*
X155349669Y-110382500D01*
X155349671Y-110382500D01*
X155503993Y-110344463D01*
X155644729Y-110270599D01*
X155763698Y-110165201D01*
X155853987Y-110034395D01*
X155910349Y-109885782D01*
X155929507Y-109728000D01*
X155910349Y-109570218D01*
X155853987Y-109421605D01*
X155763698Y-109290799D01*
X155644729Y-109185401D01*
X155503993Y-109111537D01*
X155349671Y-109073500D01*
X155190729Y-109073500D01*
X155036407Y-109111537D01*
X155036406Y-109111537D01*
X155036404Y-109111538D01*
X154895672Y-109185400D01*
X154776701Y-109290799D01*
X154686412Y-109421605D01*
X154630050Y-109570219D01*
X154610893Y-109728000D01*
X152906052Y-109728000D01*
X152972128Y-109595301D01*
X153028145Y-109398421D01*
X153047032Y-109194600D01*
X153046179Y-109185400D01*
X153029920Y-109009937D01*
X153028145Y-108990779D01*
X152972128Y-108793899D01*
X152928577Y-108706437D01*
X152880889Y-108610666D01*
X152777835Y-108474201D01*
X152757532Y-108447315D01*
X152606262Y-108309414D01*
X152502713Y-108245299D01*
X152432228Y-108201656D01*
X152324858Y-108160061D01*
X152241356Y-108127712D01*
X152040147Y-108090100D01*
X151835453Y-108090100D01*
X151634243Y-108127712D01*
X151634244Y-108127712D01*
X151443371Y-108201656D01*
X151269339Y-108309413D01*
X151269337Y-108309414D01*
X151269338Y-108309414D01*
X151166536Y-108403131D01*
X151118067Y-108447316D01*
X150994710Y-108610666D01*
X150903472Y-108793897D01*
X150847454Y-108990780D01*
X150828567Y-109194599D01*
X150502299Y-109194599D01*
X150502299Y-108319534D01*
X150502299Y-108319533D01*
X150502299Y-108319531D01*
X150487534Y-108245299D01*
X150431284Y-108161115D01*
X150347101Y-108104866D01*
X150347096Y-108104865D01*
X150272867Y-108090100D01*
X150272866Y-108090100D01*
X148522731Y-108090100D01*
X148448499Y-108104865D01*
X148364315Y-108161115D01*
X148308066Y-108245298D01*
X148293300Y-108319533D01*
X148293300Y-110069668D01*
X139627850Y-110069668D01*
X139634698Y-110063601D01*
X139724987Y-109932795D01*
X139781349Y-109784182D01*
X139800507Y-109626400D01*
X139781349Y-109468618D01*
X139724987Y-109320005D01*
X139634698Y-109189199D01*
X139515729Y-109083801D01*
X139388069Y-109016800D01*
X139374995Y-109009938D01*
X139374994Y-109009937D01*
X139374993Y-109009937D01*
X139220671Y-108971900D01*
X139061729Y-108971900D01*
X138907407Y-109009937D01*
X138907406Y-109009937D01*
X138907404Y-109009938D01*
X138766672Y-109083800D01*
X138647701Y-109189199D01*
X138557412Y-109320005D01*
X138501050Y-109468619D01*
X138481893Y-109626399D01*
X136289271Y-109626399D01*
X136416929Y-109559399D01*
X136535898Y-109454001D01*
X136626187Y-109323195D01*
X136682549Y-109174582D01*
X136701707Y-109016800D01*
X136682549Y-108859018D01*
X136626187Y-108710405D01*
X136535898Y-108579599D01*
X136416929Y-108474201D01*
X136276193Y-108400337D01*
X136121871Y-108362300D01*
X135962929Y-108362300D01*
X135808607Y-108400337D01*
X135808606Y-108400337D01*
X135808604Y-108400338D01*
X135667872Y-108474200D01*
X135548901Y-108579599D01*
X135458612Y-108710405D01*
X135402250Y-108859019D01*
X135383093Y-109016800D01*
X126407699Y-109016800D01*
X126407699Y-108319534D01*
X126407699Y-108319533D01*
X126407699Y-108319531D01*
X126392934Y-108245299D01*
X126336684Y-108161115D01*
X126252501Y-108104866D01*
X126252496Y-108104865D01*
X126178267Y-108090100D01*
X126178266Y-108090100D01*
X124428131Y-108090100D01*
X124353899Y-108104865D01*
X124269715Y-108161115D01*
X124213466Y-108245298D01*
X124198700Y-108319533D01*
X124198700Y-110069668D01*
X123442761Y-110069668D01*
X123582932Y-109941885D01*
X123706288Y-109778535D01*
X123797528Y-109595301D01*
X123853545Y-109398421D01*
X123872432Y-109194600D01*
X123871579Y-109185400D01*
X123855320Y-109009937D01*
X123853545Y-108990779D01*
X123797528Y-108793899D01*
X123753977Y-108706437D01*
X123706289Y-108610666D01*
X123603235Y-108474201D01*
X123582932Y-108447315D01*
X123431662Y-108309414D01*
X123328113Y-108245299D01*
X123257628Y-108201656D01*
X123150258Y-108160061D01*
X123066756Y-108127712D01*
X122865547Y-108090100D01*
X122660853Y-108090100D01*
X122459643Y-108127712D01*
X122459644Y-108127712D01*
X122268771Y-108201656D01*
X122094739Y-108309413D01*
X122094737Y-108309414D01*
X122094738Y-108309414D01*
X121991936Y-108403131D01*
X121943467Y-108447316D01*
X121820110Y-108610666D01*
X121728872Y-108793897D01*
X121672854Y-108990780D01*
X121653967Y-109194599D01*
X118757975Y-109194599D01*
X118864561Y-109037397D01*
X119040024Y-108706437D01*
X119178676Y-108358447D01*
X119278891Y-107997506D01*
X119339494Y-107627846D01*
X119359774Y-107253800D01*
X119353452Y-107137199D01*
X143457225Y-107137199D01*
X143475825Y-107266561D01*
X143530118Y-107385448D01*
X143615705Y-107484222D01*
X143708101Y-107543600D01*
X143725652Y-107554879D01*
X143851053Y-107591700D01*
X143981747Y-107591700D01*
X144107148Y-107554879D01*
X144124698Y-107543600D01*
X145670093Y-107543600D01*
X145689250Y-107701380D01*
X145745612Y-107849994D01*
X145745613Y-107849995D01*
X145835902Y-107980801D01*
X145954871Y-108086199D01*
X146095607Y-108160063D01*
X146249929Y-108198100D01*
X146249931Y-108198100D01*
X146408869Y-108198100D01*
X146408871Y-108198100D01*
X146563193Y-108160063D01*
X146703929Y-108086199D01*
X146822898Y-107980801D01*
X146913187Y-107849995D01*
X146969549Y-107701382D01*
X146988707Y-107543600D01*
X146969549Y-107385818D01*
X146919481Y-107253800D01*
X155620626Y-107253800D01*
X155620811Y-107257212D01*
X155640720Y-107624426D01*
X155640721Y-107624436D01*
X155640906Y-107627846D01*
X155641457Y-107631211D01*
X155641459Y-107631223D01*
X155700955Y-107994132D01*
X155700958Y-107994147D01*
X155701509Y-107997506D01*
X155702420Y-108000789D01*
X155702423Y-108000800D01*
X155800811Y-108355160D01*
X155801724Y-108358447D01*
X155802982Y-108361605D01*
X155802986Y-108361616D01*
X155889839Y-108579599D01*
X155940376Y-108706437D01*
X155941964Y-108709434D01*
X155941970Y-108709445D01*
X156114242Y-109034386D01*
X156114247Y-109034395D01*
X156115839Y-109037397D01*
X156117747Y-109040211D01*
X156117750Y-109040216D01*
X156206255Y-109170750D01*
X156326057Y-109347445D01*
X156568565Y-109632947D01*
X156571034Y-109635286D01*
X156571040Y-109635292D01*
X156826110Y-109876907D01*
X156840519Y-109890556D01*
X157138732Y-110117251D01*
X157459706Y-110310375D01*
X157799680Y-110467664D01*
X158154666Y-110587273D01*
X158157997Y-110588006D01*
X158158000Y-110588007D01*
X158227362Y-110603274D01*
X158520503Y-110667799D01*
X158892902Y-110708300D01*
X158896317Y-110708300D01*
X159264083Y-110708300D01*
X159267498Y-110708300D01*
X159639897Y-110667799D01*
X160005734Y-110587273D01*
X160360720Y-110467664D01*
X160700694Y-110310375D01*
X161021668Y-110117251D01*
X161319881Y-109890556D01*
X161591835Y-109632947D01*
X161834343Y-109347445D01*
X162044561Y-109037397D01*
X162220024Y-108706437D01*
X162358676Y-108358447D01*
X162458891Y-107997506D01*
X162519494Y-107627846D01*
X162539774Y-107253800D01*
X162519494Y-106879754D01*
X162458891Y-106510094D01*
X162358676Y-106149153D01*
X162220024Y-105801163D01*
X162044561Y-105470203D01*
X161834343Y-105160155D01*
X161591835Y-104874653D01*
X161589364Y-104872312D01*
X161589359Y-104872307D01*
X161322364Y-104619396D01*
X161322363Y-104619395D01*
X161319881Y-104617044D01*
X161294697Y-104597900D01*
X161024391Y-104392419D01*
X161021668Y-104390349D01*
X160700694Y-104197225D01*
X160697595Y-104195791D01*
X160697589Y-104195788D01*
X160363818Y-104041369D01*
X160363813Y-104041367D01*
X160360720Y-104039936D01*
X160357491Y-104038848D01*
X160357486Y-104038846D01*
X160008970Y-103921417D01*
X160008964Y-103921415D01*
X160005734Y-103920327D01*
X160002414Y-103919596D01*
X160002399Y-103919592D01*
X159643228Y-103840534D01*
X159643224Y-103840533D01*
X159639897Y-103839801D01*
X159628457Y-103838556D01*
X159270896Y-103799669D01*
X159270885Y-103799668D01*
X159267498Y-103799300D01*
X158892902Y-103799300D01*
X158889515Y-103799668D01*
X158889503Y-103799669D01*
X158523895Y-103839432D01*
X158523893Y-103839432D01*
X158520503Y-103839801D01*
X158517178Y-103840532D01*
X158517171Y-103840534D01*
X158158000Y-103919592D01*
X158157980Y-103919597D01*
X158154666Y-103920327D01*
X158151440Y-103921413D01*
X158151429Y-103921417D01*
X157802913Y-104038846D01*
X157802902Y-104038850D01*
X157799680Y-104039936D01*
X157796589Y-104041365D01*
X157796589Y-104041366D01*
X157777485Y-104050204D01*
X157707261Y-104060651D01*
X157642537Y-104031473D01*
X157603863Y-103971935D01*
X157603516Y-103900939D01*
X157620885Y-103864276D01*
X157657387Y-103811395D01*
X157713749Y-103662782D01*
X157732907Y-103505000D01*
X157713749Y-103347218D01*
X157657387Y-103198605D01*
X157567098Y-103067799D01*
X157448129Y-102962401D01*
X157307393Y-102888537D01*
X157153071Y-102850500D01*
X156994129Y-102850500D01*
X156839807Y-102888537D01*
X156839806Y-102888537D01*
X156839804Y-102888538D01*
X156699072Y-102962400D01*
X156580101Y-103067799D01*
X156489812Y-103198605D01*
X156433450Y-103347219D01*
X156414293Y-103504999D01*
X156433450Y-103662780D01*
X156489812Y-103811394D01*
X156545037Y-103891400D01*
X156580102Y-103942201D01*
X156699071Y-104047599D01*
X156839807Y-104121463D01*
X156994129Y-104159500D01*
X156994131Y-104159500D01*
X157069178Y-104159500D01*
X157137299Y-104179502D01*
X157183792Y-104233158D01*
X157193896Y-104303432D01*
X157164402Y-104368012D01*
X157140355Y-104389372D01*
X157138732Y-104390349D01*
X157136023Y-104392408D01*
X157136019Y-104392411D01*
X156843237Y-104614977D01*
X156843227Y-104614984D01*
X156840519Y-104617044D01*
X156838044Y-104619387D01*
X156838035Y-104619396D01*
X156571040Y-104872307D01*
X156571025Y-104872322D01*
X156568565Y-104874653D01*
X156566368Y-104877239D01*
X156566359Y-104877249D01*
X156328270Y-105157549D01*
X156328265Y-105157555D01*
X156326057Y-105160155D01*
X156324146Y-105162972D01*
X156324141Y-105162980D01*
X156117750Y-105467383D01*
X156117742Y-105467396D01*
X156115839Y-105470203D01*
X156114252Y-105473196D01*
X156114242Y-105473213D01*
X155941970Y-105798154D01*
X155941961Y-105798172D01*
X155940376Y-105801163D01*
X155939115Y-105804327D01*
X155939114Y-105804330D01*
X155802986Y-106145983D01*
X155802980Y-106145999D01*
X155801724Y-106149153D01*
X155800814Y-106152428D01*
X155800811Y-106152439D01*
X155702423Y-106506799D01*
X155702419Y-106506813D01*
X155701509Y-106510094D01*
X155700959Y-106513448D01*
X155700955Y-106513467D01*
X155641459Y-106876376D01*
X155641457Y-106876390D01*
X155640906Y-106879754D01*
X155640721Y-106883161D01*
X155640720Y-106883173D01*
X155628618Y-107106399D01*
X155620626Y-107253800D01*
X146919481Y-107253800D01*
X146913187Y-107237205D01*
X146822898Y-107106399D01*
X146703929Y-107001001D01*
X146563193Y-106927137D01*
X146408871Y-106889100D01*
X146249929Y-106889100D01*
X146095607Y-106927137D01*
X146095606Y-106927137D01*
X146095604Y-106927138D01*
X145954872Y-107001000D01*
X145835901Y-107106399D01*
X145745612Y-107237205D01*
X145689250Y-107385819D01*
X145670093Y-107543600D01*
X144124698Y-107543600D01*
X144162121Y-107519550D01*
X144217094Y-107484222D01*
X144217095Y-107484221D01*
X144302682Y-107385448D01*
X144356974Y-107266564D01*
X144375574Y-107137200D01*
X144356974Y-107007836D01*
X144302682Y-106888952D01*
X144289495Y-106873733D01*
X144217094Y-106790177D01*
X144107149Y-106719521D01*
X143981747Y-106682700D01*
X143851053Y-106682700D01*
X143725650Y-106719521D01*
X143615705Y-106790177D01*
X143530118Y-106888951D01*
X143475825Y-107007838D01*
X143457225Y-107137199D01*
X119353452Y-107137199D01*
X119339494Y-106879754D01*
X119278891Y-106510094D01*
X119178676Y-106149153D01*
X119040024Y-105801163D01*
X118864561Y-105470203D01*
X118654343Y-105160155D01*
X118411835Y-104874653D01*
X118409364Y-104872312D01*
X118409359Y-104872307D01*
X118145745Y-104622599D01*
X128448893Y-104622599D01*
X128468050Y-104780380D01*
X128524412Y-104928994D01*
X128524413Y-104928995D01*
X128614702Y-105059801D01*
X128733671Y-105165199D01*
X128874407Y-105239063D01*
X129028729Y-105277100D01*
X129028731Y-105277100D01*
X129187669Y-105277100D01*
X129187671Y-105277100D01*
X129341993Y-105239063D01*
X129482729Y-105165199D01*
X129601698Y-105059801D01*
X129691987Y-104928995D01*
X129748349Y-104780382D01*
X129767507Y-104622600D01*
X131039693Y-104622600D01*
X131058850Y-104780380D01*
X131115212Y-104928994D01*
X131115213Y-104928995D01*
X131205502Y-105059801D01*
X131324471Y-105165199D01*
X131465207Y-105239063D01*
X131619529Y-105277100D01*
X131619531Y-105277100D01*
X131778469Y-105277100D01*
X131778471Y-105277100D01*
X131932793Y-105239063D01*
X132073529Y-105165199D01*
X132192498Y-105059801D01*
X132282787Y-104928995D01*
X132339149Y-104780382D01*
X132358307Y-104622600D01*
X132339149Y-104464818D01*
X132282787Y-104316205D01*
X132192498Y-104185399D01*
X132169923Y-104165399D01*
X150165893Y-104165399D01*
X150185050Y-104323180D01*
X150241412Y-104471794D01*
X150241413Y-104471795D01*
X150331702Y-104602601D01*
X150450671Y-104707999D01*
X150591407Y-104781863D01*
X150745729Y-104819900D01*
X150745731Y-104819900D01*
X150904669Y-104819900D01*
X150904671Y-104819900D01*
X151058993Y-104781863D01*
X151199729Y-104707999D01*
X151300448Y-104618768D01*
X151364699Y-104588569D01*
X151435080Y-104597900D01*
X151467550Y-104618767D01*
X151557602Y-104698547D01*
X151568272Y-104708000D01*
X151642519Y-104746967D01*
X151709007Y-104781863D01*
X151863329Y-104819900D01*
X151863331Y-104819900D01*
X152022269Y-104819900D01*
X152022271Y-104819900D01*
X152176593Y-104781863D01*
X152317329Y-104707999D01*
X152436298Y-104602601D01*
X152526587Y-104471795D01*
X152582949Y-104323182D01*
X152602107Y-104165400D01*
X152582949Y-104007618D01*
X152526587Y-103859005D01*
X152436298Y-103728199D01*
X152317329Y-103622801D01*
X152176593Y-103548937D01*
X152022271Y-103510900D01*
X151863329Y-103510900D01*
X151709007Y-103548937D01*
X151709006Y-103548937D01*
X151709004Y-103548938D01*
X151568270Y-103622801D01*
X151467553Y-103712029D01*
X151403300Y-103742230D01*
X151332920Y-103732899D01*
X151300447Y-103712029D01*
X151199729Y-103622801D01*
X151058995Y-103548938D01*
X151058994Y-103548937D01*
X151058993Y-103548937D01*
X150904671Y-103510900D01*
X150745729Y-103510900D01*
X150591407Y-103548937D01*
X150591406Y-103548937D01*
X150591404Y-103548938D01*
X150450672Y-103622800D01*
X150331701Y-103728199D01*
X150241412Y-103859005D01*
X150185050Y-104007619D01*
X150165893Y-104165399D01*
X132169923Y-104165399D01*
X132073529Y-104080001D01*
X131932793Y-104006137D01*
X131778471Y-103968100D01*
X131619529Y-103968100D01*
X131465207Y-104006137D01*
X131465206Y-104006137D01*
X131465204Y-104006138D01*
X131324472Y-104080000D01*
X131205501Y-104185399D01*
X131115212Y-104316205D01*
X131058850Y-104464819D01*
X131039693Y-104622600D01*
X129767507Y-104622600D01*
X129748349Y-104464818D01*
X129691987Y-104316205D01*
X129601698Y-104185399D01*
X129482729Y-104080001D01*
X129341993Y-104006137D01*
X129187671Y-103968100D01*
X129028729Y-103968100D01*
X128874407Y-104006137D01*
X128874406Y-104006137D01*
X128874404Y-104006138D01*
X128733672Y-104080000D01*
X128614701Y-104185399D01*
X128524412Y-104316205D01*
X128468050Y-104464819D01*
X128448893Y-104622599D01*
X118145745Y-104622599D01*
X118142364Y-104619396D01*
X118142363Y-104619395D01*
X118139881Y-104617044D01*
X118114697Y-104597900D01*
X117844391Y-104392419D01*
X117841668Y-104390349D01*
X117520694Y-104197225D01*
X117517595Y-104195791D01*
X117517589Y-104195788D01*
X117183818Y-104041369D01*
X117183813Y-104041367D01*
X117180720Y-104039936D01*
X117177491Y-104038848D01*
X117177486Y-104038846D01*
X116828970Y-103921417D01*
X116828964Y-103921415D01*
X116825734Y-103920327D01*
X116822414Y-103919596D01*
X116822399Y-103919592D01*
X116463228Y-103840534D01*
X116463224Y-103840533D01*
X116459897Y-103839801D01*
X116448457Y-103838556D01*
X116090896Y-103799669D01*
X116090885Y-103799668D01*
X116087498Y-103799300D01*
X115712902Y-103799300D01*
X115709515Y-103799668D01*
X115709503Y-103799669D01*
X115343895Y-103839432D01*
X115343893Y-103839432D01*
X115340503Y-103839801D01*
X115337178Y-103840532D01*
X115337171Y-103840534D01*
X114978000Y-103919592D01*
X114977980Y-103919597D01*
X114974666Y-103920327D01*
X114971440Y-103921413D01*
X114971429Y-103921417D01*
X114622913Y-104038846D01*
X114622902Y-104038850D01*
X114619680Y-104039936D01*
X114616592Y-104041364D01*
X114616581Y-104041369D01*
X114282810Y-104195788D01*
X114282796Y-104195795D01*
X114279706Y-104197225D01*
X114276780Y-104198985D01*
X114276779Y-104198986D01*
X113961664Y-104388584D01*
X113961652Y-104388591D01*
X113958732Y-104390349D01*
X113956016Y-104392413D01*
X113956008Y-104392419D01*
X113663237Y-104614977D01*
X113663227Y-104614984D01*
X113660519Y-104617044D01*
X113658044Y-104619387D01*
X113658035Y-104619396D01*
X113391040Y-104872307D01*
X113391025Y-104872322D01*
X113388565Y-104874653D01*
X113386368Y-104877239D01*
X113386359Y-104877249D01*
X113148270Y-105157549D01*
X113148265Y-105157555D01*
X113146057Y-105160155D01*
X113144146Y-105162972D01*
X113144141Y-105162980D01*
X112937750Y-105467383D01*
X112937742Y-105467396D01*
X112935839Y-105470203D01*
X112934252Y-105473196D01*
X112934242Y-105473213D01*
X112761970Y-105798154D01*
X112761961Y-105798172D01*
X112760376Y-105801163D01*
X112759115Y-105804327D01*
X112759114Y-105804330D01*
X112622986Y-106145983D01*
X112622980Y-106145999D01*
X112621724Y-106149153D01*
X112620814Y-106152428D01*
X112620811Y-106152439D01*
X112522423Y-106506799D01*
X112522419Y-106506813D01*
X112521509Y-106510094D01*
X112520959Y-106513448D01*
X112520955Y-106513467D01*
X112461459Y-106876376D01*
X112461457Y-106876390D01*
X112460906Y-106879754D01*
X112460721Y-106883161D01*
X112460720Y-106883173D01*
X112448618Y-107106399D01*
X112440626Y-107253800D01*
X111700464Y-107253800D01*
X111700397Y-107250879D01*
X111700397Y-105798154D01*
X111700397Y-103857201D01*
X111720398Y-103789084D01*
X111774054Y-103742591D01*
X111844328Y-103732487D01*
X111908908Y-103761981D01*
X111930092Y-103785628D01*
X112003102Y-103891401D01*
X112122071Y-103996799D01*
X112262807Y-104070663D01*
X112417129Y-104108700D01*
X112417131Y-104108700D01*
X112576069Y-104108700D01*
X112576071Y-104108700D01*
X112730393Y-104070663D01*
X112871129Y-103996799D01*
X112990098Y-103891401D01*
X113080387Y-103760595D01*
X113136749Y-103611982D01*
X113155907Y-103454200D01*
X113151692Y-103419487D01*
X113163337Y-103349453D01*
X113210997Y-103296831D01*
X113276773Y-103278300D01*
X113462545Y-103278300D01*
X113462547Y-103278300D01*
X113663756Y-103240688D01*
X113854627Y-103166744D01*
X114028662Y-103058986D01*
X114179932Y-102921085D01*
X114303288Y-102757735D01*
X114394528Y-102574501D01*
X114450545Y-102377621D01*
X114469432Y-102173800D01*
X114469432Y-102173799D01*
X114790967Y-102173799D01*
X114809854Y-102377619D01*
X114865872Y-102574502D01*
X114957110Y-102757733D01*
X115013776Y-102832770D01*
X115080468Y-102921085D01*
X115231738Y-103058986D01*
X115405773Y-103166744D01*
X115596644Y-103240688D01*
X115797853Y-103278300D01*
X115797855Y-103278300D01*
X116002545Y-103278300D01*
X116002547Y-103278300D01*
X116203756Y-103240688D01*
X116394627Y-103166744D01*
X116545706Y-103073200D01*
X123622893Y-103073200D01*
X123642050Y-103230980D01*
X123698412Y-103379594D01*
X123698413Y-103379595D01*
X123788702Y-103510401D01*
X123907671Y-103615799D01*
X124048407Y-103689663D01*
X124202729Y-103727700D01*
X124202731Y-103727700D01*
X124361669Y-103727700D01*
X124361671Y-103727700D01*
X124515993Y-103689663D01*
X124656729Y-103615799D01*
X124775698Y-103510401D01*
X124865987Y-103379595D01*
X124922349Y-103230982D01*
X124941507Y-103073200D01*
X124922349Y-102915418D01*
X124865987Y-102766805D01*
X124775698Y-102635999D01*
X124656729Y-102530601D01*
X124515993Y-102456737D01*
X124361671Y-102418700D01*
X124202729Y-102418700D01*
X124048407Y-102456737D01*
X124048406Y-102456737D01*
X124048404Y-102456738D01*
X123907672Y-102530600D01*
X123788701Y-102635999D01*
X123698412Y-102766805D01*
X123642050Y-102915419D01*
X123622893Y-103073200D01*
X116545706Y-103073200D01*
X116568662Y-103058986D01*
X116719932Y-102921085D01*
X116843288Y-102757735D01*
X116934528Y-102574501D01*
X116990545Y-102377621D01*
X117009432Y-102173800D01*
X117008894Y-102167999D01*
X116990545Y-101969980D01*
X116990545Y-101969979D01*
X116934528Y-101773099D01*
X116869229Y-101641961D01*
X116860982Y-101625399D01*
X144933493Y-101625399D01*
X144952650Y-101783180D01*
X145009012Y-101931794D01*
X145035370Y-101969979D01*
X145099302Y-102062601D01*
X145218271Y-102167999D01*
X145359007Y-102241863D01*
X145513329Y-102279900D01*
X145513331Y-102279900D01*
X145672269Y-102279900D01*
X145672271Y-102279900D01*
X145826593Y-102241863D01*
X145956278Y-102173799D01*
X157970967Y-102173799D01*
X157989854Y-102377619D01*
X158045872Y-102574502D01*
X158137110Y-102757733D01*
X158193776Y-102832770D01*
X158260468Y-102921085D01*
X158411738Y-103058986D01*
X158585773Y-103166744D01*
X158776644Y-103240688D01*
X158977853Y-103278300D01*
X158977855Y-103278300D01*
X159182545Y-103278300D01*
X159182547Y-103278300D01*
X159383756Y-103240688D01*
X159574627Y-103166744D01*
X159748662Y-103058986D01*
X159899932Y-102921085D01*
X160023288Y-102757735D01*
X160114528Y-102574501D01*
X160170545Y-102377621D01*
X160189432Y-102173800D01*
X160188894Y-102167999D01*
X160170545Y-101969980D01*
X160170545Y-101969979D01*
X160114528Y-101773099D01*
X160049229Y-101641961D01*
X160023289Y-101589866D01*
X159963529Y-101510731D01*
X159899932Y-101426515D01*
X159748662Y-101288614D01*
X159638215Y-101220228D01*
X159574628Y-101180856D01*
X159479191Y-101143884D01*
X159383756Y-101106912D01*
X159182547Y-101069300D01*
X158977853Y-101069300D01*
X158776643Y-101106912D01*
X158776644Y-101106912D01*
X158585771Y-101180856D01*
X158411739Y-101288613D01*
X158260467Y-101426516D01*
X158137110Y-101589866D01*
X158045872Y-101773097D01*
X157989854Y-101969980D01*
X157970967Y-102173799D01*
X145956278Y-102173799D01*
X145967329Y-102167999D01*
X146086298Y-102062601D01*
X146176587Y-101931795D01*
X146232949Y-101783182D01*
X146252107Y-101625400D01*
X146232949Y-101467618D01*
X146176587Y-101319005D01*
X146086298Y-101188199D01*
X145967329Y-101082801D01*
X145826593Y-101008937D01*
X145672271Y-100970900D01*
X145513329Y-100970900D01*
X145359007Y-101008937D01*
X145359006Y-101008937D01*
X145359004Y-101008938D01*
X145218272Y-101082800D01*
X145099301Y-101188199D01*
X145009012Y-101319005D01*
X144952650Y-101467619D01*
X144933493Y-101625399D01*
X116860982Y-101625399D01*
X116843289Y-101589866D01*
X116783529Y-101510731D01*
X116719932Y-101426515D01*
X116568662Y-101288614D01*
X116458215Y-101220228D01*
X116394628Y-101180856D01*
X116299191Y-101143883D01*
X116203756Y-101106912D01*
X116002547Y-101069300D01*
X115797853Y-101069300D01*
X115596643Y-101106912D01*
X115596644Y-101106912D01*
X115405771Y-101180856D01*
X115231739Y-101288613D01*
X115080467Y-101426516D01*
X114957110Y-101589866D01*
X114865872Y-101773097D01*
X114809854Y-101969980D01*
X114790967Y-102173799D01*
X114469432Y-102173799D01*
X114468894Y-102167999D01*
X114450545Y-101969980D01*
X114450545Y-101969979D01*
X114394528Y-101773099D01*
X114329229Y-101641961D01*
X114303289Y-101589866D01*
X114243529Y-101510731D01*
X114179932Y-101426515D01*
X114028662Y-101288614D01*
X113918215Y-101220228D01*
X113854628Y-101180856D01*
X113759191Y-101143883D01*
X113663756Y-101106912D01*
X113462547Y-101069300D01*
X113276215Y-101069300D01*
X113208094Y-101049298D01*
X113161601Y-100995642D01*
X113151134Y-100928114D01*
X113155907Y-100888800D01*
X113154776Y-100879488D01*
X113166420Y-100809453D01*
X113214080Y-100756832D01*
X113279857Y-100738300D01*
X113462545Y-100738300D01*
X113462547Y-100738300D01*
X113663756Y-100700688D01*
X113854627Y-100626744D01*
X114028662Y-100518986D01*
X114179932Y-100381085D01*
X114303288Y-100217735D01*
X114394528Y-100034501D01*
X114450545Y-99837621D01*
X114469432Y-99633800D01*
X114469432Y-99633799D01*
X114790967Y-99633799D01*
X114809854Y-99837619D01*
X114865872Y-100034502D01*
X114957110Y-100217733D01*
X114998345Y-100272336D01*
X115080468Y-100381085D01*
X115231738Y-100518986D01*
X115405773Y-100626744D01*
X115596644Y-100700688D01*
X115797853Y-100738300D01*
X115797855Y-100738300D01*
X116002545Y-100738300D01*
X116002547Y-100738300D01*
X116203756Y-100700688D01*
X116394627Y-100626744D01*
X116463661Y-100584000D01*
X136221293Y-100584000D01*
X136240450Y-100741780D01*
X136296812Y-100890394D01*
X136378637Y-101008937D01*
X136387102Y-101021201D01*
X136506071Y-101126599D01*
X136646807Y-101200463D01*
X136801129Y-101238500D01*
X136801131Y-101238500D01*
X136960069Y-101238500D01*
X136960071Y-101238500D01*
X137114393Y-101200463D01*
X137255129Y-101126599D01*
X137374098Y-101021201D01*
X137464387Y-100890395D01*
X137520749Y-100741782D01*
X137539907Y-100584000D01*
X137520749Y-100426218D01*
X137464387Y-100277605D01*
X137374098Y-100146799D01*
X137255129Y-100041401D01*
X137114393Y-99967537D01*
X136960071Y-99929500D01*
X136801129Y-99929500D01*
X136646807Y-99967537D01*
X136646806Y-99967537D01*
X136646804Y-99967538D01*
X136506072Y-100041400D01*
X136387101Y-100146799D01*
X136296812Y-100277605D01*
X136240450Y-100426219D01*
X136221293Y-100584000D01*
X116463661Y-100584000D01*
X116568662Y-100518986D01*
X116719932Y-100381085D01*
X116843288Y-100217735D01*
X116934528Y-100034501D01*
X116990545Y-99837621D01*
X117009432Y-99633800D01*
X116990545Y-99429979D01*
X116934528Y-99233099D01*
X116858293Y-99079999D01*
X116848335Y-99060000D01*
X134519493Y-99060000D01*
X134538650Y-99217780D01*
X134595012Y-99366394D01*
X134638903Y-99429980D01*
X134685302Y-99497201D01*
X134804271Y-99602599D01*
X134945007Y-99676463D01*
X135099329Y-99714500D01*
X135099331Y-99714500D01*
X135258269Y-99714500D01*
X135258271Y-99714500D01*
X135412593Y-99676463D01*
X135553329Y-99602599D01*
X135672298Y-99497201D01*
X135762587Y-99366395D01*
X135818949Y-99217782D01*
X135828855Y-99136200D01*
X137846893Y-99136200D01*
X137866050Y-99293980D01*
X137922412Y-99442594D01*
X137973909Y-99517199D01*
X138012702Y-99573401D01*
X138131671Y-99678799D01*
X138272407Y-99752663D01*
X138426729Y-99790700D01*
X138426731Y-99790700D01*
X138585669Y-99790700D01*
X138585671Y-99790700D01*
X138739993Y-99752663D01*
X138880729Y-99678799D01*
X138999698Y-99573401D01*
X139038491Y-99517199D01*
X140209093Y-99517199D01*
X140228250Y-99674980D01*
X140284612Y-99823594D01*
X140284613Y-99823595D01*
X140374902Y-99954401D01*
X140493871Y-100059799D01*
X140634607Y-100133663D01*
X140788929Y-100171700D01*
X140788931Y-100171700D01*
X140947869Y-100171700D01*
X140947871Y-100171700D01*
X141102193Y-100133663D01*
X141242929Y-100059799D01*
X141361898Y-99954401D01*
X141452187Y-99823595D01*
X141508549Y-99674982D01*
X141513549Y-99633799D01*
X157970967Y-99633799D01*
X157989854Y-99837619D01*
X158045872Y-100034502D01*
X158137110Y-100217733D01*
X158178345Y-100272336D01*
X158260468Y-100381085D01*
X158411738Y-100518986D01*
X158585773Y-100626744D01*
X158776644Y-100700688D01*
X158977853Y-100738300D01*
X158977855Y-100738300D01*
X159182545Y-100738300D01*
X159182547Y-100738300D01*
X159383756Y-100700688D01*
X159574627Y-100626744D01*
X159748662Y-100518986D01*
X159899932Y-100381085D01*
X160023288Y-100217735D01*
X160114528Y-100034501D01*
X160170545Y-99837621D01*
X160189432Y-99633800D01*
X160170545Y-99429979D01*
X160114528Y-99233099D01*
X160038293Y-99079999D01*
X160023289Y-99049866D01*
X159978580Y-98990662D01*
X159899932Y-98886515D01*
X159748662Y-98748614D01*
X159638215Y-98680228D01*
X159574628Y-98640856D01*
X159452648Y-98593601D01*
X159383756Y-98566912D01*
X159182547Y-98529300D01*
X158977853Y-98529300D01*
X158776643Y-98566912D01*
X158776644Y-98566912D01*
X158585771Y-98640856D01*
X158411739Y-98748613D01*
X158260467Y-98886516D01*
X158137110Y-99049866D01*
X158045872Y-99233097D01*
X157989854Y-99429980D01*
X157970967Y-99633799D01*
X141513549Y-99633799D01*
X141527707Y-99517200D01*
X141508549Y-99359418D01*
X141452187Y-99210805D01*
X141361898Y-99079999D01*
X141242929Y-98974601D01*
X141102193Y-98900737D01*
X140947871Y-98862700D01*
X140788929Y-98862700D01*
X140634607Y-98900737D01*
X140634606Y-98900737D01*
X140634604Y-98900738D01*
X140493872Y-98974600D01*
X140374901Y-99079999D01*
X140284612Y-99210805D01*
X140228250Y-99359419D01*
X140209093Y-99517199D01*
X139038491Y-99517199D01*
X139089987Y-99442595D01*
X139146349Y-99293982D01*
X139165507Y-99136200D01*
X139146349Y-98978418D01*
X139089987Y-98829805D01*
X138999698Y-98698999D01*
X138880729Y-98593601D01*
X138739993Y-98519737D01*
X138585671Y-98481700D01*
X138426729Y-98481700D01*
X138272407Y-98519737D01*
X138272406Y-98519737D01*
X138272404Y-98519738D01*
X138131672Y-98593600D01*
X138012701Y-98698999D01*
X137922412Y-98829805D01*
X137866050Y-98978419D01*
X137846893Y-99136200D01*
X135828855Y-99136200D01*
X135838107Y-99060000D01*
X135818949Y-98902218D01*
X135762587Y-98753605D01*
X135672298Y-98622799D01*
X135553329Y-98517401D01*
X135412593Y-98443537D01*
X135258271Y-98405500D01*
X135099329Y-98405500D01*
X134945007Y-98443537D01*
X134945006Y-98443537D01*
X134945004Y-98443538D01*
X134804272Y-98517400D01*
X134685301Y-98622799D01*
X134595012Y-98753605D01*
X134538650Y-98902219D01*
X134519493Y-99060000D01*
X116848335Y-99060000D01*
X116843289Y-99049866D01*
X116798580Y-98990662D01*
X116719932Y-98886515D01*
X116568662Y-98748614D01*
X116458215Y-98680228D01*
X116394628Y-98640856D01*
X116272648Y-98593601D01*
X116203756Y-98566912D01*
X116002547Y-98529300D01*
X115797853Y-98529300D01*
X115596643Y-98566912D01*
X115596644Y-98566912D01*
X115405771Y-98640856D01*
X115231739Y-98748613D01*
X115080467Y-98886516D01*
X114957110Y-99049866D01*
X114865872Y-99233097D01*
X114809854Y-99429980D01*
X114790967Y-99633799D01*
X114469432Y-99633799D01*
X114450545Y-99429979D01*
X114394528Y-99233099D01*
X114318293Y-99079999D01*
X114303289Y-99049866D01*
X114258580Y-98990662D01*
X114179932Y-98886515D01*
X114028662Y-98748614D01*
X113918215Y-98680228D01*
X113854628Y-98640856D01*
X113732648Y-98593601D01*
X113663756Y-98566912D01*
X113462547Y-98529300D01*
X113276215Y-98529300D01*
X113208094Y-98509298D01*
X113161601Y-98455642D01*
X113151134Y-98388114D01*
X113155907Y-98348800D01*
X113154776Y-98339488D01*
X113166420Y-98269453D01*
X113214080Y-98216832D01*
X113279857Y-98198300D01*
X113462545Y-98198300D01*
X113462547Y-98198300D01*
X113663756Y-98160688D01*
X113854627Y-98086744D01*
X114028662Y-97978986D01*
X114179932Y-97841085D01*
X114303288Y-97677735D01*
X114394528Y-97494501D01*
X114450545Y-97297621D01*
X114469432Y-97093800D01*
X114469432Y-97093799D01*
X114790967Y-97093799D01*
X114809854Y-97297619D01*
X114865872Y-97494502D01*
X114957110Y-97677733D01*
X114998345Y-97732336D01*
X115080468Y-97841085D01*
X115231738Y-97978986D01*
X115405773Y-98086744D01*
X115596644Y-98160688D01*
X115797853Y-98198300D01*
X115797855Y-98198300D01*
X116002545Y-98198300D01*
X116002547Y-98198300D01*
X116203756Y-98160688D01*
X116394627Y-98086744D01*
X116568662Y-97978986D01*
X116719932Y-97841085D01*
X116843288Y-97677735D01*
X116934528Y-97494501D01*
X116990545Y-97297621D01*
X117009432Y-97093800D01*
X117009432Y-97093799D01*
X157970967Y-97093799D01*
X157989854Y-97297619D01*
X158045872Y-97494502D01*
X158137110Y-97677733D01*
X158178345Y-97732336D01*
X158260468Y-97841085D01*
X158411738Y-97978986D01*
X158585773Y-98086744D01*
X158776644Y-98160688D01*
X158977853Y-98198300D01*
X158977855Y-98198300D01*
X159182545Y-98198300D01*
X159182547Y-98198300D01*
X159383756Y-98160688D01*
X159574627Y-98086744D01*
X159748662Y-97978986D01*
X159899932Y-97841085D01*
X160023288Y-97677735D01*
X160114528Y-97494501D01*
X160170545Y-97297621D01*
X160189432Y-97093800D01*
X160170545Y-96889979D01*
X160114528Y-96693099D01*
X160049229Y-96561961D01*
X160023289Y-96509866D01*
X159963529Y-96430731D01*
X159899932Y-96346515D01*
X159748662Y-96208614D01*
X159638215Y-96140228D01*
X159574628Y-96100856D01*
X159479191Y-96063884D01*
X159383756Y-96026912D01*
X159182547Y-95989300D01*
X158977853Y-95989300D01*
X158776643Y-96026912D01*
X158776644Y-96026912D01*
X158585771Y-96100856D01*
X158411739Y-96208613D01*
X158260467Y-96346516D01*
X158137110Y-96509866D01*
X158045872Y-96693097D01*
X157989854Y-96889980D01*
X157970967Y-97093799D01*
X117009432Y-97093799D01*
X116990545Y-96889979D01*
X116934528Y-96693099D01*
X116869229Y-96561961D01*
X116843289Y-96509866D01*
X116783529Y-96430731D01*
X116719932Y-96346515D01*
X116568662Y-96208614D01*
X116458215Y-96140228D01*
X116394628Y-96100856D01*
X116299191Y-96063883D01*
X116203756Y-96026912D01*
X116002547Y-95989300D01*
X115797853Y-95989300D01*
X115596643Y-96026912D01*
X115596644Y-96026912D01*
X115405771Y-96100856D01*
X115231739Y-96208613D01*
X115080467Y-96346516D01*
X114957110Y-96509866D01*
X114865872Y-96693097D01*
X114809854Y-96889980D01*
X114790967Y-97093799D01*
X114469432Y-97093799D01*
X114450545Y-96889979D01*
X114394528Y-96693099D01*
X114329229Y-96561961D01*
X114303289Y-96509866D01*
X114243529Y-96430731D01*
X114179932Y-96346515D01*
X114028662Y-96208614D01*
X113918215Y-96140228D01*
X113854628Y-96100856D01*
X113759191Y-96063883D01*
X113663756Y-96026912D01*
X113462547Y-95989300D01*
X113276215Y-95989300D01*
X113208094Y-95969298D01*
X113161601Y-95915642D01*
X113151134Y-95848114D01*
X113155907Y-95808800D01*
X113154776Y-95799488D01*
X113166420Y-95729453D01*
X113214080Y-95676832D01*
X113279857Y-95658300D01*
X113462545Y-95658300D01*
X113462547Y-95658300D01*
X113663756Y-95620688D01*
X113854627Y-95546744D01*
X114028662Y-95438986D01*
X114179932Y-95301085D01*
X114303288Y-95137735D01*
X114394528Y-94954501D01*
X114450545Y-94757621D01*
X114469432Y-94553800D01*
X114790967Y-94553800D01*
X114809854Y-94757619D01*
X114865872Y-94954502D01*
X114957110Y-95137733D01*
X114998345Y-95192336D01*
X115080468Y-95301085D01*
X115231738Y-95438986D01*
X115301126Y-95481949D01*
X115377761Y-95529400D01*
X115405773Y-95546744D01*
X115596644Y-95620688D01*
X115797853Y-95658300D01*
X115797855Y-95658300D01*
X116002545Y-95658300D01*
X116002547Y-95658300D01*
X116203756Y-95620688D01*
X116394627Y-95546744D01*
X116568662Y-95438986D01*
X116719932Y-95301085D01*
X116796873Y-95199199D01*
X124283293Y-95199199D01*
X124302450Y-95356980D01*
X124358812Y-95505594D01*
X124441914Y-95625987D01*
X124449102Y-95636401D01*
X124568071Y-95741799D01*
X124708807Y-95815663D01*
X124863129Y-95853700D01*
X124863131Y-95853700D01*
X125022069Y-95853700D01*
X125022071Y-95853700D01*
X125176393Y-95815663D01*
X125317129Y-95741799D01*
X125436098Y-95636401D01*
X125526387Y-95505595D01*
X125582749Y-95356982D01*
X125601907Y-95199200D01*
X125582749Y-95041418D01*
X125526387Y-94892805D01*
X125436098Y-94761999D01*
X125317129Y-94656601D01*
X125176393Y-94582737D01*
X125022071Y-94544700D01*
X124863129Y-94544700D01*
X124708807Y-94582737D01*
X124708806Y-94582737D01*
X124708804Y-94582738D01*
X124568072Y-94656600D01*
X124449101Y-94761999D01*
X124358812Y-94892805D01*
X124302450Y-95041419D01*
X124283293Y-95199199D01*
X116796873Y-95199199D01*
X116843288Y-95137735D01*
X116934528Y-94954501D01*
X116990545Y-94757621D01*
X117009432Y-94553800D01*
X116990545Y-94349979D01*
X116934528Y-94153099D01*
X116869229Y-94021961D01*
X116843289Y-93969866D01*
X116783529Y-93890731D01*
X116719932Y-93806515D01*
X116568662Y-93668614D01*
X116458215Y-93600228D01*
X116394628Y-93560856D01*
X116299191Y-93523883D01*
X116203756Y-93486912D01*
X116002547Y-93449300D01*
X115797853Y-93449300D01*
X115596643Y-93486912D01*
X115596644Y-93486912D01*
X115405771Y-93560856D01*
X115231739Y-93668613D01*
X115080467Y-93806516D01*
X114957110Y-93969866D01*
X114865872Y-94153097D01*
X114809854Y-94349980D01*
X114790967Y-94553800D01*
X114469432Y-94553800D01*
X114450545Y-94349979D01*
X114394528Y-94153099D01*
X114329229Y-94021961D01*
X114303289Y-93969866D01*
X114243529Y-93890731D01*
X114179932Y-93806515D01*
X114028662Y-93668614D01*
X113918215Y-93600228D01*
X113854628Y-93560856D01*
X113759191Y-93523883D01*
X113663756Y-93486912D01*
X113462547Y-93449300D01*
X113276215Y-93449300D01*
X113208094Y-93429298D01*
X113161601Y-93375642D01*
X113151134Y-93308114D01*
X113155907Y-93268800D01*
X113154776Y-93259488D01*
X113166420Y-93189453D01*
X113214080Y-93136832D01*
X113279857Y-93118300D01*
X113462545Y-93118300D01*
X113462547Y-93118300D01*
X113663756Y-93080688D01*
X113854627Y-93006744D01*
X114028662Y-92898986D01*
X114179932Y-92761085D01*
X114303288Y-92597735D01*
X114394528Y-92414501D01*
X114450545Y-92217621D01*
X114469432Y-92013800D01*
X114790967Y-92013800D01*
X114809854Y-92217619D01*
X114865872Y-92414502D01*
X114957110Y-92597733D01*
X114998345Y-92652336D01*
X115080468Y-92761085D01*
X115231738Y-92898986D01*
X115357398Y-92976791D01*
X115397899Y-93001869D01*
X115405773Y-93006744D01*
X115596644Y-93080688D01*
X115797853Y-93118300D01*
X115797855Y-93118300D01*
X116002545Y-93118300D01*
X116002547Y-93118300D01*
X116203756Y-93080688D01*
X116394627Y-93006744D01*
X116568662Y-92898986D01*
X116719932Y-92761085D01*
X116816054Y-92633799D01*
X133935293Y-92633799D01*
X133954450Y-92791580D01*
X134010812Y-92940194D01*
X134101101Y-93070999D01*
X134101102Y-93071001D01*
X134220071Y-93176399D01*
X134360807Y-93250263D01*
X134515129Y-93288300D01*
X134515131Y-93288300D01*
X134674069Y-93288300D01*
X134674071Y-93288300D01*
X134828393Y-93250263D01*
X134969129Y-93176399D01*
X135088098Y-93071001D01*
X135121404Y-93022748D01*
X135176562Y-92978048D01*
X135247130Y-92970265D01*
X135310704Y-93001869D01*
X135347100Y-93062827D01*
X135351100Y-93094324D01*
X135351100Y-95251000D01*
X135351459Y-95254347D01*
X135351460Y-95254350D01*
X135356484Y-95301085D01*
X135357030Y-95306159D01*
X135357748Y-95309459D01*
X135368058Y-95356858D01*
X135368063Y-95356879D01*
X135368416Y-95358501D01*
X135368861Y-95360123D01*
X135368862Y-95360127D01*
X135375765Y-95385290D01*
X135406342Y-95438986D01*
X135425869Y-95473278D01*
X135472362Y-95526934D01*
X135474382Y-95528883D01*
X135505652Y-95559057D01*
X135595369Y-95605987D01*
X135613241Y-95611234D01*
X135663491Y-95625989D01*
X135736600Y-95636500D01*
X135736603Y-95636500D01*
X140205631Y-95636500D01*
X140209000Y-95636500D01*
X140264159Y-95630570D01*
X140316501Y-95619184D01*
X140343291Y-95611834D01*
X140431278Y-95561731D01*
X140468591Y-95529399D01*
X141758493Y-95529399D01*
X141777650Y-95687180D01*
X141834012Y-95835794D01*
X141834013Y-95835795D01*
X141924302Y-95966601D01*
X142043271Y-96071999D01*
X142184007Y-96145863D01*
X142338329Y-96183900D01*
X142338331Y-96183900D01*
X142497269Y-96183900D01*
X142497271Y-96183900D01*
X142651593Y-96145863D01*
X142792329Y-96071999D01*
X142911298Y-95966601D01*
X143001587Y-95835795D01*
X143057949Y-95687182D01*
X143077107Y-95529400D01*
X143057949Y-95371618D01*
X143001587Y-95223005D01*
X142911298Y-95092199D01*
X142792329Y-94986801D01*
X142651593Y-94912937D01*
X142497271Y-94874900D01*
X142338329Y-94874900D01*
X142184007Y-94912937D01*
X142184006Y-94912937D01*
X142184004Y-94912938D01*
X142043272Y-94986800D01*
X141924301Y-95092199D01*
X141834012Y-95223005D01*
X141777650Y-95371619D01*
X141758493Y-95529399D01*
X140468591Y-95529399D01*
X140484934Y-95515238D01*
X140517056Y-95481949D01*
X140563987Y-95392230D01*
X140583989Y-95324109D01*
X140594500Y-95251000D01*
X140594500Y-94553800D01*
X157970967Y-94553800D01*
X157989854Y-94757619D01*
X158045872Y-94954502D01*
X158137110Y-95137733D01*
X158178345Y-95192336D01*
X158260468Y-95301085D01*
X158411738Y-95438986D01*
X158481126Y-95481949D01*
X158557761Y-95529400D01*
X158585773Y-95546744D01*
X158776644Y-95620688D01*
X158977853Y-95658300D01*
X158977855Y-95658300D01*
X159182545Y-95658300D01*
X159182547Y-95658300D01*
X159383756Y-95620688D01*
X159574627Y-95546744D01*
X159748662Y-95438986D01*
X159899932Y-95301085D01*
X160023288Y-95137735D01*
X160114528Y-94954501D01*
X160170545Y-94757621D01*
X160189432Y-94553800D01*
X160170545Y-94349979D01*
X160114528Y-94153099D01*
X160049229Y-94021961D01*
X160023289Y-93969866D01*
X159963529Y-93890731D01*
X159899932Y-93806515D01*
X159748662Y-93668614D01*
X159638215Y-93600228D01*
X159574628Y-93560856D01*
X159479191Y-93523884D01*
X159383756Y-93486912D01*
X159182547Y-93449300D01*
X158977853Y-93449300D01*
X158776643Y-93486912D01*
X158776644Y-93486912D01*
X158585771Y-93560856D01*
X158411739Y-93668613D01*
X158260467Y-93806516D01*
X158137110Y-93969866D01*
X158045872Y-94153097D01*
X157989854Y-94349980D01*
X157970967Y-94553800D01*
X140594500Y-94553800D01*
X140594500Y-92753470D01*
X140614502Y-92685350D01*
X140631400Y-92664380D01*
X141049099Y-92246680D01*
X141052167Y-92243717D01*
X141099373Y-92199631D01*
X141099373Y-92199630D01*
X141099376Y-92199628D01*
X141120856Y-92164303D01*
X141128105Y-92153653D01*
X141153080Y-92120721D01*
X141159676Y-92103993D01*
X141169237Y-92084745D01*
X141178574Y-92069391D01*
X141178575Y-92069390D01*
X141189728Y-92029581D01*
X141193834Y-92017374D01*
X141195244Y-92013799D01*
X157970967Y-92013799D01*
X157989854Y-92217619D01*
X158045872Y-92414502D01*
X158137110Y-92597733D01*
X158178345Y-92652336D01*
X158260468Y-92761085D01*
X158411738Y-92898986D01*
X158537398Y-92976791D01*
X158577899Y-93001869D01*
X158585773Y-93006744D01*
X158776644Y-93080688D01*
X158977853Y-93118300D01*
X158977855Y-93118300D01*
X159182545Y-93118300D01*
X159182547Y-93118300D01*
X159383756Y-93080688D01*
X159574627Y-93006744D01*
X159748662Y-92898986D01*
X159899932Y-92761085D01*
X160023288Y-92597735D01*
X160114528Y-92414501D01*
X160170545Y-92217621D01*
X160189432Y-92013800D01*
X160170545Y-91809979D01*
X160114528Y-91613099D01*
X160113785Y-91611607D01*
X160023289Y-91429866D01*
X159963529Y-91350731D01*
X159899932Y-91266515D01*
X159748662Y-91128614D01*
X159638215Y-91060228D01*
X159574628Y-91020856D01*
X159479191Y-90983884D01*
X159383756Y-90946912D01*
X159182547Y-90909300D01*
X158977853Y-90909300D01*
X158776644Y-90946912D01*
X158585771Y-91020856D01*
X158411739Y-91128613D01*
X158260467Y-91266516D01*
X158137110Y-91429866D01*
X158045872Y-91613097D01*
X157989854Y-91809980D01*
X157970967Y-92013799D01*
X141195244Y-92013799D01*
X141208999Y-91978920D01*
X141210838Y-91961027D01*
X141214849Y-91939925D01*
X141219700Y-91922614D01*
X141219700Y-91881276D01*
X141220361Y-91868391D01*
X141224586Y-91827291D01*
X141221532Y-91809577D01*
X141219700Y-91788170D01*
X141219700Y-90881200D01*
X149911893Y-90881200D01*
X149931050Y-91038980D01*
X149987412Y-91187594D01*
X150041888Y-91266515D01*
X150077702Y-91318401D01*
X150196671Y-91423799D01*
X150337407Y-91497663D01*
X150491729Y-91535700D01*
X150491731Y-91535700D01*
X150650669Y-91535700D01*
X150650671Y-91535700D01*
X150804993Y-91497663D01*
X150945729Y-91423799D01*
X151064698Y-91318401D01*
X151154987Y-91187595D01*
X151211349Y-91038982D01*
X151230507Y-90881200D01*
X151211349Y-90723418D01*
X151154987Y-90574805D01*
X151064698Y-90443999D01*
X150945729Y-90338601D01*
X150804993Y-90264737D01*
X150650671Y-90226700D01*
X150491729Y-90226700D01*
X150337407Y-90264737D01*
X150337406Y-90264737D01*
X150337404Y-90264738D01*
X150196672Y-90338600D01*
X150077701Y-90443999D01*
X149987412Y-90574805D01*
X149931050Y-90723419D01*
X149911893Y-90881200D01*
X141219700Y-90881200D01*
X141219700Y-89077800D01*
X146762293Y-89077800D01*
X146781450Y-89235580D01*
X146837812Y-89384194D01*
X146837813Y-89384195D01*
X146928102Y-89515001D01*
X147047071Y-89620399D01*
X147187807Y-89694263D01*
X147342129Y-89732300D01*
X147342131Y-89732300D01*
X147501069Y-89732300D01*
X147501071Y-89732300D01*
X147655393Y-89694263D01*
X147796129Y-89620399D01*
X147915098Y-89515001D01*
X147943537Y-89473800D01*
X157970967Y-89473800D01*
X157989854Y-89677619D01*
X158045872Y-89874502D01*
X158137110Y-90057733D01*
X158178345Y-90112336D01*
X158260468Y-90221085D01*
X158411738Y-90358986D01*
X158585773Y-90466744D01*
X158776644Y-90540688D01*
X158977853Y-90578300D01*
X158977855Y-90578300D01*
X159182545Y-90578300D01*
X159182547Y-90578300D01*
X159383756Y-90540688D01*
X159574627Y-90466744D01*
X159748662Y-90358986D01*
X159899932Y-90221085D01*
X160023288Y-90057735D01*
X160114528Y-89874501D01*
X160170545Y-89677621D01*
X160189432Y-89473800D01*
X160170545Y-89269979D01*
X160114528Y-89073099D01*
X160072767Y-88989232D01*
X160023289Y-88889866D01*
X159978580Y-88830662D01*
X159899932Y-88726515D01*
X159748662Y-88588614D01*
X159677254Y-88544400D01*
X159574628Y-88480856D01*
X159426058Y-88423300D01*
X159383756Y-88406912D01*
X159182547Y-88369300D01*
X158977853Y-88369300D01*
X158776643Y-88406912D01*
X158776644Y-88406912D01*
X158585771Y-88480856D01*
X158411739Y-88588613D01*
X158260467Y-88726516D01*
X158137110Y-88889866D01*
X158045872Y-89073097D01*
X157989854Y-89269980D01*
X157970967Y-89473800D01*
X147943537Y-89473800D01*
X148005387Y-89384195D01*
X148061749Y-89235582D01*
X148080907Y-89077800D01*
X148061749Y-88920018D01*
X148005387Y-88771405D01*
X147915098Y-88640599D01*
X147806512Y-88544400D01*
X152426493Y-88544400D01*
X152445650Y-88702180D01*
X152502012Y-88850794D01*
X152591423Y-88980327D01*
X152592302Y-88981601D01*
X152711271Y-89086999D01*
X152852007Y-89160863D01*
X153006329Y-89198900D01*
X153006331Y-89198900D01*
X153165269Y-89198900D01*
X153165271Y-89198900D01*
X153319593Y-89160863D01*
X153460329Y-89086999D01*
X153579298Y-88981601D01*
X153669587Y-88850795D01*
X153725949Y-88702182D01*
X153745107Y-88544400D01*
X153725949Y-88386618D01*
X153669587Y-88238005D01*
X153579298Y-88107199D01*
X153460329Y-88001801D01*
X153319593Y-87927937D01*
X153165271Y-87889900D01*
X153006329Y-87889900D01*
X152852007Y-87927937D01*
X152852006Y-87927937D01*
X152852004Y-87927938D01*
X152711272Y-88001800D01*
X152592301Y-88107199D01*
X152502012Y-88238005D01*
X152445650Y-88386619D01*
X152426493Y-88544400D01*
X147806512Y-88544400D01*
X147796129Y-88535201D01*
X147655393Y-88461337D01*
X147501071Y-88423300D01*
X147342129Y-88423300D01*
X147187807Y-88461337D01*
X147187806Y-88461337D01*
X147187804Y-88461338D01*
X147047072Y-88535200D01*
X146928101Y-88640599D01*
X146837812Y-88771405D01*
X146781450Y-88920019D01*
X146762293Y-89077800D01*
X141219700Y-89077800D01*
X141219700Y-86933800D01*
X157970967Y-86933800D01*
X157989854Y-87137619D01*
X158045872Y-87334502D01*
X158137110Y-87517733D01*
X158178345Y-87572336D01*
X158260468Y-87681085D01*
X158411738Y-87818986D01*
X158585773Y-87926744D01*
X158776644Y-88000688D01*
X158977853Y-88038300D01*
X158977855Y-88038300D01*
X159182545Y-88038300D01*
X159182547Y-88038300D01*
X159383756Y-88000688D01*
X159574627Y-87926744D01*
X159748662Y-87818986D01*
X159899932Y-87681085D01*
X160023288Y-87517735D01*
X160114528Y-87334501D01*
X160170545Y-87137621D01*
X160189432Y-86933800D01*
X160170545Y-86729979D01*
X160114528Y-86533099D01*
X160049229Y-86401961D01*
X160023289Y-86349866D01*
X159963529Y-86270731D01*
X159899932Y-86186515D01*
X159748662Y-86048614D01*
X159638215Y-85980228D01*
X159574628Y-85940856D01*
X159479191Y-85903884D01*
X159383756Y-85866912D01*
X159182547Y-85829300D01*
X158977853Y-85829300D01*
X158776643Y-85866912D01*
X158776644Y-85866912D01*
X158585771Y-85940856D01*
X158411739Y-86048613D01*
X158260467Y-86186516D01*
X158137110Y-86349866D01*
X158045872Y-86533097D01*
X157989854Y-86729980D01*
X157970967Y-86933800D01*
X141219700Y-86933800D01*
X141219700Y-85699600D01*
X143152425Y-85699600D01*
X143171025Y-85828961D01*
X143171025Y-85828962D01*
X143171026Y-85828964D01*
X143182213Y-85853460D01*
X143225318Y-85947848D01*
X143310905Y-86046622D01*
X143420850Y-86117278D01*
X143420852Y-86117279D01*
X143546253Y-86154100D01*
X143676947Y-86154100D01*
X143802348Y-86117279D01*
X143864705Y-86077205D01*
X143912294Y-86046622D01*
X143913085Y-86045709D01*
X143997882Y-85947848D01*
X144052174Y-85828964D01*
X144070774Y-85699600D01*
X144052174Y-85570236D01*
X143997882Y-85451352D01*
X143941899Y-85386744D01*
X143912294Y-85352577D01*
X143802349Y-85281921D01*
X143676947Y-85245100D01*
X143546253Y-85245100D01*
X143420850Y-85281921D01*
X143310905Y-85352577D01*
X143225318Y-85451351D01*
X143171025Y-85570238D01*
X143152425Y-85699600D01*
X141219700Y-85699600D01*
X141219700Y-84226399D01*
X147752893Y-84226399D01*
X147772050Y-84384180D01*
X147828412Y-84532794D01*
X147911260Y-84652819D01*
X147918702Y-84663601D01*
X148037671Y-84768999D01*
X148178407Y-84842863D01*
X148332729Y-84880900D01*
X148332731Y-84880900D01*
X148491669Y-84880900D01*
X148491671Y-84880900D01*
X148645993Y-84842863D01*
X148786729Y-84768999D01*
X148905698Y-84663601D01*
X148995987Y-84532795D01*
X149048701Y-84393800D01*
X157970967Y-84393800D01*
X157989854Y-84597619D01*
X158045872Y-84794502D01*
X158137110Y-84977733D01*
X158178345Y-85032336D01*
X158260468Y-85141085D01*
X158411738Y-85278986D01*
X158585773Y-85386744D01*
X158776644Y-85460688D01*
X158977853Y-85498300D01*
X158977855Y-85498300D01*
X159182545Y-85498300D01*
X159182547Y-85498300D01*
X159383756Y-85460688D01*
X159574627Y-85386744D01*
X159748662Y-85278986D01*
X159899932Y-85141085D01*
X160023288Y-84977735D01*
X160114528Y-84794501D01*
X160170545Y-84597621D01*
X160189432Y-84393800D01*
X160170545Y-84189979D01*
X160114528Y-83993099D01*
X160084033Y-83931856D01*
X160023289Y-83809866D01*
X159963529Y-83730731D01*
X159899932Y-83646515D01*
X159748662Y-83508614D01*
X159638215Y-83440228D01*
X159574628Y-83400856D01*
X159424770Y-83342801D01*
X159383756Y-83326912D01*
X159182547Y-83289300D01*
X158977853Y-83289300D01*
X158776644Y-83326912D01*
X158585771Y-83400856D01*
X158411739Y-83508613D01*
X158260467Y-83646516D01*
X158137110Y-83809866D01*
X158045872Y-83993097D01*
X157989854Y-84189980D01*
X157970967Y-84393800D01*
X149048701Y-84393800D01*
X149052349Y-84384182D01*
X149071507Y-84226400D01*
X149052349Y-84068618D01*
X148995987Y-83920005D01*
X148905698Y-83789199D01*
X148786729Y-83683801D01*
X148645993Y-83609937D01*
X148491671Y-83571900D01*
X148332729Y-83571900D01*
X148178407Y-83609937D01*
X148178406Y-83609937D01*
X148178404Y-83609938D01*
X148037672Y-83683800D01*
X147918701Y-83789199D01*
X147828412Y-83920005D01*
X147772050Y-84068619D01*
X147752893Y-84226399D01*
X141219700Y-84226399D01*
X141219700Y-82931000D01*
X144247693Y-82931000D01*
X144248117Y-82934490D01*
X144266850Y-83088780D01*
X144323212Y-83237394D01*
X144395970Y-83342801D01*
X144413502Y-83368201D01*
X144532471Y-83473599D01*
X144673207Y-83547463D01*
X144827529Y-83585500D01*
X144827531Y-83585500D01*
X144986469Y-83585500D01*
X144986471Y-83585500D01*
X145140793Y-83547463D01*
X145281529Y-83473599D01*
X145400498Y-83368201D01*
X145459771Y-83282328D01*
X145514928Y-83237630D01*
X145585497Y-83229847D01*
X145649071Y-83261452D01*
X145667162Y-83282330D01*
X145697934Y-83326912D01*
X145708902Y-83342801D01*
X145827871Y-83448199D01*
X145968607Y-83522063D01*
X146122929Y-83560100D01*
X146122931Y-83560100D01*
X146281869Y-83560100D01*
X146281871Y-83560100D01*
X146436193Y-83522063D01*
X146576929Y-83448199D01*
X146695898Y-83342801D01*
X146786187Y-83211995D01*
X146842549Y-83063382D01*
X146861707Y-82905600D01*
X146842549Y-82747818D01*
X146786187Y-82599205D01*
X146695898Y-82468399D01*
X146576929Y-82363001D01*
X146436193Y-82289137D01*
X146281871Y-82251100D01*
X146122929Y-82251100D01*
X145968607Y-82289137D01*
X145968606Y-82289137D01*
X145968604Y-82289138D01*
X145827872Y-82363000D01*
X145708900Y-82468400D01*
X145649628Y-82554270D01*
X145594470Y-82598969D01*
X145523901Y-82606752D01*
X145460327Y-82575146D01*
X145442237Y-82554269D01*
X145400498Y-82493799D01*
X145381588Y-82477046D01*
X145281529Y-82388401D01*
X145140793Y-82314537D01*
X144986471Y-82276500D01*
X144827529Y-82276500D01*
X144673207Y-82314537D01*
X144673206Y-82314537D01*
X144673204Y-82314538D01*
X144532472Y-82388400D01*
X144413501Y-82493799D01*
X144323212Y-82624605D01*
X144266850Y-82773219D01*
X144251105Y-82902900D01*
X144247693Y-82931000D01*
X141219700Y-82931000D01*
X141219700Y-81853799D01*
X157970967Y-81853799D01*
X157989854Y-82057619D01*
X158045872Y-82254502D01*
X158137110Y-82437733D01*
X158193776Y-82512770D01*
X158260468Y-82601085D01*
X158411738Y-82738986D01*
X158585773Y-82846744D01*
X158776644Y-82920688D01*
X158977853Y-82958300D01*
X158977855Y-82958300D01*
X159182545Y-82958300D01*
X159182547Y-82958300D01*
X159383756Y-82920688D01*
X159574627Y-82846744D01*
X159748662Y-82738986D01*
X159899932Y-82601085D01*
X160023288Y-82437735D01*
X160114528Y-82254501D01*
X160170545Y-82057621D01*
X160189432Y-81853800D01*
X160170545Y-81649979D01*
X160114528Y-81453099D01*
X160049229Y-81321961D01*
X160023289Y-81269866D01*
X159988124Y-81223300D01*
X159899932Y-81106515D01*
X159748662Y-80968614D01*
X159647313Y-80905861D01*
X159574628Y-80860856D01*
X159432968Y-80805977D01*
X159383756Y-80786912D01*
X159182547Y-80749300D01*
X158977853Y-80749300D01*
X158776644Y-80786912D01*
X158585771Y-80860856D01*
X158411739Y-80968613D01*
X158260467Y-81106516D01*
X158137110Y-81269866D01*
X158045872Y-81453097D01*
X157989854Y-81649980D01*
X157970967Y-81853799D01*
X141219700Y-81853799D01*
X141219700Y-79832200D01*
X152779025Y-79832200D01*
X152797625Y-79961561D01*
X152797625Y-79961562D01*
X152797626Y-79961564D01*
X152838744Y-80051600D01*
X152851918Y-80080448D01*
X152937505Y-80179222D01*
X153047450Y-80249878D01*
X153047452Y-80249879D01*
X153172853Y-80286700D01*
X153303547Y-80286700D01*
X153428948Y-80249879D01*
X153508140Y-80198986D01*
X153538894Y-80179222D01*
X153538895Y-80179221D01*
X153624482Y-80080448D01*
X153678774Y-79961564D01*
X153697374Y-79832200D01*
X153678774Y-79702836D01*
X153624482Y-79583952D01*
X153585381Y-79538827D01*
X153538894Y-79485177D01*
X153428949Y-79414521D01*
X153303547Y-79377700D01*
X153172853Y-79377700D01*
X153047450Y-79414521D01*
X152937505Y-79485177D01*
X152851918Y-79583951D01*
X152797625Y-79702838D01*
X152779025Y-79832200D01*
X141219700Y-79832200D01*
X141219700Y-79783871D01*
X141239702Y-79715750D01*
X141256605Y-79694776D01*
X142185981Y-78765400D01*
X144984293Y-78765400D01*
X145003450Y-78923180D01*
X145059812Y-79071794D01*
X145112946Y-79148771D01*
X145150102Y-79202601D01*
X145269071Y-79307999D01*
X145409807Y-79381863D01*
X145564129Y-79419900D01*
X145564131Y-79419900D01*
X145723069Y-79419900D01*
X145723071Y-79419900D01*
X145877393Y-79381863D01*
X146007078Y-79313799D01*
X157970967Y-79313799D01*
X157989854Y-79517619D01*
X158045872Y-79714502D01*
X158137110Y-79897733D01*
X158178345Y-79952336D01*
X158260468Y-80061085D01*
X158411738Y-80198986D01*
X158493933Y-80249879D01*
X158557761Y-80289400D01*
X158585773Y-80306744D01*
X158776644Y-80380688D01*
X158977853Y-80418300D01*
X158977855Y-80418300D01*
X159182545Y-80418300D01*
X159182547Y-80418300D01*
X159383756Y-80380688D01*
X159574627Y-80306744D01*
X159748662Y-80198986D01*
X159899932Y-80061085D01*
X160023288Y-79897735D01*
X160114528Y-79714501D01*
X160170545Y-79517621D01*
X160189432Y-79313800D01*
X160170545Y-79109979D01*
X160114528Y-78913099D01*
X160049229Y-78781961D01*
X160023289Y-78729866D01*
X159963529Y-78650731D01*
X159899932Y-78566515D01*
X159748662Y-78428614D01*
X159638215Y-78360228D01*
X159574628Y-78320856D01*
X159479191Y-78283884D01*
X159383756Y-78246912D01*
X159182547Y-78209300D01*
X158977853Y-78209300D01*
X158776643Y-78246912D01*
X158776644Y-78246912D01*
X158585771Y-78320856D01*
X158411739Y-78428613D01*
X158260467Y-78566516D01*
X158137110Y-78729866D01*
X158045872Y-78913097D01*
X157989854Y-79109980D01*
X157970967Y-79313799D01*
X146007078Y-79313799D01*
X146018129Y-79307999D01*
X146137098Y-79202601D01*
X146227387Y-79071795D01*
X146283749Y-78923182D01*
X146302907Y-78765400D01*
X146283749Y-78607618D01*
X146227387Y-78459005D01*
X146137098Y-78328199D01*
X146018129Y-78222801D01*
X145877393Y-78148937D01*
X145723071Y-78110900D01*
X145564129Y-78110900D01*
X145409807Y-78148937D01*
X145409806Y-78148937D01*
X145409804Y-78148938D01*
X145269072Y-78222800D01*
X145150101Y-78328199D01*
X145059812Y-78459005D01*
X145003450Y-78607619D01*
X144984293Y-78765400D01*
X142185981Y-78765400D01*
X142931893Y-78019488D01*
X144177580Y-76773800D01*
X157970967Y-76773800D01*
X157989854Y-76977619D01*
X158045872Y-77174502D01*
X158137110Y-77357733D01*
X158178345Y-77412336D01*
X158260468Y-77521085D01*
X158411738Y-77658986D01*
X158585773Y-77766744D01*
X158776644Y-77840688D01*
X158977853Y-77878300D01*
X158977855Y-77878300D01*
X159182545Y-77878300D01*
X159182547Y-77878300D01*
X159383756Y-77840688D01*
X159574627Y-77766744D01*
X159748662Y-77658986D01*
X159899932Y-77521085D01*
X160023288Y-77357735D01*
X160114528Y-77174501D01*
X160170545Y-76977621D01*
X160189432Y-76773800D01*
X160170545Y-76569979D01*
X160114528Y-76373099D01*
X160049229Y-76241961D01*
X160023289Y-76189866D01*
X159961577Y-76108146D01*
X159899932Y-76026515D01*
X159748662Y-75888614D01*
X159638215Y-75820228D01*
X159574628Y-75780856D01*
X159424770Y-75722801D01*
X159383756Y-75706912D01*
X159182547Y-75669300D01*
X158977853Y-75669300D01*
X158776643Y-75706912D01*
X158776644Y-75706912D01*
X158585771Y-75780856D01*
X158411739Y-75888613D01*
X158260467Y-76026516D01*
X158137110Y-76189866D01*
X158045872Y-76373097D01*
X157989854Y-76569980D01*
X157970967Y-76773800D01*
X144177580Y-76773800D01*
X144681300Y-76270080D01*
X144684367Y-76267117D01*
X144731574Y-76223030D01*
X144731574Y-76223029D01*
X144731576Y-76223028D01*
X144753054Y-76187707D01*
X144760299Y-76177061D01*
X144785280Y-76144120D01*
X144791880Y-76127381D01*
X144801427Y-76108161D01*
X144810775Y-76092790D01*
X144821927Y-76052984D01*
X144826033Y-76040774D01*
X144841199Y-76002320D01*
X144843037Y-75984430D01*
X144847049Y-75963323D01*
X144851900Y-75946014D01*
X144851900Y-75904682D01*
X144852561Y-75891798D01*
X144853187Y-75885709D01*
X144856787Y-75850691D01*
X144853732Y-75832971D01*
X144851900Y-75811564D01*
X144851900Y-74015599D01*
X149400825Y-74015599D01*
X149419425Y-74144961D01*
X149473718Y-74263848D01*
X149559305Y-74362622D01*
X149669250Y-74433278D01*
X149669252Y-74433279D01*
X149794653Y-74470100D01*
X149925347Y-74470100D01*
X150050748Y-74433279D01*
X150105721Y-74397949D01*
X150160694Y-74362622D01*
X150160695Y-74362621D01*
X150246282Y-74263848D01*
X150260005Y-74233799D01*
X157970967Y-74233799D01*
X157989854Y-74437619D01*
X158045872Y-74634502D01*
X158137110Y-74817733D01*
X158178345Y-74872336D01*
X158260468Y-74981085D01*
X158411738Y-75118986D01*
X158585773Y-75226744D01*
X158776644Y-75300688D01*
X158977853Y-75338300D01*
X158977855Y-75338300D01*
X159182545Y-75338300D01*
X159182547Y-75338300D01*
X159383756Y-75300688D01*
X159574627Y-75226744D01*
X159748662Y-75118986D01*
X159899932Y-74981085D01*
X160023288Y-74817735D01*
X160114528Y-74634501D01*
X160170545Y-74437621D01*
X160189432Y-74233800D01*
X160170545Y-74029979D01*
X160114528Y-73833099D01*
X160049229Y-73701961D01*
X160023289Y-73649866D01*
X159963529Y-73570731D01*
X159899932Y-73486515D01*
X159748662Y-73348614D01*
X159638215Y-73280228D01*
X159574628Y-73240856D01*
X159479191Y-73203884D01*
X159383756Y-73166912D01*
X159182547Y-73129300D01*
X158977853Y-73129300D01*
X158776644Y-73166912D01*
X158585771Y-73240856D01*
X158411739Y-73348613D01*
X158260467Y-73486516D01*
X158137110Y-73649866D01*
X158045872Y-73833097D01*
X157989854Y-74029980D01*
X157970967Y-74233799D01*
X150260005Y-74233799D01*
X150300574Y-74144964D01*
X150319174Y-74015600D01*
X150300574Y-73886236D01*
X150246282Y-73767352D01*
X150189621Y-73701961D01*
X150160694Y-73668577D01*
X150050749Y-73597921D01*
X149925347Y-73561100D01*
X149794653Y-73561100D01*
X149669250Y-73597921D01*
X149559305Y-73668577D01*
X149473718Y-73767351D01*
X149419425Y-73886238D01*
X149400825Y-74015599D01*
X144851900Y-74015599D01*
X144851900Y-71693800D01*
X157970967Y-71693800D01*
X157989854Y-71897619D01*
X158045872Y-72094502D01*
X158137110Y-72277733D01*
X158178345Y-72332336D01*
X158260468Y-72441085D01*
X158411738Y-72578986D01*
X158585773Y-72686744D01*
X158776644Y-72760688D01*
X158977853Y-72798300D01*
X158977855Y-72798300D01*
X159182545Y-72798300D01*
X159182547Y-72798300D01*
X159383756Y-72760688D01*
X159574627Y-72686744D01*
X159748662Y-72578986D01*
X159899932Y-72441085D01*
X160023288Y-72277735D01*
X160114528Y-72094501D01*
X160170545Y-71897621D01*
X160189432Y-71693800D01*
X160170545Y-71489979D01*
X160114528Y-71293099D01*
X160068333Y-71200327D01*
X160023289Y-71109866D01*
X159963529Y-71030731D01*
X159899932Y-70946515D01*
X159748662Y-70808614D01*
X159677254Y-70764400D01*
X159574628Y-70700856D01*
X159479191Y-70663884D01*
X159383756Y-70626912D01*
X159182547Y-70589300D01*
X158977853Y-70589300D01*
X158776644Y-70626912D01*
X158585771Y-70700856D01*
X158411739Y-70808613D01*
X158260467Y-70946516D01*
X158137110Y-71109866D01*
X158045872Y-71293097D01*
X157989854Y-71489980D01*
X157970967Y-71693800D01*
X144851900Y-71693800D01*
X144851900Y-70764399D01*
X146810025Y-70764399D01*
X146828625Y-70893761D01*
X146828625Y-70893762D01*
X146828626Y-70893764D01*
X146868794Y-70981721D01*
X146882918Y-71012648D01*
X146968505Y-71111422D01*
X147078450Y-71182078D01*
X147078452Y-71182079D01*
X147203853Y-71218900D01*
X147334547Y-71218900D01*
X147459948Y-71182079D01*
X147541488Y-71129677D01*
X147569894Y-71111422D01*
X147582888Y-71096426D01*
X147655482Y-71012648D01*
X147709774Y-70893764D01*
X147728374Y-70764400D01*
X147709774Y-70635036D01*
X147655482Y-70516152D01*
X147596527Y-70448114D01*
X147569894Y-70417377D01*
X147459949Y-70346721D01*
X147334547Y-70309900D01*
X147203853Y-70309900D01*
X147078450Y-70346721D01*
X146968505Y-70417377D01*
X146882918Y-70516151D01*
X146828625Y-70635038D01*
X146810025Y-70764399D01*
X144851900Y-70764399D01*
X144851900Y-69153800D01*
X157970967Y-69153800D01*
X157989854Y-69357619D01*
X158045872Y-69554502D01*
X158137110Y-69737733D01*
X158177050Y-69790622D01*
X158260468Y-69901085D01*
X158411738Y-70038986D01*
X158585773Y-70146744D01*
X158776644Y-70220688D01*
X158977853Y-70258300D01*
X158977855Y-70258300D01*
X159182545Y-70258300D01*
X159182547Y-70258300D01*
X159383756Y-70220688D01*
X159574627Y-70146744D01*
X159748662Y-70038986D01*
X159899932Y-69901085D01*
X160023288Y-69737735D01*
X160114528Y-69554501D01*
X160170545Y-69357621D01*
X160189432Y-69153800D01*
X160170545Y-68949979D01*
X160114528Y-68753099D01*
X160049229Y-68621961D01*
X160023289Y-68569866D01*
X159963529Y-68490731D01*
X159899932Y-68406515D01*
X159748662Y-68268614D01*
X159638215Y-68200228D01*
X159574628Y-68160856D01*
X159479191Y-68123884D01*
X159383756Y-68086912D01*
X159182547Y-68049300D01*
X158977853Y-68049300D01*
X158776644Y-68086912D01*
X158585771Y-68160856D01*
X158411739Y-68268613D01*
X158260467Y-68406516D01*
X158137110Y-68569866D01*
X158045872Y-68753097D01*
X157989854Y-68949980D01*
X157970967Y-69153800D01*
X144851900Y-69153800D01*
X144851900Y-67106800D01*
X149632493Y-67106800D01*
X149651650Y-67264580D01*
X149708012Y-67413194D01*
X149793726Y-67537371D01*
X149798302Y-67544001D01*
X149917271Y-67649399D01*
X150058007Y-67723263D01*
X150212329Y-67761300D01*
X150212331Y-67761300D01*
X150371269Y-67761300D01*
X150371271Y-67761300D01*
X150525593Y-67723263D01*
X150666329Y-67649399D01*
X150785298Y-67544001D01*
X150875587Y-67413195D01*
X150931949Y-67264582D01*
X150951107Y-67106800D01*
X150931949Y-66949018D01*
X150875587Y-66800405D01*
X150785298Y-66669599D01*
X150722314Y-66613800D01*
X157970967Y-66613800D01*
X157989854Y-66817619D01*
X158045872Y-67014502D01*
X158137110Y-67197733D01*
X158178345Y-67252336D01*
X158260468Y-67361085D01*
X158411738Y-67498986D01*
X158585773Y-67606744D01*
X158776644Y-67680688D01*
X158977853Y-67718300D01*
X158977855Y-67718300D01*
X159182545Y-67718300D01*
X159182547Y-67718300D01*
X159383756Y-67680688D01*
X159574627Y-67606744D01*
X159748662Y-67498986D01*
X159899932Y-67361085D01*
X160023288Y-67197735D01*
X160114528Y-67014501D01*
X160170545Y-66817621D01*
X160189432Y-66613800D01*
X160170545Y-66409979D01*
X160114528Y-66213099D01*
X160061044Y-66105689D01*
X160023289Y-66029866D01*
X159963529Y-65950731D01*
X159899932Y-65866515D01*
X159748662Y-65728614D01*
X159638215Y-65660228D01*
X159574628Y-65620856D01*
X159479191Y-65583884D01*
X159383756Y-65546912D01*
X159182547Y-65509300D01*
X158977853Y-65509300D01*
X158776643Y-65546912D01*
X158776644Y-65546912D01*
X158585771Y-65620856D01*
X158411739Y-65728613D01*
X158380375Y-65757205D01*
X158311516Y-65819979D01*
X158260467Y-65866516D01*
X158137110Y-66029866D01*
X158045872Y-66213097D01*
X157989854Y-66409980D01*
X157970967Y-66613800D01*
X150722314Y-66613800D01*
X150666329Y-66564201D01*
X150525593Y-66490337D01*
X150371271Y-66452300D01*
X150212329Y-66452300D01*
X150058007Y-66490337D01*
X150058006Y-66490337D01*
X150058004Y-66490338D01*
X149917272Y-66564200D01*
X149798301Y-66669599D01*
X149708012Y-66800405D01*
X149651650Y-66949019D01*
X149632493Y-67106800D01*
X144851900Y-67106800D01*
X144851900Y-66166999D01*
X146733825Y-66166999D01*
X146752425Y-66296361D01*
X146752425Y-66296362D01*
X146752426Y-66296364D01*
X146782102Y-66361346D01*
X146806718Y-66415248D01*
X146892305Y-66514022D01*
X146970387Y-66564201D01*
X147002252Y-66584679D01*
X147127653Y-66621500D01*
X147258347Y-66621500D01*
X147383748Y-66584679D01*
X147453121Y-66540096D01*
X147493694Y-66514022D01*
X147514217Y-66490337D01*
X147579282Y-66415248D01*
X147633574Y-66296364D01*
X147652174Y-66167000D01*
X147633574Y-66037636D01*
X147579282Y-65918752D01*
X147538251Y-65871399D01*
X147493694Y-65819977D01*
X147383749Y-65749321D01*
X147258347Y-65712500D01*
X147127653Y-65712500D01*
X147002250Y-65749321D01*
X146892305Y-65819977D01*
X146806718Y-65918751D01*
X146752425Y-66037638D01*
X146733825Y-66166999D01*
X144851900Y-66166999D01*
X144851900Y-64073800D01*
X157970967Y-64073800D01*
X157989854Y-64277619D01*
X158045872Y-64474502D01*
X158137110Y-64657733D01*
X158178345Y-64712336D01*
X158260468Y-64821085D01*
X158411738Y-64958986D01*
X158473732Y-64997371D01*
X158574735Y-65059910D01*
X158585773Y-65066744D01*
X158776644Y-65140688D01*
X158977853Y-65178300D01*
X158977855Y-65178300D01*
X159182545Y-65178300D01*
X159182547Y-65178300D01*
X159383756Y-65140688D01*
X159574627Y-65066744D01*
X159748662Y-64958986D01*
X159899932Y-64821085D01*
X160023288Y-64657735D01*
X160114528Y-64474501D01*
X160170545Y-64277621D01*
X160189432Y-64073800D01*
X160170545Y-63869979D01*
X160114528Y-63673099D01*
X160039439Y-63522300D01*
X160023289Y-63489866D01*
X159963529Y-63410731D01*
X159899932Y-63326515D01*
X159748662Y-63188614D01*
X159671984Y-63141137D01*
X159574628Y-63080856D01*
X159476393Y-63042800D01*
X159383756Y-63006912D01*
X159182547Y-62969300D01*
X158977853Y-62969300D01*
X158776643Y-63006912D01*
X158776644Y-63006912D01*
X158585771Y-63080856D01*
X158411739Y-63188613D01*
X158260467Y-63326516D01*
X158137110Y-63489866D01*
X158045872Y-63673097D01*
X157989854Y-63869980D01*
X157970967Y-64073800D01*
X144851900Y-64073800D01*
X144851900Y-60985081D01*
X144871902Y-60916960D01*
X144925558Y-60870467D01*
X144939033Y-60865577D01*
X144940687Y-60864635D01*
X144940691Y-60864634D01*
X145028678Y-60814531D01*
X145059592Y-60787744D01*
X145064750Y-60783275D01*
X145129331Y-60753782D01*
X145147262Y-60752500D01*
X145377527Y-60752500D01*
X145445648Y-60772502D01*
X145492141Y-60826158D01*
X145502245Y-60896432D01*
X145495339Y-60923180D01*
X145435250Y-61081619D01*
X145416093Y-61239399D01*
X145435250Y-61397180D01*
X145491612Y-61545794D01*
X145491613Y-61545795D01*
X145581902Y-61676601D01*
X145700871Y-61781999D01*
X145841607Y-61855863D01*
X145995929Y-61893900D01*
X145995931Y-61893900D01*
X146154869Y-61893900D01*
X146154871Y-61893900D01*
X146309193Y-61855863D01*
X146449929Y-61781999D01*
X146568898Y-61676601D01*
X146659187Y-61545795D01*
X146663737Y-61533799D01*
X157970967Y-61533799D01*
X157989854Y-61737619D01*
X158045872Y-61934502D01*
X158137110Y-62117733D01*
X158168802Y-62159700D01*
X158260468Y-62281085D01*
X158411738Y-62418986D01*
X158585773Y-62526744D01*
X158776644Y-62600688D01*
X158977853Y-62638300D01*
X158977855Y-62638300D01*
X159182545Y-62638300D01*
X159182547Y-62638300D01*
X159383756Y-62600688D01*
X159574627Y-62526744D01*
X159748662Y-62418986D01*
X159899932Y-62281085D01*
X160023288Y-62117735D01*
X160114528Y-61934501D01*
X160170545Y-61737621D01*
X160189432Y-61533800D01*
X160185943Y-61496153D01*
X160172172Y-61347539D01*
X160170545Y-61329979D01*
X160114528Y-61133099D01*
X160113004Y-61130039D01*
X160023289Y-60949866D01*
X159978580Y-60890662D01*
X159899932Y-60786515D01*
X159748662Y-60648614D01*
X159691026Y-60612927D01*
X159574628Y-60540856D01*
X159458722Y-60495954D01*
X159383756Y-60466912D01*
X159182547Y-60429300D01*
X158977853Y-60429300D01*
X158848607Y-60453460D01*
X158776644Y-60466912D01*
X158585771Y-60540856D01*
X158411739Y-60648613D01*
X158360560Y-60695269D01*
X158265769Y-60781683D01*
X158260467Y-60786516D01*
X158137110Y-60949866D01*
X158045872Y-61133097D01*
X157989854Y-61329980D01*
X157970967Y-61533799D01*
X146663737Y-61533799D01*
X146715549Y-61397182D01*
X146734707Y-61239400D01*
X146715549Y-61081618D01*
X146665581Y-60949865D01*
X146655461Y-60923180D01*
X146650007Y-60852394D01*
X146683689Y-60789895D01*
X146745814Y-60755528D01*
X146773273Y-60752500D01*
X147536971Y-60752500D01*
X147541273Y-60752573D01*
X147542597Y-60752618D01*
X147605839Y-60754779D01*
X147646011Y-60744988D01*
X147658653Y-60742585D01*
X147699609Y-60736957D01*
X147716103Y-60729792D01*
X147736457Y-60722947D01*
X147753933Y-60718689D01*
X147789964Y-60698429D01*
X147801494Y-60692702D01*
X147839418Y-60676230D01*
X147853363Y-60664884D01*
X147871128Y-60652792D01*
X147886799Y-60643982D01*
X147916026Y-60614753D01*
X147925599Y-60606115D01*
X147957658Y-60580034D01*
X147968030Y-60565338D01*
X147981862Y-60548917D01*
X148945578Y-59585202D01*
X149007888Y-59551179D01*
X149034671Y-59548300D01*
X157849701Y-59548300D01*
X157917822Y-59568302D01*
X157964315Y-59621958D01*
X157975701Y-59674300D01*
X157975701Y-59868868D01*
X157990465Y-59943100D01*
X158046715Y-60027284D01*
X158089060Y-60055578D01*
X158130899Y-60083534D01*
X158205133Y-60098300D01*
X159955266Y-60098299D01*
X159955268Y-60098299D01*
X160004755Y-60088455D01*
X160029501Y-60083534D01*
X160113684Y-60027284D01*
X160169934Y-59943101D01*
X160184700Y-59868867D01*
X160184699Y-58118734D01*
X160184699Y-58118733D01*
X160184699Y-58118731D01*
X160169934Y-58044499D01*
X160113684Y-57960315D01*
X160029501Y-57904066D01*
X160029496Y-57904065D01*
X159955267Y-57889300D01*
X159955266Y-57889300D01*
X158205131Y-57889300D01*
X158130899Y-57904065D01*
X158046715Y-57960315D01*
X157990466Y-58044498D01*
X157975700Y-58118733D01*
X157975700Y-58313300D01*
X157955698Y-58381421D01*
X157902042Y-58427914D01*
X157849700Y-58439300D01*
X152158067Y-58439300D01*
X152089946Y-58419298D01*
X152043453Y-58365642D01*
X152033349Y-58295368D01*
X152062843Y-58230788D01*
X152074513Y-58218988D01*
X152076983Y-58216800D01*
X152156898Y-58146001D01*
X152247187Y-58015195D01*
X152303549Y-57866582D01*
X152322707Y-57708800D01*
X152303549Y-57551018D01*
X152247187Y-57402405D01*
X152156898Y-57271599D01*
X152048311Y-57175399D01*
X154255293Y-57175399D01*
X154274450Y-57333180D01*
X154330812Y-57481794D01*
X154330813Y-57481795D01*
X154421102Y-57612601D01*
X154540071Y-57717999D01*
X154680807Y-57791863D01*
X154835129Y-57829900D01*
X154835131Y-57829900D01*
X154994069Y-57829900D01*
X154994071Y-57829900D01*
X155148393Y-57791863D01*
X155289129Y-57717999D01*
X155408098Y-57612601D01*
X155498387Y-57481795D01*
X155554749Y-57333182D01*
X155573907Y-57175400D01*
X155554749Y-57017618D01*
X155498387Y-56869005D01*
X155408098Y-56738199D01*
X155289129Y-56632801D01*
X155148393Y-56558937D01*
X154994071Y-56520900D01*
X154835129Y-56520900D01*
X154680807Y-56558937D01*
X154680806Y-56558937D01*
X154680804Y-56558938D01*
X154540072Y-56632800D01*
X154421101Y-56738199D01*
X154330812Y-56869005D01*
X154274450Y-57017619D01*
X154255293Y-57175399D01*
X152048311Y-57175399D01*
X152037929Y-57166201D01*
X151910269Y-57099200D01*
X151897195Y-57092338D01*
X151897194Y-57092337D01*
X151897193Y-57092337D01*
X151742871Y-57054300D01*
X151583929Y-57054300D01*
X151429607Y-57092337D01*
X151429606Y-57092337D01*
X151429604Y-57092338D01*
X151288872Y-57166200D01*
X151169901Y-57271599D01*
X151079612Y-57402405D01*
X151023250Y-57551019D01*
X151004093Y-57708800D01*
X151023250Y-57866580D01*
X151079612Y-58015194D01*
X151169901Y-58146000D01*
X151252287Y-58218988D01*
X151290012Y-58279132D01*
X151289232Y-58350125D01*
X151250194Y-58409425D01*
X151185293Y-58438207D01*
X151168733Y-58439300D01*
X148764429Y-58439300D01*
X148760127Y-58439227D01*
X148752057Y-58438951D01*
X148695561Y-58437021D01*
X148695560Y-58437021D01*
X148695557Y-58437021D01*
X148655396Y-58446807D01*
X148642728Y-58449215D01*
X148601791Y-58454842D01*
X148585293Y-58462008D01*
X148564940Y-58468852D01*
X148547468Y-58473110D01*
X148511443Y-58493365D01*
X148499895Y-58499100D01*
X148461978Y-58515570D01*
X148448022Y-58526924D01*
X148430272Y-58539005D01*
X148414602Y-58547817D01*
X148385374Y-58577043D01*
X148375803Y-58585680D01*
X148343742Y-58611765D01*
X148333368Y-58626461D01*
X148319529Y-58642888D01*
X147355822Y-59606596D01*
X147293512Y-59640620D01*
X147266729Y-59643500D01*
X145317900Y-59643500D01*
X145249779Y-59623498D01*
X145203286Y-59569842D01*
X145191900Y-59517500D01*
X145191900Y-58981168D01*
X145191900Y-58981167D01*
X145191900Y-58977800D01*
X145185970Y-58922641D01*
X145174584Y-58870299D01*
X145167234Y-58843509D01*
X145117131Y-58755522D01*
X145070638Y-58701866D01*
X145037349Y-58669744D01*
X145037347Y-58669742D01*
X144947630Y-58622812D01*
X144879512Y-58602812D01*
X144879509Y-58602811D01*
X144806400Y-58592300D01*
X142696200Y-58592300D01*
X142692853Y-58592659D01*
X142692849Y-58592660D01*
X142644405Y-58597868D01*
X142644398Y-58597869D01*
X142641041Y-58598230D01*
X142637741Y-58598947D01*
X142637740Y-58598948D01*
X142590341Y-58609258D01*
X142590312Y-58609265D01*
X142588699Y-58609616D01*
X142587085Y-58610058D01*
X142587072Y-58610062D01*
X142561909Y-58616965D01*
X142473921Y-58667069D01*
X142422389Y-58711722D01*
X142420266Y-58713562D01*
X142418325Y-58715572D01*
X142418316Y-58715582D01*
X142388142Y-58746852D01*
X142341212Y-58836569D01*
X142321212Y-58904687D01*
X142321211Y-58904691D01*
X142310700Y-58977800D01*
X142310700Y-60503800D01*
X142311059Y-60507147D01*
X142311060Y-60507150D01*
X142313494Y-60529795D01*
X142316630Y-60558959D01*
X142317348Y-60562259D01*
X142327658Y-60609658D01*
X142327663Y-60609679D01*
X142328016Y-60611301D01*
X142328461Y-60612923D01*
X142328462Y-60612927D01*
X142335365Y-60638090D01*
X142367925Y-60695269D01*
X142385469Y-60726078D01*
X142431962Y-60779734D01*
X142440263Y-60787744D01*
X142465252Y-60811857D01*
X142554969Y-60858787D01*
X142572841Y-60864034D01*
X142623091Y-60878789D01*
X142696200Y-60889300D01*
X143616900Y-60889300D01*
X143685021Y-60909302D01*
X143731514Y-60962958D01*
X143742900Y-61015300D01*
X143742900Y-75587928D01*
X143722898Y-75656049D01*
X143705995Y-75677023D01*
X140281354Y-79101663D01*
X140278263Y-79104651D01*
X140231023Y-79148771D01*
X140209548Y-79184085D01*
X140202292Y-79194746D01*
X140177320Y-79227677D01*
X140170720Y-79244413D01*
X140161167Y-79263646D01*
X140151824Y-79279011D01*
X140140671Y-79318810D01*
X140136562Y-79331029D01*
X140121400Y-79369479D01*
X140119561Y-79387370D01*
X140115550Y-79408472D01*
X140110700Y-79425783D01*
X140110700Y-79467115D01*
X140110039Y-79480000D01*
X140105813Y-79521108D01*
X140108868Y-79538827D01*
X140110700Y-79560235D01*
X140110700Y-91564528D01*
X140090698Y-91632649D01*
X140073796Y-91653623D01*
X139898022Y-91829396D01*
X139835713Y-91863420D01*
X139808929Y-91866300D01*
X135736600Y-91866300D01*
X135733253Y-91866659D01*
X135733249Y-91866660D01*
X135684805Y-91871868D01*
X135684798Y-91871869D01*
X135681441Y-91872230D01*
X135678141Y-91872947D01*
X135678140Y-91872948D01*
X135630741Y-91883258D01*
X135630712Y-91883265D01*
X135629099Y-91883616D01*
X135627485Y-91884058D01*
X135627472Y-91884062D01*
X135602309Y-91890965D01*
X135514321Y-91941069D01*
X135462789Y-91985722D01*
X135460666Y-91987562D01*
X135458725Y-91989572D01*
X135458716Y-91989582D01*
X135428542Y-92020852D01*
X135381612Y-92110569D01*
X135361610Y-92178693D01*
X135358088Y-92203190D01*
X135328595Y-92267771D01*
X135268869Y-92306154D01*
X135197872Y-92306154D01*
X135138146Y-92267770D01*
X135129675Y-92256834D01*
X135126200Y-92251800D01*
X135088098Y-92196599D01*
X134969129Y-92091201D01*
X134835088Y-92020851D01*
X134828395Y-92017338D01*
X134828394Y-92017337D01*
X134828393Y-92017337D01*
X134674071Y-91979300D01*
X134515129Y-91979300D01*
X134360807Y-92017337D01*
X134360806Y-92017337D01*
X134360804Y-92017338D01*
X134220072Y-92091200D01*
X134101101Y-92196599D01*
X134010812Y-92327405D01*
X133954450Y-92476019D01*
X133935293Y-92633799D01*
X116816054Y-92633799D01*
X116843288Y-92597735D01*
X116934528Y-92414501D01*
X116990545Y-92217621D01*
X117009432Y-92013800D01*
X116990545Y-91809979D01*
X116934528Y-91613099D01*
X116933785Y-91611607D01*
X116843289Y-91429866D01*
X116783529Y-91350731D01*
X116719932Y-91266515D01*
X116568662Y-91128614D01*
X116458215Y-91060228D01*
X116394628Y-91020856D01*
X116299191Y-90983883D01*
X116203756Y-90946912D01*
X116002547Y-90909300D01*
X115797853Y-90909300D01*
X115596644Y-90946912D01*
X115405771Y-91020856D01*
X115231739Y-91128613D01*
X115080467Y-91266516D01*
X114957110Y-91429866D01*
X114865872Y-91613097D01*
X114809854Y-91809980D01*
X114790967Y-92013800D01*
X114469432Y-92013800D01*
X114464542Y-91961034D01*
X114450545Y-91809980D01*
X114450545Y-91809979D01*
X114394528Y-91613099D01*
X114393785Y-91611607D01*
X114303289Y-91429866D01*
X114243529Y-91350731D01*
X114179932Y-91266515D01*
X114028662Y-91128614D01*
X113918215Y-91060228D01*
X113854628Y-91020856D01*
X113759191Y-90983883D01*
X113663756Y-90946912D01*
X113462547Y-90909300D01*
X113276215Y-90909300D01*
X113208094Y-90889298D01*
X113161601Y-90835642D01*
X113151134Y-90768114D01*
X113155907Y-90728800D01*
X113154776Y-90719486D01*
X113166420Y-90649453D01*
X113214080Y-90596832D01*
X113279857Y-90578300D01*
X113462545Y-90578300D01*
X113462547Y-90578300D01*
X113663756Y-90540688D01*
X113854627Y-90466744D01*
X114028662Y-90358986D01*
X114179932Y-90221085D01*
X114303288Y-90057735D01*
X114394528Y-89874501D01*
X114450545Y-89677621D01*
X114469432Y-89473800D01*
X114790967Y-89473800D01*
X114809854Y-89677619D01*
X114865872Y-89874502D01*
X114957110Y-90057733D01*
X114998345Y-90112336D01*
X115080468Y-90221085D01*
X115231738Y-90358986D01*
X115405773Y-90466744D01*
X115596644Y-90540688D01*
X115797853Y-90578300D01*
X115797855Y-90578300D01*
X116002545Y-90578300D01*
X116002547Y-90578300D01*
X116203756Y-90540688D01*
X116394627Y-90466744D01*
X116568662Y-90358986D01*
X116719932Y-90221085D01*
X116843288Y-90057735D01*
X116934528Y-89874501D01*
X116990545Y-89677621D01*
X117009432Y-89473800D01*
X116990545Y-89269979D01*
X116934528Y-89073099D01*
X116892767Y-88989232D01*
X116843289Y-88889866D01*
X116798580Y-88830662D01*
X116719932Y-88726515D01*
X116568662Y-88588614D01*
X116497254Y-88544400D01*
X116394628Y-88480856D01*
X116246058Y-88423300D01*
X116203756Y-88406912D01*
X116002547Y-88369300D01*
X115797853Y-88369300D01*
X115596643Y-88406912D01*
X115596644Y-88406912D01*
X115405771Y-88480856D01*
X115231739Y-88588613D01*
X115080467Y-88726516D01*
X114957110Y-88889866D01*
X114865872Y-89073097D01*
X114809854Y-89269980D01*
X114790967Y-89473800D01*
X114469432Y-89473800D01*
X114450545Y-89269979D01*
X114394528Y-89073099D01*
X114352767Y-88989232D01*
X114303289Y-88889866D01*
X114258580Y-88830662D01*
X114179932Y-88726515D01*
X114028662Y-88588614D01*
X113957254Y-88544400D01*
X113854628Y-88480856D01*
X113706058Y-88423300D01*
X113663756Y-88406912D01*
X113462547Y-88369300D01*
X113276215Y-88369300D01*
X113208094Y-88349298D01*
X113161601Y-88295642D01*
X113151134Y-88228114D01*
X113155907Y-88188800D01*
X113154776Y-88179488D01*
X113165897Y-88112600D01*
X118542893Y-88112600D01*
X118562050Y-88270380D01*
X118618412Y-88418994D01*
X118698624Y-88535200D01*
X118708702Y-88549801D01*
X118827671Y-88655199D01*
X118968407Y-88729063D01*
X119122729Y-88767100D01*
X119122731Y-88767100D01*
X119281669Y-88767100D01*
X119281671Y-88767100D01*
X119435993Y-88729063D01*
X119576729Y-88655199D01*
X119695698Y-88549801D01*
X119716958Y-88519000D01*
X127686893Y-88519000D01*
X127706050Y-88676780D01*
X127762412Y-88825394D01*
X127827727Y-88920018D01*
X127852702Y-88956201D01*
X127971671Y-89061599D01*
X128112407Y-89135463D01*
X128266729Y-89173500D01*
X128266731Y-89173500D01*
X128425669Y-89173500D01*
X128425671Y-89173500D01*
X128579993Y-89135463D01*
X128720729Y-89061599D01*
X128839698Y-88956201D01*
X128843426Y-88950800D01*
X136957893Y-88950800D01*
X136977050Y-89108580D01*
X137033412Y-89257194D01*
X137033413Y-89257195D01*
X137123702Y-89388001D01*
X137242671Y-89493399D01*
X137383407Y-89567263D01*
X137537729Y-89605300D01*
X137537731Y-89605300D01*
X137696669Y-89605300D01*
X137696671Y-89605300D01*
X137850993Y-89567263D01*
X137991729Y-89493399D01*
X138110698Y-89388001D01*
X138200987Y-89257195D01*
X138257349Y-89108582D01*
X138276507Y-88950800D01*
X138257349Y-88793018D01*
X138200987Y-88644405D01*
X138110698Y-88513599D01*
X137991729Y-88408201D01*
X137850993Y-88334337D01*
X137696671Y-88296300D01*
X137537729Y-88296300D01*
X137383407Y-88334337D01*
X137383406Y-88334337D01*
X137383404Y-88334338D01*
X137242672Y-88408200D01*
X137123701Y-88513599D01*
X137033412Y-88644405D01*
X136977050Y-88793019D01*
X136957893Y-88950800D01*
X128843426Y-88950800D01*
X128929987Y-88825395D01*
X128986349Y-88676782D01*
X129005507Y-88519000D01*
X128986349Y-88361218D01*
X128929987Y-88212605D01*
X128839698Y-88081799D01*
X128720729Y-87976401D01*
X128624332Y-87925808D01*
X128579995Y-87902538D01*
X128579994Y-87902537D01*
X128579993Y-87902537D01*
X128425671Y-87864500D01*
X128266729Y-87864500D01*
X128112407Y-87902537D01*
X128112406Y-87902537D01*
X128112404Y-87902538D01*
X127971672Y-87976400D01*
X127852701Y-88081799D01*
X127762412Y-88212605D01*
X127706050Y-88361219D01*
X127686893Y-88519000D01*
X119716958Y-88519000D01*
X119785987Y-88418995D01*
X119842349Y-88270382D01*
X119861507Y-88112600D01*
X119842349Y-87954818D01*
X119785987Y-87806205D01*
X119695698Y-87675399D01*
X119576729Y-87570001D01*
X119435993Y-87496137D01*
X119281671Y-87458100D01*
X119122729Y-87458100D01*
X118968407Y-87496137D01*
X118968406Y-87496137D01*
X118968404Y-87496138D01*
X118827672Y-87570000D01*
X118708701Y-87675399D01*
X118618412Y-87806205D01*
X118562050Y-87954819D01*
X118542893Y-88112600D01*
X113165897Y-88112600D01*
X113166420Y-88109453D01*
X113214080Y-88056832D01*
X113279857Y-88038300D01*
X113462545Y-88038300D01*
X113462547Y-88038300D01*
X113663756Y-88000688D01*
X113854627Y-87926744D01*
X114028662Y-87818986D01*
X114179932Y-87681085D01*
X114303288Y-87517735D01*
X114394528Y-87334501D01*
X114450545Y-87137621D01*
X114469432Y-86933800D01*
X114790967Y-86933800D01*
X114809854Y-87137619D01*
X114865872Y-87334502D01*
X114957110Y-87517733D01*
X114998345Y-87572336D01*
X115080468Y-87681085D01*
X115231738Y-87818986D01*
X115405773Y-87926744D01*
X115596644Y-88000688D01*
X115797853Y-88038300D01*
X115797855Y-88038300D01*
X116002545Y-88038300D01*
X116002547Y-88038300D01*
X116203756Y-88000688D01*
X116394627Y-87926744D01*
X116568662Y-87818986D01*
X116719932Y-87681085D01*
X116843288Y-87517735D01*
X116934528Y-87334501D01*
X116990545Y-87137621D01*
X117009432Y-86933800D01*
X116990545Y-86729979D01*
X116934528Y-86533099D01*
X116869229Y-86401961D01*
X116843289Y-86349866D01*
X116783529Y-86270731D01*
X116719932Y-86186515D01*
X116568662Y-86048614D01*
X116458215Y-85980228D01*
X116394628Y-85940856D01*
X116299191Y-85903883D01*
X116203756Y-85866912D01*
X116002547Y-85829300D01*
X115797853Y-85829300D01*
X115596643Y-85866912D01*
X115596644Y-85866912D01*
X115405771Y-85940856D01*
X115231739Y-86048613D01*
X115080467Y-86186516D01*
X114957110Y-86349866D01*
X114865872Y-86533097D01*
X114809854Y-86729980D01*
X114790967Y-86933800D01*
X114469432Y-86933800D01*
X114450545Y-86729979D01*
X114394528Y-86533099D01*
X114329229Y-86401961D01*
X114303289Y-86349866D01*
X114243529Y-86270731D01*
X114179932Y-86186515D01*
X114028662Y-86048614D01*
X113918215Y-85980228D01*
X113854628Y-85940856D01*
X113759191Y-85903883D01*
X113663756Y-85866912D01*
X113462547Y-85829300D01*
X113276215Y-85829300D01*
X113208094Y-85809298D01*
X113161601Y-85755642D01*
X113152914Y-85699600D01*
X136675425Y-85699600D01*
X136694025Y-85828961D01*
X136694025Y-85828962D01*
X136694026Y-85828964D01*
X136705213Y-85853460D01*
X136748318Y-85947848D01*
X136833905Y-86046622D01*
X136943850Y-86117278D01*
X136943852Y-86117279D01*
X137069253Y-86154100D01*
X137199947Y-86154100D01*
X137325348Y-86117279D01*
X137387705Y-86077205D01*
X137435294Y-86046622D01*
X137436085Y-86045709D01*
X137520882Y-85947848D01*
X137575174Y-85828964D01*
X137593774Y-85699600D01*
X137575174Y-85570236D01*
X137520882Y-85451352D01*
X137464899Y-85386744D01*
X137435294Y-85352577D01*
X137325349Y-85281921D01*
X137199947Y-85245100D01*
X137069253Y-85245100D01*
X136943850Y-85281921D01*
X136833905Y-85352577D01*
X136748318Y-85451351D01*
X136694025Y-85570238D01*
X136675425Y-85699600D01*
X113152914Y-85699600D01*
X113151134Y-85688114D01*
X113155907Y-85648800D01*
X113154776Y-85639488D01*
X113166420Y-85569453D01*
X113214080Y-85516832D01*
X113279857Y-85498300D01*
X113462545Y-85498300D01*
X113462547Y-85498300D01*
X113663756Y-85460688D01*
X113854627Y-85386744D01*
X114028662Y-85278986D01*
X114179932Y-85141085D01*
X114303288Y-84977735D01*
X114394528Y-84794501D01*
X114450545Y-84597621D01*
X114469432Y-84393800D01*
X114790967Y-84393800D01*
X114809854Y-84597619D01*
X114865872Y-84794502D01*
X114957110Y-84977733D01*
X114998345Y-85032336D01*
X115080468Y-85141085D01*
X115231738Y-85278986D01*
X115405773Y-85386744D01*
X115596644Y-85460688D01*
X115797853Y-85498300D01*
X115797855Y-85498300D01*
X116002545Y-85498300D01*
X116002547Y-85498300D01*
X116203756Y-85460688D01*
X116394627Y-85386744D01*
X116568662Y-85278986D01*
X116719932Y-85141085D01*
X116843288Y-84977735D01*
X116926512Y-84810599D01*
X125731093Y-84810599D01*
X125750250Y-84968380D01*
X125806612Y-85116994D01*
X125895517Y-85245794D01*
X125896902Y-85247801D01*
X126015871Y-85353199D01*
X126156607Y-85427063D01*
X126310929Y-85465100D01*
X126310931Y-85465100D01*
X126469869Y-85465100D01*
X126469871Y-85465100D01*
X126624193Y-85427063D01*
X126764929Y-85353199D01*
X126883898Y-85247801D01*
X126974187Y-85116995D01*
X127030549Y-84968382D01*
X127049707Y-84810600D01*
X127030549Y-84652818D01*
X126974187Y-84504205D01*
X126883898Y-84373399D01*
X126764929Y-84268001D01*
X126624193Y-84194137D01*
X126469871Y-84156100D01*
X126310929Y-84156100D01*
X126156607Y-84194137D01*
X126156606Y-84194137D01*
X126156604Y-84194138D01*
X126015872Y-84268000D01*
X125896901Y-84373399D01*
X125806612Y-84504205D01*
X125750250Y-84652819D01*
X125731093Y-84810599D01*
X116926512Y-84810599D01*
X116934528Y-84794501D01*
X116990545Y-84597621D01*
X117009432Y-84393800D01*
X116990545Y-84189979D01*
X116934528Y-83993099D01*
X116904033Y-83931856D01*
X116843289Y-83809866D01*
X116783529Y-83730731D01*
X116719932Y-83646515D01*
X116568662Y-83508614D01*
X116458215Y-83440228D01*
X116394628Y-83400856D01*
X116244770Y-83342801D01*
X116203756Y-83326912D01*
X116002547Y-83289300D01*
X115797853Y-83289300D01*
X115596643Y-83326912D01*
X115596644Y-83326912D01*
X115405771Y-83400856D01*
X115231739Y-83508613D01*
X115080467Y-83646516D01*
X114957110Y-83809866D01*
X114865872Y-83993097D01*
X114809854Y-84189980D01*
X114790967Y-84393800D01*
X114469432Y-84393800D01*
X114450545Y-84189979D01*
X114394528Y-83993099D01*
X114364033Y-83931856D01*
X114303289Y-83809866D01*
X114243529Y-83730731D01*
X114179932Y-83646515D01*
X114028662Y-83508614D01*
X113918215Y-83440228D01*
X113854628Y-83400856D01*
X113704770Y-83342801D01*
X113663756Y-83326912D01*
X113462547Y-83289300D01*
X113276215Y-83289300D01*
X113208094Y-83269298D01*
X113161601Y-83215642D01*
X113151134Y-83148114D01*
X113155907Y-83108800D01*
X113154776Y-83099488D01*
X113166420Y-83029453D01*
X113214080Y-82976832D01*
X113279857Y-82958300D01*
X113462545Y-82958300D01*
X113462547Y-82958300D01*
X113663756Y-82920688D01*
X113854627Y-82846744D01*
X114028662Y-82738986D01*
X114179932Y-82601085D01*
X114303288Y-82437735D01*
X114394528Y-82254501D01*
X114450545Y-82057621D01*
X114469432Y-81853800D01*
X114469432Y-81853799D01*
X114790967Y-81853799D01*
X114809854Y-82057619D01*
X114865872Y-82254502D01*
X114957110Y-82437733D01*
X115013776Y-82512770D01*
X115080468Y-82601085D01*
X115231738Y-82738986D01*
X115405773Y-82846744D01*
X115596644Y-82920688D01*
X115797853Y-82958300D01*
X115797855Y-82958300D01*
X116002545Y-82958300D01*
X116002547Y-82958300D01*
X116203756Y-82920688D01*
X116394627Y-82846744D01*
X116568662Y-82738986D01*
X116719932Y-82601085D01*
X116835234Y-82448400D01*
X124559625Y-82448400D01*
X124578225Y-82577761D01*
X124578225Y-82577762D01*
X124578226Y-82577764D01*
X124621079Y-82671599D01*
X124632518Y-82696648D01*
X124718105Y-82795422D01*
X124828050Y-82866078D01*
X124828052Y-82866079D01*
X124953453Y-82902900D01*
X125084147Y-82902900D01*
X125209548Y-82866079D01*
X125278028Y-82822070D01*
X125319494Y-82795422D01*
X125360743Y-82747818D01*
X125405082Y-82696648D01*
X125459374Y-82577764D01*
X125477974Y-82448400D01*
X125459374Y-82319036D01*
X125405082Y-82200152D01*
X125391895Y-82184933D01*
X125319494Y-82101377D01*
X125209549Y-82030721D01*
X125084147Y-81993900D01*
X124953453Y-81993900D01*
X124828050Y-82030721D01*
X124718105Y-82101377D01*
X124632518Y-82200151D01*
X124578225Y-82319038D01*
X124559625Y-82448400D01*
X116835234Y-82448400D01*
X116843288Y-82437735D01*
X116934528Y-82254501D01*
X116990545Y-82057621D01*
X117009432Y-81853800D01*
X117000981Y-81762600D01*
X121108293Y-81762600D01*
X121127450Y-81920380D01*
X121183812Y-82068994D01*
X121206165Y-82101377D01*
X121274102Y-82199801D01*
X121393071Y-82305199D01*
X121533807Y-82379063D01*
X121688129Y-82417100D01*
X121688131Y-82417100D01*
X121847069Y-82417100D01*
X121847071Y-82417100D01*
X122001393Y-82379063D01*
X122142129Y-82305199D01*
X122261098Y-82199801D01*
X122351387Y-82068995D01*
X122407749Y-81920382D01*
X122426907Y-81762600D01*
X122407749Y-81604818D01*
X122351387Y-81456205D01*
X122261098Y-81325399D01*
X122142129Y-81220001D01*
X122014469Y-81153000D01*
X122014467Y-81152999D01*
X124559625Y-81152999D01*
X124578225Y-81282361D01*
X124632518Y-81401248D01*
X124718105Y-81500022D01*
X124828050Y-81570678D01*
X124828052Y-81570679D01*
X124953453Y-81607500D01*
X125084147Y-81607500D01*
X125209548Y-81570679D01*
X125264521Y-81535350D01*
X125319494Y-81500022D01*
X125319495Y-81500021D01*
X125405082Y-81401248D01*
X125459374Y-81282364D01*
X125477974Y-81153000D01*
X125459374Y-81023636D01*
X125405082Y-80904752D01*
X125367046Y-80860856D01*
X125319494Y-80805977D01*
X125209549Y-80735321D01*
X125084147Y-80698500D01*
X124953453Y-80698500D01*
X124828050Y-80735321D01*
X124718105Y-80805977D01*
X124632518Y-80904751D01*
X124578225Y-81023638D01*
X124559625Y-81152999D01*
X122014467Y-81152999D01*
X122001395Y-81146138D01*
X122001394Y-81146137D01*
X122001393Y-81146137D01*
X121847071Y-81108100D01*
X121688129Y-81108100D01*
X121533807Y-81146137D01*
X121533806Y-81146137D01*
X121533804Y-81146138D01*
X121393072Y-81220000D01*
X121274101Y-81325399D01*
X121183812Y-81456205D01*
X121127450Y-81604819D01*
X121108293Y-81762600D01*
X117000981Y-81762600D01*
X116990545Y-81649979D01*
X116934528Y-81453099D01*
X116869229Y-81321961D01*
X116843289Y-81269866D01*
X116808124Y-81223300D01*
X116719932Y-81106515D01*
X116568662Y-80968614D01*
X116467313Y-80905861D01*
X116394628Y-80860856D01*
X116252968Y-80805977D01*
X116203756Y-80786912D01*
X116002547Y-80749300D01*
X115797853Y-80749300D01*
X115596643Y-80786912D01*
X115596644Y-80786912D01*
X115405771Y-80860856D01*
X115231739Y-80968613D01*
X115080467Y-81106516D01*
X114957110Y-81269866D01*
X114865872Y-81453097D01*
X114809854Y-81649980D01*
X114790967Y-81853799D01*
X114469432Y-81853799D01*
X114450545Y-81649979D01*
X114394528Y-81453099D01*
X114329229Y-81321961D01*
X114303289Y-81269866D01*
X114268124Y-81223300D01*
X114179932Y-81106515D01*
X114028662Y-80968614D01*
X113927313Y-80905861D01*
X113854628Y-80860856D01*
X113712968Y-80805977D01*
X113663756Y-80786912D01*
X113462547Y-80749300D01*
X113276215Y-80749300D01*
X113208094Y-80729298D01*
X113161601Y-80675642D01*
X113151134Y-80608114D01*
X113155907Y-80568800D01*
X113154776Y-80559488D01*
X113166420Y-80489453D01*
X113214080Y-80436832D01*
X113279857Y-80418300D01*
X113462545Y-80418300D01*
X113462547Y-80418300D01*
X113663756Y-80380688D01*
X113854627Y-80306744D01*
X114028662Y-80198986D01*
X114179932Y-80061085D01*
X114303288Y-79897735D01*
X114394528Y-79714501D01*
X114450545Y-79517621D01*
X114469432Y-79313800D01*
X114469432Y-79313799D01*
X114790967Y-79313799D01*
X114809854Y-79517619D01*
X114865872Y-79714502D01*
X114957110Y-79897733D01*
X114998345Y-79952336D01*
X115080468Y-80061085D01*
X115231738Y-80198986D01*
X115313933Y-80249879D01*
X115377761Y-80289400D01*
X115405773Y-80306744D01*
X115596644Y-80380688D01*
X115797853Y-80418300D01*
X115797855Y-80418300D01*
X116002545Y-80418300D01*
X116002547Y-80418300D01*
X116203756Y-80380688D01*
X116394627Y-80306744D01*
X116422640Y-80289399D01*
X129261693Y-80289399D01*
X129280850Y-80447180D01*
X129337212Y-80595794D01*
X129337213Y-80595795D01*
X129427502Y-80726601D01*
X129546471Y-80831999D01*
X129687207Y-80905863D01*
X129841529Y-80943900D01*
X129841531Y-80943900D01*
X130000469Y-80943900D01*
X130000471Y-80943900D01*
X130154793Y-80905863D01*
X130295529Y-80831999D01*
X130414498Y-80726601D01*
X130504787Y-80595795D01*
X130561149Y-80447182D01*
X130580307Y-80289400D01*
X130561149Y-80131618D01*
X130504787Y-79983005D01*
X130414498Y-79852199D01*
X130295529Y-79746801D01*
X130154793Y-79672937D01*
X130000471Y-79634900D01*
X129841529Y-79634900D01*
X129687207Y-79672937D01*
X129687206Y-79672937D01*
X129687204Y-79672938D01*
X129546472Y-79746800D01*
X129427501Y-79852199D01*
X129337212Y-79983005D01*
X129280850Y-80131619D01*
X129261693Y-80289399D01*
X116422640Y-80289399D01*
X116568662Y-80198986D01*
X116719932Y-80061085D01*
X116843288Y-79897735D01*
X116934528Y-79714501D01*
X116990545Y-79517621D01*
X117009432Y-79313800D01*
X116990545Y-79109979D01*
X116934528Y-78913099D01*
X116869229Y-78781961D01*
X116843289Y-78729866D01*
X116783529Y-78650731D01*
X116719932Y-78566515D01*
X116568662Y-78428614D01*
X116458215Y-78360228D01*
X116394628Y-78320856D01*
X116299191Y-78283884D01*
X116203756Y-78246912D01*
X116002547Y-78209300D01*
X115797853Y-78209300D01*
X115596644Y-78246912D01*
X115405771Y-78320856D01*
X115231739Y-78428613D01*
X115080467Y-78566516D01*
X114957110Y-78729866D01*
X114865872Y-78913097D01*
X114809854Y-79109980D01*
X114790967Y-79313799D01*
X114469432Y-79313799D01*
X114468894Y-79307999D01*
X114450545Y-79109980D01*
X114448179Y-79101663D01*
X114394528Y-78913099D01*
X114329229Y-78781961D01*
X114303289Y-78729866D01*
X114243529Y-78650731D01*
X114179932Y-78566515D01*
X114028662Y-78428614D01*
X113918215Y-78360228D01*
X113854628Y-78320856D01*
X113759191Y-78283884D01*
X113663756Y-78246912D01*
X113462547Y-78209300D01*
X113276215Y-78209300D01*
X113208094Y-78189298D01*
X113161601Y-78135642D01*
X113151134Y-78068114D01*
X113155907Y-78028800D01*
X113154776Y-78019488D01*
X113166420Y-77949453D01*
X113214080Y-77896832D01*
X113279857Y-77878300D01*
X113462545Y-77878300D01*
X113462547Y-77878300D01*
X113663756Y-77840688D01*
X113854627Y-77766744D01*
X114028662Y-77658986D01*
X114179932Y-77521085D01*
X114303288Y-77357735D01*
X114394528Y-77174501D01*
X114450545Y-76977621D01*
X114469432Y-76773800D01*
X114790967Y-76773800D01*
X114809854Y-76977619D01*
X114865872Y-77174502D01*
X114957110Y-77357733D01*
X114998345Y-77412336D01*
X115080468Y-77521085D01*
X115231738Y-77658986D01*
X115405773Y-77766744D01*
X115596644Y-77840688D01*
X115797853Y-77878300D01*
X115797855Y-77878300D01*
X116002545Y-77878300D01*
X116002547Y-77878300D01*
X116203756Y-77840688D01*
X116394627Y-77766744D01*
X116568662Y-77658986D01*
X116719932Y-77521085D01*
X116843288Y-77357735D01*
X116934528Y-77174501D01*
X116990545Y-76977621D01*
X117009432Y-76773800D01*
X116990545Y-76569979D01*
X116934528Y-76373099D01*
X116869229Y-76241961D01*
X116843289Y-76189866D01*
X116781577Y-76108146D01*
X116719932Y-76026515D01*
X116568662Y-75888614D01*
X116458215Y-75820228D01*
X116394628Y-75780856D01*
X116244770Y-75722801D01*
X116203756Y-75706912D01*
X116002547Y-75669300D01*
X115797853Y-75669300D01*
X115596643Y-75706912D01*
X115596644Y-75706912D01*
X115405771Y-75780856D01*
X115231739Y-75888613D01*
X115080467Y-76026516D01*
X114957110Y-76189866D01*
X114865872Y-76373097D01*
X114809854Y-76569980D01*
X114790967Y-76773800D01*
X114469432Y-76773800D01*
X114450545Y-76569979D01*
X114394528Y-76373099D01*
X114329229Y-76241961D01*
X114303289Y-76189866D01*
X114241577Y-76108146D01*
X114179932Y-76026515D01*
X114028662Y-75888614D01*
X113918215Y-75820228D01*
X113854628Y-75780856D01*
X113704770Y-75722801D01*
X113663756Y-75706912D01*
X113462547Y-75669300D01*
X113276215Y-75669300D01*
X113208094Y-75649298D01*
X113161601Y-75595642D01*
X113151134Y-75528114D01*
X113155907Y-75488800D01*
X113154776Y-75479488D01*
X113166420Y-75409453D01*
X113214080Y-75356832D01*
X113279857Y-75338300D01*
X113462545Y-75338300D01*
X113462547Y-75338300D01*
X113663756Y-75300688D01*
X113854627Y-75226744D01*
X114028662Y-75118986D01*
X114179932Y-74981085D01*
X114303288Y-74817735D01*
X114394528Y-74634501D01*
X114450545Y-74437621D01*
X114469432Y-74233800D01*
X114469432Y-74233799D01*
X114790967Y-74233799D01*
X114809854Y-74437619D01*
X114865872Y-74634502D01*
X114957110Y-74817733D01*
X114998345Y-74872336D01*
X115080468Y-74981085D01*
X115231738Y-75118986D01*
X115405773Y-75226744D01*
X115596644Y-75300688D01*
X115797853Y-75338300D01*
X115797855Y-75338300D01*
X116002545Y-75338300D01*
X116002547Y-75338300D01*
X116203756Y-75300688D01*
X116394627Y-75226744D01*
X116545706Y-75133200D01*
X117425293Y-75133200D01*
X117444450Y-75290980D01*
X117500812Y-75439594D01*
X117583404Y-75559248D01*
X117591102Y-75570401D01*
X117710071Y-75675799D01*
X117850807Y-75749663D01*
X118005129Y-75787700D01*
X118005131Y-75787700D01*
X118164069Y-75787700D01*
X118164071Y-75787700D01*
X118318393Y-75749663D01*
X118459129Y-75675799D01*
X118578098Y-75570401D01*
X118668387Y-75439595D01*
X118717157Y-75311000D01*
X124559625Y-75311000D01*
X124578225Y-75440361D01*
X124578225Y-75440362D01*
X124578226Y-75440364D01*
X124618300Y-75528114D01*
X124632518Y-75559248D01*
X124718105Y-75658022D01*
X124828050Y-75728678D01*
X124828052Y-75728679D01*
X124953453Y-75765500D01*
X125084147Y-75765500D01*
X125209548Y-75728679D01*
X125297771Y-75671982D01*
X125319494Y-75658022D01*
X125371374Y-75598149D01*
X125405082Y-75559248D01*
X125459374Y-75440364D01*
X125477974Y-75311000D01*
X125474322Y-75285600D01*
X136881693Y-75285600D01*
X136883525Y-75300687D01*
X136900850Y-75443380D01*
X136957212Y-75591994D01*
X137036535Y-75706912D01*
X137047502Y-75722801D01*
X137166471Y-75828199D01*
X137307207Y-75902063D01*
X137461529Y-75940100D01*
X137461531Y-75940100D01*
X137620469Y-75940100D01*
X137620471Y-75940100D01*
X137774793Y-75902063D01*
X137915529Y-75828199D01*
X138034498Y-75722801D01*
X138124787Y-75591995D01*
X138181149Y-75443382D01*
X138200307Y-75285600D01*
X138181149Y-75127818D01*
X138124787Y-74979205D01*
X138034498Y-74848399D01*
X137915529Y-74743001D01*
X137774793Y-74669137D01*
X137620471Y-74631100D01*
X137461529Y-74631100D01*
X137307207Y-74669137D01*
X137307206Y-74669137D01*
X137307204Y-74669138D01*
X137166472Y-74743000D01*
X137047501Y-74848399D01*
X136957212Y-74979205D01*
X136900850Y-75127819D01*
X136890890Y-75209853D01*
X136881693Y-75285600D01*
X125474322Y-75285600D01*
X125459374Y-75181636D01*
X125405082Y-75062752D01*
X125391894Y-75047533D01*
X125319494Y-74963977D01*
X125209549Y-74893321D01*
X125084147Y-74856500D01*
X124953453Y-74856500D01*
X124828050Y-74893321D01*
X124718105Y-74963977D01*
X124632518Y-75062751D01*
X124578225Y-75181638D01*
X124559625Y-75311000D01*
X118717157Y-75311000D01*
X118724749Y-75290982D01*
X118743907Y-75133200D01*
X118724749Y-74975418D01*
X118668387Y-74826805D01*
X118578098Y-74695999D01*
X118459129Y-74590601D01*
X118318393Y-74516737D01*
X118164071Y-74478700D01*
X118005129Y-74478700D01*
X117850807Y-74516737D01*
X117850806Y-74516737D01*
X117850804Y-74516738D01*
X117710072Y-74590600D01*
X117591101Y-74695999D01*
X117500812Y-74826805D01*
X117444450Y-74975419D01*
X117425293Y-75133200D01*
X116545706Y-75133200D01*
X116568662Y-75118986D01*
X116719932Y-74981085D01*
X116843288Y-74817735D01*
X116934528Y-74634501D01*
X116990545Y-74437621D01*
X117009432Y-74233800D01*
X116990545Y-74029979D01*
X116934528Y-73833099D01*
X116869229Y-73701961D01*
X116843289Y-73649866D01*
X116783529Y-73570731D01*
X116719932Y-73486515D01*
X116568662Y-73348614D01*
X116458215Y-73280228D01*
X116394628Y-73240856D01*
X116299191Y-73203884D01*
X116203756Y-73166912D01*
X116002547Y-73129300D01*
X115797853Y-73129300D01*
X115596643Y-73166912D01*
X115596644Y-73166912D01*
X115405771Y-73240856D01*
X115231739Y-73348613D01*
X115080467Y-73486516D01*
X114957110Y-73649866D01*
X114865872Y-73833097D01*
X114809854Y-74029980D01*
X114790967Y-74233799D01*
X114469432Y-74233799D01*
X114450545Y-74029979D01*
X114394528Y-73833099D01*
X114329229Y-73701961D01*
X114303289Y-73649866D01*
X114243529Y-73570731D01*
X114179932Y-73486515D01*
X114028662Y-73348614D01*
X113918215Y-73280228D01*
X113854628Y-73240856D01*
X113759191Y-73203884D01*
X113663756Y-73166912D01*
X113462547Y-73129300D01*
X113276215Y-73129300D01*
X113208094Y-73109298D01*
X113161601Y-73055642D01*
X113151134Y-72988114D01*
X113155907Y-72948800D01*
X113154776Y-72939488D01*
X113166420Y-72869453D01*
X113214080Y-72816832D01*
X113279857Y-72798300D01*
X113462545Y-72798300D01*
X113462547Y-72798300D01*
X113663756Y-72760688D01*
X113854627Y-72686744D01*
X114028662Y-72578986D01*
X114179932Y-72441085D01*
X114303288Y-72277735D01*
X114394528Y-72094501D01*
X114450545Y-71897621D01*
X114469432Y-71693800D01*
X114790967Y-71693800D01*
X114809854Y-71897619D01*
X114865872Y-72094502D01*
X114957110Y-72277733D01*
X114998345Y-72332336D01*
X115080468Y-72441085D01*
X115231738Y-72578986D01*
X115405773Y-72686744D01*
X115596644Y-72760688D01*
X115797853Y-72798300D01*
X115797855Y-72798300D01*
X116002545Y-72798300D01*
X116002547Y-72798300D01*
X116203756Y-72760688D01*
X116394627Y-72686744D01*
X116568662Y-72578986D01*
X116719932Y-72441085D01*
X116843288Y-72277735D01*
X116934528Y-72094501D01*
X116990545Y-71897621D01*
X117009432Y-71693800D01*
X116990545Y-71489979D01*
X116964773Y-71399400D01*
X121537025Y-71399400D01*
X121555625Y-71528761D01*
X121609918Y-71647648D01*
X121695505Y-71746422D01*
X121805450Y-71817078D01*
X121805452Y-71817079D01*
X121930853Y-71853900D01*
X122061547Y-71853900D01*
X122186948Y-71817079D01*
X122241921Y-71781750D01*
X122296894Y-71746422D01*
X122342491Y-71693800D01*
X122355489Y-71678799D01*
X128042493Y-71678799D01*
X128061650Y-71836580D01*
X128118012Y-71985194D01*
X128193462Y-72094501D01*
X128208302Y-72116001D01*
X128327271Y-72221399D01*
X128468007Y-72295263D01*
X128622329Y-72333300D01*
X128622331Y-72333300D01*
X128781269Y-72333300D01*
X128781271Y-72333300D01*
X128935593Y-72295263D01*
X129076329Y-72221399D01*
X129177048Y-72132168D01*
X129241299Y-72101969D01*
X129311680Y-72111300D01*
X129344150Y-72132167D01*
X129401723Y-72183173D01*
X129444872Y-72221400D01*
X129506650Y-72253823D01*
X129585607Y-72295263D01*
X129739929Y-72333300D01*
X129739931Y-72333300D01*
X129898869Y-72333300D01*
X129898871Y-72333300D01*
X130053193Y-72295263D01*
X130193929Y-72221399D01*
X130312898Y-72116001D01*
X130403187Y-71985195D01*
X130459549Y-71836582D01*
X130478707Y-71678800D01*
X130459549Y-71521018D01*
X130403187Y-71372405D01*
X130312898Y-71241599D01*
X130193929Y-71136201D01*
X130053193Y-71062337D01*
X129898871Y-71024300D01*
X129739929Y-71024300D01*
X129585607Y-71062337D01*
X129585606Y-71062337D01*
X129585604Y-71062338D01*
X129444870Y-71136201D01*
X129344153Y-71225429D01*
X129279900Y-71255630D01*
X129209520Y-71246299D01*
X129177047Y-71225429D01*
X129076329Y-71136201D01*
X128935595Y-71062338D01*
X128935594Y-71062337D01*
X128935593Y-71062337D01*
X128781271Y-71024300D01*
X128622329Y-71024300D01*
X128468007Y-71062337D01*
X128468006Y-71062337D01*
X128468004Y-71062338D01*
X128327272Y-71136200D01*
X128208301Y-71241599D01*
X128118012Y-71372405D01*
X128061650Y-71521019D01*
X128042493Y-71678799D01*
X122355489Y-71678799D01*
X122382482Y-71647648D01*
X122436774Y-71528764D01*
X122455374Y-71399400D01*
X122436774Y-71270036D01*
X122382482Y-71151152D01*
X122335062Y-71096426D01*
X122296894Y-71052377D01*
X122186949Y-70981721D01*
X122061547Y-70944900D01*
X121930853Y-70944900D01*
X121805450Y-70981721D01*
X121695505Y-71052377D01*
X121609918Y-71151151D01*
X121555625Y-71270038D01*
X121537025Y-71399400D01*
X116964773Y-71399400D01*
X116934528Y-71293099D01*
X116888333Y-71200327D01*
X116843289Y-71109866D01*
X116783529Y-71030731D01*
X116719932Y-70946515D01*
X116568662Y-70808614D01*
X116497254Y-70764400D01*
X116394628Y-70700856D01*
X116299191Y-70663884D01*
X116203756Y-70626912D01*
X116002547Y-70589300D01*
X115797853Y-70589300D01*
X115596643Y-70626912D01*
X115596644Y-70626912D01*
X115405771Y-70700856D01*
X115231739Y-70808613D01*
X115080467Y-70946516D01*
X114957110Y-71109866D01*
X114865872Y-71293097D01*
X114809854Y-71489980D01*
X114790967Y-71693800D01*
X114469432Y-71693800D01*
X114450545Y-71489979D01*
X114394528Y-71293099D01*
X114348333Y-71200327D01*
X114303289Y-71109866D01*
X114243529Y-71030731D01*
X114179932Y-70946515D01*
X114028662Y-70808614D01*
X113957254Y-70764400D01*
X113854628Y-70700856D01*
X113759191Y-70663884D01*
X113663756Y-70626912D01*
X113462547Y-70589300D01*
X113276215Y-70589300D01*
X113208094Y-70569298D01*
X113161601Y-70515642D01*
X113151134Y-70448114D01*
X113155907Y-70408800D01*
X113154776Y-70399486D01*
X113161674Y-70358000D01*
X118593693Y-70358000D01*
X118612850Y-70515780D01*
X118669212Y-70664394D01*
X118742979Y-70771263D01*
X118759502Y-70795201D01*
X118878471Y-70900599D01*
X119019207Y-70974463D01*
X119173529Y-71012500D01*
X119173531Y-71012500D01*
X119332469Y-71012500D01*
X119332471Y-71012500D01*
X119486793Y-70974463D01*
X119627529Y-70900599D01*
X119746498Y-70795201D01*
X119836787Y-70664395D01*
X119893149Y-70515782D01*
X119912307Y-70358000D01*
X119893149Y-70200218D01*
X119875924Y-70154800D01*
X129947493Y-70154800D01*
X129966650Y-70312580D01*
X130023012Y-70461194D01*
X130111438Y-70589300D01*
X130113302Y-70592001D01*
X130232271Y-70697399D01*
X130373007Y-70771263D01*
X130527329Y-70809300D01*
X130527331Y-70809300D01*
X130686269Y-70809300D01*
X130686271Y-70809300D01*
X130840593Y-70771263D01*
X130981329Y-70697399D01*
X131100298Y-70592001D01*
X131121558Y-70561200D01*
X136983293Y-70561200D01*
X137002450Y-70718980D01*
X137058812Y-70867594D01*
X137137589Y-70981721D01*
X137149102Y-70998401D01*
X137268071Y-71103799D01*
X137408807Y-71177663D01*
X137563129Y-71215700D01*
X137563131Y-71215700D01*
X137722069Y-71215700D01*
X137722071Y-71215700D01*
X137876393Y-71177663D01*
X138017129Y-71103799D01*
X138136098Y-70998401D01*
X138226387Y-70867595D01*
X138282749Y-70718982D01*
X138301907Y-70561200D01*
X138282749Y-70403418D01*
X138226387Y-70254805D01*
X138136098Y-70123999D01*
X138017129Y-70018601D01*
X137876393Y-69944737D01*
X137722071Y-69906700D01*
X137563129Y-69906700D01*
X137408807Y-69944737D01*
X137408806Y-69944737D01*
X137408804Y-69944738D01*
X137268072Y-70018600D01*
X137149101Y-70123999D01*
X137058812Y-70254805D01*
X137002450Y-70403419D01*
X136983293Y-70561200D01*
X131121558Y-70561200D01*
X131190587Y-70461195D01*
X131246949Y-70312582D01*
X131266107Y-70154800D01*
X131246949Y-69997018D01*
X131190587Y-69848405D01*
X131100298Y-69717599D01*
X130981329Y-69612201D01*
X130840593Y-69538337D01*
X130686271Y-69500300D01*
X130527329Y-69500300D01*
X130373007Y-69538337D01*
X130373006Y-69538337D01*
X130373004Y-69538338D01*
X130232272Y-69612200D01*
X130113301Y-69717599D01*
X130023012Y-69848405D01*
X129966650Y-69997019D01*
X129947493Y-70154800D01*
X119875924Y-70154800D01*
X119836787Y-70051605D01*
X119746498Y-69920799D01*
X119627529Y-69815401D01*
X119486793Y-69741537D01*
X119332471Y-69703500D01*
X119173529Y-69703500D01*
X119019207Y-69741537D01*
X119019206Y-69741537D01*
X119019204Y-69741538D01*
X118878472Y-69815400D01*
X118759501Y-69920799D01*
X118669212Y-70051605D01*
X118612850Y-70200219D01*
X118593693Y-70358000D01*
X113161674Y-70358000D01*
X113166420Y-70329453D01*
X113214080Y-70276832D01*
X113279857Y-70258300D01*
X113462545Y-70258300D01*
X113462547Y-70258300D01*
X113663756Y-70220688D01*
X113854627Y-70146744D01*
X114028662Y-70038986D01*
X114179932Y-69901085D01*
X114303288Y-69737735D01*
X114394528Y-69554501D01*
X114450545Y-69357621D01*
X114469432Y-69153800D01*
X114790967Y-69153800D01*
X114809854Y-69357619D01*
X114865872Y-69554502D01*
X114957110Y-69737733D01*
X114997050Y-69790622D01*
X115080468Y-69901085D01*
X115231738Y-70038986D01*
X115405773Y-70146744D01*
X115596644Y-70220688D01*
X115797853Y-70258300D01*
X115797855Y-70258300D01*
X116002545Y-70258300D01*
X116002547Y-70258300D01*
X116203756Y-70220688D01*
X116394627Y-70146744D01*
X116568662Y-70038986D01*
X116719932Y-69901085D01*
X116843288Y-69737735D01*
X116934528Y-69554501D01*
X116966082Y-69443600D01*
X133424225Y-69443600D01*
X133442825Y-69572961D01*
X133442825Y-69572962D01*
X133442826Y-69572964D01*
X133474889Y-69643173D01*
X133497118Y-69691848D01*
X133582705Y-69790622D01*
X133672619Y-69848405D01*
X133692652Y-69861279D01*
X133818053Y-69898100D01*
X133948747Y-69898100D01*
X134074148Y-69861279D01*
X134181425Y-69792337D01*
X134184094Y-69790622D01*
X134215567Y-69754300D01*
X134269682Y-69691848D01*
X134323974Y-69572964D01*
X134342574Y-69443600D01*
X134719625Y-69443600D01*
X134738225Y-69572961D01*
X134738225Y-69572962D01*
X134738226Y-69572964D01*
X134770289Y-69643173D01*
X134792518Y-69691848D01*
X134878105Y-69790622D01*
X134968019Y-69848405D01*
X134988052Y-69861279D01*
X135113453Y-69898100D01*
X135244147Y-69898100D01*
X135369548Y-69861279D01*
X135476825Y-69792337D01*
X135479494Y-69790622D01*
X135510967Y-69754300D01*
X135565082Y-69691848D01*
X135619374Y-69572964D01*
X135637974Y-69443600D01*
X135619374Y-69314236D01*
X135565082Y-69195352D01*
X135529076Y-69153799D01*
X135479494Y-69096577D01*
X135369549Y-69025921D01*
X135244147Y-68989100D01*
X135113453Y-68989100D01*
X134988050Y-69025921D01*
X134878105Y-69096577D01*
X134792518Y-69195351D01*
X134738225Y-69314238D01*
X134719625Y-69443600D01*
X134342574Y-69443600D01*
X134323974Y-69314236D01*
X134269682Y-69195352D01*
X134233676Y-69153799D01*
X134184094Y-69096577D01*
X134074149Y-69025921D01*
X133948747Y-68989100D01*
X133818053Y-68989100D01*
X133692650Y-69025921D01*
X133582705Y-69096577D01*
X133497118Y-69195351D01*
X133442825Y-69314238D01*
X133424225Y-69443600D01*
X116966082Y-69443600D01*
X116990545Y-69357621D01*
X117009432Y-69153800D01*
X116990545Y-68949979D01*
X116934528Y-68753099D01*
X116869229Y-68621961D01*
X116843289Y-68569866D01*
X116783529Y-68490731D01*
X116719932Y-68406515D01*
X116568662Y-68268614D01*
X116458215Y-68200228D01*
X116394628Y-68160856D01*
X116299191Y-68123884D01*
X116203756Y-68086912D01*
X116002547Y-68049300D01*
X115797853Y-68049300D01*
X115596643Y-68086912D01*
X115596644Y-68086912D01*
X115405771Y-68160856D01*
X115231739Y-68268613D01*
X115080467Y-68406516D01*
X114957110Y-68569866D01*
X114865872Y-68753097D01*
X114809854Y-68949980D01*
X114790967Y-69153800D01*
X114469432Y-69153800D01*
X114450545Y-68949979D01*
X114394528Y-68753099D01*
X114329229Y-68621961D01*
X114303289Y-68569866D01*
X114243529Y-68490731D01*
X114179932Y-68406515D01*
X114028662Y-68268614D01*
X113918215Y-68200228D01*
X113854628Y-68160856D01*
X113759191Y-68123884D01*
X113663756Y-68086912D01*
X113462547Y-68049300D01*
X113276215Y-68049300D01*
X113208094Y-68029298D01*
X113161601Y-67975642D01*
X113151134Y-67908114D01*
X113155907Y-67868800D01*
X113154776Y-67859488D01*
X113166420Y-67789453D01*
X113214080Y-67736832D01*
X113279857Y-67718300D01*
X113462545Y-67718300D01*
X113462547Y-67718300D01*
X113663756Y-67680688D01*
X113854627Y-67606744D01*
X114028662Y-67498986D01*
X114179932Y-67361085D01*
X114303288Y-67197735D01*
X114394528Y-67014501D01*
X114450545Y-66817621D01*
X114469432Y-66613800D01*
X114790967Y-66613800D01*
X114809854Y-66817619D01*
X114865872Y-67014502D01*
X114957110Y-67197733D01*
X114998345Y-67252336D01*
X115080468Y-67361085D01*
X115231738Y-67498986D01*
X115405773Y-67606744D01*
X115596644Y-67680688D01*
X115797853Y-67718300D01*
X115797855Y-67718300D01*
X116002545Y-67718300D01*
X116002547Y-67718300D01*
X116203756Y-67680688D01*
X116394627Y-67606744D01*
X116568662Y-67498986D01*
X116719932Y-67361085D01*
X116843288Y-67197735D01*
X116934528Y-67014501D01*
X116990545Y-66817621D01*
X117009432Y-66613800D01*
X116996274Y-66471800D01*
X134795968Y-66471800D01*
X134815591Y-66608277D01*
X134815591Y-66608278D01*
X134815592Y-66608280D01*
X134841733Y-66665520D01*
X134872871Y-66733703D01*
X134963166Y-66837910D01*
X135021162Y-66875181D01*
X135079160Y-66912454D01*
X135167787Y-66938477D01*
X135211457Y-66951300D01*
X135211458Y-66951300D01*
X135349343Y-66951300D01*
X135393013Y-66938477D01*
X135481640Y-66912454D01*
X135597635Y-66837909D01*
X135687929Y-66733703D01*
X135745208Y-66608280D01*
X135764831Y-66471800D01*
X137440493Y-66471800D01*
X137459650Y-66629580D01*
X137516012Y-66778194D01*
X137557231Y-66837909D01*
X137606302Y-66909001D01*
X137725271Y-67014399D01*
X137866007Y-67088263D01*
X138020329Y-67126300D01*
X138020331Y-67126300D01*
X138179269Y-67126300D01*
X138179271Y-67126300D01*
X138333593Y-67088263D01*
X138474329Y-67014399D01*
X138593298Y-66909001D01*
X138667156Y-66801999D01*
X139240968Y-66801999D01*
X139260591Y-66938477D01*
X139260591Y-66938478D01*
X139260592Y-66938480D01*
X139295309Y-67014499D01*
X139317871Y-67063903D01*
X139408166Y-67168110D01*
X139417056Y-67173823D01*
X139524160Y-67242654D01*
X139617611Y-67270093D01*
X139656457Y-67281500D01*
X139656458Y-67281500D01*
X139794343Y-67281500D01*
X139824371Y-67272682D01*
X139926640Y-67242654D01*
X140042635Y-67168109D01*
X140132929Y-67063903D01*
X140190208Y-66938480D01*
X140209831Y-66802000D01*
X140190208Y-66665520D01*
X140132929Y-66540097D01*
X140042635Y-66435891D01*
X140042634Y-66435890D01*
X140042633Y-66435889D01*
X139926640Y-66361346D01*
X139794343Y-66322500D01*
X139794342Y-66322500D01*
X139656458Y-66322500D01*
X139656457Y-66322500D01*
X139524159Y-66361346D01*
X139408166Y-66435889D01*
X139317871Y-66540096D01*
X139260591Y-66665522D01*
X139240968Y-66801999D01*
X138667156Y-66801999D01*
X138683587Y-66778195D01*
X138739949Y-66629582D01*
X138759107Y-66471800D01*
X138739949Y-66314018D01*
X138683587Y-66165405D01*
X138593298Y-66034599D01*
X138474329Y-65929201D01*
X138333593Y-65855337D01*
X138179271Y-65817300D01*
X138020329Y-65817300D01*
X137866007Y-65855337D01*
X137866006Y-65855337D01*
X137866004Y-65855338D01*
X137725272Y-65929200D01*
X137606301Y-66034599D01*
X137516012Y-66165405D01*
X137459650Y-66314019D01*
X137440493Y-66471800D01*
X135764831Y-66471800D01*
X135745208Y-66335320D01*
X135687929Y-66209897D01*
X135597635Y-66105691D01*
X135597634Y-66105690D01*
X135597633Y-66105689D01*
X135481640Y-66031146D01*
X135349343Y-65992300D01*
X135349342Y-65992300D01*
X135211458Y-65992300D01*
X135211457Y-65992300D01*
X135079159Y-66031146D01*
X134963166Y-66105689D01*
X134872871Y-66209896D01*
X134815591Y-66335322D01*
X134795968Y-66471800D01*
X116996274Y-66471800D01*
X116990545Y-66409979D01*
X116934528Y-66213099D01*
X116881044Y-66105689D01*
X116843289Y-66029866D01*
X116783529Y-65950731D01*
X116719932Y-65866515D01*
X116568662Y-65728614D01*
X116458215Y-65660228D01*
X116394628Y-65620856D01*
X116299191Y-65583884D01*
X116203756Y-65546912D01*
X116002547Y-65509300D01*
X115797853Y-65509300D01*
X115596643Y-65546912D01*
X115596644Y-65546912D01*
X115405771Y-65620856D01*
X115231739Y-65728613D01*
X115200375Y-65757205D01*
X115131516Y-65819979D01*
X115080467Y-65866516D01*
X114957110Y-66029866D01*
X114865872Y-66213097D01*
X114809854Y-66409980D01*
X114790967Y-66613800D01*
X114469432Y-66613800D01*
X114450545Y-66409979D01*
X114394528Y-66213099D01*
X114341044Y-66105689D01*
X114303289Y-66029866D01*
X114243529Y-65950731D01*
X114179932Y-65866515D01*
X114028662Y-65728614D01*
X113918215Y-65660228D01*
X113854628Y-65620856D01*
X113759191Y-65583884D01*
X113663756Y-65546912D01*
X113462547Y-65509300D01*
X113276215Y-65509300D01*
X113208094Y-65489298D01*
X113161601Y-65435642D01*
X113151134Y-65368114D01*
X113155907Y-65328800D01*
X121133693Y-65328800D01*
X121152850Y-65486580D01*
X121209212Y-65635194D01*
X121293431Y-65757205D01*
X121299502Y-65766001D01*
X121418471Y-65871399D01*
X121559207Y-65945263D01*
X121713529Y-65983300D01*
X121713531Y-65983300D01*
X121872469Y-65983300D01*
X121872471Y-65983300D01*
X122026793Y-65945263D01*
X122167529Y-65871399D01*
X122263924Y-65786000D01*
X141555293Y-65786000D01*
X141574450Y-65943780D01*
X141630812Y-66092394D01*
X141714128Y-66213097D01*
X141721102Y-66223201D01*
X141840071Y-66328599D01*
X141980807Y-66402463D01*
X142135129Y-66440500D01*
X142135131Y-66440500D01*
X142294069Y-66440500D01*
X142294071Y-66440500D01*
X142448393Y-66402463D01*
X142589129Y-66328599D01*
X142708098Y-66223201D01*
X142798387Y-66092395D01*
X142854749Y-65943782D01*
X142873907Y-65786000D01*
X142854749Y-65628218D01*
X142798387Y-65479605D01*
X142708098Y-65348799D01*
X142589129Y-65243401D01*
X142499610Y-65196418D01*
X142448395Y-65169538D01*
X142448394Y-65169537D01*
X142448393Y-65169537D01*
X142294071Y-65131500D01*
X142135129Y-65131500D01*
X141980807Y-65169537D01*
X141980806Y-65169537D01*
X141980804Y-65169538D01*
X141840072Y-65243400D01*
X141721101Y-65348799D01*
X141630812Y-65479605D01*
X141574450Y-65628219D01*
X141555293Y-65786000D01*
X122263924Y-65786000D01*
X122286498Y-65766001D01*
X122376787Y-65635195D01*
X122433149Y-65486582D01*
X122452307Y-65328800D01*
X122433149Y-65171018D01*
X122376787Y-65022405D01*
X122286498Y-64891599D01*
X122167529Y-64786201D01*
X122026793Y-64712337D01*
X121951586Y-64693800D01*
X134795968Y-64693800D01*
X134815591Y-64830277D01*
X134815591Y-64830278D01*
X134815592Y-64830280D01*
X134872871Y-64955703D01*
X134927990Y-65019315D01*
X134963166Y-65059910D01*
X134988066Y-65075912D01*
X135079160Y-65134454D01*
X135147397Y-65154490D01*
X135211457Y-65173300D01*
X135211458Y-65173300D01*
X135349343Y-65173300D01*
X135379371Y-65164482D01*
X135481640Y-65134454D01*
X135597635Y-65059909D01*
X135687929Y-64955703D01*
X135745208Y-64830280D01*
X135764831Y-64693800D01*
X135745208Y-64557320D01*
X135687929Y-64431897D01*
X135597635Y-64327691D01*
X135597634Y-64327690D01*
X135597633Y-64327689D01*
X135481640Y-64253146D01*
X135349343Y-64214300D01*
X135349342Y-64214300D01*
X135211458Y-64214300D01*
X135211457Y-64214300D01*
X135079159Y-64253146D01*
X134963166Y-64327689D01*
X134872871Y-64431896D01*
X134815591Y-64557322D01*
X134795968Y-64693800D01*
X121951586Y-64693800D01*
X121872471Y-64674300D01*
X121713529Y-64674300D01*
X121559207Y-64712337D01*
X121559206Y-64712337D01*
X121559204Y-64712338D01*
X121418472Y-64786200D01*
X121299501Y-64891599D01*
X121209212Y-65022405D01*
X121152850Y-65171019D01*
X121133693Y-65328800D01*
X113155907Y-65328800D01*
X113154776Y-65319488D01*
X113166420Y-65249453D01*
X113214080Y-65196832D01*
X113279857Y-65178300D01*
X113462545Y-65178300D01*
X113462547Y-65178300D01*
X113663756Y-65140688D01*
X113854627Y-65066744D01*
X114028662Y-64958986D01*
X114179932Y-64821085D01*
X114303288Y-64657735D01*
X114394528Y-64474501D01*
X114450545Y-64277621D01*
X114469432Y-64073800D01*
X114790967Y-64073800D01*
X114809854Y-64277619D01*
X114865872Y-64474502D01*
X114957110Y-64657733D01*
X114998345Y-64712336D01*
X115080468Y-64821085D01*
X115231738Y-64958986D01*
X115293732Y-64997371D01*
X115394735Y-65059910D01*
X115405773Y-65066744D01*
X115596644Y-65140688D01*
X115797853Y-65178300D01*
X115797855Y-65178300D01*
X116002545Y-65178300D01*
X116002547Y-65178300D01*
X116203756Y-65140688D01*
X116394627Y-65066744D01*
X116568662Y-64958986D01*
X116719932Y-64821085D01*
X116843288Y-64657735D01*
X116934528Y-64474501D01*
X116990545Y-64277621D01*
X117009432Y-64073800D01*
X116990545Y-63869979D01*
X116934528Y-63673099D01*
X116859439Y-63522300D01*
X116843289Y-63489866D01*
X116783529Y-63410731D01*
X116719932Y-63326515D01*
X116568662Y-63188614D01*
X116491984Y-63141137D01*
X116394628Y-63080856D01*
X116296393Y-63042800D01*
X116203756Y-63006912D01*
X116002547Y-62969300D01*
X115797853Y-62969300D01*
X115596644Y-63006912D01*
X115405771Y-63080856D01*
X115231739Y-63188613D01*
X115080467Y-63326516D01*
X114957110Y-63489866D01*
X114865872Y-63673097D01*
X114809854Y-63869980D01*
X114790967Y-64073800D01*
X114469432Y-64073800D01*
X114450545Y-63869979D01*
X114394528Y-63673099D01*
X114319439Y-63522300D01*
X114303289Y-63489866D01*
X114243529Y-63410731D01*
X114179932Y-63326515D01*
X114028662Y-63188614D01*
X113951984Y-63141137D01*
X113854628Y-63080856D01*
X113756393Y-63042800D01*
X113663756Y-63006912D01*
X113462547Y-62969300D01*
X113276215Y-62969300D01*
X113208094Y-62949298D01*
X113161601Y-62895642D01*
X113151134Y-62828114D01*
X113155907Y-62788800D01*
X113150698Y-62745903D01*
X113142919Y-62681835D01*
X113154564Y-62611803D01*
X113183385Y-62573289D01*
X113185200Y-62571644D01*
X113185200Y-62003553D01*
X113217885Y-62018480D01*
X113324437Y-62033800D01*
X113395963Y-62033800D01*
X113502515Y-62018480D01*
X113535200Y-62003553D01*
X113535200Y-62571645D01*
X113566036Y-62568608D01*
X113763960Y-62508568D01*
X113946372Y-62411068D01*
X114106255Y-62279855D01*
X114237468Y-62119972D01*
X114334968Y-61937560D01*
X114395008Y-61739636D01*
X114398045Y-61708800D01*
X113829924Y-61708800D01*
X113860200Y-61605689D01*
X113860200Y-61533799D01*
X114790967Y-61533799D01*
X114809854Y-61737619D01*
X114865872Y-61934502D01*
X114957110Y-62117733D01*
X114988802Y-62159700D01*
X115080468Y-62281085D01*
X115231738Y-62418986D01*
X115405773Y-62526744D01*
X115596644Y-62600688D01*
X115797853Y-62638300D01*
X115797855Y-62638300D01*
X116002545Y-62638300D01*
X116002547Y-62638300D01*
X116203756Y-62600688D01*
X116394627Y-62526744D01*
X116568662Y-62418986D01*
X116719932Y-62281085D01*
X116796872Y-62179200D01*
X133322768Y-62179200D01*
X133342391Y-62315677D01*
X133342391Y-62315678D01*
X133342392Y-62315680D01*
X133399671Y-62441103D01*
X133473067Y-62525808D01*
X133489966Y-62545310D01*
X133526219Y-62568608D01*
X133605960Y-62619854D01*
X133668782Y-62638300D01*
X133738257Y-62658700D01*
X133822169Y-62658700D01*
X133890290Y-62678702D01*
X133936783Y-62732358D01*
X133947249Y-62769510D01*
X133950453Y-62795902D01*
X133958444Y-62861715D01*
X134014806Y-63010328D01*
X134105097Y-63141137D01*
X134167975Y-63196843D01*
X134205700Y-63256987D01*
X134204920Y-63327979D01*
X134193724Y-63348220D01*
X134194597Y-63348619D01*
X134187072Y-63365095D01*
X134187071Y-63365097D01*
X134139757Y-63468700D01*
X134129791Y-63490522D01*
X134110168Y-63626999D01*
X134129791Y-63763477D01*
X134187071Y-63888903D01*
X134277366Y-63993110D01*
X134335362Y-64030381D01*
X134393360Y-64067654D01*
X134486810Y-64095093D01*
X134525657Y-64106500D01*
X134525658Y-64106500D01*
X134663543Y-64106500D01*
X134693571Y-64097682D01*
X134795840Y-64067654D01*
X134911835Y-63993109D01*
X135002129Y-63888903D01*
X135059408Y-63763480D01*
X135079031Y-63627000D01*
X135059408Y-63490520D01*
X135002129Y-63365097D01*
X135002128Y-63365096D01*
X134994603Y-63348618D01*
X134998866Y-63346670D01*
X134983533Y-63313113D01*
X134993623Y-63242837D01*
X135024694Y-63200845D01*
X135087019Y-63145629D01*
X135092092Y-63141135D01*
X135159968Y-63042800D01*
X136523168Y-63042800D01*
X136542791Y-63179277D01*
X136542791Y-63179278D01*
X136542792Y-63179280D01*
X136560112Y-63217205D01*
X136600071Y-63304703D01*
X136690366Y-63408910D01*
X136724215Y-63430663D01*
X136806360Y-63483454D01*
X136895668Y-63509677D01*
X136938657Y-63522300D01*
X136938658Y-63522300D01*
X137076543Y-63522300D01*
X137119532Y-63509677D01*
X137208840Y-63483454D01*
X137324835Y-63408909D01*
X137415129Y-63304703D01*
X137472408Y-63179280D01*
X137492031Y-63042800D01*
X137472408Y-62906320D01*
X137415129Y-62780897D01*
X137324835Y-62676691D01*
X137324834Y-62676690D01*
X137324833Y-62676689D01*
X137208840Y-62602146D01*
X137076543Y-62563300D01*
X137076542Y-62563300D01*
X136938658Y-62563300D01*
X136938657Y-62563300D01*
X136806359Y-62602146D01*
X136690366Y-62676689D01*
X136600071Y-62780896D01*
X136542791Y-62906322D01*
X136523168Y-63042800D01*
X135159968Y-63042800D01*
X135182381Y-63010329D01*
X135238743Y-62861716D01*
X135257901Y-62703934D01*
X135238743Y-62546152D01*
X135215172Y-62484000D01*
X137716968Y-62484000D01*
X137736591Y-62620477D01*
X137736591Y-62620478D01*
X137736592Y-62620480D01*
X137793871Y-62745903D01*
X137865106Y-62828114D01*
X137884166Y-62850110D01*
X137902224Y-62861715D01*
X138000160Y-62924654D01*
X138084090Y-62949298D01*
X138132457Y-62963500D01*
X138132458Y-62963500D01*
X138270343Y-62963500D01*
X138300371Y-62954682D01*
X138402640Y-62924654D01*
X138518635Y-62850109D01*
X138608929Y-62745903D01*
X138666208Y-62620480D01*
X138685831Y-62484000D01*
X138666208Y-62347520D01*
X138608929Y-62222097D01*
X138518635Y-62117891D01*
X138518634Y-62117890D01*
X138518633Y-62117889D01*
X138402640Y-62043346D01*
X138270343Y-62004500D01*
X138270342Y-62004500D01*
X138132458Y-62004500D01*
X138132457Y-62004500D01*
X138000159Y-62043346D01*
X137884166Y-62117889D01*
X137793871Y-62222096D01*
X137736591Y-62347522D01*
X137716968Y-62484000D01*
X135215172Y-62484000D01*
X135182381Y-62397539D01*
X135092092Y-62266733D01*
X135092091Y-62266732D01*
X135083401Y-62254142D01*
X135086233Y-62252186D01*
X135061715Y-62213089D01*
X135062502Y-62142097D01*
X135086010Y-62105527D01*
X135083401Y-62103726D01*
X135092092Y-62091135D01*
X135182381Y-61960329D01*
X135238743Y-61811716D01*
X135257901Y-61653934D01*
X135238743Y-61496152D01*
X135182381Y-61347539D01*
X135092092Y-61216733D01*
X135061143Y-61189314D01*
X135039324Y-61169984D01*
X135001598Y-61109840D01*
X135002378Y-61038848D01*
X135027313Y-60993774D01*
X135027527Y-60993305D01*
X135027529Y-60993303D01*
X135084808Y-60867880D01*
X135104431Y-60731400D01*
X135100779Y-60705999D01*
X135913568Y-60705999D01*
X135933191Y-60842477D01*
X135933191Y-60842478D01*
X135933192Y-60842480D01*
X135990471Y-60967903D01*
X136047570Y-61033800D01*
X136080766Y-61072110D01*
X136089555Y-61077758D01*
X136196760Y-61146654D01*
X136276215Y-61169984D01*
X136329057Y-61185500D01*
X136329058Y-61185500D01*
X136466943Y-61185500D01*
X136519785Y-61169984D01*
X136599240Y-61146654D01*
X136669476Y-61101515D01*
X136737594Y-61081515D01*
X136805715Y-61101517D01*
X136841290Y-61135940D01*
X136846302Y-61143201D01*
X136965271Y-61248599D01*
X137106007Y-61322463D01*
X137260329Y-61360500D01*
X137260331Y-61360500D01*
X137419269Y-61360500D01*
X137419271Y-61360500D01*
X137573593Y-61322463D01*
X137714329Y-61248599D01*
X137781249Y-61189312D01*
X137845498Y-61159113D01*
X137915879Y-61168444D01*
X137948348Y-61189310D01*
X138015271Y-61248599D01*
X138156007Y-61322463D01*
X138310329Y-61360500D01*
X138310331Y-61360500D01*
X138469269Y-61360500D01*
X138469271Y-61360500D01*
X138623593Y-61322463D01*
X138764329Y-61248599D01*
X138883298Y-61143201D01*
X138892244Y-61130240D01*
X138947400Y-61085542D01*
X139017968Y-61077758D01*
X139064056Y-61095817D01*
X139143160Y-61146654D01*
X139185592Y-61159113D01*
X139275457Y-61185500D01*
X139275458Y-61185500D01*
X139413343Y-61185500D01*
X139443371Y-61176682D01*
X139545640Y-61146654D01*
X139661635Y-61072109D01*
X139751929Y-60967903D01*
X139809208Y-60842480D01*
X139828831Y-60706000D01*
X139809208Y-60569520D01*
X139751929Y-60444097D01*
X139661635Y-60339891D01*
X139661634Y-60339890D01*
X139661633Y-60339889D01*
X139545640Y-60265346D01*
X139413343Y-60226500D01*
X139413342Y-60226500D01*
X139275458Y-60226500D01*
X139275457Y-60226500D01*
X139143162Y-60265345D01*
X139143160Y-60265345D01*
X139143160Y-60265346D01*
X139064062Y-60316179D01*
X139064059Y-60316181D01*
X138995938Y-60336182D01*
X138927817Y-60316179D01*
X138892243Y-60281758D01*
X138883298Y-60268799D01*
X138864223Y-60251900D01*
X138820594Y-60213248D01*
X138782870Y-60153105D01*
X138783650Y-60082113D01*
X138822688Y-60022812D01*
X138868651Y-59998041D01*
X138936040Y-59978254D01*
X139052035Y-59903709D01*
X139142329Y-59799503D01*
X139199608Y-59674080D01*
X139219231Y-59537600D01*
X139199608Y-59401120D01*
X139142329Y-59275697D01*
X139052035Y-59171491D01*
X139052034Y-59171490D01*
X139052033Y-59171489D01*
X138936040Y-59096946D01*
X138803743Y-59058100D01*
X138803742Y-59058100D01*
X138665858Y-59058100D01*
X138665857Y-59058100D01*
X138533559Y-59096946D01*
X138417566Y-59171489D01*
X138327271Y-59275696D01*
X138269991Y-59401122D01*
X138250368Y-59537600D01*
X138269991Y-59674077D01*
X138269991Y-59674078D01*
X138269992Y-59674080D01*
X138321195Y-59786199D01*
X138327272Y-59799505D01*
X138369403Y-59848128D01*
X138398896Y-59912709D01*
X138388791Y-59982983D01*
X138342298Y-60036638D01*
X138304332Y-60052977D01*
X138156008Y-60089536D01*
X138015272Y-60163400D01*
X137948354Y-60222685D01*
X137884101Y-60252886D01*
X137813720Y-60243555D01*
X137781246Y-60222685D01*
X137770595Y-60213249D01*
X137714329Y-60163401D01*
X137624810Y-60116418D01*
X137573595Y-60089538D01*
X137573594Y-60089537D01*
X137573593Y-60089537D01*
X137435812Y-60055577D01*
X137374460Y-60019854D01*
X137342158Y-59956631D01*
X137349166Y-59885981D01*
X137370741Y-59850729D01*
X137415129Y-59799503D01*
X137472408Y-59674080D01*
X137492031Y-59537600D01*
X137472408Y-59401120D01*
X137415129Y-59275697D01*
X137324835Y-59171491D01*
X137324834Y-59171490D01*
X137324833Y-59171489D01*
X137208840Y-59096946D01*
X137076543Y-59058100D01*
X137076542Y-59058100D01*
X136938658Y-59058100D01*
X136938657Y-59058100D01*
X136806359Y-59096946D01*
X136690366Y-59171489D01*
X136600071Y-59275696D01*
X136542791Y-59401122D01*
X136523168Y-59537600D01*
X136542791Y-59674077D01*
X136542791Y-59674078D01*
X136542792Y-59674080D01*
X136600071Y-59799503D01*
X136660175Y-59868868D01*
X136690366Y-59903710D01*
X136704369Y-59912709D01*
X136806360Y-59978254D01*
X136864135Y-59995218D01*
X136923861Y-60033601D01*
X136953354Y-60098182D01*
X136943251Y-60168456D01*
X136912191Y-60210426D01*
X136846303Y-60268797D01*
X136846301Y-60268799D01*
X136846302Y-60268799D01*
X136841288Y-60276062D01*
X136786131Y-60320760D01*
X136715562Y-60328543D01*
X136669474Y-60310482D01*
X136599240Y-60265346D01*
X136466943Y-60226500D01*
X136466942Y-60226500D01*
X136329058Y-60226500D01*
X136329057Y-60226500D01*
X136196759Y-60265346D01*
X136080766Y-60339889D01*
X135990471Y-60444096D01*
X135933191Y-60569522D01*
X135913568Y-60705999D01*
X135100779Y-60705999D01*
X135084808Y-60594920D01*
X135027529Y-60469497D01*
X134937235Y-60365291D01*
X134937234Y-60365290D01*
X134937233Y-60365289D01*
X134821240Y-60290746D01*
X134688943Y-60251900D01*
X134688942Y-60251900D01*
X134551058Y-60251900D01*
X134551057Y-60251900D01*
X134418759Y-60290746D01*
X134302766Y-60365289D01*
X134212471Y-60469496D01*
X134155191Y-60594922D01*
X134135568Y-60731400D01*
X134155191Y-60867877D01*
X134155191Y-60867878D01*
X134155192Y-60867880D01*
X134174109Y-60909302D01*
X134215451Y-60999829D01*
X134225554Y-61070103D01*
X134196061Y-61134684D01*
X134184391Y-61146483D01*
X134105095Y-61216733D01*
X134014806Y-61347539D01*
X133958444Y-61496153D01*
X133947185Y-61588887D01*
X133919118Y-61654101D01*
X133860250Y-61693787D01*
X133822104Y-61699700D01*
X133738257Y-61699700D01*
X133605959Y-61738546D01*
X133489966Y-61813089D01*
X133399671Y-61917296D01*
X133342391Y-62042722D01*
X133322768Y-62179200D01*
X116796872Y-62179200D01*
X116843288Y-62117735D01*
X116934528Y-61934501D01*
X116990545Y-61737621D01*
X117009432Y-61533800D01*
X117005943Y-61496153D01*
X116992172Y-61347539D01*
X116990545Y-61329979D01*
X116934528Y-61133099D01*
X116933004Y-61130039D01*
X116843289Y-60949866D01*
X116798580Y-60890662D01*
X116719932Y-60786515D01*
X116568662Y-60648614D01*
X116511026Y-60612927D01*
X116394628Y-60540856D01*
X116278722Y-60495954D01*
X116203756Y-60466912D01*
X116002547Y-60429300D01*
X115797853Y-60429300D01*
X115668607Y-60453460D01*
X115596644Y-60466912D01*
X115405771Y-60540856D01*
X115231739Y-60648613D01*
X115180560Y-60695269D01*
X115085769Y-60781683D01*
X115080467Y-60786516D01*
X114957110Y-60949866D01*
X114865872Y-61133097D01*
X114809854Y-61329980D01*
X114790967Y-61533799D01*
X113860200Y-61533799D01*
X113860200Y-61461911D01*
X113829924Y-61358800D01*
X114398045Y-61358800D01*
X114398045Y-61358799D01*
X114395008Y-61327963D01*
X114334968Y-61130039D01*
X114237468Y-60947627D01*
X114106255Y-60787744D01*
X113946372Y-60656531D01*
X113763964Y-60559033D01*
X113566033Y-60498992D01*
X113535200Y-60495954D01*
X113535200Y-61064046D01*
X113502515Y-61049120D01*
X113395963Y-61033800D01*
X113324437Y-61033800D01*
X113217885Y-61049120D01*
X113185200Y-61064046D01*
X113185200Y-60495954D01*
X113154366Y-60498992D01*
X112956435Y-60559033D01*
X112774027Y-60656531D01*
X112614144Y-60787744D01*
X112482931Y-60947627D01*
X112385431Y-61130039D01*
X112325391Y-61327963D01*
X112322354Y-61358799D01*
X112322355Y-61358800D01*
X112890476Y-61358800D01*
X112860200Y-61461911D01*
X112860200Y-61605689D01*
X112890476Y-61708800D01*
X112322355Y-61708800D01*
X112325391Y-61739636D01*
X112385431Y-61937559D01*
X112405633Y-61975355D01*
X112420105Y-62044861D01*
X112394701Y-62111157D01*
X112337488Y-62153195D01*
X112324667Y-62157089D01*
X112262806Y-62172337D01*
X112122072Y-62246200D01*
X112003100Y-62351600D01*
X111930091Y-62457371D01*
X111874933Y-62502070D01*
X111804364Y-62509853D01*
X111740790Y-62478247D01*
X111704396Y-62417289D01*
X111700397Y-62385801D01*
X111700397Y-60223400D01*
X118263493Y-60223400D01*
X118282650Y-60381180D01*
X118339012Y-60529794D01*
X118427560Y-60658077D01*
X118429302Y-60660601D01*
X118548271Y-60765999D01*
X118689007Y-60839863D01*
X118843329Y-60877900D01*
X118843331Y-60877900D01*
X119002269Y-60877900D01*
X119002271Y-60877900D01*
X119156593Y-60839863D01*
X119297329Y-60765999D01*
X119393724Y-60680600D01*
X125654893Y-60680600D01*
X125674050Y-60838380D01*
X125730412Y-60986994D01*
X125795727Y-61081618D01*
X125820702Y-61117801D01*
X125939671Y-61223199D01*
X126080407Y-61297063D01*
X126234729Y-61335100D01*
X126234731Y-61335100D01*
X126393669Y-61335100D01*
X126393671Y-61335100D01*
X126547993Y-61297063D01*
X126688729Y-61223199D01*
X126807698Y-61117801D01*
X126897987Y-60986995D01*
X126954349Y-60838382D01*
X126973507Y-60680600D01*
X126954349Y-60522818D01*
X126897987Y-60374205D01*
X126807698Y-60243399D01*
X126688729Y-60138001D01*
X126582243Y-60082113D01*
X126547995Y-60064138D01*
X126547994Y-60064137D01*
X126547993Y-60064137D01*
X126393671Y-60026100D01*
X126234729Y-60026100D01*
X126080407Y-60064137D01*
X126080406Y-60064137D01*
X126080404Y-60064138D01*
X125939672Y-60138000D01*
X125820701Y-60243399D01*
X125730412Y-60374205D01*
X125674050Y-60522819D01*
X125654893Y-60680600D01*
X119393724Y-60680600D01*
X119416298Y-60660601D01*
X119506587Y-60529795D01*
X119562949Y-60381182D01*
X119582107Y-60223400D01*
X119562949Y-60065618D01*
X119506587Y-59917005D01*
X119416298Y-59786199D01*
X119297329Y-59680801D01*
X119156593Y-59606937D01*
X119002271Y-59568900D01*
X118843329Y-59568900D01*
X118689007Y-59606937D01*
X118689006Y-59606937D01*
X118689004Y-59606938D01*
X118548272Y-59680800D01*
X118429301Y-59786199D01*
X118339012Y-59917005D01*
X118282650Y-60065619D01*
X118263493Y-60223400D01*
X111700397Y-60223400D01*
X111700397Y-59868868D01*
X112255700Y-59868868D01*
X112270465Y-59943100D01*
X112326715Y-60027284D01*
X112369060Y-60055578D01*
X112410899Y-60083534D01*
X112485133Y-60098300D01*
X114235266Y-60098299D01*
X114235268Y-60098299D01*
X114284755Y-60088455D01*
X114309501Y-60083534D01*
X114393684Y-60027284D01*
X114449934Y-59943101D01*
X114464700Y-59868867D01*
X114464699Y-58993799D01*
X114790967Y-58993799D01*
X114809854Y-59197619D01*
X114865872Y-59394502D01*
X114957110Y-59577733D01*
X115004600Y-59640620D01*
X115080468Y-59741085D01*
X115231738Y-59878986D01*
X115329173Y-59939315D01*
X115399698Y-59982983D01*
X115405773Y-59986744D01*
X115596644Y-60060688D01*
X115797853Y-60098300D01*
X115797855Y-60098300D01*
X116002545Y-60098300D01*
X116002547Y-60098300D01*
X116203756Y-60060688D01*
X116394627Y-59986744D01*
X116568662Y-59878986D01*
X116719932Y-59741085D01*
X116843288Y-59577735D01*
X116934528Y-59394501D01*
X116966082Y-59283600D01*
X134697293Y-59283600D01*
X134716450Y-59441380D01*
X134772812Y-59589994D01*
X134831005Y-59674300D01*
X134863102Y-59720801D01*
X134982071Y-59826199D01*
X135122807Y-59900063D01*
X135277129Y-59938100D01*
X135277131Y-59938100D01*
X135436069Y-59938100D01*
X135436071Y-59938100D01*
X135590393Y-59900063D01*
X135731129Y-59826199D01*
X135850098Y-59720801D01*
X135940387Y-59589995D01*
X135996749Y-59441382D01*
X136015907Y-59283600D01*
X135996749Y-59125818D01*
X135940387Y-58977205D01*
X135850098Y-58846399D01*
X135731129Y-58741001D01*
X135590393Y-58667137D01*
X135436071Y-58629100D01*
X135277129Y-58629100D01*
X135122807Y-58667137D01*
X135122806Y-58667137D01*
X135122804Y-58667138D01*
X134982072Y-58741000D01*
X134863101Y-58846399D01*
X134772812Y-58977205D01*
X134716450Y-59125819D01*
X134697293Y-59283600D01*
X116966082Y-59283600D01*
X116990545Y-59197621D01*
X117009432Y-58993800D01*
X117008261Y-58981168D01*
X116990545Y-58789980D01*
X116978274Y-58746851D01*
X116934528Y-58593099D01*
X116874781Y-58473111D01*
X116843289Y-58409866D01*
X116808124Y-58363300D01*
X116719932Y-58246515D01*
X116568662Y-58108614D01*
X116465113Y-58044499D01*
X116394628Y-58000856D01*
X116289979Y-57960315D01*
X116203756Y-57926912D01*
X116002547Y-57889300D01*
X115797853Y-57889300D01*
X115596643Y-57926912D01*
X115596644Y-57926912D01*
X115405771Y-58000856D01*
X115231739Y-58108613D01*
X115080467Y-58246516D01*
X114957110Y-58409866D01*
X114865872Y-58593097D01*
X114809854Y-58789980D01*
X114790967Y-58993799D01*
X114464699Y-58993799D01*
X114464699Y-58118734D01*
X114464699Y-58118733D01*
X114464699Y-58118731D01*
X114449934Y-58044499D01*
X114393684Y-57960315D01*
X114309501Y-57904066D01*
X114309496Y-57904065D01*
X114235267Y-57889300D01*
X114235266Y-57889300D01*
X113702964Y-57889300D01*
X113634843Y-57869298D01*
X113605816Y-57835799D01*
X129261693Y-57835799D01*
X129280850Y-57993580D01*
X129337212Y-58142194D01*
X129409221Y-58246516D01*
X129427502Y-58273001D01*
X129546471Y-58378399D01*
X129687207Y-58452263D01*
X129841529Y-58490300D01*
X129841531Y-58490300D01*
X130000469Y-58490300D01*
X130000471Y-58490300D01*
X130154793Y-58452263D01*
X130295529Y-58378399D01*
X130414498Y-58273001D01*
X130504787Y-58142195D01*
X130561149Y-57993582D01*
X130580307Y-57835800D01*
X130561149Y-57678018D01*
X130504787Y-57529405D01*
X130414498Y-57398599D01*
X130295529Y-57293201D01*
X130154793Y-57219337D01*
X130000471Y-57181300D01*
X129841529Y-57181300D01*
X129687207Y-57219337D01*
X129687206Y-57219337D01*
X129687204Y-57219338D01*
X129546472Y-57293200D01*
X129427501Y-57398599D01*
X129337212Y-57529405D01*
X129280850Y-57678019D01*
X129261693Y-57835799D01*
X113605816Y-57835799D01*
X113588350Y-57815642D01*
X113578246Y-57745368D01*
X113607740Y-57680788D01*
X113644403Y-57651736D01*
X113760129Y-57590999D01*
X113879098Y-57485601D01*
X113969387Y-57354795D01*
X114025749Y-57206182D01*
X114044907Y-57048400D01*
X114044906Y-57048395D01*
X114046284Y-57037050D01*
X114074350Y-56971837D01*
X114133219Y-56932150D01*
X114204198Y-56930590D01*
X114236326Y-56944274D01*
X114276773Y-56968611D01*
X114276783Y-56968616D01*
X114279706Y-56970375D01*
X114619680Y-57127664D01*
X114974666Y-57247273D01*
X114977997Y-57248006D01*
X114978000Y-57248007D01*
X115018766Y-57256980D01*
X115340503Y-57327799D01*
X115712902Y-57368300D01*
X115716317Y-57368300D01*
X116084083Y-57368300D01*
X116087498Y-57368300D01*
X116459897Y-57327799D01*
X116825734Y-57247273D01*
X117180720Y-57127664D01*
X117242244Y-57099200D01*
X119304893Y-57099200D01*
X119324050Y-57256980D01*
X119380412Y-57405594D01*
X119435637Y-57485600D01*
X119470702Y-57536401D01*
X119589671Y-57641799D01*
X119730407Y-57715663D01*
X119884729Y-57753700D01*
X119884731Y-57753700D01*
X120043669Y-57753700D01*
X120043671Y-57753700D01*
X120197993Y-57715663D01*
X120338729Y-57641799D01*
X120457698Y-57536401D01*
X120547987Y-57405595D01*
X120604349Y-57256982D01*
X120623507Y-57099200D01*
X120604349Y-56941418D01*
X120547987Y-56792805D01*
X120531555Y-56768999D01*
X126391493Y-56768999D01*
X126410650Y-56926780D01*
X126467012Y-57075394D01*
X126557288Y-57206180D01*
X126557302Y-57206201D01*
X126676271Y-57311599D01*
X126817007Y-57385463D01*
X126971329Y-57423500D01*
X126971331Y-57423500D01*
X127130269Y-57423500D01*
X127130271Y-57423500D01*
X127284593Y-57385463D01*
X127425329Y-57311599D01*
X127544298Y-57206201D01*
X127634587Y-57075395D01*
X127690949Y-56926782D01*
X127710107Y-56769000D01*
X127690949Y-56611218D01*
X127634587Y-56462605D01*
X127544298Y-56331799D01*
X127425329Y-56226401D01*
X127284593Y-56152537D01*
X127130271Y-56114500D01*
X126971329Y-56114500D01*
X126817007Y-56152537D01*
X126817006Y-56152537D01*
X126817004Y-56152538D01*
X126676272Y-56226400D01*
X126557301Y-56331799D01*
X126467012Y-56462605D01*
X126410650Y-56611219D01*
X126391493Y-56768999D01*
X120531555Y-56768999D01*
X120457698Y-56661999D01*
X120338729Y-56556601D01*
X120197993Y-56482737D01*
X120043671Y-56444700D01*
X119884729Y-56444700D01*
X119730407Y-56482737D01*
X119730406Y-56482737D01*
X119730404Y-56482738D01*
X119589672Y-56556600D01*
X119470701Y-56661999D01*
X119380412Y-56792805D01*
X119324050Y-56941419D01*
X119304893Y-57099200D01*
X117242244Y-57099200D01*
X117520694Y-56970375D01*
X117841668Y-56777251D01*
X118139881Y-56550556D01*
X118411835Y-56292947D01*
X118654343Y-56007445D01*
X118864561Y-55697397D01*
X119040024Y-55366437D01*
X119178676Y-55018447D01*
X119278891Y-54657506D01*
X119339494Y-54287846D01*
X119359774Y-53913800D01*
X119339494Y-53539754D01*
X119302582Y-53314600D01*
X122886293Y-53314600D01*
X122905450Y-53472380D01*
X122961812Y-53620994D01*
X123044711Y-53741093D01*
X123052102Y-53751801D01*
X123171071Y-53857199D01*
X123311807Y-53931063D01*
X123466129Y-53969100D01*
X123466131Y-53969100D01*
X123625069Y-53969100D01*
X123625071Y-53969100D01*
X123779393Y-53931063D01*
X123920129Y-53857199D01*
X124039098Y-53751801D01*
X124129387Y-53620995D01*
X124185749Y-53472382D01*
X124204907Y-53314600D01*
X124185749Y-53156818D01*
X124129387Y-53008205D01*
X124039098Y-52877399D01*
X123920129Y-52772001D01*
X123779393Y-52698137D01*
X123625071Y-52660100D01*
X123466129Y-52660100D01*
X123311807Y-52698137D01*
X123311806Y-52698137D01*
X123311804Y-52698138D01*
X123171072Y-52772000D01*
X123052101Y-52877399D01*
X122961812Y-53008205D01*
X122905450Y-53156819D01*
X122886293Y-53314600D01*
X119302582Y-53314600D01*
X119278891Y-53170094D01*
X119178676Y-52809153D01*
X119040024Y-52461163D01*
X118982494Y-52352650D01*
X118866157Y-52133213D01*
X118866155Y-52133210D01*
X118864561Y-52130203D01*
X118654343Y-51820155D01*
X118411835Y-51534653D01*
X118409364Y-51532312D01*
X118409359Y-51532307D01*
X118142364Y-51279396D01*
X118142363Y-51279395D01*
X118139881Y-51277044D01*
X118092464Y-51240999D01*
X117844391Y-51052419D01*
X117841668Y-51050349D01*
X117793280Y-51021235D01*
X117725650Y-50980543D01*
X117552231Y-50876200D01*
X119279493Y-50876200D01*
X119298650Y-51033980D01*
X119355012Y-51182594D01*
X119420207Y-51277044D01*
X119445302Y-51313401D01*
X119564271Y-51418799D01*
X119705007Y-51492663D01*
X119859329Y-51530700D01*
X119859331Y-51530700D01*
X120018269Y-51530700D01*
X120018271Y-51530700D01*
X120172593Y-51492663D01*
X120313329Y-51418799D01*
X120432298Y-51313401D01*
X120522587Y-51182595D01*
X120578949Y-51033982D01*
X120598107Y-50876200D01*
X120578949Y-50718418D01*
X120522587Y-50569805D01*
X120432298Y-50438999D01*
X120313329Y-50333601D01*
X120212946Y-50280916D01*
X120172595Y-50259738D01*
X120172594Y-50259737D01*
X120172593Y-50259737D01*
X120018271Y-50221700D01*
X119859329Y-50221700D01*
X119705007Y-50259737D01*
X119705006Y-50259737D01*
X119705004Y-50259738D01*
X119564272Y-50333600D01*
X119445301Y-50438999D01*
X119355012Y-50569805D01*
X119298650Y-50718419D01*
X119279493Y-50876200D01*
X117552231Y-50876200D01*
X117520694Y-50857225D01*
X117517595Y-50855791D01*
X117517589Y-50855788D01*
X117183818Y-50701369D01*
X117183813Y-50701367D01*
X117180720Y-50699936D01*
X117177491Y-50698848D01*
X117177486Y-50698846D01*
X116828970Y-50581417D01*
X116828964Y-50581415D01*
X116825734Y-50580327D01*
X116822414Y-50579596D01*
X116822399Y-50579592D01*
X116463228Y-50500534D01*
X116463224Y-50500533D01*
X116459897Y-50499801D01*
X116412783Y-50494677D01*
X116090896Y-50459669D01*
X116090885Y-50459668D01*
X116087498Y-50459300D01*
X115712902Y-50459300D01*
X115709515Y-50459668D01*
X115709503Y-50459669D01*
X115343895Y-50499432D01*
X115343893Y-50499432D01*
X115340503Y-50499801D01*
X115337178Y-50500532D01*
X115337171Y-50500534D01*
X114978000Y-50579592D01*
X114977980Y-50579597D01*
X114974666Y-50580327D01*
X114971440Y-50581413D01*
X114971429Y-50581417D01*
X114622913Y-50698846D01*
X114622902Y-50698850D01*
X114619680Y-50699936D01*
X114616592Y-50701364D01*
X114616581Y-50701369D01*
X114282810Y-50855788D01*
X114282796Y-50855795D01*
X114279706Y-50857225D01*
X114276780Y-50858985D01*
X114276779Y-50858986D01*
X113961664Y-51048584D01*
X113961652Y-51048591D01*
X113958732Y-51050349D01*
X113956016Y-51052413D01*
X113956008Y-51052419D01*
X113663237Y-51274977D01*
X113663227Y-51274984D01*
X113660519Y-51277044D01*
X113658044Y-51279387D01*
X113658035Y-51279396D01*
X113391040Y-51532307D01*
X113391025Y-51532322D01*
X113388565Y-51534653D01*
X113386370Y-51537237D01*
X113386359Y-51537249D01*
X113148270Y-51817549D01*
X113148265Y-51817555D01*
X113146057Y-51820155D01*
X113144146Y-51822972D01*
X113144141Y-51822980D01*
X112937750Y-52127383D01*
X112937742Y-52127396D01*
X112935839Y-52130203D01*
X112934252Y-52133196D01*
X112934242Y-52133213D01*
X112761970Y-52458154D01*
X112761961Y-52458172D01*
X112760376Y-52461163D01*
X112759115Y-52464327D01*
X112759114Y-52464330D01*
X112622986Y-52805983D01*
X112622980Y-52805999D01*
X112621724Y-52809153D01*
X112620814Y-52812428D01*
X112620811Y-52812439D01*
X112522423Y-53166799D01*
X112522419Y-53166813D01*
X112521509Y-53170094D01*
X112520959Y-53173448D01*
X112520955Y-53173467D01*
X112461459Y-53536376D01*
X112461457Y-53536390D01*
X112460906Y-53539754D01*
X112460721Y-53543161D01*
X112460720Y-53543173D01*
X112440811Y-53910387D01*
X112440626Y-53913800D01*
X112440811Y-53917212D01*
X112460720Y-54284426D01*
X112460721Y-54284436D01*
X112460906Y-54287846D01*
X112461457Y-54291211D01*
X112461459Y-54291223D01*
X112520955Y-54654132D01*
X112520958Y-54654147D01*
X112521509Y-54657506D01*
X112522420Y-54660789D01*
X112522423Y-54660800D01*
X112541026Y-54727800D01*
X112621724Y-55018447D01*
X112622982Y-55021605D01*
X112622986Y-55021616D01*
X112721398Y-55268610D01*
X112760376Y-55366437D01*
X112761964Y-55369434D01*
X112761970Y-55369445D01*
X112934242Y-55694386D01*
X112934247Y-55694395D01*
X112935839Y-55697397D01*
X112937747Y-55700211D01*
X112937750Y-55700216D01*
X112942757Y-55707601D01*
X113146057Y-56007445D01*
X113148270Y-56010050D01*
X113313385Y-56204439D01*
X113342241Y-56269308D01*
X113331446Y-56339479D01*
X113284426Y-56392674D01*
X113247508Y-56408348D01*
X113151807Y-56431936D01*
X113011072Y-56505800D01*
X112892101Y-56611199D01*
X112801812Y-56742005D01*
X112745450Y-56890619D01*
X112726293Y-57048400D01*
X112745450Y-57206180D01*
X112801812Y-57354794D01*
X112849237Y-57423500D01*
X112892102Y-57485601D01*
X113011071Y-57590999D01*
X113126794Y-57651735D01*
X113177813Y-57701100D01*
X113194046Y-57770216D01*
X113170335Y-57837136D01*
X113114208Y-57880614D01*
X113068236Y-57889300D01*
X112485131Y-57889300D01*
X112410899Y-57904065D01*
X112326715Y-57960315D01*
X112270466Y-58044498D01*
X112255700Y-58118733D01*
X112255700Y-59868868D01*
X111700397Y-59868868D01*
X111700397Y-53916675D01*
X111700528Y-53910945D01*
X111708391Y-53740874D01*
X111717441Y-53556669D01*
X111717893Y-53550535D01*
X111724764Y-53480770D01*
X111725349Y-53475845D01*
X111746387Y-53325028D01*
X111753067Y-53280000D01*
X111772592Y-53148372D01*
X111773644Y-53142316D01*
X111783055Y-53095001D01*
X111783937Y-53090936D01*
X111822031Y-52928970D01*
X111867495Y-52747474D01*
X111869127Y-52741578D01*
X111875621Y-52720169D01*
X111876663Y-52716905D01*
X111934220Y-52545179D01*
X111935027Y-52542849D01*
X112000059Y-52361096D01*
X112003423Y-52352665D01*
X112082539Y-52173487D01*
X112083848Y-52170624D01*
X112166041Y-51996840D01*
X112169843Y-51989447D01*
X112265377Y-51817932D01*
X112267322Y-51814566D01*
X112365926Y-51650056D01*
X112370022Y-51643669D01*
X112481126Y-51481476D01*
X112483812Y-51477711D01*
X112597909Y-51323869D01*
X112602141Y-51318477D01*
X112727790Y-51167164D01*
X112731346Y-51163067D01*
X112831631Y-51052419D01*
X112859894Y-51021235D01*
X112864099Y-51016819D01*
X113003219Y-50877699D01*
X113007635Y-50873494D01*
X113149467Y-50744946D01*
X113153564Y-50741390D01*
X113304877Y-50615741D01*
X113310281Y-50611500D01*
X113390642Y-50551900D01*
X113464118Y-50497405D01*
X113467875Y-50494727D01*
X113630069Y-50383622D01*
X113636461Y-50379523D01*
X113800975Y-50280916D01*
X113804331Y-50278977D01*
X113975847Y-50183443D01*
X113983245Y-50179639D01*
X114157035Y-50097442D01*
X114159885Y-50096139D01*
X114339065Y-50017023D01*
X114347496Y-50013659D01*
X114461214Y-49972970D01*
X114529283Y-49948615D01*
X114531578Y-49947820D01*
X114703304Y-49890263D01*
X114706558Y-49889225D01*
X114727982Y-49882725D01*
X114733909Y-49881086D01*
X114814629Y-49860866D01*
X114915353Y-49835635D01*
X115077331Y-49797538D01*
X115081397Y-49796656D01*
X115128750Y-49787237D01*
X115134786Y-49786190D01*
X115311458Y-49759983D01*
X115462233Y-49738951D01*
X115467155Y-49738366D01*
X115536935Y-49731493D01*
X115543065Y-49731041D01*
X115727201Y-49721995D01*
X115897301Y-49714131D01*
X115903120Y-49713997D01*
X131674600Y-49713997D01*
X131742721Y-49733999D01*
G37*
%TD.AperFunction*%
%TD*%
%TA.AperFunction,Conductor*%
%TO.N,+5V*%
G36*
X140277121Y-92145802D02*
G01*
X140323614Y-92199458D01*
X140335000Y-92251800D01*
X140335000Y-95251000D01*
X140314998Y-95319121D01*
X140261342Y-95365614D01*
X140209000Y-95377000D01*
X135736600Y-95377000D01*
X135668479Y-95356998D01*
X135621986Y-95303342D01*
X135610600Y-95251000D01*
X135610600Y-92251800D01*
X135630602Y-92183679D01*
X135684258Y-92137186D01*
X135736600Y-92125800D01*
X140209000Y-92125800D01*
X140277121Y-92145802D01*
G37*
%TD.AperFunction*%
%TD*%
%TA.AperFunction,Conductor*%
%TO.N,+5V*%
G36*
X144874521Y-58871802D02*
G01*
X144921014Y-58925458D01*
X144932400Y-58977800D01*
X144932400Y-60503800D01*
X144912398Y-60571921D01*
X144858742Y-60618414D01*
X144806400Y-60629800D01*
X142696200Y-60629800D01*
X142628079Y-60609798D01*
X142581586Y-60556142D01*
X142570200Y-60503800D01*
X142570200Y-58977800D01*
X142590202Y-58909679D01*
X142643858Y-58863186D01*
X142696200Y-58851800D01*
X144806400Y-58851800D01*
X144874521Y-58871802D01*
G37*
%TD.AperFunction*%
%TD*%
M02*
