%TF.GenerationSoftware,KiCad,Pcbnew,7.0.2-6a45011f42~172~ubuntu20.04.1*%
%TF.CreationDate,2023-04-23T14:30:36+07:00*%
%TF.ProjectId,EZ-USB-100X,455a2d55-5342-42d3-9130-30582e6b6963,rev?*%
%TF.SameCoordinates,Original*%
%TF.FileFunction,Legend,Top*%
%TF.FilePolarity,Positive*%
%FSLAX46Y46*%
G04 Gerber Fmt 4.6, Leading zero omitted, Abs format (unit mm)*
G04 Created by KiCad (PCBNEW 7.0.2-6a45011f42~172~ubuntu20.04.1) date 2023-04-23 14:30:36*
%MOMM*%
%LPD*%
G01*
G04 APERTURE LIST*
%ADD10C,0.150000*%
%ADD11C,0.300000*%
%ADD12C,0.120000*%
G04 APERTURE END LIST*
D10*
X117862390Y-84355247D02*
X117976676Y-84393342D01*
X117976676Y-84393342D02*
X118014771Y-84431438D01*
X118014771Y-84431438D02*
X118052867Y-84507628D01*
X118052867Y-84507628D02*
X118052867Y-84621914D01*
X118052867Y-84621914D02*
X118014771Y-84698104D01*
X118014771Y-84698104D02*
X117976676Y-84736200D01*
X117976676Y-84736200D02*
X117900486Y-84774295D01*
X117900486Y-84774295D02*
X117595724Y-84774295D01*
X117595724Y-84774295D02*
X117595724Y-83974295D01*
X117595724Y-83974295D02*
X117862390Y-83974295D01*
X117862390Y-83974295D02*
X117938581Y-84012390D01*
X117938581Y-84012390D02*
X117976676Y-84050485D01*
X117976676Y-84050485D02*
X118014771Y-84126676D01*
X118014771Y-84126676D02*
X118014771Y-84202866D01*
X118014771Y-84202866D02*
X117976676Y-84279057D01*
X117976676Y-84279057D02*
X117938581Y-84317152D01*
X117938581Y-84317152D02*
X117862390Y-84355247D01*
X117862390Y-84355247D02*
X117595724Y-84355247D01*
X118319533Y-83974295D02*
X118852867Y-83974295D01*
X118852867Y-83974295D02*
X118510009Y-84774295D01*
X117995772Y-94858104D02*
X117957676Y-94896200D01*
X117957676Y-94896200D02*
X117843391Y-94934295D01*
X117843391Y-94934295D02*
X117767200Y-94934295D01*
X117767200Y-94934295D02*
X117652914Y-94896200D01*
X117652914Y-94896200D02*
X117576724Y-94820009D01*
X117576724Y-94820009D02*
X117538629Y-94743819D01*
X117538629Y-94743819D02*
X117500533Y-94591438D01*
X117500533Y-94591438D02*
X117500533Y-94477152D01*
X117500533Y-94477152D02*
X117538629Y-94324771D01*
X117538629Y-94324771D02*
X117576724Y-94248580D01*
X117576724Y-94248580D02*
X117652914Y-94172390D01*
X117652914Y-94172390D02*
X117767200Y-94134295D01*
X117767200Y-94134295D02*
X117843391Y-94134295D01*
X117843391Y-94134295D02*
X117957676Y-94172390D01*
X117957676Y-94172390D02*
X117995772Y-94210485D01*
X118491010Y-94134295D02*
X118567200Y-94134295D01*
X118567200Y-94134295D02*
X118643391Y-94172390D01*
X118643391Y-94172390D02*
X118681486Y-94210485D01*
X118681486Y-94210485D02*
X118719581Y-94286676D01*
X118719581Y-94286676D02*
X118757676Y-94439057D01*
X118757676Y-94439057D02*
X118757676Y-94629533D01*
X118757676Y-94629533D02*
X118719581Y-94781914D01*
X118719581Y-94781914D02*
X118681486Y-94858104D01*
X118681486Y-94858104D02*
X118643391Y-94896200D01*
X118643391Y-94896200D02*
X118567200Y-94934295D01*
X118567200Y-94934295D02*
X118491010Y-94934295D01*
X118491010Y-94934295D02*
X118414819Y-94896200D01*
X118414819Y-94896200D02*
X118376724Y-94858104D01*
X118376724Y-94858104D02*
X118338629Y-94781914D01*
X118338629Y-94781914D02*
X118300533Y-94629533D01*
X118300533Y-94629533D02*
X118300533Y-94439057D01*
X118300533Y-94439057D02*
X118338629Y-94286676D01*
X118338629Y-94286676D02*
X118376724Y-94210485D01*
X118376724Y-94210485D02*
X118414819Y-94172390D01*
X118414819Y-94172390D02*
X118491010Y-94134295D01*
X119741990Y-84355247D02*
X119856276Y-84393342D01*
X119856276Y-84393342D02*
X119894371Y-84431438D01*
X119894371Y-84431438D02*
X119932467Y-84507628D01*
X119932467Y-84507628D02*
X119932467Y-84621914D01*
X119932467Y-84621914D02*
X119894371Y-84698104D01*
X119894371Y-84698104D02*
X119856276Y-84736200D01*
X119856276Y-84736200D02*
X119780086Y-84774295D01*
X119780086Y-84774295D02*
X119475324Y-84774295D01*
X119475324Y-84774295D02*
X119475324Y-83974295D01*
X119475324Y-83974295D02*
X119741990Y-83974295D01*
X119741990Y-83974295D02*
X119818181Y-84012390D01*
X119818181Y-84012390D02*
X119856276Y-84050485D01*
X119856276Y-84050485D02*
X119894371Y-84126676D01*
X119894371Y-84126676D02*
X119894371Y-84202866D01*
X119894371Y-84202866D02*
X119856276Y-84279057D01*
X119856276Y-84279057D02*
X119818181Y-84317152D01*
X119818181Y-84317152D02*
X119741990Y-84355247D01*
X119741990Y-84355247D02*
X119475324Y-84355247D01*
X120618181Y-83974295D02*
X120465800Y-83974295D01*
X120465800Y-83974295D02*
X120389609Y-84012390D01*
X120389609Y-84012390D02*
X120351514Y-84050485D01*
X120351514Y-84050485D02*
X120275324Y-84164771D01*
X120275324Y-84164771D02*
X120237228Y-84317152D01*
X120237228Y-84317152D02*
X120237228Y-84621914D01*
X120237228Y-84621914D02*
X120275324Y-84698104D01*
X120275324Y-84698104D02*
X120313419Y-84736200D01*
X120313419Y-84736200D02*
X120389609Y-84774295D01*
X120389609Y-84774295D02*
X120541990Y-84774295D01*
X120541990Y-84774295D02*
X120618181Y-84736200D01*
X120618181Y-84736200D02*
X120656276Y-84698104D01*
X120656276Y-84698104D02*
X120694371Y-84621914D01*
X120694371Y-84621914D02*
X120694371Y-84431438D01*
X120694371Y-84431438D02*
X120656276Y-84355247D01*
X120656276Y-84355247D02*
X120618181Y-84317152D01*
X120618181Y-84317152D02*
X120541990Y-84279057D01*
X120541990Y-84279057D02*
X120389609Y-84279057D01*
X120389609Y-84279057D02*
X120313419Y-84317152D01*
X120313419Y-84317152D02*
X120275324Y-84355247D01*
X120275324Y-84355247D02*
X120237228Y-84431438D01*
X117462438Y-61114295D02*
X117957676Y-61114295D01*
X117957676Y-61114295D02*
X117691010Y-61419057D01*
X117691010Y-61419057D02*
X117805295Y-61419057D01*
X117805295Y-61419057D02*
X117881486Y-61457152D01*
X117881486Y-61457152D02*
X117919581Y-61495247D01*
X117919581Y-61495247D02*
X117957676Y-61571438D01*
X117957676Y-61571438D02*
X117957676Y-61761914D01*
X117957676Y-61761914D02*
X117919581Y-61838104D01*
X117919581Y-61838104D02*
X117881486Y-61876200D01*
X117881486Y-61876200D02*
X117805295Y-61914295D01*
X117805295Y-61914295D02*
X117576724Y-61914295D01*
X117576724Y-61914295D02*
X117500533Y-61876200D01*
X117500533Y-61876200D02*
X117462438Y-61838104D01*
X118186248Y-61114295D02*
X118452915Y-61914295D01*
X118452915Y-61914295D02*
X118719581Y-61114295D01*
X118910057Y-61114295D02*
X119405295Y-61114295D01*
X119405295Y-61114295D02*
X119138629Y-61419057D01*
X119138629Y-61419057D02*
X119252914Y-61419057D01*
X119252914Y-61419057D02*
X119329105Y-61457152D01*
X119329105Y-61457152D02*
X119367200Y-61495247D01*
X119367200Y-61495247D02*
X119405295Y-61571438D01*
X119405295Y-61571438D02*
X119405295Y-61761914D01*
X119405295Y-61761914D02*
X119367200Y-61838104D01*
X119367200Y-61838104D02*
X119329105Y-61876200D01*
X119329105Y-61876200D02*
X119252914Y-61914295D01*
X119252914Y-61914295D02*
X119024343Y-61914295D01*
X119024343Y-61914295D02*
X118948152Y-61876200D01*
X118948152Y-61876200D02*
X118910057Y-61838104D01*
X117805295Y-71655247D02*
X117919581Y-71693342D01*
X117919581Y-71693342D02*
X117957676Y-71731438D01*
X117957676Y-71731438D02*
X117995772Y-71807628D01*
X117995772Y-71807628D02*
X117995772Y-71921914D01*
X117995772Y-71921914D02*
X117957676Y-71998104D01*
X117957676Y-71998104D02*
X117919581Y-72036200D01*
X117919581Y-72036200D02*
X117843391Y-72074295D01*
X117843391Y-72074295D02*
X117538629Y-72074295D01*
X117538629Y-72074295D02*
X117538629Y-71274295D01*
X117538629Y-71274295D02*
X117805295Y-71274295D01*
X117805295Y-71274295D02*
X117881486Y-71312390D01*
X117881486Y-71312390D02*
X117919581Y-71350485D01*
X117919581Y-71350485D02*
X117957676Y-71426676D01*
X117957676Y-71426676D02*
X117957676Y-71502866D01*
X117957676Y-71502866D02*
X117919581Y-71579057D01*
X117919581Y-71579057D02*
X117881486Y-71617152D01*
X117881486Y-71617152D02*
X117805295Y-71655247D01*
X117805295Y-71655247D02*
X117538629Y-71655247D01*
X118757676Y-72074295D02*
X118300533Y-72074295D01*
X118529105Y-72074295D02*
X118529105Y-71274295D01*
X118529105Y-71274295D02*
X118452914Y-71388580D01*
X118452914Y-71388580D02*
X118376724Y-71464771D01*
X118376724Y-71464771D02*
X118300533Y-71502866D01*
X152755695Y-92292704D02*
X152717599Y-92330800D01*
X152717599Y-92330800D02*
X152603314Y-92368895D01*
X152603314Y-92368895D02*
X152527123Y-92368895D01*
X152527123Y-92368895D02*
X152412837Y-92330800D01*
X152412837Y-92330800D02*
X152336647Y-92254609D01*
X152336647Y-92254609D02*
X152298552Y-92178419D01*
X152298552Y-92178419D02*
X152260456Y-92026038D01*
X152260456Y-92026038D02*
X152260456Y-91911752D01*
X152260456Y-91911752D02*
X152298552Y-91759371D01*
X152298552Y-91759371D02*
X152336647Y-91683180D01*
X152336647Y-91683180D02*
X152412837Y-91606990D01*
X152412837Y-91606990D02*
X152527123Y-91568895D01*
X152527123Y-91568895D02*
X152603314Y-91568895D01*
X152603314Y-91568895D02*
X152717599Y-91606990D01*
X152717599Y-91606990D02*
X152755695Y-91645085D01*
X152984266Y-91568895D02*
X153441409Y-91568895D01*
X153212837Y-92368895D02*
X153212837Y-91568895D01*
X154089028Y-92368895D02*
X153708076Y-92368895D01*
X153708076Y-92368895D02*
X153708076Y-91568895D01*
X154736647Y-91568895D02*
X154355695Y-91568895D01*
X154355695Y-91568895D02*
X154317599Y-91949847D01*
X154317599Y-91949847D02*
X154355695Y-91911752D01*
X154355695Y-91911752D02*
X154431885Y-91873657D01*
X154431885Y-91873657D02*
X154622361Y-91873657D01*
X154622361Y-91873657D02*
X154698552Y-91911752D01*
X154698552Y-91911752D02*
X154736647Y-91949847D01*
X154736647Y-91949847D02*
X154774742Y-92026038D01*
X154774742Y-92026038D02*
X154774742Y-92216514D01*
X154774742Y-92216514D02*
X154736647Y-92292704D01*
X154736647Y-92292704D02*
X154698552Y-92330800D01*
X154698552Y-92330800D02*
X154622361Y-92368895D01*
X154622361Y-92368895D02*
X154431885Y-92368895D01*
X154431885Y-92368895D02*
X154355695Y-92330800D01*
X154355695Y-92330800D02*
X154317599Y-92292704D01*
X156286171Y-94705723D02*
X156667124Y-94705723D01*
X156209981Y-94934295D02*
X156476648Y-94134295D01*
X156476648Y-94134295D02*
X156743314Y-94934295D01*
X156933790Y-94134295D02*
X157467124Y-94134295D01*
X157467124Y-94134295D02*
X157124266Y-94934295D01*
X119513534Y-66994295D02*
X119513534Y-66194295D01*
X120161152Y-66575247D02*
X119894486Y-66575247D01*
X119894486Y-66994295D02*
X119894486Y-66194295D01*
X119894486Y-66194295D02*
X120275438Y-66194295D01*
X121037343Y-66918104D02*
X120999247Y-66956200D01*
X120999247Y-66956200D02*
X120884962Y-66994295D01*
X120884962Y-66994295D02*
X120808771Y-66994295D01*
X120808771Y-66994295D02*
X120694485Y-66956200D01*
X120694485Y-66956200D02*
X120618295Y-66880009D01*
X120618295Y-66880009D02*
X120580200Y-66803819D01*
X120580200Y-66803819D02*
X120542104Y-66651438D01*
X120542104Y-66651438D02*
X120542104Y-66537152D01*
X120542104Y-66537152D02*
X120580200Y-66384771D01*
X120580200Y-66384771D02*
X120618295Y-66308580D01*
X120618295Y-66308580D02*
X120694485Y-66232390D01*
X120694485Y-66232390D02*
X120808771Y-66194295D01*
X120808771Y-66194295D02*
X120884962Y-66194295D01*
X120884962Y-66194295D02*
X120999247Y-66232390D01*
X120999247Y-66232390D02*
X121037343Y-66270485D01*
X121761152Y-66994295D02*
X121380200Y-66994295D01*
X121380200Y-66994295D02*
X121380200Y-66194295D01*
X122027819Y-66994295D02*
X122027819Y-66194295D01*
X122484962Y-66994295D02*
X122142104Y-66537152D01*
X122484962Y-66194295D02*
X122027819Y-66651438D01*
X117424343Y-63654295D02*
X117881486Y-63654295D01*
X117652914Y-64454295D02*
X117652914Y-63654295D01*
X118300534Y-63654295D02*
X118376724Y-63654295D01*
X118376724Y-63654295D02*
X118452915Y-63692390D01*
X118452915Y-63692390D02*
X118491010Y-63730485D01*
X118491010Y-63730485D02*
X118529105Y-63806676D01*
X118529105Y-63806676D02*
X118567200Y-63959057D01*
X118567200Y-63959057D02*
X118567200Y-64149533D01*
X118567200Y-64149533D02*
X118529105Y-64301914D01*
X118529105Y-64301914D02*
X118491010Y-64378104D01*
X118491010Y-64378104D02*
X118452915Y-64416200D01*
X118452915Y-64416200D02*
X118376724Y-64454295D01*
X118376724Y-64454295D02*
X118300534Y-64454295D01*
X118300534Y-64454295D02*
X118224343Y-64416200D01*
X118224343Y-64416200D02*
X118186248Y-64378104D01*
X118186248Y-64378104D02*
X118148153Y-64301914D01*
X118148153Y-64301914D02*
X118110057Y-64149533D01*
X118110057Y-64149533D02*
X118110057Y-63959057D01*
X118110057Y-63959057D02*
X118148153Y-63806676D01*
X118148153Y-63806676D02*
X118186248Y-63730485D01*
X118186248Y-63730485D02*
X118224343Y-63692390D01*
X118224343Y-63692390D02*
X118300534Y-63654295D01*
X154273324Y-76735247D02*
X154539990Y-76735247D01*
X154654276Y-77154295D02*
X154273324Y-77154295D01*
X154273324Y-77154295D02*
X154273324Y-76354295D01*
X154273324Y-76354295D02*
X154654276Y-76354295D01*
X155339991Y-76620961D02*
X155339991Y-77154295D01*
X155149515Y-76316200D02*
X154959038Y-76887628D01*
X154959038Y-76887628D02*
X155454277Y-76887628D01*
X154273324Y-79275247D02*
X154539990Y-79275247D01*
X154654276Y-79694295D02*
X154273324Y-79694295D01*
X154273324Y-79694295D02*
X154273324Y-78894295D01*
X154273324Y-78894295D02*
X154654276Y-78894295D01*
X155339991Y-79160961D02*
X155339991Y-79694295D01*
X155149515Y-78856200D02*
X154959038Y-79427628D01*
X154959038Y-79427628D02*
X155454277Y-79427628D01*
X154273324Y-72074295D02*
X154273324Y-71274295D01*
X154273324Y-71274295D02*
X154463800Y-71274295D01*
X154463800Y-71274295D02*
X154578086Y-71312390D01*
X154578086Y-71312390D02*
X154654276Y-71388580D01*
X154654276Y-71388580D02*
X154692371Y-71464771D01*
X154692371Y-71464771D02*
X154730467Y-71617152D01*
X154730467Y-71617152D02*
X154730467Y-71731438D01*
X154730467Y-71731438D02*
X154692371Y-71883819D01*
X154692371Y-71883819D02*
X154654276Y-71960009D01*
X154654276Y-71960009D02*
X154578086Y-72036200D01*
X154578086Y-72036200D02*
X154463800Y-72074295D01*
X154463800Y-72074295D02*
X154273324Y-72074295D01*
X155416181Y-71274295D02*
X155263800Y-71274295D01*
X155263800Y-71274295D02*
X155187609Y-71312390D01*
X155187609Y-71312390D02*
X155149514Y-71350485D01*
X155149514Y-71350485D02*
X155073324Y-71464771D01*
X155073324Y-71464771D02*
X155035228Y-71617152D01*
X155035228Y-71617152D02*
X155035228Y-71921914D01*
X155035228Y-71921914D02*
X155073324Y-71998104D01*
X155073324Y-71998104D02*
X155111419Y-72036200D01*
X155111419Y-72036200D02*
X155187609Y-72074295D01*
X155187609Y-72074295D02*
X155339990Y-72074295D01*
X155339990Y-72074295D02*
X155416181Y-72036200D01*
X155416181Y-72036200D02*
X155454276Y-71998104D01*
X155454276Y-71998104D02*
X155492371Y-71921914D01*
X155492371Y-71921914D02*
X155492371Y-71731438D01*
X155492371Y-71731438D02*
X155454276Y-71655247D01*
X155454276Y-71655247D02*
X155416181Y-71617152D01*
X155416181Y-71617152D02*
X155339990Y-71579057D01*
X155339990Y-71579057D02*
X155187609Y-71579057D01*
X155187609Y-71579057D02*
X155111419Y-71617152D01*
X155111419Y-71617152D02*
X155073324Y-71655247D01*
X155073324Y-71655247D02*
X155035228Y-71731438D01*
X117995772Y-79694295D02*
X117729105Y-79313342D01*
X117538629Y-79694295D02*
X117538629Y-78894295D01*
X117538629Y-78894295D02*
X117843391Y-78894295D01*
X117843391Y-78894295D02*
X117919581Y-78932390D01*
X117919581Y-78932390D02*
X117957676Y-78970485D01*
X117957676Y-78970485D02*
X117995772Y-79046676D01*
X117995772Y-79046676D02*
X117995772Y-79160961D01*
X117995772Y-79160961D02*
X117957676Y-79237152D01*
X117957676Y-79237152D02*
X117919581Y-79275247D01*
X117919581Y-79275247D02*
X117843391Y-79313342D01*
X117843391Y-79313342D02*
X117538629Y-79313342D01*
X118262438Y-78894295D02*
X118795772Y-79694295D01*
X118795772Y-78894295D02*
X118262438Y-79694295D01*
X119519581Y-79694295D02*
X119062438Y-79694295D01*
X119291010Y-79694295D02*
X119291010Y-78894295D01*
X119291010Y-78894295D02*
X119214819Y-79008580D01*
X119214819Y-79008580D02*
X119138629Y-79084771D01*
X119138629Y-79084771D02*
X119062438Y-79122866D01*
X117995772Y-77154295D02*
X117729105Y-76773342D01*
X117538629Y-77154295D02*
X117538629Y-76354295D01*
X117538629Y-76354295D02*
X117843391Y-76354295D01*
X117843391Y-76354295D02*
X117919581Y-76392390D01*
X117919581Y-76392390D02*
X117957676Y-76430485D01*
X117957676Y-76430485D02*
X117995772Y-76506676D01*
X117995772Y-76506676D02*
X117995772Y-76620961D01*
X117995772Y-76620961D02*
X117957676Y-76697152D01*
X117957676Y-76697152D02*
X117919581Y-76735247D01*
X117919581Y-76735247D02*
X117843391Y-76773342D01*
X117843391Y-76773342D02*
X117538629Y-76773342D01*
X118262438Y-76354295D02*
X118795772Y-77154295D01*
X118795772Y-76354295D02*
X118262438Y-77154295D01*
X119252915Y-76354295D02*
X119329105Y-76354295D01*
X119329105Y-76354295D02*
X119405296Y-76392390D01*
X119405296Y-76392390D02*
X119443391Y-76430485D01*
X119443391Y-76430485D02*
X119481486Y-76506676D01*
X119481486Y-76506676D02*
X119519581Y-76659057D01*
X119519581Y-76659057D02*
X119519581Y-76849533D01*
X119519581Y-76849533D02*
X119481486Y-77001914D01*
X119481486Y-77001914D02*
X119443391Y-77078104D01*
X119443391Y-77078104D02*
X119405296Y-77116200D01*
X119405296Y-77116200D02*
X119329105Y-77154295D01*
X119329105Y-77154295D02*
X119252915Y-77154295D01*
X119252915Y-77154295D02*
X119176724Y-77116200D01*
X119176724Y-77116200D02*
X119138629Y-77078104D01*
X119138629Y-77078104D02*
X119100534Y-77001914D01*
X119100534Y-77001914D02*
X119062438Y-76849533D01*
X119062438Y-76849533D02*
X119062438Y-76659057D01*
X119062438Y-76659057D02*
X119100534Y-76506676D01*
X119100534Y-76506676D02*
X119138629Y-76430485D01*
X119138629Y-76430485D02*
X119176724Y-76392390D01*
X119176724Y-76392390D02*
X119252915Y-76354295D01*
D11*
X146862799Y-66571561D02*
X146767561Y-66666800D01*
X146767561Y-66666800D02*
X146862799Y-66762038D01*
X146862799Y-66762038D02*
X146958037Y-66666800D01*
X146958037Y-66666800D02*
X146862799Y-66571561D01*
X146862799Y-66571561D02*
X146862799Y-66762038D01*
X135991599Y-105763761D02*
X135896361Y-105859000D01*
X135896361Y-105859000D02*
X135991599Y-105954238D01*
X135991599Y-105954238D02*
X136086837Y-105859000D01*
X136086837Y-105859000D02*
X135991599Y-105763761D01*
X135991599Y-105763761D02*
X135991599Y-105954238D01*
D10*
X154235228Y-97245723D02*
X154616181Y-97245723D01*
X154159038Y-97474295D02*
X154425705Y-96674295D01*
X154425705Y-96674295D02*
X154692371Y-97474295D01*
X155301895Y-96940961D02*
X155301895Y-97474295D01*
X155111419Y-96636200D02*
X154920942Y-97207628D01*
X154920942Y-97207628D02*
X155416181Y-97207628D01*
X119932467Y-97398104D02*
X119894371Y-97436200D01*
X119894371Y-97436200D02*
X119780086Y-97474295D01*
X119780086Y-97474295D02*
X119703895Y-97474295D01*
X119703895Y-97474295D02*
X119589609Y-97436200D01*
X119589609Y-97436200D02*
X119513419Y-97360009D01*
X119513419Y-97360009D02*
X119475324Y-97283819D01*
X119475324Y-97283819D02*
X119437228Y-97131438D01*
X119437228Y-97131438D02*
X119437228Y-97017152D01*
X119437228Y-97017152D02*
X119475324Y-96864771D01*
X119475324Y-96864771D02*
X119513419Y-96788580D01*
X119513419Y-96788580D02*
X119589609Y-96712390D01*
X119589609Y-96712390D02*
X119703895Y-96674295D01*
X119703895Y-96674295D02*
X119780086Y-96674295D01*
X119780086Y-96674295D02*
X119894371Y-96712390D01*
X119894371Y-96712390D02*
X119932467Y-96750485D01*
X120199133Y-96674295D02*
X120694371Y-96674295D01*
X120694371Y-96674295D02*
X120427705Y-96979057D01*
X120427705Y-96979057D02*
X120541990Y-96979057D01*
X120541990Y-96979057D02*
X120618181Y-97017152D01*
X120618181Y-97017152D02*
X120656276Y-97055247D01*
X120656276Y-97055247D02*
X120694371Y-97131438D01*
X120694371Y-97131438D02*
X120694371Y-97321914D01*
X120694371Y-97321914D02*
X120656276Y-97398104D01*
X120656276Y-97398104D02*
X120618181Y-97436200D01*
X120618181Y-97436200D02*
X120541990Y-97474295D01*
X120541990Y-97474295D02*
X120313419Y-97474295D01*
X120313419Y-97474295D02*
X120237228Y-97436200D01*
X120237228Y-97436200D02*
X120199133Y-97398104D01*
X151796953Y-69458104D02*
X151758857Y-69496200D01*
X151758857Y-69496200D02*
X151644572Y-69534295D01*
X151644572Y-69534295D02*
X151568381Y-69534295D01*
X151568381Y-69534295D02*
X151454095Y-69496200D01*
X151454095Y-69496200D02*
X151377905Y-69420009D01*
X151377905Y-69420009D02*
X151339810Y-69343819D01*
X151339810Y-69343819D02*
X151301714Y-69191438D01*
X151301714Y-69191438D02*
X151301714Y-69077152D01*
X151301714Y-69077152D02*
X151339810Y-68924771D01*
X151339810Y-68924771D02*
X151377905Y-68848580D01*
X151377905Y-68848580D02*
X151454095Y-68772390D01*
X151454095Y-68772390D02*
X151568381Y-68734295D01*
X151568381Y-68734295D02*
X151644572Y-68734295D01*
X151644572Y-68734295D02*
X151758857Y-68772390D01*
X151758857Y-68772390D02*
X151796953Y-68810485D01*
X152520762Y-69534295D02*
X152139810Y-69534295D01*
X152139810Y-69534295D02*
X152139810Y-68734295D01*
X152787429Y-69534295D02*
X152787429Y-68734295D01*
X153244572Y-69534295D02*
X152901714Y-69077152D01*
X153244572Y-68734295D02*
X152787429Y-69191438D01*
X153739810Y-68734295D02*
X153892191Y-68734295D01*
X153892191Y-68734295D02*
X153968381Y-68772390D01*
X153968381Y-68772390D02*
X154044572Y-68848580D01*
X154044572Y-68848580D02*
X154082667Y-69000961D01*
X154082667Y-69000961D02*
X154082667Y-69267628D01*
X154082667Y-69267628D02*
X154044572Y-69420009D01*
X154044572Y-69420009D02*
X153968381Y-69496200D01*
X153968381Y-69496200D02*
X153892191Y-69534295D01*
X153892191Y-69534295D02*
X153739810Y-69534295D01*
X153739810Y-69534295D02*
X153663619Y-69496200D01*
X153663619Y-69496200D02*
X153587429Y-69420009D01*
X153587429Y-69420009D02*
X153549333Y-69267628D01*
X153549333Y-69267628D02*
X153549333Y-69000961D01*
X153549333Y-69000961D02*
X153587429Y-68848580D01*
X153587429Y-68848580D02*
X153663619Y-68772390D01*
X153663619Y-68772390D02*
X153739810Y-68734295D01*
X154425524Y-68734295D02*
X154425524Y-69381914D01*
X154425524Y-69381914D02*
X154463619Y-69458104D01*
X154463619Y-69458104D02*
X154501714Y-69496200D01*
X154501714Y-69496200D02*
X154577905Y-69534295D01*
X154577905Y-69534295D02*
X154730286Y-69534295D01*
X154730286Y-69534295D02*
X154806476Y-69496200D01*
X154806476Y-69496200D02*
X154844571Y-69458104D01*
X154844571Y-69458104D02*
X154882667Y-69381914D01*
X154882667Y-69381914D02*
X154882667Y-68734295D01*
X155149333Y-68734295D02*
X155606476Y-68734295D01*
X155377904Y-69534295D02*
X155377904Y-68734295D01*
X121386695Y-92292704D02*
X121348599Y-92330800D01*
X121348599Y-92330800D02*
X121234314Y-92368895D01*
X121234314Y-92368895D02*
X121158123Y-92368895D01*
X121158123Y-92368895D02*
X121043837Y-92330800D01*
X121043837Y-92330800D02*
X120967647Y-92254609D01*
X120967647Y-92254609D02*
X120929552Y-92178419D01*
X120929552Y-92178419D02*
X120891456Y-92026038D01*
X120891456Y-92026038D02*
X120891456Y-91911752D01*
X120891456Y-91911752D02*
X120929552Y-91759371D01*
X120929552Y-91759371D02*
X120967647Y-91683180D01*
X120967647Y-91683180D02*
X121043837Y-91606990D01*
X121043837Y-91606990D02*
X121158123Y-91568895D01*
X121158123Y-91568895D02*
X121234314Y-91568895D01*
X121234314Y-91568895D02*
X121348599Y-91606990D01*
X121348599Y-91606990D02*
X121386695Y-91645085D01*
X121615266Y-91568895D02*
X122072409Y-91568895D01*
X121843837Y-92368895D02*
X121843837Y-91568895D01*
X122720028Y-92368895D02*
X122339076Y-92368895D01*
X122339076Y-92368895D02*
X122339076Y-91568895D01*
X122948599Y-91645085D02*
X122986695Y-91606990D01*
X122986695Y-91606990D02*
X123062885Y-91568895D01*
X123062885Y-91568895D02*
X123253361Y-91568895D01*
X123253361Y-91568895D02*
X123329552Y-91606990D01*
X123329552Y-91606990D02*
X123367647Y-91645085D01*
X123367647Y-91645085D02*
X123405742Y-91721276D01*
X123405742Y-91721276D02*
X123405742Y-91797466D01*
X123405742Y-91797466D02*
X123367647Y-91911752D01*
X123367647Y-91911752D02*
X122910504Y-92368895D01*
X122910504Y-92368895D02*
X123405742Y-92368895D01*
X155181410Y-61914295D02*
X154914743Y-61533342D01*
X154724267Y-61914295D02*
X154724267Y-61114295D01*
X154724267Y-61114295D02*
X155029029Y-61114295D01*
X155029029Y-61114295D02*
X155105219Y-61152390D01*
X155105219Y-61152390D02*
X155143314Y-61190485D01*
X155143314Y-61190485D02*
X155181410Y-61266676D01*
X155181410Y-61266676D02*
X155181410Y-61380961D01*
X155181410Y-61380961D02*
X155143314Y-61457152D01*
X155143314Y-61457152D02*
X155105219Y-61495247D01*
X155105219Y-61495247D02*
X155029029Y-61533342D01*
X155029029Y-61533342D02*
X154724267Y-61533342D01*
X155524267Y-61914295D02*
X155524267Y-61114295D01*
X155524267Y-61114295D02*
X155714743Y-61114295D01*
X155714743Y-61114295D02*
X155829029Y-61152390D01*
X155829029Y-61152390D02*
X155905219Y-61228580D01*
X155905219Y-61228580D02*
X155943314Y-61304771D01*
X155943314Y-61304771D02*
X155981410Y-61457152D01*
X155981410Y-61457152D02*
X155981410Y-61571438D01*
X155981410Y-61571438D02*
X155943314Y-61723819D01*
X155943314Y-61723819D02*
X155905219Y-61800009D01*
X155905219Y-61800009D02*
X155829029Y-61876200D01*
X155829029Y-61876200D02*
X155714743Y-61914295D01*
X155714743Y-61914295D02*
X155524267Y-61914295D01*
X156476648Y-61533342D02*
X156476648Y-61914295D01*
X156209981Y-61114295D02*
X156476648Y-61533342D01*
X156476648Y-61533342D02*
X156743314Y-61114295D01*
X157390933Y-61114295D02*
X157009981Y-61114295D01*
X157009981Y-61114295D02*
X156971885Y-61495247D01*
X156971885Y-61495247D02*
X157009981Y-61457152D01*
X157009981Y-61457152D02*
X157086171Y-61419057D01*
X157086171Y-61419057D02*
X157276647Y-61419057D01*
X157276647Y-61419057D02*
X157352838Y-61457152D01*
X157352838Y-61457152D02*
X157390933Y-61495247D01*
X157390933Y-61495247D02*
X157429028Y-61571438D01*
X157429028Y-61571438D02*
X157429028Y-61761914D01*
X157429028Y-61761914D02*
X157390933Y-61838104D01*
X157390933Y-61838104D02*
X157352838Y-61876200D01*
X157352838Y-61876200D02*
X157276647Y-61914295D01*
X157276647Y-61914295D02*
X157086171Y-61914295D01*
X157086171Y-61914295D02*
X157009981Y-61876200D01*
X157009981Y-61876200D02*
X156971885Y-61838104D01*
X120237371Y-69470800D02*
X120351657Y-69508895D01*
X120351657Y-69508895D02*
X120542133Y-69508895D01*
X120542133Y-69508895D02*
X120618324Y-69470800D01*
X120618324Y-69470800D02*
X120656419Y-69432704D01*
X120656419Y-69432704D02*
X120694514Y-69356514D01*
X120694514Y-69356514D02*
X120694514Y-69280323D01*
X120694514Y-69280323D02*
X120656419Y-69204133D01*
X120656419Y-69204133D02*
X120618324Y-69166038D01*
X120618324Y-69166038D02*
X120542133Y-69127942D01*
X120542133Y-69127942D02*
X120389752Y-69089847D01*
X120389752Y-69089847D02*
X120313562Y-69051752D01*
X120313562Y-69051752D02*
X120275467Y-69013657D01*
X120275467Y-69013657D02*
X120237371Y-68937466D01*
X120237371Y-68937466D02*
X120237371Y-68861276D01*
X120237371Y-68861276D02*
X120275467Y-68785085D01*
X120275467Y-68785085D02*
X120313562Y-68746990D01*
X120313562Y-68746990D02*
X120389752Y-68708895D01*
X120389752Y-68708895D02*
X120580229Y-68708895D01*
X120580229Y-68708895D02*
X120694514Y-68746990D01*
X121037372Y-69508895D02*
X121037372Y-68708895D01*
X121037372Y-68708895D02*
X121227848Y-68708895D01*
X121227848Y-68708895D02*
X121342134Y-68746990D01*
X121342134Y-68746990D02*
X121418324Y-68823180D01*
X121418324Y-68823180D02*
X121456419Y-68899371D01*
X121456419Y-68899371D02*
X121494515Y-69051752D01*
X121494515Y-69051752D02*
X121494515Y-69166038D01*
X121494515Y-69166038D02*
X121456419Y-69318419D01*
X121456419Y-69318419D02*
X121418324Y-69394609D01*
X121418324Y-69394609D02*
X121342134Y-69470800D01*
X121342134Y-69470800D02*
X121227848Y-69508895D01*
X121227848Y-69508895D02*
X121037372Y-69508895D01*
X121799276Y-69280323D02*
X122180229Y-69280323D01*
X121723086Y-69508895D02*
X121989753Y-68708895D01*
X121989753Y-68708895D02*
X122256419Y-69508895D01*
X117957676Y-86552390D02*
X117881486Y-86514295D01*
X117881486Y-86514295D02*
X117767200Y-86514295D01*
X117767200Y-86514295D02*
X117652914Y-86552390D01*
X117652914Y-86552390D02*
X117576724Y-86628580D01*
X117576724Y-86628580D02*
X117538629Y-86704771D01*
X117538629Y-86704771D02*
X117500533Y-86857152D01*
X117500533Y-86857152D02*
X117500533Y-86971438D01*
X117500533Y-86971438D02*
X117538629Y-87123819D01*
X117538629Y-87123819D02*
X117576724Y-87200009D01*
X117576724Y-87200009D02*
X117652914Y-87276200D01*
X117652914Y-87276200D02*
X117767200Y-87314295D01*
X117767200Y-87314295D02*
X117843391Y-87314295D01*
X117843391Y-87314295D02*
X117957676Y-87276200D01*
X117957676Y-87276200D02*
X117995772Y-87238104D01*
X117995772Y-87238104D02*
X117995772Y-86971438D01*
X117995772Y-86971438D02*
X117843391Y-86971438D01*
X118338629Y-87314295D02*
X118338629Y-86514295D01*
X118338629Y-86514295D02*
X118795772Y-87314295D01*
X118795772Y-87314295D02*
X118795772Y-86514295D01*
X119176724Y-87314295D02*
X119176724Y-86514295D01*
X119176724Y-86514295D02*
X119367200Y-86514295D01*
X119367200Y-86514295D02*
X119481486Y-86552390D01*
X119481486Y-86552390D02*
X119557676Y-86628580D01*
X119557676Y-86628580D02*
X119595771Y-86704771D01*
X119595771Y-86704771D02*
X119633867Y-86857152D01*
X119633867Y-86857152D02*
X119633867Y-86971438D01*
X119633867Y-86971438D02*
X119595771Y-87123819D01*
X119595771Y-87123819D02*
X119557676Y-87200009D01*
X119557676Y-87200009D02*
X119481486Y-87276200D01*
X119481486Y-87276200D02*
X119367200Y-87314295D01*
X119367200Y-87314295D02*
X119176724Y-87314295D01*
X117424343Y-66194295D02*
X117881486Y-66194295D01*
X117652914Y-66994295D02*
X117652914Y-66194295D01*
X118110057Y-66270485D02*
X118148153Y-66232390D01*
X118148153Y-66232390D02*
X118224343Y-66194295D01*
X118224343Y-66194295D02*
X118414819Y-66194295D01*
X118414819Y-66194295D02*
X118491010Y-66232390D01*
X118491010Y-66232390D02*
X118529105Y-66270485D01*
X118529105Y-66270485D02*
X118567200Y-66346676D01*
X118567200Y-66346676D02*
X118567200Y-66422866D01*
X118567200Y-66422866D02*
X118529105Y-66537152D01*
X118529105Y-66537152D02*
X118071962Y-66994295D01*
X118071962Y-66994295D02*
X118567200Y-66994295D01*
X119741990Y-71655247D02*
X119856276Y-71693342D01*
X119856276Y-71693342D02*
X119894371Y-71731438D01*
X119894371Y-71731438D02*
X119932467Y-71807628D01*
X119932467Y-71807628D02*
X119932467Y-71921914D01*
X119932467Y-71921914D02*
X119894371Y-71998104D01*
X119894371Y-71998104D02*
X119856276Y-72036200D01*
X119856276Y-72036200D02*
X119780086Y-72074295D01*
X119780086Y-72074295D02*
X119475324Y-72074295D01*
X119475324Y-72074295D02*
X119475324Y-71274295D01*
X119475324Y-71274295D02*
X119741990Y-71274295D01*
X119741990Y-71274295D02*
X119818181Y-71312390D01*
X119818181Y-71312390D02*
X119856276Y-71350485D01*
X119856276Y-71350485D02*
X119894371Y-71426676D01*
X119894371Y-71426676D02*
X119894371Y-71502866D01*
X119894371Y-71502866D02*
X119856276Y-71579057D01*
X119856276Y-71579057D02*
X119818181Y-71617152D01*
X119818181Y-71617152D02*
X119741990Y-71655247D01*
X119741990Y-71655247D02*
X119475324Y-71655247D01*
X120427705Y-71274295D02*
X120503895Y-71274295D01*
X120503895Y-71274295D02*
X120580086Y-71312390D01*
X120580086Y-71312390D02*
X120618181Y-71350485D01*
X120618181Y-71350485D02*
X120656276Y-71426676D01*
X120656276Y-71426676D02*
X120694371Y-71579057D01*
X120694371Y-71579057D02*
X120694371Y-71769533D01*
X120694371Y-71769533D02*
X120656276Y-71921914D01*
X120656276Y-71921914D02*
X120618181Y-71998104D01*
X120618181Y-71998104D02*
X120580086Y-72036200D01*
X120580086Y-72036200D02*
X120503895Y-72074295D01*
X120503895Y-72074295D02*
X120427705Y-72074295D01*
X120427705Y-72074295D02*
X120351514Y-72036200D01*
X120351514Y-72036200D02*
X120313419Y-71998104D01*
X120313419Y-71998104D02*
X120275324Y-71921914D01*
X120275324Y-71921914D02*
X120237228Y-71769533D01*
X120237228Y-71769533D02*
X120237228Y-71579057D01*
X120237228Y-71579057D02*
X120275324Y-71426676D01*
X120275324Y-71426676D02*
X120313419Y-71350485D01*
X120313419Y-71350485D02*
X120351514Y-71312390D01*
X120351514Y-71312390D02*
X120427705Y-71274295D01*
X119932467Y-99938104D02*
X119894371Y-99976200D01*
X119894371Y-99976200D02*
X119780086Y-100014295D01*
X119780086Y-100014295D02*
X119703895Y-100014295D01*
X119703895Y-100014295D02*
X119589609Y-99976200D01*
X119589609Y-99976200D02*
X119513419Y-99900009D01*
X119513419Y-99900009D02*
X119475324Y-99823819D01*
X119475324Y-99823819D02*
X119437228Y-99671438D01*
X119437228Y-99671438D02*
X119437228Y-99557152D01*
X119437228Y-99557152D02*
X119475324Y-99404771D01*
X119475324Y-99404771D02*
X119513419Y-99328580D01*
X119513419Y-99328580D02*
X119589609Y-99252390D01*
X119589609Y-99252390D02*
X119703895Y-99214295D01*
X119703895Y-99214295D02*
X119780086Y-99214295D01*
X119780086Y-99214295D02*
X119894371Y-99252390D01*
X119894371Y-99252390D02*
X119932467Y-99290485D01*
X120656276Y-99214295D02*
X120275324Y-99214295D01*
X120275324Y-99214295D02*
X120237228Y-99595247D01*
X120237228Y-99595247D02*
X120275324Y-99557152D01*
X120275324Y-99557152D02*
X120351514Y-99519057D01*
X120351514Y-99519057D02*
X120541990Y-99519057D01*
X120541990Y-99519057D02*
X120618181Y-99557152D01*
X120618181Y-99557152D02*
X120656276Y-99595247D01*
X120656276Y-99595247D02*
X120694371Y-99671438D01*
X120694371Y-99671438D02*
X120694371Y-99861914D01*
X120694371Y-99861914D02*
X120656276Y-99938104D01*
X120656276Y-99938104D02*
X120618181Y-99976200D01*
X120618181Y-99976200D02*
X120541990Y-100014295D01*
X120541990Y-100014295D02*
X120351514Y-100014295D01*
X120351514Y-100014295D02*
X120275324Y-99976200D01*
X120275324Y-99976200D02*
X120237228Y-99938104D01*
X156209981Y-89854295D02*
X156209981Y-89054295D01*
X156209981Y-89054295D02*
X156400457Y-89054295D01*
X156400457Y-89054295D02*
X156514743Y-89092390D01*
X156514743Y-89092390D02*
X156590933Y-89168580D01*
X156590933Y-89168580D02*
X156629028Y-89244771D01*
X156629028Y-89244771D02*
X156667124Y-89397152D01*
X156667124Y-89397152D02*
X156667124Y-89511438D01*
X156667124Y-89511438D02*
X156629028Y-89663819D01*
X156629028Y-89663819D02*
X156590933Y-89740009D01*
X156590933Y-89740009D02*
X156514743Y-89816200D01*
X156514743Y-89816200D02*
X156400457Y-89854295D01*
X156400457Y-89854295D02*
X156209981Y-89854295D01*
X157162362Y-89054295D02*
X157238552Y-89054295D01*
X157238552Y-89054295D02*
X157314743Y-89092390D01*
X157314743Y-89092390D02*
X157352838Y-89130485D01*
X157352838Y-89130485D02*
X157390933Y-89206676D01*
X157390933Y-89206676D02*
X157429028Y-89359057D01*
X157429028Y-89359057D02*
X157429028Y-89549533D01*
X157429028Y-89549533D02*
X157390933Y-89701914D01*
X157390933Y-89701914D02*
X157352838Y-89778104D01*
X157352838Y-89778104D02*
X157314743Y-89816200D01*
X157314743Y-89816200D02*
X157238552Y-89854295D01*
X157238552Y-89854295D02*
X157162362Y-89854295D01*
X157162362Y-89854295D02*
X157086171Y-89816200D01*
X157086171Y-89816200D02*
X157048076Y-89778104D01*
X157048076Y-89778104D02*
X157009981Y-89701914D01*
X157009981Y-89701914D02*
X156971885Y-89549533D01*
X156971885Y-89549533D02*
X156971885Y-89359057D01*
X156971885Y-89359057D02*
X157009981Y-89206676D01*
X157009981Y-89206676D02*
X157048076Y-89130485D01*
X157048076Y-89130485D02*
X157086171Y-89092390D01*
X157086171Y-89092390D02*
X157162362Y-89054295D01*
X119938923Y-78894295D02*
X120396066Y-78894295D01*
X120167494Y-79694295D02*
X120167494Y-78894295D01*
X120586542Y-78894295D02*
X121119876Y-79694295D01*
X121119876Y-78894295D02*
X120586542Y-79694295D01*
X121843685Y-79694295D02*
X121386542Y-79694295D01*
X121615114Y-79694295D02*
X121615114Y-78894295D01*
X121615114Y-78894295D02*
X121538923Y-79008580D01*
X121538923Y-79008580D02*
X121462733Y-79084771D01*
X121462733Y-79084771D02*
X121386542Y-79122866D01*
X156286171Y-81815247D02*
X156552837Y-81815247D01*
X156667123Y-82234295D02*
X156286171Y-82234295D01*
X156286171Y-82234295D02*
X156286171Y-81434295D01*
X156286171Y-81434295D02*
X156667123Y-81434295D01*
X157429028Y-82234295D02*
X156971885Y-82234295D01*
X157200457Y-82234295D02*
X157200457Y-81434295D01*
X157200457Y-81434295D02*
X157124266Y-81548580D01*
X157124266Y-81548580D02*
X157048076Y-81624771D01*
X157048076Y-81624771D02*
X156971885Y-81662866D01*
X156286171Y-102325723D02*
X156667124Y-102325723D01*
X156209981Y-102554295D02*
X156476648Y-101754295D01*
X156476648Y-101754295D02*
X156743314Y-102554295D01*
X157429028Y-102554295D02*
X156971885Y-102554295D01*
X157200457Y-102554295D02*
X157200457Y-101754295D01*
X157200457Y-101754295D02*
X157124266Y-101868580D01*
X157124266Y-101868580D02*
X157048076Y-101944771D01*
X157048076Y-101944771D02*
X156971885Y-101982866D01*
X155752838Y-58612390D02*
X155676648Y-58574295D01*
X155676648Y-58574295D02*
X155562362Y-58574295D01*
X155562362Y-58574295D02*
X155448076Y-58612390D01*
X155448076Y-58612390D02*
X155371886Y-58688580D01*
X155371886Y-58688580D02*
X155333791Y-58764771D01*
X155333791Y-58764771D02*
X155295695Y-58917152D01*
X155295695Y-58917152D02*
X155295695Y-59031438D01*
X155295695Y-59031438D02*
X155333791Y-59183819D01*
X155333791Y-59183819D02*
X155371886Y-59260009D01*
X155371886Y-59260009D02*
X155448076Y-59336200D01*
X155448076Y-59336200D02*
X155562362Y-59374295D01*
X155562362Y-59374295D02*
X155638553Y-59374295D01*
X155638553Y-59374295D02*
X155752838Y-59336200D01*
X155752838Y-59336200D02*
X155790934Y-59298104D01*
X155790934Y-59298104D02*
X155790934Y-59031438D01*
X155790934Y-59031438D02*
X155638553Y-59031438D01*
X156133791Y-59374295D02*
X156133791Y-58574295D01*
X156133791Y-58574295D02*
X156590934Y-59374295D01*
X156590934Y-59374295D02*
X156590934Y-58574295D01*
X156971886Y-59374295D02*
X156971886Y-58574295D01*
X156971886Y-58574295D02*
X157162362Y-58574295D01*
X157162362Y-58574295D02*
X157276648Y-58612390D01*
X157276648Y-58612390D02*
X157352838Y-58688580D01*
X157352838Y-58688580D02*
X157390933Y-58764771D01*
X157390933Y-58764771D02*
X157429029Y-58917152D01*
X157429029Y-58917152D02*
X157429029Y-59031438D01*
X157429029Y-59031438D02*
X157390933Y-59183819D01*
X157390933Y-59183819D02*
X157352838Y-59260009D01*
X157352838Y-59260009D02*
X157276648Y-59336200D01*
X157276648Y-59336200D02*
X157162362Y-59374295D01*
X157162362Y-59374295D02*
X156971886Y-59374295D01*
X156209981Y-72074295D02*
X156209981Y-71274295D01*
X156209981Y-71274295D02*
X156400457Y-71274295D01*
X156400457Y-71274295D02*
X156514743Y-71312390D01*
X156514743Y-71312390D02*
X156590933Y-71388580D01*
X156590933Y-71388580D02*
X156629028Y-71464771D01*
X156629028Y-71464771D02*
X156667124Y-71617152D01*
X156667124Y-71617152D02*
X156667124Y-71731438D01*
X156667124Y-71731438D02*
X156629028Y-71883819D01*
X156629028Y-71883819D02*
X156590933Y-71960009D01*
X156590933Y-71960009D02*
X156514743Y-72036200D01*
X156514743Y-72036200D02*
X156400457Y-72074295D01*
X156400457Y-72074295D02*
X156209981Y-72074295D01*
X157390933Y-71274295D02*
X157009981Y-71274295D01*
X157009981Y-71274295D02*
X156971885Y-71655247D01*
X156971885Y-71655247D02*
X157009981Y-71617152D01*
X157009981Y-71617152D02*
X157086171Y-71579057D01*
X157086171Y-71579057D02*
X157276647Y-71579057D01*
X157276647Y-71579057D02*
X157352838Y-71617152D01*
X157352838Y-71617152D02*
X157390933Y-71655247D01*
X157390933Y-71655247D02*
X157429028Y-71731438D01*
X157429028Y-71731438D02*
X157429028Y-71921914D01*
X157429028Y-71921914D02*
X157390933Y-71998104D01*
X157390933Y-71998104D02*
X157352838Y-72036200D01*
X157352838Y-72036200D02*
X157276647Y-72074295D01*
X157276647Y-72074295D02*
X157086171Y-72074295D01*
X157086171Y-72074295D02*
X157009981Y-72036200D01*
X157009981Y-72036200D02*
X156971885Y-71998104D01*
X151796953Y-66994295D02*
X151530286Y-66613342D01*
X151339810Y-66994295D02*
X151339810Y-66194295D01*
X151339810Y-66194295D02*
X151644572Y-66194295D01*
X151644572Y-66194295D02*
X151720762Y-66232390D01*
X151720762Y-66232390D02*
X151758857Y-66270485D01*
X151758857Y-66270485D02*
X151796953Y-66346676D01*
X151796953Y-66346676D02*
X151796953Y-66460961D01*
X151796953Y-66460961D02*
X151758857Y-66537152D01*
X151758857Y-66537152D02*
X151720762Y-66575247D01*
X151720762Y-66575247D02*
X151644572Y-66613342D01*
X151644572Y-66613342D02*
X151339810Y-66613342D01*
X152139810Y-66994295D02*
X152139810Y-66194295D01*
X152139810Y-66194295D02*
X152330286Y-66194295D01*
X152330286Y-66194295D02*
X152444572Y-66232390D01*
X152444572Y-66232390D02*
X152520762Y-66308580D01*
X152520762Y-66308580D02*
X152558857Y-66384771D01*
X152558857Y-66384771D02*
X152596953Y-66537152D01*
X152596953Y-66537152D02*
X152596953Y-66651438D01*
X152596953Y-66651438D02*
X152558857Y-66803819D01*
X152558857Y-66803819D02*
X152520762Y-66880009D01*
X152520762Y-66880009D02*
X152444572Y-66956200D01*
X152444572Y-66956200D02*
X152330286Y-66994295D01*
X152330286Y-66994295D02*
X152139810Y-66994295D01*
X153092191Y-66613342D02*
X153092191Y-66994295D01*
X152825524Y-66194295D02*
X153092191Y-66613342D01*
X153092191Y-66613342D02*
X153358857Y-66194295D01*
X153777905Y-66194295D02*
X153854095Y-66194295D01*
X153854095Y-66194295D02*
X153930286Y-66232390D01*
X153930286Y-66232390D02*
X153968381Y-66270485D01*
X153968381Y-66270485D02*
X154006476Y-66346676D01*
X154006476Y-66346676D02*
X154044571Y-66499057D01*
X154044571Y-66499057D02*
X154044571Y-66689533D01*
X154044571Y-66689533D02*
X154006476Y-66841914D01*
X154006476Y-66841914D02*
X153968381Y-66918104D01*
X153968381Y-66918104D02*
X153930286Y-66956200D01*
X153930286Y-66956200D02*
X153854095Y-66994295D01*
X153854095Y-66994295D02*
X153777905Y-66994295D01*
X153777905Y-66994295D02*
X153701714Y-66956200D01*
X153701714Y-66956200D02*
X153663619Y-66918104D01*
X153663619Y-66918104D02*
X153625524Y-66841914D01*
X153625524Y-66841914D02*
X153587428Y-66689533D01*
X153587428Y-66689533D02*
X153587428Y-66499057D01*
X153587428Y-66499057D02*
X153625524Y-66346676D01*
X153625524Y-66346676D02*
X153663619Y-66270485D01*
X153663619Y-66270485D02*
X153701714Y-66232390D01*
X153701714Y-66232390D02*
X153777905Y-66194295D01*
X117995772Y-89778104D02*
X117957676Y-89816200D01*
X117957676Y-89816200D02*
X117843391Y-89854295D01*
X117843391Y-89854295D02*
X117767200Y-89854295D01*
X117767200Y-89854295D02*
X117652914Y-89816200D01*
X117652914Y-89816200D02*
X117576724Y-89740009D01*
X117576724Y-89740009D02*
X117538629Y-89663819D01*
X117538629Y-89663819D02*
X117500533Y-89511438D01*
X117500533Y-89511438D02*
X117500533Y-89397152D01*
X117500533Y-89397152D02*
X117538629Y-89244771D01*
X117538629Y-89244771D02*
X117576724Y-89168580D01*
X117576724Y-89168580D02*
X117652914Y-89092390D01*
X117652914Y-89092390D02*
X117767200Y-89054295D01*
X117767200Y-89054295D02*
X117843391Y-89054295D01*
X117843391Y-89054295D02*
X117957676Y-89092390D01*
X117957676Y-89092390D02*
X117995772Y-89130485D01*
X118224343Y-89054295D02*
X118681486Y-89054295D01*
X118452914Y-89854295D02*
X118452914Y-89054295D01*
X119329105Y-89854295D02*
X118948153Y-89854295D01*
X118948153Y-89854295D02*
X118948153Y-89054295D01*
X119938629Y-89320961D02*
X119938629Y-89854295D01*
X119748153Y-89016200D02*
X119557676Y-89587628D01*
X119557676Y-89587628D02*
X120052915Y-89587628D01*
X117805295Y-81815247D02*
X117919581Y-81853342D01*
X117919581Y-81853342D02*
X117957676Y-81891438D01*
X117957676Y-81891438D02*
X117995772Y-81967628D01*
X117995772Y-81967628D02*
X117995772Y-82081914D01*
X117995772Y-82081914D02*
X117957676Y-82158104D01*
X117957676Y-82158104D02*
X117919581Y-82196200D01*
X117919581Y-82196200D02*
X117843391Y-82234295D01*
X117843391Y-82234295D02*
X117538629Y-82234295D01*
X117538629Y-82234295D02*
X117538629Y-81434295D01*
X117538629Y-81434295D02*
X117805295Y-81434295D01*
X117805295Y-81434295D02*
X117881486Y-81472390D01*
X117881486Y-81472390D02*
X117919581Y-81510485D01*
X117919581Y-81510485D02*
X117957676Y-81586676D01*
X117957676Y-81586676D02*
X117957676Y-81662866D01*
X117957676Y-81662866D02*
X117919581Y-81739057D01*
X117919581Y-81739057D02*
X117881486Y-81777152D01*
X117881486Y-81777152D02*
X117805295Y-81815247D01*
X117805295Y-81815247D02*
X117538629Y-81815247D01*
X118719581Y-81434295D02*
X118338629Y-81434295D01*
X118338629Y-81434295D02*
X118300533Y-81815247D01*
X118300533Y-81815247D02*
X118338629Y-81777152D01*
X118338629Y-81777152D02*
X118414819Y-81739057D01*
X118414819Y-81739057D02*
X118605295Y-81739057D01*
X118605295Y-81739057D02*
X118681486Y-81777152D01*
X118681486Y-81777152D02*
X118719581Y-81815247D01*
X118719581Y-81815247D02*
X118757676Y-81891438D01*
X118757676Y-81891438D02*
X118757676Y-82081914D01*
X118757676Y-82081914D02*
X118719581Y-82158104D01*
X118719581Y-82158104D02*
X118681486Y-82196200D01*
X118681486Y-82196200D02*
X118605295Y-82234295D01*
X118605295Y-82234295D02*
X118414819Y-82234295D01*
X118414819Y-82234295D02*
X118338629Y-82196200D01*
X118338629Y-82196200D02*
X118300533Y-82158104D01*
X119932467Y-102478104D02*
X119894371Y-102516200D01*
X119894371Y-102516200D02*
X119780086Y-102554295D01*
X119780086Y-102554295D02*
X119703895Y-102554295D01*
X119703895Y-102554295D02*
X119589609Y-102516200D01*
X119589609Y-102516200D02*
X119513419Y-102440009D01*
X119513419Y-102440009D02*
X119475324Y-102363819D01*
X119475324Y-102363819D02*
X119437228Y-102211438D01*
X119437228Y-102211438D02*
X119437228Y-102097152D01*
X119437228Y-102097152D02*
X119475324Y-101944771D01*
X119475324Y-101944771D02*
X119513419Y-101868580D01*
X119513419Y-101868580D02*
X119589609Y-101792390D01*
X119589609Y-101792390D02*
X119703895Y-101754295D01*
X119703895Y-101754295D02*
X119780086Y-101754295D01*
X119780086Y-101754295D02*
X119894371Y-101792390D01*
X119894371Y-101792390D02*
X119932467Y-101830485D01*
X120199133Y-101754295D02*
X120732467Y-101754295D01*
X120732467Y-101754295D02*
X120389609Y-102554295D01*
X117995772Y-97398104D02*
X117957676Y-97436200D01*
X117957676Y-97436200D02*
X117843391Y-97474295D01*
X117843391Y-97474295D02*
X117767200Y-97474295D01*
X117767200Y-97474295D02*
X117652914Y-97436200D01*
X117652914Y-97436200D02*
X117576724Y-97360009D01*
X117576724Y-97360009D02*
X117538629Y-97283819D01*
X117538629Y-97283819D02*
X117500533Y-97131438D01*
X117500533Y-97131438D02*
X117500533Y-97017152D01*
X117500533Y-97017152D02*
X117538629Y-96864771D01*
X117538629Y-96864771D02*
X117576724Y-96788580D01*
X117576724Y-96788580D02*
X117652914Y-96712390D01*
X117652914Y-96712390D02*
X117767200Y-96674295D01*
X117767200Y-96674295D02*
X117843391Y-96674295D01*
X117843391Y-96674295D02*
X117957676Y-96712390D01*
X117957676Y-96712390D02*
X117995772Y-96750485D01*
X118300533Y-96750485D02*
X118338629Y-96712390D01*
X118338629Y-96712390D02*
X118414819Y-96674295D01*
X118414819Y-96674295D02*
X118605295Y-96674295D01*
X118605295Y-96674295D02*
X118681486Y-96712390D01*
X118681486Y-96712390D02*
X118719581Y-96750485D01*
X118719581Y-96750485D02*
X118757676Y-96826676D01*
X118757676Y-96826676D02*
X118757676Y-96902866D01*
X118757676Y-96902866D02*
X118719581Y-97017152D01*
X118719581Y-97017152D02*
X118262438Y-97474295D01*
X118262438Y-97474295D02*
X118757676Y-97474295D01*
X121386695Y-89752704D02*
X121348599Y-89790800D01*
X121348599Y-89790800D02*
X121234314Y-89828895D01*
X121234314Y-89828895D02*
X121158123Y-89828895D01*
X121158123Y-89828895D02*
X121043837Y-89790800D01*
X121043837Y-89790800D02*
X120967647Y-89714609D01*
X120967647Y-89714609D02*
X120929552Y-89638419D01*
X120929552Y-89638419D02*
X120891456Y-89486038D01*
X120891456Y-89486038D02*
X120891456Y-89371752D01*
X120891456Y-89371752D02*
X120929552Y-89219371D01*
X120929552Y-89219371D02*
X120967647Y-89143180D01*
X120967647Y-89143180D02*
X121043837Y-89066990D01*
X121043837Y-89066990D02*
X121158123Y-89028895D01*
X121158123Y-89028895D02*
X121234314Y-89028895D01*
X121234314Y-89028895D02*
X121348599Y-89066990D01*
X121348599Y-89066990D02*
X121386695Y-89105085D01*
X121615266Y-89028895D02*
X122072409Y-89028895D01*
X121843837Y-89828895D02*
X121843837Y-89028895D01*
X122720028Y-89828895D02*
X122339076Y-89828895D01*
X122339076Y-89828895D02*
X122339076Y-89028895D01*
X123139076Y-89028895D02*
X123215266Y-89028895D01*
X123215266Y-89028895D02*
X123291457Y-89066990D01*
X123291457Y-89066990D02*
X123329552Y-89105085D01*
X123329552Y-89105085D02*
X123367647Y-89181276D01*
X123367647Y-89181276D02*
X123405742Y-89333657D01*
X123405742Y-89333657D02*
X123405742Y-89524133D01*
X123405742Y-89524133D02*
X123367647Y-89676514D01*
X123367647Y-89676514D02*
X123329552Y-89752704D01*
X123329552Y-89752704D02*
X123291457Y-89790800D01*
X123291457Y-89790800D02*
X123215266Y-89828895D01*
X123215266Y-89828895D02*
X123139076Y-89828895D01*
X123139076Y-89828895D02*
X123062885Y-89790800D01*
X123062885Y-89790800D02*
X123024790Y-89752704D01*
X123024790Y-89752704D02*
X122986695Y-89676514D01*
X122986695Y-89676514D02*
X122948599Y-89524133D01*
X122948599Y-89524133D02*
X122948599Y-89333657D01*
X122948599Y-89333657D02*
X122986695Y-89181276D01*
X122986695Y-89181276D02*
X123024790Y-89105085D01*
X123024790Y-89105085D02*
X123062885Y-89066990D01*
X123062885Y-89066990D02*
X123139076Y-89028895D01*
X154235228Y-102325723D02*
X154616181Y-102325723D01*
X154159038Y-102554295D02*
X154425705Y-101754295D01*
X154425705Y-101754295D02*
X154692371Y-102554295D01*
X155111419Y-101754295D02*
X155187609Y-101754295D01*
X155187609Y-101754295D02*
X155263800Y-101792390D01*
X155263800Y-101792390D02*
X155301895Y-101830485D01*
X155301895Y-101830485D02*
X155339990Y-101906676D01*
X155339990Y-101906676D02*
X155378085Y-102059057D01*
X155378085Y-102059057D02*
X155378085Y-102249533D01*
X155378085Y-102249533D02*
X155339990Y-102401914D01*
X155339990Y-102401914D02*
X155301895Y-102478104D01*
X155301895Y-102478104D02*
X155263800Y-102516200D01*
X155263800Y-102516200D02*
X155187609Y-102554295D01*
X155187609Y-102554295D02*
X155111419Y-102554295D01*
X155111419Y-102554295D02*
X155035228Y-102516200D01*
X155035228Y-102516200D02*
X154997133Y-102478104D01*
X154997133Y-102478104D02*
X154959038Y-102401914D01*
X154959038Y-102401914D02*
X154920942Y-102249533D01*
X154920942Y-102249533D02*
X154920942Y-102059057D01*
X154920942Y-102059057D02*
X154959038Y-101906676D01*
X154959038Y-101906676D02*
X154997133Y-101830485D01*
X154997133Y-101830485D02*
X155035228Y-101792390D01*
X155035228Y-101792390D02*
X155111419Y-101754295D01*
X151796953Y-61914295D02*
X151530286Y-61533342D01*
X151339810Y-61914295D02*
X151339810Y-61114295D01*
X151339810Y-61114295D02*
X151644572Y-61114295D01*
X151644572Y-61114295D02*
X151720762Y-61152390D01*
X151720762Y-61152390D02*
X151758857Y-61190485D01*
X151758857Y-61190485D02*
X151796953Y-61266676D01*
X151796953Y-61266676D02*
X151796953Y-61380961D01*
X151796953Y-61380961D02*
X151758857Y-61457152D01*
X151758857Y-61457152D02*
X151720762Y-61495247D01*
X151720762Y-61495247D02*
X151644572Y-61533342D01*
X151644572Y-61533342D02*
X151339810Y-61533342D01*
X152139810Y-61914295D02*
X152139810Y-61114295D01*
X152139810Y-61114295D02*
X152330286Y-61114295D01*
X152330286Y-61114295D02*
X152444572Y-61152390D01*
X152444572Y-61152390D02*
X152520762Y-61228580D01*
X152520762Y-61228580D02*
X152558857Y-61304771D01*
X152558857Y-61304771D02*
X152596953Y-61457152D01*
X152596953Y-61457152D02*
X152596953Y-61571438D01*
X152596953Y-61571438D02*
X152558857Y-61723819D01*
X152558857Y-61723819D02*
X152520762Y-61800009D01*
X152520762Y-61800009D02*
X152444572Y-61876200D01*
X152444572Y-61876200D02*
X152330286Y-61914295D01*
X152330286Y-61914295D02*
X152139810Y-61914295D01*
X153092191Y-61533342D02*
X153092191Y-61914295D01*
X152825524Y-61114295D02*
X153092191Y-61533342D01*
X153092191Y-61533342D02*
X153358857Y-61114295D01*
X153968381Y-61380961D02*
X153968381Y-61914295D01*
X153777905Y-61076200D02*
X153587428Y-61647628D01*
X153587428Y-61647628D02*
X154082667Y-61647628D01*
X154235228Y-99785723D02*
X154616181Y-99785723D01*
X154159038Y-100014295D02*
X154425705Y-99214295D01*
X154425705Y-99214295D02*
X154692371Y-100014295D01*
X154920942Y-99290485D02*
X154959038Y-99252390D01*
X154959038Y-99252390D02*
X155035228Y-99214295D01*
X155035228Y-99214295D02*
X155225704Y-99214295D01*
X155225704Y-99214295D02*
X155301895Y-99252390D01*
X155301895Y-99252390D02*
X155339990Y-99290485D01*
X155339990Y-99290485D02*
X155378085Y-99366676D01*
X155378085Y-99366676D02*
X155378085Y-99442866D01*
X155378085Y-99442866D02*
X155339990Y-99557152D01*
X155339990Y-99557152D02*
X154882847Y-100014295D01*
X154882847Y-100014295D02*
X155378085Y-100014295D01*
X117500533Y-69470800D02*
X117614819Y-69508895D01*
X117614819Y-69508895D02*
X117805295Y-69508895D01*
X117805295Y-69508895D02*
X117881486Y-69470800D01*
X117881486Y-69470800D02*
X117919581Y-69432704D01*
X117919581Y-69432704D02*
X117957676Y-69356514D01*
X117957676Y-69356514D02*
X117957676Y-69280323D01*
X117957676Y-69280323D02*
X117919581Y-69204133D01*
X117919581Y-69204133D02*
X117881486Y-69166038D01*
X117881486Y-69166038D02*
X117805295Y-69127942D01*
X117805295Y-69127942D02*
X117652914Y-69089847D01*
X117652914Y-69089847D02*
X117576724Y-69051752D01*
X117576724Y-69051752D02*
X117538629Y-69013657D01*
X117538629Y-69013657D02*
X117500533Y-68937466D01*
X117500533Y-68937466D02*
X117500533Y-68861276D01*
X117500533Y-68861276D02*
X117538629Y-68785085D01*
X117538629Y-68785085D02*
X117576724Y-68746990D01*
X117576724Y-68746990D02*
X117652914Y-68708895D01*
X117652914Y-68708895D02*
X117843391Y-68708895D01*
X117843391Y-68708895D02*
X117957676Y-68746990D01*
X118757677Y-69432704D02*
X118719581Y-69470800D01*
X118719581Y-69470800D02*
X118605296Y-69508895D01*
X118605296Y-69508895D02*
X118529105Y-69508895D01*
X118529105Y-69508895D02*
X118414819Y-69470800D01*
X118414819Y-69470800D02*
X118338629Y-69394609D01*
X118338629Y-69394609D02*
X118300534Y-69318419D01*
X118300534Y-69318419D02*
X118262438Y-69166038D01*
X118262438Y-69166038D02*
X118262438Y-69051752D01*
X118262438Y-69051752D02*
X118300534Y-68899371D01*
X118300534Y-68899371D02*
X118338629Y-68823180D01*
X118338629Y-68823180D02*
X118414819Y-68746990D01*
X118414819Y-68746990D02*
X118529105Y-68708895D01*
X118529105Y-68708895D02*
X118605296Y-68708895D01*
X118605296Y-68708895D02*
X118719581Y-68746990D01*
X118719581Y-68746990D02*
X118757677Y-68785085D01*
X119481486Y-69508895D02*
X119100534Y-69508895D01*
X119100534Y-69508895D02*
X119100534Y-68708895D01*
X119741990Y-81815247D02*
X119856276Y-81853342D01*
X119856276Y-81853342D02*
X119894371Y-81891438D01*
X119894371Y-81891438D02*
X119932467Y-81967628D01*
X119932467Y-81967628D02*
X119932467Y-82081914D01*
X119932467Y-82081914D02*
X119894371Y-82158104D01*
X119894371Y-82158104D02*
X119856276Y-82196200D01*
X119856276Y-82196200D02*
X119780086Y-82234295D01*
X119780086Y-82234295D02*
X119475324Y-82234295D01*
X119475324Y-82234295D02*
X119475324Y-81434295D01*
X119475324Y-81434295D02*
X119741990Y-81434295D01*
X119741990Y-81434295D02*
X119818181Y-81472390D01*
X119818181Y-81472390D02*
X119856276Y-81510485D01*
X119856276Y-81510485D02*
X119894371Y-81586676D01*
X119894371Y-81586676D02*
X119894371Y-81662866D01*
X119894371Y-81662866D02*
X119856276Y-81739057D01*
X119856276Y-81739057D02*
X119818181Y-81777152D01*
X119818181Y-81777152D02*
X119741990Y-81815247D01*
X119741990Y-81815247D02*
X119475324Y-81815247D01*
X120618181Y-81700961D02*
X120618181Y-82234295D01*
X120427705Y-81396200D02*
X120237228Y-81967628D01*
X120237228Y-81967628D02*
X120732467Y-81967628D01*
X156286171Y-97245723D02*
X156667124Y-97245723D01*
X156209981Y-97474295D02*
X156476648Y-96674295D01*
X156476648Y-96674295D02*
X156743314Y-97474295D01*
X157390933Y-96674295D02*
X157009981Y-96674295D01*
X157009981Y-96674295D02*
X156971885Y-97055247D01*
X156971885Y-97055247D02*
X157009981Y-97017152D01*
X157009981Y-97017152D02*
X157086171Y-96979057D01*
X157086171Y-96979057D02*
X157276647Y-96979057D01*
X157276647Y-96979057D02*
X157352838Y-97017152D01*
X157352838Y-97017152D02*
X157390933Y-97055247D01*
X157390933Y-97055247D02*
X157429028Y-97131438D01*
X157429028Y-97131438D02*
X157429028Y-97321914D01*
X157429028Y-97321914D02*
X157390933Y-97398104D01*
X157390933Y-97398104D02*
X157352838Y-97436200D01*
X157352838Y-97436200D02*
X157276647Y-97474295D01*
X157276647Y-97474295D02*
X157086171Y-97474295D01*
X157086171Y-97474295D02*
X157009981Y-97436200D01*
X157009981Y-97436200D02*
X156971885Y-97398104D01*
X117995772Y-92318104D02*
X117957676Y-92356200D01*
X117957676Y-92356200D02*
X117843391Y-92394295D01*
X117843391Y-92394295D02*
X117767200Y-92394295D01*
X117767200Y-92394295D02*
X117652914Y-92356200D01*
X117652914Y-92356200D02*
X117576724Y-92280009D01*
X117576724Y-92280009D02*
X117538629Y-92203819D01*
X117538629Y-92203819D02*
X117500533Y-92051438D01*
X117500533Y-92051438D02*
X117500533Y-91937152D01*
X117500533Y-91937152D02*
X117538629Y-91784771D01*
X117538629Y-91784771D02*
X117576724Y-91708580D01*
X117576724Y-91708580D02*
X117652914Y-91632390D01*
X117652914Y-91632390D02*
X117767200Y-91594295D01*
X117767200Y-91594295D02*
X117843391Y-91594295D01*
X117843391Y-91594295D02*
X117957676Y-91632390D01*
X117957676Y-91632390D02*
X117995772Y-91670485D01*
X118224343Y-91594295D02*
X118681486Y-91594295D01*
X118452914Y-92394295D02*
X118452914Y-91594295D01*
X119329105Y-92394295D02*
X118948153Y-92394295D01*
X118948153Y-92394295D02*
X118948153Y-91594295D01*
X120014819Y-92394295D02*
X119557676Y-92394295D01*
X119786248Y-92394295D02*
X119786248Y-91594295D01*
X119786248Y-91594295D02*
X119710057Y-91708580D01*
X119710057Y-91708580D02*
X119633867Y-91784771D01*
X119633867Y-91784771D02*
X119557676Y-91822866D01*
X155752838Y-91606990D02*
X155676648Y-91568895D01*
X155676648Y-91568895D02*
X155562362Y-91568895D01*
X155562362Y-91568895D02*
X155448076Y-91606990D01*
X155448076Y-91606990D02*
X155371886Y-91683180D01*
X155371886Y-91683180D02*
X155333791Y-91759371D01*
X155333791Y-91759371D02*
X155295695Y-91911752D01*
X155295695Y-91911752D02*
X155295695Y-92026038D01*
X155295695Y-92026038D02*
X155333791Y-92178419D01*
X155333791Y-92178419D02*
X155371886Y-92254609D01*
X155371886Y-92254609D02*
X155448076Y-92330800D01*
X155448076Y-92330800D02*
X155562362Y-92368895D01*
X155562362Y-92368895D02*
X155638553Y-92368895D01*
X155638553Y-92368895D02*
X155752838Y-92330800D01*
X155752838Y-92330800D02*
X155790934Y-92292704D01*
X155790934Y-92292704D02*
X155790934Y-92026038D01*
X155790934Y-92026038D02*
X155638553Y-92026038D01*
X156133791Y-92368895D02*
X156133791Y-91568895D01*
X156133791Y-91568895D02*
X156590934Y-92368895D01*
X156590934Y-92368895D02*
X156590934Y-91568895D01*
X156971886Y-92368895D02*
X156971886Y-91568895D01*
X156971886Y-91568895D02*
X157162362Y-91568895D01*
X157162362Y-91568895D02*
X157276648Y-91606990D01*
X157276648Y-91606990D02*
X157352838Y-91683180D01*
X157352838Y-91683180D02*
X157390933Y-91759371D01*
X157390933Y-91759371D02*
X157429029Y-91911752D01*
X157429029Y-91911752D02*
X157429029Y-92026038D01*
X157429029Y-92026038D02*
X157390933Y-92178419D01*
X157390933Y-92178419D02*
X157352838Y-92254609D01*
X157352838Y-92254609D02*
X157276648Y-92330800D01*
X157276648Y-92330800D02*
X157162362Y-92368895D01*
X157162362Y-92368895D02*
X156971886Y-92368895D01*
X151796953Y-64428895D02*
X151530286Y-64047942D01*
X151339810Y-64428895D02*
X151339810Y-63628895D01*
X151339810Y-63628895D02*
X151644572Y-63628895D01*
X151644572Y-63628895D02*
X151720762Y-63666990D01*
X151720762Y-63666990D02*
X151758857Y-63705085D01*
X151758857Y-63705085D02*
X151796953Y-63781276D01*
X151796953Y-63781276D02*
X151796953Y-63895561D01*
X151796953Y-63895561D02*
X151758857Y-63971752D01*
X151758857Y-63971752D02*
X151720762Y-64009847D01*
X151720762Y-64009847D02*
X151644572Y-64047942D01*
X151644572Y-64047942D02*
X151339810Y-64047942D01*
X152139810Y-64428895D02*
X152139810Y-63628895D01*
X152139810Y-63628895D02*
X152330286Y-63628895D01*
X152330286Y-63628895D02*
X152444572Y-63666990D01*
X152444572Y-63666990D02*
X152520762Y-63743180D01*
X152520762Y-63743180D02*
X152558857Y-63819371D01*
X152558857Y-63819371D02*
X152596953Y-63971752D01*
X152596953Y-63971752D02*
X152596953Y-64086038D01*
X152596953Y-64086038D02*
X152558857Y-64238419D01*
X152558857Y-64238419D02*
X152520762Y-64314609D01*
X152520762Y-64314609D02*
X152444572Y-64390800D01*
X152444572Y-64390800D02*
X152330286Y-64428895D01*
X152330286Y-64428895D02*
X152139810Y-64428895D01*
X153092191Y-64047942D02*
X153092191Y-64428895D01*
X152825524Y-63628895D02*
X153092191Y-64047942D01*
X153092191Y-64047942D02*
X153358857Y-63628895D01*
X153587428Y-63705085D02*
X153625524Y-63666990D01*
X153625524Y-63666990D02*
X153701714Y-63628895D01*
X153701714Y-63628895D02*
X153892190Y-63628895D01*
X153892190Y-63628895D02*
X153968381Y-63666990D01*
X153968381Y-63666990D02*
X154006476Y-63705085D01*
X154006476Y-63705085D02*
X154044571Y-63781276D01*
X154044571Y-63781276D02*
X154044571Y-63857466D01*
X154044571Y-63857466D02*
X154006476Y-63971752D01*
X154006476Y-63971752D02*
X153549333Y-64428895D01*
X153549333Y-64428895D02*
X154044571Y-64428895D01*
X119938923Y-76354295D02*
X120396066Y-76354295D01*
X120167494Y-77154295D02*
X120167494Y-76354295D01*
X120586542Y-76354295D02*
X121119876Y-77154295D01*
X121119876Y-76354295D02*
X120586542Y-77154295D01*
X121577019Y-76354295D02*
X121653209Y-76354295D01*
X121653209Y-76354295D02*
X121729400Y-76392390D01*
X121729400Y-76392390D02*
X121767495Y-76430485D01*
X121767495Y-76430485D02*
X121805590Y-76506676D01*
X121805590Y-76506676D02*
X121843685Y-76659057D01*
X121843685Y-76659057D02*
X121843685Y-76849533D01*
X121843685Y-76849533D02*
X121805590Y-77001914D01*
X121805590Y-77001914D02*
X121767495Y-77078104D01*
X121767495Y-77078104D02*
X121729400Y-77116200D01*
X121729400Y-77116200D02*
X121653209Y-77154295D01*
X121653209Y-77154295D02*
X121577019Y-77154295D01*
X121577019Y-77154295D02*
X121500828Y-77116200D01*
X121500828Y-77116200D02*
X121462733Y-77078104D01*
X121462733Y-77078104D02*
X121424638Y-77001914D01*
X121424638Y-77001914D02*
X121386542Y-76849533D01*
X121386542Y-76849533D02*
X121386542Y-76659057D01*
X121386542Y-76659057D02*
X121424638Y-76506676D01*
X121424638Y-76506676D02*
X121462733Y-76430485D01*
X121462733Y-76430485D02*
X121500828Y-76392390D01*
X121500828Y-76392390D02*
X121577019Y-76354295D01*
X119977038Y-61914295D02*
X119977038Y-61114295D01*
X120357990Y-61914295D02*
X120357990Y-61114295D01*
X120357990Y-61114295D02*
X120815133Y-61914295D01*
X120815133Y-61914295D02*
X120815133Y-61114295D01*
X121081799Y-61114295D02*
X121538942Y-61114295D01*
X121310370Y-61914295D02*
X121310370Y-61114295D01*
X122148466Y-61380961D02*
X122148466Y-61914295D01*
X121957990Y-61076200D02*
X121767513Y-61647628D01*
X121767513Y-61647628D02*
X122262752Y-61647628D01*
X154273324Y-89854295D02*
X154273324Y-89054295D01*
X154273324Y-89054295D02*
X154463800Y-89054295D01*
X154463800Y-89054295D02*
X154578086Y-89092390D01*
X154578086Y-89092390D02*
X154654276Y-89168580D01*
X154654276Y-89168580D02*
X154692371Y-89244771D01*
X154692371Y-89244771D02*
X154730467Y-89397152D01*
X154730467Y-89397152D02*
X154730467Y-89511438D01*
X154730467Y-89511438D02*
X154692371Y-89663819D01*
X154692371Y-89663819D02*
X154654276Y-89740009D01*
X154654276Y-89740009D02*
X154578086Y-89816200D01*
X154578086Y-89816200D02*
X154463800Y-89854295D01*
X154463800Y-89854295D02*
X154273324Y-89854295D01*
X155492371Y-89854295D02*
X155035228Y-89854295D01*
X155263800Y-89854295D02*
X155263800Y-89054295D01*
X155263800Y-89054295D02*
X155187609Y-89168580D01*
X155187609Y-89168580D02*
X155111419Y-89244771D01*
X155111419Y-89244771D02*
X155035228Y-89282866D01*
X153314419Y-58574295D02*
X152933467Y-58574295D01*
X152933467Y-58574295D02*
X152895371Y-58955247D01*
X152895371Y-58955247D02*
X152933467Y-58917152D01*
X152933467Y-58917152D02*
X153009657Y-58879057D01*
X153009657Y-58879057D02*
X153200133Y-58879057D01*
X153200133Y-58879057D02*
X153276324Y-58917152D01*
X153276324Y-58917152D02*
X153314419Y-58955247D01*
X153314419Y-58955247D02*
X153352514Y-59031438D01*
X153352514Y-59031438D02*
X153352514Y-59221914D01*
X153352514Y-59221914D02*
X153314419Y-59298104D01*
X153314419Y-59298104D02*
X153276324Y-59336200D01*
X153276324Y-59336200D02*
X153200133Y-59374295D01*
X153200133Y-59374295D02*
X153009657Y-59374295D01*
X153009657Y-59374295D02*
X152933467Y-59336200D01*
X152933467Y-59336200D02*
X152895371Y-59298104D01*
X153581086Y-58574295D02*
X153847753Y-59374295D01*
X153847753Y-59374295D02*
X154114419Y-58574295D01*
X153371619Y-84355247D02*
X153638285Y-84355247D01*
X153752571Y-84774295D02*
X153371619Y-84774295D01*
X153371619Y-84774295D02*
X153371619Y-83974295D01*
X153371619Y-83974295D02*
X153752571Y-83974295D01*
X154247810Y-83974295D02*
X154324000Y-83974295D01*
X154324000Y-83974295D02*
X154400191Y-84012390D01*
X154400191Y-84012390D02*
X154438286Y-84050485D01*
X154438286Y-84050485D02*
X154476381Y-84126676D01*
X154476381Y-84126676D02*
X154514476Y-84279057D01*
X154514476Y-84279057D02*
X154514476Y-84469533D01*
X154514476Y-84469533D02*
X154476381Y-84621914D01*
X154476381Y-84621914D02*
X154438286Y-84698104D01*
X154438286Y-84698104D02*
X154400191Y-84736200D01*
X154400191Y-84736200D02*
X154324000Y-84774295D01*
X154324000Y-84774295D02*
X154247810Y-84774295D01*
X154247810Y-84774295D02*
X154171619Y-84736200D01*
X154171619Y-84736200D02*
X154133524Y-84698104D01*
X154133524Y-84698104D02*
X154095429Y-84621914D01*
X154095429Y-84621914D02*
X154057333Y-84469533D01*
X154057333Y-84469533D02*
X154057333Y-84279057D01*
X154057333Y-84279057D02*
X154095429Y-84126676D01*
X154095429Y-84126676D02*
X154133524Y-84050485D01*
X154133524Y-84050485D02*
X154171619Y-84012390D01*
X154171619Y-84012390D02*
X154247810Y-83974295D01*
X117995772Y-99938104D02*
X117957676Y-99976200D01*
X117957676Y-99976200D02*
X117843391Y-100014295D01*
X117843391Y-100014295D02*
X117767200Y-100014295D01*
X117767200Y-100014295D02*
X117652914Y-99976200D01*
X117652914Y-99976200D02*
X117576724Y-99900009D01*
X117576724Y-99900009D02*
X117538629Y-99823819D01*
X117538629Y-99823819D02*
X117500533Y-99671438D01*
X117500533Y-99671438D02*
X117500533Y-99557152D01*
X117500533Y-99557152D02*
X117538629Y-99404771D01*
X117538629Y-99404771D02*
X117576724Y-99328580D01*
X117576724Y-99328580D02*
X117652914Y-99252390D01*
X117652914Y-99252390D02*
X117767200Y-99214295D01*
X117767200Y-99214295D02*
X117843391Y-99214295D01*
X117843391Y-99214295D02*
X117957676Y-99252390D01*
X117957676Y-99252390D02*
X117995772Y-99290485D01*
X118681486Y-99480961D02*
X118681486Y-100014295D01*
X118491010Y-99176200D02*
X118300533Y-99747628D01*
X118300533Y-99747628D02*
X118795772Y-99747628D01*
X155181410Y-66994295D02*
X154914743Y-66613342D01*
X154724267Y-66994295D02*
X154724267Y-66194295D01*
X154724267Y-66194295D02*
X155029029Y-66194295D01*
X155029029Y-66194295D02*
X155105219Y-66232390D01*
X155105219Y-66232390D02*
X155143314Y-66270485D01*
X155143314Y-66270485D02*
X155181410Y-66346676D01*
X155181410Y-66346676D02*
X155181410Y-66460961D01*
X155181410Y-66460961D02*
X155143314Y-66537152D01*
X155143314Y-66537152D02*
X155105219Y-66575247D01*
X155105219Y-66575247D02*
X155029029Y-66613342D01*
X155029029Y-66613342D02*
X154724267Y-66613342D01*
X155524267Y-66994295D02*
X155524267Y-66194295D01*
X155524267Y-66194295D02*
X155714743Y-66194295D01*
X155714743Y-66194295D02*
X155829029Y-66232390D01*
X155829029Y-66232390D02*
X155905219Y-66308580D01*
X155905219Y-66308580D02*
X155943314Y-66384771D01*
X155943314Y-66384771D02*
X155981410Y-66537152D01*
X155981410Y-66537152D02*
X155981410Y-66651438D01*
X155981410Y-66651438D02*
X155943314Y-66803819D01*
X155943314Y-66803819D02*
X155905219Y-66880009D01*
X155905219Y-66880009D02*
X155829029Y-66956200D01*
X155829029Y-66956200D02*
X155714743Y-66994295D01*
X155714743Y-66994295D02*
X155524267Y-66994295D01*
X156476648Y-66613342D02*
X156476648Y-66994295D01*
X156209981Y-66194295D02*
X156476648Y-66613342D01*
X156476648Y-66613342D02*
X156743314Y-66194295D01*
X157429028Y-66994295D02*
X156971885Y-66994295D01*
X157200457Y-66994295D02*
X157200457Y-66194295D01*
X157200457Y-66194295D02*
X157124266Y-66308580D01*
X157124266Y-66308580D02*
X157048076Y-66384771D01*
X157048076Y-66384771D02*
X156971885Y-66422866D01*
X119741990Y-74195247D02*
X119856276Y-74233342D01*
X119856276Y-74233342D02*
X119894371Y-74271438D01*
X119894371Y-74271438D02*
X119932467Y-74347628D01*
X119932467Y-74347628D02*
X119932467Y-74461914D01*
X119932467Y-74461914D02*
X119894371Y-74538104D01*
X119894371Y-74538104D02*
X119856276Y-74576200D01*
X119856276Y-74576200D02*
X119780086Y-74614295D01*
X119780086Y-74614295D02*
X119475324Y-74614295D01*
X119475324Y-74614295D02*
X119475324Y-73814295D01*
X119475324Y-73814295D02*
X119741990Y-73814295D01*
X119741990Y-73814295D02*
X119818181Y-73852390D01*
X119818181Y-73852390D02*
X119856276Y-73890485D01*
X119856276Y-73890485D02*
X119894371Y-73966676D01*
X119894371Y-73966676D02*
X119894371Y-74042866D01*
X119894371Y-74042866D02*
X119856276Y-74119057D01*
X119856276Y-74119057D02*
X119818181Y-74157152D01*
X119818181Y-74157152D02*
X119741990Y-74195247D01*
X119741990Y-74195247D02*
X119475324Y-74195247D01*
X120237228Y-73890485D02*
X120275324Y-73852390D01*
X120275324Y-73852390D02*
X120351514Y-73814295D01*
X120351514Y-73814295D02*
X120541990Y-73814295D01*
X120541990Y-73814295D02*
X120618181Y-73852390D01*
X120618181Y-73852390D02*
X120656276Y-73890485D01*
X120656276Y-73890485D02*
X120694371Y-73966676D01*
X120694371Y-73966676D02*
X120694371Y-74042866D01*
X120694371Y-74042866D02*
X120656276Y-74157152D01*
X120656276Y-74157152D02*
X120199133Y-74614295D01*
X120199133Y-74614295D02*
X120694371Y-74614295D01*
X117805295Y-74195247D02*
X117919581Y-74233342D01*
X117919581Y-74233342D02*
X117957676Y-74271438D01*
X117957676Y-74271438D02*
X117995772Y-74347628D01*
X117995772Y-74347628D02*
X117995772Y-74461914D01*
X117995772Y-74461914D02*
X117957676Y-74538104D01*
X117957676Y-74538104D02*
X117919581Y-74576200D01*
X117919581Y-74576200D02*
X117843391Y-74614295D01*
X117843391Y-74614295D02*
X117538629Y-74614295D01*
X117538629Y-74614295D02*
X117538629Y-73814295D01*
X117538629Y-73814295D02*
X117805295Y-73814295D01*
X117805295Y-73814295D02*
X117881486Y-73852390D01*
X117881486Y-73852390D02*
X117919581Y-73890485D01*
X117919581Y-73890485D02*
X117957676Y-73966676D01*
X117957676Y-73966676D02*
X117957676Y-74042866D01*
X117957676Y-74042866D02*
X117919581Y-74119057D01*
X117919581Y-74119057D02*
X117881486Y-74157152D01*
X117881486Y-74157152D02*
X117805295Y-74195247D01*
X117805295Y-74195247D02*
X117538629Y-74195247D01*
X118262438Y-73814295D02*
X118757676Y-73814295D01*
X118757676Y-73814295D02*
X118491010Y-74119057D01*
X118491010Y-74119057D02*
X118605295Y-74119057D01*
X118605295Y-74119057D02*
X118681486Y-74157152D01*
X118681486Y-74157152D02*
X118719581Y-74195247D01*
X118719581Y-74195247D02*
X118757676Y-74271438D01*
X118757676Y-74271438D02*
X118757676Y-74461914D01*
X118757676Y-74461914D02*
X118719581Y-74538104D01*
X118719581Y-74538104D02*
X118681486Y-74576200D01*
X118681486Y-74576200D02*
X118605295Y-74614295D01*
X118605295Y-74614295D02*
X118376724Y-74614295D01*
X118376724Y-74614295D02*
X118300533Y-74576200D01*
X118300533Y-74576200D02*
X118262438Y-74538104D01*
X154235228Y-94705723D02*
X154616181Y-94705723D01*
X154159038Y-94934295D02*
X154425705Y-94134295D01*
X154425705Y-94134295D02*
X154692371Y-94934295D01*
X155301895Y-94134295D02*
X155149514Y-94134295D01*
X155149514Y-94134295D02*
X155073323Y-94172390D01*
X155073323Y-94172390D02*
X155035228Y-94210485D01*
X155035228Y-94210485D02*
X154959038Y-94324771D01*
X154959038Y-94324771D02*
X154920942Y-94477152D01*
X154920942Y-94477152D02*
X154920942Y-94781914D01*
X154920942Y-94781914D02*
X154959038Y-94858104D01*
X154959038Y-94858104D02*
X154997133Y-94896200D01*
X154997133Y-94896200D02*
X155073323Y-94934295D01*
X155073323Y-94934295D02*
X155225704Y-94934295D01*
X155225704Y-94934295D02*
X155301895Y-94896200D01*
X155301895Y-94896200D02*
X155339990Y-94858104D01*
X155339990Y-94858104D02*
X155378085Y-94781914D01*
X155378085Y-94781914D02*
X155378085Y-94591438D01*
X155378085Y-94591438D02*
X155339990Y-94515247D01*
X155339990Y-94515247D02*
X155301895Y-94477152D01*
X155301895Y-94477152D02*
X155225704Y-94439057D01*
X155225704Y-94439057D02*
X155073323Y-94439057D01*
X155073323Y-94439057D02*
X154997133Y-94477152D01*
X154997133Y-94477152D02*
X154959038Y-94515247D01*
X154959038Y-94515247D02*
X154920942Y-94591438D01*
X155181410Y-64454295D02*
X154914743Y-64073342D01*
X154724267Y-64454295D02*
X154724267Y-63654295D01*
X154724267Y-63654295D02*
X155029029Y-63654295D01*
X155029029Y-63654295D02*
X155105219Y-63692390D01*
X155105219Y-63692390D02*
X155143314Y-63730485D01*
X155143314Y-63730485D02*
X155181410Y-63806676D01*
X155181410Y-63806676D02*
X155181410Y-63920961D01*
X155181410Y-63920961D02*
X155143314Y-63997152D01*
X155143314Y-63997152D02*
X155105219Y-64035247D01*
X155105219Y-64035247D02*
X155029029Y-64073342D01*
X155029029Y-64073342D02*
X154724267Y-64073342D01*
X155524267Y-64454295D02*
X155524267Y-63654295D01*
X155524267Y-63654295D02*
X155714743Y-63654295D01*
X155714743Y-63654295D02*
X155829029Y-63692390D01*
X155829029Y-63692390D02*
X155905219Y-63768580D01*
X155905219Y-63768580D02*
X155943314Y-63844771D01*
X155943314Y-63844771D02*
X155981410Y-63997152D01*
X155981410Y-63997152D02*
X155981410Y-64111438D01*
X155981410Y-64111438D02*
X155943314Y-64263819D01*
X155943314Y-64263819D02*
X155905219Y-64340009D01*
X155905219Y-64340009D02*
X155829029Y-64416200D01*
X155829029Y-64416200D02*
X155714743Y-64454295D01*
X155714743Y-64454295D02*
X155524267Y-64454295D01*
X156476648Y-64073342D02*
X156476648Y-64454295D01*
X156209981Y-63654295D02*
X156476648Y-64073342D01*
X156476648Y-64073342D02*
X156743314Y-63654295D01*
X156933790Y-63654295D02*
X157429028Y-63654295D01*
X157429028Y-63654295D02*
X157162362Y-63959057D01*
X157162362Y-63959057D02*
X157276647Y-63959057D01*
X157276647Y-63959057D02*
X157352838Y-63997152D01*
X157352838Y-63997152D02*
X157390933Y-64035247D01*
X157390933Y-64035247D02*
X157429028Y-64111438D01*
X157429028Y-64111438D02*
X157429028Y-64301914D01*
X157429028Y-64301914D02*
X157390933Y-64378104D01*
X157390933Y-64378104D02*
X157352838Y-64416200D01*
X157352838Y-64416200D02*
X157276647Y-64454295D01*
X157276647Y-64454295D02*
X157048076Y-64454295D01*
X157048076Y-64454295D02*
X156971885Y-64416200D01*
X156971885Y-64416200D02*
X156933790Y-64378104D01*
X121386695Y-87212704D02*
X121348599Y-87250800D01*
X121348599Y-87250800D02*
X121234314Y-87288895D01*
X121234314Y-87288895D02*
X121158123Y-87288895D01*
X121158123Y-87288895D02*
X121043837Y-87250800D01*
X121043837Y-87250800D02*
X120967647Y-87174609D01*
X120967647Y-87174609D02*
X120929552Y-87098419D01*
X120929552Y-87098419D02*
X120891456Y-86946038D01*
X120891456Y-86946038D02*
X120891456Y-86831752D01*
X120891456Y-86831752D02*
X120929552Y-86679371D01*
X120929552Y-86679371D02*
X120967647Y-86603180D01*
X120967647Y-86603180D02*
X121043837Y-86526990D01*
X121043837Y-86526990D02*
X121158123Y-86488895D01*
X121158123Y-86488895D02*
X121234314Y-86488895D01*
X121234314Y-86488895D02*
X121348599Y-86526990D01*
X121348599Y-86526990D02*
X121386695Y-86565085D01*
X121615266Y-86488895D02*
X122072409Y-86488895D01*
X121843837Y-87288895D02*
X121843837Y-86488895D01*
X122720028Y-87288895D02*
X122339076Y-87288895D01*
X122339076Y-87288895D02*
X122339076Y-86488895D01*
X122910504Y-86488895D02*
X123405742Y-86488895D01*
X123405742Y-86488895D02*
X123139076Y-86793657D01*
X123139076Y-86793657D02*
X123253361Y-86793657D01*
X123253361Y-86793657D02*
X123329552Y-86831752D01*
X123329552Y-86831752D02*
X123367647Y-86869847D01*
X123367647Y-86869847D02*
X123405742Y-86946038D01*
X123405742Y-86946038D02*
X123405742Y-87136514D01*
X123405742Y-87136514D02*
X123367647Y-87212704D01*
X123367647Y-87212704D02*
X123329552Y-87250800D01*
X123329552Y-87250800D02*
X123253361Y-87288895D01*
X123253361Y-87288895D02*
X123024790Y-87288895D01*
X123024790Y-87288895D02*
X122948599Y-87250800D01*
X122948599Y-87250800D02*
X122910504Y-87212704D01*
X156209981Y-87314295D02*
X156209981Y-86514295D01*
X156209981Y-86514295D02*
X156400457Y-86514295D01*
X156400457Y-86514295D02*
X156514743Y-86552390D01*
X156514743Y-86552390D02*
X156590933Y-86628580D01*
X156590933Y-86628580D02*
X156629028Y-86704771D01*
X156629028Y-86704771D02*
X156667124Y-86857152D01*
X156667124Y-86857152D02*
X156667124Y-86971438D01*
X156667124Y-86971438D02*
X156629028Y-87123819D01*
X156629028Y-87123819D02*
X156590933Y-87200009D01*
X156590933Y-87200009D02*
X156514743Y-87276200D01*
X156514743Y-87276200D02*
X156400457Y-87314295D01*
X156400457Y-87314295D02*
X156209981Y-87314295D01*
X156971885Y-86590485D02*
X157009981Y-86552390D01*
X157009981Y-86552390D02*
X157086171Y-86514295D01*
X157086171Y-86514295D02*
X157276647Y-86514295D01*
X157276647Y-86514295D02*
X157352838Y-86552390D01*
X157352838Y-86552390D02*
X157390933Y-86590485D01*
X157390933Y-86590485D02*
X157429028Y-86666676D01*
X157429028Y-86666676D02*
X157429028Y-86742866D01*
X157429028Y-86742866D02*
X157390933Y-86857152D01*
X157390933Y-86857152D02*
X156933790Y-87314295D01*
X156933790Y-87314295D02*
X157429028Y-87314295D01*
X154273324Y-81815247D02*
X154539990Y-81815247D01*
X154654276Y-82234295D02*
X154273324Y-82234295D01*
X154273324Y-82234295D02*
X154273324Y-81434295D01*
X154273324Y-81434295D02*
X154654276Y-81434295D01*
X154959038Y-81510485D02*
X154997134Y-81472390D01*
X154997134Y-81472390D02*
X155073324Y-81434295D01*
X155073324Y-81434295D02*
X155263800Y-81434295D01*
X155263800Y-81434295D02*
X155339991Y-81472390D01*
X155339991Y-81472390D02*
X155378086Y-81510485D01*
X155378086Y-81510485D02*
X155416181Y-81586676D01*
X155416181Y-81586676D02*
X155416181Y-81662866D01*
X155416181Y-81662866D02*
X155378086Y-81777152D01*
X155378086Y-81777152D02*
X154920943Y-82234295D01*
X154920943Y-82234295D02*
X155416181Y-82234295D01*
X154273324Y-87314295D02*
X154273324Y-86514295D01*
X154273324Y-86514295D02*
X154463800Y-86514295D01*
X154463800Y-86514295D02*
X154578086Y-86552390D01*
X154578086Y-86552390D02*
X154654276Y-86628580D01*
X154654276Y-86628580D02*
X154692371Y-86704771D01*
X154692371Y-86704771D02*
X154730467Y-86857152D01*
X154730467Y-86857152D02*
X154730467Y-86971438D01*
X154730467Y-86971438D02*
X154692371Y-87123819D01*
X154692371Y-87123819D02*
X154654276Y-87200009D01*
X154654276Y-87200009D02*
X154578086Y-87276200D01*
X154578086Y-87276200D02*
X154463800Y-87314295D01*
X154463800Y-87314295D02*
X154273324Y-87314295D01*
X154997133Y-86514295D02*
X155492371Y-86514295D01*
X155492371Y-86514295D02*
X155225705Y-86819057D01*
X155225705Y-86819057D02*
X155339990Y-86819057D01*
X155339990Y-86819057D02*
X155416181Y-86857152D01*
X155416181Y-86857152D02*
X155454276Y-86895247D01*
X155454276Y-86895247D02*
X155492371Y-86971438D01*
X155492371Y-86971438D02*
X155492371Y-87161914D01*
X155492371Y-87161914D02*
X155454276Y-87238104D01*
X155454276Y-87238104D02*
X155416181Y-87276200D01*
X155416181Y-87276200D02*
X155339990Y-87314295D01*
X155339990Y-87314295D02*
X155111419Y-87314295D01*
X155111419Y-87314295D02*
X155035228Y-87276200D01*
X155035228Y-87276200D02*
X154997133Y-87238104D01*
X119932467Y-94858104D02*
X119894371Y-94896200D01*
X119894371Y-94896200D02*
X119780086Y-94934295D01*
X119780086Y-94934295D02*
X119703895Y-94934295D01*
X119703895Y-94934295D02*
X119589609Y-94896200D01*
X119589609Y-94896200D02*
X119513419Y-94820009D01*
X119513419Y-94820009D02*
X119475324Y-94743819D01*
X119475324Y-94743819D02*
X119437228Y-94591438D01*
X119437228Y-94591438D02*
X119437228Y-94477152D01*
X119437228Y-94477152D02*
X119475324Y-94324771D01*
X119475324Y-94324771D02*
X119513419Y-94248580D01*
X119513419Y-94248580D02*
X119589609Y-94172390D01*
X119589609Y-94172390D02*
X119703895Y-94134295D01*
X119703895Y-94134295D02*
X119780086Y-94134295D01*
X119780086Y-94134295D02*
X119894371Y-94172390D01*
X119894371Y-94172390D02*
X119932467Y-94210485D01*
X120694371Y-94934295D02*
X120237228Y-94934295D01*
X120465800Y-94934295D02*
X120465800Y-94134295D01*
X120465800Y-94134295D02*
X120389609Y-94248580D01*
X120389609Y-94248580D02*
X120313419Y-94324771D01*
X120313419Y-94324771D02*
X120237228Y-94362866D01*
X119361038Y-63654295D02*
X119818181Y-63654295D01*
X119589609Y-64454295D02*
X119589609Y-63654295D01*
X120503895Y-64454295D02*
X120046752Y-64454295D01*
X120275324Y-64454295D02*
X120275324Y-63654295D01*
X120275324Y-63654295D02*
X120199133Y-63768580D01*
X120199133Y-63768580D02*
X120122943Y-63844771D01*
X120122943Y-63844771D02*
X120046752Y-63882866D01*
X156286171Y-99785723D02*
X156667124Y-99785723D01*
X156209981Y-100014295D02*
X156476648Y-99214295D01*
X156476648Y-99214295D02*
X156743314Y-100014295D01*
X156933790Y-99214295D02*
X157429028Y-99214295D01*
X157429028Y-99214295D02*
X157162362Y-99519057D01*
X157162362Y-99519057D02*
X157276647Y-99519057D01*
X157276647Y-99519057D02*
X157352838Y-99557152D01*
X157352838Y-99557152D02*
X157390933Y-99595247D01*
X157390933Y-99595247D02*
X157429028Y-99671438D01*
X157429028Y-99671438D02*
X157429028Y-99861914D01*
X157429028Y-99861914D02*
X157390933Y-99938104D01*
X157390933Y-99938104D02*
X157352838Y-99976200D01*
X157352838Y-99976200D02*
X157276647Y-100014295D01*
X157276647Y-100014295D02*
X157048076Y-100014295D01*
X157048076Y-100014295D02*
X156971885Y-99976200D01*
X156971885Y-99976200D02*
X156933790Y-99938104D01*
X155181410Y-84774295D02*
X155181410Y-83974295D01*
X155562362Y-84774295D02*
X155562362Y-83974295D01*
X155562362Y-83974295D02*
X156019505Y-84774295D01*
X156019505Y-84774295D02*
X156019505Y-83974295D01*
X156286171Y-83974295D02*
X156743314Y-83974295D01*
X156514742Y-84774295D02*
X156514742Y-83974295D01*
X157390933Y-83974295D02*
X157009981Y-83974295D01*
X157009981Y-83974295D02*
X156971885Y-84355247D01*
X156971885Y-84355247D02*
X157009981Y-84317152D01*
X157009981Y-84317152D02*
X157086171Y-84279057D01*
X157086171Y-84279057D02*
X157276647Y-84279057D01*
X157276647Y-84279057D02*
X157352838Y-84317152D01*
X157352838Y-84317152D02*
X157390933Y-84355247D01*
X157390933Y-84355247D02*
X157429028Y-84431438D01*
X157429028Y-84431438D02*
X157429028Y-84621914D01*
X157429028Y-84621914D02*
X157390933Y-84698104D01*
X157390933Y-84698104D02*
X157352838Y-84736200D01*
X157352838Y-84736200D02*
X157276647Y-84774295D01*
X157276647Y-84774295D02*
X157086171Y-84774295D01*
X157086171Y-84774295D02*
X157009981Y-84736200D01*
X157009981Y-84736200D02*
X156971885Y-84698104D01*
X156209981Y-69534295D02*
X156209981Y-68734295D01*
X156209981Y-68734295D02*
X156400457Y-68734295D01*
X156400457Y-68734295D02*
X156514743Y-68772390D01*
X156514743Y-68772390D02*
X156590933Y-68848580D01*
X156590933Y-68848580D02*
X156629028Y-68924771D01*
X156629028Y-68924771D02*
X156667124Y-69077152D01*
X156667124Y-69077152D02*
X156667124Y-69191438D01*
X156667124Y-69191438D02*
X156629028Y-69343819D01*
X156629028Y-69343819D02*
X156590933Y-69420009D01*
X156590933Y-69420009D02*
X156514743Y-69496200D01*
X156514743Y-69496200D02*
X156400457Y-69534295D01*
X156400457Y-69534295D02*
X156209981Y-69534295D01*
X156933790Y-68734295D02*
X157467124Y-68734295D01*
X157467124Y-68734295D02*
X157124266Y-69534295D01*
X117995772Y-102478104D02*
X117957676Y-102516200D01*
X117957676Y-102516200D02*
X117843391Y-102554295D01*
X117843391Y-102554295D02*
X117767200Y-102554295D01*
X117767200Y-102554295D02*
X117652914Y-102516200D01*
X117652914Y-102516200D02*
X117576724Y-102440009D01*
X117576724Y-102440009D02*
X117538629Y-102363819D01*
X117538629Y-102363819D02*
X117500533Y-102211438D01*
X117500533Y-102211438D02*
X117500533Y-102097152D01*
X117500533Y-102097152D02*
X117538629Y-101944771D01*
X117538629Y-101944771D02*
X117576724Y-101868580D01*
X117576724Y-101868580D02*
X117652914Y-101792390D01*
X117652914Y-101792390D02*
X117767200Y-101754295D01*
X117767200Y-101754295D02*
X117843391Y-101754295D01*
X117843391Y-101754295D02*
X117957676Y-101792390D01*
X117957676Y-101792390D02*
X117995772Y-101830485D01*
X118681486Y-101754295D02*
X118529105Y-101754295D01*
X118529105Y-101754295D02*
X118452914Y-101792390D01*
X118452914Y-101792390D02*
X118414819Y-101830485D01*
X118414819Y-101830485D02*
X118338629Y-101944771D01*
X118338629Y-101944771D02*
X118300533Y-102097152D01*
X118300533Y-102097152D02*
X118300533Y-102401914D01*
X118300533Y-102401914D02*
X118338629Y-102478104D01*
X118338629Y-102478104D02*
X118376724Y-102516200D01*
X118376724Y-102516200D02*
X118452914Y-102554295D01*
X118452914Y-102554295D02*
X118605295Y-102554295D01*
X118605295Y-102554295D02*
X118681486Y-102516200D01*
X118681486Y-102516200D02*
X118719581Y-102478104D01*
X118719581Y-102478104D02*
X118757676Y-102401914D01*
X118757676Y-102401914D02*
X118757676Y-102211438D01*
X118757676Y-102211438D02*
X118719581Y-102135247D01*
X118719581Y-102135247D02*
X118681486Y-102097152D01*
X118681486Y-102097152D02*
X118605295Y-102059057D01*
X118605295Y-102059057D02*
X118452914Y-102059057D01*
X118452914Y-102059057D02*
X118376724Y-102097152D01*
X118376724Y-102097152D02*
X118338629Y-102135247D01*
X118338629Y-102135247D02*
X118300533Y-102211438D01*
X156286171Y-79275247D02*
X156552837Y-79275247D01*
X156667123Y-79694295D02*
X156286171Y-79694295D01*
X156286171Y-79694295D02*
X156286171Y-78894295D01*
X156286171Y-78894295D02*
X156667123Y-78894295D01*
X156933790Y-78894295D02*
X157429028Y-78894295D01*
X157429028Y-78894295D02*
X157162362Y-79199057D01*
X157162362Y-79199057D02*
X157276647Y-79199057D01*
X157276647Y-79199057D02*
X157352838Y-79237152D01*
X157352838Y-79237152D02*
X157390933Y-79275247D01*
X157390933Y-79275247D02*
X157429028Y-79351438D01*
X157429028Y-79351438D02*
X157429028Y-79541914D01*
X157429028Y-79541914D02*
X157390933Y-79618104D01*
X157390933Y-79618104D02*
X157352838Y-79656200D01*
X157352838Y-79656200D02*
X157276647Y-79694295D01*
X157276647Y-79694295D02*
X157048076Y-79694295D01*
X157048076Y-79694295D02*
X156971885Y-79656200D01*
X156971885Y-79656200D02*
X156933790Y-79618104D01*
X156286171Y-74195247D02*
X156552837Y-74195247D01*
X156667123Y-74614295D02*
X156286171Y-74614295D01*
X156286171Y-74614295D02*
X156286171Y-73814295D01*
X156286171Y-73814295D02*
X156667123Y-73814295D01*
X156933790Y-73814295D02*
X157467124Y-73814295D01*
X157467124Y-73814295D02*
X157124266Y-74614295D01*
X156286171Y-76735247D02*
X156552837Y-76735247D01*
X156667123Y-77154295D02*
X156286171Y-77154295D01*
X156286171Y-77154295D02*
X156286171Y-76354295D01*
X156286171Y-76354295D02*
X156667123Y-76354295D01*
X157390933Y-76354295D02*
X157009981Y-76354295D01*
X157009981Y-76354295D02*
X156971885Y-76735247D01*
X156971885Y-76735247D02*
X157009981Y-76697152D01*
X157009981Y-76697152D02*
X157086171Y-76659057D01*
X157086171Y-76659057D02*
X157276647Y-76659057D01*
X157276647Y-76659057D02*
X157352838Y-76697152D01*
X157352838Y-76697152D02*
X157390933Y-76735247D01*
X157390933Y-76735247D02*
X157429028Y-76811438D01*
X157429028Y-76811438D02*
X157429028Y-77001914D01*
X157429028Y-77001914D02*
X157390933Y-77078104D01*
X157390933Y-77078104D02*
X157352838Y-77116200D01*
X157352838Y-77116200D02*
X157276647Y-77154295D01*
X157276647Y-77154295D02*
X157086171Y-77154295D01*
X157086171Y-77154295D02*
X157009981Y-77116200D01*
X157009981Y-77116200D02*
X156971885Y-77078104D01*
X154273324Y-74614295D02*
X154273324Y-73814295D01*
X154273324Y-73814295D02*
X154463800Y-73814295D01*
X154463800Y-73814295D02*
X154578086Y-73852390D01*
X154578086Y-73852390D02*
X154654276Y-73928580D01*
X154654276Y-73928580D02*
X154692371Y-74004771D01*
X154692371Y-74004771D02*
X154730467Y-74157152D01*
X154730467Y-74157152D02*
X154730467Y-74271438D01*
X154730467Y-74271438D02*
X154692371Y-74423819D01*
X154692371Y-74423819D02*
X154654276Y-74500009D01*
X154654276Y-74500009D02*
X154578086Y-74576200D01*
X154578086Y-74576200D02*
X154463800Y-74614295D01*
X154463800Y-74614295D02*
X154273324Y-74614295D01*
X155416181Y-74080961D02*
X155416181Y-74614295D01*
X155225705Y-73776200D02*
X155035228Y-74347628D01*
X155035228Y-74347628D02*
X155530467Y-74347628D01*
%TO.C,R10*%
X143783542Y-57053819D02*
X143450209Y-56577628D01*
X143212114Y-57053819D02*
X143212114Y-56053819D01*
X143212114Y-56053819D02*
X143593066Y-56053819D01*
X143593066Y-56053819D02*
X143688304Y-56101438D01*
X143688304Y-56101438D02*
X143735923Y-56149057D01*
X143735923Y-56149057D02*
X143783542Y-56244295D01*
X143783542Y-56244295D02*
X143783542Y-56387152D01*
X143783542Y-56387152D02*
X143735923Y-56482390D01*
X143735923Y-56482390D02*
X143688304Y-56530009D01*
X143688304Y-56530009D02*
X143593066Y-56577628D01*
X143593066Y-56577628D02*
X143212114Y-56577628D01*
X144735923Y-57053819D02*
X144164495Y-57053819D01*
X144450209Y-57053819D02*
X144450209Y-56053819D01*
X144450209Y-56053819D02*
X144354971Y-56196676D01*
X144354971Y-56196676D02*
X144259733Y-56291914D01*
X144259733Y-56291914D02*
X144164495Y-56339533D01*
X145354971Y-56053819D02*
X145450209Y-56053819D01*
X145450209Y-56053819D02*
X145545447Y-56101438D01*
X145545447Y-56101438D02*
X145593066Y-56149057D01*
X145593066Y-56149057D02*
X145640685Y-56244295D01*
X145640685Y-56244295D02*
X145688304Y-56434771D01*
X145688304Y-56434771D02*
X145688304Y-56672866D01*
X145688304Y-56672866D02*
X145640685Y-56863342D01*
X145640685Y-56863342D02*
X145593066Y-56958580D01*
X145593066Y-56958580D02*
X145545447Y-57006200D01*
X145545447Y-57006200D02*
X145450209Y-57053819D01*
X145450209Y-57053819D02*
X145354971Y-57053819D01*
X145354971Y-57053819D02*
X145259733Y-57006200D01*
X145259733Y-57006200D02*
X145212114Y-56958580D01*
X145212114Y-56958580D02*
X145164495Y-56863342D01*
X145164495Y-56863342D02*
X145116876Y-56672866D01*
X145116876Y-56672866D02*
X145116876Y-56434771D01*
X145116876Y-56434771D02*
X145164495Y-56244295D01*
X145164495Y-56244295D02*
X145212114Y-56149057D01*
X145212114Y-56149057D02*
X145259733Y-56101438D01*
X145259733Y-56101438D02*
X145354971Y-56053819D01*
%TO.C,C4*%
X139178380Y-62334866D02*
X139226000Y-62382485D01*
X139226000Y-62382485D02*
X139273619Y-62525342D01*
X139273619Y-62525342D02*
X139273619Y-62620580D01*
X139273619Y-62620580D02*
X139226000Y-62763437D01*
X139226000Y-62763437D02*
X139130761Y-62858675D01*
X139130761Y-62858675D02*
X139035523Y-62906294D01*
X139035523Y-62906294D02*
X138845047Y-62953913D01*
X138845047Y-62953913D02*
X138702190Y-62953913D01*
X138702190Y-62953913D02*
X138511714Y-62906294D01*
X138511714Y-62906294D02*
X138416476Y-62858675D01*
X138416476Y-62858675D02*
X138321238Y-62763437D01*
X138321238Y-62763437D02*
X138273619Y-62620580D01*
X138273619Y-62620580D02*
X138273619Y-62525342D01*
X138273619Y-62525342D02*
X138321238Y-62382485D01*
X138321238Y-62382485D02*
X138368857Y-62334866D01*
X138606952Y-61477723D02*
X139273619Y-61477723D01*
X138226000Y-61715818D02*
X138940285Y-61953913D01*
X138940285Y-61953913D02*
X138940285Y-61334866D01*
%TO.C,C9*%
X143089333Y-97065180D02*
X143041714Y-97112800D01*
X143041714Y-97112800D02*
X142898857Y-97160419D01*
X142898857Y-97160419D02*
X142803619Y-97160419D01*
X142803619Y-97160419D02*
X142660762Y-97112800D01*
X142660762Y-97112800D02*
X142565524Y-97017561D01*
X142565524Y-97017561D02*
X142517905Y-96922323D01*
X142517905Y-96922323D02*
X142470286Y-96731847D01*
X142470286Y-96731847D02*
X142470286Y-96588990D01*
X142470286Y-96588990D02*
X142517905Y-96398514D01*
X142517905Y-96398514D02*
X142565524Y-96303276D01*
X142565524Y-96303276D02*
X142660762Y-96208038D01*
X142660762Y-96208038D02*
X142803619Y-96160419D01*
X142803619Y-96160419D02*
X142898857Y-96160419D01*
X142898857Y-96160419D02*
X143041714Y-96208038D01*
X143041714Y-96208038D02*
X143089333Y-96255657D01*
X143565524Y-97160419D02*
X143756000Y-97160419D01*
X143756000Y-97160419D02*
X143851238Y-97112800D01*
X143851238Y-97112800D02*
X143898857Y-97065180D01*
X143898857Y-97065180D02*
X143994095Y-96922323D01*
X143994095Y-96922323D02*
X144041714Y-96731847D01*
X144041714Y-96731847D02*
X144041714Y-96350895D01*
X144041714Y-96350895D02*
X143994095Y-96255657D01*
X143994095Y-96255657D02*
X143946476Y-96208038D01*
X143946476Y-96208038D02*
X143851238Y-96160419D01*
X143851238Y-96160419D02*
X143660762Y-96160419D01*
X143660762Y-96160419D02*
X143565524Y-96208038D01*
X143565524Y-96208038D02*
X143517905Y-96255657D01*
X143517905Y-96255657D02*
X143470286Y-96350895D01*
X143470286Y-96350895D02*
X143470286Y-96588990D01*
X143470286Y-96588990D02*
X143517905Y-96684228D01*
X143517905Y-96684228D02*
X143565524Y-96731847D01*
X143565524Y-96731847D02*
X143660762Y-96779466D01*
X143660762Y-96779466D02*
X143851238Y-96779466D01*
X143851238Y-96779466D02*
X143946476Y-96731847D01*
X143946476Y-96731847D02*
X143994095Y-96684228D01*
X143994095Y-96684228D02*
X144041714Y-96588990D01*
%TO.C,C19*%
X139305380Y-88222057D02*
X139353000Y-88269676D01*
X139353000Y-88269676D02*
X139400619Y-88412533D01*
X139400619Y-88412533D02*
X139400619Y-88507771D01*
X139400619Y-88507771D02*
X139353000Y-88650628D01*
X139353000Y-88650628D02*
X139257761Y-88745866D01*
X139257761Y-88745866D02*
X139162523Y-88793485D01*
X139162523Y-88793485D02*
X138972047Y-88841104D01*
X138972047Y-88841104D02*
X138829190Y-88841104D01*
X138829190Y-88841104D02*
X138638714Y-88793485D01*
X138638714Y-88793485D02*
X138543476Y-88745866D01*
X138543476Y-88745866D02*
X138448238Y-88650628D01*
X138448238Y-88650628D02*
X138400619Y-88507771D01*
X138400619Y-88507771D02*
X138400619Y-88412533D01*
X138400619Y-88412533D02*
X138448238Y-88269676D01*
X138448238Y-88269676D02*
X138495857Y-88222057D01*
X139400619Y-87269676D02*
X139400619Y-87841104D01*
X139400619Y-87555390D02*
X138400619Y-87555390D01*
X138400619Y-87555390D02*
X138543476Y-87650628D01*
X138543476Y-87650628D02*
X138638714Y-87745866D01*
X138638714Y-87745866D02*
X138686333Y-87841104D01*
X139400619Y-86793485D02*
X139400619Y-86603009D01*
X139400619Y-86603009D02*
X139353000Y-86507771D01*
X139353000Y-86507771D02*
X139305380Y-86460152D01*
X139305380Y-86460152D02*
X139162523Y-86364914D01*
X139162523Y-86364914D02*
X138972047Y-86317295D01*
X138972047Y-86317295D02*
X138591095Y-86317295D01*
X138591095Y-86317295D02*
X138495857Y-86364914D01*
X138495857Y-86364914D02*
X138448238Y-86412533D01*
X138448238Y-86412533D02*
X138400619Y-86507771D01*
X138400619Y-86507771D02*
X138400619Y-86698247D01*
X138400619Y-86698247D02*
X138448238Y-86793485D01*
X138448238Y-86793485D02*
X138495857Y-86841104D01*
X138495857Y-86841104D02*
X138591095Y-86888723D01*
X138591095Y-86888723D02*
X138829190Y-86888723D01*
X138829190Y-86888723D02*
X138924428Y-86841104D01*
X138924428Y-86841104D02*
X138972047Y-86793485D01*
X138972047Y-86793485D02*
X139019666Y-86698247D01*
X139019666Y-86698247D02*
X139019666Y-86507771D01*
X139019666Y-86507771D02*
X138972047Y-86412533D01*
X138972047Y-86412533D02*
X138924428Y-86364914D01*
X138924428Y-86364914D02*
X138829190Y-86317295D01*
%TO.C,D3*%
X130016871Y-111155819D02*
X130016871Y-110155819D01*
X130016871Y-110155819D02*
X130254966Y-110155819D01*
X130254966Y-110155819D02*
X130397823Y-110203438D01*
X130397823Y-110203438D02*
X130493061Y-110298676D01*
X130493061Y-110298676D02*
X130540680Y-110393914D01*
X130540680Y-110393914D02*
X130588299Y-110584390D01*
X130588299Y-110584390D02*
X130588299Y-110727247D01*
X130588299Y-110727247D02*
X130540680Y-110917723D01*
X130540680Y-110917723D02*
X130493061Y-111012961D01*
X130493061Y-111012961D02*
X130397823Y-111108200D01*
X130397823Y-111108200D02*
X130254966Y-111155819D01*
X130254966Y-111155819D02*
X130016871Y-111155819D01*
X130921633Y-110155819D02*
X131540680Y-110155819D01*
X131540680Y-110155819D02*
X131207347Y-110536771D01*
X131207347Y-110536771D02*
X131350204Y-110536771D01*
X131350204Y-110536771D02*
X131445442Y-110584390D01*
X131445442Y-110584390D02*
X131493061Y-110632009D01*
X131493061Y-110632009D02*
X131540680Y-110727247D01*
X131540680Y-110727247D02*
X131540680Y-110965342D01*
X131540680Y-110965342D02*
X131493061Y-111060580D01*
X131493061Y-111060580D02*
X131445442Y-111108200D01*
X131445442Y-111108200D02*
X131350204Y-111155819D01*
X131350204Y-111155819D02*
X131064490Y-111155819D01*
X131064490Y-111155819D02*
X130969252Y-111108200D01*
X130969252Y-111108200D02*
X130921633Y-111060580D01*
%TO.C,C7*%
X144522733Y-52810780D02*
X144475114Y-52858400D01*
X144475114Y-52858400D02*
X144332257Y-52906019D01*
X144332257Y-52906019D02*
X144237019Y-52906019D01*
X144237019Y-52906019D02*
X144094162Y-52858400D01*
X144094162Y-52858400D02*
X143998924Y-52763161D01*
X143998924Y-52763161D02*
X143951305Y-52667923D01*
X143951305Y-52667923D02*
X143903686Y-52477447D01*
X143903686Y-52477447D02*
X143903686Y-52334590D01*
X143903686Y-52334590D02*
X143951305Y-52144114D01*
X143951305Y-52144114D02*
X143998924Y-52048876D01*
X143998924Y-52048876D02*
X144094162Y-51953638D01*
X144094162Y-51953638D02*
X144237019Y-51906019D01*
X144237019Y-51906019D02*
X144332257Y-51906019D01*
X144332257Y-51906019D02*
X144475114Y-51953638D01*
X144475114Y-51953638D02*
X144522733Y-52001257D01*
X144856067Y-51906019D02*
X145522733Y-51906019D01*
X145522733Y-51906019D02*
X145094162Y-52906019D01*
%TO.C,C5*%
X145579180Y-63474466D02*
X145626800Y-63522085D01*
X145626800Y-63522085D02*
X145674419Y-63664942D01*
X145674419Y-63664942D02*
X145674419Y-63760180D01*
X145674419Y-63760180D02*
X145626800Y-63903037D01*
X145626800Y-63903037D02*
X145531561Y-63998275D01*
X145531561Y-63998275D02*
X145436323Y-64045894D01*
X145436323Y-64045894D02*
X145245847Y-64093513D01*
X145245847Y-64093513D02*
X145102990Y-64093513D01*
X145102990Y-64093513D02*
X144912514Y-64045894D01*
X144912514Y-64045894D02*
X144817276Y-63998275D01*
X144817276Y-63998275D02*
X144722038Y-63903037D01*
X144722038Y-63903037D02*
X144674419Y-63760180D01*
X144674419Y-63760180D02*
X144674419Y-63664942D01*
X144674419Y-63664942D02*
X144722038Y-63522085D01*
X144722038Y-63522085D02*
X144769657Y-63474466D01*
X144674419Y-62569704D02*
X144674419Y-63045894D01*
X144674419Y-63045894D02*
X145150609Y-63093513D01*
X145150609Y-63093513D02*
X145102990Y-63045894D01*
X145102990Y-63045894D02*
X145055371Y-62950656D01*
X145055371Y-62950656D02*
X145055371Y-62712561D01*
X145055371Y-62712561D02*
X145102990Y-62617323D01*
X145102990Y-62617323D02*
X145150609Y-62569704D01*
X145150609Y-62569704D02*
X145245847Y-62522085D01*
X145245847Y-62522085D02*
X145483942Y-62522085D01*
X145483942Y-62522085D02*
X145579180Y-62569704D01*
X145579180Y-62569704D02*
X145626800Y-62617323D01*
X145626800Y-62617323D02*
X145674419Y-62712561D01*
X145674419Y-62712561D02*
X145674419Y-62950656D01*
X145674419Y-62950656D02*
X145626800Y-63045894D01*
X145626800Y-63045894D02*
X145579180Y-63093513D01*
%TO.C,D1*%
X130173819Y-54001894D02*
X129173819Y-54001894D01*
X129173819Y-54001894D02*
X129173819Y-53763799D01*
X129173819Y-53763799D02*
X129221438Y-53620942D01*
X129221438Y-53620942D02*
X129316676Y-53525704D01*
X129316676Y-53525704D02*
X129411914Y-53478085D01*
X129411914Y-53478085D02*
X129602390Y-53430466D01*
X129602390Y-53430466D02*
X129745247Y-53430466D01*
X129745247Y-53430466D02*
X129935723Y-53478085D01*
X129935723Y-53478085D02*
X130030961Y-53525704D01*
X130030961Y-53525704D02*
X130126200Y-53620942D01*
X130126200Y-53620942D02*
X130173819Y-53763799D01*
X130173819Y-53763799D02*
X130173819Y-54001894D01*
X130173819Y-52478085D02*
X130173819Y-53049513D01*
X130173819Y-52763799D02*
X129173819Y-52763799D01*
X129173819Y-52763799D02*
X129316676Y-52859037D01*
X129316676Y-52859037D02*
X129411914Y-52954275D01*
X129411914Y-52954275D02*
X129459533Y-53049513D01*
%TO.C,D2*%
X123347819Y-60201794D02*
X122347819Y-60201794D01*
X122347819Y-60201794D02*
X122347819Y-59963699D01*
X122347819Y-59963699D02*
X122395438Y-59820842D01*
X122395438Y-59820842D02*
X122490676Y-59725604D01*
X122490676Y-59725604D02*
X122585914Y-59677985D01*
X122585914Y-59677985D02*
X122776390Y-59630366D01*
X122776390Y-59630366D02*
X122919247Y-59630366D01*
X122919247Y-59630366D02*
X123109723Y-59677985D01*
X123109723Y-59677985D02*
X123204961Y-59725604D01*
X123204961Y-59725604D02*
X123300200Y-59820842D01*
X123300200Y-59820842D02*
X123347819Y-59963699D01*
X123347819Y-59963699D02*
X123347819Y-60201794D01*
X122443057Y-59249413D02*
X122395438Y-59201794D01*
X122395438Y-59201794D02*
X122347819Y-59106556D01*
X122347819Y-59106556D02*
X122347819Y-58868461D01*
X122347819Y-58868461D02*
X122395438Y-58773223D01*
X122395438Y-58773223D02*
X122443057Y-58725604D01*
X122443057Y-58725604D02*
X122538295Y-58677985D01*
X122538295Y-58677985D02*
X122633533Y-58677985D01*
X122633533Y-58677985D02*
X122776390Y-58725604D01*
X122776390Y-58725604D02*
X123347819Y-59297032D01*
X123347819Y-59297032D02*
X123347819Y-58677985D01*
%TO.C,R9*%
X128631019Y-103443066D02*
X128154828Y-103776399D01*
X128631019Y-104014494D02*
X127631019Y-104014494D01*
X127631019Y-104014494D02*
X127631019Y-103633542D01*
X127631019Y-103633542D02*
X127678638Y-103538304D01*
X127678638Y-103538304D02*
X127726257Y-103490685D01*
X127726257Y-103490685D02*
X127821495Y-103443066D01*
X127821495Y-103443066D02*
X127964352Y-103443066D01*
X127964352Y-103443066D02*
X128059590Y-103490685D01*
X128059590Y-103490685D02*
X128107209Y-103538304D01*
X128107209Y-103538304D02*
X128154828Y-103633542D01*
X128154828Y-103633542D02*
X128154828Y-104014494D01*
X128631019Y-102966875D02*
X128631019Y-102776399D01*
X128631019Y-102776399D02*
X128583400Y-102681161D01*
X128583400Y-102681161D02*
X128535780Y-102633542D01*
X128535780Y-102633542D02*
X128392923Y-102538304D01*
X128392923Y-102538304D02*
X128202447Y-102490685D01*
X128202447Y-102490685D02*
X127821495Y-102490685D01*
X127821495Y-102490685D02*
X127726257Y-102538304D01*
X127726257Y-102538304D02*
X127678638Y-102585923D01*
X127678638Y-102585923D02*
X127631019Y-102681161D01*
X127631019Y-102681161D02*
X127631019Y-102871637D01*
X127631019Y-102871637D02*
X127678638Y-102966875D01*
X127678638Y-102966875D02*
X127726257Y-103014494D01*
X127726257Y-103014494D02*
X127821495Y-103062113D01*
X127821495Y-103062113D02*
X128059590Y-103062113D01*
X128059590Y-103062113D02*
X128154828Y-103014494D01*
X128154828Y-103014494D02*
X128202447Y-102966875D01*
X128202447Y-102966875D02*
X128250066Y-102871637D01*
X128250066Y-102871637D02*
X128250066Y-102681161D01*
X128250066Y-102681161D02*
X128202447Y-102585923D01*
X128202447Y-102585923D02*
X128154828Y-102538304D01*
X128154828Y-102538304D02*
X128059590Y-102490685D01*
%TO.C,R3*%
X149363133Y-58450819D02*
X149029800Y-57974628D01*
X148791705Y-58450819D02*
X148791705Y-57450819D01*
X148791705Y-57450819D02*
X149172657Y-57450819D01*
X149172657Y-57450819D02*
X149267895Y-57498438D01*
X149267895Y-57498438D02*
X149315514Y-57546057D01*
X149315514Y-57546057D02*
X149363133Y-57641295D01*
X149363133Y-57641295D02*
X149363133Y-57784152D01*
X149363133Y-57784152D02*
X149315514Y-57879390D01*
X149315514Y-57879390D02*
X149267895Y-57927009D01*
X149267895Y-57927009D02*
X149172657Y-57974628D01*
X149172657Y-57974628D02*
X148791705Y-57974628D01*
X149696467Y-57450819D02*
X150315514Y-57450819D01*
X150315514Y-57450819D02*
X149982181Y-57831771D01*
X149982181Y-57831771D02*
X150125038Y-57831771D01*
X150125038Y-57831771D02*
X150220276Y-57879390D01*
X150220276Y-57879390D02*
X150267895Y-57927009D01*
X150267895Y-57927009D02*
X150315514Y-58022247D01*
X150315514Y-58022247D02*
X150315514Y-58260342D01*
X150315514Y-58260342D02*
X150267895Y-58355580D01*
X150267895Y-58355580D02*
X150220276Y-58403200D01*
X150220276Y-58403200D02*
X150125038Y-58450819D01*
X150125038Y-58450819D02*
X149839324Y-58450819D01*
X149839324Y-58450819D02*
X149744086Y-58403200D01*
X149744086Y-58403200D02*
X149696467Y-58355580D01*
%TO.C,C3*%
X144131380Y-87745866D02*
X144179000Y-87793485D01*
X144179000Y-87793485D02*
X144226619Y-87936342D01*
X144226619Y-87936342D02*
X144226619Y-88031580D01*
X144226619Y-88031580D02*
X144179000Y-88174437D01*
X144179000Y-88174437D02*
X144083761Y-88269675D01*
X144083761Y-88269675D02*
X143988523Y-88317294D01*
X143988523Y-88317294D02*
X143798047Y-88364913D01*
X143798047Y-88364913D02*
X143655190Y-88364913D01*
X143655190Y-88364913D02*
X143464714Y-88317294D01*
X143464714Y-88317294D02*
X143369476Y-88269675D01*
X143369476Y-88269675D02*
X143274238Y-88174437D01*
X143274238Y-88174437D02*
X143226619Y-88031580D01*
X143226619Y-88031580D02*
X143226619Y-87936342D01*
X143226619Y-87936342D02*
X143274238Y-87793485D01*
X143274238Y-87793485D02*
X143321857Y-87745866D01*
X143226619Y-87412532D02*
X143226619Y-86793485D01*
X143226619Y-86793485D02*
X143607571Y-87126818D01*
X143607571Y-87126818D02*
X143607571Y-86983961D01*
X143607571Y-86983961D02*
X143655190Y-86888723D01*
X143655190Y-86888723D02*
X143702809Y-86841104D01*
X143702809Y-86841104D02*
X143798047Y-86793485D01*
X143798047Y-86793485D02*
X144036142Y-86793485D01*
X144036142Y-86793485D02*
X144131380Y-86841104D01*
X144131380Y-86841104D02*
X144179000Y-86888723D01*
X144179000Y-86888723D02*
X144226619Y-86983961D01*
X144226619Y-86983961D02*
X144226619Y-87269675D01*
X144226619Y-87269675D02*
X144179000Y-87364913D01*
X144179000Y-87364913D02*
X144131380Y-87412532D01*
%TO.C,C18*%
X132853780Y-66149457D02*
X132901400Y-66197076D01*
X132901400Y-66197076D02*
X132949019Y-66339933D01*
X132949019Y-66339933D02*
X132949019Y-66435171D01*
X132949019Y-66435171D02*
X132901400Y-66578028D01*
X132901400Y-66578028D02*
X132806161Y-66673266D01*
X132806161Y-66673266D02*
X132710923Y-66720885D01*
X132710923Y-66720885D02*
X132520447Y-66768504D01*
X132520447Y-66768504D02*
X132377590Y-66768504D01*
X132377590Y-66768504D02*
X132187114Y-66720885D01*
X132187114Y-66720885D02*
X132091876Y-66673266D01*
X132091876Y-66673266D02*
X131996638Y-66578028D01*
X131996638Y-66578028D02*
X131949019Y-66435171D01*
X131949019Y-66435171D02*
X131949019Y-66339933D01*
X131949019Y-66339933D02*
X131996638Y-66197076D01*
X131996638Y-66197076D02*
X132044257Y-66149457D01*
X132949019Y-65197076D02*
X132949019Y-65768504D01*
X132949019Y-65482790D02*
X131949019Y-65482790D01*
X131949019Y-65482790D02*
X132091876Y-65578028D01*
X132091876Y-65578028D02*
X132187114Y-65673266D01*
X132187114Y-65673266D02*
X132234733Y-65768504D01*
X132377590Y-64625647D02*
X132329971Y-64720885D01*
X132329971Y-64720885D02*
X132282352Y-64768504D01*
X132282352Y-64768504D02*
X132187114Y-64816123D01*
X132187114Y-64816123D02*
X132139495Y-64816123D01*
X132139495Y-64816123D02*
X132044257Y-64768504D01*
X132044257Y-64768504D02*
X131996638Y-64720885D01*
X131996638Y-64720885D02*
X131949019Y-64625647D01*
X131949019Y-64625647D02*
X131949019Y-64435171D01*
X131949019Y-64435171D02*
X131996638Y-64339933D01*
X131996638Y-64339933D02*
X132044257Y-64292314D01*
X132044257Y-64292314D02*
X132139495Y-64244695D01*
X132139495Y-64244695D02*
X132187114Y-64244695D01*
X132187114Y-64244695D02*
X132282352Y-64292314D01*
X132282352Y-64292314D02*
X132329971Y-64339933D01*
X132329971Y-64339933D02*
X132377590Y-64435171D01*
X132377590Y-64435171D02*
X132377590Y-64625647D01*
X132377590Y-64625647D02*
X132425209Y-64720885D01*
X132425209Y-64720885D02*
X132472828Y-64768504D01*
X132472828Y-64768504D02*
X132568066Y-64816123D01*
X132568066Y-64816123D02*
X132758542Y-64816123D01*
X132758542Y-64816123D02*
X132853780Y-64768504D01*
X132853780Y-64768504D02*
X132901400Y-64720885D01*
X132901400Y-64720885D02*
X132949019Y-64625647D01*
X132949019Y-64625647D02*
X132949019Y-64435171D01*
X132949019Y-64435171D02*
X132901400Y-64339933D01*
X132901400Y-64339933D02*
X132853780Y-64292314D01*
X132853780Y-64292314D02*
X132758542Y-64244695D01*
X132758542Y-64244695D02*
X132568066Y-64244695D01*
X132568066Y-64244695D02*
X132472828Y-64292314D01*
X132472828Y-64292314D02*
X132425209Y-64339933D01*
X132425209Y-64339933D02*
X132377590Y-64435171D01*
%TO.C,C6*%
X143089333Y-94779180D02*
X143041714Y-94826800D01*
X143041714Y-94826800D02*
X142898857Y-94874419D01*
X142898857Y-94874419D02*
X142803619Y-94874419D01*
X142803619Y-94874419D02*
X142660762Y-94826800D01*
X142660762Y-94826800D02*
X142565524Y-94731561D01*
X142565524Y-94731561D02*
X142517905Y-94636323D01*
X142517905Y-94636323D02*
X142470286Y-94445847D01*
X142470286Y-94445847D02*
X142470286Y-94302990D01*
X142470286Y-94302990D02*
X142517905Y-94112514D01*
X142517905Y-94112514D02*
X142565524Y-94017276D01*
X142565524Y-94017276D02*
X142660762Y-93922038D01*
X142660762Y-93922038D02*
X142803619Y-93874419D01*
X142803619Y-93874419D02*
X142898857Y-93874419D01*
X142898857Y-93874419D02*
X143041714Y-93922038D01*
X143041714Y-93922038D02*
X143089333Y-93969657D01*
X143946476Y-93874419D02*
X143756000Y-93874419D01*
X143756000Y-93874419D02*
X143660762Y-93922038D01*
X143660762Y-93922038D02*
X143613143Y-93969657D01*
X143613143Y-93969657D02*
X143517905Y-94112514D01*
X143517905Y-94112514D02*
X143470286Y-94302990D01*
X143470286Y-94302990D02*
X143470286Y-94683942D01*
X143470286Y-94683942D02*
X143517905Y-94779180D01*
X143517905Y-94779180D02*
X143565524Y-94826800D01*
X143565524Y-94826800D02*
X143660762Y-94874419D01*
X143660762Y-94874419D02*
X143851238Y-94874419D01*
X143851238Y-94874419D02*
X143946476Y-94826800D01*
X143946476Y-94826800D02*
X143994095Y-94779180D01*
X143994095Y-94779180D02*
X144041714Y-94683942D01*
X144041714Y-94683942D02*
X144041714Y-94445847D01*
X144041714Y-94445847D02*
X143994095Y-94350609D01*
X143994095Y-94350609D02*
X143946476Y-94302990D01*
X143946476Y-94302990D02*
X143851238Y-94255371D01*
X143851238Y-94255371D02*
X143660762Y-94255371D01*
X143660762Y-94255371D02*
X143565524Y-94302990D01*
X143565524Y-94302990D02*
X143517905Y-94350609D01*
X143517905Y-94350609D02*
X143470286Y-94445847D01*
%TO.C,R8*%
X131209119Y-103443066D02*
X130732928Y-103776399D01*
X131209119Y-104014494D02*
X130209119Y-104014494D01*
X130209119Y-104014494D02*
X130209119Y-103633542D01*
X130209119Y-103633542D02*
X130256738Y-103538304D01*
X130256738Y-103538304D02*
X130304357Y-103490685D01*
X130304357Y-103490685D02*
X130399595Y-103443066D01*
X130399595Y-103443066D02*
X130542452Y-103443066D01*
X130542452Y-103443066D02*
X130637690Y-103490685D01*
X130637690Y-103490685D02*
X130685309Y-103538304D01*
X130685309Y-103538304D02*
X130732928Y-103633542D01*
X130732928Y-103633542D02*
X130732928Y-104014494D01*
X130637690Y-102871637D02*
X130590071Y-102966875D01*
X130590071Y-102966875D02*
X130542452Y-103014494D01*
X130542452Y-103014494D02*
X130447214Y-103062113D01*
X130447214Y-103062113D02*
X130399595Y-103062113D01*
X130399595Y-103062113D02*
X130304357Y-103014494D01*
X130304357Y-103014494D02*
X130256738Y-102966875D01*
X130256738Y-102966875D02*
X130209119Y-102871637D01*
X130209119Y-102871637D02*
X130209119Y-102681161D01*
X130209119Y-102681161D02*
X130256738Y-102585923D01*
X130256738Y-102585923D02*
X130304357Y-102538304D01*
X130304357Y-102538304D02*
X130399595Y-102490685D01*
X130399595Y-102490685D02*
X130447214Y-102490685D01*
X130447214Y-102490685D02*
X130542452Y-102538304D01*
X130542452Y-102538304D02*
X130590071Y-102585923D01*
X130590071Y-102585923D02*
X130637690Y-102681161D01*
X130637690Y-102681161D02*
X130637690Y-102871637D01*
X130637690Y-102871637D02*
X130685309Y-102966875D01*
X130685309Y-102966875D02*
X130732928Y-103014494D01*
X130732928Y-103014494D02*
X130828166Y-103062113D01*
X130828166Y-103062113D02*
X131018642Y-103062113D01*
X131018642Y-103062113D02*
X131113880Y-103014494D01*
X131113880Y-103014494D02*
X131161500Y-102966875D01*
X131161500Y-102966875D02*
X131209119Y-102871637D01*
X131209119Y-102871637D02*
X131209119Y-102681161D01*
X131209119Y-102681161D02*
X131161500Y-102585923D01*
X131161500Y-102585923D02*
X131113880Y-102538304D01*
X131113880Y-102538304D02*
X131018642Y-102490685D01*
X131018642Y-102490685D02*
X130828166Y-102490685D01*
X130828166Y-102490685D02*
X130732928Y-102538304D01*
X130732928Y-102538304D02*
X130685309Y-102585923D01*
X130685309Y-102585923D02*
X130637690Y-102681161D01*
%TO.C,Y1*%
X141001809Y-61327428D02*
X141001809Y-61803619D01*
X140668476Y-60803619D02*
X141001809Y-61327428D01*
X141001809Y-61327428D02*
X141335142Y-60803619D01*
X142192285Y-61803619D02*
X141620857Y-61803619D01*
X141906571Y-61803619D02*
X141906571Y-60803619D01*
X141906571Y-60803619D02*
X141811333Y-60946476D01*
X141811333Y-60946476D02*
X141716095Y-61041714D01*
X141716095Y-61041714D02*
X141620857Y-61089333D01*
%TO.C,R1*%
X139883219Y-102325466D02*
X139407028Y-102658799D01*
X139883219Y-102896894D02*
X138883219Y-102896894D01*
X138883219Y-102896894D02*
X138883219Y-102515942D01*
X138883219Y-102515942D02*
X138930838Y-102420704D01*
X138930838Y-102420704D02*
X138978457Y-102373085D01*
X138978457Y-102373085D02*
X139073695Y-102325466D01*
X139073695Y-102325466D02*
X139216552Y-102325466D01*
X139216552Y-102325466D02*
X139311790Y-102373085D01*
X139311790Y-102373085D02*
X139359409Y-102420704D01*
X139359409Y-102420704D02*
X139407028Y-102515942D01*
X139407028Y-102515942D02*
X139407028Y-102896894D01*
X139883219Y-101373085D02*
X139883219Y-101944513D01*
X139883219Y-101658799D02*
X138883219Y-101658799D01*
X138883219Y-101658799D02*
X139026076Y-101754037D01*
X139026076Y-101754037D02*
X139121314Y-101849275D01*
X139121314Y-101849275D02*
X139168933Y-101944513D01*
%TO.C,C2*%
X146231180Y-106513866D02*
X146278800Y-106561485D01*
X146278800Y-106561485D02*
X146326419Y-106704342D01*
X146326419Y-106704342D02*
X146326419Y-106799580D01*
X146326419Y-106799580D02*
X146278800Y-106942437D01*
X146278800Y-106942437D02*
X146183561Y-107037675D01*
X146183561Y-107037675D02*
X146088323Y-107085294D01*
X146088323Y-107085294D02*
X145897847Y-107132913D01*
X145897847Y-107132913D02*
X145754990Y-107132913D01*
X145754990Y-107132913D02*
X145564514Y-107085294D01*
X145564514Y-107085294D02*
X145469276Y-107037675D01*
X145469276Y-107037675D02*
X145374038Y-106942437D01*
X145374038Y-106942437D02*
X145326419Y-106799580D01*
X145326419Y-106799580D02*
X145326419Y-106704342D01*
X145326419Y-106704342D02*
X145374038Y-106561485D01*
X145374038Y-106561485D02*
X145421657Y-106513866D01*
X145421657Y-106132913D02*
X145374038Y-106085294D01*
X145374038Y-106085294D02*
X145326419Y-105990056D01*
X145326419Y-105990056D02*
X145326419Y-105751961D01*
X145326419Y-105751961D02*
X145374038Y-105656723D01*
X145374038Y-105656723D02*
X145421657Y-105609104D01*
X145421657Y-105609104D02*
X145516895Y-105561485D01*
X145516895Y-105561485D02*
X145612133Y-105561485D01*
X145612133Y-105561485D02*
X145754990Y-105609104D01*
X145754990Y-105609104D02*
X146326419Y-106180532D01*
X146326419Y-106180532D02*
X146326419Y-105561485D01*
%TO.C,F1*%
X144268866Y-58028609D02*
X143935533Y-58028609D01*
X143935533Y-58552419D02*
X143935533Y-57552419D01*
X143935533Y-57552419D02*
X144411723Y-57552419D01*
X145316485Y-58552419D02*
X144745057Y-58552419D01*
X145030771Y-58552419D02*
X145030771Y-57552419D01*
X145030771Y-57552419D02*
X144935533Y-57695276D01*
X144935533Y-57695276D02*
X144840295Y-57790514D01*
X144840295Y-57790514D02*
X144745057Y-57838133D01*
%TO.C,C10*%
X122547142Y-72935180D02*
X122499523Y-72982800D01*
X122499523Y-72982800D02*
X122356666Y-73030419D01*
X122356666Y-73030419D02*
X122261428Y-73030419D01*
X122261428Y-73030419D02*
X122118571Y-72982800D01*
X122118571Y-72982800D02*
X122023333Y-72887561D01*
X122023333Y-72887561D02*
X121975714Y-72792323D01*
X121975714Y-72792323D02*
X121928095Y-72601847D01*
X121928095Y-72601847D02*
X121928095Y-72458990D01*
X121928095Y-72458990D02*
X121975714Y-72268514D01*
X121975714Y-72268514D02*
X122023333Y-72173276D01*
X122023333Y-72173276D02*
X122118571Y-72078038D01*
X122118571Y-72078038D02*
X122261428Y-72030419D01*
X122261428Y-72030419D02*
X122356666Y-72030419D01*
X122356666Y-72030419D02*
X122499523Y-72078038D01*
X122499523Y-72078038D02*
X122547142Y-72125657D01*
X123499523Y-73030419D02*
X122928095Y-73030419D01*
X123213809Y-73030419D02*
X123213809Y-72030419D01*
X123213809Y-72030419D02*
X123118571Y-72173276D01*
X123118571Y-72173276D02*
X123023333Y-72268514D01*
X123023333Y-72268514D02*
X122928095Y-72316133D01*
X124118571Y-72030419D02*
X124213809Y-72030419D01*
X124213809Y-72030419D02*
X124309047Y-72078038D01*
X124309047Y-72078038D02*
X124356666Y-72125657D01*
X124356666Y-72125657D02*
X124404285Y-72220895D01*
X124404285Y-72220895D02*
X124451904Y-72411371D01*
X124451904Y-72411371D02*
X124451904Y-72649466D01*
X124451904Y-72649466D02*
X124404285Y-72839942D01*
X124404285Y-72839942D02*
X124356666Y-72935180D01*
X124356666Y-72935180D02*
X124309047Y-72982800D01*
X124309047Y-72982800D02*
X124213809Y-73030419D01*
X124213809Y-73030419D02*
X124118571Y-73030419D01*
X124118571Y-73030419D02*
X124023333Y-72982800D01*
X124023333Y-72982800D02*
X123975714Y-72935180D01*
X123975714Y-72935180D02*
X123928095Y-72839942D01*
X123928095Y-72839942D02*
X123880476Y-72649466D01*
X123880476Y-72649466D02*
X123880476Y-72411371D01*
X123880476Y-72411371D02*
X123928095Y-72220895D01*
X123928095Y-72220895D02*
X123975714Y-72125657D01*
X123975714Y-72125657D02*
X124023333Y-72078038D01*
X124023333Y-72078038D02*
X124118571Y-72030419D01*
%TO.C,R4*%
X121600933Y-57231619D02*
X121267600Y-56755428D01*
X121029505Y-57231619D02*
X121029505Y-56231619D01*
X121029505Y-56231619D02*
X121410457Y-56231619D01*
X121410457Y-56231619D02*
X121505695Y-56279238D01*
X121505695Y-56279238D02*
X121553314Y-56326857D01*
X121553314Y-56326857D02*
X121600933Y-56422095D01*
X121600933Y-56422095D02*
X121600933Y-56564952D01*
X121600933Y-56564952D02*
X121553314Y-56660190D01*
X121553314Y-56660190D02*
X121505695Y-56707809D01*
X121505695Y-56707809D02*
X121410457Y-56755428D01*
X121410457Y-56755428D02*
X121029505Y-56755428D01*
X122458076Y-56564952D02*
X122458076Y-57231619D01*
X122219981Y-56184000D02*
X121981886Y-56898285D01*
X121981886Y-56898285D02*
X122600933Y-56898285D01*
%TO.C,C11*%
X148556742Y-68794980D02*
X148509123Y-68842600D01*
X148509123Y-68842600D02*
X148366266Y-68890219D01*
X148366266Y-68890219D02*
X148271028Y-68890219D01*
X148271028Y-68890219D02*
X148128171Y-68842600D01*
X148128171Y-68842600D02*
X148032933Y-68747361D01*
X148032933Y-68747361D02*
X147985314Y-68652123D01*
X147985314Y-68652123D02*
X147937695Y-68461647D01*
X147937695Y-68461647D02*
X147937695Y-68318790D01*
X147937695Y-68318790D02*
X147985314Y-68128314D01*
X147985314Y-68128314D02*
X148032933Y-68033076D01*
X148032933Y-68033076D02*
X148128171Y-67937838D01*
X148128171Y-67937838D02*
X148271028Y-67890219D01*
X148271028Y-67890219D02*
X148366266Y-67890219D01*
X148366266Y-67890219D02*
X148509123Y-67937838D01*
X148509123Y-67937838D02*
X148556742Y-67985457D01*
X149509123Y-68890219D02*
X148937695Y-68890219D01*
X149223409Y-68890219D02*
X149223409Y-67890219D01*
X149223409Y-67890219D02*
X149128171Y-68033076D01*
X149128171Y-68033076D02*
X149032933Y-68128314D01*
X149032933Y-68128314D02*
X148937695Y-68175933D01*
X150461504Y-68890219D02*
X149890076Y-68890219D01*
X150175790Y-68890219D02*
X150175790Y-67890219D01*
X150175790Y-67890219D02*
X150080552Y-68033076D01*
X150080552Y-68033076D02*
X149985314Y-68128314D01*
X149985314Y-68128314D02*
X149890076Y-68175933D01*
%TO.C,R12*%
X125061742Y-64851619D02*
X124728409Y-64375428D01*
X124490314Y-64851619D02*
X124490314Y-63851619D01*
X124490314Y-63851619D02*
X124871266Y-63851619D01*
X124871266Y-63851619D02*
X124966504Y-63899238D01*
X124966504Y-63899238D02*
X125014123Y-63946857D01*
X125014123Y-63946857D02*
X125061742Y-64042095D01*
X125061742Y-64042095D02*
X125061742Y-64184952D01*
X125061742Y-64184952D02*
X125014123Y-64280190D01*
X125014123Y-64280190D02*
X124966504Y-64327809D01*
X124966504Y-64327809D02*
X124871266Y-64375428D01*
X124871266Y-64375428D02*
X124490314Y-64375428D01*
X126014123Y-64851619D02*
X125442695Y-64851619D01*
X125728409Y-64851619D02*
X125728409Y-63851619D01*
X125728409Y-63851619D02*
X125633171Y-63994476D01*
X125633171Y-63994476D02*
X125537933Y-64089714D01*
X125537933Y-64089714D02*
X125442695Y-64137333D01*
X126395076Y-63946857D02*
X126442695Y-63899238D01*
X126442695Y-63899238D02*
X126537933Y-63851619D01*
X126537933Y-63851619D02*
X126776028Y-63851619D01*
X126776028Y-63851619D02*
X126871266Y-63899238D01*
X126871266Y-63899238D02*
X126918885Y-63946857D01*
X126918885Y-63946857D02*
X126966504Y-64042095D01*
X126966504Y-64042095D02*
X126966504Y-64137333D01*
X126966504Y-64137333D02*
X126918885Y-64280190D01*
X126918885Y-64280190D02*
X126347457Y-64851619D01*
X126347457Y-64851619D02*
X126966504Y-64851619D01*
%TO.C,D4*%
X127430305Y-111105019D02*
X127430305Y-110105019D01*
X127430305Y-110105019D02*
X127668400Y-110105019D01*
X127668400Y-110105019D02*
X127811257Y-110152638D01*
X127811257Y-110152638D02*
X127906495Y-110247876D01*
X127906495Y-110247876D02*
X127954114Y-110343114D01*
X127954114Y-110343114D02*
X128001733Y-110533590D01*
X128001733Y-110533590D02*
X128001733Y-110676447D01*
X128001733Y-110676447D02*
X127954114Y-110866923D01*
X127954114Y-110866923D02*
X127906495Y-110962161D01*
X127906495Y-110962161D02*
X127811257Y-111057400D01*
X127811257Y-111057400D02*
X127668400Y-111105019D01*
X127668400Y-111105019D02*
X127430305Y-111105019D01*
X128858876Y-110438352D02*
X128858876Y-111105019D01*
X128620781Y-110057400D02*
X128382686Y-110771685D01*
X128382686Y-110771685D02*
X129001733Y-110771685D01*
%TO.C,R7*%
X128021419Y-59628066D02*
X127545228Y-59961399D01*
X128021419Y-60199494D02*
X127021419Y-60199494D01*
X127021419Y-60199494D02*
X127021419Y-59818542D01*
X127021419Y-59818542D02*
X127069038Y-59723304D01*
X127069038Y-59723304D02*
X127116657Y-59675685D01*
X127116657Y-59675685D02*
X127211895Y-59628066D01*
X127211895Y-59628066D02*
X127354752Y-59628066D01*
X127354752Y-59628066D02*
X127449990Y-59675685D01*
X127449990Y-59675685D02*
X127497609Y-59723304D01*
X127497609Y-59723304D02*
X127545228Y-59818542D01*
X127545228Y-59818542D02*
X127545228Y-60199494D01*
X127021419Y-59294732D02*
X127021419Y-58628066D01*
X127021419Y-58628066D02*
X128021419Y-59056637D01*
%TO.C,J5*%
X120163419Y-109502533D02*
X120877704Y-109502533D01*
X120877704Y-109502533D02*
X121020561Y-109550152D01*
X121020561Y-109550152D02*
X121115800Y-109645390D01*
X121115800Y-109645390D02*
X121163419Y-109788247D01*
X121163419Y-109788247D02*
X121163419Y-109883485D01*
X120163419Y-108550152D02*
X120163419Y-109026342D01*
X120163419Y-109026342D02*
X120639609Y-109073961D01*
X120639609Y-109073961D02*
X120591990Y-109026342D01*
X120591990Y-109026342D02*
X120544371Y-108931104D01*
X120544371Y-108931104D02*
X120544371Y-108693009D01*
X120544371Y-108693009D02*
X120591990Y-108597771D01*
X120591990Y-108597771D02*
X120639609Y-108550152D01*
X120639609Y-108550152D02*
X120734847Y-108502533D01*
X120734847Y-108502533D02*
X120972942Y-108502533D01*
X120972942Y-108502533D02*
X121068180Y-108550152D01*
X121068180Y-108550152D02*
X121115800Y-108597771D01*
X121115800Y-108597771D02*
X121163419Y-108693009D01*
X121163419Y-108693009D02*
X121163419Y-108931104D01*
X121163419Y-108931104D02*
X121115800Y-109026342D01*
X121115800Y-109026342D02*
X121068180Y-109073961D01*
%TO.C,J2*%
X133219866Y-58593819D02*
X133219866Y-59308104D01*
X133219866Y-59308104D02*
X133172247Y-59450961D01*
X133172247Y-59450961D02*
X133077009Y-59546200D01*
X133077009Y-59546200D02*
X132934152Y-59593819D01*
X132934152Y-59593819D02*
X132838914Y-59593819D01*
X133648438Y-58689057D02*
X133696057Y-58641438D01*
X133696057Y-58641438D02*
X133791295Y-58593819D01*
X133791295Y-58593819D02*
X134029390Y-58593819D01*
X134029390Y-58593819D02*
X134124628Y-58641438D01*
X134124628Y-58641438D02*
X134172247Y-58689057D01*
X134172247Y-58689057D02*
X134219866Y-58784295D01*
X134219866Y-58784295D02*
X134219866Y-58879533D01*
X134219866Y-58879533D02*
X134172247Y-59022390D01*
X134172247Y-59022390D02*
X133600819Y-59593819D01*
X133600819Y-59593819D02*
X134219866Y-59593819D01*
%TO.C,C12*%
X151401542Y-79058580D02*
X151353923Y-79106200D01*
X151353923Y-79106200D02*
X151211066Y-79153819D01*
X151211066Y-79153819D02*
X151115828Y-79153819D01*
X151115828Y-79153819D02*
X150972971Y-79106200D01*
X150972971Y-79106200D02*
X150877733Y-79010961D01*
X150877733Y-79010961D02*
X150830114Y-78915723D01*
X150830114Y-78915723D02*
X150782495Y-78725247D01*
X150782495Y-78725247D02*
X150782495Y-78582390D01*
X150782495Y-78582390D02*
X150830114Y-78391914D01*
X150830114Y-78391914D02*
X150877733Y-78296676D01*
X150877733Y-78296676D02*
X150972971Y-78201438D01*
X150972971Y-78201438D02*
X151115828Y-78153819D01*
X151115828Y-78153819D02*
X151211066Y-78153819D01*
X151211066Y-78153819D02*
X151353923Y-78201438D01*
X151353923Y-78201438D02*
X151401542Y-78249057D01*
X152353923Y-79153819D02*
X151782495Y-79153819D01*
X152068209Y-79153819D02*
X152068209Y-78153819D01*
X152068209Y-78153819D02*
X151972971Y-78296676D01*
X151972971Y-78296676D02*
X151877733Y-78391914D01*
X151877733Y-78391914D02*
X151782495Y-78439533D01*
X152734876Y-78249057D02*
X152782495Y-78201438D01*
X152782495Y-78201438D02*
X152877733Y-78153819D01*
X152877733Y-78153819D02*
X153115828Y-78153819D01*
X153115828Y-78153819D02*
X153211066Y-78201438D01*
X153211066Y-78201438D02*
X153258685Y-78249057D01*
X153258685Y-78249057D02*
X153306304Y-78344295D01*
X153306304Y-78344295D02*
X153306304Y-78439533D01*
X153306304Y-78439533D02*
X153258685Y-78582390D01*
X153258685Y-78582390D02*
X152687257Y-79153819D01*
X152687257Y-79153819D02*
X153306304Y-79153819D01*
%TO.C,C1*%
X148942313Y-87745866D02*
X148989933Y-87793485D01*
X148989933Y-87793485D02*
X149037552Y-87936342D01*
X149037552Y-87936342D02*
X149037552Y-88031580D01*
X149037552Y-88031580D02*
X148989933Y-88174437D01*
X148989933Y-88174437D02*
X148894694Y-88269675D01*
X148894694Y-88269675D02*
X148799456Y-88317294D01*
X148799456Y-88317294D02*
X148608980Y-88364913D01*
X148608980Y-88364913D02*
X148466123Y-88364913D01*
X148466123Y-88364913D02*
X148275647Y-88317294D01*
X148275647Y-88317294D02*
X148180409Y-88269675D01*
X148180409Y-88269675D02*
X148085171Y-88174437D01*
X148085171Y-88174437D02*
X148037552Y-88031580D01*
X148037552Y-88031580D02*
X148037552Y-87936342D01*
X148037552Y-87936342D02*
X148085171Y-87793485D01*
X148085171Y-87793485D02*
X148132790Y-87745866D01*
X149037552Y-86793485D02*
X149037552Y-87364913D01*
X149037552Y-87079199D02*
X148037552Y-87079199D01*
X148037552Y-87079199D02*
X148180409Y-87174437D01*
X148180409Y-87174437D02*
X148275647Y-87269675D01*
X148275647Y-87269675D02*
X148323266Y-87364913D01*
%TO.C,C8*%
X130841780Y-87745866D02*
X130889400Y-87793485D01*
X130889400Y-87793485D02*
X130937019Y-87936342D01*
X130937019Y-87936342D02*
X130937019Y-88031580D01*
X130937019Y-88031580D02*
X130889400Y-88174437D01*
X130889400Y-88174437D02*
X130794161Y-88269675D01*
X130794161Y-88269675D02*
X130698923Y-88317294D01*
X130698923Y-88317294D02*
X130508447Y-88364913D01*
X130508447Y-88364913D02*
X130365590Y-88364913D01*
X130365590Y-88364913D02*
X130175114Y-88317294D01*
X130175114Y-88317294D02*
X130079876Y-88269675D01*
X130079876Y-88269675D02*
X129984638Y-88174437D01*
X129984638Y-88174437D02*
X129937019Y-88031580D01*
X129937019Y-88031580D02*
X129937019Y-87936342D01*
X129937019Y-87936342D02*
X129984638Y-87793485D01*
X129984638Y-87793485D02*
X130032257Y-87745866D01*
X130365590Y-87174437D02*
X130317971Y-87269675D01*
X130317971Y-87269675D02*
X130270352Y-87317294D01*
X130270352Y-87317294D02*
X130175114Y-87364913D01*
X130175114Y-87364913D02*
X130127495Y-87364913D01*
X130127495Y-87364913D02*
X130032257Y-87317294D01*
X130032257Y-87317294D02*
X129984638Y-87269675D01*
X129984638Y-87269675D02*
X129937019Y-87174437D01*
X129937019Y-87174437D02*
X129937019Y-86983961D01*
X129937019Y-86983961D02*
X129984638Y-86888723D01*
X129984638Y-86888723D02*
X130032257Y-86841104D01*
X130032257Y-86841104D02*
X130127495Y-86793485D01*
X130127495Y-86793485D02*
X130175114Y-86793485D01*
X130175114Y-86793485D02*
X130270352Y-86841104D01*
X130270352Y-86841104D02*
X130317971Y-86888723D01*
X130317971Y-86888723D02*
X130365590Y-86983961D01*
X130365590Y-86983961D02*
X130365590Y-87174437D01*
X130365590Y-87174437D02*
X130413209Y-87269675D01*
X130413209Y-87269675D02*
X130460828Y-87317294D01*
X130460828Y-87317294D02*
X130556066Y-87364913D01*
X130556066Y-87364913D02*
X130746542Y-87364913D01*
X130746542Y-87364913D02*
X130841780Y-87317294D01*
X130841780Y-87317294D02*
X130889400Y-87269675D01*
X130889400Y-87269675D02*
X130937019Y-87174437D01*
X130937019Y-87174437D02*
X130937019Y-86983961D01*
X130937019Y-86983961D02*
X130889400Y-86888723D01*
X130889400Y-86888723D02*
X130841780Y-86841104D01*
X130841780Y-86841104D02*
X130746542Y-86793485D01*
X130746542Y-86793485D02*
X130556066Y-86793485D01*
X130556066Y-86793485D02*
X130460828Y-86841104D01*
X130460828Y-86841104D02*
X130413209Y-86888723D01*
X130413209Y-86888723D02*
X130365590Y-86983961D01*
%TO.C,J1*%
X146530419Y-109527933D02*
X147244704Y-109527933D01*
X147244704Y-109527933D02*
X147387561Y-109575552D01*
X147387561Y-109575552D02*
X147482800Y-109670790D01*
X147482800Y-109670790D02*
X147530419Y-109813647D01*
X147530419Y-109813647D02*
X147530419Y-109908885D01*
X147530419Y-108527933D02*
X147530419Y-109099361D01*
X147530419Y-108813647D02*
X146530419Y-108813647D01*
X146530419Y-108813647D02*
X146673276Y-108908885D01*
X146673276Y-108908885D02*
X146768514Y-109004123D01*
X146768514Y-109004123D02*
X146816133Y-109099361D01*
%TO.C,R11*%
X133787219Y-103436657D02*
X133311028Y-103769990D01*
X133787219Y-104008085D02*
X132787219Y-104008085D01*
X132787219Y-104008085D02*
X132787219Y-103627133D01*
X132787219Y-103627133D02*
X132834838Y-103531895D01*
X132834838Y-103531895D02*
X132882457Y-103484276D01*
X132882457Y-103484276D02*
X132977695Y-103436657D01*
X132977695Y-103436657D02*
X133120552Y-103436657D01*
X133120552Y-103436657D02*
X133215790Y-103484276D01*
X133215790Y-103484276D02*
X133263409Y-103531895D01*
X133263409Y-103531895D02*
X133311028Y-103627133D01*
X133311028Y-103627133D02*
X133311028Y-104008085D01*
X133787219Y-102484276D02*
X133787219Y-103055704D01*
X133787219Y-102769990D02*
X132787219Y-102769990D01*
X132787219Y-102769990D02*
X132930076Y-102865228D01*
X132930076Y-102865228D02*
X133025314Y-102960466D01*
X133025314Y-102960466D02*
X133072933Y-103055704D01*
X133787219Y-101531895D02*
X133787219Y-102103323D01*
X133787219Y-101817609D02*
X132787219Y-101817609D01*
X132787219Y-101817609D02*
X132930076Y-101912847D01*
X132930076Y-101912847D02*
X133025314Y-102008085D01*
X133025314Y-102008085D02*
X133072933Y-102103323D01*
%TO.C,C15*%
X142155942Y-98843180D02*
X142108323Y-98890800D01*
X142108323Y-98890800D02*
X141965466Y-98938419D01*
X141965466Y-98938419D02*
X141870228Y-98938419D01*
X141870228Y-98938419D02*
X141727371Y-98890800D01*
X141727371Y-98890800D02*
X141632133Y-98795561D01*
X141632133Y-98795561D02*
X141584514Y-98700323D01*
X141584514Y-98700323D02*
X141536895Y-98509847D01*
X141536895Y-98509847D02*
X141536895Y-98366990D01*
X141536895Y-98366990D02*
X141584514Y-98176514D01*
X141584514Y-98176514D02*
X141632133Y-98081276D01*
X141632133Y-98081276D02*
X141727371Y-97986038D01*
X141727371Y-97986038D02*
X141870228Y-97938419D01*
X141870228Y-97938419D02*
X141965466Y-97938419D01*
X141965466Y-97938419D02*
X142108323Y-97986038D01*
X142108323Y-97986038D02*
X142155942Y-98033657D01*
X143108323Y-98938419D02*
X142536895Y-98938419D01*
X142822609Y-98938419D02*
X142822609Y-97938419D01*
X142822609Y-97938419D02*
X142727371Y-98081276D01*
X142727371Y-98081276D02*
X142632133Y-98176514D01*
X142632133Y-98176514D02*
X142536895Y-98224133D01*
X144013085Y-97938419D02*
X143536895Y-97938419D01*
X143536895Y-97938419D02*
X143489276Y-98414609D01*
X143489276Y-98414609D02*
X143536895Y-98366990D01*
X143536895Y-98366990D02*
X143632133Y-98319371D01*
X143632133Y-98319371D02*
X143870228Y-98319371D01*
X143870228Y-98319371D02*
X143965466Y-98366990D01*
X143965466Y-98366990D02*
X144013085Y-98414609D01*
X144013085Y-98414609D02*
X144060704Y-98509847D01*
X144060704Y-98509847D02*
X144060704Y-98747942D01*
X144060704Y-98747942D02*
X144013085Y-98843180D01*
X144013085Y-98843180D02*
X143965466Y-98890800D01*
X143965466Y-98890800D02*
X143870228Y-98938419D01*
X143870228Y-98938419D02*
X143632133Y-98938419D01*
X143632133Y-98938419D02*
X143536895Y-98890800D01*
X143536895Y-98890800D02*
X143489276Y-98843180D01*
%TO.C,D5*%
X132561105Y-111028819D02*
X132561105Y-110028819D01*
X132561105Y-110028819D02*
X132799200Y-110028819D01*
X132799200Y-110028819D02*
X132942057Y-110076438D01*
X132942057Y-110076438D02*
X133037295Y-110171676D01*
X133037295Y-110171676D02*
X133084914Y-110266914D01*
X133084914Y-110266914D02*
X133132533Y-110457390D01*
X133132533Y-110457390D02*
X133132533Y-110600247D01*
X133132533Y-110600247D02*
X133084914Y-110790723D01*
X133084914Y-110790723D02*
X133037295Y-110885961D01*
X133037295Y-110885961D02*
X132942057Y-110981200D01*
X132942057Y-110981200D02*
X132799200Y-111028819D01*
X132799200Y-111028819D02*
X132561105Y-111028819D01*
X134037295Y-110028819D02*
X133561105Y-110028819D01*
X133561105Y-110028819D02*
X133513486Y-110505009D01*
X133513486Y-110505009D02*
X133561105Y-110457390D01*
X133561105Y-110457390D02*
X133656343Y-110409771D01*
X133656343Y-110409771D02*
X133894438Y-110409771D01*
X133894438Y-110409771D02*
X133989676Y-110457390D01*
X133989676Y-110457390D02*
X134037295Y-110505009D01*
X134037295Y-110505009D02*
X134084914Y-110600247D01*
X134084914Y-110600247D02*
X134084914Y-110838342D01*
X134084914Y-110838342D02*
X134037295Y-110933580D01*
X134037295Y-110933580D02*
X133989676Y-110981200D01*
X133989676Y-110981200D02*
X133894438Y-111028819D01*
X133894438Y-111028819D02*
X133656343Y-111028819D01*
X133656343Y-111028819D02*
X133561105Y-110981200D01*
X133561105Y-110981200D02*
X133513486Y-110933580D01*
%TO.C,U2*%
X136677495Y-103907419D02*
X136677495Y-104716942D01*
X136677495Y-104716942D02*
X136725114Y-104812180D01*
X136725114Y-104812180D02*
X136772733Y-104859800D01*
X136772733Y-104859800D02*
X136867971Y-104907419D01*
X136867971Y-104907419D02*
X137058447Y-104907419D01*
X137058447Y-104907419D02*
X137153685Y-104859800D01*
X137153685Y-104859800D02*
X137201304Y-104812180D01*
X137201304Y-104812180D02*
X137248923Y-104716942D01*
X137248923Y-104716942D02*
X137248923Y-103907419D01*
X137677495Y-104002657D02*
X137725114Y-103955038D01*
X137725114Y-103955038D02*
X137820352Y-103907419D01*
X137820352Y-103907419D02*
X138058447Y-103907419D01*
X138058447Y-103907419D02*
X138153685Y-103955038D01*
X138153685Y-103955038D02*
X138201304Y-104002657D01*
X138201304Y-104002657D02*
X138248923Y-104097895D01*
X138248923Y-104097895D02*
X138248923Y-104193133D01*
X138248923Y-104193133D02*
X138201304Y-104335990D01*
X138201304Y-104335990D02*
X137629876Y-104907419D01*
X137629876Y-104907419D02*
X138248923Y-104907419D01*
%TO.C,R2*%
X141153219Y-102300066D02*
X140677028Y-102633399D01*
X141153219Y-102871494D02*
X140153219Y-102871494D01*
X140153219Y-102871494D02*
X140153219Y-102490542D01*
X140153219Y-102490542D02*
X140200838Y-102395304D01*
X140200838Y-102395304D02*
X140248457Y-102347685D01*
X140248457Y-102347685D02*
X140343695Y-102300066D01*
X140343695Y-102300066D02*
X140486552Y-102300066D01*
X140486552Y-102300066D02*
X140581790Y-102347685D01*
X140581790Y-102347685D02*
X140629409Y-102395304D01*
X140629409Y-102395304D02*
X140677028Y-102490542D01*
X140677028Y-102490542D02*
X140677028Y-102871494D01*
X140248457Y-101919113D02*
X140200838Y-101871494D01*
X140200838Y-101871494D02*
X140153219Y-101776256D01*
X140153219Y-101776256D02*
X140153219Y-101538161D01*
X140153219Y-101538161D02*
X140200838Y-101442923D01*
X140200838Y-101442923D02*
X140248457Y-101395304D01*
X140248457Y-101395304D02*
X140343695Y-101347685D01*
X140343695Y-101347685D02*
X140438933Y-101347685D01*
X140438933Y-101347685D02*
X140581790Y-101395304D01*
X140581790Y-101395304D02*
X141153219Y-101966732D01*
X141153219Y-101966732D02*
X141153219Y-101347685D01*
%TO.C,C13*%
X146823780Y-90762057D02*
X146871400Y-90809676D01*
X146871400Y-90809676D02*
X146919019Y-90952533D01*
X146919019Y-90952533D02*
X146919019Y-91047771D01*
X146919019Y-91047771D02*
X146871400Y-91190628D01*
X146871400Y-91190628D02*
X146776161Y-91285866D01*
X146776161Y-91285866D02*
X146680923Y-91333485D01*
X146680923Y-91333485D02*
X146490447Y-91381104D01*
X146490447Y-91381104D02*
X146347590Y-91381104D01*
X146347590Y-91381104D02*
X146157114Y-91333485D01*
X146157114Y-91333485D02*
X146061876Y-91285866D01*
X146061876Y-91285866D02*
X145966638Y-91190628D01*
X145966638Y-91190628D02*
X145919019Y-91047771D01*
X145919019Y-91047771D02*
X145919019Y-90952533D01*
X145919019Y-90952533D02*
X145966638Y-90809676D01*
X145966638Y-90809676D02*
X146014257Y-90762057D01*
X146919019Y-89809676D02*
X146919019Y-90381104D01*
X146919019Y-90095390D02*
X145919019Y-90095390D01*
X145919019Y-90095390D02*
X146061876Y-90190628D01*
X146061876Y-90190628D02*
X146157114Y-90285866D01*
X146157114Y-90285866D02*
X146204733Y-90381104D01*
X145919019Y-89476342D02*
X145919019Y-88857295D01*
X145919019Y-88857295D02*
X146299971Y-89190628D01*
X146299971Y-89190628D02*
X146299971Y-89047771D01*
X146299971Y-89047771D02*
X146347590Y-88952533D01*
X146347590Y-88952533D02*
X146395209Y-88904914D01*
X146395209Y-88904914D02*
X146490447Y-88857295D01*
X146490447Y-88857295D02*
X146728542Y-88857295D01*
X146728542Y-88857295D02*
X146823780Y-88904914D01*
X146823780Y-88904914D02*
X146871400Y-88952533D01*
X146871400Y-88952533D02*
X146919019Y-89047771D01*
X146919019Y-89047771D02*
X146919019Y-89333485D01*
X146919019Y-89333485D02*
X146871400Y-89428723D01*
X146871400Y-89428723D02*
X146823780Y-89476342D01*
%TO.C,U1*%
X129895695Y-99208419D02*
X129895695Y-100017942D01*
X129895695Y-100017942D02*
X129943314Y-100113180D01*
X129943314Y-100113180D02*
X129990933Y-100160800D01*
X129990933Y-100160800D02*
X130086171Y-100208419D01*
X130086171Y-100208419D02*
X130276647Y-100208419D01*
X130276647Y-100208419D02*
X130371885Y-100160800D01*
X130371885Y-100160800D02*
X130419504Y-100113180D01*
X130419504Y-100113180D02*
X130467123Y-100017942D01*
X130467123Y-100017942D02*
X130467123Y-99208419D01*
X131467123Y-100208419D02*
X130895695Y-100208419D01*
X131181409Y-100208419D02*
X131181409Y-99208419D01*
X131181409Y-99208419D02*
X131086171Y-99351276D01*
X131086171Y-99351276D02*
X130990933Y-99446514D01*
X130990933Y-99446514D02*
X130895695Y-99494133D01*
%TO.C,R5*%
X129906733Y-64038819D02*
X129573400Y-63562628D01*
X129335305Y-64038819D02*
X129335305Y-63038819D01*
X129335305Y-63038819D02*
X129716257Y-63038819D01*
X129716257Y-63038819D02*
X129811495Y-63086438D01*
X129811495Y-63086438D02*
X129859114Y-63134057D01*
X129859114Y-63134057D02*
X129906733Y-63229295D01*
X129906733Y-63229295D02*
X129906733Y-63372152D01*
X129906733Y-63372152D02*
X129859114Y-63467390D01*
X129859114Y-63467390D02*
X129811495Y-63515009D01*
X129811495Y-63515009D02*
X129716257Y-63562628D01*
X129716257Y-63562628D02*
X129335305Y-63562628D01*
X130811495Y-63038819D02*
X130335305Y-63038819D01*
X130335305Y-63038819D02*
X130287686Y-63515009D01*
X130287686Y-63515009D02*
X130335305Y-63467390D01*
X130335305Y-63467390D02*
X130430543Y-63419771D01*
X130430543Y-63419771D02*
X130668638Y-63419771D01*
X130668638Y-63419771D02*
X130763876Y-63467390D01*
X130763876Y-63467390D02*
X130811495Y-63515009D01*
X130811495Y-63515009D02*
X130859114Y-63610247D01*
X130859114Y-63610247D02*
X130859114Y-63848342D01*
X130859114Y-63848342D02*
X130811495Y-63943580D01*
X130811495Y-63943580D02*
X130763876Y-63991200D01*
X130763876Y-63991200D02*
X130668638Y-64038819D01*
X130668638Y-64038819D02*
X130430543Y-64038819D01*
X130430543Y-64038819D02*
X130335305Y-63991200D01*
X130335305Y-63991200D02*
X130287686Y-63943580D01*
%TO.C,C20*%
X148531342Y-65111980D02*
X148483723Y-65159600D01*
X148483723Y-65159600D02*
X148340866Y-65207219D01*
X148340866Y-65207219D02*
X148245628Y-65207219D01*
X148245628Y-65207219D02*
X148102771Y-65159600D01*
X148102771Y-65159600D02*
X148007533Y-65064361D01*
X148007533Y-65064361D02*
X147959914Y-64969123D01*
X147959914Y-64969123D02*
X147912295Y-64778647D01*
X147912295Y-64778647D02*
X147912295Y-64635790D01*
X147912295Y-64635790D02*
X147959914Y-64445314D01*
X147959914Y-64445314D02*
X148007533Y-64350076D01*
X148007533Y-64350076D02*
X148102771Y-64254838D01*
X148102771Y-64254838D02*
X148245628Y-64207219D01*
X148245628Y-64207219D02*
X148340866Y-64207219D01*
X148340866Y-64207219D02*
X148483723Y-64254838D01*
X148483723Y-64254838D02*
X148531342Y-64302457D01*
X148912295Y-64302457D02*
X148959914Y-64254838D01*
X148959914Y-64254838D02*
X149055152Y-64207219D01*
X149055152Y-64207219D02*
X149293247Y-64207219D01*
X149293247Y-64207219D02*
X149388485Y-64254838D01*
X149388485Y-64254838D02*
X149436104Y-64302457D01*
X149436104Y-64302457D02*
X149483723Y-64397695D01*
X149483723Y-64397695D02*
X149483723Y-64492933D01*
X149483723Y-64492933D02*
X149436104Y-64635790D01*
X149436104Y-64635790D02*
X148864676Y-65207219D01*
X148864676Y-65207219D02*
X149483723Y-65207219D01*
X150102771Y-64207219D02*
X150198009Y-64207219D01*
X150198009Y-64207219D02*
X150293247Y-64254838D01*
X150293247Y-64254838D02*
X150340866Y-64302457D01*
X150340866Y-64302457D02*
X150388485Y-64397695D01*
X150388485Y-64397695D02*
X150436104Y-64588171D01*
X150436104Y-64588171D02*
X150436104Y-64826266D01*
X150436104Y-64826266D02*
X150388485Y-65016742D01*
X150388485Y-65016742D02*
X150340866Y-65111980D01*
X150340866Y-65111980D02*
X150293247Y-65159600D01*
X150293247Y-65159600D02*
X150198009Y-65207219D01*
X150198009Y-65207219D02*
X150102771Y-65207219D01*
X150102771Y-65207219D02*
X150007533Y-65159600D01*
X150007533Y-65159600D02*
X149959914Y-65111980D01*
X149959914Y-65111980D02*
X149912295Y-65016742D01*
X149912295Y-65016742D02*
X149864676Y-64826266D01*
X149864676Y-64826266D02*
X149864676Y-64588171D01*
X149864676Y-64588171D02*
X149912295Y-64397695D01*
X149912295Y-64397695D02*
X149959914Y-64302457D01*
X149959914Y-64302457D02*
X150007533Y-64254838D01*
X150007533Y-64254838D02*
X150102771Y-64207219D01*
%TO.C,C14*%
X122547142Y-81012380D02*
X122499523Y-81060000D01*
X122499523Y-81060000D02*
X122356666Y-81107619D01*
X122356666Y-81107619D02*
X122261428Y-81107619D01*
X122261428Y-81107619D02*
X122118571Y-81060000D01*
X122118571Y-81060000D02*
X122023333Y-80964761D01*
X122023333Y-80964761D02*
X121975714Y-80869523D01*
X121975714Y-80869523D02*
X121928095Y-80679047D01*
X121928095Y-80679047D02*
X121928095Y-80536190D01*
X121928095Y-80536190D02*
X121975714Y-80345714D01*
X121975714Y-80345714D02*
X122023333Y-80250476D01*
X122023333Y-80250476D02*
X122118571Y-80155238D01*
X122118571Y-80155238D02*
X122261428Y-80107619D01*
X122261428Y-80107619D02*
X122356666Y-80107619D01*
X122356666Y-80107619D02*
X122499523Y-80155238D01*
X122499523Y-80155238D02*
X122547142Y-80202857D01*
X123499523Y-81107619D02*
X122928095Y-81107619D01*
X123213809Y-81107619D02*
X123213809Y-80107619D01*
X123213809Y-80107619D02*
X123118571Y-80250476D01*
X123118571Y-80250476D02*
X123023333Y-80345714D01*
X123023333Y-80345714D02*
X122928095Y-80393333D01*
X124356666Y-80440952D02*
X124356666Y-81107619D01*
X124118571Y-80060000D02*
X123880476Y-80774285D01*
X123880476Y-80774285D02*
X124499523Y-80774285D01*
%TO.C,C16*%
X139742942Y-66331180D02*
X139695323Y-66378800D01*
X139695323Y-66378800D02*
X139552466Y-66426419D01*
X139552466Y-66426419D02*
X139457228Y-66426419D01*
X139457228Y-66426419D02*
X139314371Y-66378800D01*
X139314371Y-66378800D02*
X139219133Y-66283561D01*
X139219133Y-66283561D02*
X139171514Y-66188323D01*
X139171514Y-66188323D02*
X139123895Y-65997847D01*
X139123895Y-65997847D02*
X139123895Y-65854990D01*
X139123895Y-65854990D02*
X139171514Y-65664514D01*
X139171514Y-65664514D02*
X139219133Y-65569276D01*
X139219133Y-65569276D02*
X139314371Y-65474038D01*
X139314371Y-65474038D02*
X139457228Y-65426419D01*
X139457228Y-65426419D02*
X139552466Y-65426419D01*
X139552466Y-65426419D02*
X139695323Y-65474038D01*
X139695323Y-65474038D02*
X139742942Y-65521657D01*
X140695323Y-66426419D02*
X140123895Y-66426419D01*
X140409609Y-66426419D02*
X140409609Y-65426419D01*
X140409609Y-65426419D02*
X140314371Y-65569276D01*
X140314371Y-65569276D02*
X140219133Y-65664514D01*
X140219133Y-65664514D02*
X140123895Y-65712133D01*
X141552466Y-65426419D02*
X141361990Y-65426419D01*
X141361990Y-65426419D02*
X141266752Y-65474038D01*
X141266752Y-65474038D02*
X141219133Y-65521657D01*
X141219133Y-65521657D02*
X141123895Y-65664514D01*
X141123895Y-65664514D02*
X141076276Y-65854990D01*
X141076276Y-65854990D02*
X141076276Y-66235942D01*
X141076276Y-66235942D02*
X141123895Y-66331180D01*
X141123895Y-66331180D02*
X141171514Y-66378800D01*
X141171514Y-66378800D02*
X141266752Y-66426419D01*
X141266752Y-66426419D02*
X141457228Y-66426419D01*
X141457228Y-66426419D02*
X141552466Y-66378800D01*
X141552466Y-66378800D02*
X141600085Y-66331180D01*
X141600085Y-66331180D02*
X141647704Y-66235942D01*
X141647704Y-66235942D02*
X141647704Y-65997847D01*
X141647704Y-65997847D02*
X141600085Y-65902609D01*
X141600085Y-65902609D02*
X141552466Y-65854990D01*
X141552466Y-65854990D02*
X141457228Y-65807371D01*
X141457228Y-65807371D02*
X141266752Y-65807371D01*
X141266752Y-65807371D02*
X141171514Y-65854990D01*
X141171514Y-65854990D02*
X141123895Y-65902609D01*
X141123895Y-65902609D02*
X141076276Y-65997847D01*
%TO.C,C17*%
X122547142Y-76178580D02*
X122499523Y-76226200D01*
X122499523Y-76226200D02*
X122356666Y-76273819D01*
X122356666Y-76273819D02*
X122261428Y-76273819D01*
X122261428Y-76273819D02*
X122118571Y-76226200D01*
X122118571Y-76226200D02*
X122023333Y-76130961D01*
X122023333Y-76130961D02*
X121975714Y-76035723D01*
X121975714Y-76035723D02*
X121928095Y-75845247D01*
X121928095Y-75845247D02*
X121928095Y-75702390D01*
X121928095Y-75702390D02*
X121975714Y-75511914D01*
X121975714Y-75511914D02*
X122023333Y-75416676D01*
X122023333Y-75416676D02*
X122118571Y-75321438D01*
X122118571Y-75321438D02*
X122261428Y-75273819D01*
X122261428Y-75273819D02*
X122356666Y-75273819D01*
X122356666Y-75273819D02*
X122499523Y-75321438D01*
X122499523Y-75321438D02*
X122547142Y-75369057D01*
X123499523Y-76273819D02*
X122928095Y-76273819D01*
X123213809Y-76273819D02*
X123213809Y-75273819D01*
X123213809Y-75273819D02*
X123118571Y-75416676D01*
X123118571Y-75416676D02*
X123023333Y-75511914D01*
X123023333Y-75511914D02*
X122928095Y-75559533D01*
X123832857Y-75273819D02*
X124499523Y-75273819D01*
X124499523Y-75273819D02*
X124070952Y-76273819D01*
%TO.C,R6*%
X151801533Y-71733819D02*
X151468200Y-71257628D01*
X151230105Y-71733819D02*
X151230105Y-70733819D01*
X151230105Y-70733819D02*
X151611057Y-70733819D01*
X151611057Y-70733819D02*
X151706295Y-70781438D01*
X151706295Y-70781438D02*
X151753914Y-70829057D01*
X151753914Y-70829057D02*
X151801533Y-70924295D01*
X151801533Y-70924295D02*
X151801533Y-71067152D01*
X151801533Y-71067152D02*
X151753914Y-71162390D01*
X151753914Y-71162390D02*
X151706295Y-71210009D01*
X151706295Y-71210009D02*
X151611057Y-71257628D01*
X151611057Y-71257628D02*
X151230105Y-71257628D01*
X152658676Y-70733819D02*
X152468200Y-70733819D01*
X152468200Y-70733819D02*
X152372962Y-70781438D01*
X152372962Y-70781438D02*
X152325343Y-70829057D01*
X152325343Y-70829057D02*
X152230105Y-70971914D01*
X152230105Y-70971914D02*
X152182486Y-71162390D01*
X152182486Y-71162390D02*
X152182486Y-71543342D01*
X152182486Y-71543342D02*
X152230105Y-71638580D01*
X152230105Y-71638580D02*
X152277724Y-71686200D01*
X152277724Y-71686200D02*
X152372962Y-71733819D01*
X152372962Y-71733819D02*
X152563438Y-71733819D01*
X152563438Y-71733819D02*
X152658676Y-71686200D01*
X152658676Y-71686200D02*
X152706295Y-71638580D01*
X152706295Y-71638580D02*
X152753914Y-71543342D01*
X152753914Y-71543342D02*
X152753914Y-71305247D01*
X152753914Y-71305247D02*
X152706295Y-71210009D01*
X152706295Y-71210009D02*
X152658676Y-71162390D01*
X152658676Y-71162390D02*
X152563438Y-71114771D01*
X152563438Y-71114771D02*
X152372962Y-71114771D01*
X152372962Y-71114771D02*
X152277724Y-71162390D01*
X152277724Y-71162390D02*
X152230105Y-71210009D01*
X152230105Y-71210009D02*
X152182486Y-71305247D01*
%TO.C,U3*%
X149852019Y-77038104D02*
X150661542Y-77038104D01*
X150661542Y-77038104D02*
X150756780Y-76990485D01*
X150756780Y-76990485D02*
X150804400Y-76942866D01*
X150804400Y-76942866D02*
X150852019Y-76847628D01*
X150852019Y-76847628D02*
X150852019Y-76657152D01*
X150852019Y-76657152D02*
X150804400Y-76561914D01*
X150804400Y-76561914D02*
X150756780Y-76514295D01*
X150756780Y-76514295D02*
X150661542Y-76466676D01*
X150661542Y-76466676D02*
X149852019Y-76466676D01*
X149852019Y-76085723D02*
X149852019Y-75466676D01*
X149852019Y-75466676D02*
X150232971Y-75800009D01*
X150232971Y-75800009D02*
X150232971Y-75657152D01*
X150232971Y-75657152D02*
X150280590Y-75561914D01*
X150280590Y-75561914D02*
X150328209Y-75514295D01*
X150328209Y-75514295D02*
X150423447Y-75466676D01*
X150423447Y-75466676D02*
X150661542Y-75466676D01*
X150661542Y-75466676D02*
X150756780Y-75514295D01*
X150756780Y-75514295D02*
X150804400Y-75561914D01*
X150804400Y-75561914D02*
X150852019Y-75657152D01*
X150852019Y-75657152D02*
X150852019Y-75942866D01*
X150852019Y-75942866D02*
X150804400Y-76038104D01*
X150804400Y-76038104D02*
X150756780Y-76085723D01*
D12*
%TO.C,R10*%
X144270759Y-54941200D02*
X144578041Y-54941200D01*
X144270759Y-55701200D02*
X144578041Y-55701200D01*
%TO.C,C4*%
X139171000Y-63939964D02*
X139171000Y-64155636D01*
X138451000Y-63939964D02*
X138451000Y-64155636D01*
%TO.C,kibuzzard-643E3FBD*%
G36*
X152672211Y-106169960D02*
G01*
X152789198Y-106205448D01*
X152897014Y-106263077D01*
X152991516Y-106340632D01*
X153069071Y-106435134D01*
X153126700Y-106542950D01*
X153162188Y-106659937D01*
X153174171Y-106781600D01*
X153162188Y-106903263D01*
X153126700Y-107020250D01*
X153069071Y-107128066D01*
X152991516Y-107222568D01*
X152897014Y-107300123D01*
X152789198Y-107357752D01*
X152672211Y-107393240D01*
X152550548Y-107405223D01*
X152352110Y-107405223D01*
X152194948Y-107405223D01*
X150937648Y-107405223D01*
X149350148Y-107405223D01*
X148556398Y-107405223D01*
X148490252Y-107405223D01*
X148368589Y-107393240D01*
X148251602Y-107357752D01*
X148143786Y-107300124D01*
X148049284Y-107222568D01*
X147971729Y-107128066D01*
X147914100Y-107020250D01*
X147878612Y-106903263D01*
X147866629Y-106781600D01*
X147878612Y-106659937D01*
X147914100Y-106542950D01*
X147971729Y-106435134D01*
X148049284Y-106340632D01*
X148110651Y-106290269D01*
X148556398Y-106290269D01*
X148556398Y-107272931D01*
X149186635Y-107272931D01*
X149186635Y-107111006D01*
X148751660Y-107111006D01*
X148751660Y-106834781D01*
X149099323Y-106834781D01*
X149099323Y-106672856D01*
X148751660Y-106672856D01*
X148751660Y-106452194D01*
X149151710Y-106452194D01*
X149151710Y-106290269D01*
X149350148Y-106290269D01*
X149350148Y-107272931D01*
X149980385Y-107272931D01*
X149980385Y-107111006D01*
X149545410Y-107111006D01*
X149545410Y-106834781D01*
X149893073Y-106834781D01*
X149893073Y-106672856D01*
X149545410Y-106672856D01*
X149545410Y-106452194D01*
X149945460Y-106452194D01*
X149945460Y-106290269D01*
X150937648Y-106290269D01*
X150937648Y-107272931D01*
X151567885Y-107272931D01*
X151567885Y-107111006D01*
X151132910Y-107111006D01*
X151132910Y-106834781D01*
X151480573Y-106834781D01*
X151480573Y-106672856D01*
X151132910Y-106672856D01*
X151132910Y-106452194D01*
X151532960Y-106452194D01*
X151532960Y-106290269D01*
X151704410Y-106290269D01*
X151704410Y-107272931D01*
X151880623Y-107272931D01*
X151880623Y-106620469D01*
X151939625Y-106729389D01*
X151995981Y-106838133D01*
X152049692Y-106946700D01*
X152100756Y-107055267D01*
X152149175Y-107164011D01*
X152194948Y-107272931D01*
X152352110Y-107272931D01*
X152352110Y-106290269D01*
X152175898Y-106290269D01*
X152175898Y-106895106D01*
X152147918Y-106833194D01*
X152114779Y-106761756D01*
X152077473Y-106684366D01*
X152036992Y-106604594D01*
X151994328Y-106523433D01*
X151950473Y-106441875D01*
X151906023Y-106363095D01*
X151861573Y-106290269D01*
X151704410Y-106290269D01*
X151532960Y-106290269D01*
X150937648Y-106290269D01*
X149945460Y-106290269D01*
X149350148Y-106290269D01*
X149151710Y-106290269D01*
X148556398Y-106290269D01*
X148110651Y-106290269D01*
X148143786Y-106263076D01*
X148251602Y-106205448D01*
X148368589Y-106169960D01*
X148490252Y-106157977D01*
X148556398Y-106157977D01*
X152352110Y-106157977D01*
X152550548Y-106157977D01*
X152672211Y-106169960D01*
G37*
%TO.C,C9*%
X140327748Y-95962800D02*
X140850252Y-95962800D01*
X140327748Y-97432800D02*
X140850252Y-97432800D01*
%TO.C,kibuzzard-64365B80*%
G36*
X119940990Y-58700194D02*
G01*
X120006078Y-58774013D01*
X120039415Y-58880375D01*
X120048940Y-59004200D01*
X120045964Y-59074248D01*
X120037034Y-59138344D01*
X119997346Y-59243913D01*
X119924321Y-59313762D01*
X119812403Y-59339163D01*
X119794940Y-59339163D01*
X119777478Y-59337575D01*
X119777478Y-58677175D01*
X119806053Y-58673206D01*
X119834628Y-58672413D01*
X119940990Y-58700194D01*
G37*
G36*
X120571659Y-58371540D02*
G01*
X120692667Y-58408248D01*
X120804188Y-58467857D01*
X120901937Y-58548078D01*
X120982158Y-58645827D01*
X121041768Y-58757348D01*
X121078475Y-58878356D01*
X121090869Y-59004200D01*
X121078475Y-59130044D01*
X121041768Y-59251052D01*
X120982158Y-59362573D01*
X120901937Y-59460322D01*
X120804188Y-59540543D01*
X120692667Y-59600152D01*
X120571659Y-59636860D01*
X120445815Y-59649254D01*
X120247378Y-59649254D01*
X119791765Y-59649254D01*
X119266303Y-59649254D01*
X118353490Y-59649254D01*
X117951853Y-59649254D01*
X117885707Y-59649254D01*
X117759863Y-59636860D01*
X117638855Y-59600152D01*
X117527334Y-59540543D01*
X117429585Y-59460322D01*
X117349364Y-59362573D01*
X117289754Y-59251052D01*
X117253047Y-59130044D01*
X117240653Y-59004200D01*
X117951853Y-59004200D01*
X117958996Y-59123461D01*
X117980428Y-59227244D01*
X118014956Y-59315350D01*
X118061390Y-59387581D01*
X118119135Y-59443938D01*
X118187596Y-59484419D01*
X118265979Y-59508827D01*
X118353490Y-59516963D01*
X118450526Y-59512994D01*
X118532084Y-59501088D01*
X118640828Y-59472513D01*
X118640828Y-58981975D01*
X118445565Y-58981975D01*
X118445565Y-59340750D01*
X118407465Y-59345513D01*
X118369365Y-59347100D01*
X118274512Y-59326264D01*
X118205853Y-59263756D01*
X118174985Y-59197875D01*
X118156464Y-59111356D01*
X118150290Y-59004200D01*
X118153664Y-58931373D01*
X118163784Y-58865294D01*
X118208234Y-58757344D01*
X118286815Y-58686700D01*
X118404290Y-58661300D01*
X118509065Y-58678763D01*
X118594790Y-58718450D01*
X118645590Y-58562875D01*
X118613046Y-58543825D01*
X118558278Y-58520013D01*
X118533132Y-58513663D01*
X118775765Y-58513663D01*
X118775765Y-59496325D01*
X118951978Y-59496325D01*
X118951978Y-58843863D01*
X119010980Y-58952783D01*
X119067336Y-59061526D01*
X119121046Y-59170094D01*
X119172111Y-59278661D01*
X119220530Y-59387405D01*
X119266303Y-59496325D01*
X119423465Y-59496325D01*
X119423465Y-59485213D01*
X119582215Y-59485213D01*
X119689371Y-59503469D01*
X119791765Y-59509025D01*
X119887610Y-59502080D01*
X119975121Y-59481244D01*
X120052710Y-59445327D01*
X120118790Y-59393138D01*
X120172567Y-59323883D01*
X120213246Y-59236769D01*
X120238845Y-59130605D01*
X120247378Y-59004200D01*
X120239639Y-58880573D01*
X120216421Y-58776394D01*
X120179314Y-58690272D01*
X120129903Y-58620819D01*
X120068189Y-58567836D01*
X119994171Y-58531125D01*
X119909835Y-58509694D01*
X119817165Y-58502550D01*
X119707628Y-58507313D01*
X119582215Y-58526363D01*
X119582215Y-59485213D01*
X119423465Y-59485213D01*
X119423465Y-58513663D01*
X119247253Y-58513663D01*
X119247253Y-59118500D01*
X119219273Y-59056588D01*
X119186134Y-58985150D01*
X119148828Y-58907759D01*
X119108346Y-58827987D01*
X119065682Y-58746827D01*
X119021828Y-58665269D01*
X118977378Y-58586489D01*
X118932928Y-58513663D01*
X118775765Y-58513663D01*
X118533132Y-58513663D01*
X118479696Y-58500169D01*
X118377303Y-58491438D01*
X118291181Y-58499573D01*
X118210615Y-58523981D01*
X118137987Y-58564661D01*
X118075678Y-58621613D01*
X118024481Y-58694439D01*
X117985190Y-58782744D01*
X117960187Y-58886130D01*
X117951853Y-59004200D01*
X117240653Y-59004200D01*
X117253047Y-58878356D01*
X117289754Y-58757348D01*
X117349364Y-58645827D01*
X117429585Y-58548078D01*
X117527334Y-58467857D01*
X117638855Y-58408248D01*
X117759863Y-58371540D01*
X117885707Y-58359146D01*
X117951853Y-58359146D01*
X120247378Y-58359146D01*
X120445815Y-58359146D01*
X120571659Y-58371540D01*
G37*
%TO.C,C19*%
X138124400Y-87471364D02*
X138124400Y-87687036D01*
X137404400Y-87471364D02*
X137404400Y-87687036D01*
%TO.C,D3*%
X129786500Y-109787400D02*
X131706500Y-109787400D01*
X131706500Y-109787400D02*
X131706500Y-107102400D01*
X129786500Y-107102400D02*
X129786500Y-109787400D01*
%TO.C,SW2*%
X149455400Y-55463800D02*
X149575400Y-55463800D01*
X150585400Y-55463800D02*
X151725400Y-55463800D01*
X152735400Y-55463800D02*
X152855400Y-55463800D01*
X152855400Y-55463800D02*
X152855400Y-51063800D01*
X149455400Y-51063800D02*
X149455400Y-55463800D01*
X149575400Y-51063800D02*
X149455400Y-51063800D01*
X151725400Y-51063800D02*
X150585400Y-51063800D01*
X152855400Y-51063800D02*
X152735400Y-51063800D01*
%TO.C,C7*%
X144548820Y-53363400D02*
X144829980Y-53363400D01*
X144548820Y-54383400D02*
X144829980Y-54383400D01*
%TO.C,C5*%
X143708800Y-63415636D02*
X143708800Y-63199964D01*
X144428800Y-63415636D02*
X144428800Y-63199964D01*
%TO.C,D1*%
X128711200Y-51013800D02*
X126711200Y-51013800D01*
X128711200Y-51013800D02*
X128711200Y-54913800D01*
X126711200Y-51013800D02*
X126711200Y-54913800D01*
%TO.C,D2*%
X123652400Y-61146400D02*
X125572400Y-61146400D01*
X125572400Y-61146400D02*
X125572400Y-58461400D01*
X123652400Y-58461400D02*
X123652400Y-61146400D01*
%TO.C,R9*%
X127788400Y-105284241D02*
X127788400Y-104976959D01*
X128548400Y-105284241D02*
X128548400Y-104976959D01*
%TO.C,R3*%
X151001759Y-56389000D02*
X151309041Y-56389000D01*
X151001759Y-57149000D02*
X151309041Y-57149000D01*
%TO.C,C3*%
X145267000Y-87471364D02*
X145267000Y-87687036D01*
X144547000Y-87471364D02*
X144547000Y-87687036D01*
%TO.C,C18*%
X134146236Y-65866600D02*
X133930564Y-65866600D01*
X134146236Y-65146600D02*
X133930564Y-65146600D01*
%TO.C,C6*%
X140327748Y-93676800D02*
X140850252Y-93676800D01*
X140327748Y-95146800D02*
X140850252Y-95146800D01*
%TO.C,R8*%
X130366500Y-105284241D02*
X130366500Y-104976959D01*
X131126500Y-105284241D02*
X131126500Y-104976959D01*
%TO.C,Y1*%
X143427200Y-65327800D02*
X143427200Y-62027800D01*
X143427200Y-62027800D02*
X139427200Y-62027800D01*
%TO.C,R1*%
X139800600Y-103833959D02*
X139800600Y-104141241D01*
X139040600Y-103833959D02*
X139040600Y-104141241D01*
%TO.C,kibuzzard-643CE364*%
G36*
X148362194Y-53811752D02*
G01*
X148260594Y-53791908D01*
X148162963Y-53769683D01*
X148064537Y-53744283D01*
X147958969Y-53714915D01*
X148064537Y-53685546D01*
X148162963Y-53660146D01*
X148260594Y-53638715D01*
X148362194Y-53619665D01*
X148362194Y-53811752D01*
G37*
G36*
X148883423Y-52760827D02*
G01*
X148883423Y-53540290D01*
X148883423Y-54202277D01*
X148883423Y-54867440D01*
X148883423Y-54933585D01*
X148871440Y-55055248D01*
X148835952Y-55172236D01*
X148778324Y-55280052D01*
X148700768Y-55374553D01*
X148606266Y-55452109D01*
X148498450Y-55509738D01*
X148381463Y-55545226D01*
X148259800Y-55557208D01*
X148138137Y-55545226D01*
X148021150Y-55509738D01*
X147913334Y-55452109D01*
X147818832Y-55374553D01*
X147741276Y-55280052D01*
X147683648Y-55172236D01*
X147648160Y-55055248D01*
X147636177Y-54933585D01*
X147636177Y-54867440D01*
X147768469Y-54867440D01*
X147889714Y-54863868D01*
X148015325Y-54859502D01*
X148142722Y-54854144D01*
X148269325Y-54847596D01*
X148394738Y-54839857D01*
X148518563Y-54830927D01*
X148638220Y-54820608D01*
X148751131Y-54808702D01*
X148751131Y-54646777D01*
X148646753Y-54613440D01*
X148533644Y-54576927D01*
X148420534Y-54539621D01*
X148316156Y-54503902D01*
X148423511Y-54468977D01*
X148536025Y-54434052D01*
X148647348Y-54399127D01*
X148751131Y-54364202D01*
X148751131Y-54202277D01*
X148638419Y-54191760D01*
X148519356Y-54182433D01*
X148396127Y-54174297D01*
X148270913Y-54167352D01*
X148144309Y-54161399D01*
X148016913Y-54156240D01*
X147890905Y-54151477D01*
X147768469Y-54146715D01*
X147768469Y-54327690D01*
X147863917Y-54327293D01*
X147962937Y-54326102D01*
X148063148Y-54324515D01*
X148162169Y-54322927D01*
X148259602Y-54321340D01*
X148355050Y-54319752D01*
X148446530Y-54318561D01*
X148532056Y-54318165D01*
X148405056Y-54353883D01*
X148289169Y-54387221D01*
X148190744Y-54415002D01*
X148116131Y-54434052D01*
X148116131Y-54576927D01*
X148193919Y-54599152D01*
X148301869Y-54630108D01*
X148420931Y-54665033D01*
X148532056Y-54697577D01*
X148446530Y-54697180D01*
X148355050Y-54695990D01*
X148259403Y-54694402D01*
X148161375Y-54692815D01*
X148061958Y-54691227D01*
X147962144Y-54689640D01*
X147863719Y-54688052D01*
X147768469Y-54686465D01*
X147768469Y-54867440D01*
X147636177Y-54867440D01*
X147636177Y-53816515D01*
X147768469Y-53816515D01*
X147877163Y-53850150D01*
X147988933Y-53884380D01*
X148103779Y-53919206D01*
X148221700Y-53954627D01*
X148319331Y-53983139D01*
X148421090Y-54011523D01*
X148526976Y-54039781D01*
X148636990Y-54067911D01*
X148751131Y-54095915D01*
X148751131Y-53892715D01*
X148524119Y-53848265D01*
X148524119Y-53586327D01*
X148751131Y-53540290D01*
X148751131Y-53330740D01*
X148639721Y-53356933D01*
X148531548Y-53383445D01*
X148426615Y-53410273D01*
X148324919Y-53437420D01*
X148226462Y-53464883D01*
X148107053Y-53499461D01*
X147990917Y-53534138D01*
X147878056Y-53568914D01*
X147768469Y-53603790D01*
X147768469Y-53816515D01*
X147636177Y-53816515D01*
X147636177Y-53245015D01*
X147768469Y-53245015D01*
X148751131Y-53245015D01*
X148751131Y-53049752D01*
X148301869Y-53049752D01*
X148391563Y-52966408D01*
X148446728Y-52923744D01*
X148505863Y-52883065D01*
X148567775Y-52845163D01*
X148631275Y-52810833D01*
X148751131Y-52760827D01*
X148751131Y-52540165D01*
X148680289Y-52565961D01*
X148607463Y-52598902D01*
X148534437Y-52637597D01*
X148463000Y-52680658D01*
X148394539Y-52727291D01*
X148330444Y-52776702D01*
X148272103Y-52827105D01*
X148220906Y-52876715D01*
X148162566Y-52828494D01*
X148101844Y-52782258D01*
X148040527Y-52738404D01*
X147980400Y-52697327D01*
X147922059Y-52659822D01*
X147866100Y-52626683D01*
X147768469Y-52573502D01*
X147768469Y-52794165D01*
X147863719Y-52841790D01*
X147970081Y-52904496D01*
X148078031Y-52976727D01*
X148176456Y-53049752D01*
X147768469Y-53049752D01*
X147768469Y-53245015D01*
X147636177Y-53245015D01*
X147636177Y-52422690D01*
X147768469Y-52422690D01*
X148751131Y-52422690D01*
X148751131Y-51792452D01*
X148589206Y-51792452D01*
X148589206Y-52227427D01*
X148312981Y-52227427D01*
X148312981Y-51879765D01*
X148151056Y-51879765D01*
X148151056Y-52227427D01*
X147930394Y-52227427D01*
X147930394Y-51827377D01*
X147768469Y-51827377D01*
X147768469Y-52422690D01*
X147636177Y-52422690D01*
X147636177Y-51792452D01*
X147636177Y-51594015D01*
X147648160Y-51472352D01*
X147683648Y-51355364D01*
X147741276Y-51247548D01*
X147818832Y-51153047D01*
X147913334Y-51075491D01*
X148021150Y-51017862D01*
X148138137Y-50982374D01*
X148259800Y-50970392D01*
X148381463Y-50982374D01*
X148498450Y-51017862D01*
X148606266Y-51075491D01*
X148700768Y-51153047D01*
X148778324Y-51247548D01*
X148835952Y-51355364D01*
X148871440Y-51472352D01*
X148883423Y-51594015D01*
X148883423Y-51792452D01*
X148883423Y-52422690D01*
X148883423Y-52760827D01*
G37*
%TO.C,C2*%
X145063800Y-106239364D02*
X145063800Y-106455036D01*
X144343800Y-106239364D02*
X144343800Y-106455036D01*
%TO.C,F1*%
X141854422Y-59030800D02*
X142371578Y-59030800D01*
X141854422Y-60450800D02*
X142371578Y-60450800D01*
%TO.C,C10*%
X123297836Y-71761200D02*
X123082164Y-71761200D01*
X123297836Y-71041200D02*
X123082164Y-71041200D01*
%TO.C,R4*%
X124458759Y-56389000D02*
X124766041Y-56389000D01*
X124458759Y-57149000D02*
X124766041Y-57149000D01*
%TO.C,J4*%
X157750200Y-57663800D02*
X159080200Y-57663800D01*
X157750200Y-58993800D02*
X157750200Y-57663800D01*
X157750200Y-60263800D02*
X157750200Y-103503800D01*
X157750200Y-60263800D02*
X160350200Y-60263800D01*
X157750200Y-103503800D02*
X162950200Y-103503800D01*
X160350200Y-57663800D02*
X162950200Y-57663800D01*
X160350200Y-60263800D02*
X160350200Y-57663800D01*
X162950200Y-57663800D02*
X162950200Y-103503800D01*
%TO.C,C11*%
X148761564Y-66924600D02*
X148977236Y-66924600D01*
X148761564Y-67644600D02*
X148977236Y-67644600D01*
%TO.C,R12*%
X128320041Y-65150000D02*
X128012759Y-65150000D01*
X128320041Y-64390000D02*
X128012759Y-64390000D01*
%TO.C,D4*%
X127208400Y-109787400D02*
X129128400Y-109787400D01*
X129128400Y-109787400D02*
X129128400Y-107102400D01*
X127208400Y-107102400D02*
X127208400Y-109787400D01*
%TO.C,R7*%
X126694200Y-59282359D02*
X126694200Y-59589641D01*
X125934200Y-59282359D02*
X125934200Y-59589641D01*
%TO.C,J5*%
X126633200Y-107864600D02*
X126633200Y-109194600D01*
X125303200Y-107864600D02*
X126633200Y-107864600D01*
X124033200Y-107864600D02*
X121433200Y-107864600D01*
X124033200Y-107864600D02*
X124033200Y-110524600D01*
X121433200Y-107864600D02*
X121433200Y-110524600D01*
X124033200Y-110524600D02*
X121433200Y-110524600D01*
%TO.C,J2*%
X141374800Y-52827400D02*
X141374800Y-56057400D01*
X141374800Y-48657400D02*
X141374800Y-50607400D01*
X140654800Y-57977400D02*
X139574800Y-57977400D01*
X139574800Y-57977400D02*
X139574800Y-58407400D01*
X135354800Y-57977400D02*
X134274800Y-57977400D01*
X133554800Y-52827400D02*
X133554800Y-56057400D01*
X133554800Y-48657400D02*
X141374800Y-48657400D01*
X133554800Y-48657400D02*
X133554800Y-50607400D01*
%TO.C,kibuzzard-643E3FB1*%
G36*
X123745360Y-106450606D02*
G01*
X123810448Y-106524425D01*
X123843785Y-106630788D01*
X123853310Y-106754612D01*
X123850334Y-106824661D01*
X123841404Y-106888756D01*
X123801717Y-106994325D01*
X123728692Y-107064175D01*
X123616773Y-107089575D01*
X123599310Y-107089575D01*
X123581848Y-107087988D01*
X123581848Y-106427587D01*
X123610423Y-106423619D01*
X123638998Y-106422825D01*
X123745360Y-106450606D01*
G37*
G36*
X126725259Y-106132882D02*
G01*
X126844479Y-106169048D01*
X126954354Y-106227777D01*
X127050660Y-106306813D01*
X127129696Y-106403119D01*
X127188425Y-106512994D01*
X127224591Y-106632214D01*
X127236802Y-106756200D01*
X127224591Y-106880186D01*
X127188425Y-106999406D01*
X127129696Y-107109281D01*
X127050660Y-107205587D01*
X126954354Y-107284623D01*
X126844479Y-107343352D01*
X126725259Y-107379518D01*
X126601273Y-107391729D01*
X126402835Y-107391729D01*
X126245673Y-107391729D01*
X124988373Y-107391729D01*
X123596135Y-107391729D01*
X122607123Y-107391729D01*
X122443610Y-107391729D01*
X121826073Y-107391729D01*
X121759927Y-107391729D01*
X121635941Y-107379518D01*
X121516721Y-107343352D01*
X121406846Y-107284623D01*
X121310540Y-107205587D01*
X121231504Y-107109281D01*
X121172775Y-106999406D01*
X121136609Y-106880186D01*
X121124398Y-106756200D01*
X121136609Y-106632214D01*
X121172775Y-106512994D01*
X121231504Y-106403119D01*
X121310540Y-106306813D01*
X121362617Y-106264075D01*
X121826073Y-106264075D01*
X121826073Y-107246738D01*
X122443610Y-107246738D01*
X122443610Y-107084813D01*
X122022923Y-107084813D01*
X122022923Y-106264075D01*
X122607123Y-106264075D01*
X122607123Y-107246738D01*
X123237360Y-107246738D01*
X123237360Y-107235625D01*
X123386585Y-107235625D01*
X123493742Y-107253881D01*
X123596135Y-107259438D01*
X123691981Y-107252492D01*
X123779492Y-107231656D01*
X123857081Y-107195739D01*
X123923160Y-107143550D01*
X123976937Y-107074295D01*
X124017617Y-106987181D01*
X124043215Y-106881017D01*
X124051748Y-106754612D01*
X124044009Y-106630986D01*
X124020792Y-106526806D01*
X123983684Y-106440684D01*
X123934273Y-106371231D01*
X123872559Y-106318248D01*
X123798542Y-106281537D01*
X123729825Y-106264075D01*
X124988373Y-106264075D01*
X124988373Y-107246738D01*
X125618610Y-107246738D01*
X125618610Y-107084813D01*
X125183635Y-107084813D01*
X125183635Y-106808587D01*
X125531298Y-106808587D01*
X125531298Y-106646662D01*
X125183635Y-106646662D01*
X125183635Y-106426000D01*
X125583685Y-106426000D01*
X125583685Y-106264075D01*
X125755135Y-106264075D01*
X125755135Y-107246738D01*
X125931348Y-107246738D01*
X125931348Y-106594275D01*
X125990350Y-106703195D01*
X126046706Y-106811939D01*
X126100417Y-106920506D01*
X126151481Y-107029074D01*
X126199900Y-107137817D01*
X126245673Y-107246738D01*
X126402835Y-107246738D01*
X126402835Y-106264075D01*
X126226623Y-106264075D01*
X126226623Y-106868913D01*
X126198643Y-106807000D01*
X126165504Y-106735562D01*
X126128198Y-106658172D01*
X126087717Y-106578400D01*
X126045053Y-106497239D01*
X126001198Y-106415681D01*
X125956748Y-106336902D01*
X125912298Y-106264075D01*
X125755135Y-106264075D01*
X125583685Y-106264075D01*
X124988373Y-106264075D01*
X123729825Y-106264075D01*
X123714206Y-106260106D01*
X123621535Y-106252962D01*
X123511998Y-106257725D01*
X123386585Y-106276775D01*
X123386585Y-107235625D01*
X123237360Y-107235625D01*
X123237360Y-107084813D01*
X122802385Y-107084813D01*
X122802385Y-106808587D01*
X123150048Y-106808587D01*
X123150048Y-106646662D01*
X122802385Y-106646662D01*
X122802385Y-106426000D01*
X123202435Y-106426000D01*
X123202435Y-106264075D01*
X122607123Y-106264075D01*
X122022923Y-106264075D01*
X121826073Y-106264075D01*
X121362617Y-106264075D01*
X121406846Y-106227777D01*
X121516721Y-106169048D01*
X121635941Y-106132882D01*
X121759927Y-106120671D01*
X121826073Y-106120671D01*
X126402835Y-106120671D01*
X126601273Y-106120671D01*
X126725259Y-106132882D01*
G37*
%TO.C,SW1*%
X122912400Y-55463800D02*
X123032400Y-55463800D01*
X124042400Y-55463800D02*
X125182400Y-55463800D01*
X126192400Y-55463800D02*
X126312400Y-55463800D01*
X126312400Y-55463800D02*
X126312400Y-51063800D01*
X122912400Y-51063800D02*
X122912400Y-55463800D01*
X123032400Y-51063800D02*
X122912400Y-51063800D01*
X125182400Y-51063800D02*
X124042400Y-51063800D01*
X126312400Y-51063800D02*
X126192400Y-51063800D01*
%TO.C,C12*%
X151936564Y-79491200D02*
X152152236Y-79491200D01*
X151936564Y-80211200D02*
X152152236Y-80211200D01*
%TO.C,C1*%
X147774933Y-87471364D02*
X147774933Y-87687036D01*
X147054933Y-87471364D02*
X147054933Y-87687036D01*
%TO.C,C8*%
X129674400Y-87471364D02*
X129674400Y-87687036D01*
X128954400Y-87471364D02*
X128954400Y-87687036D01*
%TO.C,J1*%
X148067800Y-110524600D02*
X148067800Y-109194600D01*
X149397800Y-110524600D02*
X148067800Y-110524600D01*
X150667800Y-110524600D02*
X153267800Y-110524600D01*
X150667800Y-110524600D02*
X150667800Y-107864600D01*
X153267800Y-110524600D02*
X153267800Y-107864600D01*
X150667800Y-107864600D02*
X153267800Y-107864600D01*
%TO.C,R11*%
X133679200Y-104976959D02*
X133679200Y-105284241D01*
X132919200Y-104976959D02*
X132919200Y-105284241D01*
%TO.C,C15*%
X140227164Y-98090400D02*
X140442836Y-98090400D01*
X140227164Y-98810400D02*
X140442836Y-98810400D01*
%TO.C,D5*%
X132339200Y-109787400D02*
X134259200Y-109787400D01*
X134259200Y-109787400D02*
X134259200Y-107102400D01*
X132339200Y-107102400D02*
X132339200Y-109787400D01*
%TO.C,U2*%
X140030200Y-105212200D02*
X136580200Y-105212200D01*
X140030200Y-105212200D02*
X141980200Y-105212200D01*
X140030200Y-110332200D02*
X138080200Y-110332200D01*
X140030200Y-110332200D02*
X141980200Y-110332200D01*
%TO.C,R2*%
X141070600Y-103833959D02*
X141070600Y-104141241D01*
X140310600Y-103833959D02*
X140310600Y-104141241D01*
%TO.C,C13*%
X146520966Y-87471364D02*
X146520966Y-87687036D01*
X145800966Y-87471364D02*
X145800966Y-87687036D01*
%TO.C,U1*%
X137831000Y-100133200D02*
X131821000Y-100133200D01*
X135581000Y-93313200D02*
X131821000Y-93313200D01*
X131821000Y-100133200D02*
X131821000Y-98873200D01*
X131821000Y-93313200D02*
X131821000Y-94573200D01*
%TO.C,R5*%
X128012759Y-63196200D02*
X128320041Y-63196200D01*
X128012759Y-63956200D02*
X128320041Y-63956200D01*
%TO.C,kibuzzard-643CE35F*%
G36*
X121620756Y-54075277D02*
G01*
X121649927Y-54133618D01*
X121659650Y-54219740D01*
X121659650Y-54262602D01*
X121364375Y-54262602D01*
X121360406Y-54230852D01*
X121359613Y-54203865D01*
X121368741Y-54133618D01*
X121396125Y-54078452D01*
X121442956Y-54042733D01*
X121510425Y-54030827D01*
X121620756Y-54075277D01*
G37*
G36*
X122336454Y-53381540D02*
G01*
X122336454Y-53767302D01*
X122336454Y-54457865D01*
X122336454Y-54524010D01*
X122324060Y-54649854D01*
X122287352Y-54770862D01*
X122227743Y-54882383D01*
X122147522Y-54980133D01*
X122049773Y-55060353D01*
X121938252Y-55119963D01*
X121817244Y-55156670D01*
X121691400Y-55169065D01*
X121565556Y-55156670D01*
X121444548Y-55119963D01*
X121333027Y-55060353D01*
X121235278Y-54980133D01*
X121155057Y-54882383D01*
X121095448Y-54770862D01*
X121058740Y-54649854D01*
X121046346Y-54524010D01*
X121046346Y-54457865D01*
X121046346Y-54203865D01*
X121189750Y-54203865D01*
X121191338Y-54259427D01*
X121195306Y-54326102D01*
X121203244Y-54395158D01*
X121215150Y-54457865D01*
X122183525Y-54457865D01*
X122183525Y-54262602D01*
X121821575Y-54262602D01*
X121821575Y-54161002D01*
X121911467Y-54107226D01*
X122000169Y-54057021D01*
X122090061Y-54011579D01*
X122183525Y-53972090D01*
X122183525Y-53767302D01*
X122079544Y-53812546D01*
X121970006Y-53867315D01*
X121865231Y-53926052D01*
X121773950Y-53983202D01*
X121729103Y-53913749D01*
X121667588Y-53867315D01*
X121593769Y-53841121D01*
X121512013Y-53832390D01*
X121434820Y-53838938D01*
X121368344Y-53858583D01*
X121267537Y-53933990D01*
X121233009Y-53987965D01*
X121208800Y-54051465D01*
X121194512Y-54123696D01*
X121189750Y-54203865D01*
X121046346Y-54203865D01*
X121046346Y-53335502D01*
X121178638Y-53335502D01*
X121187281Y-53432781D01*
X121213210Y-53515066D01*
X121256425Y-53582358D01*
X121349294Y-53649629D01*
X121472325Y-53672052D01*
X121589006Y-53646652D01*
X121667588Y-53582358D01*
X121719975Y-53495840D01*
X121756488Y-53403765D01*
X121784269Y-53337090D01*
X121817606Y-53276765D01*
X121859675Y-53232315D01*
X121913650Y-53214852D01*
X121960481Y-53221996D01*
X122001756Y-53248190D01*
X122030331Y-53299783D01*
X122040650Y-53381540D01*
X122035094Y-53460716D01*
X122018425Y-53526796D01*
X121970800Y-53629190D01*
X122129550Y-53686340D01*
X122177969Y-53576802D01*
X122197614Y-53491474D01*
X122204163Y-53381540D01*
X122195784Y-53270150D01*
X122170649Y-53179398D01*
X122128756Y-53109283D01*
X122037673Y-53042013D01*
X121915238Y-53019590D01*
X121841220Y-53026336D01*
X121781094Y-53046577D01*
X121692194Y-53115633D01*
X121635044Y-53207708D01*
X121596150Y-53303752D01*
X121572338Y-53364871D01*
X121542969Y-53420433D01*
X121504869Y-53460915D01*
X121454863Y-53476790D01*
X121392244Y-53459503D01*
X121354674Y-53407645D01*
X121342150Y-53321215D01*
X121358025Y-53209296D01*
X121396125Y-53121190D01*
X121245313Y-53064040D01*
X121199275Y-53177546D01*
X121183797Y-53250769D01*
X121178638Y-53335502D01*
X121046346Y-53335502D01*
X121046346Y-52916402D01*
X121200863Y-52916402D01*
X121362788Y-52916402D01*
X121362788Y-52657640D01*
X122183525Y-52657640D01*
X122183525Y-52460790D01*
X121362788Y-52460790D01*
X121362788Y-52202027D01*
X121200863Y-52202027D01*
X121200863Y-52916402D01*
X121046346Y-52916402D01*
X121046346Y-52202027D01*
X121046346Y-52003590D01*
X121058740Y-51877746D01*
X121095448Y-51756738D01*
X121155057Y-51645217D01*
X121235278Y-51547467D01*
X121333027Y-51467247D01*
X121444548Y-51407637D01*
X121565556Y-51370930D01*
X121691400Y-51358535D01*
X121817244Y-51370930D01*
X121938252Y-51407637D01*
X122049773Y-51467247D01*
X122147522Y-51547467D01*
X122227743Y-51645217D01*
X122287352Y-51756738D01*
X122324060Y-51877746D01*
X122336454Y-52003590D01*
X122336454Y-52202027D01*
X122336454Y-52460790D01*
X122336454Y-53381540D01*
G37*
%TO.C,J3*%
X112030200Y-57663800D02*
X113360200Y-57663800D01*
X112030200Y-58993800D02*
X112030200Y-57663800D01*
X112030200Y-60263800D02*
X112030200Y-103503800D01*
X112030200Y-60263800D02*
X114630200Y-60263800D01*
X112030200Y-103503800D02*
X117230200Y-103503800D01*
X114630200Y-57663800D02*
X117230200Y-57663800D01*
X114630200Y-60263800D02*
X114630200Y-57663800D01*
X117230200Y-57663800D02*
X117230200Y-103503800D01*
%TO.C,C20*%
X149033620Y-65530000D02*
X149314780Y-65530000D01*
X149033620Y-66550000D02*
X149314780Y-66550000D01*
%TO.C,C14*%
X123297836Y-82161200D02*
X123082164Y-82161200D01*
X123297836Y-81441200D02*
X123082164Y-81441200D01*
%TO.C,C16*%
X137864964Y-65146600D02*
X138080636Y-65146600D01*
X137864964Y-65866600D02*
X138080636Y-65866600D01*
%TO.C,C17*%
X123297836Y-75011200D02*
X123082164Y-75011200D01*
X123297836Y-74291200D02*
X123082164Y-74291200D01*
%TO.C,R6*%
X152121841Y-70481200D02*
X151814559Y-70481200D01*
X152121841Y-69721200D02*
X151814559Y-69721200D01*
%TO.C,U3*%
X147549400Y-69166200D02*
X147324400Y-69166200D01*
X147324400Y-69166200D02*
X147324400Y-67276200D01*
X127329400Y-69166200D02*
X127554400Y-69166200D01*
X147549400Y-69641200D02*
X147549400Y-69166200D01*
X127329400Y-69641200D02*
X127329400Y-69166200D01*
X147549400Y-82911200D02*
X147549400Y-83386200D01*
X127329400Y-82911200D02*
X127329400Y-83386200D01*
X147549400Y-83386200D02*
X147324400Y-83386200D01*
X127329400Y-83386200D02*
X127554400Y-83386200D01*
%TO.C,kibuzzard-643CE80E*%
G36*
X136868694Y-90944303D02*
G01*
X136936559Y-91097894D01*
X136912747Y-91203859D01*
X136852025Y-91268153D01*
X136767491Y-91299109D01*
X136669859Y-91307444D01*
X136597231Y-91305063D01*
X136529366Y-91297919D01*
X136529366Y-90897869D01*
X136686528Y-90897869D01*
X136868694Y-90944303D01*
G37*
G36*
X136741297Y-90313272D02*
G01*
X136807972Y-90337084D01*
X136853216Y-90387091D01*
X136869884Y-90471625D01*
X136812734Y-90606166D01*
X136643666Y-90654981D01*
X136529366Y-90654981D01*
X136529366Y-90316844D01*
X136593659Y-90309700D01*
X136662716Y-90307319D01*
X136741297Y-90313272D01*
G37*
G36*
X143923445Y-90320713D02*
G01*
X144005300Y-90360897D01*
X144057985Y-90433227D01*
X144075547Y-90543063D01*
X144057688Y-90658851D01*
X144004109Y-90734753D01*
X143915408Y-90776723D01*
X143792178Y-90790713D01*
X143673116Y-90790713D01*
X143673116Y-90314463D01*
X143745744Y-90308509D01*
X143818372Y-90307319D01*
X143923445Y-90320713D01*
G37*
G36*
X144862006Y-89856011D02*
G01*
X145043518Y-89911072D01*
X145210800Y-90000486D01*
X145357424Y-90120817D01*
X145477755Y-90267441D01*
X145567169Y-90434723D01*
X145622230Y-90616234D01*
X145640822Y-90805000D01*
X145622230Y-90993766D01*
X145567169Y-91175277D01*
X145477755Y-91342559D01*
X145357424Y-91489183D01*
X145210800Y-91609514D01*
X145043518Y-91698928D01*
X144862006Y-91753989D01*
X144673241Y-91772581D01*
X144375584Y-91772581D01*
X143673116Y-91772581D01*
X143156384Y-91772581D01*
X141970522Y-91772581D01*
X140527484Y-91772581D01*
X138639153Y-91772581D01*
X136646047Y-91772581D01*
X135469709Y-91772581D01*
X134317184Y-91772581D01*
X133457553Y-91772581D01*
X132426472Y-91772581D01*
X130304778Y-91772581D01*
X130205559Y-91772581D01*
X130016794Y-91753989D01*
X129835282Y-91698929D01*
X129668000Y-91609514D01*
X129521376Y-91489183D01*
X129401045Y-91342559D01*
X129311631Y-91175277D01*
X129256570Y-90993766D01*
X129237978Y-90805000D01*
X129256570Y-90616234D01*
X129311631Y-90434723D01*
X129401045Y-90267441D01*
X129521376Y-90120817D01*
X129584279Y-90069194D01*
X130304778Y-90069194D01*
X130304778Y-91543188D01*
X131250134Y-91543188D01*
X131454922Y-91543188D01*
X132426472Y-91543188D01*
X132426472Y-91300300D01*
X131793059Y-91300300D01*
X131854079Y-91187488D01*
X131918075Y-91072891D01*
X131985643Y-90955019D01*
X132057378Y-90832384D01*
X132083749Y-90788331D01*
X132805091Y-90788331D01*
X132805091Y-91076463D01*
X133457553Y-91076463D01*
X133457553Y-90788331D01*
X132805091Y-90788331D01*
X132083749Y-90788331D01*
X132134174Y-90704095D01*
X132216922Y-90569256D01*
X132306814Y-90426381D01*
X132405041Y-90273981D01*
X132405041Y-90069194D01*
X133819503Y-90069194D01*
X133819503Y-91009787D01*
X133825456Y-91132422D01*
X133843316Y-91243150D01*
X133875463Y-91340186D01*
X133924278Y-91421744D01*
X134077869Y-91534853D01*
X134185918Y-91564321D01*
X134317184Y-91574144D01*
X134450534Y-91564321D01*
X134560072Y-91534853D01*
X134648178Y-91486930D01*
X134674350Y-91462225D01*
X135012509Y-91462225D01*
X135176816Y-91534853D01*
X135304808Y-91564321D01*
X135469709Y-91574144D01*
X135636794Y-91561576D01*
X135772922Y-91523873D01*
X135780450Y-91519375D01*
X136236472Y-91519375D01*
X136339461Y-91538127D01*
X136443641Y-91551522D01*
X136546630Y-91559559D01*
X136646047Y-91562238D01*
X136763621Y-91556582D01*
X136873456Y-91539616D01*
X136972278Y-91509255D01*
X137056813Y-91463416D01*
X137179447Y-91320541D01*
X137213380Y-91220230D01*
X137224691Y-91097894D01*
X137211296Y-90997881D01*
X137171113Y-90902631D01*
X137093424Y-90819288D01*
X136967516Y-90754994D01*
X137104438Y-90626406D01*
X137142835Y-90539491D01*
X137155634Y-90440669D01*
X137134203Y-90302556D01*
X137053241Y-90177541D01*
X136888934Y-90087053D01*
X136806002Y-90069194D01*
X138639153Y-90069194D01*
X138639153Y-91543188D01*
X138932047Y-91543188D01*
X139705953Y-91543188D01*
X140022659Y-91543188D01*
X140077428Y-91414302D01*
X140141722Y-91270534D01*
X140210778Y-91122004D01*
X140279834Y-90978831D01*
X140349784Y-91126469D01*
X140416756Y-91274106D01*
X140477181Y-91415195D01*
X140527484Y-91543188D01*
X140844191Y-91543188D01*
X140779897Y-91387216D01*
X140736141Y-91291966D01*
X140685838Y-91189572D01*
X140630176Y-91082118D01*
X140570347Y-90971688D01*
X140507839Y-90862150D01*
X140444141Y-90757375D01*
X140731852Y-90231119D01*
X140972778Y-90231119D01*
X141118034Y-90435906D01*
X141268053Y-90323988D01*
X141413309Y-90290650D01*
X141551422Y-90339466D01*
X141606191Y-90478769D01*
X141562138Y-90604975D01*
X141450219Y-90733563D01*
X141379972Y-90801726D01*
X141304963Y-90872866D01*
X141229953Y-90948470D01*
X141159706Y-91030028D01*
X141097794Y-91118432D01*
X141047788Y-91214575D01*
X141014748Y-91319350D01*
X141003734Y-91433650D01*
X141002544Y-91483656D01*
X141008497Y-91543188D01*
X141970522Y-91543188D01*
X141970522Y-91300300D01*
X141337109Y-91300300D01*
X141362113Y-91221719D01*
X141422834Y-91137184D01*
X141499034Y-91056222D01*
X141570472Y-90988356D01*
X141691916Y-90869294D01*
X141799072Y-90740706D01*
X141875272Y-90603784D01*
X141903847Y-90457338D01*
X141865747Y-90272791D01*
X141763353Y-90140631D01*
X141629138Y-90069194D01*
X142230078Y-90069194D01*
X142230078Y-91543188D01*
X143156384Y-91543188D01*
X143380222Y-91543188D01*
X143673116Y-91543188D01*
X143673116Y-91045506D01*
X143777891Y-91045506D01*
X143953971Y-91032409D01*
X144101212Y-90993119D01*
X144219613Y-90927634D01*
X144306264Y-90832781D01*
X144358254Y-90705384D01*
X144375584Y-90545444D01*
X144358387Y-90387091D01*
X144306793Y-90261281D01*
X144220803Y-90168016D01*
X144103593Y-90103854D01*
X143958337Y-90065357D01*
X143785034Y-90052525D01*
X143692166Y-90054906D01*
X143585009Y-90060859D01*
X143476663Y-90071575D01*
X143380222Y-90088244D01*
X143380222Y-91543188D01*
X143156384Y-91543188D01*
X143156384Y-91300300D01*
X142525353Y-91300300D01*
X142525353Y-90069194D01*
X142230078Y-90069194D01*
X141629138Y-90069194D01*
X141615716Y-90062050D01*
X141441884Y-90035856D01*
X141317762Y-90047763D01*
X141193044Y-90083481D01*
X141075470Y-90144203D01*
X140972778Y-90231119D01*
X140731852Y-90231119D01*
X140820378Y-90069194D01*
X140525103Y-90069194D01*
X140279834Y-90540681D01*
X140046472Y-90069194D01*
X139729766Y-90069194D01*
X140115528Y-90764519D01*
X140057188Y-90868996D01*
X139996466Y-90977641D01*
X139936041Y-91086880D01*
X139878594Y-91193144D01*
X139825016Y-91294347D01*
X139776200Y-91388406D01*
X139705953Y-91543188D01*
X138932047Y-91543188D01*
X138932047Y-90912156D01*
X139465447Y-90912156D01*
X139465447Y-90669269D01*
X138932047Y-90669269D01*
X138932047Y-90312081D01*
X139541647Y-90312081D01*
X139541647Y-90069194D01*
X138639153Y-90069194D01*
X136806002Y-90069194D01*
X136768681Y-90061157D01*
X136617472Y-90052525D01*
X136419828Y-90063241D01*
X136236472Y-90088244D01*
X136236472Y-91519375D01*
X135780450Y-91519375D01*
X135878094Y-91461034D01*
X135978999Y-91324410D01*
X136012634Y-91140756D01*
X136002514Y-91029730D01*
X135972153Y-90939541D01*
X135868569Y-90806191D01*
X135730456Y-90720466D01*
X135586391Y-90662125D01*
X135494713Y-90626406D01*
X135411369Y-90582353D01*
X135350647Y-90525203D01*
X135326834Y-90450194D01*
X135352764Y-90356267D01*
X135430551Y-90299910D01*
X135560197Y-90281125D01*
X135728075Y-90304938D01*
X135860234Y-90362088D01*
X135945959Y-90135869D01*
X135775700Y-90066813D01*
X135665865Y-90043595D01*
X135538766Y-90035856D01*
X135392848Y-90048821D01*
X135269420Y-90087715D01*
X135168481Y-90152538D01*
X135067576Y-90291841D01*
X135033941Y-90476388D01*
X135072041Y-90651409D01*
X135168481Y-90769281D01*
X135298259Y-90847863D01*
X135436372Y-90902631D01*
X135536384Y-90944303D01*
X135626872Y-90994309D01*
X135693547Y-91057413D01*
X135719741Y-91138375D01*
X135709025Y-91208622D01*
X135669734Y-91270534D01*
X135592344Y-91313397D01*
X135469709Y-91328875D01*
X135350945Y-91320541D01*
X135251825Y-91295538D01*
X135098234Y-91224100D01*
X135012509Y-91462225D01*
X134674350Y-91462225D01*
X134717234Y-91421744D01*
X134767836Y-91340186D01*
X134800578Y-91243150D01*
X134818438Y-91132422D01*
X134824391Y-91009787D01*
X134824391Y-90069194D01*
X134531497Y-90069194D01*
X134531497Y-90988356D01*
X134521972Y-91144328D01*
X134488634Y-91246722D01*
X134424341Y-91302681D01*
X134321947Y-91319350D01*
X134219553Y-91302681D01*
X134156450Y-91247913D01*
X134124303Y-91146709D01*
X134114778Y-90990737D01*
X134114778Y-90069194D01*
X133819503Y-90069194D01*
X132405041Y-90069194D01*
X131485878Y-90069194D01*
X131485878Y-90312081D01*
X132052616Y-90312081D01*
X131952306Y-90481745D01*
X131860925Y-90638313D01*
X131777284Y-90782973D01*
X131700191Y-90916919D01*
X131629944Y-91041637D01*
X131566841Y-91158616D01*
X131509095Y-91269046D01*
X131454922Y-91374119D01*
X131454922Y-91543188D01*
X131250134Y-91543188D01*
X131250134Y-91300300D01*
X130597672Y-91300300D01*
X130597672Y-90885962D01*
X131119166Y-90885962D01*
X131119166Y-90643075D01*
X130597672Y-90643075D01*
X130597672Y-90312081D01*
X131197747Y-90312081D01*
X131197747Y-90069194D01*
X130304778Y-90069194D01*
X129584279Y-90069194D01*
X129668000Y-90000486D01*
X129835282Y-89911071D01*
X130016794Y-89856011D01*
X130205559Y-89837419D01*
X130304778Y-89837419D01*
X144375584Y-89837419D01*
X144673241Y-89837419D01*
X144862006Y-89856011D01*
G37*
%TD*%
M02*
